<svg width="24" height="24" viewBox="0 0 24 24" fill="none" xmlns="http://www.w3.org/2000/svg">
<path d="M7.416 2.37736L1.2 2.37736C0.88174 2.37736 0.576515 2.50409 0.351471 2.72966C0.126428 2.95524 -4.02923e-07 3.26118 -3.96725e-07 3.58019C-3.90527e-07 3.8992 0.126428 4.20515 0.351471 4.43072C0.576515 4.6563 0.88174 4.78302 1.2 4.78302L7.416 4.78302C7.66825 5.47964 8.12835 6.08153 8.7338 6.50687C9.33924 6.93221 10.0607 7.16039 10.8 7.16039C11.5393 7.16039 12.2608 6.93221 12.8662 6.50687C13.4716 6.08152 13.9318 5.47964 14.184 4.78302L22.8 4.78302C23.1183 4.78302 23.4235 4.6563 23.6485 4.43072C23.8736 4.20515 24 3.8992 24 3.58019C24 3.26118 23.8736 2.95524 23.6485 2.72966C23.4235 2.50409 23.1183 2.37736 22.8 2.37736L14.184 2.37736C13.9318 1.68074 13.4716 1.07886 12.8662 0.653517C12.2608 0.228175 11.5393 -1.13483e-06 10.8 -1.06212e-06C10.0607 -9.89413e-07 9.33924 0.228175 8.7338 0.653518C8.12835 1.07886 7.66825 1.68074 7.416 2.37736ZM12 3.58019C12 3.81809 11.9296 4.05064 11.7978 4.24845C11.6659 4.44625 11.4785 4.60042 11.2592 4.69146C11.0399 4.7825 10.7987 4.80632 10.5659 4.75991C10.3331 4.7135 10.1193 4.59894 9.95147 4.43072C9.78365 4.2625 9.66936 4.04818 9.62306 3.81485C9.57676 3.58153 9.60052 3.33968 9.69134 3.11989C9.78217 2.9001 9.93598 2.71224 10.1333 2.58008C10.3307 2.44791 10.5627 2.37736 10.8 2.37736C11.1183 2.37736 11.4235 2.50409 11.6485 2.72966C11.8736 2.95524 12 3.26118 12 3.58019ZM14.616 10.7972L1.2 10.7972C0.88174 10.7972 0.576515 10.9239 0.351472 11.1495C0.126428 11.375 -2.39339e-07 11.681 -2.33141e-07 12C-2.26943e-07 12.319 0.126428 12.625 0.351472 12.8505C0.576515 13.0761 0.88174 13.2028 1.2 13.2028L14.616 13.2028C14.8682 13.8994 15.3284 14.5013 15.9338 14.9267C16.5392 15.352 17.2607 15.5802 18 15.5802C18.7393 15.5802 19.4608 15.352 20.0662 14.9267C20.6716 14.5013 21.1318 13.8994 21.384 13.2028L22.8 13.2028C23.1183 13.2028 23.4235 13.0761 23.6485 12.8505C23.8736 12.625 24 12.319 24 12C24 11.681 23.8736 11.375 23.6485 11.1495C23.4235 10.9239 23.1183 10.7972 22.8 10.7972L21.384 10.7972C21.1318 10.1005 20.6716 9.49867 20.0662 9.07332C19.4608 8.64798 18.7393 8.4198 18 8.4198C17.2607 8.4198 16.5392 8.64798 15.9338 9.07332C15.3284 9.49867 14.8682 10.1005 14.616 10.7972ZM19.2 12C19.2 12.2379 19.1296 12.4705 18.9978 12.6683C18.8659 12.8661 18.6785 13.0202 18.4592 13.1113C18.2399 13.2023 17.9987 13.2261 17.7659 13.1797C17.5331 13.1333 17.3193 13.0187 17.1515 12.8505C16.9836 12.6823 16.8694 12.468 16.8231 12.2347C16.7768 12.0013 16.8005 11.7595 16.8913 11.5397C16.9822 11.3199 17.136 11.1321 17.3333 10.9999C17.5307 10.8677 17.7627 10.7972 18 10.7972C18.3183 10.7972 18.6235 10.9239 18.8485 11.1495C19.0736 11.375 19.2 11.681 19.2 12ZM5.016 19.217L1.2 19.217C0.88174 19.217 0.576515 19.3437 0.351472 19.5693C0.126428 19.7949 -7.57555e-08 20.1008 -6.95576e-08 20.4198C-6.33597e-08 20.7388 0.126428 21.0448 0.351472 21.2703C0.576515 21.4959 0.88174 21.6226 1.2 21.6226L5.016 21.6226C5.26825 22.3193 5.72835 22.9211 6.3338 23.3465C6.93924 23.7718 7.66066 24 8.4 24C9.13934 24 9.86076 23.7718 10.4662 23.3465C11.0716 22.9211 11.5318 22.3193 11.784 21.6226L22.8 21.6226C23.1183 21.6226 23.4235 21.4959 23.6485 21.2703C23.8736 21.0448 24 20.7388 24 20.4198C24 20.1008 23.8736 19.7948 23.6485 19.5693C23.4235 19.3437 23.1183 19.217 22.8 19.217L11.784 19.217C11.5318 18.5204 11.0716 17.9185 10.4662 17.4931C9.86076 17.0678 9.13934 16.8396 8.4 16.8396C7.66066 16.8396 6.93924 17.0678 6.3338 17.4931C5.72835 17.9185 5.26825 18.5204 5.016 19.217ZM9.6 20.4198C9.6 20.6577 9.52962 20.8903 9.39776 21.0881C9.26591 21.2859 9.07849 21.44 8.85922 21.5311C8.63995 21.6221 8.39867 21.6459 8.16589 21.5995C7.93311 21.5531 7.7193 21.4386 7.55147 21.2703C7.38365 21.1021 7.26936 20.8878 7.22306 20.6545C7.17676 20.4211 7.20052 20.1793 7.29134 19.9595C7.38217 19.7397 7.53598 19.5519 7.73332 19.4197C7.93065 19.2875 8.16266 19.217 8.4 19.217C8.71826 19.217 9.02348 19.3437 9.24853 19.5693C9.47357 19.7949 9.6 20.1008 9.6 20.4198Z" fill="black"/>
</svg>
