<svg width="32" height="32" viewBox="0 0 32 32" fill="none" xmlns="http://www.w3.org/2000/svg">
<path d="M21.8639 10.1361C21.717 9.98791 21.5422 9.87033 21.3496 9.79008C21.157 9.70984 20.9504 9.66852 20.7417 9.66852C20.5331 9.66852 20.3265 9.70984 20.1339 9.79008C19.9413 9.87033 19.7665 9.98791 19.6195 10.1361L16 13.7714L12.3805 10.1361C12.0828 9.83843 11.6792 9.67122 11.2583 9.67122C10.8374 9.67122 10.4337 9.83843 10.1361 10.1361C9.83843 10.4337 9.67122 10.8374 9.67122 11.2583C9.67122 11.6792 9.83843 12.0828 10.1361 12.3805L13.7714 16L10.1361 19.6195C9.98791 19.7665 9.87033 19.9413 9.79008 20.1339C9.70984 20.3265 9.66852 20.5331 9.66852 20.7417C9.66852 20.9504 9.70984 21.157 9.79008 21.3496C9.87033 21.5422 9.98791 21.717 10.1361 21.8639C10.283 22.0121 10.4578 22.1297 10.6504 22.2099C10.843 22.2902 11.0496 22.3315 11.2583 22.3315C11.4669 22.3315 11.6735 22.2902 11.8661 22.2099C12.0587 22.1297 12.2335 22.0121 12.3805 21.8639L16 18.2286L19.6195 21.8639C19.7665 22.0121 19.9413 22.1297 20.1339 22.2099C20.3265 22.2902 20.5331 22.3315 20.7417 22.3315C20.9504 22.3315 21.157 22.2902 21.3496 22.2099C21.5422 22.1297 21.717 22.0121 21.8639 21.8639C22.0121 21.717 22.1297 21.5422 22.2099 21.3496C22.2902 21.157 22.3315 20.9504 22.3315 20.7417C22.3315 20.5331 22.2902 20.3265 22.2099 20.1339C22.1297 19.9413 22.0121 19.7665 21.8639 19.6195L18.2286 16L21.8639 12.3805C22.0121 12.2335 22.1297 12.0587 22.2099 11.8661C22.2902 11.6735 22.3315 11.4669 22.3315 11.2583C22.3315 11.0496 22.2902 10.843 22.2099 10.6504C22.1297 10.4578 22.0121 10.283 21.8639 10.1361ZM27.1747 4.82532C25.7166 3.3157 23.9726 2.11159 22.0442 1.28322C20.1158 0.454856 18.0418 0.0188337 15.9431 0.000596775C13.8444 -0.0176402 11.7631 0.382273 9.82067 1.177C7.8782 1.97173 6.11345 3.14536 4.6294 4.6294C3.14536 6.11345 1.97173 7.8782 1.177 9.82067C0.382273 11.7631 -0.0176402 13.8444 0.000596775 15.9431C0.0188337 18.0418 0.454856 20.1158 1.28322 22.0442C2.11159 23.9726 3.3157 25.7166 4.82532 27.1747C6.28335 28.6843 8.02743 29.8884 9.9558 30.7168C11.8842 31.5451 13.9582 31.9812 16.0569 31.9994C18.1556 32.0176 20.2369 31.6177 22.1793 30.823C24.1218 30.0283 25.8865 28.8546 27.3706 27.3706C28.8546 25.8865 30.0283 24.1218 30.823 22.1793C31.6177 20.2369 32.0176 18.1556 31.9994 16.0569C31.9812 13.9582 31.5451 11.8842 30.7168 9.9558C29.8884 8.02743 28.6843 6.28335 27.1747 4.82532ZM24.9461 24.9461C22.8787 27.0157 20.1578 28.3045 17.2467 28.5929C14.3357 28.8814 11.4148 28.1516 8.98148 26.5279C6.54821 24.9042 4.75318 22.487 3.90222 19.6883C3.05126 16.8895 3.19701 13.8822 4.31465 11.1789C5.43229 8.47554 7.45267 6.24333 10.0316 4.86256C12.6105 3.48179 15.5883 3.03789 18.4578 3.60649C21.3273 4.17509 23.9109 5.72102 25.7683 7.98088C27.6258 10.2407 28.6423 13.0747 28.6446 16C28.6503 17.6616 28.3263 19.3079 27.6914 20.8435C27.0566 22.3791 26.1234 23.7735 24.9461 24.9461Z" fill="white"/>
</svg>
