<svg width="28" height="28" viewBox="0 0 28 28" fill="none" xmlns="http://www.w3.org/2000/svg">
<path d="M26.9332 11.7333L14.9332 1.06666C14.3999 0.666663 13.7332 0.666663 13.1999 1.06666L1.1999 11.7333C0.666571 12.2667 0.533237 13.0667 1.06657 13.6C1.5999 14.1333 2.3999 14.2667 2.93324 13.7333L3.33324 13.2V26C3.33324 26.8 3.86657 27.3333 4.66657 27.3333H23.3332C24.1332 27.3333 24.6666 26.8 24.6666 26V13.2L25.0666 13.6C25.5999 14.1333 26.3999 14 26.9332 13.4667C27.4666 13.0667 27.4666 12.1333 26.9332 11.7333ZM16.6666 18H15.3332V19.3333C15.3332 20.1333 14.7999 20.6667 13.9999 20.6667C13.1999 20.6667 12.6666 20.1333 12.6666 19.3333V18H11.3332C10.5332 18 9.9999 17.4667 9.9999 16.6667C9.9999 15.8667 10.5332 15.3333 11.3332 15.3333H12.6666V14C12.6666 13.2 13.1999 12.6667 13.9999 12.6667C14.7999 12.6667 15.3332 13.2 15.3332 14V15.3333H16.6666C17.4666 15.3333 17.9999 15.8667 17.9999 16.6667C17.9999 17.4667 17.4666 18 16.6666 18Z" fill="#898989"/>
</svg>
