<svg width="28" height="26" viewBox="0 0 28 26" fill="none" xmlns="http://www.w3.org/2000/svg">
<path d="M27.3334 10.4667C27.4667 9.80002 26.9334 9.00002 26.2668 9.00002L18.6667 7.93335L15.2001 1.00002C15.0667 0.733353 14.9334 0.60002 14.6667 0.466686C14.0001 0.0666862 13.2001 0.333353 12.8001 1.00002L9.46675 7.93335L1.86675 9.00002C1.46675 9.00002 1.20008 9.13335 1.06675 9.40002C0.533415 9.93335 0.533415 10.7334 1.06675 11.2667L6.53341 16.6L5.20008 24.2C5.20008 24.4667 5.20008 24.7334 5.33342 25C5.73341 25.6667 6.53341 25.9334 7.20008 25.5334L14.0001 21.9334L20.8001 25.5334C20.9334 25.6667 21.2001 25.6667 21.4667 25.6667C21.6001 25.6667 21.6001 25.6667 21.7334 25.6667C22.4001 25.5334 22.9334 24.8667 22.8001 24.0667L21.4667 16.4667L26.9334 11.1334C27.2001 11 27.3334 10.7334 27.3334 10.4667Z" fill="#FBA500"/>
</svg>
