



<svg width="24" height="25" viewBox="0 0 24 25" fill="none" xmlns="http://www.w3.org/2000/svg">
<path d="M21.8055 10.5415H21V10.5H12V14.5H17.6515C16.827 16.8285 14.6115 18.5 12 18.5C8.6865 18.5 6 15.8135 6 12.5C6 9.1865 8.6865 6.5 12 6.5C13.5295 6.5 14.921 7.077 15.9805 8.0195L18.809 5.191C17.023 3.5265 14.634 2.5 12 2.5C6.4775 2.5 2 6.9775 2 12.5C2 18.0225 6.4775 22.5 12 22.5C17.5225 22.5 22 18.0225 22 12.5C22 11.8295 21.931 11.175 21.8055 10.5415Z" fill="#FFC107"/>
<path d="M3.15234 7.8455L6.43784 10.255C7.32684 8.054 9.47984 6.5 11.9993 6.5C13.5288 6.5 14.9203 7.077 15.9798 8.0195L18.8083 5.191C17.0223 3.5265 14.6333 2.5 11.9993 2.5C8.15834 2.5 4.82734 4.6685 3.15234 7.8455Z" fill="#FF3D00"/>
<path d="M12.0002 22.5001C14.5832 22.5001 16.9302 21.5116 18.7047 19.9041L15.6097 17.2851C14.5719 18.0743 13.3039 18.5011 12.0002 18.5001C9.39916 18.5001 7.19066 16.8416 6.35866 14.5271L3.09766 17.0396C4.75266 20.2781 8.11366 22.5001 12.0002 22.5001Z" fill="#4CAF50"/>
<path d="M21.8055 10.5415H21V10.5H12V14.5H17.6515C17.2571 15.6082 16.5467 16.5766 15.608 17.2855L15.6095 17.2845L18.7045 19.9035C18.4855 20.1025 22 17.5 22 12.5C22 11.8295 21.931 11.175 21.8055 10.5415Z" fill="#1976D2"/>
</svg>
