 <svg  width="49" height="64" viewBox="0 0 49 64" fill="none" xmlns="http://www.w3.org/2000/svg">
<path fill-rule="evenodd" clip-rule="evenodd" d="M24.5498 7.88007C24.6406 7.7722 24.4646 7.98226 24.5498 7.88007V7.88007ZM26.5482 17.4804C27.536 17.2362 28.8532 16.6401 29.8751 16.2484C30.4542 16.027 30.9424 15.8566 31.4761 15.6466C31.777 15.5274 31.9984 15.4422 32.322 15.323C32.7535 15.164 32.8613 15.164 33.0884 14.9369C32.8386 14.3351 32.2766 13.5801 31.8508 13.0464C31.3682 12.4276 30.7324 11.8712 30.4088 11.3319C30.4144 11.3148 32.708 8.48754 33.4972 7.19879C34.1785 6.09172 35.5126 3.75268 35.8362 2.3731C35.541 2.18575 30.0113 1.03894 29.3698 0.987847C28.7453 1.82241 27.888 4.11603 26.0032 6.34152L24.5895 7.86871C25.5774 4.20687 25.6966 4.13306 25.1232 0L19.2359 0.00567728C19.321 1.69183 19.48 3.15657 19.2926 4.85408C19.1848 5.85328 18.6568 8.24341 18.1174 8.69192C17.5327 9.18017 15.0914 9.21991 12.1109 12.6944C9.09056 16.2143 7.50092 22.5842 8.78966 28.5113C9.1303 30.0839 9.8059 30.6289 11.3501 30.9582C12.7808 31.2648 14.484 31.0377 15.415 30.311C17.0898 28.9996 14.8416 26.7173 15.9885 21.6815C16.6016 18.9905 18.1458 16.6288 19.8944 15.5955C22.8296 13.8582 25.4468 15.2719 26.5425 17.486L26.5482 17.4804Z" fill="#FCFFEF"/>
<path fill-rule="evenodd" clip-rule="evenodd" d="M3.30548 32.684C2.31763 31.3725 3.57799 27.9775 4.40687 26.5071C5.17898 25.1389 5.83187 25.0367 5.87729 24.134C5.93974 22.8055 6.00219 21.7893 6.13844 20.4722C5.46852 20.7447 4.27062 21.8688 3.78805 22.3968C0.835862 25.6101 -1.09441 30.0725 0.688252 34.5405C1.66474 36.9817 1.83506 35.5737 1.59094 37.521C1.27869 40.019 1.86345 42.5057 2.71504 44.5041C4.16843 47.9048 5.83755 49.4547 8.15955 51.5155C11.8044 54.7573 18.8669 63.9715 24.3795 63.9999C29.8297 64.0283 35.2743 56.9998 37.2556 52.2366C38.0618 50.3063 38.7544 48.0865 38.9645 45.702C39.237 42.5681 38.7374 41.3475 37.8972 38.753C37.6644 38.0377 39.6685 36.8852 40.4576 33.3312C41.048 30.6742 40.469 28.6645 39.5038 26.5639C38.5728 26.439 37.0172 26.5639 36.0975 26.7512C36.211 27.0578 36.5005 27.3928 36.6936 27.7448C37.3862 28.9767 37.7666 30.2939 37.6417 31.7927C37.2897 35.9768 33.9685 36.6865 34.6725 38.8268C34.9506 39.6727 35.3367 40.3994 35.5922 41.2794C36.1542 43.1813 36.0918 45.35 35.6773 47.2803C34.8939 50.9535 33.1226 54.1555 31.2491 56.3639C30.6757 57.0395 30.2839 57.5846 29.6537 58.1409C24.5669 62.6146 23.0056 61.1272 18.8953 57.8684C18.566 57.6073 18.2992 57.312 17.9756 57.0452L15.4151 54.604C13.1045 52.3842 11.1231 50.1814 8.70457 47.9332C6.88217 46.2357 4.3501 42.5341 4.53745 38.5486C4.68506 35.4829 6.01922 34.3758 6.3485 33.564C6.74023 32.5988 6.05896 31.6507 5.23575 31.5031C4.11165 31.3044 3.77669 32.0709 3.30548 32.684Z" fill="#FCFFEF"/>
<path fill-rule="evenodd" clip-rule="evenodd" d="M26.9058 45.7986C26.4517 47.9503 23.8799 52.3218 22.9885 54.394C22.5514 55.4102 23.3859 56.2732 24.3113 55.8417C24.8791 55.5749 26.639 51.6859 27.0535 50.7719C27.2635 50.3063 27.3373 49.9771 27.695 49.6705C27.8596 50.5902 28.0924 51.6008 27.9902 52.6397C27.9732 52.7873 27.4622 54.9504 29.1143 54.5927C30.5507 54.2748 29.9602 50.5618 29.6707 49.3355C28.4955 44.2884 29.8126 45.3728 30.0794 40.8934C30.1533 39.6558 29.9091 38.8439 29.8864 37.805C30.3463 38.1342 31.2603 38.8042 31.8848 38.1626C32.8102 37.2089 31.7202 36.6922 31.2546 36.3346C30.6358 35.8577 30.1022 35.517 29.4266 35.1366C28.8248 34.796 27.8823 34.3929 27.4282 34.0182C27.3657 33.2859 27.6666 31.8665 27.7177 31.0036C27.7915 29.783 27.7007 28.6816 27.7234 27.4837C28.768 27.0408 29.8126 26.1836 31.8848 25.3717C41.5703 21.585 47.8096 27.4155 47.645 24.2647C47.5939 23.3506 46.6117 23.2541 45.7374 23.0213C38.8622 21.2046 33.5937 21.8461 27.519 25.3093C24.9926 26.7456 25.7931 26.4788 25.759 29.6127C25.7363 31.4067 24.9983 33.9047 25.8385 35.2445C26.2416 35.8917 27.695 36.238 28.0754 39.4173C28.3649 41.8018 27.1727 42.8464 26.0883 43.7775C24.8507 44.8448 23.8231 45.5374 22.2562 46.3436C19.849 47.5869 18.1288 47.5869 18.583 48.9949C19.1393 50.7208 23.8912 47.7856 25.004 47.11C25.6966 46.6899 26.2984 46.1449 26.9058 45.8156V45.7986Z" fill="#FCFFEF"/>
<path fill-rule="evenodd" clip-rule="evenodd" d="M25.6569 20.1431C25.3049 19.7343 24.7712 18.5761 24.2035 17.9005C23.5563 17.1227 22.4662 17.1 21.5125 17.6451C21.7963 18.0992 21.9666 18.2355 22.3413 18.7067C22.6876 19.1382 22.8693 19.5356 23.1589 19.9784C23.5392 20.5632 24.3397 22.3175 24.7201 22.4991C25.4525 22.8625 26.8377 21.8235 27.5474 21.4772C28.4842 21.023 29.4606 20.5972 30.5053 20.2396C41.0026 16.6231 47.0716 21.8179 48.0254 19.9444C48.7237 18.5761 46.9807 18.332 46.0156 18.0765C39.8785 16.4244 34.4056 16.4699 28.5125 18.8316C27.6155 19.1893 26.3722 19.9217 25.6512 20.1374L25.6569 20.1431Z" fill="#FCFFEF"/>
<path fill-rule="evenodd" clip-rule="evenodd" d="M18.9124 31.702C17.8905 32.0937 15.1427 31.6963 14.4842 32.6274C14.1889 33.0418 14.2741 33.6323 14.5693 33.9218C15.0746 34.4214 16.8743 33.8991 17.7429 33.8707C19.1339 33.8253 19.8095 33.6947 20.4623 32.8942C21.7908 31.2535 20.8541 25.7068 20.0876 23.5381C19.7527 22.5843 19.202 21.6929 18.9522 20.9265C18.4639 21.3466 18.2936 22.7376 18.2255 23.3223C18.0836 24.5429 19.6562 28.9939 18.9181 31.7077L18.9124 31.702Z" fill="#FCFFEF"/>
<path fill-rule="evenodd" clip-rule="evenodd" d="M10.4645 10.9174C11.0322 10.0091 11.5488 9.94663 11.8497 9.27103C10.7824 9.02691 6.03618 7.52811 5.27542 8.28886C4.88937 8.66924 4.94047 9.42432 5.3322 9.77063C5.63877 10.0431 10.0727 10.8834 10.4645 10.9174Z" fill="#FCFFEF"/>
<path fill-rule="evenodd" clip-rule="evenodd" d="M7.51223 15.6126L8.37518 13.7731C6.43922 13.37 2.83983 11.9223 2.35158 13.1713C1.81792 14.5452 3.29969 14.6304 4.3216 14.8575C5.36054 15.0846 6.51303 15.4252 7.50655 15.6126H7.51223Z" fill="#FCFFEF"/>
</svg>