<svg class="svg" width="500" height="567" viewBox="0 0 500 567" fill="none" xmlns="http://www.w3.org/2000/svg">
<path d="M39.7246 17.9361L41.6312 59.5134L0 78.1393L41.9654 66.617L42.6337 81.0479H139.262L140.795 0L39.7246 17.9361Z" fill="url(#paint0_linear_1_231)"/>
<path d="M84.5795 71.278C84.0138 71.2794 83.4651 71.0942 83.0276 70.7541C82.5901 70.4139 82.2909 69.94 82.1815 69.4135L76.6385 43.9078L74.0439 50.0791C73.8599 50.5094 73.5445 50.8777 73.1382 51.1368C72.732 51.3959 72.2534 51.534 71.7638 51.5334H62.4666C62.1268 51.5623 61.7843 51.5238 61.4611 51.4202C61.1379 51.3167 60.8409 51.1505 60.5891 50.9321C60.3373 50.7138 60.1362 50.4481 59.9987 50.1519C59.8611 49.8558 59.79 49.5357 59.79 49.2121C59.79 48.8885 59.8611 48.5685 59.9987 48.2723C60.1362 47.9762 60.3373 47.7105 60.5891 47.4921C60.8409 47.2737 61.1379 47.1075 61.4611 47.004C61.7843 46.9005 62.1268 46.862 62.4666 46.8909H70.1128L75.125 35.0143C75.3231 34.5528 75.672 34.1637 76.1204 33.9041C76.5688 33.6445 77.0931 33.5281 77.6164 33.5719C78.1397 33.6157 78.6344 33.8174 79.028 34.1475C79.4215 34.4775 79.6932 34.9186 79.8031 35.4058L84.2847 56.0267L90.437 19.3529C90.5506 18.8249 90.8535 18.3506 91.2943 18.0106C91.7351 17.6707 92.2865 17.4862 92.8546 17.4884C93.4237 17.4826 93.977 17.6658 94.4186 18.0063C94.8602 18.3469 95.1622 18.8232 95.2723 19.3529L101.169 53.3978L103.724 48.2333C103.92 47.8312 104.234 47.491 104.627 47.253C105.021 47.015 105.479 46.8893 105.945 46.8909H115.95C116.561 46.9429 117.13 47.2099 117.544 47.6395C117.958 48.0691 118.188 48.6301 118.188 49.2121C118.188 49.7942 117.958 50.3552 117.544 50.7847C117.13 51.2143 116.561 51.4814 115.95 51.5334H107.498L102.27 62.1048C102.051 62.5545 101.686 62.9257 101.229 63.1639C100.771 63.402 100.245 63.4945 99.7275 63.4277C99.2103 63.3609 98.7293 63.1383 98.3554 62.7928C97.9815 62.4472 97.7345 61.9969 97.6507 61.5082L92.9332 34.1566L87.0365 69.3203C86.925 69.8389 86.6307 70.3061 86.202 70.645C85.7733 70.9839 85.2357 71.1742 84.6777 71.1847L84.5795 71.278Z" fill="white"/>
<path d="M81.7493 512.077C81.7493 514.164 81.0968 516.204 79.8743 517.939C78.6519 519.675 76.9143 521.027 74.8815 521.826C72.8486 522.625 70.6117 522.834 68.4536 522.427C66.2955 522.019 64.3132 521.014 62.7573 519.539C61.2014 518.063 60.1418 516.182 59.7126 514.135C59.2833 512.088 59.5036 509.966 60.3456 508.038C61.1877 506.11 62.6136 504.462 64.4432 503.302C66.2727 502.143 68.4237 501.524 70.624 501.524C72.085 501.524 73.5317 501.797 74.8815 502.327C76.2312 502.857 77.4577 503.635 78.4908 504.615C79.5238 505.595 80.3433 506.758 80.9024 508.038C81.4615 509.319 81.7493 510.691 81.7493 512.077ZM154.044 447.995C141.681 447.995 129.596 451.473 119.317 457.987C109.038 464.502 101.027 473.762 96.2959 484.596C91.565 495.43 90.3272 507.351 92.739 518.852C95.1508 530.353 101.104 540.917 109.845 549.209C118.587 557.501 129.724 563.148 141.849 565.435C153.974 567.723 166.542 566.549 177.964 562.061C189.385 557.574 199.147 549.975 206.015 540.225C212.884 530.474 216.55 519.011 216.55 507.285C216.56 499.493 214.951 491.775 211.814 484.573C208.678 477.371 204.075 470.826 198.27 465.313C192.465 459.799 185.571 455.425 177.982 452.441C170.393 449.457 162.259 447.921 154.044 447.921V447.995Z" fill="url(#paint1_linear_1_231)"/>
<path d="M154.044 540.435C147.112 540.435 140.336 538.485 134.573 534.832C128.81 531.179 124.318 525.988 121.665 519.913C119.012 513.839 118.318 507.155 119.671 500.706C121.023 494.258 124.361 488.334 129.262 483.685C134.164 479.036 140.408 475.87 147.207 474.587C154.005 473.304 161.052 473.963 167.456 476.479C173.859 478.995 179.333 483.256 183.184 488.723C187.035 494.189 189.09 500.617 189.09 507.192C189.08 516.005 185.384 524.455 178.814 530.687C172.244 536.919 163.336 540.425 154.044 540.435ZM154.044 478.591C148.08 478.591 142.251 480.268 137.292 483.411C132.334 486.554 128.469 491.02 126.187 496.246C123.905 501.473 123.308 507.223 124.471 512.771C125.634 518.319 128.506 523.415 132.723 527.415C136.94 531.415 142.312 534.139 148.161 535.243C154.01 536.346 160.073 535.78 165.583 533.615C171.092 531.45 175.801 527.785 179.114 523.081C182.428 518.378 184.196 512.848 184.196 507.192C184.201 503.431 183.425 499.706 181.913 496.229C180.4 492.753 178.181 489.593 175.381 486.93C172.581 484.268 169.256 482.154 165.595 480.71C161.934 479.267 158.009 478.521 154.044 478.516V478.591Z" fill="white"/>
<path d="M154.044 540.435C144.865 540.435 140.049 523.655 140.049 507.191C140.049 490.728 144.845 473.948 154.044 473.948C163.243 473.948 168.039 490.728 168.039 507.191C168.039 523.655 163.223 540.435 154.044 540.435ZM154.044 478.591C150.329 478.591 144.943 489.777 144.943 507.191C144.943 524.605 150.329 535.792 154.044 535.792C157.759 535.792 163.145 524.605 163.145 507.191C163.145 489.777 157.759 478.516 154.044 478.516V478.591Z" fill="white"/>
<path d="M186.712 509.522H121.435C121.095 509.551 120.752 509.513 120.429 509.409C120.106 509.306 119.809 509.139 119.557 508.921C119.305 508.703 119.104 508.437 118.967 508.141C118.829 507.845 118.758 507.525 118.758 507.201C118.758 506.877 118.829 506.557 118.967 506.261C119.104 505.965 119.305 505.699 119.557 505.481C119.809 505.263 120.106 505.096 120.429 504.993C120.752 504.889 121.095 504.851 121.435 504.88H186.712C187.323 504.932 187.892 505.199 188.306 505.628C188.72 506.058 188.949 506.619 188.949 507.201C188.949 507.783 188.72 508.344 188.306 508.774C187.892 509.203 187.323 509.47 186.712 509.522Z" fill="white"/>
<path d="M180.815 493.842H127.174C126.563 493.79 125.994 493.523 125.58 493.094C125.166 492.664 124.937 492.103 124.937 491.521C124.937 490.939 125.166 490.378 125.58 489.949C125.994 489.519 126.563 489.252 127.174 489.2H180.815C181.155 489.171 181.497 489.21 181.82 489.313C182.144 489.417 182.441 489.583 182.692 489.801C182.944 490.019 183.145 490.285 183.283 490.581C183.42 490.877 183.492 491.198 183.492 491.521C183.492 491.845 183.42 492.165 183.283 492.461C183.145 492.757 182.944 493.023 182.692 493.241C182.441 493.459 182.144 493.626 181.82 493.729C181.497 493.833 181.155 493.871 180.815 493.842Z" fill="white"/>
<path d="M180.815 525.128H127.174C126.563 525.076 125.994 524.809 125.58 524.379C125.166 523.949 124.937 523.388 124.937 522.806C124.937 522.224 125.166 521.663 125.58 521.234C125.994 520.804 126.563 520.537 127.174 520.485H180.815C181.155 520.456 181.497 520.495 181.82 520.598C182.144 520.702 182.441 520.868 182.692 521.086C182.944 521.305 183.145 521.57 183.283 521.867C183.42 522.163 183.492 522.483 183.492 522.806C183.492 523.13 183.42 523.45 183.283 523.746C183.145 524.042 182.944 524.308 182.692 524.526C182.441 524.745 182.144 524.911 181.82 525.015C181.497 525.118 181.155 525.157 180.815 525.128Z" fill="white"/>
<path d="M107.334 200.878C105.602 200.881 103.909 200.396 102.468 199.484C101.027 198.573 99.9037 197.276 99.2405 195.758C98.5774 194.241 98.4042 192.57 98.7428 190.959C99.0814 189.348 99.9166 187.869 101.143 186.708L111.875 176.529C113.531 175.055 115.727 174.25 117.998 174.285C120.269 174.32 122.437 175.191 124.043 176.714C125.649 178.237 126.567 180.293 126.603 182.447C126.64 184.601 125.792 186.684 124.238 188.256L113.506 198.436C112.699 199.21 111.738 199.825 110.678 200.244C109.619 200.664 108.482 200.879 107.334 200.878ZM118.066 178.747C117.045 178.751 116.065 179.132 115.334 179.81L104.602 189.99C103.899 190.684 103.507 191.61 103.507 192.572C103.507 193.535 103.899 194.46 104.602 195.154C105.334 195.821 106.31 196.193 107.324 196.193C108.339 196.193 109.315 195.821 110.047 195.154L120.779 184.975C121.279 184.45 121.612 183.802 121.738 183.105C121.865 182.409 121.78 181.692 121.494 181.039C121.207 180.387 120.731 179.825 120.121 179.419C119.511 179.013 118.791 178.78 118.047 178.747H118.066Z" fill="white"/>
<path d="M116.966 194.129C116.645 194.131 116.327 194.072 116.03 193.957C115.733 193.842 115.463 193.672 115.236 193.458L106.332 185.012C105.941 184.565 105.741 183.996 105.77 183.416C105.798 182.836 106.054 182.288 106.487 181.877C106.919 181.467 107.498 181.225 108.109 181.197C108.72 181.17 109.32 181.36 109.791 181.73L118.695 190.176C119.036 190.502 119.267 190.916 119.361 191.366C119.454 191.817 119.406 192.283 119.221 192.707C119.036 193.131 118.724 193.494 118.323 193.75C117.921 194.007 117.449 194.145 116.966 194.148V194.129Z" fill="white"/>
<path d="M457.572 243.706C480.532 243.706 499.145 226.051 499.145 204.273C499.145 182.494 480.532 164.84 457.572 164.84C434.613 164.84 416 182.494 416 204.273C416 226.051 434.613 243.706 457.572 243.706Z" fill="#BCD34C"/>
<path d="M464.295 223.384H450.83C450.179 223.384 449.554 223.138 449.093 222.701C448.632 222.264 448.373 221.671 448.373 221.053V212.234H439.056C438.405 212.234 437.78 211.989 437.319 211.551C436.858 211.114 436.599 210.522 436.599 209.903V197.132C436.599 196.514 436.858 195.921 437.319 195.484C437.78 195.047 438.405 194.801 439.056 194.801H448.373V185.983C448.373 185.364 448.632 184.772 449.093 184.335C449.554 183.898 450.179 183.652 450.83 183.652H464.295C464.946 183.652 465.571 183.898 466.032 184.335C466.493 184.772 466.752 185.364 466.752 185.983V194.82H476.068C476.72 194.82 477.345 195.066 477.806 195.503C478.267 195.94 478.525 196.533 478.525 197.151V209.922C478.525 210.54 478.267 211.133 477.806 211.57C477.345 212.007 476.72 212.253 476.068 212.253H466.752V221.09C466.741 221.702 466.478 222.285 466.018 222.714C465.558 223.143 464.939 223.384 464.295 223.384ZM453.287 218.741H461.857V209.903C461.857 209.285 462.116 208.693 462.577 208.256C463.038 207.818 463.663 207.573 464.314 207.573H473.631V199.481H464.314C463.663 199.481 463.038 199.236 462.577 198.799C462.116 198.362 461.857 197.769 461.857 197.151V188.294H453.287V197.132C453.29 197.438 453.229 197.742 453.108 198.025C452.987 198.309 452.808 198.567 452.582 198.785C452.355 199.004 452.086 199.177 451.789 199.297C451.492 199.416 451.173 199.479 450.85 199.481H441.533V207.61H450.85C451.502 207.61 452.126 207.856 452.587 208.293C453.048 208.73 453.307 209.323 453.307 209.941L453.287 218.741Z" fill="white"/>
<defs>
<linearGradient id="paint0_linear_1_231" x1="39.7246" y1="128.908" x2="128.979" y2="-34.6548" gradientUnits="userSpaceOnUse">
<stop stop-color="#459FFF"/>
<stop offset="1" stop-color="#A96DFF"/>
</linearGradient>
<linearGradient id="paint1_linear_1_231" x1="193.631" y1="409.308" x2="101.642" y2="604.236" gradientUnits="userSpaceOnUse">
<stop stop-color="#824BA8"/>
<stop offset="1" stop-color="#9D68C2"/>
</linearGradient>
</defs>
</svg>