<svg width="84" height="80" viewBox="0 0 84 80" fill="none" xmlns="http://www.w3.org/2000/svg">
<path d="M41.5723 79.7061C64.532 79.7061 83.1445 62.0512 83.1445 40.2728C83.1445 18.4945 64.532 0.8396 41.5723 0.8396C18.6125 0.8396 0 18.4945 0 40.2728C0 62.0512 18.6125 79.7061 41.5723 79.7061Z" fill="#BCD34C"/>
<path d="M48.2945 59.3835H34.8303C34.1786 59.3835 33.5537 59.138 33.0929 58.7009C32.6321 58.2638 32.3733 57.6711 32.3733 57.0529V48.2341H23.0564C22.4047 48.2341 21.7798 47.9885 21.319 47.5515C20.8582 47.1144 20.5994 46.5216 20.5994 45.9035V33.132C20.5994 32.5139 20.8582 31.9211 21.319 31.484C21.7798 31.047 22.4047 30.8014 23.0564 30.8014H32.3733V21.9825C32.3733 21.3644 32.6321 20.7716 33.0929 20.3346C33.5537 19.8975 34.1786 19.652 34.8303 19.652H48.2945C48.9462 19.652 49.5711 19.8975 50.0319 20.3346C50.4927 20.7716 50.7515 21.3644 50.7515 21.9825V30.8201H60.0685C60.7201 30.8201 61.345 31.0656 61.8058 31.5027C62.2666 31.9397 62.5254 32.5325 62.5254 33.1506V45.9221C62.5254 46.5403 62.2666 47.1331 61.8058 47.5701C61.345 48.0072 60.7201 48.2527 60.0685 48.2527H50.7515V57.0902C50.7412 57.7019 50.4778 58.2851 50.0182 58.7141C49.5585 59.1432 48.9394 59.3836 48.2945 59.3835ZM37.2873 54.741H45.8572V45.9035C45.8572 45.2854 46.1161 44.6926 46.5768 44.2555C47.0376 43.8185 47.6626 43.5729 48.3142 43.5729H57.6311V35.4812H48.3142C47.6626 35.4812 47.0376 35.2357 46.5768 34.7986C46.1161 34.3615 45.8572 33.7687 45.8572 33.1506V24.2945H37.2873V33.132C37.2898 33.438 37.2288 33.7416 37.1077 34.0253C36.9867 34.309 36.8079 34.5673 36.5815 34.7854C36.3552 35.0036 36.0858 35.1773 35.7887 35.2967C35.4916 35.4161 35.1726 35.4788 34.8499 35.4812H25.533V43.6102H34.8499C35.5015 43.6102 36.1265 43.8558 36.5873 44.2928C37.048 44.7299 37.3069 45.3227 37.3069 45.9408L37.2873 54.741Z" fill="white"/>
</svg>