<svg  width="66" height="64" viewBox="0 0 66 64" fill="none" xmlns="http://www.w3.org/2000/svg">
<path fill-rule="evenodd" clip-rule="evenodd" d="M44.7219 23.9052L43.6753 24.3442L42.8702 24.966L42.2171 25.2416L41.692 25.7017L41.3908 26.3346L40.5987 26.942C39.5879 39.107 48.2623 44.8163 44.4593 53.4176C40.4215 62.5497 26.0824 60.8928 21.834 55.9336C14.7031 47.6092 25.109 38.708 25.8673 31.3561C26.9489 20.8721 14.4034 23.8832 0.109842 23.5221L0.000244141 27.6327C5.11607 27.6266 18.6697 26.3984 21.6703 28.7402C22.9514 34.4983 14.592 41.5957 15.4579 50.734C16.2151 58.7247 22.9987 63.5569 31.6128 63.9718C40.7705 64.4129 47.6731 59.5821 49.1123 52.0386C50.9002 42.6691 43.0518 34.1334 44.5871 28.4834C48.1024 26.8291 60.3477 27.6283 65.477 27.6324L65.4324 23.5297C58.5233 23.6461 51.3953 23.1472 44.7216 23.9047L44.7219 23.9052Z" fill="#FCFFEF"/>
<path fill-rule="evenodd" clip-rule="evenodd" d="M48.117 0C45.4267 0.244171 40.0147 6.91963 38.2465 9.2729C31.3927 18.3942 31.3242 28.3264 29.0588 38.973C28.0501 43.7139 24.4839 51.126 29.6932 53.6529C32.8785 55.1984 39.971 54.6213 37.8134 44.6015C34.6547 29.9322 35.9573 18.0354 44.5071 5.81896C45.6891 4.12974 47.4274 1.69245 48.117 0V0Z" fill="#FCFFEF"/>
<path fill-rule="evenodd" clip-rule="evenodd" d="M55.7069 50.716C52.7721 52.7966 55.9172 56.6983 58.6683 54.7041C60.7292 53.2106 58.8967 48.455 55.7069 50.716Z" fill="#FCFFEF"/>
<path fill-rule="evenodd" clip-rule="evenodd" d="M56.3151 39.0882C51.526 38.0201 50.9907 41.7785 53.004 43.2735C55.473 45.1066 57.9647 42.5533 56.3151 39.0882Z" fill="#FCFFEF"/>
<path fill-rule="evenodd" clip-rule="evenodd" d="M7.23489 48.8218C3.47978 47.5048 1.5032 50.7851 3.72836 52.7638C5.85831 54.6581 8.66818 52.4858 7.23489 48.8218Z" fill="#FCFFEF"/>
<path fill-rule="evenodd" clip-rule="evenodd" d="M42.87 24.966L42.2168 25.2416C41.434 25.1391 41.573 24.9492 41.6917 25.7017L41.3905 26.3346L40.5984 26.942L41.3905 26.3346L41.6917 25.7017L42.2168 25.2416L42.87 24.966L43.6751 24.3443L44.7217 23.9053L43.6751 24.3443L42.87 24.966Z" fill="#9E9E9E"/>
<path d="M7.92341 35.2455C9.28393 35.2455 10.3869 34.1426 10.3869 32.7821C10.3869 31.4215 9.28393 30.3186 7.92341 30.3186C6.56288 30.3186 5.45996 31.4215 5.45996 32.7821C5.45996 34.1426 6.56288 35.2455 7.92341 35.2455Z" fill="#FCFFEF"/>
<path d="M10.3524 46.0712C11.7129 46.0712 12.8158 44.9683 12.8158 43.6077C12.8158 42.2472 11.7129 41.1443 10.3524 41.1443C8.99184 41.1443 7.88892 42.2472 7.88892 43.6077C7.88892 44.9683 8.99184 46.0712 10.3524 46.0712Z" fill="#FCFFEF"/>
<path d="M58.6175 35.2455C59.978 35.2455 61.081 34.1426 61.081 32.7821C61.081 31.4215 59.978 30.3186 58.6175 30.3186C57.257 30.3186 56.1541 31.4215 56.1541 32.7821C56.1541 34.1426 57.257 35.2455 58.6175 35.2455Z" fill="#FCFFEF"/>
</svg>