<svg  width="64" height="64" viewBox="0 0 64 64" fill="none" xmlns="http://www.w3.org/2000/svg">
<path d="M45.3333 41.3333V45.3333C45.3333 46.9333 44.2666 47.9999 42.6666 47.9999C41.0666 47.9999 39.9999 46.9333 39.9999 45.3333V41.3333H23.9999V45.3333C23.9999 46.9333 22.9333 47.9999 21.3333 47.9999C19.7333 47.9999 18.6666 46.9333 18.6666 45.3333V41.3333H13.3333C11.4666 41.3333 9.59992 40.7999 7.99992 39.9999V50.6666C7.99992 55.1999 11.4666 58.6666 15.9999 58.6666H47.9999C52.5333 58.6666 55.9999 55.1999 55.9999 50.6666V39.9999C54.3999 40.7999 52.5333 41.3333 50.6666 41.3333H45.3333ZM55.9999 15.9999H45.3333V13.3333C45.3333 8.79992 41.8666 5.33325 37.3333 5.33325H26.6666C22.1333 5.33325 18.6666 8.79992 18.6666 13.3333V15.9999H7.99992C6.39992 15.9999 5.33325 17.0666 5.33325 18.6666V29.3333C5.33325 33.8666 8.79992 37.3333 13.3333 37.3333H50.6666C55.1999 37.3333 58.6666 33.8666 58.6666 29.3333V18.6666C58.6666 17.0666 57.5999 15.9999 55.9999 15.9999ZM39.9999 15.9999H23.9999V13.3333C23.9999 11.7333 25.0666 10.6666 26.6666 10.6666H37.3333C38.9333 10.6666 39.9999 11.7333 39.9999 13.3333V15.9999Z" fill="#FCFFEF"/>
</svg>