<svg class="service_icon_div4" width="64" height="64" viewBox="0 0 64 64" fill="none" xmlns="http://www.w3.org/2000/svg">
<path d="M50.6666 5.33325H13.3333C11.2115 5.33325 9.17669 6.17611 7.6764 7.6764C6.17611 9.17669 5.33325 11.2115 5.33325 13.3333V50.6666C5.33325 52.7883 6.17611 54.8232 7.6764 56.3234C9.17669 57.8237 11.2115 58.6666 13.3333 58.6666H50.6666C52.7883 58.6666 54.8232 57.8237 56.3234 56.3234C57.8237 54.8232 58.6666 52.7883 58.6666 50.6666V13.3333C58.6666 11.2115 57.8237 9.17669 56.3234 7.6764C54.8232 6.17611 52.7883 5.33325 50.6666 5.33325ZM53.3333 50.6666C53.3333 51.3738 53.0523 52.0521 52.5522 52.5522C52.0521 53.0523 51.3738 53.3333 50.6666 53.3333H13.3333C12.626 53.3333 11.9477 53.0523 11.4476 52.5522C10.9475 52.0521 10.6666 51.3738 10.6666 50.6666V13.3333C10.6666 12.626 10.9475 11.9477 11.4476 11.4476C11.9477 10.9475 12.626 10.6666 13.3333 10.6666H50.6666C51.3738 10.6666 52.0521 10.9475 52.5522 11.4476C53.0523 11.9477 53.3333 12.626 53.3333 13.3333V50.6666ZM45.3333 23.9999H39.9999V18.6666C39.9999 17.9593 39.719 17.2811 39.2189 16.781C38.7188 16.2809 38.0405 15.9999 37.3333 15.9999H26.6666C25.9593 15.9999 25.2811 16.2809 24.781 16.781C24.2809 17.2811 23.9999 17.9593 23.9999 18.6666V23.9999H18.6666C17.9593 23.9999 17.2811 24.2809 16.781 24.781C16.2809 25.2811 15.9999 25.9593 15.9999 26.6666V37.3333C15.9999 38.0405 16.2809 38.7188 16.781 39.2189C17.2811 39.719 17.9593 39.9999 18.6666 39.9999H23.9999V45.3333C23.9999 46.0405 24.2809 46.7188 24.781 47.2189C25.2811 47.719 25.9593 47.9999 26.6666 47.9999H37.3333C38.0405 47.9999 38.7188 47.719 39.2189 47.2189C39.719 46.7188 39.9999 46.0405 39.9999 45.3333V39.9999H45.3333C46.0405 39.9999 46.7188 39.719 47.2189 39.2189C47.719 38.7188 47.9999 38.0405 47.9999 37.3333V26.6666C47.9999 25.9593 47.719 25.2811 47.2189 24.781C46.7188 24.2809 46.0405 23.9999 45.3333 23.9999ZM42.6666 34.6666H37.3333C36.626 34.6666 35.9477 34.9475 35.4476 35.4476C34.9475 35.9477 34.6666 36.626 34.6666 37.3333V42.6666H29.3333V37.3333C29.3333 36.626 29.0523 35.9477 28.5522 35.4476C28.0521 34.9475 27.3738 34.6666 26.6666 34.6666H21.3333V29.3333H26.6666C27.3738 29.3333 28.0521 29.0523 28.5522 28.5522C29.0523 28.0521 29.3333 27.3738 29.3333 26.6666V21.3333H34.6666V26.6666C34.6666 27.3738 34.9475 28.0521 35.4476 28.5522C35.9477 29.0523 36.626 29.3333 37.3333 29.3333H42.6666V34.6666Z" fill="#FCFFEF"/>
</svg>