<svg width="130" height="120" viewBox="0 0 158 120" fill="none" xmlns="http://www.w3.org/2000/svg">
<path d="M22.7493 65.0766C22.7493 67.1637 22.0968 69.204 20.8743 70.9394C19.6519 72.6748 17.9143 74.0274 15.8815 74.8261C13.8486 75.6248 11.6117 75.8338 9.45358 75.4266C7.2955 75.0194 5.31317 74.0144 3.75728 72.5385C2.20138 71.0627 1.14183 69.1824 0.712555 67.1353C0.283285 65.0883 0.503594 62.9665 1.34564 61.0382C2.18768 59.1099 3.61362 57.4618 5.44316 56.3022C7.2727 55.1427 9.42366 54.5237 11.624 54.5237C13.085 54.5237 14.5317 54.7967 15.8815 55.327C17.2312 55.8574 18.4577 56.6347 19.4908 57.6146C20.5238 58.5945 21.3433 59.7579 21.9024 61.0382C22.4615 62.3185 22.7493 63.6907 22.7493 65.0766V65.0766ZM95.0437 0.995248C82.6813 0.995248 70.5964 4.47253 60.3174 10.9874C50.0383 17.5022 42.0268 26.762 37.2959 37.5957C32.565 48.4295 31.3272 60.3507 33.739 71.8517C36.1508 83.3528 42.1039 93.9172 50.8455 102.209C59.5871 110.501 70.7245 116.148 82.8494 118.435C94.9744 120.723 107.542 119.549 118.964 115.061C130.385 110.574 140.147 102.975 147.015 93.2245C153.884 83.4744 157.55 72.0113 157.55 60.2849C157.56 52.4926 155.951 44.7748 152.814 37.5728C149.678 30.3709 145.075 23.826 139.27 18.3126C133.465 12.7991 126.571 8.42519 118.982 5.44094C111.393 2.45669 103.259 0.920648 95.0437 0.920654V0.995248Z" fill="url(#paint0_linear_0_1)"/>
<path d="M95.0438 93.4348C88.1123 93.4348 81.3364 91.4851 75.573 87.8323C69.8097 84.1794 65.3177 78.9876 62.6651 72.9131C60.0125 66.8387 59.3185 60.1546 60.6707 53.7061C62.023 47.2575 65.3608 41.3341 70.2622 36.685C75.1635 32.0358 81.4082 28.8697 88.2066 27.587C95.005 26.3043 102.052 26.9627 108.456 29.4788C114.859 31.9949 120.333 36.2557 124.184 41.7225C128.035 47.1894 130.09 53.6166 130.09 60.1915C130.08 69.0051 126.384 77.455 119.814 83.6871C113.244 89.9193 104.336 93.4249 95.0438 93.4348ZM95.0438 31.5907C89.0803 31.5907 83.2506 33.2682 78.2921 36.4109C73.3336 39.5536 69.469 44.0204 67.1869 49.2465C64.9047 54.4726 64.3076 60.2232 65.471 65.7712C66.6344 71.3192 69.5062 76.4154 73.723 80.4153C77.9399 84.4152 83.3125 87.1391 89.1614 88.2427C95.0104 89.3463 101.073 88.7799 106.583 86.6151C112.092 84.4504 116.801 80.7846 120.114 76.0812C123.428 71.3779 125.196 65.8482 125.196 60.1915C125.201 56.4307 124.425 52.7058 122.913 49.2294C121.4 45.753 119.181 42.5932 116.381 39.9304C113.581 37.2677 110.256 35.1541 106.595 33.7104C102.934 32.2667 99.0086 31.5211 95.0438 31.5162V31.5907Z" fill="white"/>
<path d="M95.0438 93.4347C85.8645 93.4347 81.0488 76.6546 81.0488 60.1915C81.0488 43.7283 85.8449 26.9482 95.0438 26.9482C104.243 26.9482 109.039 43.7283 109.039 60.1915C109.039 76.6546 104.223 93.4347 95.0438 93.4347ZM95.0438 31.5907C91.3289 31.5907 85.9431 42.7775 85.9431 60.1915C85.9431 77.6055 91.3289 88.7922 95.0438 88.7922C98.7588 88.7922 104.145 77.6055 104.145 60.1915C104.145 42.7775 98.7588 31.5162 95.0438 31.5162V31.5907Z" fill="white"/>
<path d="M121.815 46.8424H68.174C67.5628 46.7904 66.9943 46.5233 66.5802 46.0937C66.1662 45.6642 65.9365 45.1032 65.9365 44.5211C65.9365 43.9391 66.1662 43.3781 66.5802 42.9485C66.9943 42.5189 67.5628 42.2519 68.174 42.1999H121.815C122.155 42.171 122.497 42.2095 122.82 42.313C123.144 42.4165 123.441 42.5828 123.692 42.8011C123.944 43.0195 124.145 43.2852 124.283 43.5813C124.42 43.8774 124.492 44.1975 124.492 44.5211C124.492 44.8447 124.42 45.1648 124.283 45.4609C124.145 45.7571 123.944 46.0228 123.692 46.2411C123.441 46.4595 123.144 46.6257 122.82 46.7293C122.497 46.8328 122.155 46.8713 121.815 46.8424V46.8424Z" fill="white"/>
<path d="M121.815 78.1277H68.174C67.5628 78.0756 66.9943 77.8086 66.5802 77.379C66.1662 76.9494 65.9365 76.3885 65.9365 75.8064C65.9365 75.2244 66.1662 74.6634 66.5802 74.2338C66.9943 73.8042 67.5628 73.5372 68.174 73.4852H121.815C122.155 73.4562 122.497 73.4948 122.82 73.5983C123.144 73.7018 123.441 73.868 123.692 74.0864C123.944 74.3048 124.145 74.5705 124.283 74.8666C124.42 75.1627 124.492 75.4828 124.492 75.8064C124.492 76.13 124.42 76.4501 124.283 76.7462C124.145 77.0423 123.944 77.308 123.692 77.5264C123.441 77.7448 123.144 77.911 122.82 78.0145C122.497 78.1181 122.155 78.1566 121.815 78.1277Z" fill="white"/>
<defs>
<linearGradient id="paint0_linear_0_1" x1="134.631" y1="-37.6922" x2="42.6416" y2="157.236" gradientUnits="userSpaceOnUse">
<stop stop-color="#824BA8"/>
<stop offset="1" stop-color="#9D68C2"/>
</linearGradient>
</defs>
</svg>