<svg width="79" height="59" viewBox="0 0 79 59" fill="none" xmlns="http://www.w3.org/2000/svg">
<path d="M11.477 31.9711C11.477 33.0062 11.1539 34.0181 10.5486 34.8788C9.94335 35.7395 9.08304 36.4103 8.07649 36.8065C7.06994 37.2026 5.96236 37.3062 4.89381 37.1043C3.82526 36.9023 2.84374 36.4039 2.07336 35.6719C1.30298 34.94 0.778356 34.0074 0.565809 32.9921C0.353262 31.9769 0.462345 30.9245 0.879271 29.9682C1.2962 29.0118 2.00223 28.1944 2.9081 27.6193C3.81397 27.0442 4.87899 26.7372 5.96847 26.7372C6.69186 26.7372 7.40816 26.8726 8.07649 27.1356C8.74481 27.3987 9.35207 27.7842 9.86358 28.2702C10.3751 28.7562 10.7808 29.3332 11.0577 29.9682C11.3345 30.6032 11.477 31.2837 11.477 31.9711V31.9711ZM47.2726 0.189096C41.1515 0.189096 35.1678 1.9137 30.0783 5.14481C24.9888 8.37593 21.022 12.9684 18.6796 18.3416C16.3371 23.7147 15.7242 29.6272 16.9184 35.3313C18.1126 41.0354 21.0601 46.275 25.3884 50.3874C29.7167 54.4998 35.2313 57.3004 41.2348 58.435C47.2383 59.5696 53.4611 58.9873 59.1162 56.7617C64.7714 54.5361 69.605 50.7671 73.0057 45.9314C76.4064 41.0957 78.2215 35.4104 78.2215 29.5946C78.2266 25.7299 77.4299 21.9021 75.8768 18.3302C74.3238 14.7583 72.0449 11.5123 69.1706 8.77784C66.2962 6.04337 62.8827 3.87407 59.1252 2.39399C55.3678 0.913917 51.3401 0.152097 47.2726 0.1521V0.189096Z" fill="url(#paint0_linear_0_1)"/>
<path d="M47.2727 46.0356C43.8407 46.0356 40.4857 45.0687 37.632 43.257C34.7784 41.4453 32.5542 38.8704 31.2408 35.8577C29.9274 32.845 29.5838 29.5299 30.2534 26.3317C30.9229 23.1334 32.5756 20.1957 35.0024 17.8899C37.4293 15.5841 40.5213 14.0138 43.8874 13.3776C47.2535 12.7414 50.7425 13.0679 53.9133 14.3158C57.0841 15.5637 59.7943 17.677 61.701 20.3883C63.6078 23.0996 64.6255 26.2873 64.6255 29.5482C64.6203 33.9195 62.7905 38.1103 59.5373 41.2012C56.2841 44.2921 51.8734 46.0307 47.2727 46.0356ZM47.2727 15.3633C44.32 15.3633 41.4335 16.1952 38.9784 17.7539C36.5232 19.3126 34.6097 21.5279 33.4797 24.1199C32.3498 26.7118 32.0541 29.5639 32.6301 32.3156C33.2062 35.0672 34.6281 37.5947 36.716 39.5785C38.8039 41.5623 41.4641 42.9132 44.3601 43.4606C47.2562 44.0079 50.258 43.727 52.986 42.6534C55.714 41.5797 58.0456 39.7616 59.6861 37.4289C61.3265 35.0962 62.2021 32.3537 62.2021 29.5482C62.2047 27.683 61.8206 25.8356 61.0717 24.1114C60.3228 22.3872 59.2238 20.8201 57.8375 19.4995C56.4512 18.1789 54.8046 17.1306 52.9919 16.4146C51.1792 15.6985 49.2358 15.3287 47.2727 15.3263V15.3633Z" fill="white"/>
<path d="M47.2727 46.0356C42.7277 46.0356 40.3433 37.7133 40.3433 29.5482C40.3433 21.3831 42.718 13.0608 47.2727 13.0608C51.8274 13.0608 54.2021 21.3831 54.2021 29.5482C54.2021 37.7133 51.8177 46.0356 47.2727 46.0356ZM47.2727 15.3633C45.4333 15.3633 42.7666 20.9115 42.7666 29.5482C42.7666 38.1849 45.4333 43.7331 47.2727 43.7331C49.1121 43.7331 51.7788 38.1849 51.7788 29.5482C51.7788 20.9115 49.1121 15.3263 47.2727 15.3263V15.3633Z" fill="white"/>
<path d="M63.4479 30.7047H31.1268C30.9585 30.7191 30.789 30.6999 30.6289 30.6486C30.4689 30.5972 30.3218 30.5148 30.1972 30.4064C30.0725 30.2981 29.9729 30.1663 29.9048 30.0194C29.8367 29.8725 29.8015 29.7137 29.8015 29.5531C29.8015 29.3926 29.8367 29.2338 29.9048 29.0869C29.9729 28.94 30.0725 28.8082 30.1972 28.6999C30.3218 28.5915 30.4689 28.5091 30.6289 28.4577C30.789 28.4064 30.9585 28.3873 31.1268 28.4016H63.4479C63.7505 28.4274 64.032 28.5599 64.237 28.773C64.442 28.9861 64.5558 29.2644 64.5558 29.5531C64.5558 29.8419 64.442 30.1202 64.237 30.3333C64.032 30.5464 63.7505 30.6789 63.4479 30.7047Z" fill="white"/>
<path d="M60.528 22.9281H33.9684C33.6658 22.9023 33.3843 22.7698 33.1793 22.5567C32.9743 22.3436 32.8606 22.0653 32.8606 21.7766C32.8606 21.4878 32.9743 21.2095 33.1793 20.9964C33.3843 20.7833 33.6658 20.6508 33.9684 20.625H60.528C60.6963 20.6106 60.8658 20.6298 61.0259 20.6811C61.1859 20.7325 61.333 20.8149 61.4577 20.9233C61.5823 21.0316 61.6819 21.1634 61.75 21.3103C61.8181 21.4572 61.8533 21.616 61.8533 21.7766C61.8533 21.9371 61.8181 22.0959 61.75 22.2428C61.6819 22.3897 61.5823 22.5215 61.4577 22.6298C61.333 22.7382 61.1859 22.8206 61.0259 22.872C60.8658 22.9233 60.6963 22.9424 60.528 22.9281V22.9281Z" fill="white"/>
<path d="M60.528 38.4445H33.9684C33.6658 38.4187 33.3843 38.2862 33.1793 38.0731C32.9743 37.86 32.8606 37.5817 32.8606 37.2929C32.8606 37.0042 32.9743 36.7258 33.1793 36.5127C33.3843 36.2996 33.6658 36.1671 33.9684 36.1413H60.528C60.6963 36.127 60.8658 36.1461 61.0259 36.1975C61.1859 36.2488 61.333 36.3313 61.4577 36.4396C61.5823 36.5479 61.6819 36.6798 61.75 36.8267C61.8181 36.9736 61.8533 37.1324 61.8533 37.2929C61.8533 37.4534 61.8181 37.6122 61.75 37.7591C61.6819 37.906 61.5823 38.0379 61.4577 38.1462C61.333 38.2545 61.1859 38.337 61.0259 38.3883C60.8658 38.4397 60.6963 38.4588 60.528 38.4445V38.4445Z" fill="white"/>
<defs>
<linearGradient id="paint0_linear_0_1" x1="66.8736" y1="-18.9984" x2="21.202" y2="77.6199" gradientUnits="userSpaceOnUse">
<stop stop-color="#824BA8"/>
<stop offset="1" stop-color="#9D68C2"/>
</linearGradient>
</defs>
</svg>
