<svg width="43" height="40" viewBox="0 0 43 40" fill="none" xmlns="http://www.w3.org/2000/svg">
<path d="M21.5605 39.8691C32.9287 39.8691 42.1444 31.113 42.1444 20.3117C42.1444 9.51043 32.9287 0.754272 21.5605 0.754272C10.1923 0.754272 0.976562 9.51043 0.976562 20.3117C0.976562 31.113 10.1923 39.8691 21.5605 39.8691Z" fill="#BCD34C"/>
<path d="M24.8892 29.7898H18.2225C17.8999 29.7898 17.5904 29.6681 17.3623 29.4513C17.1341 29.2345 17.006 28.9405 17.006 28.634V24.2601H12.3928C12.0702 24.2601 11.7607 24.1384 11.5326 23.9216C11.3044 23.7048 11.1763 23.4108 11.1763 23.1043V16.7701C11.1763 16.4635 11.3044 16.1695 11.5326 15.9527C11.7607 15.736 12.0702 15.6142 12.3928 15.6142H17.006V11.2403C17.006 10.9338 17.1341 10.6398 17.3623 10.423C17.5904 10.2062 17.8999 10.0845 18.2225 10.0845H24.8892C25.2118 10.0845 25.5212 10.2062 25.7494 10.423C25.9775 10.6398 26.1057 10.9338 26.1057 11.2403V15.6234H30.7188C31.0415 15.6234 31.3509 15.7452 31.5791 15.962C31.8072 16.1787 31.9354 16.4727 31.9354 16.7793V23.1135C31.9354 23.4201 31.8072 23.7141 31.5791 23.9308C31.3509 24.1476 31.0415 24.2694 30.7188 24.2694H26.1057V28.6525C26.1006 28.9558 25.9702 29.2451 25.7426 29.4579C25.515 29.6706 25.2085 29.7899 24.8892 29.7898V29.7898ZM19.439 27.4873H23.6824V23.1043C23.6824 22.7977 23.8105 22.5037 24.0387 22.2869C24.2668 22.0702 24.5763 21.9484 24.8989 21.9484H29.512V17.9352H24.8989C24.5763 17.9352 24.2668 17.8134 24.0387 17.5966C23.8105 17.3799 23.6824 17.0859 23.6824 16.7793V12.387H19.439V16.7701C19.4403 16.9218 19.4101 17.0724 19.3502 17.2131C19.2902 17.3538 19.2017 17.4819 19.0896 17.5901C18.9776 17.6983 18.8442 17.7845 18.697 17.8437C18.5499 17.9029 18.392 17.934 18.2322 17.9352H13.6191V21.9669H18.2322C18.5549 21.9669 18.8643 22.0887 19.0925 22.3054C19.3206 22.5222 19.4488 22.8162 19.4488 23.1228L19.439 27.4873Z" fill="white"/>
</svg>
