<svg width="70" height="41" viewBox="0 0 70 41" fill="none" xmlns="http://www.w3.org/2000/svg">
<path d="M19.6691 8.89562L20.6131 29.5164L0 38.7542L20.7786 33.0396L21.1095 40.1967H68.9538L69.7129 0L19.6691 8.89562Z" fill="url(#paint0_linear_0_1)"/>
<path d="M41.8784 35.3511C41.5983 35.3519 41.3266 35.26 41.11 35.0913C40.8934 34.9226 40.7453 34.6875 40.6911 34.4264L37.9465 21.7765L36.6619 24.8373C36.5707 25.0507 36.4146 25.2334 36.2134 25.3619C36.0123 25.4904 35.7753 25.5589 35.5329 25.5586H30.9295C30.7613 25.5729 30.5917 25.5538 30.4317 25.5025C30.2716 25.4511 30.1246 25.3687 29.9999 25.2604C29.8752 25.1521 29.7757 25.0203 29.7075 24.8734C29.6394 24.7265 29.6042 24.5678 29.6042 24.4073C29.6042 24.2468 29.6394 24.0881 29.7075 23.9412C29.7757 23.7943 29.8752 23.6625 29.9999 23.5542C30.1246 23.4459 30.2716 23.3635 30.4317 23.3122C30.5917 23.2608 30.7613 23.2417 30.9295 23.2561H34.7154L37.1971 17.3657C37.2953 17.1368 37.468 16.9439 37.69 16.8151C37.912 16.6863 38.1716 16.6286 38.4307 16.6503C38.6898 16.672 38.9348 16.7721 39.1296 16.9358C39.3245 17.0995 39.459 17.3182 39.5134 17.5599L41.7324 27.7871L44.7787 9.59823C44.8349 9.33637 44.9849 9.10112 45.2032 8.93253C45.4214 8.76393 45.6944 8.67241 45.9757 8.67353V8.67353C46.2575 8.67063 46.5315 8.7615 46.7501 8.9304C46.9687 9.09929 47.1183 9.33556 47.1728 9.59823L50.0925 26.4833L51.3577 23.9218C51.4546 23.7224 51.6098 23.5537 51.8048 23.4357C51.9998 23.3176 52.2263 23.2553 52.4575 23.2561H57.4112C57.7138 23.2819 57.9954 23.4143 58.2004 23.6274C58.4054 23.8404 58.5191 24.1186 58.5191 24.4073C58.5191 24.696 58.4054 24.9742 58.2004 25.1873C57.9954 25.4003 57.7138 25.5328 57.4112 25.5586H53.2263L50.6375 30.8016C50.5293 31.0246 50.3486 31.2088 50.122 31.3269C49.8954 31.445 49.6348 31.4908 49.3787 31.4577C49.1226 31.4246 48.8845 31.3142 48.6994 31.1428C48.5142 30.9714 48.3919 30.7481 48.3504 30.5057L46.0147 16.9404L43.0949 34.3802C43.0397 34.6374 42.894 34.8692 42.6817 35.0372C42.4695 35.2053 42.2033 35.2997 41.927 35.3049L41.8784 35.3511Z" fill="white"/>
<defs>
<linearGradient id="paint0_linear_0_1" x1="19.6691" y1="63.9338" x2="63.9758" y2="-17.1253" gradientUnits="userSpaceOnUse">
<stop stop-color="#459FFF"/>
<stop offset="1" stop-color="#A96DFF"/>
</linearGradient>
</defs>
</svg>
