<svg   width="75" height="64" viewBox="0 0 75 64" fill="none" xmlns="http://www.w3.org/2000/svg">
<path fill-rule="evenodd" clip-rule="evenodd" d="M49.0051 52.9158C48.4477 56.7249 45.0888 59.8765 40.5698 59.2214C36.8702 58.6854 33.6947 55.2694 34.3594 50.8361C34.912 47.158 38.3067 44.004 42.7018 44.6138C46.3633 45.1212 49.6411 48.5563 49.0027 52.9158H49.0051ZM13.5581 38.2724C14.7682 37.9246 15.7449 39.292 16.2595 39.8089C16.9956 40.5474 17.8174 41.2811 18.4964 42.0482C19.6327 43.3322 18.4964 44.3875 17.8484 45.0331C17.3434 45.5381 16.2452 46.8555 15.4948 47.0603C14.1107 47.4367 12.7958 45.6215 11.5761 44.397C9.86567 42.6819 9.22724 42.234 11.1521 40.2949C11.6976 39.7446 12.7148 38.513 13.5581 38.27V38.2724ZM9.12481 35.7425C8.71507 35.3995 7.35245 32.8434 6.9856 32.1073C4.72013 27.5788 3.95545 22.9692 5.28709 17.9261C7.84319 8.24249 17.5864 2.74915 26.0908 6.00323C30.1596 7.5588 33.3994 10.5747 35.1836 14.1694C35.6672 15.1461 36.308 17.6927 38.0018 16.5921C38.5759 16.2181 38.6997 15.4462 39.0475 14.7435C40.0481 12.7162 40.9747 11.3108 42.5398 9.74804C49.5006 2.80156 60.3324 3.90214 66.0687 11.4561C71.0856 18.0595 70.9784 26.2685 66.8739 33.4294C66.4975 34.0845 66.1855 34.6086 65.7972 35.247C64.5584 37.279 63.1672 39.323 61.5188 41.0429C60.0847 42.5365 55.3441 48.3991 53.2168 48.3658C52.9786 47.4748 52.6546 46.7888 52.2377 45.9979C51.0586 43.7681 50.5511 44.0326 49.017 42.5961C48.5477 42.1578 47.733 41.4336 47.1946 41.1501C44.0049 39.4683 39.7955 39.4802 36.5057 41.0238C31.7723 43.2441 28.9399 48.492 29.8022 53.871C30.96 61.0914 38.3567 65.7034 45.4628 63.4046C48.6192 62.3826 51.0443 60.2243 52.5141 57.3181C53.7695 54.8382 52.4712 55.4742 55.0964 53.3708L57.7358 50.9743C59.8155 49.1924 63.2792 45.5667 65.1588 43.6586C67.4266 41.3574 68.0555 40.7713 69.654 38.1724C73.1415 32.4932 75.1687 27.3477 74.4588 20.182C73.9991 15.5415 72.2839 11.7896 69.8183 8.35922C69.3657 7.73032 68.8178 7.16574 68.3175 6.5964C61.8999 -0.724084 50.1962 -2.21772 42.2135 3.64486C41.6251 4.07603 40.8389 4.64776 40.3863 5.08132C39.9099 5.5387 37.6206 7.88754 37.3324 8.46403C36.601 7.64932 35.9483 6.72265 35.0335 5.82933C33.8162 4.63823 32.3202 3.55195 30.7861 2.61337C24.2684 -1.36966 15.6353 -0.543038 9.94428 3.36852C7.88845 4.78116 6.24712 6.36532 4.89403 8.20914C4.13888 9.23825 3.60526 9.99102 2.9311 11.1893C-0.432553 17.1733 -0.875641 24.7964 1.447 31.2116C2.55472 34.2703 3.71246 36.1046 5.21324 38.6297C6.23997 40.3521 5.61584 39.3206 5.39429 41.3502C5.22992 42.8486 5.61345 44.2684 6.24473 45.3428C6.8379 46.3504 10.1158 49.5473 11.0877 50.3835C12.9149 51.9557 16.219 52.2726 18.4606 50.7813C19.8971 49.8261 22.5199 47.2628 23.175 45.6096C24.2589 42.8724 23.4847 40.3902 21.5384 38.4416C20.1329 37.0361 18.1176 34.6539 16.2571 33.9297C13.3484 32.7958 10.3683 34.1083 9.11766 35.7401L9.12481 35.7425Z" fill="#FCFFEF"/>
<path fill-rule="evenodd" clip-rule="evenodd" d="M37.511 22.8596C30.4335 23.4194 25.3713 27.6335 22.9915 32.8362C22.3221 34.3013 22.4865 35.5591 23.6014 36.2976C24.8806 37.1456 26.348 36.5072 26.9126 35.5424C27.6702 34.2489 27.3986 34.1417 28.7326 32.4193C31.92 28.3077 37.5348 26.3686 42.7733 28.2148C43.6999 28.5411 45.3055 29.2296 46.2846 27.7741C47.166 26.4639 46.7301 24.9488 45.6414 24.3294C43.7643 23.2646 40.0051 22.6643 37.5086 22.862L37.511 22.8596Z" fill="#FCFFEF"/>
<path fill-rule="evenodd" clip-rule="evenodd" d="M36.9606 30.7065C33.1753 31.3021 30.6359 33.4199 29.2638 35.9283C28.8969 36.5977 28.4157 37.4219 28.5491 38.3486C28.8302 40.2901 31.129 40.8213 32.4035 39.7255C33.2373 39.0085 33.8328 35.8211 37.6991 35.2851C38.6329 35.1565 39.6906 35.278 40.522 35.5972C43.919 36.905 45.3507 32.6075 42.5016 31.3855C40.9175 30.7065 38.8712 30.404 36.9606 30.7065Z" fill="#FCFFEF"/>
</svg>