<svg class="service_icon_div7" width="47" height="64" viewBox="0 0 47 64" fill="none" xmlns="http://www.w3.org/2000/svg">
<path fill-rule="evenodd" clip-rule="evenodd" d="M9.55811 13.4028C10.3418 14.3047 11.0263 14.6732 11.8072 15.4757C12.795 16.4906 13.0046 16.6997 14.0027 17.5293C15.7171 18.9543 17.1283 20.1856 18.7517 21.6952C20.2078 23.0492 21.8304 24.0076 22.1964 26.7324C22.6046 29.7727 21.3337 30.9668 23.8634 33.3073C28.4029 37.5069 32.7241 32.2129 33.438 31.9355C34.295 31.6027 34.8535 31.8188 35.9891 30.947C40.0213 27.8524 37.2196 21.0197 30.9299 22.8813C30.3194 22.2467 29.9657 21.5386 29.4709 20.9351L19.6493 11.183C18.1728 9.95606 16.9958 8.67235 15.5447 7.50134L9.55786 13.403L9.55811 13.4028Z" fill="#FCFFEF"/>
<path fill-rule="evenodd" clip-rule="evenodd" d="M32.4969 37.7014C30.1534 37.1087 24.9671 35.448 23.6698 41.0344C23.1976 43.0677 23.9339 44.9865 24.9359 46.1098C29.5115 51.2401 29.1819 40.3875 32.2145 63.7496L38.7502 63.9886C38.5891 57.3562 38.1174 51.4264 37.1181 45.1135C39.1208 43.6864 41.9452 41.7308 39.7726 38.0363C38.251 35.449 34.5479 35.2253 32.4969 37.7016V37.7014Z" fill="#FCFFEF"/>
<path fill-rule="evenodd" clip-rule="evenodd" d="M21.1306 1.82991C23.8 4.70333 31.333 11.208 34.0985 14.8779C34.8659 15.8958 35.5434 16.8293 36.3557 17.9744C37.7975 20.0077 39.1154 22.1404 40.2173 24.7821C42.8694 31.1384 43.2604 55.2776 43.5529 63.801L46.3573 64.0003C46.1231 55.009 45.6228 30.8399 42.8739 23.9068C40.0622 16.8152 29.3824 4.30847 23.1197 0.000488281L21.1306 1.83016V1.82991Z" fill="#FCFFEF"/>
<path fill-rule="evenodd" clip-rule="evenodd" d="M1.37565e-05 22.9854C1.20315 24.1996 6.54558 27.2387 8.2879 28.2327C9.7782 29.0829 11.0546 29.8558 12.5946 30.6829C14.0202 31.4485 15.6679 31.988 16.9907 33.0008C15.7723 46.6585 15.7296 49.114 19.8019 63.9593L22.7589 63.9577C18.3412 48.742 18.5408 46.8363 20.2424 31.2211L10.8059 26.4312C9.07861 25.4527 3.10838 21.5549 1.74409 21.2135L-0.000488281 22.9854H1.37565e-05Z" fill="#FCFFEF"/>
</svg>