<svg width="66" height="64" viewBox="0 0 66 64" fill="none" xmlns="http://www.w3.org/2000/svg">
<path fill-rule="evenodd" clip-rule="evenodd" d="M3.84013 56.0641C3.84013 53.8584 5.21858 52.4802 7.42409 52.4802H58.1121C62.4735 52.4802 61.6961 56.8513 61.6961 60.1601H3.83995V56.0643L3.84013 56.0641ZM65.5361 46.3629V47.0825C65.4898 47.843 65.2961 48.6058 64.9431 49.3269C64.5135 50.204 64.1654 50.3151 63.7441 50.9439C63.9693 51.28 64.1568 51.4092 64.4113 51.8128C65.0374 52.8059 65.5361 53.991 65.5361 55.2958V62.3359C65.5361 63.1208 64.6571 63.9998 63.8722 63.9998H1.66418C0.879266 63.9998 0.000244141 63.1208 0.000244141 62.3359V55.2958C0.000244141 53.525 1.25642 50.9938 2.56034 50.3039C2.02541 49.5048 1.43292 49.1173 0.850053 47.9182C0.0527231 46.2784 0.00041907 45.4083 0.00041907 43.6478C0.00041907 39.7019 3.86252 35.8398 7.80841 35.8398C13.039 35.8398 14.087 38.4867 15.1044 39.1678C15.6899 39.0114 17.0153 37.1198 20.3523 37.1198C19.2434 35.0243 19.5843 31.4853 19.5843 28.7997C19.5843 23.8415 22.2043 19.6222 26.3426 17.126C26.9963 16.7317 27.7221 16.4109 28.4344 16.1458C28.8152 16.0045 29.2462 15.8604 29.5924 15.768C29.9841 15.6632 30.4188 15.6324 30.7202 15.4878C29.3654 12.9273 28.8002 12.8182 28.8002 8.95991C28.8002 6.55654 30.3455 4.02024 31.5829 2.78278C33.6931 0.672605 35.9174 0 39.04 0C43.5032 0 48.0001 4.49692 48.0001 8.95991C48.0001 12.1578 47.5666 13.2046 45.952 15.6158C48.7787 15.8511 52.2154 18.3139 53.9633 20.5326C55.1917 22.0919 54.2542 21.5563 55.7845 21.9114C60.6225 23.0344 62.1519 29.9529 56.8321 32.7679C56.8321 34.9074 57.0991 39.6029 56.4482 40.96C59.3023 40.96 61.0194 40.6659 62.8768 41.8273C64.486 42.8337 65.4263 44.5504 65.5363 46.3629H65.5361ZM3.84013 44.16C3.84013 41.7673 5.92739 39.6799 8.32026 39.6799C10.7129 39.6799 12.8002 41.7673 12.8002 44.16C12.8002 46.5439 10.704 48.6401 8.32026 48.6401C5.92739 48.6401 3.84013 46.5527 3.84013 44.16ZM51.0722 40.96C48.8121 40.96 49.1522 38.6395 49.1522 37.5041C49.1522 37.0652 49.6166 36.9588 49.9586 36.7744L52.8642 35.072C52.8642 36.7668 53.1887 39.5142 52.3664 40.3343C52.1584 40.5417 51.444 40.96 51.0721 40.96H51.0722ZM45.1843 36.2239V42.752C45.1843 45.3114 47.9172 44.8001 49.2802 44.8001C51.3283 44.8001 53.3761 44.8001 55.4243 44.8001C57.2 44.8001 60.0622 44.422 61.0329 45.3352C62.256 46.486 61.7132 48.6399 59.3922 48.6399H20.8643C17.7021 48.6399 15.679 45.706 17.1895 42.9171C17.4614 42.4149 17.9906 41.8796 18.4336 41.6011C19.6179 40.8571 20.8979 40.9598 22.7843 40.9598H37.8883C39.1354 40.9598 40.9971 41.3079 41.4054 39.3569C41.9192 36.902 40.8105 33.5164 42.0857 32.4852L50.0087 27.864C51.1256 27.2425 52.0833 26.6894 53.1712 26.0346C54.4557 25.2614 55.9794 25.7173 56.2584 27.2075C56.5509 28.7683 55.0183 29.3177 54.0707 29.8782C52.9461 30.5433 51.9292 31.1132 50.8228 31.7503L46.0582 34.5378C45.5672 34.899 45.1841 35.4021 45.1841 36.2236L45.1843 36.2239ZM38.7843 30.336C38.0191 29.931 37.2536 29.44 36.0963 29.44H31.2322C31.2322 28.3399 31.3853 27.0396 30.7592 26.329C29.461 24.856 27.2645 25.722 27.2645 27.648C27.2645 33.6876 26.9408 33.28 32.2564 33.28C33.1664 33.28 35.0142 33.1772 35.8131 33.3073C38.3052 33.7137 37.9402 37.1201 35.4564 37.1201H26.8805C25.0915 37.1201 23.5524 35.7889 23.5524 34.176V28.1602C23.5524 26.7791 24.1098 25.3769 24.5751 24.4466C24.8298 23.937 25.1055 23.4635 25.4532 23.0209C27.4382 20.4955 30.1415 19.2001 33.5364 19.2001H42.8804C44.7961 19.2001 46.3078 19.6165 47.617 20.2236C48.7136 20.7323 50.158 21.929 50.8165 22.9123C47.9912 24.4073 44.4303 26.6754 41.5566 28.2442C40.5579 28.7894 39.371 29.4605 38.7845 30.3363L38.7843 30.336ZM32.6404 9.59997C32.6404 5.59548 36.884 2.64231 40.7062 4.34998C44.4457 6.02073 45.253 10.8824 42.4678 13.6673C39.7249 16.4103 34.9334 15.691 33.1913 11.9928C32.956 11.4929 32.6404 10.2679 32.6404 9.59997Z" fill="#FCFFEF"/>
</svg>
