<svg width="130" height="82" viewBox="0 0 141 82" fill="none" xmlns="http://www.w3.org/2000/svg">
<path d="M39.7246 17.9361L41.6312 59.5134L0 78.1393L41.9654 66.617L42.6337 81.0479H139.262L140.795 0L39.7246 17.9361Z" fill="url(#paint0_linear_0_1)"/>
<path d="M84.5795 71.278C84.0138 71.2794 83.4651 71.0942 83.0276 70.7541C82.5901 70.4139 82.2909 69.94 82.1815 69.4135L76.6385 43.9078L74.0439 50.0791C73.8599 50.5094 73.5445 50.8777 73.1382 51.1368C72.732 51.3959 72.2534 51.534 71.7638 51.5334H62.4666C62.1268 51.5623 61.7843 51.5238 61.4611 51.4202C61.1379 51.3167 60.8409 51.1505 60.5891 50.9321C60.3373 50.7138 60.1362 50.4481 59.9987 50.1519C59.8611 49.8558 59.79 49.5357 59.79 49.2121C59.79 48.8885 59.8611 48.5685 59.9987 48.2723C60.1362 47.9762 60.3373 47.7105 60.5891 47.4921C60.8409 47.2737 61.1379 47.1075 61.4611 47.004C61.7843 46.9005 62.1268 46.862 62.4666 46.8909H70.1128L75.125 35.0143C75.3231 34.5528 75.672 34.1637 76.1204 33.9041C76.5688 33.6445 77.0931 33.5281 77.6164 33.5719C78.1397 33.6157 78.6344 33.8174 79.028 34.1475C79.4215 34.4775 79.6932 34.9186 79.8031 35.4058L84.2847 56.0267L90.437 19.3529C90.5506 18.8249 90.8535 18.3506 91.2943 18.0106C91.7351 17.6707 92.2865 17.4862 92.8546 17.4884V17.4884C93.4237 17.4826 93.977 17.6658 94.4186 18.0063C94.8602 18.3469 95.1622 18.8232 95.2723 19.3529L101.169 53.3978L103.724 48.2333C103.92 47.8312 104.234 47.491 104.627 47.253C105.021 47.015 105.479 46.8893 105.945 46.8909H115.95C116.561 46.9429 117.13 47.2099 117.544 47.6395C117.958 48.0691 118.188 48.6301 118.188 49.2121C118.188 49.7942 117.958 50.3552 117.544 50.7847C117.13 51.2143 116.561 51.4814 115.95 51.5334H107.498L102.27 62.1048C102.051 62.5545 101.686 62.9257 101.229 63.1639C100.771 63.402 100.245 63.4945 99.7275 63.4277C99.2103 63.3609 98.7293 63.1383 98.3554 62.7928C97.9815 62.4472 97.7345 61.9969 97.6507 61.5082L92.9332 34.1566L87.0365 69.3203C86.925 69.8389 86.6307 70.3061 86.202 70.645C85.7733 70.9839 85.2357 71.1742 84.6777 71.1847L84.5795 71.278Z" fill="white"/>
<defs>
<linearGradient id="paint0_linear_0_1" x1="39.7246" y1="128.908" x2="128.979" y2="-34.6548" gradientUnits="userSpaceOnUse">
<stop stop-color="#459FFF"/>
<stop offset="1" stop-color="#A96DFF"/>
</linearGradient>
</defs>
</svg>