<svg class="service_icon_div6" width="73" height="56" viewBox="0 0 73 56" fill="none" xmlns="http://www.w3.org/2000/svg">
<path fill-rule="evenodd" clip-rule="evenodd" d="M29.8909 44.9473L41.8393 44.9857L43.9829 49.9279L27.712 49.866L29.8909 44.9473V44.9473ZM69.0383 51.6881L61.7099 43.3066H43.5405L48.427 53.1624L68.7341 53.007L69.0392 51.6881H69.0383ZM3.30772 51.6881L10.6362 43.3066H28.8055L23.9191 53.1624L3.61194 53.007L3.3069 51.6881H3.30772ZM0.151223 54.4078C0.620709 56.1304 2.3671 56.0017 4.25656 55.9933L69.4864 55.9992C71.4195 56.0125 72.7235 55.8111 72.9587 53.9138C73.3155 51.0386 71.2896 49.6512 69.0293 46.9181C68.2391 45.9628 67.1957 44.8896 66.2995 43.9836C65.5053 43.1812 64.7825 41.889 63.2861 41.6141C61.2051 41.2304 55.1206 41.5472 52.6269 41.5472C48.0076 41.5472 10.5548 41.3057 9.36089 41.7093C8.4211 42.027 4.52214 46.3096 3.79776 47.2332C2.60719 48.7519 -0.750751 51.0988 0.151223 54.407V54.4078Z" fill="#FCFFEF"/>
<path fill-rule="evenodd" clip-rule="evenodd" d="M61.4583 1.43508L61.4123 35.75L48.4952 35.7459C48.2231 32.0909 48.7082 26.6589 46.979 23.8841C45.0962 20.8626 40.9818 21.1735 36.504 21.1735C24.3935 21.1735 25.765 22.6955 24.7249 35.7475L11.5809 35.7191L11.5776 1.125H8.58472L8.58554 35.0396C8.57732 37.547 8.73518 39.0974 11.3416 39.1L60.9329 39.1033C64.068 39.1033 64.452 38.4447 64.452 35.287V1.43676H61.4583V1.43508Z" fill="#FCFFEF"/>
<path fill-rule="evenodd" clip-rule="evenodd" d="M42.8796 13.4331C43.6903 9.39446 41.1241 6.38054 38.0729 5.64753C34.2232 4.72313 30.8505 7.47377 30.1796 10.4952C28.221 19.3113 41.1751 21.9241 42.8796 13.4331Z" fill="#FCFFEF"/>
<path d="M63.3445 0H9.69224C9.08057 0 8.58472 0.668703 8.58472 1.49359V1.49443C8.58472 2.31931 9.08057 2.98802 9.69224 2.98802H63.3445C63.9561 2.98802 64.452 2.31931 64.452 1.49443V1.49359C64.452 0.668703 63.9561 0 63.3445 0Z" fill="#FCFFEF"/>
</svg>