<svg width="254" height="172" viewBox="0 0 254 172" fill="none" xmlns="http://www.w3.org/2000/svg">
<path d="M9.55375 62.1845C-19.3518 93.906 19.7613 175.657 94.1644 172.151C168.568 168.645 276.213 108.62 248.959 54.6878C221.704 0.755527 154.757 74.1425 115.402 62.1845C76.0462 50.2265 33.1758 36.2547 9.55375 62.1845Z" fill="#BDD5D7"/>
<path d="M207.953 133.47C214.938 128.893 221.562 123.787 227.767 118.197V35.7549C221.661 34.1453 214.976 34.4246 207.953 35.8725V133.47Z" fill="#A3C0C1"/>
<path d="M97.35 159.87C36.5962 162.736 -0.616409 108.738 3.5224 71.5627C-12.2403 107.547 26.2565 175.363 94.1652 172.151C158.566 169.108 247.895 123.716 253.047 76.6047C235.67 119.064 156.13 157.092 97.35 159.87Z" fill="#A3C0C1"/>
<path d="M222.702 35.1376V19.2255C222.702 17.7986 222.136 16.4302 221.129 15.4212C220.121 14.4123 218.755 13.8455 217.331 13.8455H202.859V35.1597L222.702 35.1376Z" fill="#A53243"/>
<path d="M202.859 35.1375V143.744H217.323C218.748 143.744 220.114 143.178 221.122 142.169C222.129 141.16 222.695 139.791 222.695 138.364V35.1375H202.859Z" fill="#799999"/>
<path d="M38.1211 32.6753V138.364C38.1211 139.791 38.687 141.16 39.6944 142.169C40.7018 143.178 42.0681 143.744 43.4927 143.744H211.745C213.17 143.744 214.536 143.178 215.544 142.169C216.551 141.16 217.117 139.791 217.117 138.364V32.6753H38.1211Z" fill="#BDD5D7"/>
<path d="M40.7996 32.6753V36.1224L38.1211 73.1062V138.357C38.1211 139.784 38.687 141.152 39.6944 142.161C40.7018 143.17 42.0681 143.737 43.4927 143.737H210.072C210.777 143.239 211.351 142.578 211.745 141.81C212.14 141.043 212.344 140.191 212.34 139.327L217.139 73.0841V32.6606L40.7996 32.6753Z" fill="#A5C3C4"/>
<path d="M38.1214 30.8674V35.1156L29.8145 141.804C29.8145 143.231 30.3804 144.599 31.3878 145.608C32.3952 146.617 33.7614 147.184 35.1861 147.184H203.446C204.871 147.184 206.237 146.617 207.244 145.608C208.252 144.599 208.818 143.231 208.818 141.804L217.125 35.1376V30.8674H38.1214Z" fill="white"/>
<path d="M216.869 38.342L217.119 35.1375V30.8894H38.1225V35.1375L37.873 38.342H216.869Z" fill="#BDD5D7"/>
<path d="M217.119 32.3815V19.2255C217.119 17.7986 216.553 16.4302 215.545 15.4212C214.538 14.4123 213.172 13.8455 211.747 13.8455H43.4869C42.0622 13.8455 40.6959 14.4123 39.6885 15.4212C38.6812 16.4302 38.1152 17.7986 38.1152 19.2255V35.1376L217.119 32.3815Z" fill="#F47A91"/>
<path d="M215.093 34.0204V22.1212C215.093 20.8892 214.604 19.7077 213.734 18.8366C212.865 17.9655 211.685 17.4761 210.455 17.4761H44.5285C43.9173 17.4732 43.3114 17.5912 42.7458 17.8232C42.1802 18.0553 41.6658 18.3968 41.2322 18.8284C40.7987 19.2599 40.4544 19.7729 40.2191 20.3379C39.9839 20.903 39.8623 21.509 39.8613 22.1212V34.0204H215.093Z" fill="#C54453"/>
<path d="M63.7106 29.2945C65.8505 29.2945 67.5852 27.5571 67.5852 25.4139C67.5852 23.2706 65.8505 21.5332 63.7106 21.5332C61.5707 21.5332 59.8359 23.2706 59.8359 25.4139C59.8359 27.5571 61.5707 29.2945 63.7106 29.2945Z" fill="#A53243"/>
<path d="M81.6888 17.366C81.2411 20.1148 78.9442 22.8783 75.598 24.3335C71.8701 25.9504 67.9441 25.583 65.6032 23.7088C65.2266 23.4496 64.7894 23.2925 64.3342 23.2526C63.8791 23.2126 63.4213 23.2913 63.0054 23.4809C61.391 24.1277 60.7452 25.7741 61.7359 26.6928C65.2877 29.9928 71.8187 30.669 77.8802 27.8026C82.7161 25.5095 85.9523 21.4083 86.5027 17.366H81.6888Z" fill="#A53243"/>
<path d="M64.3627 23.0178C62.8009 22.3562 61.4448 21.2871 60.4358 19.9219C59.4268 18.5568 58.8019 16.9456 58.6261 15.2563C58.4504 13.567 58.7302 11.8613 59.4365 10.3172C60.1428 8.77304 61.2497 7.44688 62.6418 6.47694C64.034 5.50701 65.6603 4.92879 67.3515 4.80255C69.0426 4.67632 70.7366 5.00668 72.2569 5.75922C73.7772 6.51177 75.0682 7.65894 75.9952 9.08116C76.9222 10.5034 77.4515 12.1486 77.5277 13.8454H81.5784C81.4993 11.2471 80.7136 8.71965 79.306 6.53563C77.8983 4.35162 75.9222 2.59385 73.5906 1.45185C71.259 0.309842 68.6603 -0.173078 66.0749 0.0551514C63.4894 0.283381 61.0152 1.2141 58.919 2.74697C56.8227 4.27984 55.184 6.3567 54.1795 8.75365C53.175 11.1506 52.8428 13.7767 53.2187 16.3488C53.5946 18.9209 54.6644 21.3415 56.3127 23.3495C57.961 25.3576 60.1253 26.8769 62.5722 27.7437C62.9539 27.8789 63.3624 27.9204 63.7634 27.8648C64.1645 27.8091 64.5463 27.658 64.877 27.424C65.2076 27.19 65.4774 26.88 65.6638 26.52C65.8501 26.16 65.9475 25.7605 65.9478 25.3551C65.942 24.8526 65.7886 24.363 65.5067 23.9473C65.2248 23.5317 64.827 23.2084 64.3627 23.0178Z" fill="#EAB868"/>
<path d="M55.2718 15.6165C55.4604 12.0568 56.931 8.68629 59.411 6.12944C61.891 3.57258 65.2124 2.00277 68.7596 1.71087H68.9284C69.1235 1.6926 69.3053 1.60386 69.4399 1.4612C69.5745 1.31854 69.6527 1.1317 69.6599 0.935553C69.6671 0.739403 69.6028 0.547331 69.479 0.395174C69.3552 0.243017 69.1804 0.141169 68.9871 0.108625C67.9335 -0.00723697 66.8705 -0.00723697 65.8169 0.108625C63.6519 0.334202 61.5671 1.053 59.7222 2.20999C57.8773 3.36697 56.3212 4.93145 55.1731 6.78364C54.025 8.63582 53.3153 10.7266 53.0984 12.8958C52.8814 15.0651 53.163 17.2553 53.9215 19.2988C53.9485 19.4006 53.9953 19.4961 54.0591 19.5798C54.1229 19.6636 54.2026 19.7339 54.2936 19.7868C54.3846 19.8397 54.485 19.8741 54.5893 19.8881C54.6935 19.9021 54.7995 19.8954 54.9012 19.8684C55.0029 19.8413 55.0982 19.7945 55.1818 19.7306C55.2654 19.6667 55.3357 19.5869 55.3885 19.4957C55.4413 19.4046 55.4756 19.304 55.4896 19.1996C55.5036 19.0952 55.4969 18.989 55.4699 18.8872C55.2832 17.8077 55.2168 16.7107 55.2718 15.6165Z" fill="#FFE2BB"/>
<path d="M77.528 13.8527H79.869C79.4287 7.83322 74.2111 2.48263 67.9956 2.91626C65.4325 3.04445 62.9948 4.06551 61.1037 5.80294C59.2126 7.54036 57.9871 9.88494 57.6389 12.4314C57.2907 14.9778 57.8418 17.5661 59.197 19.7487C60.5521 21.9314 62.626 23.5712 65.0602 24.3848C65.2798 24.4596 65.5109 24.4944 65.7427 24.4877C65.6191 24.1601 65.4305 23.861 65.1884 23.6084C64.9462 23.3558 64.6555 23.1549 64.3338 23.0178C62.7719 22.3561 61.4158 21.287 60.4068 19.9219C59.3978 18.5567 58.7729 16.9455 58.5971 15.2562C58.4214 13.5669 58.7012 11.8613 59.4075 10.3171C60.1138 8.77296 61.2207 7.44681 62.6128 6.47687C64.005 5.50693 65.6314 4.92871 67.3225 4.80248C69.0137 4.67624 70.7077 5.00661 72.2279 5.75915C73.7482 6.51169 75.0392 7.65886 75.9662 9.08109C76.8933 10.5033 77.4225 12.1485 77.4987 13.8453L77.528 13.8527Z" fill="#E3A234"/>
<path d="M38.1211 32.3813V35.1375H217.792L217.873 32.3813H38.1211Z" fill="#A53243"/>
<path d="M147 49.418C146.88 49.4182 146.762 49.454 146.662 49.5209C146.593 49.5656 146.534 49.6235 146.487 49.6914C146.44 49.7592 146.408 49.8357 146.391 49.9163C146.373 49.9969 146.372 50.0801 146.388 50.1611C146.403 50.242 146.434 50.3192 146.479 50.3881L155.124 63.6176C155.175 63.6959 155.243 63.7616 155.323 63.81C155.403 63.8583 155.493 63.888 155.586 63.8969H155.645C155.728 63.8963 155.811 63.8791 155.887 63.8463C155.964 63.8135 156.034 63.7658 156.092 63.7058L177.249 41.7743C177.307 41.7161 177.354 41.6469 177.386 41.5706C177.418 41.4943 177.434 41.4123 177.434 41.3296C177.434 41.2469 177.418 41.1649 177.386 41.0886C177.354 41.0123 177.307 40.9431 177.249 40.8849C177.19 40.8266 177.12 40.7809 177.043 40.7506C176.966 40.7203 176.884 40.706 176.801 40.7085C176.719 40.7097 176.637 40.7272 176.562 40.76C176.486 40.7928 176.418 40.8402 176.361 40.8996L158.506 59.4063C158.176 59.7487 157.772 60.0121 157.326 60.1771C156.879 60.342 156.401 60.4042 155.928 60.359C155.454 60.3138 154.997 60.1624 154.589 59.9161C154.182 59.6697 153.836 59.3347 153.575 58.9359L147.528 49.6826C147.484 49.6133 147.425 49.5535 147.357 49.5069C147.289 49.4602 147.213 49.4275 147.132 49.4106L147 49.418Z" fill="white"/>
<path d="M196.989 67.1602H179.942C179.569 67.1599 179.2 67.0814 178.858 66.9299C178.517 66.7784 178.211 66.5571 177.961 66.2803C177.71 66.0036 177.52 65.6773 177.402 65.3225C177.284 64.9678 177.242 64.5924 177.278 64.2203L179.091 47.1175C179.159 46.458 179.47 45.8474 179.962 45.4036C180.454 44.9598 181.092 44.7141 181.754 44.7141H198.801C199.174 44.7144 199.543 44.7929 199.885 44.9444C200.226 45.0959 200.532 45.3171 200.782 45.5939C201.033 45.8707 201.223 46.197 201.341 46.5517C201.459 46.9065 201.501 47.2819 201.465 47.654L199.652 64.7568C199.584 65.4163 199.273 66.0269 198.781 66.4707C198.289 66.9145 197.651 67.1602 196.989 67.1602Z" fill="#E1F1F1"/>
<path d="M191.852 99.5286H174.813C174.44 99.5283 174.071 99.4498 173.729 99.2983C173.388 99.1468 173.083 98.9255 172.832 98.6487C172.581 98.3719 172.391 98.0457 172.273 97.691C172.156 97.3362 172.113 96.9608 172.149 96.5887L173.962 79.4859C174.031 78.8264 174.341 78.2158 174.833 77.772C175.325 77.3282 175.963 77.0825 176.625 77.0825H193.672C194.046 77.0828 194.415 77.1613 194.756 77.3128C195.097 77.4643 195.403 77.6856 195.653 77.9624C195.904 78.2392 196.095 78.5654 196.212 78.9201C196.33 79.2749 196.372 79.6503 196.336 80.0224L194.524 97.1252C194.455 97.786 194.143 98.3976 193.65 98.8416C193.156 99.2856 192.516 99.5304 191.852 99.5286Z" fill="#E1F1F1"/>
<path d="M188.829 131.904H171.797C171.424 131.904 171.055 131.825 170.714 131.674C170.373 131.522 170.067 131.301 169.816 131.024C169.565 130.747 169.375 130.421 169.257 130.066C169.14 129.712 169.098 129.336 169.133 128.964L170.946 111.861C171.015 111.202 171.325 110.591 171.817 110.147C172.309 109.704 172.948 109.458 173.61 109.458H190.657C191.03 109.458 191.399 109.537 191.74 109.688C192.081 109.84 192.387 110.061 192.638 110.338C192.889 110.615 193.079 110.941 193.196 111.296C193.314 111.65 193.356 112.026 193.32 112.398L191.508 129.501C191.439 130.163 191.126 130.775 190.631 131.22C190.136 131.664 189.494 131.908 188.829 131.904Z" fill="#E1F1F1"/>
<path d="M164.87 67.1603H147.823C147.449 67.16 147.08 67.0815 146.739 66.93C146.398 66.7785 146.092 66.5572 145.841 66.2804C145.591 66.0037 145.4 65.6774 145.283 65.3226C145.165 64.9679 145.123 64.5925 145.159 64.2204L147.001 47.0882C147.07 46.4287 147.38 45.8181 147.872 45.3743C148.364 44.9305 149.002 44.6848 149.665 44.6848H166.711C167.085 44.6851 167.454 44.7636 167.795 44.9151C168.136 45.0666 168.442 45.2879 168.693 45.5646C168.943 45.8414 169.134 46.1677 169.251 46.5224C169.369 46.8772 169.411 47.2526 169.375 47.6247L167.548 64.7569C167.479 65.4189 167.166 66.0316 166.671 66.4757C166.176 66.9199 165.534 67.1639 164.87 67.1603Z" fill="#E1F1F1"/>
<path d="M159.733 99.5284H142.686C142.313 99.5281 141.944 99.4497 141.603 99.2981C141.261 99.1466 140.956 98.9254 140.705 98.6486C140.454 98.3718 140.264 98.0455 140.146 97.6908C140.029 97.336 139.986 96.9606 140.022 96.5885L141.864 79.4637C141.933 78.8042 142.243 78.1936 142.735 77.7498C143.227 77.3059 143.866 77.0603 144.528 77.0603H161.575C161.948 77.0606 162.317 77.1391 162.658 77.2906C162.999 77.4421 163.305 77.6633 163.556 77.9401C163.807 78.2169 163.997 78.5432 164.115 78.8979C164.232 79.2527 164.274 79.6281 164.239 80.0002L162.411 97.1324C162.34 97.7931 162.027 98.404 161.532 98.8466C161.038 99.2893 160.396 99.5322 159.733 99.5284Z" fill="#E1F1F1"/>
<path d="M156.717 131.904H139.662C139.289 131.904 138.92 131.825 138.579 131.674C138.238 131.522 137.932 131.301 137.681 131.024C137.431 130.747 137.24 130.421 137.123 130.066C137.005 129.712 136.963 129.336 136.999 128.964L138.811 111.861C138.88 111.202 139.191 110.591 139.682 110.147C140.174 109.704 140.813 109.458 141.475 109.458H158.522C158.895 109.458 159.264 109.537 159.605 109.688C159.946 109.84 160.252 110.061 160.503 110.338C160.754 110.615 160.944 110.941 161.062 111.296C161.179 111.65 161.222 112.026 161.186 112.398L159.373 129.501C159.304 130.159 158.995 130.769 158.505 131.212C158.014 131.656 157.378 131.902 156.717 131.904Z" fill="#E1F1F1"/>
<path d="M132.748 67.1602H115.702C115.328 67.1599 114.959 67.0814 114.618 66.9299C114.277 66.7784 113.971 66.5571 113.72 66.2803C113.47 66.0036 113.279 65.6773 113.162 65.3225C113.044 64.9678 113.002 64.5924 113.038 64.2203L114.85 47.1175C114.919 46.458 115.23 45.8474 115.722 45.4036C116.213 44.9598 116.852 44.7141 117.514 44.7141H134.524C134.898 44.7144 135.267 44.7929 135.608 44.9444C135.949 45.0959 136.255 45.3171 136.505 45.5939C136.756 45.8707 136.947 46.197 137.064 46.5517C137.182 46.9065 137.224 47.2819 137.188 47.654L135.376 64.7568C135.307 65.4101 135.002 66.0156 134.518 66.4585C134.034 66.9015 133.404 67.1511 132.748 67.1602Z" fill="#E1F1F1"/>
<path d="M127.612 99.5286H110.565C110.192 99.5283 109.823 99.4498 109.481 99.2983C109.14 99.1468 108.834 98.9255 108.584 98.6487C108.333 98.3719 108.143 98.0457 108.025 97.691C107.907 97.3362 107.865 96.9608 107.901 96.5887L109.714 79.4859C109.783 78.8264 110.093 78.2158 110.585 77.772C111.077 77.3282 111.715 77.0825 112.377 77.0825H129.388C129.761 77.0828 130.13 77.1613 130.471 77.3128C130.812 77.4643 131.118 77.6856 131.369 77.9624C131.62 78.2392 131.81 78.5654 131.927 78.9201C132.045 79.2749 132.087 79.6503 132.051 80.0224L130.239 97.1252C130.171 97.7785 129.865 98.384 129.381 98.8269C128.897 99.2699 128.267 99.5195 127.612 99.5286Z" fill="#E1F1F1"/>
<path d="M127.011 131.904H104.578L106.956 109.428H129.389L127.011 131.904Z" fill="#E1F1F1"/>
<path d="M100.622 67.1602H83.5824C83.2092 67.1599 82.8402 67.0814 82.499 66.9299C82.1578 66.7784 81.8521 66.5571 81.6013 66.2803C81.3504 66.0036 81.1602 65.6773 81.0426 65.3225C80.925 64.9678 80.8828 64.5924 80.9186 64.2203L82.7312 47.1175C82.8001 46.458 83.1105 45.8474 83.6024 45.4036C84.0943 44.9598 84.7329 44.7141 85.395 44.7141H102.442C102.815 44.7144 103.184 44.7929 103.525 44.9444C103.866 45.0959 104.172 45.3171 104.423 45.5939C104.674 45.8707 104.864 46.197 104.982 46.5517C105.099 46.9065 105.141 47.2819 105.106 47.654L103.293 64.7568C103.224 65.4176 102.913 66.0292 102.419 66.4732C101.926 66.9172 101.285 67.162 100.622 67.1602Z" fill="#E1F1F1"/>
<path d="M95.4926 99.5286H78.4457C78.0725 99.5283 77.7035 99.4498 77.3623 99.2983C77.0211 99.1468 76.7153 98.9255 76.4645 98.6487C76.2137 98.3719 76.0234 98.0457 75.9059 97.691C75.7883 97.3362 75.7461 96.9608 75.7819 96.5887L77.5944 79.4859C77.6634 78.8264 77.9737 78.2158 78.4656 77.772C78.9576 77.3282 79.5962 77.0825 80.2582 77.0825H97.3051C97.6783 77.0828 98.0474 77.1613 98.3885 77.3128C98.7297 77.4643 99.0355 77.6856 99.2863 77.9624C99.5371 78.2392 99.7274 78.5654 99.8449 78.9201C99.9625 79.2749 100.005 79.6503 99.9689 80.0224L98.1564 97.1252C98.0875 97.7847 97.7771 98.3953 97.2852 98.8391C96.7933 99.2829 96.1546 99.5285 95.4926 99.5286Z" fill="#E1F1F1"/>
<g style="mix-blend-mode:multiply" opacity="0.63">
<path d="M63.4174 35.0419C61.2159 40.6791 61.2159 65.2419 59.0144 78.736C58.5081 81.8229 57.9357 84.4982 57.3413 86.8207C56.6137 88.7649 56.0011 90.7503 55.5067 92.7667C54.8954 94.5538 54.1114 96.2769 53.1658 97.9115C53.8534 98.7819 54.628 99.5798 55.4774 100.293L55.3453 100.991C53.7895 109.421 51.6761 123.253 53.5987 126.818C55.6681 130.596 62.3533 132.815 69.3981 134.116L69.1633 134.66C69.0239 134.976 68.8918 135.285 68.7524 135.594C67.1374 139.341 65.8006 143.203 64.753 147.147H120.656L135.751 121.511C136.027 121.02 136.105 120.442 135.968 119.895C135.832 119.348 135.492 118.875 135.017 118.572L131.987 116.778C137.123 109.943 144.029 100.653 146.458 96.5518L151.881 91.2894C152.496 90.5833 152.991 89.7815 153.348 88.9154C153.815 87.9606 154.224 86.9789 154.574 85.9755C155.014 84.4615 156.775 80.0957 156.364 78.9198C156.02 77.9423 155.293 78.7507 155.022 79.0962C155.249 78.7668 155.371 78.3758 155.371 77.9753C155.371 77.5748 155.249 77.1838 155.022 76.8545C154.288 75.7226 153.48 77.1044 153.326 77.4057C153.517 77.0309 154.611 74.7598 153.642 74.0322C152.974 73.5324 152.248 74.3629 151.793 75.0538C152.937 73.0326 155.887 67.6526 155.051 67.2337C153.502 66.4546 149.129 74.8039 147.713 78.0892C147.13 79.3715 146.39 80.5763 145.511 81.6759C144.777 81.5657 143.177 81.4187 142.194 82.1169C141.211 82.8151 141.849 87.1735 142.157 88.7317C142.157 88.7757 142.157 88.8199 142.157 88.864C142.194 89.2133 142.255 89.5597 142.341 89.9003C137.571 94.4865 129.792 103.181 124.289 109.48C123.226 105.402 121.92 101.392 120.377 97.4705L122.153 97.5513C122.153 97.5513 122.05 97.1471 121.845 96.4562C121.515 95.3244 120.95 93.4575 120.172 91.4217C119.927 90.77 119.663 90.106 119.379 89.4299C118.257 86.8207 116.855 84.241 115.27 82.771L115.138 82.6534C115.05 82.5799 114.969 82.4917 114.881 82.4182L114.617 82.2198L114.382 82.0434L114.118 81.8523L113.641 81.5216L113.545 81.4554L112.863 81.0144L112.753 80.9483C111.74 80.3162 110.61 79.6694 109.421 79.0374L109.076 78.8536C104.873 68.1017 102.138 56.8309 100.946 45.3462C100.212 39.0254 98.9055 34.3216 97.2177 30.9187H65.3621C64.6276 32.2506 63.9781 33.6278 63.4174 35.0419ZM109.355 112.898C109.478 113.427 109.607 113.953 109.744 114.478L107.594 118.153C108.108 116.308 108.739 114.529 109.355 112.898ZM73.2948 107.429C73.3535 108.008 73.4171 108.583 73.4856 109.157C73.6323 110.435 73.7204 111.7 73.7571 112.942C73.7571 113.493 73.7571 114.044 73.7571 114.588C73.7571 114.676 73.7571 114.764 73.7571 114.853C73.7571 115.36 73.7571 115.852 73.7057 116.323C73.7057 116.455 73.7057 116.58 73.7057 116.712C73.7057 117.175 73.6397 117.631 73.603 118.086C73.603 118.256 73.603 118.417 73.5589 118.579C73.5149 118.998 73.4709 119.417 73.4122 119.828C73.3877 120.034 73.3608 120.24 73.3315 120.446C73.2776 120.813 73.2214 121.181 73.1627 121.548C73.1186 121.808 73.0722 122.065 73.0232 122.32C72.9645 122.621 72.9132 122.93 72.8471 123.231C72.8471 123.378 72.7811 123.518 72.7517 123.665C70.229 122.933 67.6562 122.388 65.0538 122.033L68.0332 106.378L68.3928 106.459C70.2861 106.944 71.9078 107.231 73.2874 107.429H73.2948Z" fill="#BDD5D7"/>
</g>
<path d="M92.4774 131.904H75.4379C75.0647 131.904 74.6956 131.825 74.3545 131.674C74.0133 131.522 73.7075 131.301 73.4567 131.024C73.2059 130.747 73.0156 130.421 72.8981 130.066C72.7805 129.712 72.7383 129.336 72.7741 128.964L74.5866 111.861C74.6556 111.202 74.9659 110.591 75.4578 110.147C75.9497 109.704 76.5884 109.458 77.2504 109.458H94.2973C94.6705 109.458 95.0395 109.537 95.3807 109.688C95.7219 109.84 96.0277 110.061 96.2785 110.338C96.5293 110.615 96.7196 110.941 96.8371 111.296C96.9547 111.65 96.9969 112.026 96.9611 112.398L95.1486 129.501C95.0795 130.161 94.7681 130.773 94.2746 131.217C93.7812 131.661 93.1408 131.906 92.4774 131.904Z" fill="#E1F1F1"/>
<path d="M68.4808 67.1602H51.4633C51.0901 67.1599 50.721 67.0814 50.3799 66.9299C50.0387 66.7784 49.7329 66.5571 49.4821 66.2803C49.2313 66.0036 49.041 65.6773 48.9235 65.3225C48.8059 64.9678 48.7637 64.5924 48.7995 64.2203L50.612 47.1175C50.6809 46.458 50.9913 45.8474 51.4832 45.4036C51.9751 44.9598 52.6137 44.7141 53.2758 44.7141H70.3154C70.6886 44.7144 71.0576 44.7929 71.3988 44.9444C71.7399 45.0959 72.0457 45.3171 72.2965 45.5939C72.5473 45.8707 72.7376 46.197 72.8552 46.5517C72.9727 46.9065 73.015 47.2819 72.9792 47.654L71.1666 64.7568C71.0973 65.4201 70.7838 66.0338 70.2872 66.4781C69.7907 66.9225 69.1467 67.1656 68.4808 67.1602Z" fill="#E1F1F1"/>
<g style="mix-blend-mode:multiply" opacity="0.63">
<path d="M38.1214 35.1376L36.1914 60.3178C39.1361 61.2946 42.28 61.5076 45.3293 60.9369C48.3785 60.3662 51.2334 59.0305 53.6272 57.0545L64.165 58.3334L58.9402 49.7636C60.2063 46.6319 60.5858 43.2111 60.0369 39.8774C59.4879 36.5437 58.0319 33.4261 55.8287 30.8674H38.1214V35.1376Z" fill="#BDD5D7"/>
</g>
<path d="M63.3441 99.5286H46.3265C45.9533 99.5283 45.5843 99.4498 45.2431 99.2983C44.902 99.1468 44.5962 98.9255 44.3454 98.6487C44.0946 98.3719 43.9043 98.0457 43.7867 97.691C43.6692 97.3362 43.6269 96.9608 43.6627 96.5887L45.4753 79.4859C45.5442 78.8264 45.8546 78.2158 46.3465 77.772C46.8384 77.3282 47.477 77.0825 48.1391 77.0825H65.186C65.5592 77.0828 65.9282 77.1613 66.2694 77.3128C66.6106 77.4643 66.9163 77.6856 67.1671 77.9624C67.4179 78.2392 67.6082 78.5654 67.7258 78.9201C67.8433 79.2749 67.8856 79.6503 67.8498 80.0224L66.0372 97.1252C65.9678 97.7898 65.6533 98.4045 65.1551 98.849C64.657 99.2935 64.0112 99.5359 63.3441 99.5286Z" fill="#E1F1F1"/>
<path d="M60.3563 131.904H43.3168C42.9436 131.904 42.5746 131.825 42.2334 131.674C41.8922 131.522 41.5864 131.301 41.3356 131.024C41.0848 130.747 40.8945 130.421 40.777 130.066C40.6594 129.712 40.6172 129.336 40.653 128.964L42.4655 111.861C42.5345 111.202 42.8448 110.591 43.3367 110.147C43.8287 109.704 44.4673 109.458 45.1293 109.458H62.1689C62.5421 109.458 62.9111 109.537 63.2523 109.688C63.5934 109.84 63.8992 110.061 64.15 110.338C64.4008 110.615 64.5911 110.941 64.7087 111.296C64.8262 111.65 64.8685 112.026 64.8327 112.398L63.0201 129.501C62.9512 130.16 62.6408 130.771 62.1489 131.215C61.657 131.658 61.0184 131.904 60.3563 131.904Z" fill="#E1F1F1"/>
<g style="mix-blend-mode:multiply">
<g style="mix-blend-mode:multiply">
<path d="M157.37 66.4254H157.194C156.913 66.3984 156.642 66.3084 156.401 66.1621C156.159 66.0158 155.954 65.8168 155.8 65.5801L147.155 52.3506C146.883 51.9325 146.787 51.4231 146.89 50.9345C146.992 50.4459 147.284 50.0181 147.702 49.7452C148.119 49.4723 148.628 49.3766 149.116 49.4793C149.604 49.582 150.031 49.8746 150.303 50.2927L157.642 61.5598L177.162 41.3187C177.333 41.1411 177.538 40.9991 177.764 40.9008C177.991 40.8024 178.234 40.7497 178.481 40.7456C178.727 40.7415 178.972 40.7861 179.202 40.8769C179.431 40.9677 179.641 41.1028 179.818 41.2746C179.995 41.4464 180.137 41.6515 180.235 41.8782C180.333 42.1049 180.386 42.3487 180.39 42.5958C180.394 42.8428 180.35 43.0883 180.259 43.3181C180.169 43.5479 180.034 43.7576 179.862 43.9352L158.742 65.8447C158.565 66.0301 158.352 66.1773 158.116 66.2771C157.88 66.377 157.626 66.4274 157.37 66.4254Z" fill="#BDD5D7"/>
</g>
</g>
<path d="M154.339 64.7938H154.163C153.882 64.7668 153.611 64.6768 153.369 64.5305C153.128 64.3842 152.923 64.1853 152.768 63.9485L144.124 50.719C143.851 50.3009 143.756 49.7915 143.859 49.3029C143.961 48.8143 144.253 48.3865 144.671 48.1136C145.088 47.8407 145.597 47.745 146.085 47.8477C146.572 47.9504 147 48.243 147.272 48.6611L154.61 59.9282L174.152 39.6871C174.499 39.3284 174.973 39.1223 175.471 39.114C175.97 39.1058 176.451 39.296 176.809 39.643C177.167 39.99 177.373 40.4652 177.381 40.9642C177.389 41.4631 177.199 41.9449 176.853 42.3036L155.696 64.2352C155.519 64.4148 155.308 64.5568 155.074 64.6528C154.841 64.7487 154.591 64.7967 154.339 64.7938Z" fill="#C54453"/>
<path d="M114.586 86.2549C114.586 86.2549 126.724 113.809 116.179 115.389C105.634 116.969 104.438 89.9738 104.438 89.9738L114.586 86.2549Z" fill="#F0C9A5"/>
<path d="M107.961 104.585C108.35 99.2639 112.415 94.979 117.303 93.3474C115.908 89.2683 114.587 86.2549 114.587 86.2549L104.395 90.0106C104.395 90.0106 104.938 102.094 108.46 109.62C108.009 107.982 107.84 106.28 107.961 104.585Z" fill="#D69D6F"/>
<path d="M78.6371 24.3335C78.6371 24.3335 95.7207 15.9327 98.7808 43.6191C101.393 67.2338 109.553 80.6912 109.832 81.2644C110.111 81.8377 105.099 87.3059 100.138 91.0837C95.1777 94.8614 91.1636 97.5441 91.1636 97.5441L81.2055 97.7572C81.2055 97.7572 79.6351 99.1096 70.3522 97.0957C61.0692 95.0819 57.0625 89.577 57.0625 89.577C57.0625 89.577 60.2547 84.6086 62.1993 72.8196C64.144 61.0306 64.0999 39.5694 66.0446 34.6451C71.3135 21.3127 78.6371 24.3335 78.6371 24.3335Z" fill="#4B341F"/>
<path d="M113.208 88.7466L62.0671 89.5403C62.0671 89.5403 60.7829 87.2105 63.4981 80.0518C66.2133 72.8932 73.6837 72.8417 77.683 68.013C79.1507 66.2784 79.6717 65.911 80.068 63.7795C80.4875 61.3696 80.5616 58.9121 80.2882 56.4813L90.9287 53.3723C90.8048 56.9708 91.2557 60.566 92.2643 64.0221C92.9981 66.227 94.3483 66.4475 96.0875 67.6969C98.6706 69.5564 107.271 73.0696 110.977 76.0095C114.683 78.9494 113.208 88.7466 113.208 88.7466Z" fill="#F0C9A5"/>
<path d="M76.3839 129.449C69.3025 128.317 65.7801 137.681 65.7801 137.681C65.7801 137.681 63.9161 154.232 63.8574 168.631C70.4474 170.556 77.2352 171.723 84.0891 172.107C87.2299 163.662 90.268 152.41 90.9138 142.708C91.266 137.306 83.4654 130.581 76.3839 129.449Z" fill="#424180"/>
<path d="M108.46 133.631C108.46 133.631 106.626 128.773 100.308 130.868C93.9893 132.962 84.0312 141.966 85.5282 146.604C88.9332 157.106 91.5896 165.588 93.9746 172.159H94.1654C101.3 171.792 108.407 170.996 115.446 169.777C113.524 154.056 108.46 133.631 108.46 133.631Z" fill="#424180"/>
<path d="M64.077 160.392C63.9596 163.126 63.8862 165.911 63.8789 168.623C70.4689 170.549 77.2567 171.715 84.1106 172.1C85.0499 169.579 85.9745 166.801 86.8331 163.897C79.1539 163.455 71.5341 162.281 64.077 160.392Z" fill="#35356D"/>
<path d="M93.9878 164.14C93.0558 164.14 92.1238 164.14 91.1992 164.088C92.1752 167.028 93.0998 169.733 93.9804 172.173H94.1639C101.299 171.801 108.405 171.001 115.445 169.777C115.166 167.499 114.814 165.125 114.425 162.736C107.683 163.939 100.831 164.41 93.9878 164.14Z" fill="#35356D"/>
<path d="M73.8895 81.5143L106.758 81.9038C106.758 81.9038 109.825 93.487 108.805 96.177C107.785 98.867 102.252 110.141 103.536 117.058C104.821 123.974 109.348 131.073 109.913 134.175C110.478 137.277 100.917 139.188 88.1039 140.944C81.6388 141.826 65.8027 138.07 65.8027 138.07C65.8027 138.07 67.8428 128.729 70.6754 122.518C73.508 116.308 75.8122 108.4 74.8068 99.3962C73.8015 90.3927 73.5593 80.2869 73.5593 80.2869" fill="#F0C9A5"/>
<path d="M92.2573 64.0294C91.2446 64.6321 92.8884 63.9706 91.7289 64.2279C89.0358 64.8452 82.923 65.2936 80.0684 63.7795C80.4878 61.3696 80.562 58.9121 80.2885 56.4813L90.9291 53.3723C90.802 56.9729 91.2504 60.5706 92.2573 64.0294Z" fill="#D69D6F"/>
<path d="M74.3065 45.1773C74.3065 45.1773 69.72 41.8258 66.9682 44.3027C64.2163 46.7795 65.4492 51.917 68.0983 53.1664C70.7474 54.4159 75.4366 51.5422 75.4366 51.5422L74.3065 45.1773Z" fill="#F0C9A5"/>
<path d="M89.2483 40.5543C89.2483 40.5543 94.319 38.0039 96.6599 40.8997C99.0009 43.7955 96.9168 48.661 94.0915 49.4548C91.2663 50.2486 87.1055 46.6472 87.1055 46.6472L89.2483 40.5543Z" fill="#D69D6F"/>
<path d="M93.599 31.9403C93.599 31.9403 97.4443 47.9113 95.8005 52.6077C94.1567 57.3042 91.192 59.3548 87.7284 60.1486C83.1639 61.1775 76.7209 58.6786 73.8443 54.3202C70.9677 49.9618 69.5 34.8141 69.5 34.8141C69.5 34.8141 77.9904 29.4414 81.6449 29.0225C85.2994 28.6035 93.599 31.9403 93.599 31.9403Z" fill="#F0C9A5"/>
<path d="M80.8842 51.3685C80.9848 50.5179 80.3778 49.7468 79.5286 49.6461C78.6794 49.5455 77.9095 50.1534 77.8089 51.0039C77.7084 51.8544 78.3154 52.6256 79.1646 52.7262C80.0138 52.8269 80.7837 52.219 80.8842 51.3685Z" fill="#DC8070"/>
<path d="M94.6557 51.3677C94.7562 50.5172 94.1493 49.7461 93.3001 49.6454C92.4509 49.5447 91.6809 50.1526 91.5804 51.0032C91.4799 51.8537 92.0869 52.6248 92.9361 52.7255C93.7853 52.8262 94.5552 52.2183 94.6557 51.3677Z" fill="#DC8070"/>
<path d="M71.3125 32.3372C71.3125 32.3372 76.8162 37.7833 82.2686 38.952C86.6677 39.8123 91.1551 40.1331 95.6317 39.9074C95.6317 39.9074 100.35 28.9343 85.5268 25.3035C73.3819 22.3342 71.3125 32.3372 71.3125 32.3372Z" fill="#4B341F"/>
<path d="M77.7707 32.1829C77.7707 32.1829 78.8347 36.3649 77.7707 39.981C75.5692 47.4483 73.0742 48.1539 72.7293 48.4258C72.7293 48.4258 66.2202 41.0761 67.5191 35.3433C68.8987 29.3165 77.7707 32.1829 77.7707 32.1829Z" fill="#4B341F"/>
<path d="M88.3444 43.3618C88.2857 42.8546 87.5078 42.9722 87.5592 43.4794C87.7646 45.3756 90.8027 50.6454 87.7133 51.248C87.2143 51.3436 87.3317 52.13 87.8307 52.0345C91.9621 51.2701 88.6085 45.7798 88.3444 43.3618Z" fill="#D69D6F"/>
<path d="M91.2307 47.0339C91.6785 46.991 91.9922 46.4387 91.9313 45.8003C91.8703 45.1619 91.4579 44.6791 91.0101 44.7219C90.5623 44.7648 90.2486 45.3171 90.3095 45.9556C90.3705 46.594 90.7829 47.0768 91.2307 47.0339Z" fill="#4B341F"/>
<path d="M80.262 47.4602C80.7098 47.4173 81.0234 46.865 80.9625 46.2266C80.9016 45.5881 80.4891 45.1053 80.0413 45.1482C79.5935 45.1911 79.2799 45.7434 79.3408 46.3818C79.4017 47.0203 79.8141 47.5031 80.262 47.4602Z" fill="#4B341F"/>
<path d="M79.3785 43.281C80.0379 42.8616 80.799 42.6304 81.58 42.6122C82.7688 42.4652 82.4239 40.6424 81.2424 40.7894C80.1503 40.8598 79.0989 41.2312 78.2043 41.8625C77.243 42.6269 78.4392 44.016 79.3785 43.281Z" fill="#4B341F"/>
<path d="M90.8263 42.7226C91.5844 42.5573 92.373 42.6004 93.1085 42.8475C94.2753 43.1194 94.5762 41.2894 93.4167 41.0174C92.3699 40.7062 91.2575 40.6909 90.2026 40.9733C89.0284 41.3335 89.6889 43.0827 90.8263 42.7226Z" fill="#4B341F"/>
<path d="M71.2105 49.9178C70.9757 49.6018 70.4106 49.5724 70.2785 49.1828C70.1464 48.7933 70.4767 48.4993 70.506 48.1906C70.5578 47.7573 70.4677 47.3188 70.2492 46.9412C69.4346 45.5447 67.534 46.2797 67.0423 47.5218C66.8075 48.1171 67.7761 48.4332 67.9743 47.8452C68.0461 47.6331 68.1874 47.4516 68.3753 47.3302C68.5631 47.2087 68.7865 47.1545 69.009 47.1764C69.6988 47.2278 69.5373 48.1245 69.3759 48.536C69.2986 48.7463 69.2703 48.9716 69.2932 49.1945C69.3161 49.4174 69.3895 49.6321 69.508 49.8222C69.6915 50.1309 70.506 50.4102 70.4693 50.7263C70.3886 51.3583 71.3646 51.4612 71.4526 50.7998C71.4762 50.644 71.4669 50.4849 71.4251 50.333C71.3834 50.1811 71.3103 50.0396 71.2105 49.9178Z" fill="#D69D6F"/>
<path d="M109.92 134.183C110.485 137.291 100.923 139.195 88.1108 140.952C81.6384 141.841 65.8096 138.078 65.8096 138.078C65.8096 138.078 66.5435 134.756 67.7176 130.765C67.8864 130.184 68.0698 129.604 68.2606 128.994C68.9435 126.791 69.752 124.629 70.6823 122.519C70.7703 122.342 70.8437 122.151 70.9244 121.975C71.1739 121.416 71.4234 120.843 71.6583 120.255C72.3818 118.479 73.0017 116.663 73.5149 114.816C73.6763 114.228 73.8304 113.64 73.9698 113.03C75.0427 108.569 75.3283 103.955 74.8137 99.3963C74.5349 97.015 74.3221 94.5675 74.1533 92.245C74.1019 91.5835 74.0579 90.9367 74.0139 90.29L73.9552 89.3565L59.418 87.938C59.418 87.938 60.0931 87.6294 60.7902 83.3665C60.8783 82.7883 60.9908 82.1465 61.1278 81.4409C61.2892 80.6177 61.48 79.7137 61.7149 78.7068C63.2926 71.923 72.3481 72.8932 76.4942 69.2109C78.101 71.3352 80.1103 73.1212 82.4071 74.4669C84.7039 75.8125 87.243 76.6914 89.8793 77.0531C94.5024 77.6043 96.6379 74.8482 99.1329 69.4461C102.802 71.3497 108.232 73.856 110.977 76.0094C112.503 77.2221 113.839 79.6843 114.903 82.1318C115.152 82.7246 115.382 83.3028 115.593 83.8663C116.268 85.6449 116.767 87.2766 117.06 88.2761C117.244 88.8788 117.332 89.2316 117.332 89.2316L114.257 89.092L108.629 90.5104C108.731 91.0764 108.533 89.9592 108.629 90.5104C108.724 91.0617 108.834 91.7673 108.915 92.3552C109.135 94.0383 109.179 95.4642 108.819 96.1697C107.154 99.3595 104.094 106.085 103.448 112.177C103.382 112.824 103.338 113.471 103.33 114.103C103.303 115.088 103.377 116.073 103.551 117.043C103.729 118.005 103.959 118.957 104.24 119.895C104.409 120.497 104.615 121.085 104.813 121.681C105.547 123.819 106.486 125.885 107.33 127.737C107.609 128.332 107.865 128.913 108.122 129.457C108.883 130.965 109.486 132.549 109.92 134.183Z" fill="#6D74CA"/>
<path d="M108.585 90.4956L112.313 89.5548C110.661 84.6672 104.395 81.2202 104.395 81.2202C107.22 84.726 108.585 90.4956 108.585 90.4956C108.555 90.3339 108.533 90.1795 108.585 90.4956Z" fill="#4E5DA5"/>
<path d="M109.919 134.183C109.481 132.557 108.876 130.98 108.114 129.479C107.85 128.935 107.593 128.354 107.322 127.759C106.478 125.899 105.561 123.834 104.805 121.703C104.607 121.107 104.401 120.512 104.232 119.917C103.951 118.979 103.721 118.027 103.542 117.065C103.369 116.095 103.295 115.11 103.322 114.125C103.322 113.5 103.366 112.846 103.44 112.2C103.44 112.119 103.44 112.045 103.44 111.964L99.5945 118.498C98.7775 118.304 97.9736 118.059 97.1875 117.763L96.2482 118.16C95.8061 117.83 95.2695 117.652 94.7182 117.652C94.1669 117.652 93.6303 117.83 93.1881 118.16C92.0519 118.982 91.0366 119.959 90.1721 121.063C87.1854 120.056 79.3407 117.462 73.2133 115.845C72.7436 117.411 72.2079 118.903 71.6355 120.321C71.4007 120.909 71.1512 121.482 70.9017 122.041C70.8283 122.217 70.7476 122.408 70.6595 122.585C70.3293 123.32 70.0138 124.055 69.7129 124.87C75.7689 125.97 81.9047 126.57 88.0587 126.664L93.1955 128.134C93.4376 128.207 93.6871 128.259 93.9293 128.31C93.822 128.708 93.8478 129.131 94.0028 129.513C94.1579 129.895 94.4336 130.216 94.7879 130.427L106.478 137.328C108.841 136.38 110.14 135.366 109.919 134.183Z" fill="#4E5DA5"/>
<path d="M69.8458 88.9302L73.9553 89.3271L74.014 90.2605C74.058 90.8999 74.102 91.5541 74.1534 92.2155C74.3148 94.5381 74.535 96.9855 74.8138 99.3668C75.3283 103.926 75.0427 108.54 73.9699 113.001C73.8305 113.611 73.6764 114.199 73.515 114.787C73.0018 116.634 72.3819 118.45 71.6584 120.225C71.4235 120.813 71.174 121.387 70.9245 121.945C70.8512 122.122 70.7704 122.313 70.6824 122.489C69.7521 124.599 68.9435 126.761 68.2607 128.964C68.0846 129.515 67.9232 130.052 67.7617 130.581C69.9632 126.553 78.505 110.7 78.938 105.129C79.437 98.7201 72.7004 86.6665 72.7004 86.6665L69.8458 88.9302Z" fill="#4E5DA5"/>
<path d="M120.465 113.184C120.465 113.184 116.561 116.933 114.059 114.779C111.556 112.626 111.622 108.613 113.787 105.959C115.952 103.306 137.38 78.4494 138.62 79.8973C139.427 80.8381 142.619 78.2804 142.062 80.3897C141.849 81.2056 139.545 86.174 139.251 87.0045C138.033 90.4515 120.465 113.184 120.465 113.184Z" fill="#F0C9A5"/>
<path d="M93.7969 114.338C93.7969 114.338 104.137 109.414 105.604 109.928C107.072 110.443 100.805 115.169 100.805 115.169L97.3046 115.485L93.7969 114.338Z" fill="#F0C9A5"/>
<path d="M127.973 107.3L112.784 98.3284C111.58 97.617 110.028 98.0181 109.317 99.2244L95.0363 123.478C94.326 124.684 94.7266 126.238 95.9309 126.95L111.12 135.922C112.325 136.633 113.877 136.232 114.587 135.026L128.868 110.772C129.578 109.566 129.178 108.012 127.973 107.3Z" fill="#1D1E1E"/>
<path d="M89.3219 119.064C89.3219 119.064 91.9783 115.389 93.7982 114.309C94.2404 113.979 94.777 113.801 95.3283 113.801C95.8796 113.801 96.4162 113.979 96.8583 114.309L97.7976 113.912C100.004 114.772 102.35 115.218 104.718 115.228C108.071 115.11 115.366 115.441 115.344 117.065C115.344 118.153 108.123 117.403 108.123 117.403C108.123 117.403 113.406 117.403 113.164 118.608C112.922 119.814 107.521 119.718 107.521 119.718C107.521 119.718 112.034 119.571 111.315 120.784C110.596 121.997 106.677 121.784 106.677 121.784C106.677 121.784 110.016 121.784 109.165 122.658C108.313 123.533 102.311 123.988 100.858 124.231C99.9257 124.393 97.805 124.51 96.4033 124.576C95.5219 124.62 94.6394 124.518 93.7909 124.275L85.9609 122.019L89.3219 119.064Z" fill="#F0C9A5"/>
<path d="M81.1758 53.5632C81.1758 53.5632 83.458 59.7443 87.5528 56.9809C89.1232 55.9225 89.7176 55.0111 89.6222 54.3056C89.6222 54.3129 81.2712 53.8131 81.1758 53.5632Z" fill="white"/>
<path d="M60.123 86.4607C60.123 86.4607 54.9422 110.289 57.4445 114.853C61.7374 122.68 88.6984 122.849 88.6984 122.849L92.0153 117.668C92.0153 117.668 73.3246 111.237 67.4466 110.7L71.7909 87.8424L60.123 86.4607Z" fill="#F0C9A5"/>
<path d="M70.6235 93.7884L71.7903 87.8424L60.1224 86.4607C60.1224 86.4607 59.4399 89.5843 58.6914 93.8104L70.6235 93.7884Z" fill="#D69D6F"/>
<path d="M58.127 89.5403C58.127 89.5403 60.1597 78.1261 63.0656 75.9139C65.9716 73.7016 75.6288 82.5727 75.6288 82.5727L74.6602 90.7603L58.127 89.5403Z" fill="#6D74CA"/>
<path d="M136.623 86.7254C136.623 86.7254 134.987 83.6238 134.796 81.6467C134.67 80.5074 134.997 79.3643 135.706 78.4643L135.75 77.5088C137.367 76.0006 138.693 74.2067 139.661 72.217C140.923 69.3506 144.739 62.0523 146.097 62.7358C146.999 63.1915 142.868 70.2326 142.868 70.2326C142.868 70.2326 143.939 67.9836 144.864 68.6744C145.789 69.3653 144.563 71.6731 144.563 71.6731C144.563 71.6731 145.341 70.0341 146.075 71.1366C146.278 71.4508 146.377 71.8218 146.355 72.1958C146.334 72.5697 146.195 72.9272 145.957 73.2166C145.957 73.2166 146.845 71.8863 147.22 72.9446C147.594 74.003 146.038 77.7807 145.657 79.111C145.352 79.999 144.994 80.8678 144.585 81.7128C144.264 82.4711 143.82 83.1713 143.272 83.7855L136.895 89.9813L136.623 86.7254Z" fill="#F0C9A5"/>
<path d="M134.899 82.0362C134.899 82.0362 133.695 76.546 134.833 75.7375C135.97 74.929 138.054 75.4068 138.054 75.4068L137.152 78.2217L134.899 82.0362Z" fill="#F0C9A5"/>
<path d="M61.8761 53.6516L56.6805 45.0818C58.3576 40.9301 58.463 36.308 56.9769 32.084C55.4908 27.86 52.5155 24.325 48.6103 22.1435C44.705 19.9619 40.1387 19.284 35.7696 20.2371C31.4004 21.1903 27.5292 23.7088 24.8836 27.3194C22.238 30.93 21.0001 35.3841 21.4026 39.8445C21.8052 44.3049 23.8203 48.4645 27.0695 51.5415C30.3186 54.6185 34.5779 56.401 39.0469 56.5541C43.5159 56.7072 47.8868 55.2202 51.3383 52.3727L61.8761 53.6516Z" fill="#6D74CA"/>
<path d="M29.221 42.1344C31.4055 42.1344 33.1763 40.3608 33.1763 38.1729C33.1763 35.9851 31.4055 34.2114 29.221 34.2114C27.0365 34.2114 25.2656 35.9851 25.2656 38.1729C25.2656 40.3608 27.0365 42.1344 29.221 42.1344Z" fill="white"/>
<path d="M39.9046 42.1344C42.089 42.1344 43.8599 40.3608 43.8599 38.1729C43.8599 35.9851 42.089 34.2114 39.9046 34.2114C37.7201 34.2114 35.9492 35.9851 35.9492 38.1729C35.9492 40.3608 37.7201 42.1344 39.9046 42.1344Z" fill="white"/>
<path d="M50.5823 42.1344C52.7668 42.1344 54.5376 40.3608 54.5376 38.1729C54.5376 35.9851 52.7668 34.2114 50.5823 34.2114C48.3978 34.2114 46.627 35.9851 46.627 38.1729C46.627 40.3608 48.3978 42.1344 50.5823 42.1344Z" fill="white"/>
<path d="M182.775 29.2945C184.915 29.2945 186.65 27.5571 186.65 25.4139C186.65 23.2706 184.915 21.5332 182.775 21.5332C180.635 21.5332 178.9 23.2706 178.9 25.4139C178.9 27.5571 180.635 29.2945 182.775 29.2945Z" fill="#A53243"/>
<path d="M200.753 17.366C200.306 20.1148 198.009 22.8783 194.662 24.3335C190.935 25.9504 187.009 25.583 184.668 23.7088C184.291 23.4496 183.854 23.2925 183.399 23.2526C182.944 23.2126 182.486 23.2913 182.07 23.4809C180.455 24.1277 179.81 25.7741 180.8 26.6928C184.352 29.9928 190.883 30.669 196.945 27.8026C201.781 25.5095 205.017 21.4083 205.567 17.366H200.753Z" fill="#A53243"/>
<path d="M183.419 23.0178C181.858 22.3562 180.501 21.2871 179.492 19.9219C178.483 18.5568 177.859 16.9456 177.683 15.2563C177.507 13.567 177.787 11.8613 178.493 10.3172C179.199 8.77304 180.306 7.44688 181.698 6.47694C183.091 5.50701 184.717 4.92879 186.408 4.80255C188.099 4.67632 189.793 5.00668 191.314 5.75922C192.834 6.51177 194.125 7.65894 195.052 9.08116C195.979 10.5034 196.508 12.1486 196.584 13.8454H200.635C200.556 11.2471 199.77 8.71965 198.363 6.53563C196.955 4.35162 194.979 2.59385 192.647 1.45185C190.316 0.309842 187.717 -0.173078 185.132 0.0551514C182.546 0.283381 180.072 1.2141 177.976 2.74697C175.879 4.27984 174.241 6.3567 173.236 8.75365C172.232 11.1506 171.899 13.7767 172.275 16.3488C172.651 18.9209 173.721 21.3415 175.369 23.3495C177.018 25.3576 179.182 26.8769 181.629 27.7437C182.011 27.8789 182.419 27.9204 182.82 27.8648C183.221 27.8091 183.603 27.658 183.934 27.424C184.264 27.19 184.534 26.88 184.72 26.52C184.907 26.16 185.004 25.7605 185.004 25.3551C184.999 24.8526 184.845 24.363 184.563 23.9473C184.281 23.5317 183.884 23.2084 183.419 23.0178Z" fill="#EAB868"/>
<path d="M174.371 15.6165C174.56 12.0568 176.031 8.68629 178.511 6.12944C180.991 3.57258 184.312 2.00277 187.859 1.71087H188.028C188.223 1.6926 188.405 1.60386 188.54 1.4612C188.674 1.31854 188.752 1.1317 188.76 0.935553C188.767 0.739403 188.702 0.547331 188.579 0.395174C188.455 0.243017 188.28 0.141169 188.087 0.108625C187.033 -0.00723697 185.97 -0.00723697 184.917 0.108625C182.752 0.334202 180.667 1.053 178.822 2.20999C176.977 3.36697 175.421 4.93145 174.273 6.78364C173.125 8.63582 172.415 10.7266 172.198 12.8958C171.981 15.0651 172.263 17.2553 173.021 19.2988C173.076 19.5044 173.209 19.68 173.393 19.7868C173.577 19.8936 173.795 19.9229 174.001 19.8684C174.206 19.8138 174.381 19.6797 174.488 19.4957C174.595 19.3117 174.624 19.0928 174.57 18.8872C174.383 17.8077 174.316 16.7107 174.371 15.6165Z" fill="#FFE2BB"/>
<path d="M196.585 13.8527H198.926C198.485 7.83322 193.268 2.48263 187.052 2.91626C184.489 3.04445 182.051 4.06551 180.16 5.80294C178.269 7.54036 177.044 9.88494 176.696 12.4314C176.347 14.9778 176.898 17.5661 178.254 19.7487C179.609 21.9314 181.683 23.5712 184.117 24.3848C184.336 24.4596 184.568 24.4944 184.799 24.4877C184.676 24.1601 184.487 23.861 184.245 23.6084C184.003 23.3558 183.712 23.1549 183.39 23.0178C181.829 22.3561 180.472 21.287 179.463 19.9219C178.454 18.5567 177.83 16.9455 177.654 15.2562C177.478 13.5669 177.758 11.8613 178.464 10.3171C179.17 8.77296 180.277 7.44681 181.669 6.47687C183.062 5.50693 184.688 4.92871 186.379 4.80248C188.07 4.67624 189.764 5.00661 191.285 5.75915C192.805 6.51169 194.096 7.65886 195.023 9.08109C195.95 10.5033 196.479 12.1485 196.555 13.8453L196.585 13.8527Z" fill="#E3A234"/>
<path d="M119.019 29.2945C121.159 29.2945 122.894 27.5571 122.894 25.4139C122.894 23.2706 121.159 21.5332 119.019 21.5332C116.879 21.5332 115.145 23.2706 115.145 25.4139C115.145 27.5571 116.879 29.2945 119.019 29.2945Z" fill="#A53243"/>
<path d="M136.997 17.366C136.55 20.1148 134.253 22.8783 130.907 24.3335C127.179 25.9504 123.253 25.583 120.912 23.7088C120.535 23.4496 120.098 23.2925 119.643 23.2526C119.188 23.2126 118.73 23.2913 118.314 23.4809C116.7 24.1277 116.054 25.7741 117.045 26.6928C120.596 29.9928 127.127 30.669 133.189 27.8026C138.025 25.5095 141.261 21.4083 141.811 17.366H136.997Z" fill="#A53243"/>
<path d="M119.665 23.0178C118.104 22.3562 116.748 21.2871 115.739 19.9219C114.73 18.5568 114.105 16.9456 113.929 15.2563C113.753 13.567 114.033 11.8613 114.739 10.3172C115.446 8.77304 116.552 7.44688 117.945 6.47694C119.337 5.50701 120.963 4.92879 122.654 4.80255C124.345 4.67632 126.039 5.00668 127.56 5.75922C129.08 6.51177 130.371 7.65894 131.298 9.08116C132.225 10.5034 132.754 12.1486 132.83 13.8454H136.881C136.802 11.2471 136.016 8.71965 134.609 6.53563C133.201 4.35162 131.225 2.59385 128.893 1.45185C126.562 0.309842 123.963 -0.173078 121.378 0.0551514C118.792 0.283381 116.318 1.2141 114.222 2.74697C112.125 4.27984 110.487 6.3567 109.482 8.75365C108.478 11.1506 108.146 13.7767 108.521 16.3488C108.897 18.9209 109.967 21.3415 111.615 23.3495C113.264 25.3576 115.428 26.8769 117.875 27.7437C118.257 27.8789 118.665 27.9204 119.066 27.8648C119.467 27.8091 119.849 27.658 120.18 27.424C120.51 27.19 120.78 26.88 120.967 26.52C121.153 26.16 121.25 25.7605 121.251 25.3551C121.245 24.8526 121.091 24.363 120.809 23.9473C120.528 23.5317 120.13 23.2084 119.665 23.0178Z" fill="#EAB868"/>
<path d="M110.61 15.6165C110.799 12.0557 112.271 8.68419 114.752 6.12717C117.234 3.57015 120.557 2.00108 124.105 1.71087H124.274C124.469 1.6926 124.651 1.60386 124.786 1.4612C124.92 1.31854 124.998 1.1317 125.006 0.935553C125.013 0.739403 124.949 0.547331 124.825 0.395174C124.701 0.243017 124.526 0.141169 124.333 0.108625C123.279 -0.00723697 122.216 -0.00723697 121.163 0.108625C118.998 0.334202 116.913 1.053 115.068 2.20999C113.223 3.36697 111.667 4.93145 110.519 6.78364C109.371 8.63582 108.661 10.7266 108.444 12.8958C108.227 15.0651 108.509 17.2553 109.267 19.2988C109.322 19.5044 109.456 19.68 109.639 19.7868C109.73 19.8397 109.831 19.8741 109.935 19.8881C110.039 19.9021 110.145 19.8954 110.247 19.8684C110.349 19.8413 110.444 19.7945 110.528 19.7306C110.611 19.6667 110.681 19.5869 110.734 19.4957C110.787 19.4046 110.821 19.304 110.835 19.1996C110.849 19.0952 110.843 18.989 110.816 18.8872C110.626 17.8079 110.558 16.711 110.61 15.6165Z" fill="#FFE2BB"/>
<path d="M132.831 13.8527H135.172C134.731 7.83322 129.514 2.48263 123.298 2.91626C120.735 3.04445 118.298 4.06551 116.406 5.80294C114.515 7.54036 113.29 9.88494 112.942 12.4314C112.593 14.9778 113.145 17.5661 114.5 19.7487C115.855 21.9314 117.929 23.5712 120.363 24.3848C120.583 24.4596 120.814 24.4944 121.045 24.4877C120.922 24.1601 120.733 23.861 120.491 23.6084C120.249 23.3558 119.958 23.1549 119.636 23.0178C118.075 22.3561 116.719 21.287 115.71 19.9219C114.701 18.5567 114.076 16.9455 113.9 15.2562C113.724 13.5669 114.004 11.8613 114.71 10.3171C115.417 8.77296 116.523 7.44681 117.916 6.47687C119.308 5.50693 120.934 4.92871 122.625 4.80248C124.316 4.67624 126.01 5.00661 127.531 5.75915C129.051 6.51169 130.342 7.65886 131.269 9.08109C132.196 10.5033 132.725 12.1485 132.801 13.8453L132.831 13.8527Z" fill="#E3A234"/>
<path d="M107.82 92.3699L107.828 92.3775V92.3699H107.82Z" fill="#4E5DA5"/>
<path d="M21.6904 104.57C25.2042 104.57 28.0528 101.717 28.0528 98.1981C28.0528 94.6789 25.2042 91.8259 21.6904 91.8259C18.1766 91.8259 15.3281 94.6789 15.3281 98.1981C15.3281 101.717 18.1766 104.57 21.6904 104.57Z" stroke="white" stroke-width="3" stroke-miterlimit="10"/>
<path d="M227.2 100.954C230.714 100.954 233.563 98.1014 233.563 94.5822C233.563 91.0629 230.714 88.21 227.2 88.21C223.686 88.21 220.838 91.0629 220.838 94.5822C220.838 98.1014 223.686 100.954 227.2 100.954Z" stroke="#6D74CA" stroke-width="3" stroke-miterlimit="10"/>
<path d="M21.3396 67.9762C23.0945 67.9762 24.5171 66.5514 24.5171 64.7938C24.5171 63.0362 23.0945 61.6113 21.3396 61.6113C19.5847 61.6113 18.1621 63.0362 18.1621 64.7938C18.1621 66.5514 19.5847 67.9762 21.3396 67.9762Z" stroke="#6D74CA" stroke-width="3" stroke-miterlimit="10"/>
<path d="M239.396 63.8529C241.151 63.8529 242.574 62.4281 242.574 60.6705C242.574 58.9129 241.151 57.488 239.396 57.488C237.641 57.488 236.219 58.9129 236.219 60.6705C236.219 62.4281 237.641 63.8529 239.396 63.8529Z" stroke="white" stroke-width="3" stroke-miterlimit="10"/>
</svg>
