<svg width="8" height="12" viewBox="0 0 8 12" fill="none" xmlns="http://www.w3.org/2000/svg">
<path d="M2.5892 10.9999L6.8292 6.70995C6.92293 6.61699 6.99732 6.50638 7.04809 6.38453C7.09886 6.26267 7.125 6.13196 7.125 5.99995C7.125 5.86794 7.09886 5.73723 7.04809 5.61537C6.99732 5.49351 6.92293 5.38291 6.8292 5.28995L2.5892 1.04995C2.49624 0.95622 2.38564 0.881826 2.26378 0.831057C2.14192 0.780288 2.01121 0.75415 1.8792 0.75415C1.74719 0.75415 1.61648 0.780288 1.49463 0.831057C1.37277 0.881825 1.26217 0.95622 1.1692 1.04995C0.982951 1.23731 0.878409 1.49076 0.878409 1.75495C0.878409 2.01913 0.982951 2.27259 1.1692 2.45995L4.7092 5.99995L1.1692 9.53995C0.984457 9.72621 0.880306 9.97761 0.879201 10.2399C0.87844 10.3716 0.903665 10.502 0.95343 10.6239C1.00319 10.7457 1.07652 10.8565 1.1692 10.9499C1.25882 11.047 1.36679 11.1254 1.48686 11.1805C1.60694 11.2356 1.73674 11.2664 1.86878 11.271C2.00081 11.2757 2.13246 11.2541 2.25611 11.2076C2.37977 11.161 2.49298 11.0905 2.5892 10.9999Z" fill="#898989"/>
</svg>
