<svg width="614" height="128" viewBox="0 0 614 128" fill="none" xmlns="http://www.w3.org/2000/svg">
<path d="M416.028 128C415.769 127.996 415.52 127.895 415.332 127.717C415.143 127.538 415.028 127.296 415.008 127.037L405.402 9.1553L390.366 92.7924C390.332 93.0415 390.209 93.2697 390.02 93.4349C389.831 93.6001 389.588 93.691 389.337 93.691C389.086 93.691 388.844 93.6001 388.655 93.4349C388.466 93.2697 388.342 93.0415 388.308 92.7924L381.447 54.9524L376.82 64.7759C376.738 64.9569 376.605 65.1104 376.439 65.2184C376.272 65.3263 376.078 65.3841 375.879 65.3849H322.616L315.892 89.4918C315.804 89.6909 315.656 89.8575 315.469 89.968C315.282 90.0785 315.065 90.1274 314.849 90.1079C314.632 90.0884 314.427 90.0014 314.263 89.8592C314.098 89.7169 313.983 89.5266 313.932 89.3149L310.344 55.9151L300.307 127.096C300.278 127.353 300.152 127.589 299.955 127.757C299.759 127.925 299.506 128.011 299.249 128C298.989 127.996 298.741 127.895 298.553 127.717C298.364 127.538 298.249 127.296 298.229 127.037L288.623 9.1553L273.587 92.7924C273.553 93.0415 273.43 93.2697 273.241 93.4349C273.051 93.6001 272.809 93.691 272.558 93.691C272.307 93.691 272.065 93.6001 271.876 93.4349C271.686 93.2697 271.563 93.0415 271.529 92.7924L264.668 54.9524L260.041 64.7759C259.959 64.9569 259.826 65.1104 259.66 65.2184C259.493 65.3263 259.299 65.3841 259.1 65.3849H205.876L199.152 89.4918C199.064 89.6909 198.916 89.8575 198.729 89.968C198.542 90.0785 198.325 90.1274 198.109 90.1079C197.892 90.0884 197.687 90.0014 197.523 89.8592C197.358 89.7169 197.243 89.5266 197.192 89.3149L193.604 55.9151L183.567 127.096C183.542 127.355 183.418 127.594 183.22 127.763C183.023 127.931 182.767 128.016 182.508 128C182.249 127.996 182.001 127.895 181.813 127.717C181.624 127.538 181.509 127.296 181.489 127.037L171.883 9.1553L156.828 92.7728C156.793 93.0219 156.67 93.2501 156.481 93.4152C156.292 93.5804 156.049 93.6714 155.798 93.6714C155.548 93.6714 155.305 93.5804 155.116 93.4152C154.927 93.2501 154.804 93.0219 154.769 92.7728L147.908 54.9327L143.281 64.7562C143.199 64.9372 143.067 65.0908 142.9 65.1987C142.733 65.3067 142.539 65.3645 142.34 65.3653H89.1165L82.3924 89.5114C82.3254 89.7463 82.1796 89.9507 81.9796 90.0903C81.7796 90.2299 81.5376 90.2961 81.2946 90.2776C81.0489 90.26 80.8175 90.1556 80.6416 89.9828C80.4656 89.8101 80.3566 89.5804 80.334 89.3346L76.7465 55.9347L66.8271 127.096C66.7976 127.353 66.6719 127.589 66.4754 127.757C66.2789 127.925 66.0263 128.011 65.7685 128C65.5094 127.996 65.2612 127.895 65.0726 127.717C64.884 127.538 64.7686 127.296 64.7491 127.037L55.1433 9.1553L40.0876 92.7728C40.0532 93.0219 39.9301 93.2501 39.7409 93.4152C39.5518 93.5804 39.3093 93.6714 39.0584 93.6714C38.8075 93.6714 38.5651 93.5804 38.3759 93.4152C38.1868 93.2501 38.0636 93.0219 38.0292 92.7728L31.168 54.9327L26.5415 64.7562C26.4591 64.9372 26.3267 65.0908 26.1599 65.1987C25.9931 65.3067 25.799 65.3645 25.6005 65.3653H1.03708C0.75892 65.3653 0.492155 65.2545 0.295468 65.0574C0.0987799 64.8603 -0.0117188 64.5929 -0.0117188 64.3142C-0.0117188 64.0354 0.0987799 63.768 0.295468 63.5709C0.492155 63.3738 0.75892 63.2631 1.03708 63.2631H24.934L30.6779 51.0426C30.7719 50.8438 30.9264 50.6799 31.1191 50.5745C31.3119 50.4691 31.533 50.4276 31.7507 50.456C31.9685 50.4843 32.1716 50.5811 32.3311 50.7324C32.4905 50.8837 32.5981 51.0817 32.6382 51.298L39.0486 86.6626L54.5552 0.864283C54.598 0.612849 54.7315 0.385931 54.9303 0.226583C55.129 0.0672362 55.3792 -0.0134555 55.6334 -0.000184491C55.889 0.00877143 56.1324 0.111952 56.3169 0.289592C56.5014 0.467231 56.614 0.706838 56.6332 0.962517L66.1213 117.41L75.9232 47.1918C75.957 46.9367 76.0839 46.7032 76.2794 46.5363C76.4749 46.3694 76.7251 46.281 76.9818 46.2881C77.2378 46.2918 77.4834 46.3901 77.6715 46.5641C77.8597 46.7382 77.9771 46.9757 78.0012 47.2311L81.9219 83.6959L87.3913 64.0489C87.4514 63.8292 87.5817 63.6352 87.7623 63.4968C87.9429 63.3584 88.1638 63.2832 88.3911 63.2827H141.674L147.418 51.0623C147.512 50.8634 147.666 50.6995 147.859 50.5941C148.052 50.4887 148.273 50.4472 148.491 50.4756C148.708 50.504 148.912 50.6007 149.071 50.752C149.231 50.9033 149.338 51.1013 149.378 51.3177L155.789 86.6822L171.217 0.844636C171.23 0.568469 171.352 0.308786 171.556 0.122718C171.76 -0.0633506 172.029 -0.160565 172.305 -0.147538C172.58 -0.134512 172.839 -0.0123084 173.025 0.192183C173.211 0.396674 173.308 0.666702 173.295 0.942869L182.783 117.39L192.585 47.1722C192.614 46.9152 192.74 46.679 192.936 46.5113C193.133 46.3436 193.386 46.2568 193.643 46.2684C193.899 46.2721 194.145 46.3704 194.333 46.5445C194.521 46.7185 194.639 46.956 194.663 47.2115L198.583 83.6763L204.053 64.0293C204.113 63.8095 204.243 63.6156 204.424 63.4772C204.604 63.3388 204.825 63.2636 205.053 63.2631H258.434L264.177 51.0426C264.271 50.8438 264.426 50.6799 264.619 50.5745C264.811 50.4691 265.033 50.4276 265.25 50.456C265.468 50.4843 265.671 50.5811 265.831 50.7324C265.99 50.8837 266.098 51.0817 266.138 51.298L272.548 86.6626L287.976 0.824988C288.019 0.573554 288.153 0.346639 288.351 0.187292C288.55 0.0279451 288.8 -0.0527503 289.055 -0.0394793C289.31 -0.0305234 289.554 0.0726575 289.738 0.250297C289.923 0.427936 290.035 0.667543 290.054 0.923222L299.601 117.41L309.403 47.1918C309.403 46.9157 309.513 46.6508 309.707 46.4555C309.902 46.2603 310.167 46.1505 310.442 46.1505C310.718 46.1505 310.982 46.2603 311.177 46.4555C311.372 46.6508 311.481 46.9157 311.481 47.1918L315.402 83.6566L320.871 64.0096C320.931 63.7899 321.062 63.5959 321.242 63.4575C321.423 63.3191 321.644 63.2439 321.871 63.2434H375.213L380.937 51.023C381.031 50.8241 381.186 50.6602 381.378 50.5548C381.571 50.4494 381.792 50.4079 382.01 50.4363C382.228 50.4647 382.431 50.5614 382.59 50.7127C382.75 50.864 382.857 51.0621 382.897 51.2784L389.308 86.6429L404.736 0.805341C404.749 0.529174 404.871 0.269495 405.075 0.0834267C405.279 -0.102642 405.548 -0.199856 405.824 -0.186829C406.1 -0.173803 406.359 -0.0516032 406.544 0.152888C406.73 0.357379 406.827 0.627411 406.814 0.903578L416.302 117.351L426.104 47.1329C426.138 46.8778 426.265 46.6442 426.46 46.4774C426.656 46.3105 426.906 46.222 427.163 46.2291C427.419 46.2328 427.664 46.3311 427.852 46.5052C428.04 46.6792 428.158 46.9167 428.182 47.1722L432.103 83.637L437.572 63.99C437.632 63.7702 437.763 63.5763 437.943 63.4379C438.124 63.2995 438.345 63.2243 438.572 63.2238H739.939C740.218 63.2238 740.484 63.3345 740.681 63.5316C740.878 63.7287 740.988 63.9961 740.988 64.2749C740.988 64.5536 740.878 64.821 740.681 65.0181C740.484 65.2152 740.218 65.326 739.939 65.326H439.356L432.632 89.4328C432.544 89.632 432.396 89.7985 432.209 89.909C432.022 90.0196 431.805 90.0685 431.589 90.049C431.372 90.0295 431.167 89.9425 431.003 89.8002C430.838 89.658 430.723 89.4677 430.672 89.256L427.084 55.8561L417.067 127.096C417.033 127.348 416.909 127.579 416.718 127.745C416.526 127.911 416.281 128.002 416.028 128Z" fill="#19B698"/>
</svg>
