<svg width="317" height="255" viewBox="0 0 317 255" fill="none" xmlns="http://www.w3.org/2000/svg">
<g clip-path="url(#clip0_1730_9384)">
<path d="M179.329 68.2196C179.329 68.2196 179.143 63.9634 181.743 62.6814C184.343 61.3993 184.874 63.9801 186.31 63.4681L195.296 60.2954V68.2196L185.422 71.3218L179.329 68.2196Z" fill="#FFB27D"/>
<path d="M263.518 46.2169C263.518 46.2169 284.643 44.4358 280.974 71.2308C276.92 100.777 234.511 121.954 271.293 156.872C271.293 156.872 240.318 158.711 226.765 153.564C213.213 148.417 220.956 61.6423 220.956 61.6423L240.32 46.4785L263.518 46.2169Z" fill="#19B698"/>
<path d="M158.501 255C246.039 255 317.002 239.731 317.002 220.897C317.002 202.062 246.039 186.793 158.501 186.793C70.9633 186.793 0 202.062 0 220.897C0 239.731 70.9633 255 158.501 255Z" fill="#B8D5DC"/>
<g opacity="0.6">
<path d="M222.586 200.562C222.586 200.562 240.532 159.49 252.506 164.568C264.48 169.646 233.819 189.541 229.017 201.655L222.586 200.562Z" fill="#ACC9C5"/>
</g>
<path d="M219.062 204.05C219.062 204.05 254.108 163.362 268.445 173.153C282.781 182.944 236.922 195.287 227.219 207.451L219.062 204.05Z" fill="#CCD39C"/>
<path d="M223.606 205.989C230.139 197.475 240.386 190.393 247.829 185.951C252.585 183.099 257.507 180.534 262.57 178.272L262.385 177.901C257.302 180.171 252.361 182.745 247.588 185.608C240.11 190.07 229.816 197.189 223.242 205.755L223.606 205.989Z" fill="#C2C68E"/>
<path d="M272.834 209.468C265.406 210.466 265.963 220.756 257.718 218.336C250.75 216.286 250.195 215.65 247.625 217.368C246.756 217.953 245.975 218.659 245.306 219.464C244.509 220.416 242.999 221.795 240.828 222.006C227.571 223.305 210.793 204.332 225.122 195.36C226.156 194.712 227.614 194.528 229.22 194.399C237.948 193.701 240.396 197.517 247.813 188.582C255.23 179.647 263.597 193.651 269.421 193.543C275.245 193.436 280.457 192.157 284.604 198.087C288.751 204.017 280.266 208.475 272.834 209.468Z" fill="#ACC9C5"/>
<g opacity="0.5">
<path d="M228.46 208.603L228.209 208.21C228.395 208.11 247.442 198.191 285.545 199.759L285.526 200.213C247.563 198.644 228.647 208.503 228.46 208.603Z" fill="#68A1BF"/>
<path d="M253.013 196.582C248.265 192.113 247.598 188.762 247.57 188.621L248.059 188.547C248.059 188.58 248.738 191.911 253.366 196.265L253.013 196.582Z" fill="#68A1BF"/>
<path d="M253.563 201.534C252.302 199.161 252.652 195.877 254.57 192.037C255.489 190.226 256.591 188.515 257.859 186.929L258.252 187.207C258.18 187.293 251.108 195.879 254.007 201.338L253.563 201.534Z" fill="#68A1BF"/>
<path d="M263.628 201.375C263.062 200.877 262.757 200.558 262.744 200.544L263.116 200.249C263.179 200.317 269.574 207.028 279.643 207.382L279.628 207.837C271.519 207.553 265.743 203.228 263.628 201.375Z" fill="#68A1BF"/>
<path d="M267.879 212.184C265.74 209.689 265.239 207.297 265.196 205.731C265.149 204.761 265.296 203.791 265.627 202.878L266.087 203.047C266.069 203.089 264.349 207.336 268.266 211.906L267.879 212.184Z" fill="#68A1BF"/>
</g>
<path d="M260.125 164.949C261.18 163.483 262.003 163.36 262.63 163.744C263.258 164.128 263.453 164.878 262.398 166.342C260.478 169.012 258.411 169.604 258.411 169.604C258.411 169.604 258.177 167.657 260.125 164.949Z" fill="#ACC9C5"/>
<path d="M52.8799 111.676C50.6738 112.945 49.5855 112.655 49.0544 111.835C48.5233 111.015 48.7462 109.98 50.9523 108.703C54.9709 106.393 57.8772 106.763 57.8772 106.763C57.8772 106.763 56.9579 109.33 52.8799 111.676Z" fill="#ACC9C5"/>
<path d="M53.0086 168.849L52.5183 168.815C52.5183 168.745 52.9807 161.568 50.1989 151.1C47.6325 141.441 41.703 126.927 28.0371 112.62L28.4085 112.31C42.1505 126.697 48.1097 141.297 50.6928 151.011C53.4765 161.544 53.0141 168.776 53.0086 168.849Z" fill="#ACC9C5"/>
<path d="M41.9471 130.42L41.5293 130.175C50.8144 115.88 44.6472 98.7458 44.5841 98.5751L45.0465 98.4248C45.1096 98.5992 51.3567 115.936 41.9471 130.42Z" fill="#ACC9C5"/>
<path d="M34.3961 122.997C31.3043 123.003 28.262 122.222 25.5566 120.726L25.8222 120.338C25.8705 120.368 30.76 123.32 36.6264 122.335L36.7155 122.791C35.9488 122.919 35.1734 122.988 34.3961 122.997Z" fill="#ACC9C5"/>
<path d="M27.6521 110.039C30.2947 112.217 30.5435 113.451 29.8805 114.171C29.2176 114.891 27.8917 114.83 25.2491 112.652C20.4339 108.683 19.3066 105.46 19.3066 105.46C19.3066 105.46 22.7663 106.013 27.6521 110.039Z" fill="#ACC9C5"/>
<path d="M26.8397 119.21C30.0487 120.539 30.6782 121.646 30.2752 122.526C29.8722 123.405 28.5928 123.721 25.3838 122.392C19.5379 119.98 17.4395 117.21 17.4395 117.21C17.4395 117.21 20.9084 116.754 26.8397 119.21Z" fill="#ACC9C5"/>
<path d="M39.2464 115.55C39.8907 117.926 39.2835 118.821 38.3011 119.053C37.3188 119.285 36.329 118.771 35.6753 116.388C34.5017 112.06 35.7161 109.548 35.7161 109.548C35.7161 109.548 38.056 111.164 39.2464 115.55Z" fill="#ACC9C5"/>
<path d="M46.0372 96.5341C46.923 99.7346 46.39 100.877 45.4077 101.115C44.4253 101.352 43.3649 100.592 42.481 97.3894C40.8672 91.5599 41.8663 88.313 41.8663 88.313C41.8663 88.313 44.403 90.6192 46.0372 96.5341Z" fill="#ACC9C5"/>
<path d="M104.983 184.682C104.983 184.682 71.2297 120.218 52.9881 129.494C34.7466 138.771 85.7739 167.975 94.9681 187.035L104.983 184.682Z" fill="#ACC9C5"/>
<path d="M87.6386 174.839C87.6386 174.839 40.3903 118.526 21.1329 131.855C1.87553 145.183 63.5938 162.611 76.6765 179.441L87.6386 174.839Z" fill="#92BCB5"/>
<path d="M81.53 177.463C72.7184 165.687 58.9188 155.844 48.8927 149.66C38.0236 142.957 29.1321 138.992 29.043 138.953L29.303 138.432C29.3921 138.471 38.3225 142.452 49.227 149.178C59.2976 155.39 73.1622 165.28 82.0295 177.131L81.53 177.463Z" fill="#68A1BF"/>
<path d="M86.2154 211.555C78.5329 211.418 86.5998 218.748 77.4075 218.976C65.9255 218.026 61.2142 212.984 59.58 210.522C58.7293 209.231 57.7178 208.054 56.5698 207.019C53.0415 203.865 52.0758 204.746 41.136 206.575C31.8509 208.123 30.7664 200.428 26.8277 194.861C26.7571 194.758 26.6828 194.658 26.6104 194.558C25.0895 192.497 23.1378 190.764 20.1721 189.962C16.964 189.1 13.8788 187.833 10.9909 186.192C10.757 186.059 10.5255 185.922 10.2964 185.782C4.7142 182.383 0.949997 177.702 2.97787 172.862C3.0243 172.747 3.07629 172.632 3.13015 172.518C3.55893 171.64 4.11178 170.828 4.77176 170.106C12.2686 161.739 19.8657 164.715 28.6364 166.004C33.4851 166.717 40.4025 160.909 47.2067 158.149L47.4982 158.032C52.8929 155.911 58.191 155.805 62.2913 162.485L62.5401 162.887C71.7027 177.626 76.2394 172.322 89.1402 175.051C91.5395 175.559 93.701 176.123 95.1273 177.324C108.425 188.532 99.495 204.022 86.2154 211.555Z" fill="#CCD39C"/>
<path d="M87.3286 197.167L87.7891 196.61C87.5273 196.425 60.8493 177.411 3.01216 172.517L2.94531 173.223C60.5596 178.096 87.0686 196.978 87.3286 197.167Z" fill="#C2C68E"/>
<path d="M52.7747 173.862C60.8713 167.867 62.5798 162.815 62.6485 162.601L61.928 162.394C61.9113 162.444 60.1991 167.462 52.3086 173.303L52.7747 173.862Z" fill="#C2C68E"/>
<path d="M50.9035 181.411C53.301 177.984 53.4607 172.841 51.3641 166.537C50.3584 163.566 49.0517 160.707 47.4643 158.002L46.8125 158.356C46.9035 158.503 55.7875 173.136 50.274 181.016L50.9035 181.411Z" fill="#C2C68E"/>
<path d="M35.753 179.227C36.7131 178.569 37.2386 178.133 37.2609 178.114L36.7577 177.585C36.6481 177.678 25.5951 186.823 10.3322 185.433L10.2598 186.138C22.5589 187.257 32.1764 181.684 35.753 179.227Z" fill="#C2C68E"/>
<path d="M27.086 195.117C30.8353 191.669 32.0888 188.066 32.4807 185.654C32.9078 183.027 32.4454 181.235 32.4249 181.161L31.6933 181.331C31.7118 181.4 33.4222 188.296 26.5586 194.606L27.086 195.117Z" fill="#C2C68E"/>
<path d="M25.8721 159.403C23.3428 158.865 22.7727 157.946 23.0011 157.011C23.2295 156.076 24.1655 155.479 26.6948 156.019C31.3039 157 33.1201 159.173 33.1201 159.173C33.1201 159.173 30.5481 160.403 25.8721 159.403Z" fill="#ACC9C5"/>
<g opacity="0.6">
<path d="M178.46 30.9864C178.46 30.9864 176.716 27.8026 172.306 28.2033C167.896 28.6041 168.419 31.7935 166.319 31.4948C164.219 31.196 161.277 31.4948 160.648 33.4893C160.018 35.4838 157.181 34.3873 157.077 36.0868C156.973 37.7863 160.332 38.9793 164.219 37.4838C168.105 35.9884 169.996 38.6453 175.457 38.1648C180.919 37.6842 181.597 37.0849 184.828 37.3836C188.059 37.6824 187.985 35.5802 186.514 34.185C185.043 32.7898 179.09 32.9159 178.46 30.9864Z" fill="#19B698"/>
</g>
<g opacity="0.6">
<path d="M215.879 6.05392C215.879 6.05392 212.135 -0.783064 202.664 0.0741099C193.194 0.931284 194.321 7.78311 189.81 7.14116C185.299 6.4992 178.986 7.14116 177.632 11.4252C176.278 15.7092 170.189 13.3529 169.964 16.9912C169.739 20.6296 176.956 23.2011 185.299 19.9895C193.643 16.7779 197.703 22.4849 209.43 21.4515C221.157 20.4181 222.615 19.1323 229.55 19.7817C236.486 20.4311 236.327 15.9114 233.17 12.9169C230.013 9.92233 217.231 10.1951 215.879 6.05392Z" fill="#19B698"/>
</g>
<g opacity="0.6">
<path d="M75.4944 31.259C75.4944 31.259 72.6457 26.064 65.4368 26.7078C58.2278 27.3516 59.0857 32.5745 55.654 32.0884C52.2222 31.6023 47.4162 32.0884 46.3855 35.3482C45.3549 38.6081 40.7216 36.8158 40.5508 39.5859C40.3799 42.3559 45.8711 44.3133 52.2222 41.868C58.5732 39.4226 61.6614 43.7678 70.5863 42.9812C79.5112 42.1945 80.6143 41.2167 85.8993 41.7047C91.1844 42.1926 91.0563 38.7584 88.6533 36.4763C86.2503 34.1942 76.5306 34.4094 75.4944 31.259Z" fill="#19B698"/>
</g>
<path d="M192.354 170.606C192.354 170.606 193.468 187.747 161.899 168.936C140.235 156.021 39.3518 168.75 45.935 175.986L68.0058 214.44C68.0058 214.44 127.633 184.072 194.618 209.431L205.847 202.447L192.354 170.606Z" fill="white"/>
<path d="M103.383 77.8786C103.634 63.5552 102.07 60.2527 117.052 54.605C119.036 53.8629 128.614 51.809 130.794 51.7942C151.894 51.6494 163.391 73.9545 168.093 75.4091C169.688 75.9026 176.247 64.1657 178.418 61.9318C179.748 60.5626 188.932 67.2122 187.332 72.7133C185.701 78.2794 178.442 93.2929 167.842 94.6436C159.194 95.7457 152.522 85.6859 151.744 84.9438C153.478 95.0685 153.179 105.377 152.793 107.373C152.793 107.373 129.249 103.924 101.949 115.399C101.89 114.835 103.143 91.6249 103.383 77.8786Z" fill="#EF8062"/>
<path d="M131.613 213.102C131.613 213.102 131.722 217.201 134.697 218.355C137.672 219.509 146.292 220.553 143.072 223.179C141.215 224.691 132.513 223.713 130.054 223.713C127.596 223.713 125.286 224.711 123.458 223.179C121.447 221.49 123.458 213.093 123.458 213.093C123.458 213.093 125.581 214.123 127.488 214.076C130.238 214.021 131.613 213.102 131.613 213.102Z" fill="#331832"/>
<path d="M149.968 109.637C149.968 109.637 152.833 118.171 146.958 151.071C142.716 174.819 139.158 198.519 136.698 209.995C135.819 214.099 132.115 217.101 127.725 217.264L125.366 217.353C120.62 217.539 116.766 213.73 117.114 209.212L123.073 131.573L124.941 109.438L149.968 109.637Z" fill="#814A95"/>
<path d="M101.937 115.401C102.443 117.414 113.839 118.772 128.003 115.62C142.166 112.468 153.284 109.39 152.781 107.377C152.278 105.364 143.184 105.545 126.175 108.33C111.869 110.672 101.432 113.39 101.937 115.401Z" fill="#331832"/>
<path d="M97.4465 213.102C97.4465 213.102 97.5561 217.201 100.531 218.355C103.506 219.509 112.126 220.553 108.906 223.188C107.049 224.7 98.3472 223.722 95.8884 223.722C93.4297 223.722 91.1196 224.721 89.2923 223.188C87.2811 221.5 89.2923 213.102 89.2923 213.102C89.2923 213.102 91.4149 214.132 93.322 214.086C96.0742 214.021 97.4465 213.102 97.4465 213.102Z" fill="#331832"/>
<path d="M149.968 109.637L123.441 155.15L102.813 212.143C101.428 216.292 97.4276 219.134 92.8537 219.208L90.863 219.24C86.1647 219.314 82.5732 215.266 83.4349 210.861L103.576 114.962C103.84 113.848 108.36 112.397 109.519 112.13C120.678 109.544 150.578 105.536 149.968 109.637Z" fill="#814A95"/>
<path d="M120.943 162.856L120.41 162.72L127.714 137.009C127.981 136.248 128.239 135.435 128.507 134.597C129.872 130.3 131.571 124.949 135.766 123.298L135.978 123.78C132.024 125.344 130.368 130.558 129.036 134.747C128.765 135.593 128.507 136.417 128.243 137.159L120.943 162.856Z" fill="#020202"/>
<path d="M132.512 25.7839C132.512 25.7839 132.718 19.1992 126.466 19.1046C120.213 19.01 122.009 23.2717 120.988 24.4758C119.966 25.68 123.11 28.7431 126.132 28.9398C129.153 29.1365 132.512 25.7839 132.512 25.7839Z" fill="#331832"/>
<path d="M119.377 53.462C121.769 56.0595 124.456 56.887 127.958 56.887C133.262 56.887 130.79 51.7996 130.79 51.7996C129.49 51.7699 128.775 51.1558 128.668 49.9442L128.538 48.4599L128.475 47.7178L128.265 45.3634L128.079 43.2482L127.314 34.5745L124.868 43.4059L124.452 44.9069L123.019 50.0834C122.56 51.7328 121.175 53.013 119.405 53.4527L119.377 53.462Z" fill="#FFB27D"/>
<path d="M124.451 44.907C124.451 44.907 126.017 47.4692 128.473 47.7178L128.264 45.3634C126.732 45.0795 124.451 44.907 124.451 44.907Z" fill="#331832"/>
<path d="M115.484 36.5171C115.484 36.5171 116.314 37.7583 116.485 40.7844C116.734 45.2168 122.309 45.33 123.159 43.7734C123.265 43.5878 120.56 36.7676 120.56 36.7676L118.654 36.3965L115.484 36.5171Z" fill="#331832"/>
<path d="M135.116 33.2647C133.209 28.0029 127.949 24.9156 123.372 26.3665C118.794 27.8174 116.627 33.2629 118.544 38.5246C120.46 43.7864 125.71 46.8738 130.287 45.4229C134.865 43.972 137.023 38.5265 135.116 33.2647Z" fill="#FFB27D"/>
<path d="M127.459 27.5391C127.335 27.9102 130.417 32.3927 121.093 36.6545C111.769 40.9162 113.632 28.0438 120.727 25.5131C130.982 21.8599 134.852 27.8842 134.703 30.5411C134.555 33.198 127.459 27.5391 127.459 27.5391Z" fill="#331832"/>
<path d="M121.601 34.7544C121.601 34.7544 119.036 39.9308 121.866 43.4913C121.866 43.4913 118.709 41.8734 118.338 41.0107C117.967 40.1479 117.434 36.7841 117.434 36.7841L121.601 34.7544Z" fill="#331832"/>
<path d="M120.17 39.6099C121.412 40.1479 122.757 39.8158 123.173 38.8677C123.589 37.9197 122.92 36.7192 121.678 36.183C120.435 35.6468 119.091 35.9771 118.675 36.9252C118.259 37.8733 118.922 39.0718 120.17 39.6099Z" fill="#FFB27D"/>
<path d="M127.662 35.7322C127.687 35.7167 127.708 35.6955 127.723 35.6703C127.738 35.6452 127.747 35.6168 127.749 35.5875C127.751 35.5623 127.747 35.5372 127.738 35.5136C127.729 35.49 127.716 35.4685 127.698 35.4503C127.681 35.432 127.66 35.4175 127.637 35.4076C127.614 35.3977 127.589 35.3926 127.564 35.3927C127.1 35.3397 126.631 35.4353 126.225 35.6657C125.819 35.8962 125.497 36.2495 125.305 36.6747C125.295 36.6972 125.29 36.7215 125.289 36.7462C125.289 36.7708 125.293 36.7954 125.302 36.8184C125.311 36.8413 125.324 36.8623 125.341 36.88C125.359 36.8977 125.379 36.9118 125.402 36.9215C125.45 36.9379 125.502 36.9379 125.549 36.9214C125.597 36.9049 125.638 36.8729 125.666 36.8306C126.336 36.0142 127.486 35.7619 127.539 35.7637C127.583 35.7661 127.625 35.7551 127.662 35.7322Z" fill="#080435"/>
<path d="M126.868 38.1349C127.006 38.5579 127.385 38.825 127.715 38.7323C128.046 38.6395 128.202 38.2183 128.064 37.8046C127.927 37.3909 127.548 37.1144 127.217 37.2072C126.887 37.2999 126.731 37.7118 126.868 38.1349Z" fill="#080435"/>
<path d="M134.723 34.5132C134.752 34.5078 134.78 34.4958 134.804 34.4781C134.828 34.4604 134.848 34.4376 134.862 34.4112C134.872 34.3889 134.878 34.3648 134.879 34.3403C134.88 34.3158 134.876 34.2914 134.867 34.2684C134.858 34.2455 134.845 34.2245 134.828 34.2066C134.812 34.1888 134.791 34.1744 134.769 34.1644C134.349 33.9518 133.874 33.8746 133.408 33.9434C132.942 34.0122 132.51 34.2236 132.169 34.5485C132.133 34.5817 132.112 34.6279 132.11 34.677C132.107 34.726 132.125 34.7739 132.158 34.8101C132.197 34.8427 132.246 34.8613 132.298 34.863C132.349 34.8647 132.399 34.8493 132.44 34.8193C133.112 34.4921 133.869 34.38 134.607 34.4984C134.644 34.5139 134.684 34.5191 134.723 34.5132Z" fill="#080435"/>
<path d="M133.01 36.4558C132.963 36.8974 133.196 37.2778 133.548 37.3093C133.901 37.3408 134.208 37.0069 134.252 36.5672C134.297 36.1274 134.066 35.7452 133.714 35.7137C133.361 35.6822 133.056 36.0217 133.01 36.4558Z" fill="#080435"/>
<g opacity="0.3">
<path d="M122.853 36.8046C122.915 39.3056 124.525 41.6285 126.45 41.9829C128.376 42.3372 129.884 40.6062 129.823 38.1052C129.762 35.6041 128.151 33.2812 126.226 32.9269C124.3 32.5725 122.792 34.3035 122.853 36.8046Z" fill="white"/>
</g>
<g opacity="0.3">
<path d="M131.635 35.5857C131.99 38.018 133.678 40.2018 135.397 40.4634C137.117 40.725 138.229 38.9643 137.873 36.5319C137.516 34.0995 135.83 31.9158 134.11 31.6542C132.391 31.3926 131.278 33.1533 131.635 35.5857Z" fill="white"/>
</g>
<path d="M122.988 38.5747C123.032 38.6972 123.081 38.8178 123.134 38.9328C123.625 40.0776 124.416 41.0312 125.352 41.573C125.714 41.7887 126.112 41.9383 126.527 42.0145C127.004 42.1054 127.496 42.0748 127.957 41.9255C128.283 41.8173 128.588 41.6535 128.858 41.4412C129.575 40.8442 130.056 40.0115 130.215 39.0924C130.303 38.6652 130.343 38.2296 130.334 37.7936C130.324 37.3261 130.262 36.8612 130.148 36.4077C130.105 36.2192 130.051 36.0334 129.987 35.8511C129.43 34.2128 128.275 32.8825 126.914 32.4001C126.745 32.3408 126.573 32.2949 126.397 32.2628C125.99 32.1832 125.571 32.1932 125.169 32.2923C124.766 32.3913 124.39 32.5769 124.067 32.8361C123.218 33.504 122.698 34.6024 122.603 35.9104C122.588 36.096 122.587 36.2815 122.588 36.4819C122.588 36.5951 122.588 36.7119 122.607 36.8251C122.63 37.1556 122.679 37.4838 122.754 37.8066C122.816 38.0672 122.894 38.3237 122.988 38.5747ZM129.346 40.4134C129.161 40.7164 128.924 40.9845 128.646 41.2056C128.416 41.3906 128.154 41.5332 127.874 41.6268C127.459 41.7605 127.018 41.7892 126.59 41.7103C126.16 41.6304 125.749 41.4651 125.383 41.2242C124.455 40.6416 123.701 39.6248 123.281 38.4263C123.218 38.2408 123.162 38.0552 123.114 37.8697C123.066 37.6841 123.03 37.4986 123.001 37.3131C122.955 37.0351 122.93 36.7542 122.925 36.4726C122.919 36.2172 122.932 35.9617 122.964 35.7082C122.976 35.5702 122.998 35.4333 123.029 35.2982C123.027 35.2902 123.027 35.282 123.029 35.274C123.029 35.2592 123.029 35.2462 123.029 35.2314C123.08 34.9779 123.154 34.7295 123.25 34.4892C123.457 33.9334 123.809 33.4429 124.269 33.068C124.576 32.8218 124.937 32.652 125.322 32.5726C125.652 32.507 125.993 32.507 126.323 32.5726C126.455 32.5954 126.584 32.6283 126.711 32.671C128.028 33.0847 129.151 34.3872 129.682 35.9846C129.746 36.172 129.799 36.3628 129.842 36.5561C129.936 36.9691 129.989 37.3905 129.998 37.814C130.008 38.2284 129.969 38.6425 129.883 39.0478C129.787 39.5307 129.606 39.9929 129.35 40.4134C129.349 40.4133 129.347 40.4133 129.346 40.4134Z" fill="#EF8062"/>
<path d="M132.105 36.2444C132.148 36.2296 132.187 36.2051 132.219 36.173C132.251 36.1408 132.276 36.1018 132.291 36.0589C132.305 36.0225 132.311 35.9835 132.309 35.9446C132.307 35.9057 132.297 35.8676 132.279 35.8327C132.262 35.7978 132.237 35.7669 132.207 35.742C132.177 35.7171 132.142 35.6986 132.105 35.6878C132.053 35.6711 130.827 35.2871 129.368 36.1257C129.334 36.1437 129.304 36.1686 129.28 36.1987C129.256 36.2288 129.239 36.2636 129.229 36.3008C129.22 36.338 129.218 36.3767 129.224 36.4146C129.231 36.4525 129.245 36.4887 129.266 36.5209C129.312 36.5872 129.381 36.6337 129.46 36.6512C129.539 36.6688 129.621 36.656 129.691 36.6155C130.902 35.9198 131.89 36.2296 131.901 36.2314C131.966 36.2574 132.037 36.2619 132.105 36.2444Z" fill="#331832"/>
<path d="M119.072 27.9732C119.072 27.9732 116.047 22.0361 110.426 24.5983C104.805 27.1606 107.126 29.8787 108.157 31.6969C108.924 33.0513 112.129 34.5913 114.92 33.4892C117.711 32.3871 119.072 27.9732 119.072 27.9732Z" fill="#331832"/>
<path d="M119.999 48.3952C119.962 48.401 119.924 48.3965 119.889 48.3822C119.867 48.3739 119.846 48.361 119.829 48.3444C119.812 48.3279 119.798 48.3079 119.789 48.2858C119.78 48.2637 119.775 48.2399 119.775 48.2159C119.776 48.192 119.781 48.1684 119.791 48.1465C120.51 46.7982 121.59 45.6764 122.911 44.9071C122.954 44.8816 123.005 44.8731 123.054 44.8834C123.102 44.8938 123.146 44.9221 123.175 44.9628C123.188 44.9827 123.197 45.0051 123.201 45.0287C123.205 45.0523 123.204 45.0764 123.198 45.0996C123.192 45.1228 123.182 45.1446 123.167 45.1635C123.153 45.1824 123.134 45.1981 123.113 45.2095C121.861 45.9468 120.833 47.0117 120.142 48.2894C120.129 48.3176 120.109 48.342 120.084 48.3605C120.059 48.379 120.03 48.3909 119.999 48.3952Z" fill="#331832"/>
<path d="M119.376 53.4622L115.792 54.1134C115.792 54.1134 115.157 55.85 116.906 56.401C118.656 56.9521 119.012 56.9576 119.577 58.2174C120.141 59.4772 122.325 59.5384 123.094 59.0987C123.863 58.659 125.209 60.3103 126.457 60.3103C127.705 60.3103 128.438 58.2527 127.954 56.8853C127.957 56.8816 123.276 56.1357 119.376 53.4622Z" fill="white"/>
<path d="M130.789 51.7923C130.789 51.7923 132.993 56.7591 127.957 56.8797C127.957 56.8797 130.601 59.3492 132.453 58.364C134.304 57.3788 132.531 56.4919 133.32 55.8314C134.109 55.1709 134.975 54.6941 134.187 53.9222C133.4 53.1504 133.894 51.6216 133.894 51.6216C133.894 51.6216 132.642 50.4935 130.789 51.7923Z" fill="white"/>
<path d="M133.342 64.8724C133.779 64.8724 134.133 64.5418 134.133 64.1339C134.133 63.7261 133.779 63.3955 133.342 63.3955C132.905 63.3955 132.551 63.7261 132.551 64.1339C132.551 64.5418 132.905 64.8724 133.342 64.8724Z" fill="white"/>
<path d="M136.664 88.5616C137.101 88.5616 137.455 88.231 137.455 87.8232C137.455 87.4153 137.101 87.0847 136.664 87.0847C136.227 87.0847 135.873 87.4153 135.873 87.8232C135.873 88.231 136.227 88.5616 136.664 88.5616Z" fill="white"/>
<path d="M136.664 77.8284C137.101 77.8284 137.455 77.4978 137.455 77.09C137.455 76.6822 137.101 76.3516 136.664 76.3516C136.227 76.3516 135.873 76.6822 135.873 77.09C135.873 77.4978 136.227 77.8284 136.664 77.8284Z" fill="white"/>
<path d="M93.2597 136.51L93.1038 129.253C93.0629 128.268 92.2551 127.418 91.1855 127.251L85.0183 126.289C84.553 126.208 84.0742 126.269 83.6439 126.463C83.2135 126.657 82.8513 126.976 82.6041 127.378L78.6765 134.897L76.9922 134.105L80.9439 126.539C81.7907 125.055 83.5438 124.251 85.3191 124.528L91.4863 125.491C93.4325 125.795 94.9013 127.346 94.9775 129.201L95.1335 136.474L93.2597 136.51Z" fill="#331832"/>
<path d="M98.072 159.292L69.1023 157.362C67.0596 157.226 65.5183 155.581 65.6483 153.677L66.9668 134.396C67.1042 132.378 69.0596 130.895 71.2082 131.179L105.935 135.762C108.323 136.077 109.766 138.391 108.878 140.48L101.81 157.108C101.208 158.514 99.6987 159.403 98.072 159.292Z" fill="#68A1BF"/>
<path d="M86.9944 146.894L66.6191 138.406L66.7937 138.025L87.0483 146.464L107.7 142.946L107.778 143.352L86.9944 146.894Z" fill="#366F90"/>
<path d="M87.0541 148.456C86.9026 148.438 86.7563 148.39 86.6238 148.314C86.4913 148.239 86.3753 148.137 86.2826 148.016C86.1898 147.895 86.1222 147.757 86.0838 147.61C86.0453 147.462 86.0368 147.308 86.0587 147.158L86.2444 146.083C86.3119 145.779 86.4948 145.512 86.7548 145.339C87.0148 145.166 87.3317 145.1 87.639 145.156C87.7903 145.174 87.9364 145.223 88.0687 145.298C88.201 145.374 88.3168 145.475 88.4094 145.596C88.5019 145.717 88.5693 145.855 88.6077 146.003C88.646 146.15 88.6545 146.304 88.6326 146.454L88.4469 147.529C88.3793 147.833 88.1967 148.099 87.9372 148.272C87.6776 148.445 87.3612 148.511 87.0541 148.456Z" fill="#366F90"/>
<path d="M96.7339 125.105C96.279 124.281 95.7738 122.913 95.2687 121.605C94.9338 120.671 94.5349 119.76 94.0747 118.88C93.7032 118.242 85.9836 118.158 85.9836 118.158C85.9836 118.158 84.7227 120.108 83.6772 123.394C83.5809 123.585 83.5085 123.787 83.4618 123.995C83.0903 125.589 82.2547 127.787 83.2928 128.634C84.4255 129.561 85.1294 127.969 85.4153 127.097C85.2296 127.895 84.9919 129.428 85.8257 130.294C86.7041 131.207 87.7088 128.711 88.147 127.444H88.1582C87.848 128.583 87.4154 130.784 88.5296 131.391C89.8406 132.101 90.8509 128.708 91.1183 127.93H91.2148C91.9799 132.754 94.0319 130.32 94.4943 126.602C95.2372 127.376 96.9475 128.762 97.4953 128.403C98.1304 127.997 97.0905 125.75 96.7339 125.105Z" fill="#FFB27D"/>
<path d="M116.149 54.6902C116.149 54.6902 95.6154 60.2451 90.4157 85.5726C87.5243 99.6603 84.23 111.121 84.7016 118.795C84.7016 118.83 97.4074 120.581 97.4074 120.581C97.4074 120.581 105.55 81.2088 115.692 72.4496L116.149 54.6902Z" fill="#EF8062"/>
<path d="M102.465 99.4749L102.238 99.4174C104.938 89.8735 110.186 79.5967 110.238 79.4946L110.45 79.593C110.396 79.6913 105.158 89.9477 102.465 99.4749Z" fill="#331832"/>
<path d="M152.875 96.7029H152.641C152.965 83.5039 146.456 65.097 146.391 64.9114L146.612 64.8428C146.678 65.0209 153.2 83.4668 152.875 96.7029Z" fill="#331832"/>
<path d="M128.559 42.4896C128.543 42.4896 128.527 42.4859 128.513 42.4788C128.498 42.4718 128.485 42.4615 128.476 42.4488C128.468 42.4386 128.462 42.4269 128.46 42.4145C128.457 42.4021 128.456 42.3893 128.459 42.3767C128.461 42.3642 128.466 42.3523 128.473 42.3417C128.48 42.3311 128.489 42.3221 128.5 42.3152C128.633 42.2224 131.77 40.1018 133.276 40.7196C133.288 40.7239 133.299 40.7306 133.308 40.7392C133.317 40.7479 133.325 40.7584 133.33 40.7701C133.335 40.7817 133.337 40.7943 133.337 40.807C133.337 40.8197 133.335 40.8322 133.33 40.8439C133.325 40.8563 133.317 40.8676 133.308 40.8771C133.298 40.8865 133.287 40.8939 133.274 40.8988C133.262 40.9036 133.248 40.9059 133.235 40.9054C133.221 40.9049 133.208 40.9016 133.196 40.8958C133.018 40.8293 132.829 40.7966 132.639 40.7994C131.096 40.7994 128.652 42.4525 128.624 42.4692C128.605 42.483 128.582 42.4901 128.559 42.4896Z" fill="#020202"/>
<path d="M263.517 46.2168H210.08C210.08 46.2168 172.724 50.5565 179.91 109.214C184.694 148.209 195.662 167.39 192.352 185.739C190.807 194.309 167.713 196.102 155.684 191.1L168.868 210.353C206.44 236.001 258.273 212.05 241.478 164.896C216.225 93.9458 235.057 49.5472 263.517 46.2168Z" fill="white"/>
<path d="M91.3399 182.409C64.5152 186.725 45.9412 175.977 45.9412 175.977C45.9412 175.977 51.75 198.766 45.295 217.756C44.3442 220.554 62.8067 227.374 81.6054 222.863C136.066 209.793 181.46 233.317 181.46 233.317V200.516C181.458 199.703 181.291 198.9 180.97 198.154C180.648 197.408 180.178 196.735 179.588 196.176C159.151 176.682 130.118 176.179 91.3399 182.409Z" fill="#19B698"/>
<path d="M180.768 197.738C180.768 197.738 181.181 200.707 179.961 201.944C176.666 205.299 169.344 206.117 152.339 200.625C133.152 194.428 117.867 202.206 112.005 208.355C109.26 211.232 110.946 214.438 110.946 214.438L126.283 240.308C126.283 240.308 139.84 220.27 151.452 226.708C163.064 233.146 174.107 237.367 181.459 233.324C181.452 233.324 183.298 200.406 180.768 197.738Z" fill="#C9EBF4"/>
<path d="M134.177 210.351C134.177 210.351 131.413 207.043 123.116 208.943C116.255 210.512 117.185 213.752 117.185 213.752L121.996 225.379L137.441 219.173L134.177 210.351Z" fill="#8CC3DA"/>
<g opacity="0.6">
<path d="M117.184 213.752C117.184 213.752 121.345 217.336 126.669 215.681L132.478 227.535L123.115 228.092L117.184 213.752Z" fill="white"/>
</g>
<path d="M110.945 214.438C110.945 214.438 115.502 223.752 126.476 220.069C136.522 216.696 134.175 210.353 134.175 210.353L145.254 240.309C145.254 240.309 141.833 252.555 124.539 247.477L110.945 214.438Z" fill="white"/>
<path d="M181.541 62.7945C182.208 62.3641 189.396 59.1024 189.782 60.2972C190.169 61.4921 185.281 64.379 185.281 64.379L181.541 62.7945Z" fill="#FFB27D"/>
<path d="M200.651 54.9741C206.738 53.7662 212.773 55.5511 218.898 55.5863C224.194 55.616 229.507 55.2913 234.798 55.1206C235.42 55.1002 235.422 54.1818 234.798 54.193C228.772 54.3785 222.657 54.8757 216.629 54.6215C211.058 54.3859 205.936 52.9796 200.393 54.0798C199.784 54.2004 200.042 55.0872 200.651 54.9666V54.9741Z" fill="#8CC3DA"/>
<path d="M193.881 61.6738C199.558 61.1803 205.419 62.6572 211.131 62.9355C217.274 63.2342 223.436 63.2917 229.584 63.455C230.208 63.4717 230.206 62.5533 229.584 62.5273C223.437 62.364 217.272 62.3176 211.131 62.0078C205.343 61.7165 199.677 60.2415 193.881 60.7462C193.266 60.8 193.261 61.7184 193.881 61.6738Z" fill="#8CC3DA"/>
<path d="M187.591 72.537C194.403 71.2494 201.58 73.4016 208.522 73.3756C214.414 73.3534 220.221 73.7968 226.095 74.2625C226.715 74.3126 226.711 73.3923 226.095 73.3348C219.434 72.806 212.899 72.6446 206.225 72.4888C199.725 72.3366 193.783 70.42 187.328 71.6427C186.717 71.7577 186.975 72.6446 187.586 72.5296L187.591 72.537Z" fill="#8CC3DA"/>
<path d="M186.597 83.6041C192.354 83.7173 197.871 85.4001 203.637 85.5244C210.443 85.6728 216.865 84.7414 223.632 86.1404C224.239 86.2665 224.499 85.3797 223.89 85.2535C218.018 84.0401 212.309 84.4835 206.345 84.5911C199.628 84.7099 193.264 82.8174 186.597 82.6857C185.973 82.6727 185.973 83.593 186.597 83.6134V83.6041Z" fill="#8CC3DA"/>
<path d="M185.402 95.6399C197.321 94.3171 210.101 96.0296 222.032 96.8459C222.654 96.8886 222.651 95.9702 222.032 95.9182C210.099 95.1 197.323 93.3894 185.402 94.7123C184.791 94.7809 184.784 95.6993 185.402 95.6399Z" fill="#8CC3DA"/>
<path d="M186.166 107.054C192.323 105.755 197.817 107.321 203.928 107.436C209.761 107.546 215.627 107.286 221.455 107.204C222.077 107.204 222.079 106.277 221.455 106.277C214.897 106.369 208.145 106.909 201.601 106.451C195.811 106.045 191.668 104.944 185.907 106.16C185.3 106.288 185.556 107.175 186.166 107.047V107.054Z" fill="#8CC3DA"/>
<path d="M187.48 118.585C199.253 118.737 211.123 119.095 222.878 118.372C223.497 118.333 223.5 117.414 222.878 117.444C211.121 118.168 199.251 117.815 187.48 117.657C186.856 117.657 186.856 118.568 187.48 118.585Z" fill="#8CC3DA"/>
<path d="M188.476 130.502C194.819 128.806 200.034 131.155 206.221 130.634C211.926 130.153 217.042 129.077 222.833 129.78C223.449 129.854 223.444 128.936 222.833 128.852C216.231 128.051 210.743 129.827 204.314 129.841C198.162 129.856 194.374 127.96 188.216 129.606C187.618 129.765 187.872 130.652 188.474 130.493L188.476 130.502Z" fill="#8CC3DA"/>
<path d="M193.151 142.821C198.601 139.333 204.219 141.764 210.135 141.747C215.875 141.731 221.092 140.935 226.888 141.847C227.497 141.944 227.759 141.059 227.146 140.961C220.626 139.933 214.403 141.146 207.922 140.717C202.421 140.346 197.56 138.892 192.663 142.027C192.148 142.356 192.633 143.152 193.151 142.821Z" fill="#8CC3DA"/>
<path d="M196.295 154.154C201.396 152.299 206.683 153.649 211.985 153.299C218.496 152.868 223.084 151.855 229.645 153.423C230.249 153.568 230.507 152.681 229.903 152.536C224.852 151.33 220.247 151.334 215.082 151.961C208.785 152.725 202.028 151.087 196.037 153.26C195.461 153.469 195.712 154.358 196.295 154.147V154.154Z" fill="#8CC3DA"/>
<path d="M199.251 165.937C204.887 165.049 209.802 168.631 215.238 169.162C222.519 169.873 228.306 170.889 234.904 174.138C235.461 174.411 235.945 173.617 235.392 173.344C229.574 170.479 223.732 168.991 217.223 168.379C210.935 167.787 205.319 164.054 198.992 165.052C198.38 165.149 198.64 166.034 199.251 165.939V165.937Z" fill="#8CC3DA"/>
<path d="M199.429 174.68C204.519 174.986 207.699 178.524 211.723 180.832C215.236 182.847 217.329 183.209 220.612 186.185C224.661 189.853 229.703 191.968 234.661 194.486C235.218 194.764 235.699 193.972 235.149 193.692C231.002 191.586 226.31 189.795 222.872 186.721C221.16 185.192 220.286 183.715 218.451 182.42C216.742 181.214 214.109 181.055 212.213 180.04C210.588 179.17 209.264 177.878 207.756 176.867C204.956 174.995 202.85 173.967 199.439 173.763C198.816 173.726 198.818 174.645 199.439 174.691L199.429 174.68Z" fill="#8CC3DA"/>
<path d="M191.932 182.663C193.975 184.875 193.49 187.808 194.469 190.408C195.306 192.634 196.937 194.578 198.3 196.53C200.114 199.128 199.618 200.959 200.343 203.792C201.256 207.345 202.343 208.147 202.716 211.92C202.773 212.505 203.743 212.51 203.683 211.92C203.442 209.484 202.603 207.41 202.075 205.076C201.373 201.972 202.036 201.044 200.909 198.608C198.755 193.959 195.724 191.66 194.617 186.385C194.194 184.365 193.986 183.513 192.614 182.023C192.203 181.578 191.52 182.229 191.928 182.673L191.932 182.663Z" fill="#8CC3DA"/>
<path d="M180.744 182.595C181.395 184.181 179.925 185.409 179.03 186.567C178.426 187.348 178.045 188.107 178.008 189.083C177.986 189.675 178.953 189.673 178.976 189.083C179.07 186.55 182.825 185.151 181.676 182.352C181.451 181.806 180.515 182.044 180.747 182.597L180.744 182.595Z" fill="#8CC3DA"/>
<path d="M167.701 176.99C166.903 178.931 165.912 180.787 164.741 182.53C164.407 183.031 165.245 183.493 165.577 182.994C166.787 181.184 167.811 179.257 168.636 177.242C168.862 176.686 167.926 176.452 167.707 176.997L167.701 176.99Z" fill="#8CC3DA"/>
<path d="M152.578 171.208C152.435 173.973 151.504 176.639 149.894 178.891C149.549 179.385 150.387 179.845 150.73 179.355C152.425 176.962 153.401 174.136 153.545 171.208C153.577 170.616 152.617 170.618 152.578 171.208Z" fill="#8CC3DA"/>
<path d="M79.1653 171.277C80.3928 173.331 80.4429 175.136 80.909 177.357C81.2359 178.914 82.5358 179.769 83.5089 180.975C83.8803 181.441 84.7215 180.975 84.3445 180.511C83.9119 179.968 83.416 179.496 82.9425 178.986C81.949 177.914 81.884 176.817 81.7076 175.461C81.469 173.81 80.8911 172.226 80.0102 170.81C79.702 170.296 78.8663 170.758 79.1746 171.273L79.1653 171.277Z" fill="#8CC3DA"/>
<path d="M61.4889 174.233C63.1064 174.604 64.254 175.661 65.3886 176.754C66.5233 177.847 68.0665 178.999 68.7313 180.454C68.9801 180.994 69.8158 180.526 69.567 179.99C68.8 178.331 67.0674 177.045 65.7396 175.791C64.5753 174.691 63.3589 173.726 61.734 173.346C61.1286 173.205 60.8705 174.088 61.4759 174.233H61.4889Z" fill="#8CC3DA"/>
<path d="M168.726 208.833C171.545 211.321 169.235 216.273 169.408 219.498C169.594 222.86 169.159 225.991 169.794 229.361C169.904 229.942 170.836 229.697 170.723 229.116C169.941 224.967 170.019 218.477 170.864 214.312C171.347 211.926 171.361 209.913 169.406 208.189C168.951 207.787 168.264 208.436 168.721 208.839L168.726 208.833Z" fill="#6BAFC6"/>
<path d="M158.115 207.163C159.787 209.418 157.744 214.919 157.126 217.663C156.641 219.795 157.285 221.711 157.742 223.888C157.863 224.466 158.797 224.221 158.671 223.643C158.175 221.277 157.868 219.59 158.368 217.217C158.721 215.548 159.174 213.791 159.668 212.139C160.297 210.035 160.351 208.59 158.945 206.698C158.589 206.217 157.749 206.677 158.11 207.161L158.115 207.163Z" fill="#6BAFC6"/>
<path d="M143.305 203.56C145.926 206.236 144.708 208.549 145.443 211.574C145.651 212.427 145.955 212.648 146.321 213.429C147.25 215.435 147.458 217.179 147.421 219.333C147.411 219.924 148.379 219.924 148.388 219.333C148.412 217.88 148.464 216.364 148.046 214.939C147.465 212.963 146.425 211.405 146.338 209.28C146.232 206.683 145.933 204.887 143.991 202.903C143.565 202.469 142.876 203.121 143.305 203.553V203.56Z" fill="#6BAFC6"/>
<path d="M130.198 203.872C132.408 204.755 134.001 206.217 135.427 208.006C136.332 209.139 137.173 210.125 138.584 210.689C139.158 210.919 139.409 210.028 138.843 209.802C136.902 209.026 135.981 206.935 134.553 205.568C133.368 204.45 131.976 203.573 130.456 202.985C129.882 202.757 129.632 203.646 130.198 203.872Z" fill="#6BAFC6"/>
<path d="M131.701 222.273C134.009 224.787 134.366 230.094 134.9 233.066C135.413 235.918 136.919 238.244 137.719 241.026C137.883 241.595 138.817 241.354 138.648 240.781C138.091 238.831 136.964 237.15 136.33 235.235C135.647 233.168 136.111 231.083 135.446 229.027C134.659 226.596 134.189 223.594 132.38 221.624C131.97 221.177 131.289 221.83 131.695 222.273H131.701Z" fill="#6BAFC6"/>
<path d="M122.413 225.292C124.27 226.659 124.222 226.656 124.303 228.676C124.376 230.459 125.046 231.847 125.574 233.541C126.101 235.235 125.668 236.945 126.155 238.576C126.623 240.148 128.069 241.155 128.534 242.773C128.697 243.343 129.631 243.102 129.462 242.528C129 240.916 127.757 239.825 127.299 238.222C126.771 236.38 126.972 234.649 126.311 232.778C125.861 231.504 125.531 230.634 125.51 229.231C125.51 229.89 125.631 226.871 125.653 226.928C125.245 225.895 123.971 225.288 123.093 224.643C122.606 224.285 121.915 224.93 122.407 225.292H122.413Z" fill="#6BAFC6"/>
</g>
<defs>
<clipPath id="clip0_1730_9384">
<rect width="317" height="255" fill="white"/>
</clipPath>
</defs>
</svg>
