<svg width="19" height="21" viewBox="0 0 19 21" fill="none" xmlns="http://www.w3.org/2000/svg">
<path d="M17.9902 0.00195329C17.8589 0.00187836 17.7288 0.0276929 17.6075 0.0779211C17.4861 0.128149 17.3758 0.201806 17.283 0.294679C17.1901 0.387553 17.1164 0.497822 17.0662 0.619181C17.016 0.740541 16.9902 0.87061 16.9902 1.00195V1.63867C16.1468 2.68438 15.0809 3.52887 13.87 4.11067C12.6591 4.69248 11.3337 4.99696 9.99023 5.00195H3.99023C3.19485 5.00282 2.43229 5.31917 1.86987 5.88159C1.30745 6.44401 0.991103 7.20657 0.990234 8.00195V10.002C0.991103 10.7973 1.30745 11.5599 1.86987 12.1223C2.43229 12.6847 3.19485 13.0011 3.99023 13.002H4.47402L2.07129 18.6084C2.006 18.7604 1.97949 18.9263 1.99415 19.0911C2.0088 19.256 2.06417 19.4146 2.15527 19.5528C2.24637 19.6909 2.37035 19.8043 2.51609 19.8827C2.66182 19.9611 2.82475 20.0021 2.99023 20.002H6.99023C7.18599 20.0021 7.37746 19.9446 7.54084 19.8368C7.70422 19.729 7.83231 19.5755 7.90918 19.3955L10.6329 13.04C11.8636 13.1303 13.0626 13.472 14.1561 14.0439C15.2495 14.6158 16.2141 15.4058 16.9902 16.365V17.002C16.9902 17.2672 17.0956 17.5215 17.2831 17.7091C17.4707 17.8966 17.725 18.002 17.9902 18.002C18.2555 18.002 18.5098 17.8966 18.6973 17.7091C18.8849 17.5215 18.9902 17.2672 18.9902 17.002V1.00195C18.9903 0.87061 18.9645 0.74054 18.9143 0.61918C18.864 0.49782 18.7904 0.38755 18.6975 0.294676C18.6046 0.201803 18.4944 0.128146 18.373 0.0779185C18.2516 0.0276908 18.1216 0.00187705 17.9902 0.00195329ZM3.99023 11.002C3.72507 11.0018 3.47082 10.8964 3.28332 10.7089C3.09583 10.5214 2.99041 10.2671 2.99023 10.002V8.00195C2.99041 7.73679 3.09583 7.48254 3.28333 7.29505C3.47082 7.10755 3.72507 7.00213 3.99023 7.00195H4.99023V11.002H3.99023ZM6.33105 18.002H4.50683L6.64941 13.002H8.47363L6.33105 18.002ZM16.9902 13.5238C15.0185 11.8994 12.5449 11.0082 9.99023 11.0019H6.99023V7.0019H9.99023C12.545 6.99537 15.0185 6.10406 16.9902 4.47956V13.5238Z" fill="#898989"/>
</svg>
