<svg width="22" height="23" viewBox="0 0 22 23" fill="none" xmlns="http://www.w3.org/2000/svg">
<path d="M21 2.04944e-05H14C13.4275 -0.00232504 12.8724 0.196729 12.4318 0.562351C11.9912 0.927973 11.6932 1.43688 11.59 2.00002L10.67 7.05002C10.6064 7.40186 10.6209 7.76337 10.7125 8.10898C10.8041 8.45459 10.9705 8.77584 11.2 9.05002C11.4307 9.32433 11.7184 9.54513 12.0431 9.6971C12.3677 9.84906 12.7215 9.92854 13.08 9.93002H16L15.75 10.59C15.5654 11.0794 15.5013 11.606 15.5631 12.1254C15.6248 12.6447 15.8107 13.1416 16.1048 13.574C16.399 14.0065 16.7929 14.3618 17.2533 14.61C17.7137 14.8582 18.227 14.992 18.75 15C18.9441 15.0016 19.1344 14.9466 19.2977 14.8418C19.4611 14.7371 19.5904 14.587 19.67 14.41L21.91 9.35002C21.961 9.23979 21.9915 9.12118 22 9.00002V1.00002C22 0.734804 21.8946 0.48045 21.7071 0.292914C21.5196 0.105377 21.2652 2.04944e-05 21 2.04944e-05ZM20 8.73002L18.17 12.86C17.9914 12.7628 17.8375 12.626 17.72 12.46C17.6023 12.2934 17.5279 12.1002 17.5035 11.8977C17.479 11.6952 17.5053 11.4898 17.58 11.3L17.96 10.3C18.06 10.0407 18.094 9.76057 18.0591 9.48481C18.0242 9.20906 17.9214 8.94628 17.76 8.72002C17.601 8.49463 17.3896 8.3113 17.1439 8.18586C16.8983 8.06043 16.6258 7.99664 16.35 8.00002H13.06C12.9936 8.00021 12.9279 7.986 12.8675 7.95838C12.807 7.93076 12.7533 7.89038 12.71 7.84002C12.6324 7.73339 12.6 7.6004 12.62 7.47002L13.54 2.47002C13.5357 2.40804 13.5446 2.34586 13.566 2.28755C13.5875 2.22925 13.621 2.17615 13.6645 2.13175C13.7079 2.08735 13.7603 2.05266 13.8181 2.02995C13.876 2.00725 13.9379 1.99705 14 2.00002H20V8.73002ZM8.94 12.05H6.05L6.3 11.39C6.4819 10.8978 6.54228 10.3689 6.47602 9.84835C6.40975 9.32779 6.2188 8.83091 5.91938 8.39995C5.61996 7.96899 5.22094 7.61667 4.7562 7.37295C4.29147 7.12922 3.77476 7.00129 3.25 7.00002C3.05594 6.99849 2.86563 7.05345 2.70227 7.15822C2.53891 7.26298 2.40956 7.41301 2.33 7.59002L0.09 12.65C0.0326953 12.7757 0.00205131 12.9119 0 13.05V21.05C0 21.3152 0.105357 21.5696 0.292893 21.7571C0.48043 21.9447 0.734784 22.05 1 22.05H8C8.57252 22.0524 9.12764 21.8533 9.56821 21.4877C10.0088 21.1221 10.3068 20.6132 10.41 20.05L11.33 15.05C11.3936 14.6982 11.3791 14.3367 11.2875 13.9911C11.1959 13.6455 11.0295 13.3242 10.8 13.05C10.5832 12.7562 10.3039 12.5141 9.98226 12.3412C9.66064 12.1683 9.30467 12.0689 8.94 12.05ZM8.46 19.63C8.44283 19.7377 8.38626 19.8352 8.30126 19.9036C8.21626 19.972 8.1089 20.0063 8 20H2V13.27L3.83 9.14002C4.0086 9.2372 4.16255 9.37404 4.28 9.54002C4.39768 9.70661 4.47209 9.89984 4.49653 10.1023C4.52097 10.3048 4.49467 10.5102 4.42 10.7L4.04 11.7C3.94003 11.9594 3.90597 12.2395 3.94088 12.5152C3.97578 12.791 4.07856 13.0538 4.24 13.28C4.39675 13.5091 4.60721 13.6963 4.853 13.8253C5.09879 13.9543 5.37242 14.0212 5.65 14.02H8.94C9.00643 14.0198 9.07212 14.034 9.13254 14.0617C9.19296 14.0893 9.24667 14.1297 9.29 14.18C9.36763 14.2867 9.39998 14.4196 9.38 14.55L8.46 19.63Z" fill="#898989"/>
</svg>
