<svg width="25" height="28" viewBox="0 0 25 28" fill="none" xmlns="http://www.w3.org/2000/svg">
<path d="M8.01232 15.7198C7.88735 15.8438 7.78815 15.9913 7.72046 16.1537C7.65277 16.3162 7.61792 16.4905 7.61792 16.6665C7.61792 16.8425 7.65277 17.0168 7.72046 17.1793C7.78815 17.3418 7.88735 17.4892 8.01232 17.6132L12.0123 21.6132C12.1363 21.7381 12.2837 21.8373 12.4462 21.905C12.6087 21.9727 12.783 22.0076 12.959 22.0076C13.135 22.0076 13.3093 21.9727 13.4718 21.905C13.6342 21.8373 13.7817 21.7381 13.9057 21.6132L17.9057 17.6132C18.1567 17.3621 18.2978 17.0216 18.2978 16.6665C18.2978 16.3114 18.1567 15.9709 17.9057 15.7198C17.6546 15.4688 17.3141 15.3277 16.959 15.3277C16.6039 15.3277 16.2634 15.4688 16.0123 15.7198L14.2923 17.4532V1.99984C14.2923 1.64622 14.1518 1.30708 13.9018 1.05703C13.6517 0.80698 13.3126 0.666504 12.959 0.666504C12.6054 0.666504 12.2662 0.80698 12.0162 1.05703C11.7661 1.30708 11.6257 1.64622 11.6257 1.99984V17.4532L9.90565 15.7198C9.7817 15.5949 9.63423 15.4957 9.47175 15.428C9.30927 15.3603 9.135 15.3254 8.95898 15.3254C8.78297 15.3254 8.60869 15.3603 8.44622 15.428C8.28374 15.4957 8.13627 15.5949 8.01232 15.7198ZM20.959 9.99984H18.2923C17.9387 9.99984 17.5996 10.1403 17.3495 10.3904C17.0995 10.6404 16.959 10.9795 16.959 11.3332C16.959 11.6868 17.0995 12.0259 17.3495 12.276C17.5996 12.526 17.9387 12.6665 18.2923 12.6665H20.959C21.3126 12.6665 21.6517 12.807 21.9018 13.057C22.1518 13.3071 22.2923 13.6462 22.2923 13.9998V23.3332C22.2923 23.6868 22.1518 24.0259 21.9018 24.276C21.6517 24.526 21.3126 24.6665 20.959 24.6665H4.95898C4.60536 24.6665 4.26622 24.526 4.01618 24.276C3.76613 24.0259 3.62565 23.6868 3.62565 23.3332V13.9998C3.62565 13.6462 3.76613 13.3071 4.01618 13.057C4.26622 12.807 4.60536 12.6665 4.95898 12.6665H7.62565C7.97927 12.6665 8.31841 12.526 8.56846 12.276C8.81851 12.0259 8.95898 11.6868 8.95898 11.3332C8.95898 10.9795 8.81851 10.6404 8.56846 10.3904C8.31841 10.1403 7.97927 9.99984 7.62565 9.99984H4.95898C3.89812 9.99984 2.8807 10.4213 2.13056 11.1714C1.38041 11.9216 0.958984 12.939 0.958984 13.9998V23.3332C0.958984 24.394 1.38041 25.4115 2.13056 26.1616C2.8807 26.9117 3.89812 27.3332 4.95898 27.3332H20.959C22.0199 27.3332 23.0373 26.9117 23.7874 26.1616C24.5376 25.4115 24.959 24.394 24.959 23.3332V13.9998C24.959 12.939 24.5376 11.9216 23.7874 11.1714C23.0373 10.4213 22.0199 9.99984 20.959 9.99984Z" fill="#898989"/>
</svg>
