<svg width="12" height="8" viewBox="0 0 12 8" fill="none" xmlns="http://www.w3.org/2000/svg">
<path d="M10.9997 2.58993L6.7097 6.82993C6.61674 6.92366 6.50614 6.99806 6.38428 7.04883C6.26242 7.09959 6.13172 7.12573 5.9997 7.12573C5.86769 7.12573 5.73699 7.09959 5.61513 7.04883C5.49327 6.99806 5.38267 6.92366 5.2897 6.82993L1.0497 2.58993C0.955976 2.49697 0.881582 2.38637 0.830813 2.26451C0.780044 2.14265 0.753906 2.01195 0.753906 1.87993C0.753906 1.74792 0.780044 1.61722 0.830813 1.49536C0.881582 1.3735 0.955976 1.2629 1.0497 1.16993C1.23707 0.983683 1.49052 0.879142 1.7547 0.879142C2.01889 0.879142 2.27234 0.983683 2.4597 1.16993L5.9997 4.70993L9.5397 1.16993C9.72596 0.98519 9.97736 0.881039 10.2397 0.879934C10.3713 0.879173 10.5018 0.904398 10.6236 0.954163C10.7454 1.00393 10.8563 1.07725 10.9497 1.16993C11.0468 1.25955 11.1251 1.36752 11.1802 1.48759C11.2353 1.60767 11.2661 1.73747 11.2708 1.86951C11.2754 2.00154 11.2539 2.13319 11.2073 2.25685C11.1608 2.3805 11.0902 2.49371 10.9997 2.58993Z" fill="#898989"/>
</svg>
