<svg width="181" height="29" viewBox="0 0 181 29" fill="none" xmlns="http://www.w3.org/2000/svg">
<path d="M101.624 30.9995C101.56 30.9985 101.5 30.9741 101.454 30.931C101.408 30.8879 101.379 30.8293 101.375 30.7667L99.0283 2.25948L95.3555 22.4854C95.3471 22.5456 95.3171 22.6008 95.2708 22.6407C95.2246 22.6807 95.1654 22.7027 95.1041 22.7027C95.0428 22.7027 94.9836 22.6807 94.9374 22.6407C94.8912 22.6008 94.8611 22.5456 94.8527 22.4854L93.1768 13.3345L92.0467 15.7101C92.0266 15.7539 91.9942 15.791 91.9535 15.8171C91.9128 15.8432 91.8653 15.8572 91.8168 15.8574H78.8065L77.1641 21.6872C77.1426 21.7353 77.1065 21.7756 77.0608 21.8023C77.0151 21.829 76.962 21.8409 76.9092 21.8362C76.8563 21.8314 76.8063 21.8104 76.7661 21.776C76.726 21.7416 76.6977 21.6956 76.6852 21.6444L75.8089 13.5673L73.3572 30.781C73.35 30.8431 73.3193 30.9002 73.2713 30.9408C73.2233 30.9813 73.1616 31.0023 73.0986 30.9995C73.0354 30.9985 72.9747 30.9741 72.9287 30.931C72.8826 30.8879 72.8544 30.8293 72.8496 30.7667L70.5033 2.25948L66.8305 22.4854C66.8221 22.5456 66.792 22.6008 66.7458 22.6407C66.6996 22.6807 66.6404 22.7027 66.5791 22.7027C66.5178 22.7027 66.4586 22.6807 66.4124 22.6407C66.3662 22.6008 66.3361 22.5456 66.3277 22.4854L64.6517 13.3345L63.5217 15.7101C63.5015 15.7539 63.4692 15.791 63.4285 15.8171C63.3877 15.8432 63.3403 15.8572 63.2918 15.8574H50.2911L48.6486 21.6872C48.6272 21.7353 48.5911 21.7756 48.5453 21.8023C48.4996 21.829 48.4466 21.8409 48.3937 21.8362C48.3409 21.8314 48.2909 21.8104 48.2507 21.776C48.2105 21.7416 48.1822 21.6956 48.1698 21.6444L47.2935 13.5673L44.8418 30.781C44.8357 30.8436 44.8053 30.9014 44.7571 30.9422C44.7088 30.9829 44.6465 31.0035 44.5832 30.9995C44.5199 30.9985 44.4593 30.9741 44.4132 30.931C44.3672 30.8879 44.339 30.8293 44.3342 30.7667L41.9878 2.25948L38.3103 22.4806C38.3019 22.5408 38.2718 22.596 38.2256 22.636C38.1794 22.6759 38.1202 22.6979 38.0589 22.6979C37.9976 22.6979 37.9384 22.6759 37.8922 22.636C37.846 22.596 37.8159 22.5408 37.8075 22.4806L36.1315 13.3298L35.0014 15.7054C34.9813 15.7492 34.949 15.7863 34.9082 15.8124C34.8675 15.8385 34.8201 15.8525 34.7716 15.8527H21.7709L20.1284 21.6919C20.112 21.7487 20.0764 21.7981 20.0276 21.8319C19.9787 21.8657 19.9196 21.8817 19.8602 21.8772C19.8002 21.8729 19.7437 21.8477 19.7007 21.8059C19.6578 21.7641 19.6311 21.7086 19.6256 21.6491L18.7493 13.5721L16.3263 30.781C16.3191 30.8431 16.2884 30.9002 16.2404 30.9408C16.1925 30.9813 16.1307 31.0023 16.0678 30.9995C16.0045 30.9985 15.9439 30.9741 15.8978 30.931C15.8517 30.8879 15.8235 30.8293 15.8188 30.7667L13.4724 2.25948L9.79485 22.4806C9.78645 22.5408 9.75637 22.596 9.71016 22.636C9.66395 22.6759 9.60474 22.6979 9.54345 22.6979C9.48217 22.6979 9.42295 22.6759 9.37675 22.636C9.33054 22.596 9.30046 22.5408 9.29206 22.4806L7.61609 13.3298L6.486 15.7054C6.46588 15.7492 6.43353 15.7863 6.3928 15.8124C6.35207 15.8385 6.30465 15.8525 6.25616 15.8527H0.256184C0.18824 15.8527 0.123079 15.8259 0.0750347 15.7782C0.0269909 15.7306 0 15.6659 0 15.5985C0 15.5311 0.0269909 15.4664 0.0750347 15.4187C0.123079 15.3711 0.18824 15.3443 0.256184 15.3443H6.09335L7.49638 12.389C7.51934 12.341 7.55708 12.3013 7.60416 12.2758C7.65124 12.2503 7.70525 12.2403 7.75844 12.2472C7.81162 12.254 7.86125 12.2774 7.9002 12.314C7.93915 12.3506 7.96541 12.3985 7.97522 12.4508L9.54106 21.003L13.3288 0.25447C13.3392 0.193666 13.3718 0.13879 13.4204 0.100255C13.4689 0.0617206 13.53 0.0422071 13.5921 0.0454164C13.6546 0.0475822 13.714 0.0725343 13.7591 0.115493C13.8041 0.158451 13.8317 0.216395 13.8363 0.278225L16.154 28.4386L18.5482 11.4578C18.5565 11.3961 18.5875 11.3396 18.6352 11.2993C18.683 11.2589 18.7441 11.2375 18.8068 11.2393C18.8693 11.2401 18.9293 11.2639 18.9753 11.306C19.0212 11.3481 19.0499 11.4055 19.0558 11.4673L20.0135 20.2855L21.3495 15.5343C21.3641 15.4812 21.396 15.4343 21.4401 15.4008C21.4842 15.3674 21.5381 15.3492 21.5937 15.349H34.6088L36.0118 12.3938C36.0348 12.3457 36.0725 12.3061 36.1196 12.2806C36.1667 12.2551 36.2207 12.2451 36.2739 12.2519C36.3271 12.2588 36.3767 12.2822 36.4156 12.3188C36.4546 12.3554 36.4809 12.4032 36.4907 12.4556L38.0565 21.0077L41.825 0.249718C41.8282 0.182933 41.858 0.120134 41.9078 0.0751377C41.9577 0.030141 42.0235 0.00663174 42.0908 0.00978198C42.1581 0.0129322 42.2214 0.0424845 42.2667 0.0919363C42.3121 0.141388 42.3358 0.206689 42.3326 0.273474L44.6502 28.4339L47.0445 11.4531C47.0517 11.3909 47.0824 11.3338 47.1304 11.2932C47.1784 11.2527 47.2401 11.2317 47.3031 11.2345C47.3656 11.2354 47.4256 11.2592 47.4715 11.3013C47.5175 11.3433 47.5462 11.4008 47.5521 11.4626L48.5098 20.2808L49.8458 15.5296C49.8604 15.4764 49.8923 15.4295 49.9364 15.3961C49.9805 15.3626 50.0344 15.3444 50.09 15.3443H63.129L64.532 12.389C64.555 12.341 64.5927 12.3013 64.6398 12.2758C64.6869 12.2503 64.7409 12.2403 64.7941 12.2472C64.8473 12.254 64.8969 12.2774 64.9359 12.314C64.9748 12.3506 65.0011 12.3985 65.0109 12.4508L66.5767 21.003L70.3453 0.244967C70.3557 0.184163 70.3883 0.129288 70.4369 0.0907537C70.4854 0.0522189 70.5465 0.0327044 70.6086 0.0359138C70.6711 0.0380796 70.7305 0.0630317 70.7756 0.10599C70.8207 0.148948 70.8482 0.206892 70.8529 0.268723L73.1848 28.4386L75.5791 11.4578C75.5791 11.391 75.6058 11.327 75.6534 11.2797C75.701 11.2325 75.7656 11.206 75.8329 11.206C75.9002 11.206 75.9647 11.2325 76.0123 11.2797C76.0599 11.327 76.0867 11.391 76.0867 11.4578L77.0444 20.276L78.3803 15.5248C78.395 15.4717 78.4268 15.4248 78.471 15.3913C78.5151 15.3579 78.569 15.3397 78.6246 15.3395H91.654L93.0523 12.3843C93.0752 12.3362 93.113 12.2966 93.1601 12.2711C93.2071 12.2456 93.2611 12.2356 93.3143 12.2424C93.3675 12.2493 93.4172 12.2727 93.4561 12.3093C93.495 12.3459 93.5213 12.3937 93.5311 12.4461L95.097 20.9982L98.8655 0.240216C98.8687 0.173431 98.8985 0.110633 98.9483 0.065636C98.9981 0.0206393 99.0639 -0.00286998 99.1313 0.000280265C99.1986 0.00343051 99.2619 0.0329819 99.3072 0.0824337C99.3526 0.131885 99.3763 0.197187 99.3731 0.263972L101.691 28.4244L104.085 11.4436C104.093 11.3819 104.124 11.3254 104.172 11.285C104.22 11.2447 104.281 11.2233 104.344 11.225C104.406 11.2259 104.466 11.2497 104.512 11.2918C104.558 11.3338 104.587 11.3913 104.593 11.4531L105.55 20.2713L106.886 15.5201C106.901 15.4669 106.933 15.42 106.977 15.3866C107.021 15.3531 107.075 15.3349 107.13 15.3348H180.744C180.812 15.3348 180.877 15.3616 180.925 15.4092C180.973 15.4569 181 15.5216 181 15.589C181 15.6564 180.973 15.7211 180.925 15.7687C180.877 15.8164 180.812 15.8432 180.744 15.8432H107.322L105.68 21.6729C105.658 21.7211 105.622 21.7613 105.576 21.7881C105.53 21.8148 105.477 21.8266 105.425 21.8219C105.372 21.8172 105.322 21.7962 105.282 21.7618C105.241 21.7274 105.213 21.6813 105.201 21.6301L104.324 13.5531L101.877 30.781C101.869 30.8418 101.839 30.8976 101.792 30.9379C101.745 30.9781 101.686 31.0001 101.624 30.9995Z" fill="#D5F3EE"/>
</svg>
