<svg width="20" height="22" viewBox="0 0 20 22" fill="none" xmlns="http://www.w3.org/2000/svg">
<path d="M13.7105 11.7099C14.6909 10.9385 15.4065 9.8808 15.7577 8.68382C16.109 7.48684 16.0784 6.21015 15.6703 5.03135C15.2621 3.85255 14.4967 2.83027 13.4806 2.10674C12.4644 1.3832 11.2479 0.994385 10.0005 0.994385C8.75303 0.994385 7.5366 1.3832 6.52041 2.10674C5.50423 2.83027 4.73883 3.85255 4.3307 5.03135C3.92257 6.21015 3.892 7.48684 4.24325 8.68382C4.59449 9.8808 5.31009 10.9385 6.29048 11.7099C4.61056 12.3829 3.14477 13.4992 2.04938 14.9398C0.953983 16.3804 0.270048 18.0912 0.070485 19.8899C0.0560396 20.0212 0.0676015 20.1541 0.10451 20.2809C0.141419 20.4078 0.202952 20.5261 0.285596 20.6292C0.452504 20.8374 0.695269 20.9707 0.960485 20.9999C1.2257 21.0291 1.49164 20.9517 1.69981 20.7848C1.90798 20.6179 2.04131 20.3751 2.07049 20.1099C2.29007 18.1551 3.22217 16.3497 4.6887 15.0387C6.15524 13.7277 8.05338 13.0029 10.0205 13.0029C11.9876 13.0029 13.8857 13.7277 15.3523 15.0387C16.8188 16.3497 17.7509 18.1551 17.9705 20.1099C17.9977 20.3556 18.1149 20.5825 18.2996 20.7469C18.4843 20.9113 18.7233 21.0014 18.9705 20.9999H19.0805C19.3426 20.9697 19.5822 20.8372 19.747 20.6311C19.9119 20.4251 19.9886 20.1622 19.9605 19.8999C19.76 18.0961 19.0724 16.3809 17.9713 14.9381C16.8703 13.4953 15.3974 12.3794 13.7105 11.7099ZM10.0005 10.9999C9.20936 10.9999 8.436 10.7653 7.7782 10.3258C7.12041 9.88623 6.60772 9.26152 6.30497 8.53061C6.00222 7.79971 5.923 6.99544 6.07734 6.21952C6.23168 5.4436 6.61265 4.73086 7.17206 4.17145C7.73147 3.61204 8.4442 3.23108 9.22012 3.07674C9.99605 2.9224 10.8003 3.00161 11.5312 3.30436C12.2621 3.60711 12.8868 4.1198 13.3264 4.7776C13.7659 5.4354 14.0005 6.20876 14.0005 6.99988C14.0005 8.06075 13.5791 9.07816 12.8289 9.82831C12.0788 10.5785 11.0614 10.9999 10.0005 10.9999Z" fill="#898989"/>
</svg>

