<svg width="24" height="28" viewBox="0 0 24 28" fill="none" xmlns="http://www.w3.org/2000/svg">
<path d="M11.9998 11.3334C11.6462 11.3334 11.3071 11.4739 11.057 11.724C10.807 11.974 10.6665 12.3132 10.6665 12.6668V15.3334C10.6665 15.6871 10.807 16.0262 11.057 16.2763C11.3071 16.5263 11.6462 16.6668 11.9998 16.6668C12.3535 16.6668 12.6926 16.5263 12.9426 16.2763C13.1927 16.0262 13.3332 15.6871 13.3332 15.3334V12.6668C13.3332 12.3132 13.1927 11.974 12.9426 11.724C12.6926 11.4739 12.3535 11.3334 11.9998 11.3334ZM23.2798 10.9068C23.1031 8.95292 22.4221 7.07842 21.3036 5.46665C20.1851 3.85489 18.6674 2.56107 16.8989 1.71177C15.1304 0.862473 13.1718 0.486787 11.2146 0.621467C9.25738 0.756147 7.36865 1.39658 5.73317 2.48011C4.3321 3.41697 3.15591 4.65251 2.2891 6.09796C1.42229 7.54342 0.886368 9.16292 0.719841 10.8401C0.556485 12.5063 0.766073 14.188 1.3334 15.7631C1.90073 17.3383 2.81157 18.7674 3.99984 19.9468L11.0665 27.0268C11.1905 27.1517 11.3379 27.2509 11.5004 27.3186C11.6629 27.3863 11.8372 27.4212 12.0132 27.4212C12.1892 27.4212 12.3635 27.3863 12.5259 27.3186C12.6884 27.2509 12.8359 27.1517 12.9598 27.0268L19.9998 19.9468C21.1881 18.7674 22.099 17.3383 22.6663 15.7631C23.2336 14.188 23.4432 12.5063 23.2798 10.8401V10.9068ZM18.1332 18.0668L11.9998 24.2001L5.86651 18.0668C4.96263 17.1628 4.27024 16.0699 3.83913 14.8665C3.40802 13.663 3.24889 12.379 3.37317 11.1068C3.49827 9.81491 3.90886 8.56699 4.57527 7.45323C5.24168 6.33948 6.14725 5.38772 7.22651 4.66678C8.6411 3.72709 10.3016 3.22584 11.9998 3.22584C13.6981 3.22584 15.3586 3.72709 16.7732 4.66678C17.8492 5.38493 18.7527 6.33248 19.419 7.44136C20.0852 8.55024 20.4976 9.79291 20.6265 11.0801C20.7548 12.3567 20.5977 13.6458 20.1665 14.8542C19.7353 16.0625 19.0407 17.1599 18.1332 18.0668ZM13.2265 8.09344C13.1999 8.01153 13.1593 7.93485 13.1065 7.86678L12.9465 7.66678C12.7873 7.51563 12.5933 7.40613 12.3816 7.34798C12.17 7.28983 11.9472 7.28484 11.7332 7.33344H11.4932L11.2532 7.45344L11.0532 7.62678L10.8932 7.82678C10.8404 7.89485 10.7998 7.97153 10.7732 8.05344C10.7326 8.13284 10.7055 8.21846 10.6932 8.30678C10.6711 8.42543 10.6621 8.54616 10.6665 8.66678C10.6619 8.84598 10.6984 9.02387 10.7732 9.18678C10.8411 9.34414 10.9358 9.48851 11.0532 9.61344C11.1801 9.73803 11.3294 9.83755 11.4932 9.90678C11.8196 10.0308 12.1801 10.0308 12.5065 9.90678C12.6685 9.8343 12.8173 9.73515 12.9465 9.61344C13.0638 9.48851 13.1586 9.34414 13.2265 9.18678C13.2966 9.02235 13.3328 8.84551 13.3332 8.66678C13.3397 8.58246 13.3397 8.49776 13.3332 8.41344C13.3208 8.30041 13.2844 8.19132 13.2265 8.09344Z" fill="#898989"/>
</svg>
