<svg width="192" height="47" viewBox="0 0 192 47" fill="none" xmlns="http://www.w3.org/2000/svg">
<path d="M23.112 46.64C21.6613 43.0987 20.2107 39.5787 18.76 36.08C17.352 32.5813 15.9227 29.0827 14.472 25.584C14.1307 24.7733 13.6827 23.6427 13.128 22.192C12.616 20.6987 12.0613 18.992 11.464 17.072C10.9093 15.152 10.3973 13.168 9.928 11.12C10.0133 13.5093 10.0773 15.7707 10.12 17.904C10.1627 19.9947 10.1627 22 10.12 23.92C10.12 24.8587 10.12 25.8187 10.12 26.8C10.12 27.7813 10.0987 28.7627 10.056 29.744C10.056 30.6827 10.056 31.6427 10.056 32.624C10.056 33.5627 10.056 34.5227 10.056 35.504C10.056 36.656 10.0133 37.7653 9.928 38.832C9.88533 39.8987 9.82133 40.7093 9.736 41.264C10.4613 41.1787 11.336 41.136 12.36 41.136C13.4267 41.0933 14.1733 41.072 14.6 41.072V46H0.00800014V41.776C0.989333 41.7333 1.8 41.6053 2.44 41.392C3.12267 41.1787 3.63467 40.688 3.976 39.92C4.36 39.152 4.552 37.9147 4.552 36.208L4.936 11.696C4.97867 10.544 5.02133 9.43467 5.064 8.368C5.10667 7.30133 5.14933 6.49066 5.192 5.936C4.50933 5.97867 3.656 6.02133 2.632 6.064C1.608 6.064 0.861334 6.08533 0.392 6.128V1.2H14.536L24.2 25.968C24.584 26.9493 25.0107 28.1013 25.48 29.424C25.9493 30.704 26.3973 31.9627 26.824 33.2C27.2507 34.3947 27.5707 35.3547 27.784 36.08H27.848C28.4027 34.5867 28.9147 33.136 29.384 31.728C29.8533 30.32 30.344 28.9547 30.856 27.632C32.52 23.1947 34.1627 18.7787 35.784 14.384C37.448 9.98933 39.112 5.59467 40.776 1.2H55.56V5.424C54.6213 5.46667 53.7893 5.59467 53.064 5.808C52.3387 6.02133 51.784 6.512 51.4 7.28C51.0587 8.00533 50.9093 9.24267 50.952 10.992L51.912 35.504C51.9973 36.656 51.9973 37.7653 51.912 38.832C51.8267 39.8987 51.7413 40.7093 51.656 41.264C52.3813 41.1787 53.256 41.136 54.28 41.136C55.3467 41.0933 56.0933 41.072 56.52 41.072V46H38.728V41.776C39.7093 41.7333 40.5413 41.6053 41.224 41.392C41.9493 41.1787 42.4827 40.688 42.824 39.92C43.208 39.152 43.3573 37.9147 43.272 36.208L42.76 22.64C42.76 22.128 42.7173 21.2533 42.632 20.016C42.5467 18.736 42.4613 17.3493 42.376 15.856C42.3333 14.32 42.2907 12.8907 42.248 11.568C42.12 11.8667 41.992 12.1653 41.864 12.464C41.736 12.72 41.6293 12.9973 41.544 13.296L29.064 46.64H23.112ZM94.6615 15.536C94.1068 11.9947 92.9122 9.328 91.0775 7.536C89.2855 5.744 86.8962 4.82667 83.9095 4.784C81.6908 4.784 79.7495 5.296 78.0855 6.32C76.4215 7.344 75.0348 8.70933 73.9255 10.416C72.8588 12.1227 72.0482 14.064 71.4935 16.24C70.9815 18.416 70.7255 20.656 70.7255 22.96C70.7255 26.6293 71.2375 29.8933 72.2615 32.752C73.3282 35.568 74.8642 37.7867 76.8695 39.408C78.8748 41.0293 81.3068 41.84 84.1655 41.84C86.8535 41.84 89.5202 41.1573 92.1655 39.792C94.8108 38.384 97.0295 36.4427 98.8215 33.968L101.894 36.784C99.8028 39.6427 97.6055 41.8187 95.3015 43.312C92.9975 44.7627 90.7362 45.744 88.5175 46.256C86.3415 46.768 84.3788 47.024 82.6295 47.024C79.3442 47.024 76.3575 46.448 73.6695 45.296C70.9815 44.1013 68.6562 42.48 66.6935 40.432C64.7735 38.3413 63.2802 35.9307 62.2135 33.2C61.1895 30.4267 60.6775 27.44 60.6775 24.24C60.6775 21.3387 61.1468 18.4587 62.0855 15.6C63.0242 12.7413 64.4108 10.16 66.2455 7.856C68.1228 5.50933 70.4695 3.65333 73.2855 2.288C76.1015 0.879999 79.3655 0.175999 83.0775 0.175999C84.7415 0.175999 86.5548 0.453332 88.5175 1.008C90.5228 1.52 92.4002 2.288 94.1495 3.312L93.8935 0.623997H98.8215V15.536H94.6615ZM102.319 46V41.584C103.513 41.584 104.473 41.2427 105.199 40.56C105.924 39.8773 106.521 38.9813 106.991 37.872C107.503 36.7627 107.993 35.568 108.463 34.288L120.943 0.0479965H125.423L139.055 34.928C139.311 35.568 139.652 36.5493 140.079 37.872C140.505 39.152 140.761 40.2827 140.847 41.264C141.572 41.1787 142.255 41.136 142.895 41.136C143.577 41.0933 144.132 41.072 144.559 41.072V46H127.343V41.776C128.537 41.776 129.348 41.5413 129.775 41.072C130.244 40.56 130.457 39.8773 130.415 39.024C130.372 38.1707 130.137 37.2107 129.711 36.144L128.431 32.624L114.543 32.88L113.519 35.888C113.305 36.4427 112.985 37.2747 112.559 38.384C112.175 39.4507 111.812 40.3467 111.47 41.072C112.153 40.9867 112.964 40.944 113.903 40.944C114.884 40.9013 115.588 40.88 116.015 40.88V46H102.319ZM116.143 28.08H126.831L123.887 20.08C123.332 18.544 122.841 17.008 122.415 15.472C121.988 13.8933 121.668 12.5067 121.455 11.312H121.391C121.22 12.0373 120.964 13.1253 120.623 14.576C120.281 16.0267 119.748 17.7547 119.023 19.76L116.143 28.08ZM148.013 41.776C148.994 41.7333 149.805 41.6053 150.445 41.392C151.127 41.1787 151.639 40.688 151.981 39.92C152.365 39.152 152.557 37.9147 152.557 36.208V11.696C152.557 10.544 152.578 9.43467 152.621 8.368C152.706 7.30133 152.77 6.49066 152.812 5.936C152.13 5.97867 151.277 6.02133 150.253 6.064C149.229 6.064 148.482 6.08533 148.013 6.128V1.2L166.637 1.136C170.861 1.136 174.509 1.776 177.581 3.056C180.695 4.29333 183.234 5.97867 185.197 8.112C187.202 10.2453 188.695 12.6347 189.677 15.28C190.658 17.8827 191.149 20.5067 191.149 23.152C191.149 25.7547 190.679 28.4 189.741 31.088C188.845 33.776 187.415 36.2507 185.453 38.512C183.49 40.7307 180.93 42.544 177.773 43.952C174.615 45.3173 170.797 46 166.317 46H148.013V41.776ZM161.837 35.504C161.837 36.656 161.815 37.7653 161.773 38.832C161.73 39.8987 161.666 40.7093 161.581 41.264C162.007 41.2213 162.583 41.2213 163.309 41.264C164.077 41.264 164.866 41.2853 165.677 41.328C166.487 41.328 167.149 41.328 167.661 41.328C170.007 41.328 172.013 40.8587 173.677 39.92C175.383 38.9813 176.77 37.7227 177.837 36.144C178.946 34.5227 179.757 32.7093 180.269 30.704C180.781 28.6987 181.037 26.6293 181.037 24.496C181.037 20.144 180.439 16.5813 179.245 13.808C178.05 11.0347 176.365 8.96533 174.189 7.6C172.055 6.23466 169.495 5.50933 166.509 5.424C165.485 5.38133 164.61 5.488 163.885 5.744C163.202 5.95733 162.69 6.448 162.349 7.216C162.007 7.984 161.837 9.2 161.837 10.864V35.504Z" fill="#18AD91"/>
</svg>
