<svg width="19" height="19" viewBox="0 0 19 19" fill="none" xmlns="http://www.w3.org/2000/svg">
<path d="M17.5002 1.49996C16.54 0.540009 15.2379 0.000732422 13.8802 0.000732422C12.5225 0.000732422 11.2203 0.540009 10.2602 1.49996L2.50018 9.25996C2.01333 9.73278 1.62534 10.2977 1.35877 10.9218C1.09219 11.5459 0.952362 12.2168 0.947402 12.8955C0.942443 13.5741 1.07245 14.247 1.32987 14.8749C1.5873 15.5029 1.96699 16.0734 2.44688 16.5533C2.92677 17.0331 3.49727 17.4128 4.12522 17.6703C4.75317 17.9277 5.42604 18.0577 6.10468 18.0527C6.78333 18.0478 7.45422 17.9079 8.07834 17.6414C8.70246 17.3748 9.26736 16.9868 9.74018 16.5L17.5002 8.73996C18.4601 7.7798 18.9994 6.47768 18.9994 5.11996C18.9994 3.76224 18.4601 2.46011 17.5002 1.49996ZM8.32018 15.09C7.72421 15.6533 6.93524 15.9671 6.11518 15.9671C5.29512 15.9671 4.50615 15.6533 3.91018 15.09C3.32822 14.5037 3.00164 13.7111 3.00164 12.885C3.00164 12.0589 3.32822 11.2663 3.91018 10.68L7.09018 7.49996L11.5002 11.91L8.32018 15.09ZM16.0902 7.31996L12.9102 10.5L8.50018 6.08996L11.6802 2.90996C12.2712 2.35628 13.0544 2.05411 13.8641 2.06731C14.6739 2.08052 15.4468 2.40807 16.0194 2.98072C16.5921 3.55338 16.9196 4.32627 16.9328 5.13602C16.946 5.94577 16.6439 6.72893 16.0902 7.31996Z" fill="#898989"/>
</svg>
