<svg width="33" height="32" viewBox="0 0 33 32" fill="none" xmlns="http://www.w3.org/2000/svg">
<path d="M32.9388 12.6074C32.9129 10.1603 30.8355 8.11275 28.3892 8.07021C28.0684 8.06466 27.7476 8.07021 27.3871 8.07021V4.83886C27.3871 2.35477 25.821 0.492164 23.3719 0.0537954C23.3337 0.0418185 23.2974 0.0247068 23.2638 0.00292969H10.6433C10.4436 0.0510208 10.2439 0.0954127 10.0452 0.147203C9.04594 0.405318 8.15948 0.985352 7.52267 1.79772C6.88587 2.61009 6.53416 3.6096 6.52185 4.64187C6.51353 5.65918 6.52185 6.67649 6.52185 7.69935V8.03969C5.99766 8.06559 5.49842 8.05541 5.00936 8.12015C4.01249 8.25211 3.08511 8.70332 2.36587 9.4063C1.64663 10.1093 1.17419 11.0263 1.01918 12.0202C1.00506 12.0786 0.985558 12.1355 0.960938 12.1903V20.8153C1.01179 21.0252 1.05894 21.2351 1.11441 21.4442C1.37986 22.4442 1.96762 23.3288 2.78662 23.9608C3.60562 24.5929 4.61013 24.937 5.6445 24.94C5.92185 24.94 6.1992 24.94 6.52648 24.94V25.2877C6.52648 26.5483 6.52648 27.8079 6.52648 29.0684C6.52648 30.7896 7.73481 32.0011 9.45347 32.0011C14.4612 32.0011 19.469 32.0011 24.4767 32.0011C26.1769 32.0011 27.3871 30.7886 27.3926 29.0897C27.3926 27.8292 27.3926 26.5686 27.3926 25.309V24.9678C27.9251 24.94 28.4355 24.9456 28.9366 24.8808C31.1674 24.5923 32.9249 22.6363 32.9452 20.3852C32.9656 17.7895 32.9634 15.1969 32.9388 12.6074ZM8.39491 4.7806C8.40045 3.09926 9.60971 1.87941 11.2849 1.87941C15.0625 1.87571 18.8397 1.87571 22.6166 1.87941C24.2937 1.87941 25.5048 3.09833 25.5112 4.77875C25.5112 5.85987 25.5112 6.94099 25.5112 8.05541H8.40785C8.40138 7.96293 8.39029 7.87045 8.39029 7.77796C8.39306 6.781 8.39121 5.77941 8.39491 4.7806ZM25.5122 20.289C25.5122 23.1936 25.5122 26.0985 25.5122 29.0037C25.5122 29.7732 25.159 30.1246 24.3843 30.1246H9.52188C8.74715 30.1246 8.39398 29.7732 8.39398 29.0037V19.9478H25.5122V20.289ZM31.0694 20.2474C31.062 21.8289 29.8306 23.0423 28.2459 23.0617C27.976 23.0617 27.706 23.0617 27.3871 23.0617V19.9367C27.5877 19.9367 27.7717 19.9432 27.9547 19.9367C28.1979 19.9279 28.4282 19.8248 28.5967 19.6492C28.7652 19.4736 28.8588 19.2392 28.8576 18.9958C28.8564 18.7524 28.7605 18.519 28.5902 18.345C28.42 18.1711 28.1887 18.0703 27.9455 18.0639C27.8724 18.0639 27.7994 18.0639 27.7264 18.0639H6.18163C6.04662 18.0572 5.91128 18.064 5.77762 18.0843C5.5531 18.1288 5.35277 18.2544 5.21469 18.437C5.07662 18.6197 5.01042 18.8467 5.02867 19.0749C5.04693 19.3032 5.14836 19.5168 5.31371 19.6752C5.47905 19.8335 5.69679 19.9256 5.92555 19.9339C6.11045 19.9441 6.29535 19.9339 6.50984 19.9339V23.0247C4.99457 23.2735 3.67252 22.676 3.12244 21.4469C2.95024 21.0689 2.85592 20.66 2.84509 20.2447C2.82105 17.7476 2.82475 15.2506 2.83584 12.7471C2.83315 12.3786 2.90355 12.0132 3.04297 11.6721C3.18238 11.331 3.38805 11.021 3.64806 10.7599C3.90807 10.4989 4.21726 10.292 4.55772 10.1513C4.89819 10.0106 5.26318 9.93886 5.63155 9.94022C13.1792 9.93158 20.7266 9.93158 28.2737 9.94022C28.6422 9.93861 29.0073 10.0102 29.3479 10.1509C29.6885 10.2916 29.9977 10.4985 30.2577 10.7598C30.5177 11.021 30.7233 11.3312 30.8625 11.6725C31.0016 12.0138 31.0717 12.3794 31.0685 12.748C31.0814 15.2481 31.0817 17.7479 31.0694 20.2474Z" fill="#898989"/>
</svg>
