<svg width="32" height="32" viewBox="0 0 32 32" fill="none" xmlns="http://www.w3.org/2000/svg">
<path d="M25.569 19.2207C24.6253 19.2269 23.6946 19.4421 22.8439 19.8509C21.9932 20.2597 21.2436 20.8519 20.649 21.5848L12.5022 17.8309C12.8852 16.658 12.8852 15.3937 12.5022 14.2207L20.649 10.4668C21.61 11.6265 22.9498 12.4094 24.4319 12.6774C25.914 12.9454 27.4431 12.6812 28.7494 11.9315C30.0557 11.1818 31.0552 9.99475 31.5714 8.57986C32.0877 7.16497 32.0875 5.6132 31.571 4.19841C31.0545 2.78361 30.0548 1.59675 28.7484 0.847285C27.442 0.0978169 25.9128 -0.166076 24.4308 0.102178C22.9487 0.370433 21.6091 1.15359 20.6483 2.31344C19.6874 3.47328 19.1672 4.93525 19.1794 6.44133C19.1842 6.82188 19.2216 7.20133 19.2912 7.5755L10.8568 11.4572C9.95762 10.578 8.81893 9.98363 7.58342 9.74866C6.34792 9.5137 5.07055 9.64857 3.91135 10.1364C2.75216 10.6242 1.76269 11.4432 1.06691 12.4908C0.371137 13.5385 0 14.7682 0 16.0258C0 17.2835 0.371137 18.5132 1.06691 19.5608C1.76269 20.6085 2.75216 21.4275 3.91135 21.9153C5.07055 22.4031 6.34792 22.538 7.58342 22.303C8.81893 22.068 9.95762 21.4737 10.8568 20.5944L19.2912 24.4762C19.2216 24.8503 19.1842 25.2298 19.1794 25.6103C19.1794 26.8741 19.5541 28.1095 20.2562 29.1602C20.9583 30.211 21.9563 31.03 23.1238 31.5136C24.2914 31.9972 25.5761 32.1238 26.8156 31.8772C28.0551 31.6307 29.1936 31.0221 30.0872 30.1285C30.9808 29.2349 31.5894 28.0964 31.8359 26.8569C32.0825 25.6174 31.9559 24.3327 31.4723 23.1651C30.9887 21.9976 30.1697 20.9996 29.119 20.2975C28.0682 19.5954 26.8328 19.2207 25.569 19.2207ZM25.569 3.2465C26.2009 3.2465 26.8186 3.43387 27.344 3.78492C27.8694 4.13598 28.2789 4.63494 28.5207 5.21872C28.7625 5.8025 28.8258 6.44487 28.7025 7.06461C28.5792 7.68435 28.2749 8.25361 27.8281 8.70042C27.3813 9.14722 26.8121 9.4515 26.1923 9.57477C25.5726 9.69805 24.9302 9.63478 24.3464 9.39297C23.7627 9.15116 23.2637 8.74167 22.9126 8.21628C22.5616 7.6909 22.3742 7.07321 22.3742 6.44133C22.3742 5.59401 22.7108 4.78139 23.31 4.18224C23.9091 3.58309 24.7217 3.2465 25.569 3.2465ZM6.40005 19.2207C5.76817 19.2207 5.15048 19.0333 4.62509 18.6822C4.09971 18.3312 3.69021 17.8322 3.44841 17.2484C3.2066 16.6647 3.14333 16.0223 3.2666 15.4025C3.38987 14.7828 3.69415 14.2135 4.14096 13.7667C4.58776 13.3199 5.15703 13.0157 5.77677 12.8924C6.3965 12.7691 7.03888 12.8324 7.62266 13.0742C8.20644 13.316 8.7054 13.7255 9.05645 14.2509C9.40751 14.7763 9.59488 15.394 9.59488 16.0258C9.59488 16.8732 9.25828 17.6858 8.65914 18.2849C8.05999 18.8841 7.24737 19.2207 6.40005 19.2207ZM25.569 28.8052C24.9372 28.8052 24.3195 28.6178 23.7941 28.2667C23.2687 27.9157 22.8592 27.4167 22.6174 26.8329C22.3756 26.2492 22.3123 25.6068 22.4356 24.987C22.5589 24.3673 22.8632 23.798 23.31 23.3512C23.7568 22.9044 24.326 22.6002 24.9458 22.4769C25.5655 22.3536 26.2079 22.4169 26.7917 22.6587C27.3754 22.9005 27.8744 23.31 28.2255 23.8354C28.5765 24.3608 28.7639 24.9785 28.7639 25.6103C28.7639 26.4577 28.4273 27.2703 27.8281 27.8694C27.229 28.4686 26.4164 28.8052 25.569 28.8052Z" fill="#898989"/>
</svg>
