<svg width="48" height="38" viewBox="0 0 48 38" fill="none" xmlns="http://www.w3.org/2000/svg">
<path d="M44.9994 15.2899H39.166C38.8573 15.2912 38.5519 15.3537 38.2676 15.4739C37.9832 15.594 37.7255 15.7694 37.5094 15.9899L34.616 18.9999L28.0827 11.5566C27.8644 11.3234 27.6007 11.1376 27.3077 11.0105C27.0147 10.8835 26.6987 10.8179 26.3794 10.8179C26.06 10.8179 25.7441 10.8835 25.4511 11.0105C25.1581 11.1376 24.8943 11.3234 24.676 11.5566L20.7094 15.5232H16.9994C16.3805 15.5232 15.787 15.7691 15.3495 16.2066C14.9119 16.6442 14.666 17.2377 14.666 17.8566C14.666 18.4754 14.9119 19.0689 15.3495 19.5065C15.787 19.9441 16.3805 20.1899 16.9994 20.1899H21.666C21.9731 20.1917 22.2775 20.1328 22.5618 20.0167C22.8461 19.9006 23.1047 19.7295 23.3227 19.5132L26.3327 16.3866L32.866 23.8299C33.0768 24.0701 33.3347 24.2645 33.6237 24.401C33.9127 24.5375 34.2266 24.6131 34.546 24.6232C34.8531 24.625 35.1575 24.5661 35.4418 24.45C35.7261 24.3339 35.9847 24.1628 36.2027 23.9466L40.1694 19.9566H44.9994C45.6182 19.9566 46.2117 19.7107 46.6493 19.2731C47.0869 18.8356 47.3327 18.2421 47.3327 17.6232C47.3327 17.0044 47.0869 16.4109 46.6493 15.9733C46.2117 15.5357 45.6182 15.2899 44.9994 15.2899ZM27.756 27.6566L23.3227 32.0899C23.1058 32.3086 22.8477 32.4822 22.5634 32.6006C22.279 32.7191 21.9741 32.7801 21.666 32.7801C21.358 32.7801 21.053 32.7191 20.7687 32.6006C20.4844 32.4822 20.2263 32.3086 20.0094 32.0899L7.85271 19.9332C7.05265 19.1336 6.41799 18.1843 5.98497 17.1393C5.55196 16.0944 5.32909 14.9743 5.32909 13.8432C5.32909 12.7121 5.55196 11.5921 5.98497 10.5471C6.41799 9.5022 7.05265 8.55281 7.85271 7.75323C9.46659 6.14456 11.6524 5.24126 13.931 5.24126C16.2097 5.24126 18.3955 6.14456 20.0094 7.75323C20.2263 7.97193 20.4844 8.14552 20.7687 8.26398C21.053 8.38244 21.358 8.44343 21.666 8.44343C21.9741 8.44343 22.279 8.38244 22.5634 8.26398C22.8477 8.14552 23.1058 7.97193 23.3227 7.75323C24.9623 6.19391 27.1384 5.32434 29.401 5.32434C31.6637 5.32434 33.8398 6.19391 35.4794 7.75323C35.9993 8.27996 36.4537 8.86755 36.8327 9.50323C37.1725 9.97039 37.6734 10.2949 38.2386 10.414C38.8039 10.5332 39.3932 10.4384 39.8926 10.148C40.3919 9.8577 40.7659 9.39245 40.942 8.84232C41.1181 8.29219 41.0839 7.69628 40.846 7.1699C40.2693 6.21218 39.58 5.32698 38.7927 4.53323C36.5784 2.29288 33.6385 0.914471 30.5 0.645094C27.3616 0.375717 24.2298 1.23299 21.666 3.06323C19.6847 1.63592 17.3476 0.78374 14.9125 0.600748C12.4775 0.417756 10.0392 0.911061 7.86685 2.02622C5.69445 3.14139 3.87238 4.83505 2.60171 6.9203C1.33104 9.00556 0.661175 11.4013 0.666042 13.8432C0.665343 15.5794 1.00943 17.2985 1.67834 18.9007C2.34725 20.5029 3.32767 21.9563 4.56271 23.1766L16.7194 35.3332C18.0319 36.6441 19.811 37.3804 21.666 37.3804C23.521 37.3804 25.3002 36.6441 26.6127 35.3332L30.9994 30.9466C31.434 30.5094 31.6779 29.918 31.6779 29.3016C31.6779 28.6851 31.434 28.0937 30.9994 27.6566C30.5643 27.236 29.9828 27.0009 29.3777 27.0009C28.7726 27.0009 28.1911 27.236 27.756 27.6566Z" fill="white"/>
</svg>

