<svg width="42" height="40" viewBox="0 0 42 40" fill="none" xmlns="http://www.w3.org/2000/svg">
<path d="M26.9492 20.5134C28.1942 19.4357 29.1928 18.1028 29.8773 16.6051C30.5617 15.1075 30.9159 13.4801 30.9159 11.8334C30.9159 8.73922 29.6867 5.77176 27.4988 3.58384C25.3109 1.39591 22.3434 0.166748 19.2492 0.166748C16.155 0.166748 13.1876 1.39591 10.9996 3.58384C8.81171 5.77176 7.58255 8.73922 7.58255 11.8334C7.59696 13.4891 7.96934 15.1221 8.67417 16.6203C9.37899 18.1186 10.3996 19.4467 11.6659 20.5134C8.39954 21.9925 5.6283 24.381 3.68351 27.3934C1.73871 30.4057 0.702653 33.9145 0.699219 37.5001C0.699219 38.1189 0.945051 38.7124 1.38264 39.15C1.82022 39.5876 2.41371 39.8334 3.03255 39.8334C3.65139 39.8334 4.24488 39.5876 4.68247 39.15C5.12005 38.7124 5.36589 38.1189 5.36589 37.5001C5.36589 33.787 6.84088 30.2261 9.46639 27.6006C12.0919 24.9751 15.6529 23.5001 19.3659 23.5001C23.0789 23.5001 26.6399 24.9751 29.2654 27.6006C31.8909 30.2261 33.3659 33.787 33.3659 37.5001C33.3659 38.1189 33.6117 38.7124 34.0493 39.15C34.4869 39.5876 35.0804 39.8334 35.6992 39.8334C36.3181 39.8334 36.9115 39.5876 37.3491 39.15C37.7867 38.7124 38.0325 38.1189 38.0325 37.5001C38.019 33.9016 36.9656 30.3838 34.9993 27.3701C33.0329 24.3564 30.2374 21.9753 26.9492 20.5134ZM19.2492 18.8334C17.8647 18.8334 16.5114 18.4229 15.3602 17.6537C14.2091 16.8845 13.3119 15.7913 12.7821 14.5122C12.2522 13.2331 12.1136 11.8256 12.3837 10.4678C12.6538 9.10992 13.3205 7.86263 14.2995 6.88367C15.2784 5.9047 16.5257 5.23801 17.8836 4.96792C19.2415 4.69782 20.6489 4.83644 21.928 5.36626C23.2071 5.89607 24.3003 6.79328 25.0695 7.94442C25.8387 9.09557 26.2492 10.4489 26.2492 11.8334C26.2492 13.6899 25.5117 15.4704 24.199 16.7832C22.8862 18.0959 21.1057 18.8334 19.2492 18.8334ZM39.0826 7.16675C38.4637 7.16675 37.8702 7.41258 37.4326 7.85017C36.995 8.28775 36.7492 8.88124 36.7492 9.50008V14.1667C36.7492 14.7856 36.995 15.3791 37.4326 15.8167C37.8702 16.2542 38.4637 16.5001 39.0826 16.5001C39.7014 16.5001 40.2949 16.2542 40.7325 15.8167C41.1701 15.3791 41.4159 14.7856 41.4159 14.1667V9.50008C41.4159 8.88124 41.1701 8.28775 40.7325 7.85017C40.2949 7.41258 39.7014 7.16675 39.0826 7.16675ZM37.3326 19.5101C36.9062 19.9572 36.6645 20.549 36.6559 21.1667C36.6541 21.4738 36.713 21.7782 36.8291 22.0625C36.9452 22.3468 37.1163 22.6054 37.3326 22.8234C37.5594 23.0295 37.8198 23.1952 38.1026 23.3134C38.3819 23.4369 38.6839 23.5006 38.9892 23.5006C39.2946 23.5006 39.5966 23.4369 39.8759 23.3134C40.1654 23.2086 40.4284 23.0414 40.6462 22.8237C40.8639 22.6059 41.0311 22.343 41.1359 22.0534C41.2665 21.7765 41.3304 21.4728 41.3226 21.1667C41.3252 20.7033 41.1899 20.2495 40.9337 19.8633C40.6775 19.4771 40.312 19.1759 39.884 18.9982C39.456 18.8205 38.9847 18.7743 38.5303 18.8654C38.0759 18.9566 37.6589 19.181 37.3326 19.5101Z" fill="white"/>
</svg>
