<svg width="48" height="42" viewBox="0 0 48 42" fill="none" xmlns="http://www.w3.org/2000/svg">
<path d="M28.6667 18.6668H26.3333V16.3334C26.3333 15.7146 26.0875 15.1211 25.6499 14.6835C25.2123 14.2459 24.6188 14.0001 24 14.0001C23.3812 14.0001 22.7877 14.2459 22.3501 14.6835C21.9125 15.1211 21.6667 15.7146 21.6667 16.3334V18.6668H19.3333C18.7145 18.6668 18.121 18.9126 17.6834 19.3502C17.2458 19.7878 17 20.3813 17 21.0001C17 21.6189 17.2458 22.2124 17.6834 22.65C18.121 23.0876 18.7145 23.3334 19.3333 23.3334H21.6667V25.6668C21.6667 26.2856 21.9125 26.8791 22.3501 27.3167C22.7877 27.7543 23.3812 28.0001 24 28.0001C24.6188 28.0001 25.2123 27.7543 25.6499 27.3167C26.0875 26.8791 26.3333 26.2856 26.3333 25.6668V23.3334H28.6667C29.2855 23.3334 29.879 23.0876 30.3166 22.65C30.7542 22.2124 31 21.6189 31 21.0001C31 20.3813 30.7542 19.7878 30.3166 19.3502C29.879 18.9126 29.2855 18.6668 28.6667 18.6668ZM43.04 4.66676C40.552 2.2044 37.2658 0.712391 33.7744 0.459951C30.283 0.20751 26.8164 1.21126 24 3.29009C21.0312 1.08191 17.336 0.0806194 13.6585 0.487847C9.98097 0.895074 6.59435 2.68057 4.1806 5.48479C1.76684 8.28901 0.505244 11.9036 0.649861 15.6008C0.794478 19.2979 2.33457 22.803 4.95999 25.4101L18.96 39.5268C20.2725 40.8376 22.0517 41.5739 23.9067 41.5739C25.7617 41.5739 27.5408 40.8376 28.8533 39.5268L42.8533 25.4101C44.2322 24.0629 45.3312 22.4566 46.0872 20.6833C46.8432 18.91 47.2413 17.0049 47.2587 15.0772C47.276 13.1496 46.9123 11.2376 46.1883 9.45098C45.4643 7.6644 44.3944 6.03851 43.04 4.66676ZM39.75 22.0734L25.75 36.0734C25.5331 36.2921 25.275 36.4657 24.9907 36.5842C24.7063 36.7026 24.4014 36.7636 24.0933 36.7636C23.7853 36.7636 23.4803 36.7026 23.196 36.5842C22.9116 36.4657 22.6536 36.2921 22.4367 36.0734L8.43666 22.0734C6.60676 20.2029 5.58208 17.6902 5.58208 15.0734C5.58208 12.4567 6.60676 9.94395 8.43666 8.07343C10.3014 6.2324 12.8163 5.20009 15.4367 5.20009C18.0571 5.20009 20.572 6.2324 22.4367 8.07343C22.6536 8.29213 22.9116 8.46571 23.196 8.58417C23.4803 8.70263 23.7853 8.76362 24.0933 8.76362C24.4014 8.76362 24.7063 8.70263 24.9907 8.58417C25.275 8.46571 25.5331 8.29213 25.75 8.07343C27.6147 6.2324 30.1296 5.20009 32.75 5.20009C35.3704 5.20009 37.8853 6.2324 39.75 8.07343C41.5939 9.94603 42.6275 12.4687 42.6275 15.0968C42.6275 17.7248 41.5939 20.2475 39.75 22.1201V22.0734Z" fill="white"/>
</svg>
