<svg width="34" height="48" viewBox="0 0 34 48" fill="none" xmlns="http://www.w3.org/2000/svg">
<path d="M30.9993 24.0001H23.7893C26.866 20.8905 28.6145 16.7075 28.666 12.3334C28.666 9.23922 27.4369 6.27176 25.2489 4.08384C23.061 1.89591 20.0935 0.666748 16.9993 0.666748C13.9052 0.666748 10.9377 1.89591 8.74977 4.08384C6.56185 6.27176 5.33268 9.23922 5.33268 12.3334C5.38418 16.7075 7.1327 20.8905 10.2093 24.0001H2.99935C2.38051 24.0001 1.78702 24.2459 1.34943 24.6835C0.911849 25.1211 0.666016 25.7146 0.666016 26.3334C0.666016 26.9523 0.911849 27.5457 1.34943 27.9833C1.78702 28.4209 2.38051 28.6667 2.99935 28.6667H14.666V45.0001C14.666 45.6189 14.9118 46.2124 15.3494 46.65C15.787 47.0876 16.3805 47.3334 16.9993 47.3334C17.6182 47.3334 18.2117 47.0876 18.6493 46.65C19.0868 46.2124 19.3327 45.6189 19.3327 45.0001V28.6667H30.9993C31.6182 28.6667 32.2117 28.4209 32.6493 27.9833C33.0869 27.5457 33.3327 26.9523 33.3327 26.3334C33.3327 25.7146 33.0869 25.1211 32.6493 24.6835C32.2117 24.2459 31.6182 24.0001 30.9993 24.0001ZM16.9993 23.6267C14.8293 22.1801 9.99935 18.3534 9.99935 12.3334C9.99935 10.4769 10.7368 8.69642 12.0496 7.38367C13.3624 6.07091 15.1428 5.33341 16.9993 5.33341C18.8559 5.33341 20.6363 6.07091 21.9491 7.38367C23.2619 8.69642 23.9993 10.4769 23.9993 12.3334C23.9993 18.3534 19.1693 22.2034 16.9993 23.6267Z" fill="white"/>
</svg>

