<svg width="31" height="44" viewBox="0 0 31 44" fill="none" xmlns="http://www.w3.org/2000/svg">
<path fill-rule="evenodd" clip-rule="evenodd" d="M6.37321 9.60203C6.89567 10.2033 7.35202 10.449 7.87263 10.984C8.53114 11.6606 8.67087 11.7999 9.33624 12.353C10.4792 13.3031 11.42 14.1239 12.5023 15.1303C13.473 16.033 14.5548 16.6719 14.7987 18.4884C15.0709 20.5153 14.2236 21.3114 15.9101 22.8717C18.9364 25.6714 21.8172 22.1421 22.2932 21.9572C22.8645 21.7353 23.2368 21.8794 23.9939 21.2982C26.682 19.2351 24.8142 14.68 20.621 15.921C20.2141 15.498 19.9783 15.0259 19.6484 14.6236L13.1007 8.12219C12.1164 7.3042 11.3317 6.44839 10.3642 5.66772L6.37305 9.6022L6.37321 9.60203Z" fill="#AC91BF"/>
<path fill-rule="evenodd" clip-rule="evenodd" d="M21.6639 25.8011C20.1016 25.406 16.6441 24.2988 15.7792 28.0231C15.4644 29.3786 15.9553 30.6578 16.6233 31.4067C19.6737 34.8269 19.454 27.5919 21.4757 43.1666L25.8328 43.3259C25.7254 38.9043 25.411 34.9511 24.7448 30.7425C26.0799 29.7911 27.9628 28.4873 26.5144 26.0243C25.5 24.2995 23.0313 24.1504 21.6639 25.8013V25.8011Z" fill="#AC91BF"/>
<path fill-rule="evenodd" clip-rule="evenodd" d="M14.0879 1.88661C15.8674 3.80222 20.8895 8.13865 22.7331 10.5853C23.2447 11.2638 23.6964 11.8862 24.2379 12.6496C25.1992 14.0051 26.0777 15.4269 26.8124 17.1881C28.5804 21.4256 28.8411 37.5184 29.0361 43.2006L30.9057 43.3335C30.7495 37.3393 30.416 21.2266 28.5834 16.6045C26.709 11.8768 19.5891 3.53898 15.4139 0.666992L14.0879 1.88678V1.88661Z" fill="#AC91BF"/>
<path fill-rule="evenodd" clip-rule="evenodd" d="M0.000334692 15.9904C0.802424 16.7998 4.36405 18.8259 5.5256 19.4886C6.51913 20.0554 7.37008 20.5706 8.39675 21.122C9.34711 21.6324 10.4456 21.9921 11.3275 22.6673C10.5152 31.7724 10.4867 33.4094 13.2016 43.3063L15.1729 43.3052C12.2278 33.1614 12.3608 31.8909 13.4953 21.4808L7.20424 18.2875C6.05273 17.6352 2.07258 15.0367 1.16305 14.8091L0 15.9904H0.000334692Z" fill="#AC91BF"/>
</svg>
