<svg width="36" height="36" viewBox="0 0 36 36" fill="none" xmlns="http://www.w3.org/2000/svg">
<path d="M26.8893 24.2227V26.8893C26.8893 27.956 26.1782 28.6671 25.1115 28.6671C24.0449 28.6671 23.3338 27.956 23.3338 26.8893V24.2227H12.6671V26.8893C12.6671 27.956 11.956 28.6671 10.8893 28.6671C9.82266 28.6671 9.11154 27.956 9.11154 26.8893V24.2227H5.55599C4.31154 24.2227 3.0671 23.8671 2.00043 23.3338V30.4449C2.00043 33.4671 4.31154 35.7782 7.33377 35.7782H28.6671C31.6893 35.7782 34.0004 33.4671 34.0004 30.4449V23.3338C32.9338 23.8671 31.6893 24.2227 30.4449 24.2227H26.8893ZM34.0004 7.33377H26.8893V5.55599C26.8893 2.53377 24.5782 0.222656 21.556 0.222656H14.4449C11.4227 0.222656 9.11154 2.53377 9.11154 5.55599V7.33377H2.00043C0.933767 7.33377 0.222656 8.04488 0.222656 9.11154V16.2227C0.222656 19.2449 2.53377 21.556 5.55599 21.556H30.4449C33.4671 21.556 35.7782 19.2449 35.7782 16.2227V9.11154C35.7782 8.04488 35.0671 7.33377 34.0004 7.33377ZM23.3338 7.33377H12.6671V5.55599C12.6671 4.48932 13.3782 3.77821 14.4449 3.77821H21.556C22.6227 3.77821 23.3338 4.48932 23.3338 5.55599V7.33377Z" fill="#AC91BF"/>
</svg>
