<svg width="45" height="44" viewBox="0 0 45 44" fill="none" xmlns="http://www.w3.org/2000/svg">
<path fill-rule="evenodd" clip-rule="evenodd" d="M30.4805 16.6033L29.7827 16.8959L29.246 17.3104L28.8106 17.4941L28.4605 17.8009L28.2597 18.2228L27.7316 18.6277C27.0578 26.7378 32.8407 30.544 30.3054 36.2781C27.6135 42.3662 18.0541 41.2616 15.2218 37.9555C10.4679 32.4059 17.4052 26.4717 17.9107 21.5705C18.6318 14.5811 10.2681 16.5886 0.739081 16.3478L0.666016 19.0882C4.07657 19.0841 13.1123 18.2653 15.1127 19.8265C15.9668 23.6653 10.3939 28.3969 10.9711 34.4891C11.4759 39.8162 15.9983 43.0377 21.7411 43.3143C27.8462 43.6083 32.4479 40.3878 33.4074 35.3588C34.5993 29.1125 29.3671 23.422 30.3906 19.6553C32.7341 18.5525 40.8976 19.0853 44.3172 19.0881L44.2874 16.3529C39.6814 16.4305 34.9294 16.0979 30.4803 16.6029L30.4805 16.6033Z" fill="#AC91BF"/>
<path fill-rule="evenodd" clip-rule="evenodd" d="M32.7445 0.666504C30.951 0.829284 27.343 5.27959 26.1642 6.84843C21.5949 12.9293 21.5493 19.5508 20.039 26.6485C19.3666 29.8091 16.9891 34.7505 20.4619 36.4351C22.5855 37.4654 27.3138 37.0807 25.8754 30.4009C23.7697 20.6213 24.638 12.6901 30.3379 4.54581C31.1259 3.41967 32.2848 1.7948 32.7445 0.666504V0.666504Z" fill="#AC91BF"/>
<path fill-rule="evenodd" clip-rule="evenodd" d="M37.8046 34.4773C35.8481 35.8644 37.9448 38.4656 39.7789 37.1361C41.1528 36.1404 39.9311 32.97 37.8046 34.4773Z" fill="#AC91BF"/>
<path fill-rule="evenodd" clip-rule="evenodd" d="M38.2093 26.7254C35.0165 26.0133 34.6596 28.5189 36.0018 29.5156C37.6479 30.7377 39.309 29.0354 38.2093 26.7254Z" fill="#AC91BF"/>
<path fill-rule="evenodd" clip-rule="evenodd" d="M5.4883 33.2144C2.98489 32.3364 1.66717 34.5233 3.15061 35.8423C4.57058 37.1052 6.44383 35.657 5.4883 33.2144Z" fill="#AC91BF"/>
<path fill-rule="evenodd" clip-rule="evenodd" d="M29.2449 17.3104L28.8094 17.4942C28.2876 17.4258 28.3802 17.2992 28.4594 17.8009L28.2586 18.2228L27.7305 18.6277L28.2586 18.2228L28.4594 17.8009L28.8094 17.4942L29.2449 17.3104L29.7816 16.8959L30.4793 16.6033L29.7816 16.8959L29.2449 17.3104Z" fill="#9E9E9E"/>
<path d="M5.94699 24.1635C6.854 24.1635 7.58929 23.4282 7.58929 22.5212C7.58929 21.6142 6.854 20.8789 5.94699 20.8789C5.03997 20.8789 4.30469 21.6142 4.30469 22.5212C4.30469 23.4282 5.03997 24.1635 5.94699 24.1635Z" fill="#AC91BF"/>
<path d="M7.56808 31.3808C8.4751 31.3808 9.21038 30.6455 9.21038 29.7385C9.21038 28.8315 8.4751 28.0962 7.56808 28.0962C6.66106 28.0962 5.92578 28.8315 5.92578 29.7385C5.92578 30.6455 6.66106 31.3808 7.56808 31.3808Z" fill="#AC91BF"/>
<path d="M39.7439 24.1635C40.6509 24.1635 41.3862 23.4282 41.3862 22.5212C41.3862 21.6142 40.6509 20.8789 39.7439 20.8789C38.8368 20.8789 38.1016 21.6142 38.1016 22.5212C38.1016 23.4282 38.8368 24.1635 39.7439 24.1635Z" fill="#AC91BF"/>
</svg>
