<svg width="33" height="44" viewBox="0 0 33 44" fill="none" xmlns="http://www.w3.org/2000/svg">
<path fill-rule="evenodd" clip-rule="evenodd" d="M17.0317 5.91988C17.0923 5.84797 16.975 5.98801 17.0317 5.91988V5.91988ZM18.364 12.3201C19.0226 12.1573 19.9007 11.7599 20.5819 11.4988C20.968 11.3511 21.2935 11.2376 21.6493 11.0976C21.8499 11.0181 21.9975 10.9613 22.2132 10.8818C22.5008 10.7759 22.5728 10.7759 22.7242 10.6245C22.5576 10.2233 22.1829 9.71988 21.8991 9.3641C21.5773 8.95155 21.1534 8.58064 20.9377 8.22107C20.9415 8.20972 22.4706 6.32486 22.9967 5.4657C23.4508 4.72765 24.3403 3.16829 24.556 2.24857C24.3592 2.12367 20.6728 1.35913 20.2451 1.32507C19.8287 1.88144 19.2572 3.41052 18.0007 4.89419L17.0582 5.91231C17.7168 3.47108 17.7963 3.42188 17.414 0.666504L13.4891 0.670289C13.5459 1.79439 13.6519 2.77088 13.527 3.90255C13.455 4.56869 13.1031 6.16211 12.7435 6.46112C12.3537 6.78661 10.7262 6.81311 8.73912 9.12944C6.72557 11.4761 5.66581 15.7227 6.52498 19.674C6.75207 20.7225 7.20247 21.0858 8.23195 21.3053C9.18573 21.5097 10.3212 21.3583 10.9419 20.8738C12.0584 19.9995 10.5596 18.478 11.3242 15.1209C11.7329 13.3268 12.7624 11.7523 13.9282 11.0635C15.8849 9.90533 17.6297 10.8478 18.3602 12.3239L18.364 12.3201Z" fill="#AC91BF"/>
<path fill-rule="evenodd" clip-rule="evenodd" d="M2.86951 22.4559C2.21094 21.5816 3.05118 19.3183 3.60377 18.338C4.11851 17.4258 4.55377 17.3577 4.58404 16.7559C4.62568 15.8703 4.66731 15.1928 4.75815 14.3147C4.31154 14.4964 3.51293 15.2458 3.19122 15.5978C1.22309 17.74 -0.0637567 20.7149 1.12469 23.6936C1.77568 25.3211 1.88923 24.3824 1.72648 25.6806C1.51831 27.346 1.90815 29.0037 2.47588 30.336C3.4448 32.6031 4.55755 33.6364 6.10556 35.0103C8.53543 37.1714 13.2438 43.3143 16.9189 43.3332C20.5523 43.3521 24.182 38.6665 25.5029 35.491C26.0404 34.2041 26.5021 32.7242 26.6422 31.1346C26.8239 29.0454 26.4908 28.2316 25.9306 26.5019C25.7754 26.025 27.1115 25.2567 27.6376 22.8874C28.0312 21.1161 27.6452 19.7762 27.0017 18.3758C26.381 18.2926 25.344 18.3758 24.7308 18.5007C24.8065 18.7051 24.9996 18.9284 25.1282 19.1631C25.59 19.9844 25.8436 20.8625 25.7603 21.8617C25.5256 24.6511 23.3115 25.1242 23.7808 26.5511C23.9663 27.1151 24.2237 27.5995 24.394 28.1862C24.7687 29.4541 24.727 30.8999 24.4507 32.1868C23.9284 34.6356 22.7476 36.7702 21.4986 38.2425C21.1163 38.6929 20.8551 39.0563 20.435 39.4272C17.0438 42.4097 16.003 41.418 13.2627 39.2455C13.0432 39.0714 12.8653 38.8746 12.6496 38.6967L10.9426 37.0692C9.40217 35.5894 8.08125 34.1208 6.4689 32.622C5.25396 31.4904 3.56592 29.0226 3.69082 26.3657C3.78923 24.3219 4.67867 23.5838 4.89819 23.0426C5.15934 22.3991 4.70516 21.7671 4.15636 21.6687C3.40696 21.5362 3.18365 22.0472 2.86951 22.4559Z" fill="#AC91BF"/>
<path fill-rule="evenodd" clip-rule="evenodd" d="M18.6031 31.1989C18.3003 32.6334 16.5858 35.5477 15.9915 36.9292C15.7001 37.6066 16.2565 38.1819 16.8734 37.8943C17.2519 37.7164 18.4252 35.1238 18.7015 34.5144C18.8415 34.2041 18.8907 33.9845 19.1292 33.7802C19.2389 34.3933 19.3941 35.067 19.326 35.7596C19.3146 35.858 18.974 37.3001 20.0754 37.0616C21.033 36.8497 20.6393 34.3744 20.4463 33.5569C19.6628 30.1921 20.5409 30.915 20.7188 27.9288C20.768 27.1037 20.6053 26.5624 20.5901 25.8698C20.8967 26.0893 21.5061 26.536 21.9224 26.1083C22.5393 25.4724 21.8126 25.128 21.5023 24.8895C21.0897 24.5716 20.734 24.3445 20.2836 24.0909C19.8824 23.8638 19.2541 23.5951 18.9513 23.3453C18.9097 22.8571 19.1103 21.9109 19.1443 21.3356C19.1935 20.5218 19.133 19.7876 19.1481 18.989C19.8445 18.6937 20.5409 18.1222 21.9224 17.581C28.3794 15.0565 32.5389 18.9435 32.4292 16.8429C32.3951 16.2336 31.7403 16.1692 31.1574 16.0141C26.574 14.8029 23.0616 15.2306 19.0119 17.5394C17.3276 18.4969 17.8613 18.319 17.8385 20.4083C17.8234 21.6043 17.3314 23.2696 17.8915 24.1628C18.1603 24.5943 19.1292 24.8252 19.3828 26.9447C19.5758 28.5344 18.781 29.2308 18.0581 29.8515C17.233 30.563 16.5479 31.0248 15.5033 31.5622C13.8985 32.3911 12.7517 32.3911 13.0545 33.3298C13.4254 34.4804 16.5933 32.5236 17.3352 32.0732C17.7969 31.7931 18.1981 31.4298 18.6031 31.2102V31.1989Z" fill="#AC91BF"/>
<path fill-rule="evenodd" clip-rule="evenodd" d="M17.7708 14.095C17.5361 13.8225 17.1803 13.0504 16.8018 12.6C16.3704 12.0815 15.6437 12.0664 15.0078 12.4297C15.1971 12.7325 15.3106 12.8233 15.5604 13.1375C15.7913 13.4251 15.9124 13.6901 16.1054 13.9853C16.359 14.3751 16.8927 15.5446 17.1463 15.6658C17.6345 15.908 18.558 15.2154 19.0311 14.9845C19.6556 14.6817 20.3066 14.3978 21.003 14.1594C28.0012 11.7484 32.0472 15.2116 32.6831 13.9626C33.1486 13.0504 31.9867 12.8877 31.3432 12.7174C27.2518 11.616 23.6032 11.6462 19.6745 13.2207C19.0765 13.4592 18.2476 13.9474 17.767 14.0913L17.7708 14.095Z" fill="#AC91BF"/>
<path fill-rule="evenodd" clip-rule="evenodd" d="M13.2737 21.8011C12.5924 22.0622 10.7605 21.7973 10.3215 22.418C10.1247 22.6943 10.1814 23.0879 10.3782 23.281C10.7151 23.614 11.9149 23.2658 12.494 23.2469C13.4213 23.2166 13.8717 23.1296 14.3069 22.5959C15.1926 21.5021 14.5681 17.8043 14.0571 16.3585C13.8338 15.7226 13.4667 15.1284 13.3002 14.6174C12.9747 14.8975 12.8611 15.8248 12.8157 16.2146C12.7211 17.0284 13.7695 19.9957 13.2774 21.8049L13.2737 21.8011Z" fill="#AC91BF"/>
<path fill-rule="evenodd" clip-rule="evenodd" d="M7.64167 7.94472C8.02016 7.33914 8.36458 7.29751 8.56518 6.84711C7.85362 6.68436 4.68948 5.68516 4.18231 6.19233C3.92494 6.44592 3.95901 6.9493 4.22016 7.18018C4.42455 7.36185 7.38052 7.92201 7.64167 7.94472Z" fill="#AC91BF"/>
<path fill-rule="evenodd" clip-rule="evenodd" d="M5.67368 11.0749L6.24898 9.84858C4.95834 9.57986 2.55875 8.61472 2.23325 9.44739C1.87747 10.3633 2.86532 10.4201 3.54659 10.5715C4.23922 10.7229 5.00755 10.95 5.6699 11.0749H5.67368Z" fill="#AC91BF"/>
</svg>
