<svg width="36" height="36" viewBox="0 0 36 36" fill="none" xmlns="http://www.w3.org/2000/svg">
<path d="M30.4429 0.222168H5.55404C4.13955 0.222168 2.78299 0.784071 1.7828 1.78427C0.782606 2.78446 0.220703 4.14101 0.220703 5.5555V30.4444C0.220703 31.8589 0.782606 33.2154 1.7828 34.2156C2.78299 35.2158 4.13955 35.7777 5.55404 35.7777H30.4429C31.8574 35.7777 33.214 35.2158 34.2142 34.2156C35.2144 33.2154 35.7763 31.8589 35.7763 30.4444V5.5555C35.7763 4.14101 35.2144 2.78446 34.2142 1.78427C33.214 0.784071 31.8574 0.222168 30.4429 0.222168ZM32.2207 30.4444C32.2207 30.9159 32.0334 31.3681 31.7 31.7015C31.3666 32.0349 30.9144 32.2222 30.4429 32.2222H5.55404C5.08254 32.2222 4.63036 32.0349 4.29696 31.7015C3.96356 31.3681 3.77626 30.9159 3.77626 30.4444V5.5555C3.77626 5.084 3.96356 4.63182 4.29696 4.29842C4.63036 3.96502 5.08254 3.77772 5.55404 3.77772H30.4429C30.9144 3.77772 31.3666 3.96502 31.7 4.29842C32.0334 4.63182 32.2207 5.084 32.2207 5.5555V30.4444ZM26.8874 12.6666H23.3318V9.11106C23.3318 8.63956 23.1445 8.18738 22.8111 7.85398C22.4777 7.52058 22.0255 7.33328 21.554 7.33328H14.4429C13.9714 7.33328 13.5192 7.52058 13.1858 7.85398C12.8524 8.18738 12.6651 8.63956 12.6651 9.11106V12.6666H9.10959C8.6381 12.6666 8.18591 12.8539 7.85251 13.1873C7.51911 13.5207 7.33181 13.9729 7.33181 14.4444V21.5555C7.33181 22.027 7.51911 22.4792 7.85251 22.8126C8.18591 23.146 8.6381 23.3333 9.10959 23.3333H12.6651V26.8888C12.6651 27.3603 12.8524 27.8125 13.1858 28.1459C13.5192 28.4793 13.9714 28.6666 14.4429 28.6666H21.554C22.0255 28.6666 22.4777 28.4793 22.8111 28.1459C23.1445 27.8125 23.3318 27.3603 23.3318 26.8888V23.3333H26.8874C27.3589 23.3333 27.8111 23.146 28.1444 22.8126C28.4778 22.4792 28.6651 22.027 28.6651 21.5555V14.4444C28.6651 13.9729 28.4778 13.5207 28.1444 13.1873C27.8111 12.8539 27.3589 12.6666 26.8874 12.6666ZM25.1096 19.7777H21.554C21.0825 19.7777 20.6304 19.965 20.297 20.2984C19.9636 20.6318 19.7763 21.084 19.7763 21.5555V25.1111H16.2207V21.5555C16.2207 21.084 16.0334 20.6318 15.7 20.2984C15.3666 19.965 14.9144 19.7777 14.4429 19.7777H10.8874V16.2222H14.4429C14.9144 16.2222 15.3666 16.0349 15.7 15.7015C16.0334 15.3681 16.2207 14.9159 16.2207 14.4444V10.8888H19.7763V14.4444C19.7763 14.9159 19.9636 15.3681 20.297 15.7015C20.6304 16.0349 21.0825 16.2222 21.554 16.2222H25.1096V19.7777Z" fill="#AC91BF"/>
</svg>
