<svg width="44" height="41" viewBox="0 0 44 41" fill="none" xmlns="http://www.w3.org/2000/svg">
<path fill-rule="evenodd" clip-rule="evenodd" d="M28.6926 33.1016C28.3737 35.4844 26.4527 37.456 23.8681 37.0462C21.7522 36.7109 19.936 34.5739 20.3161 31.8007C20.6322 29.4998 22.5737 27.5268 25.0875 27.9083C27.1816 28.2257 29.0563 30.3746 28.6912 33.1016H28.6926ZM8.41911 23.9414C9.11125 23.7238 9.66986 24.5792 9.96415 24.9026C10.3851 25.3645 10.8552 25.8235 11.2435 26.3033C11.8934 27.1066 11.2435 27.7667 10.8729 28.1706C10.5841 28.4865 9.95597 29.3106 9.5268 29.4387C8.73521 29.6742 7.98313 28.5386 7.28555 27.7727C6.3073 26.6997 5.94216 26.4196 7.04303 25.2066C7.35503 24.8623 7.9368 24.0919 8.41911 23.9399V23.9414ZM5.88357 22.3588C5.64923 22.1442 4.8699 20.5452 4.66008 20.0848C3.36438 17.2519 2.92703 14.3684 3.68864 11.2136C5.15057 5.15601 10.723 1.71963 15.587 3.75523C17.9141 4.72833 19.7671 6.61491 20.7876 8.86361C21.0641 9.47459 21.4306 11.0676 22.3993 10.3791C22.7277 10.1452 22.7985 9.66236 22.9975 9.22275C23.5697 7.9546 24.0997 7.07538 24.9948 6.09781C28.976 1.75241 35.1711 2.44088 38.4519 7.16628C41.3212 11.2971 41.2599 16.4323 38.9124 20.9118C38.6971 21.3216 38.5186 21.6495 38.2966 22.0488C37.5881 23.32 36.7924 24.5986 35.8496 25.6745C35.0294 26.6088 32.3181 30.2762 31.1014 30.2553C30.9652 29.698 30.7799 29.2688 30.5414 28.7741C29.867 27.3793 29.5768 27.5447 28.6994 26.6461C28.431 26.3719 27.965 25.9189 27.6571 25.7415C25.8328 24.6895 23.4253 24.6969 21.5437 25.6626C18.8365 27.0514 17.2165 30.3343 17.7097 33.6992C18.3719 38.216 22.6024 41.101 26.6666 39.6629C28.4718 39.0236 29.8588 37.6735 30.6995 35.8555C31.4175 34.3042 30.6749 34.7021 32.1764 33.3862L33.686 31.8871C34.8754 30.7724 36.8564 28.5044 37.9314 27.3107C39.2285 25.8712 39.5882 25.5046 40.5024 23.8788C42.497 20.3262 43.6565 17.1074 43.2505 12.6249C42.9875 9.72197 42.0065 7.37491 40.5964 5.22903C40.3375 4.83562 40.0242 4.48244 39.738 4.12629C36.0676 -0.453077 29.3738 -1.38743 24.8082 2.27994C24.4717 2.54966 24.022 2.90731 23.7632 3.17852C23.4907 3.46464 22.1814 4.93397 22.0165 5.2946C21.5982 4.78495 21.2249 4.20527 20.7017 3.64645C20.0055 2.90135 19.1499 2.22182 18.2724 1.63468C14.5447 -0.85692 9.60718 -0.339823 6.35226 2.10708C5.17645 2.99076 4.23772 3.98174 3.46384 5.13515C3.03194 5.77891 2.72674 6.24981 2.34117 6.99938C0.41737 10.7427 0.163951 15.5114 1.49235 19.5245C2.1259 21.4379 2.78805 22.5853 3.64641 24.1649C4.23363 25.2423 3.87666 24.5971 3.74995 25.8667C3.65594 26.8041 3.8753 27.6922 4.23635 28.3643C4.57561 28.9946 6.45036 30.9945 7.00624 31.5175C8.05125 32.5011 9.94099 32.6993 11.2231 31.7664C12.0446 31.1688 13.5447 29.5654 13.9194 28.5312C14.5393 26.819 14.0965 25.2662 12.9834 24.0472C12.1795 23.168 11.0269 21.6778 9.96278 21.2248C8.29922 20.5154 6.59478 21.3365 5.87948 22.3573L5.88357 22.3588Z" fill="#AC91BF"/>
<path fill-rule="evenodd" clip-rule="evenodd" d="M22.1185 14.2997C18.0706 14.6499 15.1754 17.2861 13.8143 20.5407C13.4314 21.4571 13.5254 22.244 14.1631 22.7059C14.8947 23.2364 15.734 22.8371 16.0569 22.2335C16.4902 21.4244 16.3348 21.3573 17.0978 20.2799C18.9208 17.7078 22.1321 16.4948 25.1282 17.6497C25.6582 17.8539 26.5765 18.2845 27.1364 17.374C27.6406 16.5544 27.3912 15.6066 26.7686 15.2192C25.695 14.5531 23.545 14.1775 22.1171 14.3012L22.1185 14.2997Z" fill="#AC91BF"/>
<path fill-rule="evenodd" clip-rule="evenodd" d="M21.8043 19.2084C19.6394 19.5809 18.187 20.9057 17.4022 22.4749C17.1924 22.8936 16.9172 23.4092 16.9935 23.9889C17.1543 25.2034 18.469 25.5358 19.1979 24.8503C19.6748 24.4017 20.0154 22.4078 22.2267 22.0725C22.7608 21.9921 23.3657 22.0681 23.8412 22.2678C25.7841 23.0859 26.6029 20.3976 24.9734 19.6331C24.0674 19.2084 22.897 19.0191 21.8043 19.2084Z" fill="#AC91BF"/>
</svg>
