<svg width="443" height="452" viewBox="0 0 443 452" fill="none" xmlns="http://www.w3.org/2000/svg">
<path d="M69.5287 298.643C61.7929 298.643 54.2309 296.279 47.7988 291.848C41.3668 287.418 36.3536 281.121 33.3933 273.754C30.433 266.387 29.6584 258.28 31.1676 250.459C32.6767 242.639 36.4019 235.455 41.8719 229.816C47.3419 224.177 54.3111 220.337 61.8982 218.782C69.4853 217.226 77.3495 218.024 84.4964 221.076C91.6433 224.128 97.7519 229.295 102.05 235.926C106.347 242.556 108.641 250.351 108.641 258.325C108.641 269.018 104.52 279.273 97.1855 286.834C89.8504 294.396 79.902 298.643 69.5287 298.643ZM69.5287 219.881C62.1437 219.879 54.924 222.135 48.7826 226.362C42.6412 230.59 37.8541 236.6 35.0265 243.633C32.199 250.665 31.4581 258.404 32.8975 265.871C34.337 273.337 37.8921 280.196 43.1133 285.58C48.3345 290.963 54.9873 294.63 62.2302 296.116C69.4731 297.602 76.9808 296.84 83.8038 293.928C90.6268 291.015 96.4586 286.082 100.562 279.752C104.665 273.423 106.855 265.981 106.855 258.369C106.844 248.167 102.908 238.386 95.9105 231.171C88.9132 223.956 79.4257 219.896 69.5287 219.881Z" fill="#EBEBEB"/>
<path d="M67.5635 304.342C66.9715 304.342 66.3795 304.277 65.7875 304.233L65.9355 302.446C66.4958 302.446 67.0666 302.533 67.6375 302.555L67.5635 304.342ZM73.7792 304.179L73.6101 302.403C74.1809 302.348 74.7412 302.272 75.312 302.196L75.5446 303.972C74.9632 304.059 74.3818 304.124 73.7792 304.179ZM59.6352 303.253C59.0538 303.122 58.483 302.969 57.9016 302.817L58.3561 301.084C58.9058 301.237 59.4661 301.378 60.0158 301.509L59.6352 303.253ZM81.6546 302.675L81.1789 300.942C81.7286 300.79 82.236 300.616 82.8174 300.43L83.3565 302.141L81.6546 302.675ZM52.0558 300.714C51.5062 300.474 50.9987 300.223 50.4279 299.962L51.1679 298.338C51.6859 298.6 52.225 298.839 52.7324 299.068L52.0558 300.714ZM89.1494 299.733L88.3883 298.12C88.9063 297.859 89.4454 297.597 89.9105 297.314L90.7351 298.894C90.1854 299.177 89.6568 299.461 89.1177 299.733H89.1494ZM45.005 296.813C44.5082 296.475 44.0113 296.126 43.5356 295.723L44.5927 294.263C45.0473 294.611 45.523 294.949 45.9987 295.265L45.005 296.813ZM95.9888 295.461L94.9317 294.012L96.2848 292.922L97.3419 294.317C96.8662 294.72 96.4328 295.102 95.9571 295.461H95.9888ZM38.7258 291.669C38.2924 291.244 37.8696 290.819 37.4573 290.373L38.7258 289.13C39.1275 289.555 39.5292 289.969 39.9415 290.373L38.7258 291.669ZM101.961 290.002L100.703 288.771C101.095 288.346 101.475 287.91 101.856 287.463L103.156 288.64C102.754 289.109 102.363 289.555 101.951 290.002H101.961ZM33.4404 285.469C33.0915 284.979 32.7532 284.477 32.3833 283.965L33.8315 282.974C34.1486 283.453 34.4763 283.943 34.8146 284.412L33.4404 285.469ZM106.909 283.551L105.46 282.57C105.767 282.08 106.074 281.579 106.37 281.078L107.86 281.993C107.553 282.462 107.236 283.017 106.909 283.551ZM29.3282 278.43C29.064 277.874 28.8208 277.34 28.5777 276.762L30.1739 276.043C30.4065 276.588 30.639 277.133 30.8822 277.645L29.3282 278.43ZM110.725 276.25L109.129 275.553C109.351 275.008 109.562 274.463 109.763 273.908L111.391 274.54C111.126 275.117 110.904 275.684 110.672 276.25H110.725ZM26.5481 270.693C26.3895 270.105 26.2521 269.516 26.1147 268.917L27.806 268.503C27.9329 269.08 28.0703 269.647 28.2289 270.214L26.5481 270.693ZM113.156 268.383L111.465 267.991C111.592 267.424 111.697 266.846 111.803 266.269L113.516 266.585C113.357 267.206 113.241 267.784 113.103 268.383H113.156ZM25.121 262.586C25.0646 261.976 25.0223 261.365 24.9941 260.755L26.6749 260.668C26.6749 261.256 26.7172 261.845 26.8018 262.433L25.121 262.586ZM114.181 260.199L112.448 260.134C112.448 259.546 112.448 258.957 112.448 258.369V258.183H114.192V258.358C114.171 258.99 114.16 259.578 114.129 260.199H114.181ZM26.7806 254.489L25.047 254.337C25.047 253.727 25.1633 253.116 25.2373 252.517L26.9603 252.735C26.8969 253.323 26.8335 253.901 26.7806 254.489ZM111.993 252.038C111.909 251.46 111.824 250.872 111.718 250.305L113.431 249.978C113.537 250.577 113.632 251.177 113.716 251.787L111.993 252.038ZM28.1549 246.687L26.4741 246.219C26.6362 245.63 26.8053 245.042 26.9815 244.453L28.6411 244.998C28.4403 245.554 28.2817 246.121 28.1549 246.687ZM110.228 244.323C110.038 243.756 109.847 243.233 109.647 242.656L111.274 242.024C111.486 242.59 111.687 243.168 111.877 243.745L110.228 244.323ZM30.8187 239.256L29.212 238.493C29.4657 237.937 29.7299 237.403 30.0154 236.848L31.5481 237.687C31.3262 238.21 31.0619 238.733 30.8187 239.267V239.256ZM107.141 237.076C106.866 236.564 106.581 236.052 106.285 235.551L107.775 234.625C108.082 235.148 108.378 235.714 108.663 236.216L107.141 237.076ZM34.7512 232.456L33.3452 231.366C33.6941 230.876 34.0535 230.386 34.4023 229.906L35.766 230.996C35.4383 231.508 35.0894 231.977 34.7512 232.456ZM102.849 230.506C102.49 230.048 102.138 229.601 101.792 229.165L103.103 227.978C103.494 228.435 103.875 228.904 104.245 229.372L102.849 230.506ZM39.7829 226.474L38.5778 225.177C39.0113 224.752 39.4447 224.338 39.8886 223.935L41.0409 225.275C40.6392 225.667 40.2163 226.06 39.7829 226.474ZM97.4688 224.828C97.0354 224.436 96.5914 224.066 96.1474 223.739L97.2045 222.333C97.6696 222.714 98.1242 223.096 98.5787 223.499L97.4688 224.828ZM45.7767 221.559L44.8147 220.066L46.3158 219.075L47.2249 220.611C46.7598 220.873 46.2735 221.189 45.7978 221.516L45.7767 221.559ZM91.2319 220.252L89.7414 219.391L90.5554 217.811C91.0839 218.105 91.6124 218.399 92.1093 218.715L91.2319 220.252ZM52.5527 217.735L51.8656 216.089C52.4047 215.849 52.9227 215.621 53.5041 215.403L54.1383 217.07C53.5992 217.288 53.0707 217.506 52.5527 217.735ZM84.2656 216.83C83.7265 216.623 83.2085 216.438 82.6377 216.253L83.1768 214.542C83.7371 214.738 84.3079 214.934 84.8576 215.141L84.2656 216.83ZM59.8678 215.272L59.4767 213.528C60.0475 213.387 60.6289 213.267 61.2209 213.147L61.538 214.912C60.9249 215.021 60.4069 215.141 59.8678 215.272ZM76.8554 214.782C76.2951 214.683 75.7348 214.596 75.164 214.52L75.386 212.744C75.978 212.82 76.5699 212.918 77.1513 213.016L76.8554 214.782ZM67.4789 214.193L67.3943 212.406C67.9863 212.406 68.5783 212.406 69.1808 212.352V214.149C68.61 214.149 68.0392 214.16 67.4683 214.193H67.4789Z" fill="#EBEBEB"/>
<path d="M63.5359 283.279H75.5763V264.558H93.7372V252.147H75.5763V233.426H63.5359V252.147H45.375V264.558H63.5359V283.279Z" fill="#EBEBEB"/>
<path d="M397.958 93.2822C391.442 102.264 383.128 109.696 373.581 115.076C364.057 109.69 355.765 102.258 349.268 93.2822C340.685 81.5791 341.107 63.2507 353.38 59.2842C366.953 54.9255 373.624 75.9672 373.624 75.9672C373.624 75.9672 380.389 54.773 393.878 59.2842C406.066 63.4359 406.531 81.5791 397.958 93.2822Z" fill="#EBEBEB"/>
<path d="M364.016 105.824L360.317 89.9478L357.896 95.5488H342.959V93.7508H356.775L360.803 84.3905L363.689 96.7692L367.769 71.1182L371.374 91.408L374.217 82.9412L378.699 96.8128L379.693 93.7508H404.239V95.5379H380.951L378.699 102.468L374.186 88.5095L370.845 98.4473L367.864 81.6118L364.016 105.824Z" fill="white"/>
<path d="M373.624 122.605C365.889 122.605 358.327 120.241 351.895 115.811C345.463 111.38 340.449 105.084 337.489 97.7164C334.529 90.3493 333.754 82.2426 335.263 74.4217C336.772 66.6007 340.498 59.4167 345.968 53.7781C351.438 48.1395 358.407 44.2996 365.994 42.7439C373.581 41.1882 381.445 41.9866 388.592 45.0382C395.739 48.0898 401.848 53.2575 406.145 59.8878C410.443 66.5181 412.737 74.3132 412.737 82.2873C412.737 92.9804 408.616 103.235 401.281 110.797C393.946 118.358 383.998 122.605 373.624 122.605ZM373.624 43.8434C366.24 43.8434 359.021 46.1007 352.881 50.3298C346.741 54.5588 341.956 60.5697 339.13 67.6024C336.304 74.6351 335.564 82.3736 337.005 89.8395C338.446 97.3053 342.002 104.163 347.223 109.546C352.445 114.928 359.098 118.594 366.34 120.079C373.583 121.564 381.09 120.802 387.913 117.889C394.735 114.976 400.566 110.043 404.669 103.713C408.771 97.3842 410.961 89.943 410.961 82.3309C410.958 72.1223 407.024 62.3323 400.024 55.1116C393.023 47.891 383.528 43.8303 373.624 43.8216V43.8434Z" fill="#EBEBEB"/>
<path d="M371.711 128.304C371.119 128.304 370.528 128.239 369.936 128.185L370.084 126.398C370.644 126.452 371.215 126.485 371.796 126.517L371.711 128.304ZM377.938 128.141L377.769 126.354C378.339 126.299 378.91 126.234 379.471 126.158L379.703 127.934C379.111 128.01 378.477 128.087 377.885 128.141H377.938ZM363.783 127.215C363.202 127.084 362.631 126.932 362.06 126.779L362.504 125.046C363.054 125.199 363.614 125.341 364.174 125.471L363.783 127.215ZM385.803 126.626L385.327 124.905C385.877 124.741 386.384 124.578 386.965 124.393L387.505 126.103C386.891 126.289 386.321 126.463 385.75 126.637L385.803 126.626ZM356.204 124.676C355.654 124.436 355.147 124.186 354.576 123.924L355.316 122.3L356.88 123.03L356.204 124.676ZM393.308 123.684L392.547 122.072C393.054 121.821 393.604 121.548 394.059 121.276L394.883 122.845C394.281 123.139 393.752 123.423 393.223 123.684H393.308ZM349.153 120.764C348.656 120.426 348.17 120.077 347.684 119.674L348.741 118.214C349.206 118.563 349.671 118.89 350.147 119.217L349.153 120.764ZM400.137 119.413L399.08 117.974C399.545 117.626 399.989 117.266 400.433 116.885L401.49 118.29C401.004 118.683 400.539 119.01 400.052 119.413H400.137ZM342.895 115.632C342.462 115.207 342.039 114.771 341.626 114.335L342.884 113.093C343.279 113.507 343.681 113.921 344.089 114.335L342.895 115.632ZM406.131 113.964L404.873 112.722C405.264 112.297 405.644 111.861 406.025 111.425L407.336 112.602C406.86 113.06 406.458 113.561 406.046 113.964H406.131ZM337.62 109.431C337.271 108.93 336.933 108.44 336.563 107.927L338.001 106.925C338.318 107.415 338.645 107.895 338.984 108.374L337.62 109.431ZM411.099 107.492L409.64 106.511C409.947 106.01 410.253 105.519 410.549 105.007L412.04 105.933C411.649 106.456 411.331 107.023 411.014 107.492H411.099ZM333.508 102.359C333.244 101.814 333.001 101.27 332.768 100.703L334.354 99.9837C334.586 100.518 334.819 101.073 335.072 101.586L333.508 102.359ZM414.904 100.18L413.308 99.4825C413.53 98.9485 413.742 98.3928 413.943 97.8479L415.57 98.48C415.222 99.0684 415.052 99.6459 414.767 100.202L414.904 100.18ZM330.738 94.6334C330.58 94.045 330.432 93.4456 330.294 92.8572L331.986 92.4431C332.113 93.0207 332.261 93.5873 332.409 94.1539L330.738 94.6334ZM417.167 92.3451L415.465 91.9528C415.592 91.3752 415.708 90.7977 415.803 90.2202L417.516 90.5362C417.452 91.1464 417.336 91.7675 417.167 92.3451ZM329.121 86.5371C329.065 85.9341 329.022 85.3239 328.994 84.7064L330.728 84.6192C330.728 85.2077 330.802 85.7961 330.855 86.3736L329.121 86.5371ZM418.224 84.1398L416.48 84.0744C416.48 83.486 416.48 82.8975 416.48 82.3091V82.1239H418.224V82.2982C418.224 82.9411 418.224 83.5513 418.224 84.1398ZM330.865 78.4299L329.142 78.2773C329.142 77.6671 329.248 77.0569 329.322 76.4466L331.055 76.6755C330.992 77.2748 330.929 77.8632 330.876 78.4516L330.865 78.4299ZM416.11 75.9999C416.036 75.4114 415.94 74.8339 415.835 74.2564L417.547 73.9295C417.653 74.5288 417.748 75.139 417.833 75.7383L416.11 75.9999ZM332.25 70.6495L330.569 70.181C330.728 69.5817 330.897 69.0041 331.077 68.4157L332.736 68.9605C332.599 69.5163 332.377 70.0829 332.229 70.6495H332.25ZM414.344 68.2849C414.165 67.7292 413.964 67.1953 413.763 66.6286L415.391 65.9857C415.602 66.5669 415.803 67.1444 415.993 67.7183L414.344 68.2849ZM334.935 63.2179L333.371 62.4442C333.624 61.8885 333.899 61.3546 334.174 60.8097L335.707 61.6488C335.421 62.1609 335.168 62.6949 334.914 63.2179H334.935ZM411.258 61.0386C410.983 60.5155 410.697 60.0143 410.401 59.513L411.892 58.5868C412.198 59.0989 412.494 59.6765 412.78 60.1668L411.258 61.0386ZM338.878 56.4074L337.462 55.3178C337.814 54.8165 338.166 54.3261 338.519 53.8467L339.882 54.9364C339.533 55.4594 339.185 55.9389 338.857 56.4074H338.878ZM406.966 54.4678C406.606 54.0101 406.236 53.5634 405.856 53.1166L407.167 51.9397C407.558 52.3974 407.938 52.8551 408.308 53.3345L406.966 54.4678ZM343.92 50.4251L342.715 49.1393C343.149 48.7143 343.582 48.3002 344.026 47.897L345.157 49.27C344.734 49.6296 344.311 50.0219 343.899 50.4251H343.92ZM401.606 48.7797C401.173 48.3983 400.729 48.0278 400.285 47.69L401.342 46.2843C401.807 46.6657 402.262 47.058 402.716 47.4612L401.606 48.7797ZM349.925 45.5106L348.952 44.0287C349.449 43.68 349.946 43.3531 350.453 43.0371L351.362 44.5735C350.855 44.835 350.369 45.151 349.904 45.467L349.925 45.5106ZM395.38 44.2139C394.894 43.9197 394.397 43.6255 393.889 43.3531L394.703 41.773C395.232 42.0563 395.76 42.3615 396.257 42.6666L395.38 44.2139ZM356.701 41.7403L356.014 40.0949C356.549 39.8552 357.099 39.6264 357.663 39.4084L358.286 41.0756C357.694 41.2391 357.176 41.4679 356.648 41.6968L356.701 41.7403ZM388.414 40.825C387.874 40.6289 387.357 40.4327 386.796 40.2584L387.325 38.5476C387.896 38.7328 388.456 38.929 389.016 39.1469L388.414 40.825ZM363.995 39.2777L363.604 37.5233C364.174 37.3925 364.756 37.2618 365.348 37.1528L365.665 38.9072C365.062 38.9725 364.502 39.1033 363.952 39.2341L363.995 39.2777ZM380.982 38.7873C380.422 38.6892 379.862 38.6021 379.291 38.5258L379.513 36.7496C380.105 36.8259 380.697 36.9131 381.278 37.022L380.982 38.7873ZM371.606 38.1989L371.532 36.4009C372.113 36.4009 372.705 36.4009 373.308 36.4009V38.188C372.705 38.1117 372.134 38.1226 371.563 38.1553L371.606 38.1989Z" fill="#EBEBEB"/>
<path d="M113.158 76.6487C120.355 49.6407 104.95 21.7322 78.7492 14.3133C52.5488 6.89432 25.4748 22.7743 18.2776 49.7823C11.0805 76.7903 26.4857 104.699 52.6861 112.118C78.8865 119.537 105.961 103.657 113.158 76.6487Z" fill="#EBEBEB"/>
<path d="M85.6968 109.169C109.706 99.079 121.234 70.8368 111.446 46.0879C101.658 21.3391 74.26 9.45557 50.2511 19.5453C26.2423 29.635 14.7141 57.8773 24.5021 82.6261C34.2902 107.375 61.688 119.259 85.6968 109.169Z" fill="#F1E0EE"/>
<path d="M67.9753 109.682C92.2621 109.682 111.951 89.3867 111.951 64.3512C111.951 39.3158 92.2621 19.0206 67.9753 19.0206C43.6884 19.0206 24 39.3158 24 64.3512C24 89.3867 43.6884 109.682 67.9753 109.682Z" fill="white"/>
<path opacity="0.5" d="M110.966 54.7185C90.8814 67.228 58.0162 87.7467 39.6227 98.9922C34.4233 94.4727 30.3096 88.7738 27.6035 82.3419L88.4078 24.2075C94.101 27.2868 99.0708 31.6142 102.968 36.8853C106.865 42.1564 109.595 48.2434 110.966 54.7185Z" fill="#EBEBEB"/>
<path opacity="0.5" d="M111.928 65.9313C111.769 70.9756 110.786 75.9562 109.021 80.6638L54.1681 107.405C51.7773 106.596 49.4604 105.571 47.2441 104.343C63.8089 94.47 94.0842 76.5121 111.928 65.9313Z" fill="#EBEBEB"/>
<path d="M68.3965 22.3115H67.5508V29.1873H68.3965V22.3115Z" fill="#C7C7C7"/>
<path d="M47.9492 27.7116L47.2168 28.1475L50.5519 34.1021L51.2843 33.6663L47.9492 27.7116Z" fill="#C7C7C7"/>
<path d="M32.8623 42.9405L32.4395 43.6955L38.2161 47.1334L38.6389 46.3785L32.8623 42.9405Z" fill="#C7C7C7"/>
<path d="M33.8617 63.9154H27.1914V64.7871H33.8617V63.9154Z" fill="#C7C7C7"/>
<path d="M38.2161 81.5551L32.4395 84.993L32.8623 85.748L38.6389 82.31L38.2161 81.5551Z" fill="#C7C7C7"/>
<path d="M50.5499 94.581L47.2188 100.538L47.9514 100.973L51.2825 95.0163L50.5499 94.581Z" fill="#C7C7C7"/>
<path d="M68.3965 99.5261H67.5508V106.402H68.3965V99.5261Z" fill="#C7C7C7"/>
<path d="M85.4004 94.5886L84.668 95.0244L88.0031 100.979L88.7355 100.543L85.4004 94.5886Z" fill="#C7C7C7"/>
<path d="M98.2275 80.9675L97.8047 81.7259L103.608 85.1639L104.031 84.4055L98.2275 80.9675Z" fill="#C7C7C7"/>
<path d="M108.766 63.9154H102.096V64.7871H108.766V63.9154Z" fill="#C7C7C7"/>
<path d="M103.093 42.9605L97.3164 46.3985L97.7392 47.1534L103.516 43.7155L103.093 42.9605Z" fill="#C7C7C7"/>
<path d="M88.0031 27.7183L84.6699 33.6742L85.4025 34.1098L88.7356 28.1539L88.0031 27.7183Z" fill="#C7C7C7"/>
<path d="M68.6199 25.4169L70.0681 67.4132L65.8926 67.3587L67.4888 25.406L68.6199 25.4169Z" fill="#C7C7C7"/>
<path d="M93.9897 49.706L66.5897 67.7402L64.5918 63.959L93.4506 48.6817L93.9897 49.706Z" fill="#A6A6A6"/>
<path d="M69.3796 64.3513C69.3796 64.6422 69.2959 64.9267 69.139 65.1686C68.9822 65.4105 68.7594 65.599 68.4986 65.7104C68.2378 65.8217 67.9509 65.8509 67.6741 65.7941C67.3972 65.7373 67.143 65.5972 66.9434 65.3915C66.7438 65.1858 66.6079 64.9236 66.5528 64.6383C66.4977 64.3529 66.526 64.0571 66.634 63.7883C66.742 63.5195 66.9249 63.2898 67.1596 63.1281C67.3943 62.9665 67.6702 62.8802 67.9525 62.8802C68.331 62.8802 68.6939 63.0352 68.9616 63.3111C69.2292 63.587 69.3796 63.9611 69.3796 64.3513Z" fill="#C7C7C7"/>
<path d="M44.6338 308.679L30.7647 308.973L23.7244 309.104C21.3671 309.104 18.9992 309.104 16.6418 309.159H16.1767V308.679L16.1133 296.486V295.93H16.6418L30.6378 295.995C35.3102 295.995 39.972 296.115 44.6338 296.17H44.9298V296.464C44.9298 298.523 44.8346 300.583 44.7923 302.621L44.6338 308.679ZM44.6338 308.679L44.4858 302.512C44.4858 300.485 44.3695 298.48 44.3484 296.486L44.6338 296.78C39.972 296.834 35.3102 296.954 30.6378 296.954L16.6418 297.031L17.1704 296.486V308.679L16.6947 308.189C18.9992 308.189 21.3036 308.189 23.6187 308.243L30.5744 308.374L44.6338 308.679Z" fill="#EBEBEB"/>
<path d="M29.0205 324.055L15.1514 324.349L8.11111 324.48C5.75378 324.48 3.38588 324.48 1.02855 324.534H0.563427V324.055L0.5 311.883V311.327H1.02855L15.0245 311.393C19.6863 311.393 24.3587 311.512 29.0205 311.567H29.3165V311.883C29.3165 313.942 29.2319 316.002 29.1791 318.04L29.0205 324.055ZM29.0205 324.055L28.8725 317.887C28.8197 315.86 28.7562 313.855 28.7351 311.861L29.0205 312.155C24.3587 312.21 19.6863 312.33 15.0245 312.33L1.02855 312.395L1.5571 311.861L1.50424 324.055L1.02855 323.564C3.33302 323.564 5.6375 323.564 7.95254 323.564L14.9082 323.695L29.0205 324.055Z" fill="#EBEBEB"/>
<path d="M315.262 172.938L301.382 173.243L294.342 173.363C291.995 173.417 289.627 173.363 287.27 173.428H286.805V172.938L286.752 160.744V160.199H287.281L301.276 160.276C305.938 160.276 310.611 160.396 315.272 160.45H315.568V160.744C315.568 162.815 315.484 164.874 315.431 166.912L315.262 172.938ZM315.262 172.938L315.114 166.781C315.114 164.754 314.998 162.738 314.976 160.744L315.262 161.049C310.6 161.049 305.928 161.213 301.266 161.224L287.27 161.289L287.798 160.744L287.735 172.938L287.27 172.458C289.574 172.458 291.879 172.458 294.183 172.458L301.139 172.578L315.262 172.938Z" fill="#EBEBEB"/>
<path d="M299.649 188.313L285.769 188.618L278.686 188.749C276.34 188.749 273.972 188.749 271.614 188.814H271.139V188.324V176.131V175.586H271.667L285.663 175.662C290.325 175.662 294.987 175.782 299.659 175.836H299.945V176.131C299.945 178.201 299.849 180.26 299.807 182.298L299.649 188.313ZM299.649 188.313L299.501 182.156C299.448 180.13 299.374 178.114 299.353 176.12L299.649 176.425C294.976 176.479 290.314 176.588 285.653 176.599L271.657 176.664L272.185 176.12L272.122 188.313L271.657 187.834C273.961 187.834 276.266 187.834 278.57 187.888L285.526 188.008L299.649 188.313Z" fill="#EBEBEB"/>
<path d="M284.087 172.938L270.218 173.243L263.177 173.363C260.82 173.417 258.463 173.363 256.095 173.428H255.63V172.938L255.566 160.744V160.199H256.095L270.091 160.276C274.763 160.276 279.425 160.396 284.087 160.45H284.383V160.744C284.383 162.815 284.288 164.874 284.245 166.912L284.087 172.938ZM284.087 172.938L283.939 166.781C283.939 164.754 283.823 162.738 283.801 160.744L284.087 161.049C279.425 161.049 274.763 161.213 270.091 161.224L256.095 161.289L256.624 160.744L256.571 172.938L256.095 172.458C258.41 172.458 260.704 172.458 263.019 172.458L269.975 172.578L284.087 172.938Z" fill="#EBEBEB"/>
<path d="M442.177 324.055L428.297 324.349L421.257 324.48C418.91 324.48 416.542 324.48 414.185 324.534H413.709V324.055L413.656 311.883V311.327H414.185L428.181 311.393C432.843 311.393 437.515 311.512 442.177 311.567H442.462V311.883C442.462 313.942 442.378 316.002 442.325 318.04L442.177 324.055ZM442.177 324.055L442.029 317.887C442.029 315.86 441.902 313.855 441.891 311.861L442.177 312.155C437.515 312.21 432.843 312.33 428.181 312.33L414.185 312.395L414.713 311.861L414.65 324.055L414.185 323.564C416.489 323.564 418.794 323.564 421.098 323.564L428.054 323.695L442.177 324.055Z" fill="#EBEBEB"/>
<path d="M426.562 25.8311L412.682 26.1253L405.642 26.2561C403.295 26.2561 400.927 26.2561 398.57 26.3106H398.137V25.8202V13.6267V13.071H398.676L412.672 13.1364C417.334 13.1364 421.995 13.2562 426.668 13.3107H426.953V13.6049C426.953 15.6753 426.858 17.7239 426.816 19.7616L426.562 25.8311ZM426.562 25.8311L426.414 19.6635C426.361 17.6367 426.287 15.6317 426.266 13.6376L426.562 13.9318C421.89 13.9318 417.228 14.1062 412.566 14.1062L398.57 14.1825L399.099 13.6376L399.035 25.8311L398.57 25.3408C400.875 25.3408 403.169 25.3408 405.484 25.4062L412.439 25.526L426.562 25.8311Z" fill="#EBEBEB"/>
<path d="M442.177 41.2063L428.297 41.5006L421.257 41.6313C418.91 41.6313 416.542 41.6313 414.185 41.6858H413.709V41.2063L413.656 29.0128V28.4571H414.185L428.181 28.5225C432.843 28.5225 437.515 28.6423 442.177 28.6968H442.462V28.991C442.462 31.0505 442.378 33.11 442.325 35.1477L442.177 41.2063ZM442.177 41.2063L442.029 35.0388C442.029 33.012 441.902 31.0069 441.891 29.0128L442.177 29.307C437.515 29.307 432.843 29.4814 428.181 29.4814L414.185 29.5577L414.713 29.0128L414.65 41.2063L414.185 40.716C416.489 40.716 418.794 40.716 421.098 40.7814L428.054 40.9012L442.177 41.2063Z" fill="#EBEBEB"/>
<path d="M44.6338 25.8311L30.7647 26.1253L23.7244 26.2561C21.3671 26.2561 18.9992 26.2561 16.6418 26.3106H16.1767V25.8202L16.1133 13.6376V13.0818H16.6418L30.6378 13.1472C35.3102 13.1472 39.972 13.2671 44.6338 13.3216H44.9298V13.6158C44.9298 15.6862 44.8346 17.7348 44.7923 19.7725L44.6338 25.8311ZM44.6338 25.8311L44.4858 19.6635C44.4858 17.6367 44.3695 15.6317 44.3484 13.6376L44.6338 13.9318C39.972 13.9318 35.3102 14.1061 30.6378 14.1061L16.6418 14.1824L17.1704 13.6376V25.8311L16.6418 25.2972C18.9463 25.2972 21.2508 25.2972 23.5658 25.3625L30.5215 25.4824L44.6338 25.8311Z" fill="#EBEBEB"/>
<path d="M221.605 451.395C337.207 451.395 430.921 440.213 430.921 426.419C430.921 412.626 337.207 401.444 221.605 401.444C106.003 401.444 12.2891 412.626 12.2891 426.419C12.2891 440.213 106.003 451.395 221.605 451.395Z" fill="#EBEBEB"/>
<path d="M73.2084 192.258H59.8678V177.471H45.5547V163.763H59.8678V148.965H73.1661V163.763H87.5109V177.471H73.2084V192.258ZM61.8023 190.307H71.3162V175.52H85.661V165.713H71.3162V150.915H61.8023V165.713H47.4469V175.52H61.8023V190.307Z" fill="#814A95"/>
<path d="M395.656 290.002H382.347V275.215H368.002V261.507H382.347V246.709H395.656V261.507H410V275.215H395.656V290.002ZM384.25 288.051H393.763V273.265H408.108V263.457H393.763V248.681H384.25V263.479H369.894V273.286H384.25V288.051Z" fill="#814A95"/>
<path d="M325.77 37.9264V51.6346H311.425V66.4324H298.127V51.6346H283.771V37.9264H298.127V23.1395H311.425V37.9264H325.77Z" fill="#814A95"/>
<path d="M197.402 40.7488C200.161 40.6616 211.715 37.3163 221.271 47.0472C230.32 56.2549 237.857 87.5723 240.511 94.2303C243.164 100.888 252.139 100.485 255.426 108.113C258.28 114.727 253.798 118.072 254.073 123.216C254.295 127.215 259.052 132.478 256.473 138.864C254.137 144.672 248.397 144.475 245.289 146.687C242.181 148.9 241.335 157.257 235.447 160.45C229.559 163.643 223.164 158.696 219.865 159.273C216.567 159.851 214.273 170.933 203.364 171.794C192.455 172.655 187.888 163.774 183.152 162.651C178.417 161.529 167.751 166.574 161.767 161.681C155.784 156.789 153.723 149.292 150.985 146.862C148.247 144.432 143.522 145.663 139.663 139.615C135.805 133.568 141.027 128.468 140.985 122.682C140.985 118.65 137 115.588 138.448 109.181C140.446 100.376 150.53 100.529 152.962 91.4189C154.865 84.2815 156.44 54.3698 172.307 44.3992C183.3 37.5887 197.402 40.7488 197.402 40.7488Z" fill="#2B2B2B"/>
<path d="M239.932 92.6176C240.808 93.9819 241.994 95.1044 243.388 95.8866L247.374 98.4255C250.068 99.9355 252.515 101.873 254.625 104.168C255.607 105.263 256.33 106.578 256.737 108.009C257.144 109.44 257.225 110.949 256.972 112.417C256.633 113.906 256.073 115.332 255.312 116.645C254.428 118.086 253.755 119.654 253.315 121.298C253.167 123.107 253.605 124.916 254.562 126.441C255.291 127.901 256.074 129.274 256.729 130.691C258.05 133.481 258.759 136.564 257.786 139.408C257.359 140.821 256.484 142.045 255.302 142.884C254.038 143.71 252.63 144.276 251.158 144.552C249.657 144.911 248.114 145.118 246.56 145.391C244.976 145.529 243.469 146.155 242.236 147.189C243.551 146.338 245.071 145.885 246.623 145.881C248.177 145.739 249.741 145.674 251.317 145.434C252.934 145.225 254.496 144.692 255.915 143.865C257.372 142.94 258.488 141.54 259.086 139.888C260.429 136.619 259.52 132.892 258.188 129.961C257.532 128.457 256.75 127.03 256.074 125.602C255.311 124.41 254.941 122.996 255.016 121.57C255.545 118.89 257.966 116.122 258.515 112.7C258.805 110.987 258.69 109.227 258.18 107.57C257.671 105.912 256.781 104.405 255.587 103.177C253.279 100.904 250.635 99.0241 247.754 97.6083L243.526 95.4289C242.144 94.7714 240.918 93.8121 239.932 92.6176Z" fill="#2B2B2B"/>
<path d="M159.234 63.3597C157.056 68.7101 156.062 74.4527 154.561 79.9665C153.8 82.7233 153.134 85.5129 152.183 88.1717C151.756 89.4734 151.192 90.7231 150.502 91.8984C150.362 92.1707 150.18 92.4174 149.963 92.6285C149.771 92.8671 149.546 93.0762 149.297 93.2497C148.768 93.6637 148.24 94.0451 147.616 94.4156C145.198 95.9206 142.856 97.5499 140.597 99.2974C138.208 101.117 136.427 103.657 135.502 106.566C135.071 108.055 135.012 109.634 135.333 111.153C135.72 112.611 136.373 113.979 137.257 115.185C138.937 117.506 140.544 119.838 141.073 122.725C140.967 119.783 139.402 117.125 137.986 114.695C137.248 113.544 136.724 112.262 136.443 110.913C136.242 109.59 136.373 108.236 136.823 106.98C137.79 104.423 139.453 102.21 141.612 100.605C143.859 98.9364 146.188 97.3871 148.589 95.963C149.181 95.5598 149.773 95.1457 150.354 94.6771C150.958 94.1765 151.461 93.5582 151.834 92.8574C152.576 91.5573 153.176 90.1757 153.62 88.7384C154.515 85.9762 155.242 83.1594 155.798 80.3043L157.405 71.8048C157.854 68.9553 158.464 66.1355 159.234 63.3597Z" fill="#2B2B2B"/>
<path d="M148.09 145.402C149.517 146.84 150.003 148.943 150.754 150.85C151.504 152.757 152.202 154.708 153.026 156.614C153.828 158.559 154.827 160.411 156.007 162.139C157.218 163.964 158.839 165.46 160.733 166.498C164.887 168.361 169.306 167.326 173.058 165.964C174.972 165.267 176.811 164.471 178.693 163.785C180.524 163.003 182.51 162.682 184.486 162.847C182.503 162.321 180.421 162.344 178.45 162.913C176.473 163.392 174.57 164.003 172.646 164.569C168.904 165.659 164.824 166.345 161.494 164.787C159.851 163.878 158.436 162.587 157.361 161.017C156.193 159.402 155.154 157.693 154.253 155.906C153.301 154.108 152.445 152.256 151.547 150.458C151.081 149.532 150.606 148.616 150.088 147.723C149.624 146.786 148.937 145.988 148.09 145.402Z" fill="#2B2B2B"/>
<path d="M251.887 394.797H160.321L154.877 278.048H236.696L251.887 394.797Z" fill="#37474F"/>
<path d="M211.072 278.048L201.4 357.116L201.389 357.235L201.178 358.881L200.787 362.117L200.343 365.724L200.184 367.01L200.057 368.045L196.791 394.797H160.321L154.877 278.048H211.072Z" fill="#2B2B2B"/>
<path d="M233.292 394.797H230.871C230.745 393.762 230.628 392.737 230.502 391.702C227.246 364.46 224.085 337.218 221.336 309.976C221.083 307.481 220.829 304.974 220.586 302.479C220.586 302.087 221.199 302.011 221.252 302.403C221.474 304.081 221.706 305.759 221.918 307.437C225.829 336.532 229.55 365.67 233.292 394.797Z" fill="#2B2B2B"/>
<path d="M228.387 277.961C228.39 277.99 228.39 278.019 228.387 278.048C228.144 279.214 225.469 292.007 221.939 307.47C221.748 308.309 221.558 309.159 221.357 310.009C219.793 316.754 218.091 323.891 216.368 330.713C212.647 345.521 208.831 358.794 206.23 363.163C205.947 363.704 205.554 364.176 205.078 364.547C204.232 365.059 202.435 365.975 200.205 367.053L198.725 367.762L197.456 368.361C192.382 370.758 186.283 373.504 183.46 374.714V374.943L182.477 394.818H96.2285L105.362 338.155L116.387 278.016L228.387 277.961Z" fill="#37474F"/>
<path d="M212.532 360.657C202.497 364.422 192.799 369.078 183.546 374.572C183.475 374.615 183.422 374.683 183.398 374.763C183.373 374.843 183.379 374.93 183.413 375.007C183.448 375.083 183.509 375.144 183.584 375.176C183.659 375.209 183.744 375.211 183.821 375.183C193.578 370.824 203.536 366.727 213.05 361.856C213.204 361.785 213.324 361.654 213.385 361.491C213.445 361.329 213.441 361.148 213.372 360.989C213.303 360.831 213.176 360.706 213.019 360.644C212.861 360.582 212.686 360.586 212.532 360.657Z" fill="#2B2B2B"/>
<path d="M215.469 291.746C215.469 291.397 214.856 291.321 214.856 291.746C214.93 303.732 214.19 314.193 213.218 325.362C212.763 330.538 208.725 359.142 200.004 357.094C198.545 356.745 197.795 355.263 197.573 352.997C197.298 350.261 198.291 346.927 198.725 344.214C199.697 338.221 200.469 332.227 200.966 326.147C201.986 314.872 201.869 303.519 200.617 292.269C200.604 292.202 200.569 292.141 200.518 292.098C200.467 292.055 200.403 292.031 200.337 292.031C200.271 292.031 200.207 292.055 200.155 292.098C200.104 292.141 200.069 292.202 200.057 292.269C200.057 307.917 199.666 323.532 197.403 339.038C196.346 346.48 192.668 357.693 200.226 358.848C207.784 360.003 212.911 341.228 213.841 336.085C216.463 321.69 216.569 306.26 215.469 291.746Z" fill="#2B2B2B"/>
<path d="M200.238 357.824C199.457 359.753 198.8 361.733 198.272 363.752C197.716 365.315 197.44 366.969 197.458 368.633C197.458 368.949 197.902 368.982 198.06 368.764C198.968 367.301 199.653 365.702 200.09 364.024C200.756 362.183 201.454 360.363 202.067 358.51C202.155 358.26 202.143 357.984 202.034 357.743C201.925 357.502 201.728 357.316 201.485 357.225C201.243 357.134 200.975 357.146 200.741 357.258C200.507 357.37 200.326 357.574 200.238 357.824Z" fill="#2B2B2B"/>
<path d="M135.722 363.774C134.855 374.125 133.83 384.477 132.751 394.797H131.811C132.868 384.445 134.073 374.093 135.373 363.763C135.405 363.534 135.743 363.534 135.722 363.774Z" fill="#2B2B2B"/>
<path d="M194.909 173.559C202.806 200.104 236.982 294.917 259.9 309.366C274.9 318.813 350.239 324.185 364.732 317.255C372.777 313.398 370.271 250.676 360.789 250.327C348.96 249.891 290.809 248.278 284.371 245.107C277.934 241.936 234.498 182.059 217.943 163.915C189.412 132.62 189.645 155.884 194.909 173.559Z" fill="#AD6359"/>
<path d="M342.767 245.62L332.027 322.333C332.027 322.333 270.842 324.185 254.161 310.118C230.387 290.089 196.295 188.749 192.426 172.894C183.261 135.3 203.684 141.577 219.752 159.818C230.186 171.696 271.233 232.456 286.434 243.647C290.747 246.862 342.767 245.62 342.767 245.62Z" fill="#EBEBEB"/>
<path d="M316.951 318.574C318.209 307.187 325.006 260.821 327.131 250.872C327.279 250.185 327.744 250.109 327.68 250.872C324.71 285.077 319.224 307.535 317.395 318.628C317.342 318.89 316.919 318.868 316.951 318.574Z" fill="#2B2B2B"/>
<path d="M236.728 249.564L246.95 322.028C246.95 322.028 132.382 323.771 103.936 321.712C103.936 321.712 127.139 186.232 157.721 151.994C173.017 134.875 190.977 136.161 202.425 148.126C205.322 151.155 239.878 198.251 243.515 216.22C246.686 232.086 236.728 249.564 236.728 249.564Z" fill="#814A95"/>
<path d="M192.086 241.479C198.195 240.91 204.335 240.805 210.459 241.163C213.493 241.392 216.505 241.751 219.518 242.187C221.019 242.405 222.531 242.568 224.032 242.721C225.612 242.923 227.209 242.923 228.789 242.721C228.926 242.721 228.958 242.917 228.789 242.95C227.326 243.295 225.843 243.542 224.349 243.691C222.899 243.794 221.444 243.794 219.994 243.691C216.907 243.495 213.831 243.157 210.744 242.928C204.528 242.47 198.313 242.002 192.076 242.013C191.812 242.013 191.801 241.511 192.086 241.479Z" fill="#2B2B2B"/>
<path d="M178.26 249.771C183.126 248.311 188.067 247.132 193.06 246.241C195.555 245.805 198.06 245.522 200.586 245.304C201.781 245.206 202.997 245.118 204.202 245.053C205.407 244.988 206.866 245.053 208.187 245.053C208.324 245.053 208.367 245.26 208.187 245.282C206.94 245.402 205.703 245.739 204.466 245.946L200.724 246.535C198.24 246.938 195.755 247.374 193.25 247.755C188.261 248.507 183.292 249.314 178.324 250.251C178.007 250.218 177.964 249.826 178.26 249.771Z" fill="#2B2B2B"/>
<path d="M177.603 394.797H87.2109C97.7819 326.343 110.467 256.233 122.677 220.949C148.956 144.879 170.405 141.969 170.405 141.969V142.056C170.521 145.271 173.576 231.497 175.923 322.693C176.557 346.862 177.138 371.38 177.603 394.797Z" fill="#EBEBEB"/>
<path d="M162.679 353.945C162.679 351.286 162.108 338.689 161.876 336.15C161.876 335.856 161.77 335.267 161.537 335.267C158.165 335.267 146.463 336.499 134.676 336.499C126.248 336.335 117.837 335.659 109.486 334.472C109.095 334.592 109.095 348.431 108.883 355.121C108.46 369.08 109.084 384.87 111.97 387.812C117.361 393.26 131.727 392.792 136.283 392.748C140.839 392.705 156.897 392.694 160.67 384.151C162.277 380.326 162.721 360.842 162.679 353.945ZM160.565 368.11C160.374 374.997 160.163 381.187 157.594 384.815C155.396 387.877 149.19 390.961 134.909 390.95C124.592 390.95 115.881 389 113.503 386.166C110.649 382.778 110.331 373.036 110.331 367.217C110.331 359.186 110.331 352.768 110.331 344.748C130.279 349.521 152.224 347.167 160.544 345.434C160.575 345.772 160.755 362.717 160.596 368.11H160.565ZM160.618 344.137C134.708 347.57 118.672 344.704 110.363 343.048C110.363 340.476 110.363 338.471 110.363 335.889C113.926 336.815 125.913 338.286 134.898 338.286C143.26 338.286 155.544 337.087 160.755 336.444C160.607 338.558 160.713 343.157 160.649 344.127L160.618 344.137Z" fill="#F1E0EE"/>
<path d="M167.689 177.732C162.605 199.428 136.452 276.599 129.951 283.29C122.203 291.266 88.4177 315.795 76.6416 283.137C68.4809 260.526 123.936 181.263 150.142 155.645C162.933 143.211 176.199 141.381 167.689 177.732Z" fill="#EBEBEB"/>
<path d="M158.745 217.266C157.16 220.284 155.415 223.216 153.703 226.158C154.105 225.068 154.496 223.979 154.876 222.889C156.525 218.192 158.048 213.441 159.728 208.723C159.792 208.57 159.559 208.516 159.496 208.658C157.73 212.744 155.859 216.798 154.136 220.917C152.413 225.036 150.965 229.002 149.4 233.088C146.324 241.315 143.206 249.532 140.352 257.846C138.663 262.44 137.216 267.125 136.018 271.881C136.018 272.012 136.176 272.11 136.24 271.979C138.132 268.045 139.622 263.904 141.145 259.807C142.667 255.71 144.189 251.656 145.669 247.559C147.149 243.462 148.724 239.223 150.288 235.071C151.071 232.979 151.885 230.909 152.677 228.828C155.105 225.194 157.17 221.317 158.84 217.255C158.861 217.255 158.766 217.212 158.745 217.266Z" fill="#2B2B2B"/>
<path d="M169.454 142.067C166.635 148.199 163.901 154.373 161.251 160.592C158.608 166.803 155.881 172.971 153.323 179.225L153.006 180.01L153.693 180.489L164.782 188.215L164.518 186.57C161.505 191.212 158.587 195.908 155.649 200.594L155.363 201.052L155.522 201.553C158.492 211.044 161.357 220.568 164.475 230.015C167.594 239.463 170.649 248.921 173.926 258.347C171.41 248.7 168.774 239.1 166.019 229.547C163.355 219.958 160.437 210.456 157.625 200.91L157.499 201.869C160.48 197.216 163.482 192.574 166.399 187.867L167.002 186.886L166.082 186.265L154.856 178.746L155.236 180.01C157.752 173.744 160.078 167.402 162.509 161.104C164.941 154.806 167.192 148.431 169.454 142.067Z" fill="#F1E0EE"/>
<path d="M257.999 394.797H225.356C223.421 371.227 221.434 346.589 219.468 322.366C216.666 287.747 213.897 253.967 211.317 225.308C209.012 198.638 204.94 172.163 199.129 146.066C198.981 145.402 198.886 144.977 198.865 144.922C198.844 144.868 198.865 144.922 198.865 144.922C200.171 145.76 201.338 146.809 202.322 148.028C202.354 148.067 202.389 148.103 202.427 148.137L202.776 148.54C202.87 148.636 202.958 148.738 203.04 148.845C208.654 155.198 218.041 168.187 226.392 181.535C234.447 194.394 241.55 207.568 243.305 215.392L243.4 215.828C243.453 216.078 243.496 216.318 243.538 216.558C243.883 218.632 244.077 220.73 244.119 222.834C244.198 231.432 242.04 239.894 237.872 247.341C237.844 247.405 237.812 247.467 237.777 247.527C237.502 248.006 237.333 248.257 237.333 248.257V248.376L248.03 323.869L257.999 394.797Z" fill="#EBEBEB"/>
<path d="M232.236 192.585C229.064 187.333 225.756 182.135 222.616 176.839C222.521 176.686 222.754 176.512 222.859 176.654C226.031 181.012 229.202 185.371 232.278 189.806C231.221 187.442 230.259 185.066 229.339 182.647C229.234 182.375 229.604 182.146 229.73 182.418C231.157 185.524 232.437 188.684 233.705 191.866C236.466 195.811 238.912 199.979 241.02 204.332C245.386 213.583 247.268 223.695 244.9 233.807C244.258 236.601 243.3 239.308 242.046 241.871C241.2 243.615 238.441 247.407 238.462 247.516C240.259 257.846 241.633 268.296 243.018 278.691C244.403 289.087 245.893 299.722 247.088 310.292C247.754 316.263 248.145 322.279 249.033 328.239C249.033 328.457 248.737 328.544 248.705 328.326C247.976 323.139 246.887 318.007 245.989 312.842C245.09 307.677 244.255 302.512 243.441 297.325C241.813 286.864 240.354 276.359 238.885 265.866C238.06 259.938 237.151 253.999 236.496 248.039C236.422 247.385 239.022 243.157 239.794 241.501C240.822 239.306 241.664 237.023 242.31 234.679C243.633 229.914 244.042 224.928 243.515 220.001C242.405 209.954 237.352 201.008 232.236 192.585Z" fill="#2B2B2B"/>
<path d="M199.127 146.066C202.496 151.34 205.924 156.567 209.413 161.747C212.922 166.912 216.347 172.142 219.92 177.253L219.994 176.033L211.41 185.306L210.702 186.069L211.453 186.82C215.068 190.427 218.747 193.969 222.415 197.521L222.108 196.606C220.776 206.217 219.349 215.806 218.165 225.439C216.981 235.071 215.723 244.693 214.698 254.348C216.474 244.802 218.091 235.246 219.645 225.667C221.199 216.089 222.647 206.5 224.127 196.922L224.212 196.377L223.821 195.995C220.195 192.4 216.569 188.793 212.89 185.262V186.777L221.347 177.34L221.876 176.752L221.421 176.12C217.816 171.031 214.021 166.051 210.385 161.006C206.749 155.961 202.943 151.014 199.127 146.066Z" fill="#F1E0EE"/>
<path d="M157.858 158.314C157.002 145.424 172.15 140.302 181.516 138.973C192.605 137.403 199.994 138.351 205.332 149.444C210.956 161.137 213.906 174.703 216.115 187.507C216.527 189.893 220.142 189.294 219.73 186.897C217.183 172.153 213.525 144.639 199.275 136.641C186.157 129.264 152.763 137.077 154.243 158.914C154.402 161.344 158.017 160.723 157.858 158.314Z" fill="#455A64"/>
<path d="M227.33 192.857C227.608 194.562 227.387 196.313 226.697 197.889C226.007 199.464 224.878 200.792 223.454 201.705C222.03 202.617 220.374 203.073 218.699 203.013C217.023 202.954 215.402 202.382 214.042 201.37C212.682 200.359 211.645 198.954 211.061 197.333C210.478 195.712 210.375 193.95 210.766 192.269C211.157 190.588 212.024 189.064 213.257 187.893C214.489 186.721 216.032 185.953 217.689 185.687C218.779 185.505 219.893 185.546 220.967 185.808C222.042 186.07 223.055 186.547 223.951 187.213C224.846 187.879 225.605 188.72 226.185 189.689C226.765 190.657 227.154 191.734 227.33 192.857Z" fill="#2B2B2B"/>
<path d="M224.023 193.413C224.175 194.432 224.032 195.475 223.61 196.41C223.188 197.345 222.507 198.13 221.653 198.666C220.798 199.203 219.809 199.466 218.81 199.423C217.81 199.381 216.845 199.034 216.037 198.427C215.228 197.82 214.612 196.979 214.267 196.012C213.921 195.044 213.861 193.993 214.095 192.99C214.328 191.987 214.845 191.079 215.579 190.378C216.313 189.678 217.232 189.217 218.219 189.054C218.879 188.944 219.552 188.97 220.202 189.13C220.851 189.29 221.463 189.581 222.003 189.986C222.543 190.391 222.999 190.903 223.346 191.491C223.692 192.079 223.923 192.732 224.023 193.413Z" fill="#EBEBEB"/>
<path d="M170.577 198.698C179.827 234.908 178.4 243.756 175.482 247.919C173.283 250.831 170.461 253.18 167.237 254.784L166.18 252.397L166.708 253.585L166.18 252.397C168.997 250.971 171.47 248.916 173.421 246.382C175.535 243.375 177.269 235.224 168.135 199.363L170.577 198.698Z" fill="#C7C7C7"/>
<path d="M161.664 254.594L163.16 257.378C163.474 257.962 164.188 258.173 164.755 257.85L170.433 254.608C171 254.284 171.205 253.548 170.891 252.964L169.395 250.18C169.081 249.596 168.367 249.385 167.8 249.708L162.122 252.95C161.556 253.274 161.35 254.01 161.664 254.594Z" fill="#2B2B2B"/>
<path d="M147.604 199.646C140.638 226.888 138.957 241.882 142.319 246.666C144.269 249.197 146.743 251.249 149.56 252.67L148.503 255.067C145.278 253.463 142.457 251.114 140.257 248.202C136.261 242.514 137.678 228.25 145.152 198.981L147.604 199.646Z" fill="#C7C7C7"/>
<path d="M146.366 250.456L144.872 253.24C144.559 253.825 144.764 254.561 145.332 254.884L151.012 258.121C151.579 258.445 152.293 258.233 152.606 257.648L154.1 254.864C154.413 254.279 154.208 253.543 153.641 253.22L147.961 249.982C147.394 249.659 146.68 249.871 146.366 250.456Z" fill="#2B2B2B"/>
<path d="M144.296 197.794C145.459 191.753 146.98 185.792 148.852 179.945C149.96 177.363 151.72 175.135 153.947 173.494C154.455 173.439 154.233 168.841 153.947 165.092C153.715 161.823 153.377 157.922 154.148 156.854C154.594 156.361 155.208 156.065 155.861 156.031C156.515 155.996 157.155 156.225 157.647 156.669C158.525 157.639 158.578 161.518 158.704 164.842C158.831 168.601 159.085 173.189 159.592 173.189C161.846 174.695 163.713 176.74 165.036 179.149C167.501 184.92 169.536 190.876 171.125 196.965C171.939 200.845 170.702 201.324 169.624 201.716C168.102 202.25 167.129 201.172 165.935 196.878C164.032 190.079 161.633 178.626 157.034 178.659C152.478 179.138 150.628 191.266 149.169 198.033C148.25 202.272 147.383 202.675 145.808 202.305C144.708 202.032 143.577 201.553 144.296 197.794Z" fill="#2B2B2B"/>
<path d="M199.879 142.754C199.879 142.754 200.936 163.752 197.173 164.101C185.767 165.19 173.082 149.019 172.384 146.459C172.204 145.805 173.124 129.503 173.875 116.83C174.35 108.68 174.763 102.033 174.763 102.033L203.907 119.249L200.154 141.185L199.879 142.754Z" fill="#AD6359"/>
<path d="M203.905 119.249L200.152 141.185C194.358 139.256 189.023 136.09 184.495 131.894C179.967 127.698 176.348 122.565 173.873 116.83C174.349 108.68 174.761 102.033 174.761 102.033L178.429 104.038L203.905 119.249Z" fill="#2B2B2B"/>
<path d="M233.905 84.3143C239.984 122.911 218.239 131.018 210.163 132.358C202.837 133.579 177.731 136.771 167.816 99.025C157.9 61.2785 173.387 46.1755 190.015 42.4706C206.643 38.7657 227.827 45.7178 233.905 84.3143Z" fill="#AD6359"/>
<path d="M224.773 79.5524C223.898 79.4961 223.026 79.3906 222.162 79.2364C221.233 79.2577 220.322 78.9628 219.572 78.3973C219.371 78.1717 219.247 77.884 219.22 77.5787C219.194 77.2734 219.265 76.9675 219.424 76.7083C219.812 76.2546 220.31 75.9149 220.867 75.7235C221.424 75.5322 222.02 75.496 222.595 75.6186C223.818 75.678 224.973 76.2112 225.83 77.1115C226.005 77.3245 226.119 77.5843 226.157 77.861C226.196 78.1377 226.158 78.4199 226.047 78.6751C225.937 78.9303 225.758 79.1481 225.533 79.3033C225.307 79.4585 225.044 79.5449 224.773 79.5524Z" fill="#2B2B2B"/>
<path d="M199.402 82.9086C200.279 82.7125 201.051 82.3855 201.897 82.1131C202.819 81.9602 203.667 81.4966 204.307 80.7946C204.466 80.5349 204.537 80.2279 204.508 79.9221C204.479 79.6163 204.353 79.3291 204.148 79.1056C203.684 78.7215 203.128 78.4734 202.538 78.3871C201.948 78.3008 201.347 78.3796 200.797 78.6153C199.609 78.9077 198.569 79.6458 197.88 80.6857C197.738 80.9332 197.669 81.2175 197.681 81.5045C197.692 81.7915 197.784 82.069 197.945 82.3036C198.105 82.5383 198.328 82.7202 198.587 82.8275C198.845 82.9348 199.128 82.9629 199.402 82.9086Z" fill="#2B2B2B"/>
<path d="M206.516 91.7022C206.516 91.6041 206.336 91.8439 206.347 91.9528C206.727 94.5898 206.727 97.6736 204.497 98.8287C204.434 98.8287 204.497 98.9922 204.497 98.9704C207.319 98.2294 207.288 94.1322 206.516 91.7022Z" fill="#2B2B2B"/>
<path d="M203.918 89.2069C199.764 89.3704 200.387 97.9243 204.246 97.7936C208.104 97.6628 207.406 89.0652 203.918 89.2069Z" fill="#2B2B2B"/>
<path d="M202.32 89.7844C201.633 90.3292 200.977 91.2446 200.111 91.3971C199.244 91.5497 198.271 90.7433 197.553 89.9261C197.479 89.8498 197.405 89.9261 197.415 90.0459C197.51 91.6805 198.25 93.315 199.973 93.4348C201.696 93.5547 202.563 91.9965 202.838 90.3075C202.891 90.0023 202.574 89.5883 202.32 89.7844Z" fill="#2B2B2B"/>
<path d="M220.671 89.73C220.671 89.621 220.883 89.839 220.883 89.948C220.978 92.6068 221.517 95.6361 223.906 96.3553C223.98 96.3553 223.98 96.5187 223.906 96.5078C221.02 96.3008 220.344 92.2581 220.671 89.73Z" fill="#2B2B2B"/>
<path d="M222.786 86.7879C226.909 86.1777 227.797 94.7208 223.981 95.2874C220.165 95.854 219.33 87.3109 222.786 86.7879Z" fill="#2B2B2B"/>
<path d="M224.572 87.1583C225.28 87.5397 226.009 88.248 226.802 88.248C227.595 88.248 228.282 87.1583 228.768 86.2648C228.821 86.1667 228.895 86.2648 228.906 86.341C229.128 87.9756 228.779 89.7299 227.288 90.2094C225.798 90.6889 224.762 89.3595 224.212 87.7794C224.117 87.4961 224.286 87.0057 224.572 87.1583Z" fill="#2B2B2B"/>
<path d="M208.663 112.472C209.298 113.071 209.942 113.91 210.883 113.964C211.844 113.916 212.784 113.659 213.642 113.213C213.659 113.203 213.679 113.201 213.698 113.205C213.717 113.209 213.734 113.219 213.746 113.234C213.758 113.249 213.765 113.269 213.766 113.288C213.766 113.308 213.76 113.328 213.748 113.343C213.401 113.869 212.924 114.289 212.366 114.561C211.809 114.833 211.191 114.947 210.577 114.891C210.044 114.769 209.558 114.486 209.181 114.079C208.805 113.671 208.555 113.157 208.463 112.602C208.378 112.472 208.568 112.472 208.663 112.472Z" fill="#2B2B2B"/>
<path d="M218.608 101.945C218.608 101.945 219.475 105.857 219.665 107.731C219.665 107.906 219.242 108.026 218.608 108.124C218.608 108.124 218.608 108.124 218.545 108.124C217.014 108.558 215.397 108.549 213.872 108.098C212.346 107.646 210.971 106.769 209.898 105.563C209.75 105.389 209.961 105.182 210.141 105.28C212.591 106.698 215.419 107.264 218.206 106.892C218.291 106.369 216.504 100.245 216.79 100.202C218.219 100.195 219.642 100.393 221.018 100.79C219.443 92.5849 216.6 84.7066 215.151 76.5122C215.147 76.4543 215.161 76.3966 215.192 76.3482C215.223 76.2998 215.269 76.2633 215.322 76.2446C215.376 76.2259 215.433 76.2259 215.487 76.2448C215.54 76.2636 215.586 76.3002 215.616 76.3487C219.158 84.3906 221.177 93.7836 223.016 102.218C223.206 103.264 219.359 102.196 218.608 101.945Z" fill="#2B2B2B"/>
<path d="M216.548 107.753C215.697 109.014 214.542 110.024 213.197 110.685C212.455 111.029 211.626 111.121 210.829 110.946C209.096 110.565 208.99 108.941 209.244 107.535C209.383 106.783 209.61 106.052 209.92 105.356C211.821 106.87 214.146 107.711 216.548 107.753Z" fill="#2B2B2B"/>
<path d="M213.197 110.685C212.455 111.029 211.626 111.121 210.829 110.946C209.096 110.565 208.99 108.941 209.244 107.535C211.083 107.655 212.965 108.854 213.197 110.685Z" fill="#FF99BA"/>
<path d="M167.816 100.485C170.257 99.2786 172.352 97.4391 173.896 95.1468C175.44 92.8545 176.379 90.1881 176.622 87.4089C183.262 84.4481 189.016 79.7163 193.293 73.7008C193.039 74.5071 191.178 80.3151 190.121 83.2355C214.181 78.7242 221.707 59.7965 221.707 59.7965C229.477 67.8492 231.01 72.9925 232.12 75.5532C232.12 75.5532 232.373 60.2977 224.826 50.131C222.288 46.6024 218.803 43.9177 214.802 42.409C210.8 40.9004 206.457 40.6338 202.31 41.6424C196.647 39.6262 190.532 39.378 184.733 40.9287C178.933 42.4795 173.707 45.7602 169.709 50.3598C154.011 67.7947 167.816 100.485 167.816 100.485Z" fill="#2B2B2B"/>
<path d="M208.431 79.2799C204.56 81.4388 200.399 82.9922 196.084 83.8893C196.084 83.8893 196.031 83.8893 196.084 83.8893C202.848 82.018 208.975 78.2453 213.78 72.9925C215.82 70.7465 217.575 68.2419 219.002 65.5391C220.676 62.6446 221.779 59.4377 222.247 56.1024C222.257 56.0596 222.281 56.0215 222.314 55.9943C222.348 55.967 222.389 55.9522 222.432 55.9522C222.475 55.9522 222.516 55.967 222.55 55.9943C222.584 56.0215 222.607 56.0596 222.617 56.1024C222.506 59.4617 221.845 62.7773 220.662 65.9096C219.352 68.9235 217.522 71.6669 215.26 74.0059C213.233 76.0876 210.93 77.8632 208.42 79.2799" fill="#2B2B2B"/>
<path d="M201.824 105.934C199.609 105.986 197.424 105.396 195.517 104.232C193.611 103.068 192.059 101.375 191.04 99.3466C190.021 97.3183 189.574 95.0358 189.751 92.7587C189.927 90.4817 190.721 88.3015 192.04 86.4661C193.359 84.6308 195.152 83.214 197.214 82.3769C199.276 81.5398 201.524 81.316 203.703 81.731C205.882 82.146 207.905 83.1831 209.54 84.7244C211.176 86.2656 212.359 88.2491 212.955 90.4492C213.797 93.5675 213.404 96.9026 211.862 99.722C210.32 102.542 207.755 104.615 204.731 105.487C203.783 105.757 202.807 105.907 201.824 105.934ZM201.317 83.1593C200.462 83.1784 199.613 83.3102 198.79 83.5515C196.282 84.2798 194.137 85.9661 192.793 88.2672C191.448 90.5683 191.005 93.311 191.553 95.9371C192.102 98.5632 193.601 100.875 195.744 102.402C197.888 103.929 200.516 104.556 203.093 104.156C205.67 103.756 208.002 102.359 209.614 100.249C211.227 98.1383 211.998 95.4739 211.772 92.7978C211.546 90.1217 210.338 87.6352 208.396 85.8445C206.453 84.0538 203.922 83.0935 201.317 83.1593Z" fill="#814A95"/>
<path d="M228.705 101.902C224.181 102.011 219.963 97.325 219.096 91.0048C218.636 87.9986 219.102 84.9194 220.428 82.2002C220.932 81.0029 221.726 79.9589 222.733 79.1681C223.74 78.3772 224.927 77.8661 226.181 77.6835C227.435 77.5009 228.713 77.653 229.893 78.1252C231.074 78.5974 232.117 79.3739 232.923 80.3804C234.927 82.6204 236.199 85.4522 236.559 88.4768C237.468 95.1347 234.297 101.128 229.477 101.825C229.222 101.873 228.964 101.898 228.705 101.902ZM227.003 79.2363C226.802 79.2255 226.601 79.2255 226.401 79.2363C225.407 79.4313 224.474 79.8683 223.677 80.5109C222.881 81.1535 222.245 81.983 221.823 82.9303C220.658 85.3469 220.255 88.0788 220.671 90.7433C221.453 96.5186 225.301 100.757 229.255 100.18C233.208 99.6024 235.777 94.4373 234.995 88.6729C234.682 85.9959 233.575 83.4839 231.824 81.481C231.218 80.7795 230.475 80.2172 229.645 79.8305C228.814 79.4438 227.914 79.2413 227.003 79.2363Z" fill="#814A95"/>
<path d="M212.754 91.9203L211.57 90.8306C213.145 89.0327 216.972 86.3738 220.26 89.1089L219.266 90.3839C216.317 87.9212 212.892 91.7678 212.754 91.9203Z" fill="#814A95"/>
<path d="M160.934 102.664L159.443 102.12C159.686 101.4 161.928 95.0694 165.342 93.9797C168.513 92.9663 189.835 91.942 190.712 91.9093L190.786 93.5329C184.687 93.8162 168.26 94.7534 165.797 95.5379C163.555 96.2135 161.526 100.877 160.934 102.664Z" fill="#814A95"/>
<path d="M174.232 100.997C174.232 100.997 165.099 89.4575 159.951 92.9118C154.803 96.366 162.298 113.561 168.746 115.446C169.557 115.753 170.421 115.887 171.284 115.841C172.147 115.795 172.993 115.569 173.769 115.177C174.545 114.785 175.236 114.235 175.801 113.56C176.366 112.886 176.792 112.1 177.055 111.251L174.232 100.997Z" fill="#AD6359"/>
<path d="M162.223 97.7718C162.201 97.7718 162.179 97.781 162.163 97.7973C162.148 97.8136 162.139 97.8358 162.139 97.8589C162.139 97.8821 162.148 97.9042 162.163 97.9206C162.179 97.9369 162.201 97.9461 162.223 97.9461C166.758 99.4499 169.39 103.493 171.335 107.753C169.898 106.173 168.048 105.389 165.976 107.165C165.87 107.263 165.976 107.437 166.113 107.405C166.87 107.09 167.703 107.026 168.497 107.221C169.29 107.417 170.005 107.861 170.543 108.494C171.439 109.556 172.223 110.714 172.879 111.949C173.111 112.341 173.809 112.068 173.629 111.611V111.502C173.259 105.672 168.302 97.8916 162.223 97.7718Z" fill="#2B2B2B"/>
<path d="M172.191 113.452C172.213 113.64 172.198 113.83 172.146 114.011C172.094 114.193 172.006 114.361 171.888 114.505C171.77 114.65 171.624 114.768 171.46 114.851C171.295 114.935 171.116 114.983 170.933 114.992C170.75 115.001 170.567 114.971 170.395 114.904C170.224 114.837 170.068 114.734 169.937 114.601C169.806 114.469 169.703 114.31 169.634 114.135C169.565 113.96 169.533 113.772 169.538 113.583C169.547 113.237 169.683 112.907 169.918 112.66C170.153 112.412 170.47 112.266 170.805 112.249C171.141 112.233 171.47 112.348 171.727 112.571C171.984 112.794 172.15 113.109 172.191 113.452Z" fill="white"/>
<path d="M168.367 111.273C168.372 111.386 168.356 111.499 168.319 111.606C168.282 111.712 168.226 111.81 168.152 111.894C168.078 111.978 167.989 112.047 167.89 112.095C167.791 112.144 167.683 112.172 167.574 112.177C167.464 112.183 167.354 112.167 167.251 112.129C167.148 112.091 167.052 112.032 166.971 111.956C166.889 111.88 166.823 111.789 166.776 111.686C166.729 111.584 166.702 111.473 166.696 111.36C166.685 111.132 166.762 110.908 166.911 110.739C167.06 110.569 167.268 110.467 167.489 110.456C167.711 110.444 167.928 110.524 168.092 110.677C168.257 110.83 168.355 111.045 168.367 111.273Z" fill="white"/>
<path d="M199.888 143.811L193.545 160.941L172.657 139.833L166.98 146.851C166.98 146.851 187.657 180.631 187.752 179.084L194.275 164.297L204.275 174.3L203.006 148.725L199.888 143.811Z" fill="#814A95"/>
<path d="M204.371 161.616C204.033 157.399 203.789 153.149 203.314 148.954C203.314 148.802 203.06 148.736 203.028 148.954C202.288 153.04 203.694 169.157 203.747 173.025C203.335 172.589 194.487 164.231 194.402 164.373C192.975 166.727 188.187 177.449 187.859 178.474C184.593 173.112 170.745 151.973 166.897 146.873C166.877 146.84 166.845 146.816 166.809 146.807C166.772 146.797 166.733 146.804 166.701 146.824C166.669 146.844 166.646 146.877 166.637 146.914C166.628 146.952 166.634 146.992 166.654 147.025C169.561 152.703 187.468 180.598 187.711 180.511C190.242 175.427 192.518 170.211 194.529 164.885C196.03 166.716 204.973 176.163 204.994 175.542C205.026 170.892 204.818 166.244 204.371 161.616Z" fill="#2B2B2B"/>
<path d="M201.369 199.21C201.369 199.21 193.198 188.095 200.999 182.963C208.8 177.831 215.132 190.155 215.132 190.155L201.369 199.21Z" fill="#455A64"/>
<path d="M265.999 272.349L267.13 285.938L267.532 290.427L263.715 288.193L252.256 281.372L201.104 198.731L214.846 189.675L265.999 272.349Z" fill="#455A64"/>
<path d="M267.161 285.959L267.542 290.438L263.736 288.204L267.161 285.959Z" fill="#37474F"/>
<path d="M215.728 188.491L199.66 199.059L201.696 202.348L217.763 191.78L215.728 188.491Z" fill="#2B2B2B"/>
<path d="M217.968 192.138L201.9 202.706L203.936 205.995L220.003 195.427L217.968 192.138Z" fill="#2B2B2B"/>
<path d="M203.936 205.977L209.115 202.566L224.771 234.352L222.794 235.486L203.936 205.977Z" fill="#2B2B2B"/>
<path d="M171.917 228.381C179.771 226.779 203.63 295.996 192.161 298.927C141.251 312.003 99.5693 303.765 89.696 298.927C76.7466 292.53 75.6683 275.39 81.0807 267.479C90.5206 253.76 159.739 230.876 171.917 228.381Z" fill="#AD6359"/>
<path d="M269.689 224.709C269.562 232.696 250.482 230.713 250.482 230.713C253.236 232.666 255.238 235.555 256.137 238.874C257.458 244.791 249.044 249.521 249.044 249.521C251.484 252.163 253.097 255.5 253.674 259.099C254.382 264.896 246.549 270.911 246.549 270.911C247.499 274.612 247.124 278.543 245.492 281.982C240.767 290.983 188.039 299.679 181.474 300.91L168.789 230.081C168.789 230.081 210.217 205.933 221.644 206.74C231.253 207.339 269.879 212.471 269.689 224.709Z" fill="#AD6359"/>
<path d="M250.333 230.451C240.27 227.182 229.466 226.43 219.043 225.809C218.995 225.809 218.95 225.829 218.916 225.863C218.882 225.898 218.863 225.945 218.863 225.994C218.863 226.044 218.882 226.091 218.916 226.125C218.95 226.16 218.995 226.18 219.043 226.18C229.424 226.67 239.921 230.037 250.259 230.963C250.32 230.964 250.379 230.941 250.426 230.9C250.472 230.859 250.503 230.803 250.512 230.74C250.521 230.678 250.507 230.615 250.475 230.561C250.442 230.508 250.392 230.469 250.333 230.451Z" fill="#2B2B2B"/>
<path d="M248.78 248.681C246.425 248.171 244.016 247.981 241.613 248.115C239.062 248.115 236.514 248.137 233.97 248.18C228.868 248.311 223.773 248.576 218.684 248.976C218.462 248.976 218.431 249.346 218.684 249.346C223.759 249.226 228.843 249.183 233.928 249.281C236.475 249.281 239.012 249.401 241.56 249.488C243.952 249.731 246.363 249.702 248.748 249.401C248.822 249.378 248.887 249.332 248.934 249.27C248.981 249.208 249.008 249.132 249.012 249.053C249.015 248.974 248.995 248.895 248.953 248.829C248.912 248.762 248.851 248.711 248.78 248.681Z" fill="#2B2B2B"/>
<path d="M246.327 270.878C244.361 270.225 241.898 270.628 239.857 270.726L232.881 271.02C228.24 271.184 223.599 271.347 218.948 271.347C218.715 271.347 218.694 271.717 218.948 271.717C223.673 271.717 228.399 271.837 233.113 271.816C235.439 271.816 237.754 271.816 240.079 271.75C242.046 271.75 244.519 271.914 246.422 271.118C246.448 271.102 246.468 271.077 246.478 271.047C246.488 271.017 246.487 270.985 246.476 270.956C246.464 270.926 246.443 270.903 246.415 270.888C246.388 270.874 246.357 270.871 246.327 270.878Z" fill="#2B2B2B"/>
<path d="M164.18 229.296L186.982 307.285C186.982 307.285 103.936 311.458 86.124 298.109C73.7454 288.825 74.7708 271.358 80.3628 265.343C92.5723 252.212 164.18 229.296 164.18 229.296Z" fill="#EBEBEB"/>
<path d="M165.1 304.255C161.517 293.358 148.419 248.464 146.221 238.558C146.073 237.872 146.453 237.61 146.707 238.297C158.208 270.541 162.563 293.271 165.513 304.092C165.576 304.386 165.196 304.549 165.1 304.255Z" fill="#2B2B2B"/>
<path d="M164.201 228.49C163.746 228.392 155.744 230.527 153.186 231.301C148.189 232.834 143.228 234.498 138.302 236.292C128.492 239.855 118.867 243.935 109.464 248.518L108.058 249.215C104.622 250.065 101.271 251.286 97.931 252.419C97.8359 252.419 97.931 252.604 97.931 252.572C100.605 251.656 103.322 250.937 106.039 250.196C104.538 250.948 103.026 251.711 101.546 252.506C98.9141 253.912 96.3454 255.427 93.7344 256.865C93.7247 256.869 93.7161 256.876 93.709 256.884C93.7019 256.892 93.6965 256.901 93.6932 256.911C93.6899 256.922 93.6888 256.932 93.6899 256.943C93.6909 256.954 93.6942 256.964 93.6995 256.974C93.7048 256.983 93.712 256.991 93.7205 256.997C93.7291 257.004 93.7388 257.008 93.7491 257.01C93.7594 257.012 93.77 257.012 93.7802 257.009C93.7904 257.007 93.8 257.002 93.8084 256.996C98.1953 254.653 102.751 252.572 107.255 250.458C111.758 248.344 116.451 246.284 121.103 244.345C130.268 240.52 139.612 237.098 149.073 234.091C151.737 233.252 154.359 232.445 157.086 231.661C158.397 231.279 163.852 229.372 164.084 229.351C164.211 229.552 164.307 229.773 164.37 230.004C164.433 230.233 164.687 230.233 164.634 230.004C164.547 229.484 164.402 228.976 164.201 228.49Z" fill="#2B2B2B"/>
<path d="M175.45 307.633C173.04 307.459 164.149 307.906 161.771 307.906C156.972 307.906 152.183 307.906 147.384 307.818C137.743 307.557 128.145 306.838 118.546 305.89C115.893 305.628 113.261 305.334 110.576 305.04C107.891 304.746 105.005 304.528 102.277 304.015C102.172 304.015 102.129 304.168 102.277 304.19C104.666 304.549 107.013 305.127 109.392 305.552C111.77 305.977 114.159 306.347 116.559 306.696C121.358 307.393 126.178 307.884 131.009 308.298C140.65 309.115 150.354 309.388 160.027 309.202C162.754 309.148 172.934 308.712 175.577 308.113C175.841 308.102 175.725 307.655 175.45 307.633Z" fill="#2B2B2B"/>
<path d="M335.101 322.965L247.891 329.481L280.492 211.12L367.702 204.604L335.101 322.965Z" fill="white"/>
<path d="M341.063 322.518L253.863 329.034L286.464 210.673L373.664 204.157L341.063 322.518Z" fill="#37474F"/>
<path d="M295.726 209.998C295.505 211.017 295.091 211.981 294.507 212.834C293.923 213.687 293.18 214.412 292.322 214.967C291.53 215.49 291.265 214.389 292.016 213.877C293.115 213.13 293.935 212.019 294.341 210.728C294.394 210.521 294.458 210.281 294.489 210.074C294.677 209.361 294.677 208.608 294.489 207.895C294.399 207.588 294.209 207.322 293.95 207.143C293.926 207.13 293.904 207.111 293.887 207.088C293.887 207.088 293.792 207.088 293.781 207.088C293.725 207.096 293.668 207.096 293.612 207.088C293.403 207.063 293.191 207.097 292.999 207.187C292.629 207.352 292.303 207.606 292.048 207.928C291.733 208.311 291.47 208.736 291.265 209.192C291.14 209.414 291.027 209.643 290.927 209.878V210.042C290.888 210.117 290.859 210.198 290.842 210.281C290.842 210.281 290.779 210.379 290.79 210.434L289.553 210.532C289.805 209.717 290.16 208.94 290.61 208.222C290.937 207.603 291.39 207.064 291.937 206.641C292.484 206.218 293.113 205.921 293.781 205.77C294.279 205.714 294.778 205.86 295.173 206.178C295.568 206.495 295.827 206.959 295.895 207.47C296.045 208.314 295.987 209.183 295.726 209.998Z" fill="#814A95"/>
<path d="M302.553 209.453C302.099 211.507 300.875 213.293 299.149 214.422C298.346 214.945 298.092 213.845 298.843 213.332C299.942 212.588 300.76 211.476 301.158 210.183C301.225 209.969 301.278 209.751 301.316 209.529C301.503 208.816 301.503 208.064 301.316 207.35C301.222 207.042 301.028 206.776 300.767 206.598C300.749 206.601 300.731 206.601 300.714 206.598C300.714 206.598 300.619 206.598 300.597 206.598H300.439C300.23 206.572 300.018 206.606 299.826 206.696C299.456 206.861 299.13 207.115 298.874 207.437C298.553 207.815 298.289 208.241 298.092 208.701C297.967 208.927 297.854 209.16 297.754 209.399V209.551C297.709 209.625 297.677 209.706 297.659 209.791C297.659 209.845 297.606 209.9 297.659 209.943L296.422 210.042C296.669 209.225 297.025 208.448 297.479 207.731C297.805 207.112 298.258 206.572 298.805 206.149C299.352 205.726 299.982 205.429 300.65 205.28C301.147 205.227 301.645 205.374 302.039 205.691C302.434 206.008 302.693 206.47 302.764 206.98C302.886 207.81 302.814 208.658 302.553 209.453Z" fill="#814A95"/>
<path d="M309.339 208.974C308.883 211.033 307.656 212.822 305.925 213.953C305.132 214.465 304.868 213.365 305.618 212.864C306.721 212.12 307.542 211.008 307.944 209.714C307.944 209.507 308.071 209.279 308.103 209.072C308.282 208.357 308.282 207.607 308.103 206.892C308.016 206.583 307.825 206.316 307.563 206.14H307.5C307.5 206.14 307.415 206.14 307.394 206.14H307.225C307.02 206.108 306.811 206.138 306.623 206.228C306.249 206.392 305.92 206.646 305.661 206.968C305.346 207.352 305.083 207.777 304.878 208.233C304.752 208.45 304.656 208.69 304.54 208.93V209.082C304.503 209.159 304.475 209.239 304.456 209.322C304.456 209.377 304.403 209.431 304.456 209.475L303.219 209.573C303.466 208.756 303.821 207.979 304.276 207.263C304.603 206.645 305.056 206.107 305.603 205.685C306.15 205.264 306.779 204.969 307.447 204.822C307.944 204.763 308.443 204.907 308.838 205.222C309.233 205.538 309.493 206 309.561 206.511C309.679 207.338 309.602 208.183 309.339 208.974Z" fill="#814A95"/>
<path d="M316.201 208.462C315.979 209.481 315.564 210.446 314.98 211.301C314.396 212.155 313.654 212.883 312.797 213.441C312.004 213.964 311.74 212.853 312.49 212.352C313.587 211.602 314.407 210.492 314.816 209.203C314.869 208.985 314.932 208.756 314.964 208.549C315.15 207.835 315.15 207.083 314.964 206.369C314.871 206.063 314.681 205.799 314.425 205.617H314.361C314.361 205.617 314.266 205.617 314.256 205.617H314.087C313.877 205.581 313.662 205.616 313.473 205.716C313.102 205.873 312.775 206.124 312.522 206.446C312.208 206.829 311.945 207.254 311.74 207.71C311.614 207.935 311.502 208.168 311.402 208.407V208.56C311.366 208.636 311.337 208.717 311.317 208.799C311.317 208.854 311.254 208.908 311.264 208.963L310.027 209.05C310.279 208.235 310.635 207.458 311.084 206.74C311.412 206.122 311.865 205.584 312.412 205.163C312.959 204.742 313.588 204.447 314.256 204.299C314.752 204.24 315.252 204.384 315.647 204.699C316.042 205.015 316.301 205.478 316.37 205.988C316.511 206.814 316.452 207.664 316.201 208.462Z" fill="#814A95"/>
<path d="M323.082 207.949C322.626 210.006 321.404 211.794 319.678 212.929C318.875 213.452 318.621 212.341 319.372 211.839C320.469 211.092 321.286 209.981 321.687 208.69C321.755 208.476 321.808 208.258 321.846 208.036C322.033 207.323 322.033 206.571 321.846 205.857C321.751 205.546 321.558 205.277 321.296 205.094C321.278 205.098 321.26 205.098 321.243 205.094C321.243 205.094 321.148 205.094 321.127 205.094H320.968C320.759 205.063 320.545 205.097 320.355 205.192C319.986 205.353 319.659 205.604 319.404 205.922C319.084 206.306 318.821 206.736 318.621 207.197C318.494 207.418 318.381 207.648 318.283 207.884V208.036C318.24 208.111 318.208 208.192 318.188 208.276C318.188 208.331 318.135 208.385 318.188 208.44L316.951 208.527C317.199 207.71 317.554 206.933 318.008 206.217C318.336 205.599 318.789 205.062 319.337 204.641C319.884 204.22 320.512 203.925 321.18 203.776C321.676 203.72 322.173 203.865 322.568 204.18C322.962 204.495 323.223 204.956 323.294 205.465C323.417 206.298 323.345 207.151 323.082 207.949Z" fill="#814A95"/>
<path d="M329.857 207.448C329.397 209.503 328.17 211.288 326.442 212.417C325.65 212.94 325.385 211.829 326.136 211.327C327.236 210.581 328.056 209.47 328.462 208.178C328.514 207.971 328.588 207.731 328.62 207.524C328.802 206.81 328.802 206.059 328.62 205.345C328.531 205.034 328.341 204.765 328.081 204.582H328.018C328.018 204.582 327.933 204.582 327.912 204.582C327.856 204.59 327.799 204.59 327.743 204.582C327.537 204.553 327.327 204.587 327.14 204.68C326.765 204.841 326.434 205.096 326.178 205.421C325.864 205.805 325.601 206.23 325.396 206.685C325.269 206.892 325.174 207.132 325.058 207.372V207.535C325.02 207.608 324.992 207.684 324.973 207.764C324.959 207.818 324.959 207.874 324.973 207.928L323.736 208.015C323.986 207.202 324.341 206.429 324.793 205.716C325.122 205.097 325.574 204.558 326.121 204.135C326.668 203.713 327.297 203.415 327.965 203.264C328.461 203.205 328.961 203.348 329.356 203.664C329.751 203.98 330.01 204.442 330.079 204.953C330.2 205.791 330.124 206.647 329.857 207.448Z" fill="#814A95"/>
<path d="M336.676 206.936C336.455 207.955 336.041 208.919 335.457 209.772C334.872 210.625 334.13 211.35 333.272 211.905C332.479 212.428 332.215 211.327 332.966 210.815C334.065 210.068 334.885 208.957 335.291 207.666C335.344 207.459 335.408 207.219 335.439 207.012C335.627 206.299 335.627 205.547 335.439 204.833C335.349 204.526 335.158 204.26 334.9 204.081C334.875 204.068 334.854 204.049 334.837 204.027C334.837 204.027 334.742 204.027 334.731 204.027C334.675 204.034 334.618 204.034 334.562 204.027C334.353 204.001 334.141 204.035 333.949 204.125C333.579 204.29 333.253 204.544 332.997 204.866C332.68 205.246 332.416 205.672 332.215 206.13C332.09 206.352 331.977 206.581 331.877 206.816V206.98C331.839 207.057 331.807 207.137 331.782 207.219C331.782 207.219 331.729 207.317 331.782 207.372L330.545 207.47C330.797 206.655 331.152 205.878 331.602 205.16C331.93 204.541 332.382 204.002 332.929 203.579C333.476 203.156 334.105 202.859 334.773 202.708C335.271 202.652 335.77 202.798 336.165 203.116C336.56 203.433 336.819 203.897 336.888 204.408C337.023 205.256 336.951 206.125 336.676 206.936Z" fill="#814A95"/>
<path d="M343.506 206.424C343.052 208.478 341.828 210.264 340.102 211.393C339.299 211.916 339.045 210.815 339.796 210.303C340.893 209.561 341.711 208.453 342.111 207.165C342.179 206.951 342.231 206.732 342.269 206.511C342.452 205.797 342.452 205.046 342.269 204.332C342.175 204.023 341.981 203.758 341.72 203.58C341.702 203.583 341.684 203.583 341.667 203.58C341.667 203.58 341.572 203.58 341.551 203.58H341.392C341.183 203.554 340.971 203.588 340.779 203.678C340.409 203.843 340.083 204.097 339.827 204.419C339.506 204.797 339.242 205.223 339.045 205.683C338.92 205.909 338.807 206.141 338.707 206.38V206.533C338.662 206.606 338.63 206.687 338.612 206.772C338.612 206.827 338.559 206.881 338.612 206.925L337.375 207.023C337.623 206.207 337.978 205.429 338.432 204.713C338.759 204.093 339.211 203.553 339.758 203.13C340.305 202.707 340.935 202.411 341.603 202.261C342.101 202.208 342.598 202.355 342.993 202.672C343.387 202.989 343.647 203.451 343.718 203.961C343.838 204.788 343.765 205.632 343.506 206.424Z" fill="#814A95"/>
<path d="M350.333 205.912C349.877 207.971 348.65 209.761 346.919 210.891C346.126 211.404 345.862 210.303 346.613 209.802C347.715 209.058 348.536 207.946 348.938 206.653C348.991 206.446 349.065 206.217 349.097 206.01C349.276 205.295 349.276 204.545 349.097 203.83C349.01 203.521 348.819 203.254 348.558 203.078H348.494C348.494 203.078 348.41 203.078 348.388 203.078H348.219C348.015 203.046 347.805 203.076 347.617 203.166C347.244 203.33 346.914 203.584 346.655 203.907C346.341 204.29 346.077 204.715 345.873 205.171C345.746 205.389 345.651 205.628 345.534 205.868V206.021C345.498 206.097 345.47 206.178 345.45 206.26C345.45 206.315 345.45 206.369 345.45 206.413L344.213 206.511C344.46 205.694 344.816 204.917 345.27 204.201C345.597 203.583 346.05 203.045 346.597 202.623C347.144 202.202 347.773 201.908 348.441 201.76C348.938 201.701 349.437 201.845 349.832 202.16C350.227 202.476 350.487 202.939 350.555 203.449C350.673 204.276 350.597 205.121 350.333 205.912Z" fill="#814A95"/>
<path d="M357.153 205.399C356.931 206.419 356.516 207.384 355.931 208.239C355.347 209.093 354.606 209.82 353.749 210.379C352.956 210.902 352.692 209.791 353.442 209.29C354.537 208.537 355.356 207.428 355.768 206.14C355.821 205.922 355.884 205.694 355.916 205.487C356.102 204.773 356.102 204.021 355.916 203.307C355.823 203.001 355.633 202.736 355.377 202.555H355.313C355.313 202.555 355.218 202.555 355.208 202.555H355.038C354.829 202.519 354.614 202.553 354.425 202.653C354.054 202.81 353.727 203.062 353.474 203.383C353.156 203.764 352.893 204.19 352.692 204.648C352.566 204.873 352.453 205.106 352.353 205.345V205.497C352.315 205.574 352.283 205.654 352.258 205.737C352.258 205.792 352.205 205.846 352.258 205.901L351.021 205.988C351.274 205.173 351.629 204.396 352.079 203.678C352.406 203.06 352.859 202.522 353.406 202.101C353.953 201.68 354.582 201.385 355.25 201.237C355.746 201.178 356.246 201.322 356.641 201.637C357.036 201.953 357.296 202.415 357.364 202.926C357.491 203.756 357.418 204.605 357.153 205.399Z" fill="#814A95"/>
<path d="M363.983 204.887C363.527 206.944 362.304 208.732 360.579 209.867C359.775 210.39 359.522 209.279 360.272 208.778C361.369 208.03 362.186 206.919 362.587 205.628C362.655 205.415 362.708 205.196 362.746 204.975C362.928 204.26 362.928 203.509 362.746 202.795C362.652 202.484 362.458 202.215 362.196 202.032C362.179 202.036 362.161 202.036 362.143 202.032C362.143 202.032 362.048 202.032 362.027 202.032H361.869C361.659 202.001 361.446 202.035 361.255 202.13C360.886 202.291 360.56 202.542 360.304 202.861C359.985 203.247 359.718 203.675 359.511 204.135C359.387 204.357 359.278 204.586 359.183 204.822V204.975C359.14 205.049 359.108 205.13 359.088 205.214C359.088 205.269 359.035 205.323 359.088 205.378L357.852 205.465C358.099 204.648 358.455 203.871 358.909 203.155C359.237 202.538 359.69 202 360.237 201.579C360.784 201.158 361.413 200.863 362.08 200.714C362.576 200.658 363.074 200.803 363.468 201.118C363.863 201.433 364.123 201.894 364.194 202.403C364.318 203.237 364.245 204.089 363.983 204.887Z" fill="#814A95"/>
<path d="M370.81 204.386C370.35 206.441 369.123 208.226 367.396 209.355C366.603 209.878 366.339 208.767 367.089 208.265C368.189 207.519 369.009 206.408 369.415 205.116C369.468 204.909 369.531 204.669 369.573 204.462C369.756 203.748 369.756 202.997 369.573 202.283C369.484 201.972 369.294 201.703 369.034 201.52H368.971C368.971 201.52 368.886 201.52 368.865 201.52C368.809 201.528 368.752 201.528 368.696 201.52C368.49 201.491 368.28 201.525 368.093 201.618C367.718 201.779 367.388 202.034 367.131 202.359C366.817 202.743 366.554 203.168 366.349 203.623C366.222 203.83 366.127 204.07 366.011 204.31V204.473C365.973 204.546 365.945 204.622 365.926 204.702C365.912 204.756 365.912 204.812 365.926 204.865L364.689 204.953C364.941 204.138 365.296 203.361 365.747 202.643C366.077 202.027 366.531 201.491 367.077 201.07C367.624 200.649 368.252 200.353 368.918 200.202C369.414 200.143 369.914 200.286 370.309 200.602C370.704 200.918 370.964 201.38 371.032 201.891C371.153 202.729 371.077 203.585 370.81 204.386Z" fill="#814A95"/>
<path d="M369.373 230.767C373.993 240.498 385.473 252.561 386.498 260.505C386.817 262.462 386.515 264.473 385.637 266.24C384.76 268.007 383.353 269.434 381.625 270.312C381.625 270.312 389.416 274.202 389.183 281.601C389.057 285.415 383.052 288.553 383.052 288.553C383.052 288.553 389.152 291.953 388.56 298.523C388.074 303.754 382.133 306.151 382.133 306.151C382.133 306.151 386.509 312.199 384.395 317.331C380.05 327.814 336.276 328.337 329.331 311.796C326.085 304.092 336.783 304.56 336.783 304.56C336.783 304.56 321.561 300.06 321.223 290.754C320.884 281.448 334.754 282.93 334.754 282.93C334.754 282.93 320.039 278.43 320.631 268.764C321.254 258.696 334.88 262.619 334.88 262.619C334.88 262.619 325.07 255.928 327.174 248.627C330.641 236.575 349.236 251.46 358.887 248.998L364.014 232.576L369.373 230.767Z" fill="#AD6359"/>
<path d="M378.305 244.879C374.722 235.268 386.181 223.216 384.024 213.529C381.117 200.452 366.899 213.463 363.939 232.598L364.151 247.853L378.305 244.879Z" fill="#AD6359"/>
<path d="M381.223 306.642C381.361 306.642 381.413 306.838 381.223 306.87C366.868 310.663 349.965 310.292 336.106 304.691C335.652 304.506 335.747 303.667 336.286 303.776C351.72 306.718 365.589 308.124 381.223 306.642Z" fill="#2B2B2B"/>
<path d="M383.263 288.651C383.432 288.651 383.464 288.923 383.263 288.967C368.464 292.792 349.436 291.833 334.193 283.377C333.664 283.094 333.485 282.287 334.108 282.581C344.669 287.398 369.183 290.089 383.263 288.651Z" fill="#2B2B2B"/>
<path d="M333.918 261.66C348.834 269.178 364.574 271.02 381.033 270.508C381.245 270.508 381.234 270.813 381.033 270.867C373.052 273.374 362.545 272.578 354.416 271.238C346.849 270.147 339.691 267.032 333.654 262.204C333.422 262.008 333.654 261.507 333.918 261.66Z" fill="#2B2B2B"/>
<path d="M8.45117 394.797L61.7395 394.535L115.028 394.437L221.604 394.252L328.181 394.437L381.469 394.535L434.758 394.797L381.469 395.069L328.181 395.156L221.604 395.342L115.028 395.156L61.7395 395.058L8.45117 394.797Z" fill="#2B2B2B"/>
<path d="M73.8313 348.54H26.875V421.156H73.8313V348.54Z" fill="#814A95"/>
<path d="M79.5079 329.035H21.209V348.529H79.5079V329.035Z" fill="#455A64"/>
<path d="M65.9869 369.429H34.7285V401.651H65.9869V369.429Z" fill="white"/>
<path opacity="0.1" d="M26.875 348.54V354.195L53.313 364.493V421.145H65.9876V348.54H26.875Z" fill="black"/>
<path d="M12.2969 419.489C12.2969 418.689 12.4498 417.898 12.7469 417.159C13.044 416.421 13.4794 415.75 14.0283 415.186C14.5771 414.621 15.2286 414.173 15.9455 413.868C16.6624 413.563 17.4305 413.407 18.2061 413.408H29.961C30.737 413.407 31.5057 413.563 32.2231 413.868C32.9406 414.173 33.5928 414.62 34.1425 415.185C34.6922 415.749 35.1286 416.42 35.4269 417.159C35.7251 417.897 35.8793 418.689 35.8807 419.489C35.8779 421.105 35.253 422.655 34.1431 423.797C33.0333 424.939 31.5292 425.58 29.961 425.58H18.2483C17.4692 425.584 16.6968 425.43 15.9756 425.126C15.2545 424.822 14.5986 424.374 14.0457 423.808C13.4927 423.242 13.0536 422.57 12.7535 421.828C12.4534 421.087 12.2983 420.292 12.2969 419.489Z" fill="#455A64"/>
<path d="M12.2969 419.489C12.2969 418.689 12.4498 417.898 12.7469 417.159C13.044 416.421 13.4794 415.75 14.0283 415.186C14.5771 414.621 15.2286 414.173 15.9455 413.868C16.6624 413.563 17.4306 413.407 18.2061 413.408H24.073V425.602H18.2483C17.4674 425.606 16.6933 425.451 15.9708 425.146C15.2482 424.84 14.5914 424.391 14.0382 423.822C13.485 423.254 13.0463 422.579 12.7475 421.835C12.4486 421.091 12.2955 420.294 12.2969 419.489Z" fill="#814A95"/>
<path d="M92.636 419.489C92.6346 420.289 92.4804 421.081 92.1822 421.819C91.8839 422.558 91.4475 423.228 90.8978 423.793C90.3481 424.358 89.6959 424.805 88.9784 425.11C88.2609 425.415 87.4923 425.571 86.7163 425.569H75.0565C74.2805 425.571 73.5118 425.415 72.7943 425.11C72.0769 424.805 71.4247 424.358 70.875 423.793C70.3253 423.228 69.8888 422.558 69.5906 421.819C69.2923 421.081 69.1381 420.289 69.1367 419.489C69.1367 417.87 69.7604 416.318 70.8706 415.174C71.9807 414.03 73.4865 413.387 75.0565 413.387H86.7585C88.3212 413.398 89.8161 414.046 90.9171 415.189C92.0182 416.332 92.636 417.878 92.636 419.489Z" fill="#455A64"/>
<path d="M92.6361 419.489C92.6347 420.289 92.4805 421.081 92.1823 421.819C91.884 422.558 91.4476 423.228 90.8979 423.793C90.3482 424.358 89.696 424.805 88.9785 425.11C88.2611 425.415 87.4924 425.571 86.7164 425.569H80.9023V413.387H86.7587C88.3213 413.398 89.8162 414.046 90.9172 415.189C92.0183 416.332 92.6362 417.878 92.6361 419.489Z" fill="#814A95"/>
<path d="M105.966 421.941C105.418 422.507 104.767 422.956 104.051 423.262C103.334 423.569 102.566 423.726 101.791 423.726C101.015 423.726 100.247 423.569 99.5304 423.262C98.8139 422.956 98.163 422.507 97.6151 421.941L89.3275 413.408C88.2211 412.266 87.5996 410.718 87.5996 409.104C87.5996 407.49 88.2211 405.942 89.3275 404.8C90.439 403.658 91.9443 403.017 93.5136 403.017C95.0829 403.017 96.5881 403.658 97.6997 404.8L105.977 413.332C107.079 414.477 107.697 416.025 107.695 417.639C107.693 419.252 107.071 420.799 105.966 421.941Z" fill="#455A64"/>
<path d="M105.968 421.941C105.42 422.507 104.769 422.956 104.052 423.262C103.336 423.569 102.568 423.726 101.792 423.726C101.016 423.726 100.248 423.569 99.5317 423.262C98.8152 422.956 98.1644 422.507 97.6165 421.941L93.4727 417.669L101.834 409.05L105.978 413.321C107.084 414.467 107.704 416.017 107.702 417.633C107.7 419.249 107.076 420.798 105.968 421.941Z" fill="#814A95"/>
<path d="M52.4023 431.682C52.4037 430.882 52.5579 430.091 52.8562 429.352C53.1544 428.614 53.5909 427.943 54.1406 427.378C54.6903 426.814 55.3425 426.366 56.0599 426.061C56.7774 425.757 57.5461 425.601 58.3221 425.602H70.0242C70.8002 425.601 71.5688 425.757 72.2863 426.061C73.0038 426.366 73.656 426.814 74.2057 427.378C74.7554 427.943 75.1918 428.614 75.4901 429.352C75.7883 430.091 75.9425 430.882 75.9439 431.682C75.9411 433.299 75.3162 434.848 74.2063 435.99C73.0965 437.132 71.5923 437.774 70.0242 437.774H58.3221C56.7539 437.774 55.2498 437.132 54.1399 435.99C53.0301 434.848 52.4051 433.299 52.4023 431.682Z" fill="#455A64"/>
<path d="M52.4024 431.682C52.4037 430.882 52.558 430.091 52.8562 429.352C53.1545 428.614 53.5909 427.943 54.1406 427.378C54.6903 426.814 55.3425 426.366 56.06 426.061C56.7774 425.757 57.5461 425.601 58.3221 425.602H64.1784V437.795H58.3221C57.5438 437.795 56.7732 437.637 56.0543 437.33C55.3354 437.023 54.6823 436.572 54.1325 436.004C53.5826 435.437 53.1468 434.763 52.8499 434.021C52.5531 433.279 52.401 432.485 52.4024 431.682Z" fill="#814A95"/>
<path d="M294.714 418.334L294.418 422.605C294.418 422.671 294.418 422.747 294.418 422.823C294.196 424.174 292.705 425.297 290.475 425.994C288.1 426.676 285.63 426.941 283.17 426.779L282.113 426.702C281.754 426.702 281.384 426.637 281.056 426.583C275.411 425.831 271.246 423.433 271.415 420.938L271.701 416.677C271.531 419.173 275.696 421.57 281.341 422.322L282.398 422.431C282.758 422.431 283.128 422.496 283.455 422.507C285.916 422.675 288.386 422.409 290.76 421.723C292.991 421.036 294.47 419.925 294.703 418.563C294.703 418.475 294.703 418.421 294.714 418.334Z" fill="#F1E0EE"/>
<path d="M275.623 413.288C277.991 412.607 280.453 412.342 282.906 412.504L281.289 422.311C281.638 422.311 282.008 422.398 282.346 422.42C282.684 422.442 283.065 422.485 283.403 422.507L285.02 412.7C290.834 413.463 295.073 415.969 294.64 418.552C294.428 419.914 292.938 421.025 290.707 421.733C288.332 422.415 285.863 422.68 283.403 422.518C283.044 422.518 282.674 422.518 282.346 422.431C282.018 422.344 281.616 422.366 281.289 422.322C275.475 421.559 271.236 419.053 271.669 416.47C271.891 415.108 273.403 413.986 275.623 413.288Z" fill="white"/>
<path d="M282.914 412.504L283.971 412.58L285.028 412.7L283.411 422.507C283.052 422.507 282.682 422.507 282.354 422.42C282.026 422.333 281.625 422.355 281.297 422.311L282.914 412.504Z" fill="#F1E0EE"/>
<path d="M294.057 426.201V430.473C294.052 430.545 294.052 430.618 294.057 430.691C294.173 432.053 295.579 433.306 297.736 434.178C300.05 435.053 302.491 435.521 304.956 435.562H306.013C306.372 435.562 306.742 435.562 307.07 435.562C312.757 435.278 317.102 433.23 317.123 430.723V426.452C317.123 428.947 312.757 430.996 307.07 431.29H306.013C305.661 431.311 305.308 431.311 304.956 431.29C302.491 431.253 300.051 430.789 297.736 429.917C295.558 429.045 294.173 427.803 294.057 426.43C294.051 426.354 294.051 426.277 294.057 426.201Z" fill="#F1E0EE"/>
<path d="M313.488 422.736C311.177 421.86 308.74 421.393 306.279 421.352L307.135 431.268C306.776 431.268 306.406 431.268 306.078 431.268H305.021L304.164 421.352C298.308 421.636 293.889 423.793 294.122 426.387C294.238 427.77 295.634 429.002 297.801 429.884C300.115 430.76 302.556 431.228 305.021 431.268H306.078C306.437 431.268 306.807 431.268 307.135 431.268C312.981 430.985 317.41 428.827 317.177 426.234C317.061 424.85 315.687 423.619 313.488 422.736Z" fill="white"/>
<path d="M306.276 421.352H305.219C304.86 421.352 304.507 421.352 304.162 421.352L305.018 431.268H306.075C306.435 431.268 306.805 431.268 307.133 431.268L306.276 421.352Z" fill="#F1E0EE"/>
<path d="M263.177 424.828C260.651 426.301 257.821 427.13 254.921 427.247C252.441 427.422 249.954 427.032 247.638 426.103C247.384 425.994 247.12 425.853 246.866 425.722C246.612 425.591 246.38 425.438 246.158 425.286C245.526 424.918 244.985 424.405 244.577 423.787C244.168 423.169 243.902 422.463 243.8 421.723L243.42 417.833C243.529 418.582 243.806 419.294 244.227 419.915C244.649 420.535 245.205 421.046 245.851 421.407C246.063 421.545 246.295 421.686 246.549 421.832C246.795 421.974 247.049 422.101 247.31 422.213C249.627 423.141 252.114 423.532 254.593 423.357C257.491 423.242 260.32 422.42 262.849 420.96C265.418 419.369 266.623 417.353 266.433 415.512L266.813 419.402C266.951 421.232 265.746 423.248 263.177 424.828Z" fill="#F1E0EE"/>
<path d="M247.268 422.213L247.479 424.48L262.828 414.988L262.458 411.098L245.777 421.407C245.978 421.548 246.221 421.69 246.475 421.832C246.729 421.973 246.972 422.093 247.268 422.213Z" fill="#814A95"/>
<path d="M262.478 411.098C262.742 411.218 263.006 411.338 263.26 411.48C263.514 411.621 263.736 411.752 263.958 411.905L247.266 422.213C246.991 422.093 246.748 421.973 246.495 421.832C246.241 421.69 245.998 421.548 245.797 421.407L262.478 411.098Z" fill="#F1E0EE"/>
<path d="M263.959 411.905L264.34 415.784L247.638 426.092L247.268 422.213L263.959 411.905Z" fill="#F1E0EE"/>
<path d="M255.196 409.954C257.675 409.783 260.161 410.173 262.479 411.098L245.798 421.407C245.999 421.548 246.242 421.69 246.496 421.832C246.749 421.973 246.993 422.093 247.267 422.213L263.959 411.905C267.595 414.324 267.13 418.257 262.796 420.949C260.271 422.412 257.445 423.237 254.551 423.357C252.071 423.529 249.585 423.139 247.267 422.213C246.993 422.093 246.749 421.973 246.496 421.832C246.242 421.69 245.999 421.548 245.798 421.407C242.162 418.977 242.627 415.054 246.961 412.362C249.483 410.901 252.305 410.076 255.196 409.954Z" fill="white"/>
<path d="M324.194 421.69C326.716 423.161 329.543 423.99 332.439 424.109C334.922 424.286 337.413 423.895 339.733 422.965C339.987 422.856 340.251 422.714 340.505 422.583C340.758 422.453 340.991 422.3 341.202 422.148C341.845 421.786 342.398 421.277 342.818 420.659C343.238 420.04 343.514 419.33 343.623 418.584L344.004 414.694C343.893 415.443 343.616 416.155 343.194 416.775C342.772 417.395 342.217 417.906 341.572 418.268C341.361 418.406 341.128 418.548 340.875 418.693C340.628 418.836 340.374 418.963 340.114 419.075C337.794 420.005 335.303 420.395 332.82 420.219C329.925 420.107 327.099 419.285 324.574 417.822C322.005 416.231 320.8 414.215 320.98 412.373L320.6 416.263C320.42 418.105 321.625 420.11 324.194 421.69Z" fill="#F1E0EE"/>
<path d="M340.104 419.075L339.882 421.341L324.512 411.85L324.892 407.971L341.573 418.268C341.349 418.423 341.116 418.565 340.876 418.693C340.622 418.835 340.368 418.955 340.104 419.075Z" fill="#814A95"/>
<path d="M324.891 407.971C324.627 408.08 324.362 408.211 324.109 408.341C323.855 408.472 323.633 408.614 323.4 408.766L340.103 419.075C340.367 418.955 340.621 418.835 340.874 418.693C341.114 418.565 341.347 418.423 341.572 418.268L324.891 407.971Z" fill="#F1E0EE"/>
<path d="M323.412 408.766L323.031 412.646L339.733 422.954L340.103 419.075L323.412 408.766Z" fill="#F1E0EE"/>
<path d="M332.164 406.827C329.687 406.645 327.202 407.036 324.891 407.971L341.572 418.268C341.347 418.423 341.114 418.565 340.874 418.693C340.62 418.835 340.367 418.955 340.102 419.075L323.4 408.766C319.774 411.196 320.229 415.119 324.574 417.811C327.099 419.273 329.925 420.099 332.819 420.219C335.299 420.402 337.788 420.011 340.102 419.075C340.367 418.955 340.62 418.835 340.874 418.693C341.114 418.565 341.347 418.423 341.572 418.268C345.208 415.838 344.743 411.915 340.409 409.224C337.885 407.76 335.058 406.938 332.164 406.827Z" fill="white"/>
<path d="M253.887 407.121L253.834 411.643C253.82 411.939 253.699 412.219 253.495 412.428C252.734 413.321 250.789 414.029 248.263 414.433C245.712 414.815 243.131 414.935 240.557 414.792L239.499 414.716L238.442 414.607C233.728 414.073 230.652 412.744 230.662 411.338L230.726 406.838C230.726 408.232 233.802 409.562 238.506 410.107C238.833 410.161 239.203 410.194 239.563 410.216L240.62 410.303C243.194 410.456 245.776 410.336 248.326 409.943C250.842 409.529 252.798 408.853 253.612 407.927C253.801 407.705 253.899 407.416 253.887 407.121Z" fill="#F1E0EE"/>
<path d="M239.572 410.205L239.508 414.716L238.451 414.607L238.504 410.096L239.572 410.205Z" fill="#F1E0EE"/>
<path d="M244.022 403.667L245.079 403.743C245.439 403.743 245.791 403.776 246.136 403.841L240.64 410.27L239.582 410.205L238.525 410.096L244.022 403.667Z" fill="#F1E0EE"/>
<path d="M246.129 403.841L246.065 408.352L240.568 414.792L240.632 410.27L246.129 403.841Z" fill="#F1E0EE"/>
<path d="M236.338 404.015C238.881 403.626 241.456 403.509 244.023 403.667L238.515 410.096L239.572 410.205L240.629 410.27L246.126 403.841C251.697 404.473 254.995 406.238 253.526 407.916C252.765 408.81 250.82 409.507 248.24 409.921C245.697 410.31 243.122 410.427 240.555 410.27L239.498 410.205L238.441 410.096C232.86 409.464 229.572 407.709 231.041 406.02C231.855 405.127 233.801 404.429 236.338 404.015Z" fill="white"/>
<path d="M282.459 407.47L282.522 411.981C282.524 412.128 282.555 412.274 282.613 412.409C282.672 412.544 282.756 412.665 282.861 412.765C283.622 413.659 285.567 414.367 288.093 414.781C290.641 415.163 293.219 415.284 295.789 415.141L296.846 415.054C297.184 415.054 297.544 414.999 297.903 414.945C302.618 414.411 305.694 413.081 305.673 411.676V407.164C305.673 408.57 302.597 409.9 297.893 410.434L296.836 410.543L295.778 410.619C293.208 410.783 290.628 410.663 288.083 410.259C285.556 409.856 283.611 409.17 282.85 408.254C282.735 408.159 282.641 408.04 282.574 407.904C282.507 407.769 282.468 407.621 282.459 407.47Z" fill="#F1E0EE"/>
<path d="M296.793 410.542L296.846 415.054C297.195 415.054 297.554 414.988 297.903 414.956L297.839 410.444L296.793 410.542Z" fill="#F1E0EE"/>
<path d="M292.335 404.004L291.278 404.081L290.221 404.179L295.718 410.619L296.775 410.542L297.832 410.444L292.335 404.004Z" fill="#F1E0EE"/>
<path d="M290.23 404.179L290.283 408.701L295.791 415.13L295.727 410.619L290.23 404.179Z" fill="#F1E0EE"/>
<path d="M300.007 404.353C297.467 403.97 294.896 403.853 292.333 404.004L297.83 410.444L296.772 410.542L295.715 410.619L290.219 404.179C284.637 404.822 281.349 406.576 282.819 408.254C283.58 409.148 285.525 409.856 288.051 410.259C290.598 410.652 293.177 410.772 295.747 410.619L296.804 410.542L297.861 410.444C303.453 409.812 306.741 408.047 305.261 406.369C304.5 405.475 302.544 404.767 300.007 404.353Z" fill="white"/>
<path d="M255.811 429.721L255.863 434.243C255.865 434.391 255.896 434.536 255.954 434.671C256.013 434.806 256.097 434.927 256.202 435.028C256.963 435.921 258.908 436.619 261.434 437.033C263.982 437.415 266.56 437.535 269.13 437.392L270.187 437.316L271.244 437.207C275.959 436.673 279.035 435.333 279.024 433.938L278.961 429.438C278.961 430.832 275.885 432.162 271.181 432.707L270.124 432.816L269.067 432.892C266.493 433.057 263.909 432.936 261.36 432.532C258.834 432.129 256.889 431.443 256.128 430.527C255.923 430.312 255.809 430.022 255.811 429.721Z" fill="#F1E0EE"/>
<path d="M270.133 432.837L270.196 437.359L271.253 437.25L271.19 432.739L270.133 432.837Z" fill="#F1E0EE"/>
<path d="M265.675 426.299L264.618 426.376L263.561 426.485L269.057 432.914L270.115 432.837L271.172 432.739L265.675 426.299Z" fill="#F1E0EE"/>
<path d="M263.57 426.441L263.623 430.952L269.131 437.381L269.067 432.87L263.57 426.441Z" fill="#F1E0EE"/>
<path d="M273.4 426.615C270.857 426.222 268.282 426.102 265.715 426.256L271.212 432.696L270.155 432.794L269.098 432.87L263.601 426.441C258.03 427.073 254.732 428.827 256.201 430.516C256.962 431.399 258.907 432.107 261.434 432.521C263.981 432.904 266.559 433.021 269.129 432.87L270.186 432.794L271.243 432.696C276.835 432.064 280.123 430.298 278.643 428.62C277.84 427.727 275.884 427.029 273.4 426.615Z" fill="white"/>
<path d="M366.7 331.279H403.329C405.706 331.279 407.986 332.253 409.668 333.986C411.349 335.719 412.293 338.069 412.293 340.52V423.619C412.293 424.535 411.94 425.413 411.312 426.061C410.683 426.709 409.831 427.073 408.942 427.073H361.14C360.251 427.073 359.399 426.709 358.771 426.061C358.142 425.413 357.789 424.535 357.789 423.619V340.509C357.792 338.069 358.73 335.73 360.4 334.001C362.069 332.272 364.334 331.294 366.7 331.279Z" fill="#814A95"/>
<path d="M400.811 319.118H369.225V334.036H400.811V319.118Z" fill="#814A95"/>
<path d="M412.292 362.477H357.746V400.387H412.292V362.477Z" fill="#EBEBEB"/>
<path d="M412.292 392.639H357.746V396.072H412.292V392.639Z" fill="#455A64"/>
<path d="M412.292 366.803H357.746V370.235H412.292V366.803Z" fill="#455A64"/>
<path d="M403.009 308.679H367.025V322.496H403.009V308.679Z" fill="#455A64"/>
<path d="M404.892 322.486H365.135V326.572H404.892V322.486Z" fill="#37474F"/>
<path d="M369.905 310.608H369.44C369.113 310.608 368.848 310.881 368.848 311.218V319.957C368.848 320.294 369.113 320.568 369.44 320.568H369.905C370.232 320.568 370.497 320.294 370.497 319.957V311.218C370.497 310.881 370.232 310.608 369.905 310.608Z" fill="#37474F"/>
<path d="M372.967 310.608H372.502C372.175 310.608 371.91 310.881 371.91 311.218V319.957C371.91 320.294 372.175 320.568 372.502 320.568H372.967C373.294 320.568 373.559 320.294 373.559 319.957V311.218C373.559 310.881 373.294 310.608 372.967 310.608Z" fill="#37474F"/>
<path d="M375.569 310.608H376.045C376.199 310.608 376.347 310.671 376.456 310.783C376.565 310.896 376.626 311.048 376.626 311.207V319.925C376.626 320.087 376.564 320.242 376.453 320.356C376.342 320.471 376.191 320.535 376.034 320.535H375.559C375.402 320.535 375.251 320.471 375.14 320.356C375.029 320.242 374.967 320.087 374.967 319.925V311.207C374.968 311.127 374.985 311.048 375.016 310.975C375.047 310.901 375.092 310.835 375.148 310.779C375.204 310.723 375.27 310.68 375.342 310.65C375.414 310.621 375.492 310.606 375.569 310.608Z" fill="#37474F"/>
<path d="M379.11 310.608H378.645C378.318 310.608 378.053 310.881 378.053 311.218V319.957C378.053 320.294 378.318 320.568 378.645 320.568H379.11C379.437 320.568 379.702 320.294 379.702 319.957V311.218C379.702 310.881 379.437 310.608 379.11 310.608Z" fill="#37474F"/>
<path d="M382.186 310.608H381.721C381.394 310.608 381.129 310.881 381.129 311.218V319.957C381.129 320.294 381.394 320.568 381.721 320.568H382.186C382.513 320.568 382.778 320.294 382.778 319.957V311.218C382.778 310.881 382.513 310.608 382.186 310.608Z" fill="#37474F"/>
<path d="M384.775 310.608H385.251C385.408 310.608 385.558 310.672 385.669 310.787C385.78 310.901 385.843 311.056 385.843 311.218V319.936C385.843 320.097 385.78 320.253 385.669 320.367C385.558 320.482 385.408 320.546 385.251 320.546H384.775C384.621 320.546 384.473 320.483 384.364 320.37C384.255 320.258 384.193 320.105 384.193 319.946V311.229C384.192 311.149 384.206 311.069 384.234 310.995C384.263 310.92 384.305 310.852 384.359 310.794C384.413 310.737 384.478 310.691 384.549 310.659C384.62 310.627 384.697 310.609 384.775 310.608Z" fill="#37474F"/>
<path d="M388.317 310.608H387.852C387.525 310.608 387.26 310.881 387.26 311.218V319.957C387.26 320.294 387.525 320.568 387.852 320.568H388.317C388.644 320.568 388.909 320.294 388.909 319.957V311.218C388.909 310.881 388.644 310.608 388.317 310.608Z" fill="#37474F"/>
<path d="M391.393 310.608H390.928C390.601 310.608 390.336 310.881 390.336 311.218V319.957C390.336 320.294 390.601 320.568 390.928 320.568H391.393C391.72 320.568 391.985 320.294 391.985 319.957V311.218C391.985 310.881 391.72 310.608 391.393 310.608Z" fill="#37474F"/>
<path d="M393.994 310.608H394.469C394.626 310.608 394.777 310.672 394.888 310.787C394.999 310.901 395.061 311.056 395.061 311.218V319.936C395.061 320.097 394.999 320.253 394.888 320.367C394.777 320.482 394.626 320.546 394.469 320.546H393.994C393.839 320.546 393.692 320.483 393.583 320.37C393.473 320.258 393.412 320.105 393.412 319.946V311.229C393.411 311.149 393.425 311.069 393.453 310.995C393.482 310.92 393.524 310.852 393.578 310.794C393.632 310.737 393.697 310.691 393.768 310.659C393.839 310.627 393.916 310.609 393.994 310.608Z" fill="#37474F"/>
<path d="M397.524 310.608H397.059C396.732 310.608 396.467 310.881 396.467 311.218V319.957C396.467 320.294 396.732 320.568 397.059 320.568H397.524C397.851 320.568 398.116 320.294 398.116 319.957V311.218C398.116 310.881 397.851 310.608 397.524 310.608Z" fill="#37474F"/>
<path d="M400.6 310.608H400.135C399.808 310.608 399.543 310.881 399.543 311.218V319.957C399.543 320.294 399.808 320.568 400.135 320.568H400.6C400.927 320.568 401.192 320.294 401.192 319.957V311.218C401.192 310.881 400.927 310.608 400.6 310.608Z" fill="#37474F"/>
<path d="M139.551 449.881L139.855 418.293L135.807 418.252L135.502 449.84L139.551 449.881Z" fill="#814A95"/>
<path opacity="0.1" d="M139.551 449.881L139.855 418.293L135.807 418.252L135.502 449.84L139.551 449.881Z" fill="black"/>
<path d="M112.102 444.018L112.289 424.677L108.241 424.636L108.054 443.977L112.102 444.018Z" fill="#814A95"/>
<path opacity="0.1" d="M112.102 444.018L112.289 424.677L108.241 424.636L108.054 443.977L112.102 444.018Z" fill="black"/>
<path d="M135.614 439.703L135.713 429.438L112.246 429.198L112.147 439.462L135.614 439.703Z" fill="#814A95"/>
<path opacity="0.2" d="M131.811 439.659L133.195 429.405L135.701 429.437L135.595 439.691L131.811 439.659Z" fill="black"/>
<path d="M225.744 435.017C229.814 434.918 233.884 434.897 237.964 434.875H250.174L262.383 435.082L268.483 435.245C270.523 435.322 272.552 435.376 274.593 435.485C272.552 435.54 270.523 435.55 268.483 435.594H262.373H250.163L237.954 435.387C233.884 435.267 229.814 435.158 225.744 435.017Z" fill="#2B2B2B"/>
<path d="M222.836 446.26L223.055 423.65L139.812 422.797L139.594 445.406L222.836 446.26Z" fill="#814A95"/>
<path opacity="0.6" d="M222.836 446.26L223.055 423.65L139.812 422.797L139.594 445.406L222.836 446.26Z" fill="white"/>
<path d="M222.869 443.287L223.029 426.626L143.73 425.813L143.569 442.474L222.869 443.287Z" fill="#814A95"/>
<path d="M214.407 428.632L214.447 424.426L213.961 424.421L213.92 428.627L214.407 428.632Z" fill="#2B2B2B"/>
<path d="M212.786 428.643L212.826 424.437L212.34 424.432L212.299 428.638L212.786 428.643Z" fill="#2B2B2B"/>
<path d="M211.143 428.621L211.184 424.415L210.697 424.41L210.657 428.616L211.143 428.621Z" fill="#2B2B2B"/>
<path d="M209.51 428.611L209.551 424.405L209.065 424.4L209.024 428.606L209.51 428.611Z" fill="#2B2B2B"/>
<path d="M207.842 431.658L207.912 424.368L207.426 424.363L207.355 431.653L207.842 431.658Z" fill="#2B2B2B"/>
<path d="M206.317 428.579L206.357 424.373L205.871 424.368L205.831 428.574L206.317 428.579Z" fill="#2B2B2B"/>
<path d="M204.672 428.557L204.713 424.351L204.227 424.346L204.186 428.552L204.672 428.557Z" fill="#2B2B2B"/>
<path d="M203.043 428.524L203.084 424.318L202.598 424.313L202.557 428.519L203.043 428.524Z" fill="#2B2B2B"/>
<path d="M201.373 428.502L201.414 424.296L200.928 424.291L200.887 428.497L201.373 428.502Z" fill="#2B2B2B"/>
<path d="M199.73 431.582L199.801 424.293L199.315 424.288L199.244 431.577L199.73 431.582Z" fill="#2B2B2B"/>
<path d="M198.215 428.493L198.256 424.287L197.77 424.282L197.729 428.488L198.215 428.493Z" fill="#2B2B2B"/>
<path d="M196.561 428.449L196.602 424.243L196.115 424.238L196.075 428.444L196.561 428.449Z" fill="#2B2B2B"/>
<path d="M194.928 428.439L194.969 424.233L194.483 424.228L194.442 428.434L194.928 428.439Z" fill="#2B2B2B"/>
<path d="M193.297 428.45L193.338 424.244L192.852 424.239L192.811 428.445L193.297 428.45Z" fill="#2B2B2B"/>
<path d="M191.627 431.507L191.697 424.218L191.211 424.213L191.141 431.502L191.627 431.507Z" fill="#2B2B2B"/>
<path d="M190.104 428.407L190.145 424.201L189.658 424.196L189.618 428.402L190.104 428.407Z" fill="#2B2B2B"/>
<path d="M188.461 428.374L188.502 424.168L188.016 424.163L187.975 428.369L188.461 428.374Z" fill="#2B2B2B"/>
<path d="M186.827 428.374L186.867 424.168L186.381 424.163L186.34 428.369L186.827 428.374Z" fill="#2B2B2B"/>
<path d="M185.184 428.331L185.225 424.125L184.738 424.12L184.698 428.326L185.184 428.331Z" fill="#2B2B2B"/>
<path d="M183.527 431.411L183.598 424.121L183.111 424.116L183.041 431.406L183.527 431.411Z" fill="#2B2B2B"/>
<path d="M181.991 428.321L182.031 424.115L181.545 424.11L181.504 428.316L181.991 428.321Z" fill="#2B2B2B"/>
<path d="M180.35 428.288L180.391 424.082L179.904 424.077L179.864 428.283L180.35 428.288Z" fill="#2B2B2B"/>
<path d="M178.727 428.288L178.768 424.083L178.281 424.078L178.241 428.283L178.727 428.288Z" fill="#2B2B2B"/>
<path d="M177.082 428.245L177.123 424.039L176.637 424.034L176.596 428.24L177.082 428.245Z" fill="#2B2B2B"/>
<path d="M175.414 431.335L175.484 424.046L174.998 424.041L174.928 431.331L175.414 431.335Z" fill="#2B2B2B"/>
<path d="M173.891 428.235L173.932 424.029L173.445 424.024L173.405 428.23L173.891 428.235Z" fill="#2B2B2B"/>
<path d="M172.258 428.224L172.299 424.018L171.813 424.013L171.772 428.219L172.258 428.224Z" fill="#2B2B2B"/>
<path d="M170.623 428.203L170.664 423.997L170.178 423.992L170.137 428.198L170.623 428.203Z" fill="#2B2B2B"/>
<path d="M168.971 428.17L169.012 423.964L168.525 423.959L168.485 428.165L168.971 428.17Z" fill="#2B2B2B"/>
<path d="M167.314 431.26L167.385 423.971L166.899 423.966L166.828 431.255L167.314 431.26Z" fill="#2B2B2B"/>
<path d="M165.78 428.138L165.82 423.932L165.334 423.927L165.293 428.133L165.78 428.138Z" fill="#2B2B2B"/>
<path d="M164.145 428.127L164.186 423.922L163.699 423.917L163.659 428.122L164.145 428.127Z" fill="#2B2B2B"/>
<path d="M162.502 428.105L162.543 423.9L162.057 423.895L162.016 428.101L162.502 428.105Z" fill="#2B2B2B"/>
<path d="M160.87 428.095L160.91 423.889L160.424 423.884L160.383 428.09L160.87 428.095Z" fill="#2B2B2B"/>
<path d="M159.213 431.164L159.283 423.874L158.797 423.869L158.727 431.159L159.213 431.164Z" fill="#2B2B2B"/>
<path d="M157.676 428.063L157.717 423.857L157.231 423.852L157.19 428.058L157.676 428.063Z" fill="#2B2B2B"/>
<path d="M156.034 428.041L156.074 423.835L155.588 423.83L155.547 428.036L156.034 428.041Z" fill="#2B2B2B"/>
<path d="M154.391 428.009L154.432 423.803L153.945 423.798L153.905 428.004L154.391 428.009Z" fill="#2B2B2B"/>
<path d="M152.77 428.031L152.811 423.825L152.324 423.82L152.284 428.026L152.77 428.031Z" fill="#2B2B2B"/>
<path d="M151.09 431.078L151.16 423.788L150.674 423.783L150.604 431.073L151.09 431.078Z" fill="#2B2B2B"/>
<path d="M149.567 427.977L149.607 423.771L149.121 423.766L149.081 427.972L149.567 427.977Z" fill="#2B2B2B"/>
<path d="M147.932 427.977L147.973 423.771L147.486 423.766L147.446 427.972L147.932 427.977Z" fill="#2B2B2B"/>
<path d="M146.299 427.945L146.34 423.739L145.854 423.734L145.813 427.94L146.299 427.945Z" fill="#2B2B2B"/>
<path d="M144.657 427.945L144.697 423.739L144.211 423.734L144.17 427.94L144.657 427.945Z" fill="#2B2B2B"/>
<path d="M142.988 431.003L143.059 423.713L142.572 423.708L142.502 430.998L142.988 431.003Z" fill="#2B2B2B"/>
<path d="M222.836 446.252L223.055 423.642L216.776 423.578L216.558 446.188L222.836 446.252Z" fill="#2B2B2B"/>
<path d="M230.065 442.671L230.213 427.394L223.025 427.32L222.878 442.597L230.065 442.671Z" fill="#814A95"/>
<path d="M238.726 437.065L238.757 433.131L230.152 432.336L230.1 437.686L238.726 437.065Z" fill="#814A95"/>
<path opacity="0.1" d="M230.1 437.686L230.152 432.347L232.594 432.565L232.172 437.534L230.1 437.686Z" fill="black"/>
</svg>
