<svg width="40" height="40" viewBox="0 0 40 40" fill="none" xmlns="http://www.w3.org/2000/svg">
<path fill-rule="evenodd" clip-rule="evenodd" d="M2.34368 34.2188C2.34368 32.8725 3.18501 32.0313 4.53115 32.0313H35.4686C38.1306 32.0313 37.6561 34.6992 37.6561 36.7188H2.34357V34.2189L2.34368 34.2188ZM39.9999 28.2976V28.7368C39.9716 29.201 39.8534 29.6666 39.6379 30.1067C39.3757 30.642 39.1632 30.7098 38.9061 31.0937C39.0435 31.2988 39.158 31.3777 39.3133 31.624C39.6955 32.2301 39.9999 32.9535 39.9999 33.7498V38.0467C39.9999 38.5258 39.4633 39.0623 38.9843 39.0623H1.01558C0.536512 39.0623 0 38.5258 0 38.0467V33.7498C0 32.669 0.766705 31.1241 1.56256 30.703C1.23606 30.2153 0.874434 29.9788 0.518681 29.2469C0.0320305 28.246 0.000106768 27.715 0.000106768 26.6404C0.000106768 24.2321 2.35734 21.8748 4.76572 21.8748C7.9582 21.8748 8.59785 23.4903 9.21882 23.9061C9.57617 23.8107 10.3852 22.6561 12.4219 22.6561C11.7451 21.3771 11.9532 19.217 11.9532 17.5779C11.9532 14.5517 13.5522 11.9764 16.0781 10.4528C16.477 10.2122 16.92 10.0164 17.3548 9.85462C17.5872 9.76836 17.8503 9.68038 18.0616 9.624C18.3007 9.56005 18.566 9.54126 18.7499 9.45296C17.923 7.89019 17.578 7.82357 17.578 5.46868C17.578 4.00179 18.5212 2.45375 19.2765 1.69847C20.5645 0.410525 21.922 0 23.828 0C26.552 0 29.2967 2.7447 29.2967 5.46868C29.2967 7.42052 29.0322 8.05942 28.0467 9.53112C29.772 9.67472 31.8695 11.1779 32.9364 12.5321C33.6861 13.4838 33.1139 13.1569 34.0479 13.3736C37.0008 14.0591 37.9343 18.2818 34.6874 19.9999C34.6874 21.3058 34.8503 24.1716 34.453 24.9999C36.1951 24.9999 37.2431 24.8205 38.3768 25.5293C39.3589 26.1435 39.9328 27.1914 40 28.2976H39.9999ZM2.34368 26.9531C2.34368 25.4927 3.61764 24.2186 5.07812 24.2186C6.5385 24.2186 7.81246 25.4927 7.81246 26.9531C7.81246 28.4081 6.53306 29.6875 5.07812 29.6875C3.61764 29.6875 2.34368 28.4134 2.34368 26.9531ZM31.1718 24.9999C29.7924 24.9999 29.9999 23.5837 29.9999 22.8906C29.9999 22.6227 30.2834 22.5578 30.4921 22.4453L32.2655 21.4062C32.2655 22.4406 32.4636 24.1175 31.9617 24.618C31.8347 24.7447 31.3987 24.9999 31.1717 24.9999H31.1718ZM27.5781 22.1093V26.0937C27.5781 27.6558 29.2461 27.3437 30.0781 27.3437C31.3281 27.3437 32.578 27.3437 33.8281 27.3437C34.9119 27.3437 36.6589 27.113 37.2513 27.6703C37.9978 28.3728 37.6665 29.6874 36.2499 29.6874H12.7344C10.8043 29.6874 9.56955 27.8967 10.4915 26.1945C10.6574 25.8879 10.9804 25.5612 11.2508 25.3913C11.9737 24.9372 12.7549 24.9998 13.9063 24.9998H23.125C23.8861 24.9998 25.0225 25.2123 25.2717 24.0215C25.5853 22.5231 24.9086 20.4567 25.6869 19.8273L30.5227 17.0068C31.2044 16.6275 31.7889 16.2899 32.4529 15.8902C33.2369 15.4183 34.1669 15.6966 34.3372 16.6061C34.5157 17.5587 33.5803 17.8941 33.0019 18.2362C32.3155 18.6421 31.6949 18.99 31.0196 19.3788L28.1115 21.0802C27.8118 21.3006 27.578 21.6077 27.578 22.1091L27.5781 22.1093ZM23.6719 18.5156C23.2048 18.2684 22.7376 17.9687 22.0313 17.9687H19.0624C19.0624 17.2972 19.1559 16.5036 18.7737 16.0699C17.9814 15.1708 16.6407 15.6995 16.6407 16.875C16.6407 20.5613 16.4432 20.3125 19.6876 20.3125C20.243 20.3125 21.3708 20.2497 21.8584 20.3291C23.3794 20.5772 23.1567 22.6563 21.6407 22.6563H16.4064C15.3144 22.6563 14.3751 21.8438 14.3751 20.8594V17.1876C14.3751 16.3447 14.7153 15.4888 14.9993 14.921C15.1547 14.61 15.323 14.321 15.5352 14.0508C16.7467 12.5094 18.3967 11.7188 20.4688 11.7188H26.1719C27.3412 11.7188 28.2639 11.9729 29.0629 12.3435C29.7323 12.654 30.6138 13.3844 31.0157 13.9845C29.2913 14.897 27.1179 16.2813 25.3639 17.2388C24.7544 17.5716 24.03 17.9812 23.672 18.5158L23.6719 18.5156ZM19.9219 5.85935C19.9219 3.4152 22.512 1.61274 24.8449 2.65501C27.1273 3.67476 27.62 6.64207 25.9201 8.34182C24.246 10.0161 21.3215 9.57703 20.2581 7.31983C20.1145 7.01469 19.9219 6.26699 19.9219 5.85935Z" fill="#AC91BF"/>
</svg>
