<svg width="472" height="452" viewBox="0 0 472 452" fill="none" xmlns="http://www.w3.org/2000/svg">
<path d="M49.4833 23.496H267.307V450.728H36.4727V23.496H42.948" stroke="#2B2B2B" stroke-miterlimit="10"/>
<path d="M260.313 32.7476H190.363V441.486H260.313V32.7476Z" stroke="#2B2B2B" stroke-miterlimit="10"/>
<path d="M182.367 32.7476H116.414V441.486H182.367V32.7476Z" stroke="#2B2B2B" stroke-miterlimit="10"/>
<path d="M108.42 143.919V136.485" stroke="#2B2B2B" stroke-miterlimit="10"/>
<path d="M108.42 129.89V32.7476H43.4668V441.476H108.42V152.989" stroke="#2B2B2B" stroke-miterlimit="10"/>
<path d="M422.856 240.536C422.856 240.536 422.856 235.829 416.331 229.234C409.805 222.638 405.628 218.881 405.628 218.881C405.628 218.881 402.371 229.708 408.416 236.294C412.868 240.931 417.699 245.181 422.856 249V240.536Z" fill="#814A95"/>
<path d="M413.393 269.937C413.393 269.937 413.393 265.241 406.877 258.645C400.362 252.05 396.215 248.272 396.215 248.272C396.215 248.272 392.957 259.1 399.013 265.685C403.463 270.32 408.29 274.57 413.443 278.391L413.393 269.937Z" fill="#814A95"/>
<path d="M422.446 248.545C422.446 248.545 422.936 243.869 430.111 238.011C437.285 232.153 441.842 228.86 441.842 228.86C441.842 228.86 443.951 239.97 437.235 245.879C432.324 250.016 427.08 253.733 421.557 256.989L422.446 248.545Z" fill="#814A95"/>
<path d="M411.015 283.259C411.015 283.259 412.014 278.653 419.728 273.593C427.443 268.533 432.349 265.735 432.349 265.735C432.349 265.735 433.289 277.007 426.004 282.168C420.689 285.758 415.087 288.894 409.256 291.541L411.015 283.259Z" fill="#814A95"/>
<path d="M413.203 321.104C413.203 321.104 413.203 316.397 419.718 309.802C426.234 303.206 430.431 299.449 430.431 299.449C430.431 299.449 433.688 310.276 427.633 316.862C423.184 321.486 418.357 325.723 413.203 329.527V321.104Z" fill="#814A95"/>
<path d="M413.053 330.335C413.053 330.335 413.713 325.679 408.187 318.215C402.661 310.751 399.043 306.428 399.043 306.428C399.043 306.428 394.297 316.67 399.363 324.063C403.117 329.29 407.299 334.189 411.864 338.708L413.053 330.335Z" fill="#814A95"/>
<path d="M406.629 357.716C406.629 357.716 406.629 353.01 413.144 346.414C419.66 339.819 423.857 336.062 423.857 336.062C423.857 336.062 427.114 346.889 421.059 353.474C416.611 358.113 411.784 362.363 406.629 366.18V357.716Z" fill="#814A95"/>
<path d="M410.984 382.532C410.984 382.532 409.794 378.007 414.451 369.927C419.108 361.847 422.196 357.181 422.196 357.181C422.196 357.181 428.061 366.816 423.864 374.735C420.719 380.36 417.112 385.708 413.082 390.723L410.984 382.532Z" fill="#814A95"/>
<path d="M423.445 239.324C423.115 244.225 422.518 249.104 421.657 253.938C419.078 267.392 412.663 276.078 410.065 288.228C407.467 300.378 414.881 316.044 412.903 331.658C410.924 347.273 404.909 355.898 406.627 366.372C408.346 376.846 417.679 406.287 417.679 406.287" stroke="#2B2B2B" stroke-linecap="round" stroke-linejoin="round"/>
<path d="M422.377 251.676L429.402 246.222" stroke="#2B2B2B" stroke-linecap="round" stroke-linejoin="round"/>
<path d="M422.705 245.404L419.768 240.111" stroke="#2B2B2B" stroke-linecap="round" stroke-linejoin="round"/>
<path d="M410.455 287.673C410.455 287.673 416.331 283.208 422.377 278.754" stroke="#2B2B2B" stroke-linecap="round" stroke-linejoin="round"/>
<path d="M413.392 278.391C413.392 278.391 408.495 268.685 402.939 262.231" stroke="#2B2B2B" stroke-linecap="round" stroke-linejoin="round"/>
<path d="M413.393 327.79C416.75 321.539 420.988 315.813 425.974 310.792" stroke="#2B2B2B" stroke-linecap="round" stroke-linejoin="round"/>
<path d="M412.254 334.395C410.466 330.154 408.334 326.07 405.878 322.184C402.451 317.064 401.961 316.397 401.961 316.397" stroke="#2B2B2B" stroke-linecap="round" stroke-linejoin="round"/>
<path d="M406.629 366.362C408.119 362.622 409.89 359.003 411.925 355.535C413.96 352.318 416.256 349.277 418.79 346.445" stroke="#2B2B2B" stroke-linecap="round" stroke-linejoin="round"/>
<path d="M413.104 390.723C412.764 387.153 413.371 383.555 414.862 380.3C417.311 375.512 420.089 369.24 421.238 366.766" stroke="#2B2B2B" stroke-linecap="round" stroke-linejoin="round"/>
<path d="M380.166 303.398C380.166 303.398 379.656 300.449 383.044 295.601C386.431 290.753 388.64 287.935 388.64 287.935C388.64 287.935 391.848 294.369 388.76 299.156C386.466 302.552 383.896 305.748 381.075 308.711L380.166 303.398Z" fill="#814A95"/>
<path d="M389.221 320.791C389.221 320.791 388.711 317.841 392.089 312.993C395.466 308.145 397.695 305.328 397.695 305.328C397.695 305.328 400.902 311.761 397.815 316.549C395.521 319.945 392.951 323.141 390.13 326.103L389.221 320.791Z" fill="#814A95"/>
<path d="M381.284 308.378C381.284 308.378 380.475 305.499 375.348 302.621C370.222 299.742 367.004 298.167 367.004 298.167C367.004 298.167 366.874 305.368 371.721 308.327C375.234 310.381 378.911 312.135 382.713 313.569L381.284 308.378Z" fill="#814A95"/>
<path d="M392.216 328.891C392.216 328.891 391.107 326.113 385.711 323.79C380.315 321.467 376.957 320.245 376.957 320.245C376.957 320.245 377.577 327.426 382.703 329.86C386.419 331.528 390.266 332.879 394.205 333.9L392.216 328.891Z" fill="#814A95"/>
<path d="M394.897 352.858C394.897 352.858 394.397 349.909 389.601 346.495C384.804 343.081 381.767 341.172 381.767 341.172C381.767 341.172 380.887 348.323 385.394 351.788C388.684 354.203 392.167 356.338 395.806 358.171L394.897 352.858Z" fill="#814A95"/>
<path d="M395.955 358.646C395.955 358.646 395.045 355.797 397.704 350.505C400.362 345.213 402.17 342.112 402.17 342.112C402.17 342.112 406.257 348.02 403.869 353.222C402.078 356.912 399.982 360.443 397.604 363.776L395.955 358.646Z" fill="#814A95"/>
<path d="M404.138 382.441C404.138 382.441 404.478 379.472 409.075 375.785C413.672 372.099 416.59 370.018 416.59 370.018C416.59 370.018 417.869 377.088 413.592 380.825C410.443 383.431 407.083 385.765 403.549 387.804L404.138 382.441Z" fill="#814A95"/>
<path d="M402.93 375.099C402.93 375.099 402.421 372.149 397.624 368.736C392.828 365.322 389.8 363.423 389.8 363.423C389.8 363.423 388.92 370.564 393.427 374.028C396.713 376.45 400.196 378.585 403.84 380.411L402.93 375.099Z" fill="#814A95"/>
<path d="M402.861 391.137C402.861 391.137 403.12 388.107 399.333 383.613C395.546 379.118 393.098 376.472 393.098 376.472C393.098 376.472 390.449 383.158 393.937 387.663C396.513 390.842 399.347 393.799 402.411 396.501L402.861 391.137Z" fill="#814A95"/>
<path d="M379.668 302.712C380.405 305.748 381.302 308.741 382.356 311.68C385.414 319.831 390.35 324.568 393.348 331.88C396.346 339.193 393.348 349.848 396.236 359.423C399.124 368.998 403.861 373.775 403.901 380.492C403.941 387.208 401.312 405.904 401.312 405.904" stroke="#2B2B2B" stroke-linecap="round" stroke-linejoin="round"/>
<path d="M381.666 310.337L376.67 307.691" stroke="#2B2B2B" stroke-linecap="round" stroke-linejoin="round"/>
<path d="M380.785 306.439L382.054 302.802" stroke="#2B2B2B" stroke-linecap="round" stroke-linejoin="round"/>
<path d="M393.008 331.598C393.008 331.598 388.841 329.446 384.574 327.315" stroke="#2B2B2B" stroke-linecap="round" stroke-linejoin="round"/>
<path d="M390.219 326.103C391.441 322.19 393.055 318.414 395.035 314.832" stroke="#2B2B2B" stroke-linecap="round" stroke-linejoin="round"/>
<path d="M395.475 357.08C392.695 353.527 389.42 350.4 385.752 347.798" stroke="#2B2B2B" stroke-linecap="round" stroke-linejoin="round"/>
<path d="M396.895 361.1C397.562 358.242 398.461 355.445 399.583 352.737C401.181 349.152 401.421 348.697 401.421 348.697" stroke="#2B2B2B" stroke-linecap="round" stroke-linejoin="round"/>
<path d="M403.629 385.623C405.248 383.589 407.044 381.706 408.995 379.997C410.236 379.083 411.402 378.07 412.483 376.967" stroke="#2B2B2B" stroke-linecap="round" stroke-linejoin="round"/>
<path d="M403.861 380.522C402.524 378.343 401.024 376.269 399.374 374.321C397.754 372.527 395.989 370.871 394.098 369.372" stroke="#2B2B2B" stroke-linecap="round" stroke-linejoin="round"/>
<path d="M402.41 396.511C402.255 394.223 401.496 392.019 400.212 390.127C398.153 387.4 395.745 383.764 394.756 382.34" stroke="#2B2B2B" stroke-linecap="round" stroke-linejoin="round"/>
<path d="M421.584 450.728H394.384C394.102 450.729 393.823 450.674 393.562 450.566C393.302 450.458 393.065 450.299 392.865 450.098C392.666 449.897 392.507 449.659 392.399 449.396C392.291 449.133 392.235 448.851 392.235 448.566L385.49 406.197H430.458L423.713 448.566C423.713 449.138 423.489 449.686 423.09 450.091C422.691 450.496 422.15 450.725 421.584 450.728Z" fill="#2B2B2B" stroke="#2B2B2B" stroke-linecap="round" stroke-linejoin="round"/>
<path d="M387.264 412.287H419.65" stroke="#E8E8E8" stroke-linecap="round" stroke-linejoin="round"/>
<path d="M422.695 412.287H428.021" stroke="#E8E8E8" stroke-linecap="round" stroke-linejoin="round"/>
<path d="M40.3298 242.828C40.3298 242.828 40.1 236.768 37.5618 232.567C35.0236 228.365 25.7902 225.345 20.9537 227.436C18.5005 228.456 16.1112 229.627 13.7988 230.941C18.6141 232.464 23.1952 234.66 27.4091 237.465C31.3039 240.135 35.703 241.961 40.3298 242.828Z" fill="#814A95"/>
<path d="M50.0129 245.858C50.0129 245.858 44.4769 240.495 43.5575 233.031C42.6382 225.567 50.4626 213.922 50.4626 213.922C53.0658 218.898 55.1586 224.13 56.7081 229.537C59.0065 237.93 50.0129 245.858 50.0129 245.858Z" fill="#814A95"/>
<path d="M60.6254 243.525C60.6254 243.525 59.2464 236.536 61.7746 231.638C64.3027 226.739 71.0079 227.204 77.6932 229.304C84.3784 231.405 86.4369 231.405 86.4369 231.405C81.8242 234.531 76.9606 237.261 71.8973 239.566C68.2318 241.139 64.466 242.462 60.6254 243.525Z" fill="#814A95"/>
<path d="M50.074 268.654C49.9958 268.654 49.9183 268.638 49.8461 268.608C49.7739 268.577 49.7084 268.533 49.6536 268.476C49.5987 268.42 49.5555 268.353 49.5264 268.279C49.4974 268.206 49.4831 268.127 49.4845 268.048V234.718C49.4831 234.639 49.4974 234.56 49.5264 234.487C49.5555 234.413 49.5987 234.347 49.6536 234.29C49.7084 234.234 49.7739 234.189 49.8461 234.158C49.9183 234.128 49.9958 234.112 50.074 234.112C50.1528 234.112 50.2307 234.128 50.3035 234.158C50.3762 234.189 50.4423 234.233 50.498 234.29C50.5537 234.346 50.5978 234.413 50.628 234.486C50.6581 234.56 50.6736 234.638 50.6736 234.718V268.048C50.6736 268.128 50.6581 268.207 50.628 268.28C50.5978 268.354 50.5537 268.42 50.498 268.477C50.4423 268.533 50.3762 268.578 50.3035 268.608C50.2307 268.639 50.1528 268.654 50.074 268.654Z" fill="#2B2B2B"/>
<path d="M52.8405 268.654H52.7606C52.6047 268.632 52.4639 268.548 52.3686 268.421C52.2732 268.295 52.231 268.135 52.2509 267.978C52.3708 267.139 55.1588 247.394 64.6221 236.425C64.6728 236.365 64.735 236.315 64.8049 236.279C64.8748 236.244 64.951 236.222 65.0292 236.217C65.1073 236.211 65.1858 236.221 65.26 236.247C65.3343 236.272 65.4027 236.312 65.4615 236.364C65.5797 236.47 65.6522 236.617 65.6635 236.776C65.6747 236.935 65.6237 237.092 65.5214 237.213C56.288 247.899 53.4601 267.917 53.4601 268.129C53.4425 268.28 53.3686 268.418 53.2534 268.516C53.1382 268.614 52.9906 268.663 52.8405 268.654Z" fill="#2B2B2B"/>
<path d="M47.3059 268.19C47.2271 268.188 47.1494 268.171 47.0772 268.14C47.0049 268.108 46.9396 268.062 46.8848 268.005C46.8301 267.948 46.787 267.88 46.7581 267.806C46.7292 267.732 46.715 267.653 46.7163 267.574C46.7163 267.382 46.8062 248.384 35.6342 239.374C35.511 239.275 35.4318 239.131 35.414 238.972C35.3962 238.814 35.4412 238.655 35.5393 238.531C35.6374 238.406 35.7804 238.326 35.9368 238.308C36.0933 238.29 36.2505 238.336 36.3737 238.435C48.0054 247.838 47.9154 266.786 47.9054 267.594C47.9028 267.753 47.8385 267.904 47.7263 268.016C47.6142 268.127 47.4632 268.19 47.3059 268.19Z" fill="#2B2B2B"/>
<path d="M56.5369 267.917C56.4841 267.927 56.4299 267.927 56.377 267.917C56.3012 267.897 56.23 267.862 56.1677 267.814C56.1054 267.766 56.0532 267.706 56.0141 267.637C55.975 267.569 55.9499 267.493 55.9401 267.414C55.9304 267.336 55.9362 267.256 55.9573 267.18C57.1337 263.115 58.9562 259.27 61.3535 255.797C61.4462 255.663 61.5878 255.572 61.7471 255.543C61.9064 255.515 62.0703 255.552 62.2029 255.645C62.3354 255.739 62.4256 255.882 62.4537 256.043C62.4818 256.204 62.4455 256.37 62.3528 256.504C60.046 259.863 58.285 263.572 57.1365 267.493C57.0984 267.621 57.0185 267.733 56.9097 267.81C56.8009 267.887 56.6695 267.925 56.5369 267.917Z" fill="#2B2B2B"/>
<path d="M60.1668 258.686C60.1668 258.686 59.9369 252.151 62.705 251.222C65.473 250.292 68.0111 252.615 70.0897 254.019C72.1682 255.423 74.4465 256.807 74.4465 261.019C74.4465 265.23 72.8377 272.906 72.8377 272.906C72.8377 272.906 70.5293 265.675 66.6022 262.412C62.675 259.15 60.1668 258.686 60.1668 258.686Z" fill="#814A95"/>
<path d="M43.1585 268.19C43.0313 268.189 42.9076 268.148 42.8052 268.072C42.7028 267.995 42.627 267.888 42.5889 267.766C42.5889 267.715 40.7402 262.069 36.5932 258.675C36.4699 258.578 36.3902 258.434 36.3714 258.277C36.3527 258.12 36.3965 257.962 36.4932 257.837C36.59 257.713 36.7317 257.632 36.8872 257.613C37.0428 257.594 37.1994 257.638 37.3226 257.736C41.7994 261.302 43.6781 267.109 43.758 267.351C43.8051 267.504 43.7906 267.669 43.7176 267.811C43.6446 267.953 43.519 268.06 43.3683 268.109L43.1585 268.19Z" fill="#2B2B2B"/>
<path d="M40.3292 260.776C40.3292 260.776 41.2485 256.585 38.9402 253.555C36.6318 250.525 31.0958 251.221 28.3278 254.484C25.5598 257.746 21.6426 267.543 21.6426 267.543C21.6426 267.543 27.1786 263.109 33.634 263.109C40.0894 263.109 40.3292 260.776 40.3292 260.776Z" fill="#814A95"/>
<path d="M58.7059 303.924H40.2991L31.0957 273.149H67.9093L58.7059 303.924Z" fill="#2B2B2B" stroke="#2B2B2B" stroke-linecap="round" stroke-linejoin="round"/>
<path d="M68.0098 268.048H30.9863V273.149H68.0098V268.048Z" fill="#2B2B2B" stroke="#2B2B2B" stroke-linecap="round" stroke-linejoin="round"/>
<path d="M18.793 303.136V450.374H24.1192V392.551H117.912V450.374H123.238V303.136H18.793ZM24.1192 387.178V330.032H117.912V387.178H24.1192Z" fill="#2B2B2B" stroke="#2B2B2B" stroke-linecap="round" stroke-linejoin="round"/>
<path d="M416.61 1.60913H311.865V210.347H416.61V1.60913Z" stroke="#2B2B2B" stroke-miterlimit="10"/>
<path d="M412.203 6.40662H316.271V205.559H412.203V6.40662Z" stroke="#2B2B2B" stroke-miterlimit="10"/>
<path d="M370.062 15.5573C370.062 15.5573 364.856 10.8204 359.12 15.0321C353.384 19.2439 356.872 26.7886 356.872 26.7886C356.865 27.9802 357.041 29.1657 357.391 30.3034C357.911 31.5255 359.12 33.1112 359.3 33.6364C359.768 35.2046 359.644 36.8928 358.95 38.3733C357.951 40.3024 346.959 42.4134 345.23 47.6755C343.501 52.9376 341.583 69.2593 341.233 70.6632C340.883 72.0671 335.147 85.9344 334.628 88.3887C334.114 90.4759 333.477 92.5299 332.719 94.5397C332.719 94.5397 325.254 99.2766 324.905 100.499C324.555 101.721 325.604 101.377 326.643 101.377C327.683 101.377 327.333 100.68 327.643 101.377C327.952 102.074 325.904 106.993 325.904 106.993C325.904 106.993 326.254 108.225 327.293 107.518C328.018 106.926 328.562 106.138 328.862 105.246L328.112 110.225C328.095 110.331 328.1 110.439 328.126 110.543C328.152 110.647 328.199 110.745 328.263 110.83C328.328 110.915 328.409 110.986 328.501 111.038C328.594 111.09 328.696 111.123 328.802 111.134C328.97 111.156 329.14 111.122 329.287 111.038C329.435 110.955 329.552 110.825 329.621 110.669L331.47 106.468L331.26 110.366C331.07 111.629 332.009 112.437 332.679 111.205L333.189 109.649L333.898 105.771L334.168 109.104C334.178 109.212 334.211 109.316 334.264 109.41C334.317 109.504 334.39 109.586 334.477 109.649C334.564 109.712 334.664 109.756 334.769 109.777C334.874 109.798 334.983 109.796 335.087 109.771C335.243 109.729 335.382 109.638 335.483 109.511C335.584 109.383 335.641 109.227 335.647 109.064L335.807 103.842C336.521 102.162 336.989 100.386 337.196 98.5696C337.173 97.6305 337.23 96.6911 337.366 95.7618C337.366 95.7618 346.359 81.8944 347.269 78.2079C348.178 74.5214 349.177 69.2593 349.697 68.3806C350.132 67.408 350.467 66.3927 350.696 65.3505C350.696 65.3505 352.785 70.4006 352.265 74.4406C351.745 78.4806 349.827 84.4396 349.267 88.2978C348.707 92.1561 347.878 103.397 347.878 109.892C347.878 116.386 350.486 130.597 350.656 131.829C350.826 133.061 347.189 146.04 348.228 152.029C349.267 158.018 349.967 175.027 349.787 176.431C349.276 178.421 348.457 180.316 347.358 182.046C346.489 183.45 346.359 185.551 347.009 186.258C347.658 186.965 350.316 187.137 351.525 186.783C352.735 186.43 355.693 182.39 355.693 179.936C355.693 177.481 355.523 175.552 355.872 170.28C356.222 165.008 359.52 150.979 359.52 146.04C359.52 141.101 360.909 134.637 361.768 130.425C362.628 126.213 362.118 121.82 362.987 119.315C363.857 116.81 364.896 101.064 364.896 101.064H365.895C365.895 101.064 369.193 121.598 369.712 124.759C370.232 127.92 371.451 134.405 371.621 135.637C371.791 136.869 372.84 152.312 373.18 155.645C373.52 158.978 375.438 163.897 376.178 167.401C376.917 170.906 377.047 177.582 377.387 179.693C377.957 181.927 378.978 184.017 380.385 185.834C381.254 186.844 384.032 186.187 385.241 185.127C386.45 184.066 385.071 182.319 384.242 180.077C383.413 177.835 382.333 177.613 382.333 173.007C382.333 168.401 383.023 152.302 383.023 145.636C383.023 138.97 380.944 128.961 380.944 126.325C380.944 123.688 383.553 110.003 383.373 102.983C383.099 96.5105 382.405 90.0629 381.294 83.6821C380.775 81.046 378.856 77.006 378.166 74.38C377.477 71.754 378.336 65.0778 378.336 65.0778L382.164 75.0769C382.164 75.0769 384.242 79.1169 386.331 84.0255C387.881 87.4476 389.802 90.6858 392.056 93.6812C392.056 93.6812 392.576 98.5999 392.756 100.175C392.825 101.201 392.999 102.216 393.276 103.206C393.445 103.741 393.795 108.478 393.965 109.003C394.135 109.528 394.665 109.175 394.665 108.478C394.594 107.455 394.709 106.428 395.004 105.448C395.354 104.923 395.704 107.377 395.874 108.609C396.044 109.841 396.573 110.72 397.093 109.488C397.461 107.995 397.636 106.461 397.612 104.923C397.612 104.923 398.312 104.569 398.482 106.155C398.652 107.74 400.74 111.063 401.26 110.013C401.779 108.963 400.39 103.519 400.39 103.519C400.39 103.519 401.779 107.033 402.479 107.559C403.178 108.084 403.688 107.559 403.348 105.801C403.009 104.044 401.43 99.6604 401.43 99.6604C401.43 99.6604 404.208 100.893 404.208 99.4786C404.208 98.0646 401.959 97.2061 400.74 95.6204C399.366 94.131 397.853 92.7781 396.223 91.5804C396.223 91.5804 392.226 77.8847 391.367 75.6021C390.508 73.3195 387.54 69.2896 387.37 68.0574C387.2 66.8252 385.281 57.8765 385.281 57.8765C385.281 57.8765 384.762 46.2918 383.023 44.191C381.284 42.0901 375.388 41.7266 373.65 40.3226C371.911 38.9187 370.232 37.3229 370.232 36.0907V32.4042C371.105 31.4112 371.702 30.2018 371.961 28.8995C372.141 27.1421 372.141 25.7382 372.141 25.7382C372.608 23.9953 372.663 22.1658 372.302 20.3974C371.941 18.629 371.174 16.9711 370.062 15.5573Z" fill="#808080"/>
<path d="M367.575 25.3645C367.575 25.3645 370.573 22.4759 370.573 20.668C370.573 19.3236 370.16 18.0122 369.393 16.9144C368.625 15.8165 367.54 14.9861 366.286 14.5372C362.898 13.2747 358.791 15.6179 357.722 18.6883C356.653 21.7588 359.86 24.4656 360.58 25.3645C361.344 26.0581 362.263 26.5538 363.258 26.8088L364.147 88.1867H365.237L365.416 27.1724L367.575 25.3645Z" stroke="#E8E8E8" stroke-miterlimit="10"/>
<path d="M364.716 96.1254C363.995 97.295 363.154 98.3851 362.208 99.3776C361.319 100.105 360.959 99.7412 360.779 100.276" stroke="#E8E8E8" stroke-miterlimit="10"/>
<path d="M364.357 99.2462C364.357 99.2462 360.96 107.912 361.14 111.528C361.32 115.144 361.32 115.851 361.32 118.386C361.32 120.921 361.499 122.901 361.499 124.88" stroke="#E8E8E8" stroke-miterlimit="10"/>
<path d="M362.039 106.963C362.039 106.963 363.458 108.983 362.389 113.639" stroke="#E8E8E8" stroke-miterlimit="10"/>
<path d="M363.288 42.5143C363.288 42.5143 355.244 45.9483 354.175 48.6551C353.105 51.3619 356.673 50.8165 357.572 50.8165" stroke="#E8E8E8" stroke-miterlimit="10"/>
<path d="M363.289 44.504C363.289 44.504 352.217 51.5741 352.747 52.9881C353.277 54.4021 357.923 54.6142 357.923 54.6142" stroke="#E8E8E8" stroke-miterlimit="10"/>
<path d="M363.64 48.2915C363.64 48.2915 353.467 55.3615 353.647 57.1391C353.827 58.9167 358.473 57.5027 358.473 57.5027" stroke="#E8E8E8" stroke-miterlimit="10"/>
<path d="M363.458 51.9073C363.458 51.9073 353.465 60.9267 353.635 61.4721C353.805 62.0175 356.493 61.6539 356.493 61.6539" stroke="#E8E8E8" stroke-miterlimit="10"/>
<path d="M363.457 55.8766C363.457 55.8766 353.814 62.5527 354.174 64.1788C354.534 65.8049 357.571 64.8959 357.571 64.8959" stroke="#E8E8E8" stroke-miterlimit="10"/>
<path d="M363.29 58.7653C363.29 58.7653 355.785 65.9868 355.066 67.9664C354.346 69.946 355.425 70.1379 355.425 70.1379L355.965 70.855" stroke="#E8E8E8" stroke-miterlimit="10"/>
<path d="M363.457 62.5527C363.457 62.5527 355.602 70.1379 355.782 71.9357C355.773 72.4097 355.93 72.8718 356.224 73.2411C356.518 73.6104 356.931 73.8633 357.391 73.9557" stroke="#E8E8E8" stroke-miterlimit="10"/>
<path d="M363.457 65.0778C363.457 65.0778 356.322 74.4708 356.322 76.2686C356.322 78.0664 357.032 78.6219 357.032 78.6219" stroke="#E8E8E8" stroke-miterlimit="10"/>
<path d="M363.458 67.4312C363.458 67.4312 358.641 75.7334 358.282 77.1777C358.063 78.0638 357.943 78.9716 357.922 79.8845" stroke="#E8E8E8" stroke-miterlimit="10"/>
<path d="M363.458 71.5822L359.711 79.1572" stroke="#E8E8E8" stroke-miterlimit="10"/>
<path d="M363.637 75.188C363.637 75.188 360.069 81.147 359.35 81.8641" stroke="#E8E8E8" stroke-miterlimit="10"/>
<path d="M363.639 78.8037C363.639 78.8037 360.641 82.9548 359.182 83.8537C357.723 84.7526 355.065 84.9344 354.715 84.2173C354.366 83.5002 354.356 81.3287 354.176 80.6015" stroke="#E8E8E8" stroke-miterlimit="10"/>
<path d="M354.716 84.2174C354.716 84.2174 354.176 85.1163 353.287 86.9242C352.397 88.7321 351.678 89.0856 351.678 89.0856" stroke="#E8E8E8" stroke-miterlimit="10"/>
<path d="M353.284 86.9242L351.855 86.3788" stroke="#E8E8E8" stroke-miterlimit="10"/>
<path d="M353.996 82.4095L352.217 81.6924" stroke="#E8E8E8" stroke-miterlimit="10"/>
<path d="M363.638 81.1469C363.638 81.1469 358.102 85.8434 357.393 88.3684C356.683 90.8934 352.566 96.4484 352.037 99.0138C351.507 101.579 351.857 102.983 351.497 106.599C351.137 110.215 350.248 112.376 350.248 114.538" stroke="#E8E8E8" stroke-miterlimit="10"/>
<path d="M351.857 98.4786C351.117 99.5768 350.573 100.797 350.248 102.084" stroke="#E8E8E8" stroke-miterlimit="10"/>
<path d="M351.677 103.892C350.878 105.112 350.274 106.452 349.889 107.862" stroke="#E8E8E8" stroke-miterlimit="10"/>
<path d="M363.818 83.3083C363.818 83.3083 359.891 87.2878 359.711 88.1867C359.532 89.0856 363.639 85.6617 363.639 85.6617C363.639 85.6617 360.961 90.1764 359.352 93.6003C357.743 97.0242 354.535 100.67 354.535 104.428C354.535 108.185 355.784 111.649 356.324 114.719C356.863 117.79 357.923 122.305 357.753 127.355C357.583 132.405 357.393 134.758 357.393 137.647C357.393 140.535 357.213 145.232 356.853 146.131C356.484 147.375 356.187 148.639 355.964 149.918" stroke="#E8E8E8" stroke-miterlimit="10"/>
<path d="M364.537 88.9038C364.537 88.9038 358.461 102.266 357.542 106.417C356.623 110.568 355.753 119.961 355.394 121.941C355.034 123.921 355.214 131.334 355.034 134.394C354.854 137.455 354.324 153.534 354.324 155.16C354.324 156.786 353.245 174.997 353.245 176.643C353.173 178.499 352.619 180.304 351.636 181.875C350.959 182.911 350.361 183.998 349.848 185.127" stroke="#E8E8E8" stroke-miterlimit="10"/>
<path d="M355.064 124.496C353.408 126.847 352.591 129.695 352.746 132.576C353.105 136.182 351.137 144.484 351.137 147.191C351.137 149.898 351.317 154.958 351.497 156.039C351.676 157.119 351.676 160.553 351.856 163.624C352.036 166.694 352.216 170.118 352.216 172.472C352.269 174.24 351.833 175.989 350.957 177.522C350.068 179.542 348.639 182.753 348.639 182.753" stroke="#E8E8E8" stroke-miterlimit="10"/>
<path d="M355.244 175.734L353.635 170.502" stroke="#E8E8E8" stroke-miterlimit="10"/>
<path d="M358.102 131.506C358.653 132.894 359.016 134.352 359.181 135.839" stroke="#E8E8E8" stroke-miterlimit="10"/>
<path d="M364.537 92.7014C364.537 92.7014 364.887 95.59 362.929 96.6707C360.97 97.7514 359.351 97.0343 356.493 94.1457C353.635 91.2571 354.355 87.8231 358.102 86.3788" stroke="#E8E8E8" stroke-miterlimit="10"/>
<path d="M360.78 114.396C360.214 115.905 359.854 117.485 359.711 119.093" stroke="#E8E8E8" stroke-miterlimit="10"/>
<path d="M363.458 32.9496C363.458 32.9496 362.039 34.2121 362.039 35.111C362.039 36.0099 359.71 38.9086 357.212 41.2518C354.714 43.595 351.137 42.1507 348.099 47.029C345.587 51.0105 344.342 55.6736 344.531 60.3914C344.531 64.7142 344.531 63.2699 343.812 66.8857C343.092 70.5015 336.677 88.5503 335.418 91.6207C334.159 94.6911 333.419 95.7718 332.42 96.4889C331.421 97.206 328.483 99.519 327.953 99.7412" stroke="#E8E8E8" stroke-miterlimit="10"/>
<path d="M363.108 37.4644C363.108 37.4644 359.711 40.4944 357.392 42.1508C355.074 43.8072 348.819 45.7666 347.4 49.7359C345.981 53.7052 345.791 59.3006 345.611 62.3711C345.431 65.4415 342.613 73.9255 342.043 75.7334C341.474 77.5413 332.4 96.489 332.4 96.489" stroke="#E8E8E8" stroke-miterlimit="10"/>
<path d="M363.109 38.9084C363.109 38.9084 359.002 41.7971 355.244 44.7059C351.487 47.6147 350.068 53.3616 349.359 58.0581C348.649 62.7546 346.361 71.9558 345.601 75.2282C344.842 78.5006 337.028 93.277 336.498 94.9031C335.91 96.4317 335.433 98.0013 335.069 99.5996C334.709 101.408 334.529 106.458 334.529 106.458" stroke="#E8E8E8" stroke-miterlimit="10"/>
<path d="M355.245 44.7061C355.245 44.7061 350.788 47.5947 349.359 51.0186C347.93 54.4425 346.141 65.6434 345.422 69.9763C344.702 74.3093 335.429 94.2164 334.529 95.7921C333.63 97.3677 330.782 103.185 329.883 105.539" stroke="#E8E8E8" stroke-miterlimit="10"/>
<path d="M332.74 99.2462C331.326 100.783 330.014 102.413 328.812 104.125" stroke="#E8E8E8" stroke-miterlimit="10"/>
<path d="M333.458 98.8322L332.389 108.225" stroke="#E8E8E8" stroke-miterlimit="10"/>
<path d="M356.873 26.7886C357.814 27.7707 358.967 28.5206 360.241 28.9803C361.227 29.1802 362.252 28.9846 363.099 28.4349" stroke="#E8E8E8" stroke-miterlimit="10"/>
<path d="M358.283 30.2427L361.141 30.4245L362.93 29.5155" stroke="#E8E8E8" stroke-miterlimit="10"/>
<path d="M362.75 30.9598C362.75 30.9598 362.93 32.0405 360.072 32.2223" stroke="#E8E8E8" stroke-miterlimit="10"/>
<path d="M365.236 42.5142C365.236 42.5142 373.231 45.9482 374.35 48.655C375.469 51.3618 371.842 50.8164 370.952 50.8164" stroke="#E8E8E8" stroke-miterlimit="10"/>
<path d="M365.236 44.504C365.236 44.504 376.308 51.5741 375.779 52.9881C375.249 54.4021 370.592 54.6142 370.592 54.6142" stroke="#E8E8E8" stroke-miterlimit="10"/>
<path d="M364.896 48.2915C364.896 48.2915 375.079 55.3615 374.889 57.1391C374.699 58.9167 370.073 57.5027 370.073 57.5027" stroke="#E8E8E8" stroke-miterlimit="10"/>
<path d="M365.078 51.9073C365.078 51.9073 375.071 60.9267 374.901 61.4721C374.731 62.0175 372.043 61.6539 372.043 61.6539" stroke="#E8E8E8" stroke-miterlimit="10"/>
<path d="M365.078 55.8766C365.078 55.8766 374.721 62.5527 374.371 64.1788C374.022 65.8049 370.974 64.8959 370.974 64.8959" stroke="#E8E8E8" stroke-miterlimit="10"/>
<path d="M365.236 58.7653C365.236 58.7653 372.741 65.9868 373.45 67.9664C374.16 69.946 373.091 70.1379 373.091 70.1379L372.561 70.855" stroke="#E8E8E8" stroke-miterlimit="10"/>
<path d="M365.078 62.5527C365.078 62.5527 372.942 70.1379 372.763 71.9357C372.772 72.4097 372.615 72.8718 372.321 73.2411C372.027 73.6104 371.614 73.8633 371.154 73.9557" stroke="#E8E8E8" stroke-miterlimit="10"/>
<path d="M365.078 65.0778C365.078 65.0778 372.223 74.4708 372.223 76.2686C372.223 78.0664 371.514 78.6219 371.514 78.6219" stroke="#E8E8E8" stroke-miterlimit="10"/>
<path d="M365.078 67.4312C365.078 67.4312 369.905 75.7334 370.254 77.1777C370.473 78.0638 370.593 78.9716 370.614 79.8845" stroke="#E8E8E8" stroke-miterlimit="10"/>
<path d="M365.078 71.5823L368.835 79.1573" stroke="#E8E8E8" stroke-miterlimit="10"/>
<path d="M364.896 75.188C364.896 75.188 368.474 81.147 369.183 81.8641" stroke="#E8E8E8" stroke-miterlimit="10"/>
<path d="M364.896 78.8037C364.896 78.8037 367.894 82.9548 369.363 83.8537C370.832 84.7526 373.47 84.9344 373.83 84.2173C374.19 83.5002 374.19 81.3287 374.37 80.6015" stroke="#E8E8E8" stroke-miterlimit="10"/>
<path d="M373.83 84.2174C373.83 84.2174 374.37 85.1163 375.259 86.9242C376.148 88.7321 376.868 89.0856 376.868 89.0856" stroke="#E8E8E8" stroke-miterlimit="10"/>
<path d="M375.26 86.9242L376.689 86.3788" stroke="#E8E8E8" stroke-miterlimit="10"/>
<path d="M374.541 82.4095L376.33 81.6924" stroke="#E8E8E8" stroke-miterlimit="10"/>
<path d="M364.896 81.1469C364.896 81.1469 370.433 85.8434 371.152 88.3684C371.871 90.8934 375.969 96.4484 376.508 99.0138C377.048 101.579 376.688 102.983 377.048 106.599C377.408 110.215 378.297 112.376 378.297 114.538" stroke="#E8E8E8" stroke-miterlimit="10"/>
<path d="M376.688 98.4786C377.427 99.5768 377.972 100.797 378.296 102.084" stroke="#E8E8E8" stroke-miterlimit="10"/>
<path d="M376.869 103.892C377.668 105.112 378.272 106.452 378.658 107.862" stroke="#E8E8E8" stroke-miterlimit="10"/>
<path d="M364.717 83.3083C364.717 83.3083 368.654 87.2878 368.834 88.1867C369.014 89.0856 364.897 85.6617 364.897 85.6617C364.897 85.6617 367.575 90.1764 369.184 93.6003C370.792 97.0242 374.01 100.67 374.01 104.428C374.01 108.185 372.761 111.649 372.221 114.719C371.682 117.79 373.53 121.79 373.71 126.84C373.89 131.89 374.07 134.243 374.07 137.121C374.07 140 374.25 144.706 374.61 145.605C374.973 146.854 375.27 148.122 375.499 149.403" stroke="#E8E8E8" stroke-miterlimit="10"/>
<path d="M364.006 88.9038C364.006 88.9038 370.082 102.266 371.001 106.417C371.92 110.568 375.678 119.446 376.037 121.466C376.397 123.486 376.217 130.849 376.387 133.92C376.557 136.99 377.106 153.049 377.106 154.675C377.106 156.301 378.226 174.481 378.226 176.108C378.296 177.964 378.851 179.769 379.835 181.339C380.512 182.376 381.11 183.463 381.623 184.592" stroke="#E8E8E8" stroke-miterlimit="10"/>
<path d="M376.389 123.941C378.055 126.286 378.877 129.138 378.717 132.021C378.357 135.627 380.326 143.939 380.326 146.646C380.326 149.352 380.146 154.403 379.966 155.493C379.786 156.584 379.786 159.998 379.606 163.068C379.426 166.139 379.227 169.613 379.227 171.966C379.172 173.736 379.609 175.485 380.486 177.017C381.375 179.037 382.804 182.258 382.804 182.258" stroke="#E8E8E8" stroke-miterlimit="10"/>
<path d="M376.219 175.209L377.818 169.967" stroke="#E8E8E8" stroke-miterlimit="10"/>
<path d="M373.36 130.981C372.807 132.369 372.444 133.826 372.281 135.314" stroke="#E8E8E8" stroke-miterlimit="10"/>
<path d="M364.006 92.7014C364.006 92.7014 363.647 95.59 365.615 96.6707C367.584 97.7514 369.183 97.0343 372.04 94.1457C374.898 91.2571 374.189 87.8231 370.432 86.3788" stroke="#E8E8E8" stroke-miterlimit="10"/>
<path d="M372.232 114.72C371.727 116.508 371.392 118.341 371.232 120.194" stroke="#E8E8E8" stroke-miterlimit="10"/>
<path d="M365.078 32.9496C365.078 32.9496 366.507 34.2121 366.507 35.111C366.507 36.0099 368.835 38.9086 371.334 41.2518C373.832 43.595 377.399 42.1507 380.437 47.029C382.955 51.0077 384.204 55.6721 384.015 60.3914C384.015 64.7142 384.015 63.2699 384.724 66.8857C385.434 70.5015 391.869 88.5503 393.118 91.6207C394.367 94.6911 395.117 95.7718 396.116 96.4889C397.115 97.206 400.043 99.519 400.583 99.7412" stroke="#E8E8E8" stroke-miterlimit="10"/>
<path d="M365.436 37.4644C365.436 37.4644 368.833 40.4944 371.151 42.1508C373.47 43.8072 379.725 45.7666 381.144 49.7359C382.563 53.7052 382.753 59.3006 382.923 62.3711C383.093 65.4415 385.921 73.9255 386.5 75.7334C387.08 77.5413 396.144 96.489 396.144 96.489" stroke="#E8E8E8" stroke-miterlimit="10"/>
<path d="M365.436 38.9084C365.436 38.9084 369.543 41.7971 373.29 44.6857C377.037 47.5743 378.476 53.3414 379.186 58.0379C379.895 62.7344 382.184 71.9356 382.933 75.208C383.682 78.4804 391.507 93.2568 392.046 94.8829C392.63 96.4131 393.107 97.9824 393.475 99.5794C393.835 101.387 394.015 106.437 394.015 106.437" stroke="#E8E8E8" stroke-miterlimit="10"/>
<path d="M373.291 44.7061C373.291 44.7061 377.758 47.5947 379.187 51.0186C380.616 54.4425 382.405 65.6434 383.114 69.9763C383.823 74.3093 393.107 94.2164 394.016 95.7921C394.926 97.3677 397.763 103.185 398.653 105.539" stroke="#E8E8E8" stroke-miterlimit="10"/>
<path d="M395.795 99.2462C397.213 100.782 398.529 102.412 399.732 104.125" stroke="#E8E8E8" stroke-miterlimit="10"/>
<path d="M395.086 98.8322L396.155 108.225" stroke="#E8E8E8" stroke-miterlimit="10"/>
<path d="M371.671 26.7886C370.727 27.772 369.571 28.522 368.293 28.9803C367.307 29.1802 366.282 28.9846 365.436 28.4349" stroke="#E8E8E8" stroke-miterlimit="10"/>
<path d="M370.254 30.2427L367.406 30.4245L365.617 29.5155" stroke="#E8E8E8" stroke-miterlimit="10"/>
<path d="M365.797 30.9598C365.797 30.9598 365.617 32.0405 368.475 32.2223" stroke="#E8E8E8" stroke-miterlimit="10"/>
<path d="M323.756 28.2632H331.59L346.789 42.6961" stroke="#2B2B2B" stroke-miterlimit="10"/>
<path d="M401.131 38.04H396.994L385.932 52.9376" stroke="#2B2B2B" stroke-miterlimit="10"/>
<path d="M402.062 129.284H397.455L383.635 118.578" stroke="#2B2B2B" stroke-miterlimit="10"/>
<path d="M329.752 165.129H336.197L346.33 158.604" stroke="#2B2B2B" stroke-miterlimit="10"/>
<path d="M323.756 123.698H331.131L345.87 111.124" stroke="#2B2B2B" stroke-miterlimit="10"/>
<path d="M403.9 71.562H399.752L395.605 79.4703" stroke="#2B2B2B" stroke-miterlimit="10"/>
<path d="M392.845 16.6279H385.471L373.959 26.8694" stroke="#2B2B2B" stroke-miterlimit="10"/>
<path d="M341.725 16.1633H349.089L352.777 19.8902" stroke="#2B2B2B" stroke-miterlimit="10"/>
<path d="M356.004 191.662H373.961" stroke="#2B2B2B" stroke-miterlimit="10"/>
<path d="M338.957 195.378H389.161" stroke="#2B2B2B" stroke-miterlimit="10"/>
<path d="M275.655 135.455C275.655 135.455 276.095 162.079 274.775 162.967C273.456 163.856 267.91 170.805 260.785 166.109C253.661 161.412 257.688 148.878 257.908 142.384C258.127 135.889 266.322 133.657 268.09 133.213C269.859 132.768 275.655 135.455 275.655 135.455Z" fill="#FCFFEF" stroke="#2B2B2B" stroke-miterlimit="10"/>
<path d="M275.655 135.455C275.655 135.455 269.899 132.768 268.13 133.213C266.361 133.657 258.137 135.899 257.947 142.384C257.777 147.353 255.409 155.837 257.478 161.665L262.004 160.725L265.312 141.141L275.745 140.656C275.695 137.626 275.655 135.455 275.655 135.455Z" fill="#2B2B2B" stroke="#2B2B2B" stroke-miterlimit="10"/>
<path d="M168.321 429.689C168.321 429.689 147.816 443.395 147.186 445.678C146.834 447.359 146.834 449.097 147.186 450.778H188.496V438.295C188.496 438.295 174.626 430.013 168.321 429.689Z" fill="#E8E8E8" stroke="#2B2B2B" stroke-miterlimit="10"/>
<path d="M248.775 429.689C248.775 429.689 269.311 443.395 269.9 445.678C270.252 447.359 270.252 449.097 269.9 450.778H228.59V438.295C228.59 438.295 242.46 430.013 248.775 429.689Z" fill="#E8E8E8" stroke="#2B2B2B" stroke-miterlimit="10"/>
<path d="M171.16 203.61L167.692 305.287L169.261 415.378C169.261 415.378 166.113 420.428 166.113 422.074C166.113 423.72 166.743 430.356 166.743 430.356C166.743 430.356 170.21 431.316 174.627 432.911C179.044 434.507 188.187 439.921 188.187 439.921C188.187 439.921 191.025 432.275 191.975 428.811C192.924 425.346 190.975 417.337 190.975 415.105C190.975 412.873 198.86 367.049 198.86 367.049L212.73 248.949L220.934 370.241L225.98 417.973C225.98 417.973 223.452 425.306 223.772 427.225C224.092 429.144 228.239 438.608 228.239 438.608L253.78 433.558V425.589L251.572 417.62L250.323 406.106V319.629L250.953 244.414L250.323 210.347L171.16 203.61Z" fill="#814A95" stroke="#2B2B2B" stroke-miterlimit="10"/>
<path d="M171.16 203.61L170.5 222.8C174.747 224.305 211.84 236.758 250.613 226.618L250.323 210.347L171.16 203.61Z" fill="#2B2B2B" stroke="#2B2B2B" stroke-miterlimit="10"/>
<path d="M245.827 407.096L244.508 312.357" stroke="#2B2B2B" stroke-miterlimit="10"/>
<path d="M246.486 412.438L247.146 419.105" stroke="#2B2B2B" stroke-miterlimit="10"/>
<path d="M181.892 367.746C179.894 385.118 177.176 410.045 177.176 411.772C177.176 414.438 183.112 423.781 183.112 423.781L177.835 425.114L179.154 429.154" stroke="#2B2B2B" stroke-miterlimit="10"/>
<path d="M183.781 351.061C183.781 351.061 183.481 353.626 183.021 357.716" stroke="#2B2B2B" stroke-miterlimit="10"/>
<path d="M146.956 446.9C146.856 448.18 146.934 449.469 147.186 450.728H188.497V446.9H146.956Z" fill="#E8E8E8" stroke="black" stroke-miterlimit="10"/>
<path d="M228.59 450.728H269.9C270.133 449.562 270.217 448.37 270.15 447.183H228.59V450.728Z" fill="#E8E8E8" stroke="black" stroke-miterlimit="10"/>
<path d="M218.167 74.2184C218.167 74.2184 180.643 80.339 177.126 80.9349C174.939 81.2283 172.821 81.9122 170.87 82.9549C170.291 83.3488 166.574 150.302 166.773 151.282C166.973 152.261 168.492 219.871 168.492 219.871C168.492 219.871 197.801 227.173 216.758 226.941C228.463 226.797 240.146 225.876 251.733 224.184L257.828 163.503L262.315 138.636L287.527 137.455C287.527 137.455 276.775 102.488 276.195 99.923C275.615 97.3576 255.32 88.0453 249.624 85.2779C243.928 82.5105 229.498 76.7838 229.498 76.7838L218.167 74.2184Z" fill="#814A95" stroke="#2B2B2B" stroke-miterlimit="10"/>
<path d="M216.416 89.6109L233.873 117.073L248.843 88.2474" stroke="#2B2B2B" stroke-miterlimit="10"/>
<path d="M210.154 79.7532L212.852 83.9952" stroke="#2B2B2B" stroke-miterlimit="10"/>
<path d="M262.324 138.606L272.287 107.205L265.642 138.606H262.324Z" fill="#2B2B2B" stroke="#2B2B2B" stroke-miterlimit="10"/>
<path d="M272.688 46.3726C273.158 46.1624 273.566 45.8338 273.874 45.4181C274.182 45.0025 274.379 44.5139 274.447 43.9991C274.883 41.3415 274.779 38.6218 274.139 36.0064C273.5 33.3911 272.34 30.935 270.729 28.7884C265.653 21.88 254.741 15.9513 244.158 19.5065C233.576 23.0617 228.909 33.5354 228.34 38.8682C227.77 44.2011 226.341 53.8769 226.341 53.8769L215.199 75.8041L234.186 105.034L247.086 81.7227C247.086 81.7227 241.221 73.0367 239.092 65.3303C236.964 57.624 243.199 52.8871 250.034 48.3421C256.869 43.7971 262.545 43.2113 264.884 44.2011C267.437 45.0896 270.044 45.8149 272.688 46.3726Z" fill="#FCFFEF" stroke="#2B2B2B" stroke-miterlimit="10"/>
<path d="M232.086 67.007L241.689 90.8027L247.695 80.6016L232.086 67.007Z" fill="#2B2B2B" stroke="#2B2B2B" stroke-miterlimit="10"/>
<path d="M250.014 48.3421C256.859 43.8072 262.525 43.2113 264.863 44.2011C267.424 45.0904 270.037 45.8157 272.688 46.3726C273.157 46.1624 273.566 45.8338 273.874 45.4181C274.182 45.0025 274.379 44.5139 274.446 43.9991C274.883 41.3415 274.778 38.6218 274.139 36.0064C273.5 33.3911 272.34 30.935 270.729 28.7884C265.653 21.88 254.741 15.9513 244.158 19.5065C233.576 23.0617 228.909 33.5354 228.339 38.8683C227.96 42.272 227.27 47.4432 226.811 50.7459L240.96 55.9575C243.089 53.1093 246.466 50.7055 250.014 48.3421Z" fill="#2B2B2B" stroke="#2B2B2B" stroke-miterlimit="10"/>
<path d="M235.333 49.5339C235.333 49.5339 238.65 50.1197 240.409 48.3421C242.168 46.5645 239.41 44.393 243.337 43.2113C247.264 42.0296 250.962 43.8072 251.741 41.1913C252.521 38.5754 253.74 34.4849 255.648 33.2931C257.557 32.1013 266.98 38.232 270.498 40.7974C274.015 43.3628 272.846 45.7363 271.287 51.463C269.728 57.1898 268.159 58.9674 266.401 59.3613C264.642 59.7552 263.663 60.745 263.663 63.3205C263.663 65.896 264.252 69.4411 262.883 70.8248C261.514 72.2085 257.217 72.0065 257.217 72.0065C255.562 75.1379 253.734 78.1727 251.741 81.0966C249.982 83.2681 246.275 83.2681 243.337 81.2885C240.399 79.3089 231.645 69.0876 230.666 64.9062C229.687 60.7248 231.056 56.8262 231.845 54.4426C232.635 52.0589 235.333 49.5339 235.333 49.5339Z" fill="#FCFFEF" stroke="#2B2B2B" stroke-miterlimit="10"/>
<path d="M236.533 51.1095C236.533 51.1095 236.333 45.1909 232.815 44.393C229.298 43.5951 225.591 50.5237 227.149 54.8667C228.708 59.2098 233.205 57.6241 233.205 57.6241" fill="#FCFFEF"/>
<path d="M236.533 51.1095C236.533 51.1095 236.333 45.1909 232.815 44.393C229.298 43.5951 225.591 50.5237 227.149 54.8667C228.708 59.2098 233.205 57.6241 233.205 57.6241" stroke="#2B2B2B" stroke-miterlimit="10"/>
<path d="M258.028 58.6139L257.028 60.9874C257.028 60.9874 252.732 59.9774 252.342 57.826" stroke="#2B2B2B" stroke-miterlimit="10"/>
<path d="M261.546 57.624C261.546 57.624 258.418 53.483 254.121 53.483" stroke="#2B2B2B" stroke-miterlimit="10"/>
<path d="M156.561 125.385C156.561 125.385 148.567 152.13 147.038 159.513C145.509 166.896 147.258 173.835 150.805 177.693C154.352 181.552 176.507 186.208 176.507 186.208L175.597 179.481C175.597 179.481 169.182 164.26 168.952 163.372C168.722 162.483 178.945 130.354 178.945 130.354L156.561 125.385Z" fill="#FCFFEF" stroke="#2B2B2B" stroke-miterlimit="10"/>
<path d="M154.391 130.96L175.915 137.808C177.594 133.627 178.913 130.304 178.913 130.304L156.559 125.385C156.559 125.385 155.62 127.678 154.391 130.96Z" fill="#2B2B2B" stroke="#2B2B2B" stroke-miterlimit="10"/>
<path d="M153.551 162.957C153.551 162.957 158.787 158.685 167.841 163.967" stroke="#2B2B2B" stroke-miterlimit="10"/>
<path d="M174.587 81.7227C174.587 81.7227 171.659 79.3593 167.752 85.6718C163.845 91.9844 149.186 126.759 149.186 126.759L184.16 136.627L186.159 106.811" fill="#814A95"/>
<path d="M174.587 81.7227C174.587 81.7227 171.659 79.3593 167.752 85.6718C163.845 91.9844 149.186 126.759 149.186 126.759L184.16 136.627L186.159 106.811" stroke="#2B2B2B" stroke-miterlimit="10"/>
<path d="M247.527 234.698C247.527 234.698 223.774 232.728 208.964 235.829C201.107 237.383 193.359 239.458 185.771 242.041C185.771 242.041 177.946 242.606 175.158 243.737C172.517 244.638 169.807 245.313 167.054 245.757C167.054 245.757 139.954 249.707 133.248 251.121C126.543 252.535 113.423 252.767 113.423 252.767L106.428 237.799C104.199 233.001 102.241 224.81 100.282 227.062C98.3235 229.315 96.9345 242.031 97.4941 246.838C98.0537 251.646 99.4927 258.13 99.1629 260.392C98.8331 262.655 98.3235 265.19 99.1629 266.038C100.002 266.887 103.919 267.452 104.759 267.452H276.306C276.306 267.452 258.419 235.597 247.527 234.698Z" fill="#E8E8E8" stroke="#2B2B2B" stroke-miterlimit="10"/>
<path d="M195.271 239.122V267.462H276.303C276.303 267.462 258.416 235.546 247.524 234.698C247.524 234.698 223.771 232.728 208.962 235.829C203.486 236.981 198.889 238.132 195.271 239.122Z" fill="#2B2B2B" stroke="#2B2B2B" stroke-miterlimit="10"/>
<path d="M412.087 229.335C412.087 229.335 402.943 228.385 401.095 226.466C399.246 224.547 395.419 219.144 394.469 220.406C393.52 221.669 389.743 225.82 389.743 225.82C389.743 225.82 383.747 223.012 380.23 225.164C376.712 227.315 375.863 237.94 375.863 237.94C372.755 238.851 369.44 238.738 366.4 237.617C361.673 235.708 339.599 223.911 325.089 222.315C310.58 220.72 293.552 226.456 289.455 226.78C285.358 227.103 276.844 227.103 276.844 227.103V266.907H372.076C372.076 266.907 376.183 264.998 376.812 262.13C376.933 261.264 377.329 260.461 377.939 259.842C378.55 259.223 379.343 258.82 380.2 258.696C381.149 258.372 383.637 258.362 386.475 261.544C389.313 264.725 395.099 266.594 399.516 267.23C403.933 267.867 415.285 267.23 418.123 264.998C420.96 262.766 423.798 256.07 423.798 256.07C423.798 256.07 431.053 254.797 431.363 251.292C431.673 247.788 432.632 243.647 431.363 242.051C430.362 241.035 429.004 240.462 427.586 240.455C427.586 240.455 431.683 233.122 429.474 230.577C427.266 228.032 422.539 227.709 421.27 227.386C420.001 227.062 415.554 219.437 412.087 229.335Z" fill="#E8E8E8" stroke="#2B2B2B" stroke-miterlimit="10"/>
<path d="M431.323 251.333C431.643 247.828 432.592 243.687 431.323 242.091C430.322 241.076 428.964 240.502 427.546 240.495C427.546 240.495 431.643 233.163 429.435 230.618C427.226 228.072 422.5 227.749 421.23 227.426C419.961 227.103 415.555 219.457 412.087 229.335C412.087 229.335 418.083 234.759 416.194 241.768C414.305 248.777 410.828 249.737 409.569 247.828C408.31 245.919 405.782 245.273 404.522 246.869C403.263 248.464 394.749 247.505 395.059 248.464C395.369 249.424 399.156 253.242 396.638 255.474C394.12 257.706 387.495 254.837 386.236 252.605C385.524 251.374 384.889 250.099 384.337 248.788L378.281 258.736C379.423 258.557 380.574 258.449 381.729 258.413C382.728 258.11 382.938 257.019 384.966 259.302C387.804 262.493 395.059 266.634 399.476 267.271C403.893 267.907 415.245 267.271 418.083 265.038C420.921 262.806 423.759 256.11 423.759 256.11C423.759 256.11 431.013 254.837 431.323 251.333Z" fill="#2B2B2B" stroke="#2B2B2B" stroke-miterlimit="10"/>
<path d="M406.099 231.89C406.099 231.89 407.668 234.435 405.779 238.586L406.099 231.89Z" fill="#E8E8E8"/>
<path d="M406.099 231.89C406.099 231.89 407.668 234.435 405.779 238.586" stroke="#2B2B2B" stroke-miterlimit="10"/>
<path d="M401.993 231.557L399.155 230.607C399.155 230.607 398.846 233.476 398.846 235.385" fill="#E8E8E8"/>
<path d="M401.993 231.557L399.155 230.607C399.155 230.607 398.846 233.476 398.846 235.385" stroke="#2B2B2B" stroke-miterlimit="10"/>
<path d="M375.762 262.221C376.761 257.463 379.529 254.928 373.883 246.364C371.766 243.09 369.191 240.144 366.238 237.617C361.242 235.597 339.448 223.962 325.058 222.376C310.668 220.79 293.521 226.517 289.423 226.84C285.326 227.163 276.812 227.163 276.812 227.163V266.907H371.824C373.913 265.594 375.422 263.978 375.762 262.221Z" fill="#707070" stroke="#2B2B2B" stroke-miterlimit="10"/>
<path d="M264.754 158.513L192.435 167.412C192.435 167.412 185.76 154.201 183.372 148.535C180.984 142.868 181.653 136.546 180.144 137.101C178.635 137.657 177.516 140.869 175.148 148.444C172.78 156.019 174.069 161.745 174.298 165.099C174.528 168.452 173.769 176.794 174.808 178.966C175.847 181.137 178.495 180.986 184.461 180.531C190.427 180.077 196.872 180.329 196.872 180.329C196.872 180.329 246.427 183.551 247.086 183.551C246.017 183.551 243.539 220.922 243.309 224.558C242.899 231.163 242.709 237.778 242.44 244.394C242.24 249.383 240.001 258.938 245.437 261.978C248.215 263.544 252.432 263.493 255.51 263.756C264.104 264.493 274.017 265.422 282.491 263.554C283.18 263.46 283.852 263.269 284.49 262.988C289.426 260.362 287.597 252.171 286.678 247.889C283.68 233.88 281.811 219.609 280.013 205.468C279.013 197.328 277.924 189.187 276.615 181.097C275.876 176.522 275.506 170.997 273.427 166.775C272.428 164.755 271.639 163.22 271.009 162.038C270.406 160.911 269.497 159.98 268.389 159.356C267.281 158.732 266.02 158.44 264.754 158.513Z" fill="#E8E8E8" stroke="#2B2B2B" stroke-miterlimit="10"/>
<path d="M247.096 183.551C247.096 183.551 247.395 183.885 256.829 181.107" stroke="#2B2B2B" stroke-miterlimit="10"/>
<path d="M280.032 205.468C279.785 203.448 279.529 201.428 279.262 199.408H245.157C244.267 210.074 243.448 222.517 243.318 224.527C242.908 231.133 242.719 237.748 242.449 244.364C242.249 249.353 240.011 258.908 245.447 261.948C248.225 263.513 252.442 263.463 255.519 263.726C264.113 264.463 274.026 265.392 282.5 263.524C283.189 263.429 283.862 263.239 284.499 262.958C289.435 260.332 287.606 252.141 286.687 247.858C283.709 233.88 281.831 219.659 280.032 205.468Z" fill="#2B2B2B" stroke="#2B2B2B" stroke-miterlimit="10"/>
<path d="M359.726 243.778C359.726 243.778 321.613 247.939 315.858 248.283C310.102 248.626 301.118 247.586 293.923 249.293C286.728 250.999 264.434 254.141 264.434 254.141C264.434 254.141 248.606 253.131 245.018 253.454C241.431 253.777 232.787 264.19 232.787 264.19H368C368 264.19 378.073 259.685 377.713 252.757C377.354 245.828 371.238 239.97 359.726 243.778Z" fill="#E8E8E8" stroke="#2B2B2B" stroke-miterlimit="10"/>
<path d="M332.395 246.707V264.231H367.999C367.999 264.231 378.072 259.726 377.712 252.797C377.352 245.869 371.237 239.98 359.725 243.788C359.725 243.778 344.946 245.394 332.395 246.707Z" fill="#707070" stroke="#2B2B2B" stroke-miterlimit="10"/>
<path d="M265.901 162.099C265.901 162.099 272.706 153.453 274.305 154.413C275.904 155.372 275.464 157.564 274.824 158.554C274.185 159.544 268.369 163.765 267.26 164.089C266.151 164.412 265.012 163.624 265.901 162.099Z" fill="#FCFFEF" stroke="#2B2B2B" stroke-miterlimit="10"/>
<path d="M272.777 172.33C272.777 172.33 278.363 165.26 279.682 166.008C281.001 166.755 280.631 168.603 280.101 169.411C278.232 171.193 276.143 172.724 273.886 173.966C272.986 174.229 272.047 173.593 272.777 172.33Z" fill="#FCFFEF" stroke="#2B2B2B" stroke-miterlimit="10"/>
<path d="M270.188 169.714C270.188 169.714 276.983 161.069 278.582 162.028C280.181 162.988 279.751 165.179 279.102 166.169C278.452 167.159 272.646 171.381 271.547 171.694C270.448 172.007 269.309 171.239 270.188 169.714Z" fill="#FCFFEF" stroke="#2B2B2B" stroke-miterlimit="10"/>
<path d="M266.6 166.806C266.6 166.806 274.344 156.958 276.163 158.059C277.982 159.16 277.482 161.655 276.753 162.766C276.023 163.877 269.398 168.704 268.149 169.068C266.9 169.432 265.581 168.553 266.6 166.806Z" fill="#FCFFEF" stroke="#2B2B2B" stroke-miterlimit="10"/>
<path d="M163.055 173.078C163.055 173.078 163.215 173.229 163.474 173.502C164.404 174.512 166.612 177.017 167.242 179.239C168.041 182.087 168.651 183.925 169.24 184.127C169.83 184.329 174.676 185.349 176.085 182.501C177.494 179.653 169.66 171.967 169.66 171.967C169.66 171.967 163.494 171.179 163.055 173.078Z" fill="#FCFFEF" stroke="#2B2B2B" stroke-miterlimit="10"/>
<path d="M172.768 170.159C170.59 170.018 168.426 169.714 166.292 169.25C164.674 168.704 163.055 171.068 163.055 173.078C163.055 175.087 172.588 174.896 174.047 173.441C175.506 171.987 174.926 170.704 172.768 170.159Z" fill="#FCFFEF" stroke="#2B2B2B" stroke-miterlimit="10"/>
<path d="M172.609 171.502C172.609 171.502 165.973 182.683 167.392 184.289C168.811 185.895 170.87 184.602 171.659 183.481C172.449 182.36 174.987 173.906 174.987 172.462C174.987 171.017 173.878 169.947 172.609 171.502Z" fill="#FCFFEF" stroke="#2B2B2B" stroke-miterlimit="10"/>
<path d="M184.781 176.279C184.781 176.279 179.325 185.47 180.494 186.783C181.663 188.096 183.352 187.046 184.002 186.127C185.247 183.209 186.166 180.16 186.74 177.037C186.74 175.885 185.831 174.997 184.781 176.279Z" fill="#FCFFEF" stroke="#2B2B2B" stroke-miterlimit="10"/>
<path d="M181.433 174.057C181.433 174.057 174.788 185.228 176.217 186.834C177.646 188.44 179.694 187.147 180.484 186.036C181.273 184.925 183.802 176.451 183.802 175.007C183.802 173.562 182.692 172.451 181.433 174.057Z" fill="#FCFFEF" stroke="#2B2B2B" stroke-miterlimit="10"/>
<path d="M177.505 170.724C177.505 170.724 169.94 183.45 171.559 185.268C173.178 187.086 175.556 185.632 176.426 184.359C177.295 183.087 180.203 173.451 180.203 171.815C180.203 170.179 178.944 168.937 177.505 170.724Z" fill="#FCFFEF" stroke="#2B2B2B" stroke-miterlimit="10"/>
<path d="M265.161 261.312H91.9156C88.7477 261.312 86.1797 263.907 86.1797 267.109V288.461C86.1797 291.662 88.7477 294.258 91.9156 294.258H265.161C268.329 294.258 270.897 291.662 270.897 288.461V267.109C270.897 263.907 268.329 261.312 265.161 261.312Z" fill="#474747" stroke="#2B2B2B" stroke-miterlimit="10"/>
<path d="M449.88 261.312H276.634C273.466 261.312 270.898 263.907 270.898 267.109V288.461C270.898 291.662 273.466 294.258 276.634 294.258H449.88C453.048 294.258 455.616 291.662 455.616 288.461V267.109C455.616 263.907 453.048 261.312 449.88 261.312Z" fill="#474747" stroke="#2B2B2B" stroke-miterlimit="10"/>
<path d="M107.914 301.399H97.5918V450.728H107.914V301.399Z" fill="#919191" stroke="#2B2B2B" stroke-miterlimit="10"/>
<path d="M107.914 301.399H97.5918V316.064H107.914V301.399Z" fill="#2B2B2B" stroke="#2B2B2B" stroke-miterlimit="10"/>
<path d="M439.317 301.399H428.994V450.728H439.317V301.399Z" fill="#919191" stroke="#2B2B2B" stroke-miterlimit="10"/>
<path d="M439.317 301.399H428.994V316.064H439.317V301.399Z" fill="#2B2B2B" stroke="#2B2B2B" stroke-miterlimit="10"/>
<path d="M276.334 301.399H266.012V450.728H276.334V301.399Z" fill="#919191" stroke="#2B2B2B" stroke-miterlimit="10"/>
<path d="M276.334 301.399H266.012V316.064H276.334V301.399Z" fill="#2B2B2B" stroke="#2B2B2B" stroke-miterlimit="10"/>
<path d="M457.544 290.339H84.2617V306.964H457.544V290.339Z" fill="#919191" stroke="#2B2B2B" stroke-miterlimit="10"/>
<path d="M0.5 450.728H471.163" stroke="#2B2B2B" stroke-miterlimit="10"/>
</svg>
