<svg width="33" height="41" viewBox="0 0 33 41" fill="none" xmlns="http://www.w3.org/2000/svg">
<path fill-rule="evenodd" clip-rule="evenodd" d="M12.1369 32.772L19.1205 32.7995L20.3733 36.3296L10.8634 36.2854L12.1369 32.772ZM35.0176 37.5869L30.7343 31.6001H20.1148L22.9708 38.64L34.8398 38.5289L35.0181 37.5869H35.0176ZM-3.40028 37.5869L0.883008 31.6001H11.5026L8.64655 38.64L-3.22247 38.5289L-3.40076 37.5869H-3.40028ZM-5.24517 39.5295C-4.97077 40.76 -3.95004 40.668 -2.8457 40.662L35.2795 40.6662C36.4093 40.6758 37.1715 40.5319 37.309 39.1767C37.5175 37.123 36.3334 36.132 35.0123 34.1797C34.5505 33.4974 33.9407 32.7308 33.4169 32.0837C32.9526 31.5105 32.5302 30.5876 31.6556 30.3912C30.4393 30.1171 26.8831 30.3434 25.4255 30.3434C22.7257 30.3434 0.835433 30.1709 0.137651 30.4592C-0.411636 30.6861 -2.69048 33.7451 -3.11386 34.4048C-3.80972 35.4896 -5.77235 37.166 -5.24517 39.5289V39.5295Z" fill="#AC91BF"/>
<path fill-rule="evenodd" clip-rule="evenodd" d="M30.5869 1.6917L30.56 26.2024L23.0103 26.1994C22.8512 23.5887 23.1347 19.7087 22.1241 17.7267C21.0236 15.5685 18.6189 15.7906 16.0017 15.7906C8.92344 15.7906 9.72502 16.8777 9.11711 26.2006L1.43478 26.1803L1.43285 1.47021H-0.316406L-0.315926 25.6949C-0.320732 27.4859 -0.228463 28.5934 1.29493 28.5952L30.2798 28.5976C32.1122 28.5976 32.3366 28.1271 32.3366 25.8716V1.6929H30.5869V1.6917Z" fill="#AC91BF"/>
<path fill-rule="evenodd" clip-rule="evenodd" d="M19.7278 10.2618C20.2017 7.37706 18.7018 5.22426 16.9184 4.70068C14.6684 4.04039 12.6971 6.00514 12.305 8.16332C11.1603 14.4605 18.7316 16.3268 19.7278 10.2618Z" fill="#AC91BF"/>
<path d="M31.6893 0.666748H0.330916C-0.0265904 0.666748 -0.316406 1.14439 -0.316406 1.7336V1.73419C-0.316406 2.3234 -0.0265904 2.80104 0.330916 2.80104H31.6893C32.0468 2.80104 32.3366 2.3234 32.3366 1.73419V1.7336C32.3366 1.14439 32.0468 0.666748 31.6893 0.666748Z" fill="#AC91BF"/>
</svg>
