<svg width="20" height="20" viewBox="0 0 20 20" fill="none" xmlns="http://www.w3.org/2000/svg">
<path d="M13.71 11.7099C14.6904 10.9385 15.406 9.8808 15.7572 8.68382C16.1085 7.48684 16.0779 6.21015 15.6698 5.03135C15.2617 3.85255 14.4963 2.83027 13.4801 2.10674C12.4639 1.3832 11.2474 0.994385 10 0.994385C8.75255 0.994385 7.53611 1.3832 6.51993 2.10674C5.50374 2.83027 4.73834 3.85255 4.33021 5.03135C3.92208 6.21015 3.89151 7.48684 4.24276 8.68382C4.59401 9.8808 5.3096 10.9385 6.29 11.7099C4.61007 12.3829 3.14428 13.4992 2.04889 14.9398C0.953495 16.3804 0.26956 18.0912 0.0699967 19.8899C0.0555513 20.0212 0.0671132 20.1541 0.104022 20.2809C0.140931 20.4078 0.202464 20.5261 0.285108 20.6292C0.452016 20.8374 0.69478 20.9707 0.959997 20.9999C1.22521 21.0291 1.49116 20.9517 1.69932 20.7848C1.90749 20.6179 2.04082 20.3751 2.07 20.1099C2.28958 18.1551 3.22168 16.3497 4.68822 15.0387C6.15475 13.7277 8.0529 13.0029 10.02 13.0029C11.9871 13.0029 13.8852 13.7277 15.3518 15.0387C16.8183 16.3497 17.7504 18.1551 17.97 20.1099C17.9972 20.3556 18.1144 20.5825 18.2991 20.7469C18.4838 20.9113 18.7228 21.0014 18.97 20.9999H19.08C19.3421 20.9697 19.5817 20.8372 19.7466 20.6311C19.9114 20.4251 19.9881 20.1622 19.96 19.8999C19.7595 18.0961 19.0719 16.3809 17.9708 14.9381C16.8698 13.4953 15.3969 12.3794 13.71 11.7099ZM10 10.9999C9.20887 10.9999 8.43551 10.7653 7.77772 10.3258C7.11992 9.88623 6.60723 9.26152 6.30448 8.53061C6.00173 7.79971 5.92251 6.99544 6.07686 6.21952C6.2312 5.4436 6.61216 4.73086 7.17157 4.17145C7.73098 3.61204 8.44371 3.23108 9.21964 3.07674C9.99556 2.9224 10.7998 3.00161 11.5307 3.30436C12.2616 3.60711 12.8863 4.1198 13.3259 4.7776C13.7654 5.4354 14 6.20876 14 6.99988C14 8.06075 13.5786 9.07816 12.8284 9.82831C12.0783 10.5785 11.0609 10.9999 10 10.9999Z" fill="#19B698"/>
</svg>
