<svg width="272" height="504" viewBox="0 0 272 504" fill="none" xmlns="http://www.w3.org/2000/svg">
<path d="M121.102 112.955C124.306 112.569 126.442 110.794 126.442 107.142C126.488 105.625 125.988 104.149 125.052 103.039C124.116 101.93 122.82 101.278 121.45 101.227C120.08 101.176 118.748 101.73 117.746 102.767C116.745 103.804 116.156 105.239 116.11 106.757C115.924 110.409 117.967 112.312 121.102 112.955ZM91.9859 134.533C93.2175 134.533 94.3987 135.075 95.2695 136.04C96.1404 137.005 96.6296 138.313 96.6296 139.677C96.6296 141.041 96.1404 142.35 95.2695 143.314C94.3987 144.279 93.2175 144.821 91.9859 144.821C90.7544 144.821 89.5732 144.279 88.7024 143.314C87.8315 142.35 87.3423 141.041 87.3423 139.677C87.3423 138.313 87.8315 137.005 88.7024 136.04C89.5732 135.075 90.7544 134.533 91.9859 134.533ZM181.215 332.134C181.783 332.097 182.353 332.193 182.886 332.416C183.419 332.639 183.904 332.983 184.309 333.427C184.714 333.871 185.03 334.404 185.237 334.992C185.444 335.58 185.537 336.21 185.51 336.84C185.591 337.51 185.536 338.192 185.349 338.836C185.163 339.479 184.849 340.069 184.431 340.561C184.013 341.054 183.501 341.437 182.933 341.683C182.364 341.929 181.754 342.032 181.145 341.984C179.963 341.984 178.829 341.464 177.993 340.538C177.157 339.612 176.687 338.356 176.687 337.046C176.687 335.736 177.157 334.48 177.993 333.554C178.829 332.628 179.963 332.108 181.145 332.108L181.215 332.134ZM91.9859 101.998C93.2175 101.998 94.3987 102.54 95.2695 103.505C96.1404 104.47 96.6296 105.778 96.6296 107.142C96.6296 108.507 96.1404 109.815 95.2695 110.78C94.3987 111.744 93.2175 112.286 91.9859 112.286C90.7544 112.286 89.5732 111.744 88.7024 110.78C87.8315 109.815 87.3423 108.507 87.3423 107.142C87.3423 105.778 87.8315 104.47 88.7024 103.505C89.5732 102.54 90.7544 101.998 91.9859 101.998ZM210.075 374.622C209.505 374.635 208.939 374.515 208.413 374.27C207.888 374.025 207.415 373.66 207.025 373.199C206.635 372.738 206.337 372.192 206.151 371.595C205.964 370.998 205.893 370.364 205.942 369.735C205.877 369.049 205.953 368.354 206.165 367.705C206.377 367.056 206.72 366.469 207.168 365.988C207.615 365.508 208.155 365.146 208.747 364.931C209.34 364.715 209.968 364.652 210.586 364.746C211.207 364.718 211.827 364.835 212.406 365.087C212.985 365.34 213.51 365.723 213.948 366.213C214.385 366.702 214.726 367.288 214.949 367.931C215.171 368.575 215.27 369.263 215.239 369.951C215.208 370.639 215.049 371.313 214.77 371.929C214.491 372.545 214.1 373.09 213.621 373.529C213.142 373.969 212.585 374.293 211.987 374.481C211.388 374.669 210.761 374.717 210.145 374.622H210.075ZM269.421 397.28C270.036 397.261 270.647 397.394 271.209 397.67C271.77 397.947 272.269 398.359 272.668 398.878C273.067 399.396 273.356 400.007 273.513 400.665C273.67 401.323 273.692 402.012 273.578 402.681C273.581 403.314 273.463 403.939 273.234 404.518C273.004 405.096 272.667 405.615 272.244 406.04C271.821 406.464 271.322 406.785 270.78 406.982C270.238 407.179 269.664 407.247 269.096 407.182C266.194 407.182 264.778 405.202 264.592 402.038C264.583 401.359 264.707 400.686 264.954 400.064C265.201 399.443 265.566 398.888 266.025 398.436C266.483 397.985 267.023 397.648 267.609 397.449C268.196 397.249 268.814 397.192 269.421 397.28ZM294.962 401.936C294.946 401.25 295.065 400.568 295.31 399.938C295.556 399.308 295.922 398.745 296.384 398.288C296.846 397.83 297.391 397.489 297.984 397.289C298.576 397.088 299.201 397.033 299.814 397.126C300.427 397.11 301.035 397.24 301.599 397.508C302.162 397.775 302.666 398.174 303.078 398.676C303.49 399.179 303.799 399.774 303.985 400.42C304.171 401.067 304.23 401.75 304.156 402.424C304.089 403.788 303.534 405.067 302.616 405.979C301.697 406.89 300.489 407.36 299.257 407.285C298.026 407.21 296.871 406.596 296.048 405.578C295.225 404.561 294.801 403.223 294.869 401.858L294.962 401.936ZM125.885 238.387C125.885 239.752 125.396 241.06 124.525 242.025C123.654 242.989 122.473 243.531 121.241 243.531C120.01 243.531 118.829 242.989 117.958 242.025C117.087 241.06 116.598 239.752 116.598 238.387C116.598 235.224 118.292 233.501 121.241 233.243C121.851 233.211 122.46 233.319 123.03 233.56C123.601 233.8 124.12 234.169 124.556 234.642C124.992 235.115 125.335 235.683 125.563 236.31C125.792 236.936 125.902 237.609 125.885 238.284V238.387ZM87.4584 171.852C87.4377 171.223 87.5363 170.597 87.7476 170.013C87.9589 169.43 88.2783 168.901 88.6852 168.463C89.0921 168.024 89.5774 167.685 90.11 167.467C90.6425 167.249 91.2104 167.157 91.777 167.197C92.3968 167.124 93.0235 167.208 93.6095 167.444C94.1955 167.679 94.7255 168.058 95.1595 168.554C95.5935 169.05 95.92 169.648 96.1143 170.304C96.3087 170.96 96.3658 171.656 96.2814 172.34C96.306 173.029 96.201 173.716 95.9729 174.357C95.7449 174.998 95.3988 175.579 94.9568 176.064C94.5148 176.549 93.9865 176.927 93.4055 177.173C92.8245 177.419 92.2036 177.529 91.5823 177.495C90.961 177.461 90.3529 177.284 89.7967 176.975C89.2405 176.667 88.7484 176.233 88.3517 175.702C87.955 175.171 87.6625 174.555 87.4927 173.892C87.3229 173.229 87.2796 172.534 87.3655 171.852H87.4584ZM150.984 298.467C151.552 298.458 152.116 298.58 152.638 298.827C153.161 299.074 153.631 299.439 154.019 299.9C154.406 300.36 154.702 300.906 154.887 301.501C155.072 302.096 155.143 302.727 155.094 303.354C155.159 304.04 155.083 304.735 154.871 305.384C154.659 306.033 154.316 306.62 153.868 307.101C153.421 307.581 152.881 307.943 152.288 308.158C151.696 308.374 151.068 308.437 150.45 308.343C149.828 308.371 149.209 308.254 148.63 308.002C148.051 307.749 147.526 307.366 147.088 306.876C146.651 306.387 146.31 305.801 146.087 305.158C145.865 304.514 145.766 303.826 145.797 303.138C145.828 302.45 145.987 301.776 146.266 301.16C146.545 300.544 146.936 299.999 147.415 299.56C147.894 299.12 148.451 298.796 149.049 298.608C149.648 298.42 150.275 298.372 150.891 298.467H150.984ZM243.533 434.419C243.574 434.992 243.507 435.568 243.337 436.111C243.167 436.654 242.897 437.152 242.545 437.574C242.193 437.996 241.766 438.333 241.291 438.563C240.815 438.794 240.302 438.912 239.783 438.912C239.264 438.912 238.751 438.794 238.276 438.563C237.8 438.333 237.373 437.996 237.021 437.574C236.669 437.152 236.399 436.654 236.229 436.111C236.059 435.568 235.993 434.992 236.033 434.419C236.108 433.374 236.535 432.398 237.23 431.686C237.925 430.975 238.837 430.579 239.783 430.579C240.73 430.579 241.641 430.975 242.336 431.686C243.031 432.398 243.459 433.374 243.533 434.419ZM265.126 434.908C265.114 434.323 265.206 433.742 265.396 433.197C265.587 432.652 265.873 432.154 266.237 431.731C266.601 431.308 267.037 430.969 267.52 430.733C268.003 430.497 268.522 430.369 269.05 430.355C269.577 430.342 270.102 430.443 270.594 430.655C271.086 430.866 271.536 431.182 271.917 431.586C272.299 431.989 272.605 432.472 272.818 433.007C273.031 433.542 273.147 434.117 273.16 434.702C273.166 435.874 272.76 437.002 272.027 437.848C271.295 438.693 270.293 439.188 269.236 439.228C268.174 439.256 267.146 438.817 266.376 438.007C265.606 437.198 265.156 436.083 265.126 434.908ZM303.646 434.11C303.76 434.739 303.746 435.387 303.604 436.009C303.463 436.631 303.198 437.209 302.828 437.703C302.459 438.196 301.994 438.591 301.469 438.86C300.943 439.128 300.37 439.263 299.791 439.254C299.264 439.337 298.726 439.297 298.213 439.136C297.701 438.974 297.224 438.695 296.815 438.317C296.406 437.939 296.073 437.47 295.838 436.94C295.602 436.41 295.47 435.832 295.449 435.242C295.124 432.258 296.726 430.638 299.443 430.098C300.467 430.076 301.462 430.473 302.237 431.214C303.013 431.954 303.514 432.986 303.646 434.11ZM57.5298 40.8383C57.579 39.6582 58.0495 38.5482 58.8376 37.7523C59.6257 36.9565 60.667 36.54 61.7323 36.5946C62.7976 36.6492 63.7997 37.1703 64.5182 38.0433C65.2367 38.9163 65.6126 40.0697 65.5633 41.2498C65.4008 43.8217 63.7523 45.2363 61.1518 45.4677C60.13 45.3399 59.1879 44.7947 58.5095 43.9387C57.8312 43.0826 57.4653 41.9772 57.4833 40.8383H57.5298ZM61.1286 102.564C61.7023 102.431 62.296 102.444 62.8643 102.603C63.4328 102.762 63.9609 103.062 64.4087 103.481C64.8565 103.901 65.212 104.427 65.4483 105.022C65.6846 105.616 65.7954 106.262 65.7723 106.911C65.8373 107.496 65.791 108.089 65.6363 108.653C65.4816 109.217 65.222 109.738 64.8742 110.184C64.5264 110.63 64.0981 110.99 63.6169 111.242C63.1358 111.493 62.6124 111.63 62.0806 111.643C61.5203 111.757 60.9448 111.742 60.3901 111.598C59.8355 111.454 59.3137 111.184 58.8575 110.806C58.4014 110.428 58.0207 109.95 57.7393 109.401C57.458 108.853 57.2822 108.245 57.2228 107.618C57.1634 106.99 57.2218 106.356 57.3943 105.754C57.5668 105.153 57.8496 104.598 58.2251 104.123C58.6006 103.649 59.0606 103.265 59.5762 102.997C60.0919 102.729 60.652 102.581 61.2215 102.564H61.1286ZM65.4705 8.48355C65.4705 9.6295 65.0595 10.7285 64.328 11.5388C63.5965 12.3491 62.6043 12.8044 61.5698 12.8044C60.5352 12.8044 59.5431 12.3491 58.8116 11.5388C58.08 10.7285 57.6691 9.6295 57.6691 8.48355C57.5298 5.91163 59.1783 4.34276 61.5465 3.87982C63.9148 4.34276 65.4473 5.75732 65.424 8.45783L65.4705 8.48355ZM65.6794 73.373C65.7289 74.0071 65.6497 74.6454 65.4477 75.2413C65.2458 75.8371 64.9261 76.3754 64.5121 76.8167C64.0981 77.258 63.6003 77.5912 63.055 77.7919C62.5098 77.9927 61.9309 78.0558 61.3608 77.9768C60.8298 77.9964 60.301 77.892 59.8088 77.6704C59.3166 77.4487 58.8721 77.1147 58.5041 76.6901C58.1362 76.2656 57.853 75.7599 57.6732 75.2062C57.4933 74.6524 57.4207 74.0628 57.4601 73.4759C57.4601 70.4925 59.155 69.0265 61.7555 68.7436C64.0541 69.2322 65.633 70.6468 65.633 73.3473L65.6794 73.373ZM210.354 397.692C210.881 397.702 211.402 397.827 211.886 398.06C212.369 398.293 212.807 398.629 213.174 399.05C213.54 399.47 213.828 399.966 214.022 400.51C214.215 401.054 214.31 401.634 214.301 402.218C214.292 402.803 214.179 403.379 213.968 403.915C213.758 404.451 213.455 404.936 213.075 405.342C212.696 405.748 212.248 406.067 211.757 406.282C211.266 406.496 210.742 406.601 210.214 406.591C209.157 406.557 208.155 406.063 207.424 405.215C206.694 404.368 206.295 403.236 206.314 402.064C206.344 400.897 206.782 399.789 207.536 398.973C208.29 398.158 209.3 397.698 210.354 397.692ZM243.974 401.961C243.948 403.144 243.515 404.272 242.765 405.115C242.015 405.958 241.003 406.452 239.936 406.498C238.868 406.544 237.825 406.138 237.018 405.362C236.211 404.586 235.701 403.499 235.592 402.321C235.534 401.688 235.593 401.049 235.766 400.442C235.939 399.836 236.223 399.275 236.599 398.795C236.976 398.314 237.437 397.924 237.955 397.649C238.473 397.374 239.036 397.219 239.61 397.195C240.184 397.17 240.756 397.276 241.292 397.506C241.827 397.736 242.314 398.085 242.723 398.532C243.132 398.978 243.454 399.513 243.669 400.103C243.885 400.693 243.988 401.325 243.974 401.961ZM125.397 302.917C125.518 303.552 125.506 304.21 125.362 304.839C125.219 305.469 124.948 306.054 124.569 306.55C124.191 307.046 123.715 307.44 123.179 307.702C122.643 307.963 122.059 308.086 121.473 308.061C120.945 308.133 120.41 308.081 119.901 307.91C119.392 307.739 118.921 307.451 118.518 307.066C118.116 306.68 117.791 306.206 117.564 305.673C117.337 305.14 117.213 304.56 117.201 303.971C117.098 303.351 117.112 302.713 117.242 302.099C117.372 301.484 117.615 300.906 117.957 300.401C118.298 299.896 118.73 299.474 119.225 299.162C119.72 298.851 120.269 298.656 120.835 298.59C121.402 298.524 121.974 298.589 122.517 298.78C123.06 298.971 123.562 299.285 123.99 299.701C124.419 300.116 124.765 300.626 125.007 301.197C125.249 301.768 125.382 302.389 125.397 303.02V302.917ZM87.6673 204.721C87.6013 204.095 87.6605 203.461 87.8407 202.863C88.0208 202.265 88.3175 201.718 88.7097 201.262C89.1019 200.805 89.58 200.45 90.1101 200.221C90.6402 199.992 91.2093 199.895 91.777 199.937C92.3832 199.837 93.0021 199.896 93.5841 200.109C94.166 200.322 94.6949 200.683 95.1283 201.163C95.5616 201.643 95.8875 202.229 96.0796 202.874C96.2718 203.518 96.325 204.204 96.2349 204.875C96.2165 206.13 95.7486 207.326 94.9344 208.199C94.1201 209.072 93.0262 209.551 91.8931 209.53C90.76 209.51 89.6807 208.992 88.8926 208.09C88.1045 207.188 87.6721 205.976 87.6905 204.721H87.6673ZM61.1751 208.965C60.1405 208.893 59.174 208.369 58.4882 207.508C57.8024 206.647 57.4535 205.52 57.5181 204.374C57.5828 203.228 58.0558 202.157 58.833 201.397C59.6103 200.638 60.6281 200.251 61.6626 200.323C62.1871 200.34 62.7036 200.471 63.1823 200.708C63.6611 200.946 64.0929 201.286 64.453 201.709C64.8131 202.132 65.0945 202.629 65.281 203.172C65.4675 203.716 65.5556 204.294 65.5401 204.875C64.9364 207.499 63.5665 209.299 61.1518 208.99L61.1751 208.965ZM65.5633 139.317C65.5972 140.497 65.2065 141.644 64.4772 142.505C63.7478 143.366 62.7396 143.87 61.6743 143.908C60.6089 143.945 59.5738 143.513 58.7965 142.705C58.0193 141.897 57.5636 140.78 57.5298 139.6C57.5298 137.028 59.0854 135.511 61.4304 135.048C62.4807 135.04 63.4928 135.483 64.2547 136.283C65.0166 137.084 65.4689 138.181 65.5169 139.343L65.5633 139.317ZM146.573 337.355C146.494 336.722 146.545 336.077 146.722 335.469C146.898 334.86 147.196 334.303 147.592 333.839C147.989 333.375 148.475 333.016 149.013 332.787C149.552 332.559 150.13 332.467 150.705 332.52C151.235 332.472 151.768 332.549 152.269 332.745C152.77 332.941 153.228 333.252 153.614 333.657C153.999 334.062 154.303 334.553 154.506 335.097C154.709 335.641 154.807 336.226 154.792 336.815C154.931 339.798 153.259 341.341 150.705 341.753C150.17 341.77 149.637 341.669 149.136 341.457C148.636 341.245 148.178 340.926 147.79 340.517C147.401 340.108 147.09 339.618 146.873 339.076C146.656 338.533 146.538 337.948 146.526 337.355H146.573ZM125.072 336.712C125.147 337.286 125.108 337.872 124.956 338.427C124.804 338.982 124.544 339.494 124.194 339.926C123.844 340.358 123.413 340.699 122.931 340.926C122.449 341.153 121.927 341.259 121.404 341.238C120.925 341.284 120.443 341.221 119.987 341.053C119.532 340.885 119.111 340.616 118.753 340.262C118.394 339.908 118.104 339.477 117.902 338.995C117.699 338.513 117.587 337.989 117.573 337.458C117.387 334.886 118.896 333.291 121.241 332.854C122.195 332.85 123.114 333.246 123.816 333.961C124.518 334.676 124.95 335.659 125.026 336.712H125.072ZM91.9859 266.524C93.0205 266.49 94.0249 266.913 94.7782 267.699C95.5315 268.485 95.972 269.57 96.0027 270.716C96.0335 271.862 95.6521 272.975 94.9424 273.809C94.2326 274.644 93.2527 275.132 92.2182 275.166C89.8963 275.371 88.4335 273.571 87.9459 270.742C88.026 269.62 88.4784 268.571 89.2159 267.796C89.9535 267.022 90.9238 266.578 91.9395 266.55L91.9859 266.524ZM125.606 270.536C125.628 271.158 125.538 271.778 125.343 272.361C125.148 272.944 124.852 273.479 124.47 273.935C124.088 274.391 123.629 274.76 123.119 275.02C122.609 275.279 122.058 275.425 121.497 275.449C120.936 275.472 120.376 275.373 119.849 275.157C119.323 274.941 118.84 274.613 118.428 274.19C118.016 273.767 117.684 273.259 117.449 272.694C117.215 272.129 117.083 271.518 117.062 270.896C117.062 267.939 118.571 266.421 121.404 266.01C121.947 266.003 122.487 266.116 122.991 266.341C123.495 266.567 123.953 266.901 124.34 267.325C124.726 267.748 125.033 268.252 125.243 268.808C125.452 269.364 125.56 269.96 125.56 270.562L125.606 270.536ZM176.942 369.709C176.887 369.076 176.96 368.437 177.156 367.839C177.352 367.241 177.666 366.699 178.076 366.253C178.485 365.806 178.98 365.467 179.523 365.26C180.066 365.053 180.644 364.982 181.215 365.054C181.745 365.028 182.275 365.125 182.769 365.341C183.264 365.556 183.712 365.884 184.084 366.304C184.456 366.724 184.745 367.225 184.93 367.777C185.116 368.328 185.195 368.916 185.162 369.504C185.162 372.487 183.49 373.979 180.913 374.262C178.521 373.824 176.942 372.41 176.942 369.709ZM150.404 365.44C150.93 365.358 151.467 365.408 151.975 365.585C152.482 365.762 152.947 366.063 153.337 366.464C153.726 366.866 154.029 367.359 154.225 367.907C154.42 368.455 154.503 369.044 154.467 369.632C154.499 370.163 154.432 370.696 154.27 371.198C154.108 371.699 153.855 372.158 153.526 372.546C153.197 372.935 152.8 373.244 152.358 373.455C151.917 373.666 151.441 373.774 150.961 373.773C148.639 373.902 147.246 372.204 146.874 369.555C146.901 368.51 147.276 367.513 147.928 366.758C148.58 366.002 149.462 365.542 150.404 365.466V365.44ZM91.6145 233.784C92.1851 233.686 92.7682 233.731 93.3208 233.917C93.8734 234.102 94.3813 234.423 94.8071 234.855C95.2328 235.287 95.5654 235.82 95.7804 236.413C95.9954 237.007 96.0873 237.646 96.0492 238.284C96.1082 238.876 96.0535 239.475 95.8887 240.041C95.7239 240.607 95.4528 241.129 95.0932 241.571C94.7335 242.013 94.2935 242.366 93.802 242.606C93.3105 242.847 92.7786 242.969 92.2413 242.965C89.548 243.171 88.1317 241.345 87.7138 238.542C87.6857 237.946 87.7647 237.351 87.9461 236.789C88.1276 236.228 88.4079 235.712 88.7708 235.272C89.1337 234.832 89.572 234.476 90.0601 234.225C90.5483 233.974 91.0766 233.832 91.6145 233.809V233.784ZM61.1518 167.685C61.6793 167.65 62.208 167.73 62.7076 167.921C63.2071 168.111 63.6679 168.409 64.0635 168.798C64.4592 169.186 64.7819 169.656 65.0134 170.182C65.2448 170.709 65.3804 171.28 65.4124 171.865C65.4444 172.449 65.3722 173.035 65.2 173.588C65.0277 174.141 64.7587 174.652 64.4083 175.09C64.058 175.528 63.6331 175.886 63.158 176.142C62.6829 176.398 62.1669 176.549 61.6394 176.584C59.3176 176.738 57.9245 174.964 57.4137 172.418C57.3555 171.249 57.711 170.1 58.4046 169.217C59.0982 168.333 60.0753 167.784 61.1286 167.685H61.1518ZM180.866 431.281C181.295 431.212 181.733 431.253 182.146 431.399C182.559 431.546 182.937 431.794 183.25 432.127C183.563 432.459 183.804 432.866 183.954 433.316C184.105 433.767 184.16 434.25 184.117 434.728C184.143 435.158 184.088 435.589 183.955 435.994C183.822 436.399 183.615 436.769 183.347 437.081C183.078 437.393 182.754 437.64 182.395 437.806C182.036 437.972 181.65 438.053 181.261 438.045C179.218 438.045 178.196 436.785 177.964 434.65C178.173 432.67 179.102 431.358 180.866 431.281ZM213.697 434.496C213.766 434.97 213.739 435.456 213.619 435.917C213.498 436.379 213.288 436.805 213.002 437.166C212.716 437.527 212.361 437.814 211.964 438.006C211.566 438.198 211.135 438.29 210.702 438.277C210.045 438.343 209.386 438.19 208.809 437.837C208.232 437.484 207.763 436.947 207.464 436.296C207.165 435.645 207.049 434.91 207.131 434.185C207.213 433.461 207.49 432.78 207.925 432.231C208.359 431.682 208.933 431.29 209.571 431.106C210.209 430.921 210.882 430.953 211.504 431.197C212.125 431.441 212.666 431.886 213.057 432.474C213.448 433.062 213.671 433.766 213.697 434.496ZM58.1334 238.722C58.042 238.195 58.062 237.652 58.1918 237.135C58.3217 236.619 58.5578 236.142 58.8817 235.744C59.2056 235.345 59.6085 235.035 60.0588 234.837C60.509 234.64 60.9944 234.561 61.4769 234.607C61.9132 234.544 62.3566 234.586 62.7769 234.73C63.1973 234.873 63.5847 235.116 63.9129 235.44C64.2411 235.765 64.5024 236.164 64.679 236.61C64.8557 237.057 64.9435 237.54 64.9364 238.027C65.099 240.599 63.9148 241.988 61.3144 242.219C60.8958 242.226 60.4802 242.141 60.0917 241.968C59.7032 241.795 59.3496 241.539 59.0515 241.213C58.7533 240.888 58.5165 240.5 58.3549 240.072C58.1934 239.644 58.1102 239.185 58.1102 238.722H58.1334ZM29.2497 238.233C29.3389 237.423 29.7007 236.68 30.2628 236.153C30.8248 235.625 31.5458 235.352 32.2817 235.388C33.0176 235.424 33.7143 235.766 34.2326 236.346C34.7508 236.925 35.0526 237.7 35.0775 238.516C35.0473 239.375 34.7145 240.188 34.1504 240.779C33.5862 241.37 32.8356 241.693 32.0591 241.679C30.3177 241.242 29.0871 240.188 29.2264 238.207L29.2497 238.233ZM32.268 175.684C31.8765 175.745 31.4777 175.716 31.097 175.597C30.7162 175.479 30.3618 175.274 30.0562 174.996C29.7507 174.718 29.5005 174.373 29.3217 173.982C29.1429 173.591 29.0393 173.164 29.0175 172.726C28.9088 172.252 28.8984 171.757 28.9869 171.279C29.0754 170.8 29.2606 170.349 29.5287 169.961C29.7967 169.572 30.1405 169.256 30.5345 169.036C30.9285 168.815 31.3624 168.697 31.8037 168.688C32.2408 168.605 32.6887 168.625 33.1187 168.745C33.5487 168.865 33.9513 169.084 34.3006 169.386C34.6499 169.689 34.9381 170.069 35.1469 170.503C35.3556 170.936 35.4803 171.413 35.5128 171.903C35.5453 172.393 35.485 172.885 35.3357 173.347C35.1865 173.81 34.9514 174.233 34.6459 174.589C34.3404 174.945 33.971 175.226 33.5615 175.415C33.152 175.603 32.7114 175.695 32.268 175.684ZM28.9014 41.3269C28.8095 40.8574 28.8116 40.3713 28.9074 39.9027C29.0032 39.4342 29.1905 38.9945 29.456 38.6146C29.7215 38.2347 30.0588 37.9238 30.4444 37.7037C30.8299 37.4836 31.2542 37.3596 31.6876 37.3405C32.128 37.264 32.5778 37.2872 33.0098 37.4087C33.4419 37.5302 33.8472 37.7475 34.2012 38.0475C34.5553 38.3474 34.8508 38.7238 35.0699 39.1538C35.2889 39.5839 35.427 40.0586 35.4757 40.5494C35.5244 41.0402 35.4827 41.5369 35.3532 42.0094C35.2238 42.4818 35.0091 42.9203 34.7223 43.2983C34.4355 43.6763 34.0825 43.9859 33.6846 44.2085C33.2867 44.4311 32.8522 44.562 32.4073 44.5933C31.973 44.6714 31.5284 44.6442 31.1045 44.5136C30.6805 44.3829 30.2872 44.1519 29.9517 43.8364C29.6161 43.521 29.3464 43.1287 29.161 42.6865C28.9757 42.2444 28.8792 41.763 28.8782 41.2755L28.9014 41.3269ZM29.0871 204.747C29.0446 204.271 29.0999 203.791 29.2488 203.343C29.3977 202.894 29.6364 202.489 29.947 202.157C30.2576 201.826 30.6319 201.576 31.042 201.428C31.452 201.279 31.8871 201.236 32.3145 201.3C32.7033 201.289 33.0901 201.367 33.4502 201.53C33.8104 201.693 34.1361 201.936 34.4068 202.246C34.6774 202.555 34.8871 202.924 35.0226 203.328C35.158 203.731 35.2162 204.162 35.1936 204.592C35.1936 206.856 33.9398 207.961 31.9894 208.116C31.2052 208.082 30.4635 207.712 29.9217 207.083C29.3799 206.454 29.0805 205.616 29.0871 204.747ZM299.071 464.51C299.543 464.426 300.025 464.453 300.486 464.588C300.948 464.723 301.378 464.964 301.75 465.295C302.123 465.626 302.428 466.04 302.647 466.51C302.865 466.98 302.993 467.496 303.021 468.023C303.048 468.551 302.976 469.08 302.808 469.574C302.64 470.069 302.38 470.52 302.045 470.896C301.71 471.273 301.307 471.568 300.863 471.761C300.419 471.955 299.943 472.043 299.466 472.02C297.423 472.02 296.285 470.734 296.076 468.24C296.054 467.779 296.116 467.319 296.256 466.885C296.397 466.451 296.614 466.053 296.895 465.713C297.175 465.373 297.515 465.098 297.892 464.905C298.27 464.712 298.679 464.604 299.095 464.587L299.071 464.51ZM269.282 464.742C269.677 464.72 270.071 464.79 270.44 464.945C270.809 465.101 271.145 465.34 271.427 465.647C271.708 465.954 271.929 466.322 272.076 466.729C272.222 467.135 272.291 467.571 272.277 468.008C272.368 468.494 272.356 468.996 272.242 469.476C272.128 469.956 271.916 470.4 271.621 470.773C271.327 471.147 270.958 471.44 270.544 471.63C270.13 471.819 269.682 471.9 269.236 471.866C267.146 471.866 266.078 470.606 265.916 468.06C265.928 467.595 266.029 467.138 266.21 466.718C266.392 466.298 266.65 465.925 266.969 465.623C267.288 465.32 267.661 465.095 268.063 464.961C268.466 464.827 268.889 464.787 269.305 464.845L269.282 464.742ZM236.776 468.471C236.714 467.996 236.751 467.511 236.883 467.053C237.015 466.596 237.24 466.178 237.54 465.831C237.839 465.484 238.207 465.217 238.614 465.05C239.02 464.884 239.456 464.822 239.888 464.87C240.276 464.842 240.665 464.903 241.031 465.05C241.397 465.197 241.731 465.426 242.013 465.723C242.294 466.021 242.517 466.38 242.667 466.777C242.816 467.175 242.89 467.603 242.883 468.034C242.949 468.523 242.916 469.022 242.786 469.496C242.657 469.969 242.434 470.405 242.134 470.772C241.834 471.138 241.465 471.426 241.052 471.616C240.64 471.805 240.194 471.89 239.748 471.866C238.053 471.532 236.8 470.503 236.73 468.548L236.776 468.471ZM31.9198 69.8238C32.346 69.7297 32.7857 69.7402 33.2078 69.8548C33.6299 69.9693 34.0242 70.1849 34.3629 70.4866C34.7017 70.7882 34.9765 71.1684 35.1682 71.6005C35.3598 72.0326 35.4636 72.5059 35.4722 72.9873C35.5813 73.5041 35.5777 74.0423 35.4618 74.5573C35.3459 75.0723 35.1209 75.5494 34.8055 75.949C34.4901 76.3486 34.0934 76.6593 33.6481 76.8554C33.2029 77.0514 32.7218 77.1273 32.2448 77.0766C30.2016 77.0766 29.1104 75.8678 28.9014 73.3216C28.8763 72.872 28.9334 72.4213 29.0695 71.9968C29.2055 71.5722 29.4176 71.1825 29.693 70.851C29.9684 70.5195 30.3015 70.2531 30.6721 70.0677C31.0428 69.8824 31.4435 69.7819 31.8501 69.7724L31.9198 69.8238ZM31.9198 103.516C32.3396 103.43 32.7711 103.446 33.1847 103.563C33.5983 103.681 33.984 103.896 34.3152 104.194C34.6464 104.492 34.9151 104.867 35.1028 105.292C35.2906 105.716 35.3928 106.181 35.4026 106.654C35.4759 107.38 35.3507 108.114 35.0433 108.761C34.7358 109.408 34.2602 109.938 33.6779 110.282C33.0957 110.626 32.4336 110.768 31.7774 110.691C31.1211 110.614 30.5009 110.32 29.997 109.848C29.4931 109.376 29.1287 108.748 28.9509 108.044C28.7731 107.34 28.79 106.593 28.9997 105.9C29.2093 105.206 29.6018 104.599 30.1266 104.156C30.6513 103.712 31.2841 103.454 31.943 103.413L31.9198 103.516ZM28.9478 8.35495C28.9189 7.9183 28.9721 7.47974 29.1041 7.06704C29.2361 6.65433 29.4439 6.27647 29.7145 5.95735C29.9852 5.63824 30.3126 5.38483 30.6762 5.21316C31.0399 5.04148 31.4316 4.95529 31.8269 4.96002C32.2581 4.87 32.7021 4.88944 33.1255 5.01688C33.5489 5.14432 33.9407 5.37644 34.2715 5.69579C34.6022 6.01513 34.8633 6.41339 35.0351 6.86061C35.2069 7.30783 35.2849 7.79237 35.2632 8.2778C35.2632 10.5925 34.1952 11.8013 31.8501 12.0328C31.4401 11.9983 31.0408 11.8714 30.6766 11.6599C30.3124 11.4484 29.9911 11.1566 29.7324 10.8026C29.4737 10.4486 29.283 10.0397 29.1721 9.60114C29.0611 9.16256 29.0322 8.70348 29.0871 8.25208L28.9478 8.35495ZM94.9579 336.609C95.0483 337.075 95.0429 337.559 94.9423 338.023C94.8416 338.487 94.6483 338.92 94.3764 339.29C94.1046 339.66 93.7612 339.958 93.3716 340.162C92.982 340.365 92.5561 340.47 92.1253 340.467C91.7381 340.532 91.3428 340.507 90.9649 340.393C90.587 340.279 90.2348 340.078 89.9309 339.805C89.627 339.531 89.3781 339.19 89.2002 338.804C89.0223 338.417 88.9194 337.994 88.8979 337.56C88.8206 337.11 88.8264 336.647 88.9149 336.2C89.0034 335.752 89.1728 335.329 89.4128 334.956C89.6529 334.583 89.9587 334.267 90.3117 334.029C90.6648 333.79 91.0578 333.633 91.4672 333.567C91.8766 333.501 92.2937 333.527 92.6936 333.644C93.0935 333.762 93.4678 333.968 93.7939 334.249C94.1201 334.531 94.3914 334.883 94.5914 335.284C94.7914 335.685 94.9161 336.127 94.9579 336.583V336.609ZM58.5978 303.56C58.6227 302.744 58.9245 301.969 59.4427 301.389C59.961 300.809 60.6576 300.468 61.3936 300.432C62.1295 300.396 62.8505 300.669 63.4125 301.197C63.9746 301.724 64.3364 302.467 64.4256 303.277C64.4256 305.257 63.3344 306.312 61.6162 306.723C60.8358 306.737 60.0818 306.41 59.517 305.814C58.9523 305.217 58.6221 304.398 58.5978 303.534V303.56ZM91.4752 299.548C91.9325 299.526 92.3893 299.604 92.8194 299.777C93.2496 299.951 93.6446 300.217 93.9821 300.559C94.3195 300.902 94.5926 301.315 94.786 301.775C94.9793 302.234 95.089 302.732 95.1088 303.238C95.1287 303.745 95.0582 304.251 94.9015 304.727C94.7448 305.204 94.5049 305.641 94.1955 306.015C93.8861 306.389 93.5133 306.691 93.0983 306.906C92.6833 307.12 92.2344 307.241 91.777 307.263C89.7338 307.263 88.6193 305.952 88.3871 303.457C88.3313 302.97 88.3693 302.475 88.4987 302.006C88.6281 301.536 88.8459 301.103 89.1377 300.733C89.4295 300.364 89.7887 300.067 90.1916 299.863C90.5946 299.658 91.032 299.551 91.4752 299.548ZM121.172 366.006C121.563 365.945 121.962 365.974 122.343 366.093C122.723 366.211 123.078 366.416 123.383 366.694C123.689 366.972 123.939 367.317 124.118 367.708C124.297 368.099 124.4 368.526 124.422 368.964C124.531 369.437 124.541 369.932 124.453 370.411C124.364 370.89 124.179 371.341 123.911 371.729C123.643 372.118 123.299 372.434 122.905 372.654C122.511 372.875 122.077 372.993 121.636 373.001C121.199 373.084 120.751 373.065 120.321 372.945C119.891 372.825 119.488 372.606 119.139 372.304C118.79 372.001 118.502 371.621 118.293 371.187C118.084 370.754 117.959 370.277 117.927 369.787C117.894 369.297 117.955 368.805 118.104 368.342C118.253 367.88 118.488 367.457 118.794 367.101C119.099 366.745 119.469 366.463 119.878 366.275C120.288 366.086 120.728 365.995 121.172 366.006ZM177.685 402.424C177.594 401.898 177.614 401.355 177.744 400.838C177.874 400.321 178.11 399.845 178.434 399.446C178.758 399.047 179.16 398.737 179.611 398.54C180.061 398.343 180.546 398.264 181.029 398.309C181.465 398.246 181.908 398.288 182.329 398.432C182.749 398.576 183.137 398.819 183.465 399.143C183.793 399.468 184.054 399.867 184.231 400.313C184.408 400.759 184.495 401.243 184.488 401.73C184.651 404.302 183.467 405.691 180.866 405.922C180.45 405.925 180.037 405.837 179.651 405.663C179.265 405.489 178.914 405.232 178.618 404.907C178.323 404.582 178.088 404.195 177.928 403.769C177.768 403.343 177.685 402.886 177.685 402.424ZM150.961 398.566C151.356 398.562 151.748 398.648 152.112 398.819C152.475 398.991 152.803 399.245 153.073 399.564C153.344 399.883 153.552 400.261 153.684 400.673C153.816 401.086 153.869 401.525 153.84 401.961C153.895 402.444 153.851 402.935 153.711 403.396C153.57 403.858 153.336 404.277 153.028 404.624C152.719 404.971 152.344 405.236 151.929 405.398C151.515 405.56 151.073 405.617 150.636 405.562C148.523 405.562 147.548 404.147 147.455 401.884C147.463 401.407 147.563 400.937 147.749 400.506C147.935 400.076 148.201 399.694 148.531 399.387C148.861 399.08 149.247 398.855 149.662 398.727C150.077 398.598 150.512 398.57 150.938 398.643L150.961 398.566ZM64.6578 271.256C64.6533 271.695 64.5665 272.127 64.4031 272.527C64.2396 272.926 64.003 273.283 63.7083 273.576C63.4135 273.868 63.0671 274.09 62.691 274.226C62.3148 274.363 61.9172 274.411 61.5233 274.368C61.0862 274.42 60.6442 274.36 60.2308 274.194C59.8175 274.028 59.4435 273.761 59.1371 273.412C58.8308 273.062 58.6001 272.641 58.4624 272.178C58.3247 271.716 58.2837 271.225 58.3424 270.742C58.3424 268.402 59.6891 267.347 61.7323 267.296C62.1724 267.302 62.6059 267.415 63.0024 267.627C63.3989 267.839 63.7487 268.144 64.0275 268.522C64.3062 268.899 64.507 269.339 64.616 269.812C64.7248 270.284 64.7391 270.777 64.6578 271.256ZM28.8549 139.497C28.8188 139.02 28.8779 138.54 29.028 138.09C29.1781 137.641 29.4155 137.234 29.7234 136.898C30.0314 136.562 30.4023 136.305 30.81 136.145C31.2176 135.985 31.652 135.927 32.0823 135.974C32.569 135.903 33.0638 135.966 33.5238 136.155C33.9838 136.345 34.3952 136.656 34.7223 137.061C35.0493 137.466 35.2822 137.954 35.4008 138.482C35.5193 139.009 35.5199 139.561 35.4026 140.089C35.2632 142.352 33.9398 143.355 31.734 143.381C31.3104 143.357 30.896 143.236 30.5173 143.024C30.1386 142.812 29.804 142.515 29.5351 142.152C29.2661 141.789 29.0688 141.367 28.9556 140.914C28.8425 140.462 28.8161 139.988 28.8782 139.523L28.8549 139.497ZM2.94318 76.3565C2.57004 76.395 2.19373 76.3468 1.83835 76.215C1.483 76.0832 1.15634 75.8708 0.879333 75.5912C0.602325 75.3116 0.381042 74.971 0.229614 74.5913C0.0782166 74.2116 0 73.801 0 73.3859C0 72.9708 0.0782166 72.5602 0.229614 72.1805C0.381042 71.8008 0.602325 71.4602 0.879333 71.1806C1.15634 70.901 1.483 70.6886 1.83835 70.5568C2.19373 70.425 2.57004 70.3768 2.94318 70.4153C3.64145 70.4286 4.30777 70.7417 4.80161 71.2887C5.29544 71.8357 5.57812 72.5738 5.59006 73.3473C5.5907 74.1372 5.31558 74.8968 4.82227 75.4673C4.32895 76.0377 3.65564 76.3747 2.94318 76.4079V76.3565ZM210.191 465.359C210.559 465.306 210.932 465.337 211.288 465.451C211.644 465.565 211.975 465.759 212.26 466.02C212.545 466.282 212.778 466.607 212.945 466.973C213.112 467.339 213.209 467.74 213.23 468.15C213.251 468.559 213.195 468.969 213.066 469.354C212.938 469.739 212.738 470.09 212.482 470.386C212.225 470.682 211.916 470.915 211.573 471.073C211.231 471.23 210.863 471.307 210.493 471.3C208.937 471.3 208.055 470.169 207.684 468.24C207.742 467.515 208.023 466.833 208.479 466.309C208.935 465.785 209.539 465.45 210.191 465.359ZM91.6145 366.623C91.9752 366.573 92.3414 366.604 92.691 366.714C93.0406 366.825 93.3664 367.012 93.6487 367.266C93.931 367.52 94.1641 367.834 94.3338 368.19C94.5035 368.547 94.6064 368.937 94.6362 369.338C94.666 369.74 94.6221 370.144 94.5072 370.526C94.3923 370.908 94.2088 371.26 93.9677 371.562C93.7265 371.863 93.4328 372.107 93.1042 372.28C92.7756 372.452 92.4189 372.549 92.0556 372.564C90.4768 372.719 89.5945 371.484 89.223 369.812C89.1923 369.057 89.4149 368.316 89.8478 367.732C90.2808 367.148 90.8935 366.762 91.568 366.649L91.6145 366.623ZM121.032 399.132C121.399 399.079 121.771 399.109 122.127 399.222C122.482 399.335 122.813 399.528 123.098 399.788C123.383 400.049 123.617 400.372 123.784 400.737C123.952 401.102 124.05 401.501 124.073 401.91C124.095 402.318 124.041 402.728 123.914 403.112C123.788 403.497 123.591 403.849 123.336 404.146C123.081 404.442 122.774 404.678 122.434 404.838C122.093 404.997 121.727 405.077 121.357 405.073C119.802 405.073 118.919 403.942 118.525 402.013C118.59 401.301 118.867 400.635 119.313 400.118C119.759 399.601 120.347 399.263 120.986 399.158L121.032 399.132ZM2.50201 104.082C2.86935 104.028 3.24261 104.06 3.59857 104.174C3.9545 104.287 4.2854 104.481 4.57062 104.743C4.8558 105.005 5.0892 105.329 5.25613 105.696C5.42303 106.062 5.51993 106.463 5.54074 106.872C5.56158 107.282 5.50586 107.692 5.37711 108.077C5.24835 108.462 5.04932 108.813 4.79242 109.109C4.53555 109.404 4.22635 109.638 3.88419 109.795C3.54202 109.953 3.17422 110.03 2.80383 110.023C1.2482 110.023 0.365906 108.891 0.040863 107.168C0.0256348 106.405 0.270447 105.664 0.726593 105.092C1.18271 104.52 1.81659 104.159 2.50201 104.082ZM299.397 497.868C299.77 497.83 300.146 497.878 300.501 498.01C300.857 498.141 301.183 498.354 301.46 498.633C301.737 498.913 301.959 499.254 302.11 499.633C302.261 500.013 302.34 500.424 302.34 500.839C302.34 501.254 302.261 501.664 302.11 502.044C301.959 502.424 301.737 502.764 301.46 503.044C301.183 503.324 300.857 503.536 300.501 503.668C300.146 503.8 299.77 503.848 299.397 503.809C297.864 503.809 297.075 502.6 296.726 500.671C296.802 499.931 297.111 499.243 297.6 498.73C298.088 498.217 298.725 497.912 299.397 497.868ZM61.1518 334.551C61.4893 334.452 61.8436 334.445 62.1838 334.533C62.524 334.62 62.8396 334.798 63.1031 335.052C63.3666 335.306 63.5699 335.628 63.6953 335.989C63.8206 336.35 63.8641 336.739 63.822 337.123C63.8602 337.458 63.8313 337.798 63.7371 338.118C63.643 338.439 63.4861 338.733 63.2776 338.979C63.069 339.224 62.814 339.416 62.5309 339.54C62.2477 339.664 61.9433 339.717 61.6394 339.695C61.3507 339.727 61.0591 339.693 60.7829 339.594C60.5066 339.496 60.2516 339.336 60.0338 339.123C59.816 338.911 59.64 338.651 59.5167 338.36C59.3935 338.069 59.3257 337.753 59.3176 337.432C59.2711 335.837 59.7123 334.731 61.1286 334.551H61.1518ZM150.496 432.104C150.785 432.06 151.079 432.085 151.359 432.177C151.638 432.269 151.896 432.427 152.116 432.639C152.336 432.851 152.513 433.112 152.634 433.406C152.755 433.7 152.818 434.019 152.818 434.342C152.88 434.859 152.797 435.385 152.582 435.85C152.367 436.314 152.029 436.695 151.614 436.942C151.199 437.189 150.726 437.29 150.257 437.232C149.789 437.174 149.348 436.959 148.992 436.616C148.637 436.274 148.384 435.819 148.267 435.314C148.15 434.808 148.175 434.275 148.338 433.785C148.501 433.295 148.795 432.872 149.181 432.572C149.566 432.272 150.025 432.109 150.496 432.104ZM31.9198 268.324C32.2141 268.253 32.519 268.253 32.813 268.326C33.1071 268.399 33.3833 268.542 33.6222 268.745C33.8611 268.949 34.0569 269.207 34.196 269.503C34.3351 269.799 34.4141 270.126 34.4274 270.459C34.5172 270.833 34.523 271.225 34.4442 271.602C34.3653 271.979 34.2043 272.329 33.9751 272.621C33.746 272.912 33.4557 273.138 33.1298 273.276C32.8039 273.415 32.4522 273.463 32.1055 273.417C30.6892 273.417 29.9462 272.542 29.7837 270.665C29.7837 270.355 29.8391 270.049 29.9467 269.763C30.0543 269.478 30.212 269.218 30.4107 269.001C30.6094 268.783 30.845 268.611 31.1041 268.495C31.3631 268.379 31.6404 268.321 31.9198 268.324ZM3.05923 5.98879C3.31332 5.99532 3.56372 6.05814 3.79553 6.17355C4.02737 6.28896 4.23602 6.45462 4.40912 6.66076C4.58224 6.86691 4.71634 7.10937 4.80353 7.37383C4.89069 7.6383 4.92917 7.91943 4.91672 8.20064C4.98279 8.53554 4.9751 8.88315 4.89426 9.21405C4.81342 9.54496 4.66177 9.84942 4.45224 10.1017C4.24271 10.354 3.98145 10.5467 3.69046 10.6634C3.39951 10.7802 3.0874 10.8176 2.78061 10.7726C2.4874 10.8018 2.19199 10.7581 1.91602 10.6445C1.64005 10.5309 1.3905 10.3504 1.1857 10.1161C0.980896 9.88182 0.825989 9.59976 0.732361 9.29058C0.638702 8.9814 0.608704 8.65293 0.644531 8.32924C0.627869 7.98833 0.681854 7.64771 0.802368 7.33348C0.922852 7.01924 1.10669 6.73972 1.33975 6.51631C1.57281 6.2929 1.84891 6.13153 2.14694 6.04455C2.44498 5.95757 2.75705 5.9473 3.05923 6.01451V5.98879ZM0.505219 41.2755C0.415375 40.9017 0.409607 40.5092 0.488464 40.1324C0.567322 39.7556 0.728333 39.4059 0.957458 39.1141C1.18661 38.8222 1.47687 38.597 1.8028 38.4581C2.12872 38.3193 2.48041 38.2711 2.82706 38.3178C3.12912 38.2754 3.43591 38.3075 3.72546 38.4118C4.01501 38.516 4.28021 38.6898 4.50204 38.9208C4.72391 39.1518 4.89691 39.4343 5.00873 39.748C5.12054 40.0616 5.16843 40.3988 5.14893 40.7354C5.14893 42.3043 4.49881 43.3073 2.82706 43.4359C2.54758 43.4678 2.26514 43.4375 1.99631 43.347C1.72748 43.2565 1.47766 43.1075 1.26144 42.9087C1.04523 42.7099 0.866974 42.4654 0.737122 42.1893C0.6073 41.9133 0.528442 41.6114 0.505219 41.3012V41.2755ZM181.006 465.976C181.259 465.944 181.515 465.968 181.76 466.047C182.005 466.125 182.234 466.257 182.432 466.434C182.631 466.611 182.796 466.83 182.918 467.078C183.04 467.326 183.116 467.599 183.142 467.88C183.227 468.198 183.245 468.534 183.195 468.862C183.145 469.19 183.028 469.501 182.854 469.771C182.679 470.041 182.451 470.264 182.187 470.422C181.923 470.58 181.63 470.669 181.331 470.683C179.961 470.837 179.009 470.117 178.869 468.111C178.899 467.515 179.141 466.956 179.541 466.557C179.941 466.157 180.467 465.948 181.006 465.976ZM2.50201 169.614C2.79553 169.539 3.10025 169.535 3.39526 169.603C3.69028 169.67 3.96863 169.808 4.21121 170.006C4.45383 170.204 4.65491 170.457 4.80072 170.749C4.94653 171.041 5.03363 171.365 5.05603 171.697C5.15051 172.073 5.15985 172.468 5.08313 172.849C5.00641 173.229 4.84607 173.583 4.6163 173.878C4.38657 174.173 4.09454 174.401 3.7662 174.541C3.43787 174.681 3.08334 174.729 2.73416 174.681C1.31784 174.681 0.551636 173.858 0.412323 172.109C0.393341 171.791 0.433197 171.472 0.529388 171.172C0.62558 170.872 0.776093 170.596 0.971741 170.363C1.16739 170.129 1.40405 169.942 1.66718 169.814C1.9303 169.685 2.21439 169.617 2.50201 169.614ZM241.908 500.826C241.937 501.106 241.915 501.391 241.844 501.662C241.773 501.933 241.654 502.186 241.495 502.406C241.335 502.626 241.137 502.809 240.913 502.944C240.689 503.079 240.443 503.163 240.189 503.192C239.902 503.286 239.598 503.306 239.302 503.251C239.007 503.196 238.726 503.067 238.482 502.873C238.238 502.68 238.037 502.427 237.894 502.135C237.752 501.843 237.671 501.518 237.659 501.186C237.519 499.668 238.169 498.614 239.98 498.46C240.518 498.493 241.023 498.76 241.384 499.203C241.745 499.647 241.933 500.23 241.908 500.826ZM268.957 498.254C269.252 498.19 269.556 498.198 269.847 498.278C270.139 498.358 270.411 498.507 270.645 498.715C270.88 498.923 271.07 499.185 271.204 499.483C271.337 499.781 271.41 500.108 271.418 500.44C271.487 500.951 271.415 501.474 271.212 501.94C271.009 502.405 270.683 502.792 270.278 503.049C269.874 503.307 269.408 503.423 268.943 503.384C268.477 503.344 268.033 503.149 267.669 502.826C267.305 502.502 267.037 502.065 266.901 501.57C266.765 501.076 266.766 500.547 266.905 500.053C267.044 499.56 267.315 499.124 267.681 498.803C268.047 498.482 268.491 498.291 268.957 498.254ZM2.50201 137.079C2.79553 137.004 3.10025 137 3.39526 137.068C3.69028 137.136 3.96863 137.273 4.21121 137.471C4.45383 137.669 4.65491 137.922 4.80072 138.214C4.94653 138.506 5.03363 138.83 5.05603 139.163C5.15051 139.538 5.15985 139.934 5.08313 140.314C5.00641 140.694 4.84607 141.048 4.6163 141.343C4.38657 141.638 4.09454 141.866 3.7662 142.006C3.43787 142.146 3.08334 142.194 2.73416 142.146C2.11838 142.19 1.51193 141.962 1.04819 141.511C0.584473 141.06 0.301453 140.423 0.261444 139.741C0.221405 139.059 0.427612 138.387 0.834747 137.874C1.24188 137.36 1.81656 137.047 2.43237 137.002L2.50201 137.079ZM2.8735 202.303C3.12924 202.282 3.38614 202.319 3.62881 202.411C3.87149 202.502 4.09494 202.647 4.28577 202.837C4.47659 203.027 4.63083 203.257 4.73926 203.515C4.84769 203.772 4.90802 204.051 4.91672 204.335C4.96777 204.651 4.9556 204.975 4.88104 205.284C4.80649 205.594 4.67139 205.882 4.48529 206.127C4.29922 206.372 4.06671 206.569 3.80423 206.704C3.54175 206.839 3.25568 206.908 2.96637 206.907C1.55005 206.907 0.783844 206.187 0.644531 204.567C0.631897 204.248 0.682495 203.93 0.792725 203.635C0.902954 203.34 1.07016 203.075 1.28259 202.859C1.49503 202.644 1.74756 202.482 2.0224 202.386C2.29727 202.29 2.58777 202.262 2.8735 202.303ZM116.203 41.1212C116.125 40.3458 116.204 39.561 116.432 38.8228C116.66 38.0847 117.032 37.4115 117.522 36.8514C118.013 36.2912 118.608 35.8578 119.267 35.5822C119.926 35.3067 120.632 35.1957 121.334 35.2572C121.996 35.1936 122.663 35.2881 123.29 35.5345C123.916 35.7809 124.487 36.1734 124.965 36.6854C125.443 37.1975 125.815 37.8171 126.058 38.5025C126.301 39.1879 126.408 39.923 126.373 40.6582C126.489 44.2846 124.399 46.1622 121.311 46.6765C118.316 46.1879 116.272 44.439 116.203 41.1212ZM126.28 7.96917C126.345 8.72041 126.271 9.47843 126.062 10.197C125.854 10.9156 125.516 11.5796 125.068 12.1486C124.621 12.7175 124.073 13.1795 123.459 13.5063C122.845 13.8332 122.177 14.0179 121.497 14.0494C120.816 14.0809 120.137 13.9585 119.5 13.6895C118.863 13.4205 118.283 13.0107 117.794 12.4851C117.305 11.9594 116.918 11.3289 116.657 10.6321C116.395 9.9353 116.264 9.18674 116.272 8.43211C116.156 5.11434 118.176 3.28827 121.079 2.67101C122.4 2.6354 123.682 3.17134 124.653 4.16519C125.624 5.15905 126.208 6.53269 126.28 7.99489V7.96917ZM92.0788 3.39115C92.6534 3.34647 93.23 3.43763 93.7704 3.65859C94.3108 3.87954 94.8026 4.22523 95.2132 4.67274C95.6238 5.12025 95.9437 5.65935 96.1519 6.25427C96.3601 6.8492 96.4517 7.48635 96.4207 8.12348C96.5015 8.79353 96.4466 9.47512 96.26 10.1187C96.0733 10.7624 95.7596 11.3518 95.3417 11.8444C94.9237 12.337 94.4119 12.7202 93.8435 12.9664C93.2751 13.2125 92.6644 13.3153 92.0556 13.2673C91.4453 13.3316 90.8296 13.2488 90.2509 13.0246C89.6722 12.8005 89.1441 12.4402 88.703 11.9687C88.2618 11.4971 87.918 10.9253 87.6951 10.2927C87.4723 9.66002 87.3757 8.98144 87.4119 8.30352C87.3895 7.63064 87.4969 6.96021 87.727 6.337C87.9572 5.71379 88.3047 5.15216 88.7464 4.68962C89.1882 4.22708 89.714 3.87428 90.2886 3.6548C90.8633 3.43532 91.4736 3.3542 92.0788 3.41687V3.39115ZM87.4351 73.4502C87.4351 72.086 87.9244 70.7776 88.7953 69.813C89.6661 68.8483 90.8472 68.3064 92.0788 68.3064C93.3104 68.3064 94.4916 68.8483 95.3624 69.813C96.2333 70.7776 96.7225 72.086 96.7225 73.4502C96.7225 76.6137 95.0276 78.3368 92.0788 78.594C91.4537 78.6456 90.8259 78.5498 90.2366 78.313C89.6474 78.0762 89.1102 77.7036 88.6604 77.22C88.2107 76.7364 87.8586 76.1526 87.6273 75.5073C87.3961 74.8619 87.2911 74.1696 87.319 73.4759L87.4351 73.4502ZM92.0788 35.7716C92.7038 35.7037 93.3347 35.79 93.926 36.0245C94.5173 36.259 95.0543 36.6357 95.4983 37.1276C95.9424 37.6195 96.2825 38.2144 96.4942 38.8693C96.7059 39.5243 96.7839 40.2231 96.7225 40.9154C96.7839 41.6078 96.7059 42.3066 96.4942 42.9615C96.2825 43.6165 95.9424 44.2113 95.4983 44.7032C95.0543 45.1952 94.5173 45.5719 93.926 45.8064C93.3347 46.0409 92.7038 46.1272 92.0788 46.0593C90.8472 46.0593 89.6661 45.5173 88.7953 44.5527C87.9244 43.588 87.4351 42.2797 87.4351 40.9154C87.4351 39.5512 87.9244 38.2429 88.7953 37.2782C89.6661 36.3135 90.8472 35.7716 92.0788 35.7716ZM116.203 139.934C116.116 139.16 116.184 138.374 116.403 137.632C116.623 136.89 116.987 136.211 117.471 135.643C117.954 135.076 118.545 134.634 119.201 134.348C119.857 134.063 120.561 133.942 121.264 133.993C121.926 133.919 122.594 134.003 123.224 134.24C123.854 134.476 124.43 134.86 124.915 135.365C125.399 135.869 125.78 136.483 126.031 137.165C126.283 137.847 126.399 138.581 126.373 139.317C126.535 142.943 124.469 144.821 121.102 145.438C119.816 145.351 118.605 144.741 117.701 143.725C116.797 142.709 116.263 141.359 116.203 139.934ZM126.303 172.058C126.35 172.817 126.255 173.579 126.025 174.297C125.794 175.014 125.433 175.671 124.964 176.228C124.495 176.784 123.927 177.228 123.297 177.531C122.667 177.834 121.987 177.991 121.299 177.991C120.612 177.991 119.932 177.834 119.301 177.531C118.671 177.228 118.104 176.784 117.634 176.228C117.165 175.671 116.804 175.014 116.574 174.297C116.344 173.579 116.249 172.817 116.296 172.058C116.296 168.765 118.409 166.914 121.52 166.554C122.79 166.655 123.982 167.273 124.865 168.289C125.748 169.305 126.26 170.648 126.303 172.058ZM121.381 199.243C122.68 199.243 123.926 199.814 124.845 200.832C125.763 201.85 126.28 203.23 126.28 204.669C126.28 206.109 125.763 207.489 124.845 208.507C123.926 209.524 122.68 210.096 121.381 210.096C118.339 210.225 116.737 207.987 116.203 204.695C116.714 201.429 118.339 199.243 121.381 199.243ZM274.158 369.272C274.222 370.025 274.147 370.785 273.937 371.504C273.727 372.224 273.386 372.888 272.936 373.457C272.486 374.025 271.936 374.486 271.32 374.811C270.703 375.136 270.033 375.318 269.351 375.346C268.669 375.374 267.989 375.248 267.352 374.974C266.716 374.701 266.136 374.286 265.649 373.756C265.162 373.226 264.778 372.592 264.521 371.891C264.263 371.191 264.137 370.44 264.151 369.684C264.151 366.366 266.078 364.54 269.143 363.923C270.431 363.958 271.661 364.527 272.589 365.518C273.517 366.508 274.077 367.847 274.158 369.272ZM244.555 369.452C244.583 370.177 244.478 370.9 244.244 371.578C244.01 372.255 243.654 372.872 243.196 373.391C242.738 373.909 242.189 374.318 241.583 374.592C240.977 374.866 240.326 374.999 239.671 374.984C239.017 374.968 238.372 374.803 237.777 374.5C237.183 374.197 236.65 373.762 236.213 373.222C235.777 372.681 235.444 372.047 235.238 371.359C235.031 370.671 234.954 369.943 235.012 369.221C235.118 367.881 235.681 366.637 236.585 365.74C237.489 364.843 238.667 364.36 239.881 364.39C241.094 364.419 242.252 364.959 243.12 365.899C243.988 366.839 244.501 368.109 244.555 369.452ZM150.914 265.444C152.214 265.488 153.444 266.103 154.334 267.152C155.225 268.201 155.703 269.599 155.663 271.038C155.623 272.477 155.068 273.84 154.121 274.826C153.174 275.812 151.912 276.342 150.613 276.297C147.594 276.297 145.969 274.008 145.597 270.639C146.248 267.501 147.873 265.264 150.914 265.444ZM215.322 337.123C215.347 338.562 214.855 339.954 213.953 340.991C213.052 342.028 211.816 342.626 210.516 342.653C209.217 342.68 207.961 342.135 207.025 341.136C206.089 340.138 205.549 338.768 205.524 337.329C205.362 333.96 207.382 332.185 210.354 331.516C211.012 331.523 211.663 331.674 212.269 331.959C212.876 332.244 213.425 332.659 213.886 333.18C214.348 333.701 214.712 334.317 214.959 334.993C215.205 335.67 215.329 336.394 215.322 337.123ZM176.06 303.688C176.004 302.93 176.088 302.168 176.309 301.448C176.529 300.727 176.881 300.065 177.342 299.501C177.802 298.938 178.363 298.485 178.988 298.171C179.614 297.857 180.29 297.689 180.977 297.677C181.663 297.664 182.345 297.808 182.979 298.1C183.613 298.391 184.186 298.823 184.664 299.37C185.141 299.916 185.512 300.566 185.753 301.278C185.994 301.99 186.101 302.749 186.067 303.508C186.067 306.826 184.047 308.652 180.959 309.167C179.661 309.108 178.431 308.503 177.521 307.476C176.611 306.449 176.088 305.076 176.06 303.637V303.688ZM150.52 232.678C151.221 232.606 151.928 232.706 152.59 232.972C153.252 233.238 153.853 233.663 154.35 234.215C154.846 234.768 155.227 235.436 155.464 236.17C155.701 236.905 155.789 237.688 155.721 238.464C155.766 239.199 155.668 239.936 155.434 240.624C155.199 241.313 154.835 241.939 154.363 242.458C153.892 242.977 153.326 243.379 152.703 243.635C152.08 243.891 151.415 243.996 150.752 243.943C147.478 243.943 145.83 241.654 145.435 238.207C145.922 234.967 147.501 232.678 150.52 232.678ZM180.959 265.161C182.286 265.174 183.558 265.751 184.512 266.773C185.466 267.794 186.029 269.183 186.086 270.651C186.142 272.12 185.688 273.557 184.816 274.665C183.944 275.773 182.721 276.468 181.4 276.606C178.126 276.889 176.362 274.626 175.758 271.154C176.06 267.579 177.685 265.264 180.959 265.161ZM234.617 337.175C234.611 335.698 235.12 334.277 236.037 333.205C236.954 332.134 238.208 331.495 239.539 331.422C240.87 331.35 242.175 331.848 243.183 332.814C244.191 333.78 244.823 335.139 244.949 336.609C245.228 340.235 243.185 342.19 240.073 342.884C239.375 342.93 238.676 342.817 238.019 342.554C237.361 342.291 236.759 341.882 236.249 341.353C235.738 340.823 235.33 340.185 235.05 339.475C234.769 338.766 234.622 338.001 234.617 337.226V337.175ZM210.609 297.567C211.995 297.625 213.303 298.29 214.245 299.417C215.188 300.543 215.688 302.038 215.636 303.573C215.584 305.107 214.983 306.556 213.966 307.6C212.95 308.645 211.6 309.199 210.214 309.141C206.917 309.141 205.339 306.697 205.06 302.66C205.218 301.188 205.884 299.841 206.918 298.901C207.953 297.962 209.275 297.502 210.609 297.619V297.567ZM304.714 369.812C304.743 370.543 304.635 371.272 304.398 371.954C304.16 372.636 303.798 373.256 303.333 373.776C302.869 374.295 302.312 374.702 301.698 374.972C301.085 375.242 300.428 375.367 299.768 375.342C299.068 375.434 298.357 375.354 297.688 375.109C297.018 374.863 296.406 374.456 295.894 373.919C295.382 373.381 294.983 372.725 294.726 371.998C294.468 371.27 294.359 370.489 294.405 369.709C294.405 366.057 296.425 364.231 299.605 363.768C302.763 364.283 304.806 366.16 304.714 369.812ZM116.203 73.8617C116.185 73.122 116.298 72.3856 116.537 71.6945C116.775 71.0034 117.134 70.3711 117.594 69.8337C118.053 69.2964 118.603 68.8645 119.213 68.5627C119.823 68.2609 120.481 68.0952 121.148 68.0749C121.816 68.0546 122.481 68.1802 123.105 68.4446C123.729 68.7089 124.3 69.1068 124.785 69.6155C125.27 70.1242 125.66 70.7337 125.932 71.4094C126.205 72.085 126.354 72.8134 126.373 73.5531C126.409 75.0469 125.909 76.4958 124.982 77.581C124.054 78.6663 122.776 79.299 121.427 79.3399C120.078 79.3808 118.77 78.8266 117.791 77.7993C116.811 76.7719 116.24 75.3555 116.203 73.8617ZM150.45 198.883C151.836 198.825 153.185 199.379 154.202 200.423C155.219 201.467 155.819 202.916 155.872 204.451C155.924 205.986 155.424 207.481 154.481 208.607C153.538 209.733 152.23 210.398 150.845 210.456C150.149 210.523 149.447 210.431 148.785 210.185C148.123 209.938 147.513 209.544 146.995 209.025C146.476 208.506 146.06 207.874 145.771 207.169C145.483 206.464 145.329 205.701 145.319 204.927C145.551 201.326 147.153 199.011 150.45 198.883ZM150.171 133.685C150.9 133.61 151.634 133.701 152.33 133.951C153.025 134.202 153.668 134.606 154.217 135.141C154.767 135.675 155.213 136.328 155.528 137.059C155.843 137.79 156.019 138.585 156.048 139.394C156.076 140.204 155.956 141.011 155.693 141.768C155.431 142.524 155.032 143.213 154.521 143.793C154.01 144.373 153.398 144.831 152.722 145.141C152.046 145.45 151.321 145.604 150.589 145.592C149.89 145.658 149.185 145.559 148.522 145.302C147.86 145.046 147.253 144.637 146.743 144.103C146.232 143.569 145.829 142.922 145.559 142.203C145.29 141.485 145.161 140.712 145.179 139.934C145.296 136.231 146.828 133.916 150.171 133.685ZM150.473 2.5167C151.175 2.40951 151.889 2.47532 152.565 2.70943C153.24 2.94355 153.861 3.34018 154.383 3.87096C154.904 4.40174 155.313 5.05356 155.58 5.77981C155.848 6.50606 155.967 7.28879 155.93 8.07204C156.051 8.89612 155.997 9.74013 155.772 10.5372C155.548 11.3342 155.159 12.0623 154.636 12.6638C154.113 13.2653 153.471 13.7237 152.761 14.0025C152.05 14.2814 151.291 14.3731 150.543 14.2704C149.831 14.3308 149.115 14.2213 148.444 13.9491C147.773 13.6768 147.163 13.2483 146.655 12.6924C146.146 12.1365 145.751 11.4662 145.497 10.7268C145.242 9.98743 145.134 9.19613 145.179 8.40639C145.132 7.62043 145.236 6.83232 145.485 6.09435C145.734 5.35638 146.121 4.68543 146.622 4.12602C147.122 3.5666 147.725 3.13151 148.389 2.84962C149.053 2.56773 149.763 2.44548 150.473 2.49098V2.5167ZM299.861 329.87C301.308 329.922 302.678 330.607 303.668 331.777C304.659 332.947 305.189 334.504 305.143 336.107C305.097 337.71 304.478 339.227 303.422 340.325C302.366 341.422 300.96 342.01 299.513 341.958C295.914 341.958 294.196 339.618 294.033 335.452C294.04 334.644 294.201 333.848 294.507 333.115C294.813 332.382 295.257 331.73 295.808 331.202C296.36 330.674 297.006 330.282 297.705 330.052C298.404 329.823 299.139 329.761 299.861 329.87ZM263.849 336.969C263.792 336.19 263.889 335.406 264.135 334.673C264.38 333.939 264.768 333.275 265.27 332.726C265.773 332.176 266.378 331.756 267.043 331.494C267.708 331.231 268.417 331.134 269.12 331.208C269.869 331.115 270.628 331.217 271.335 331.506C272.043 331.795 272.68 332.262 273.196 332.871C273.712 333.481 274.093 334.214 274.308 335.015C274.524 335.816 274.568 336.661 274.437 337.483C274.274 341.187 272.115 342.884 268.423 343.064C267.085 342.927 265.851 342.209 264.989 341.067C264.128 339.925 263.71 338.452 263.826 336.969H263.849ZM239.33 297.439C240.059 297.364 240.793 297.455 241.489 297.705C242.184 297.956 242.827 298.36 243.376 298.895C243.926 299.429 244.372 300.082 244.687 300.813C245.001 301.544 245.178 302.339 245.207 303.148C245.235 303.958 245.114 304.766 244.852 305.522C244.59 306.278 244.191 306.967 243.68 307.547C243.169 308.127 242.557 308.585 241.881 308.895C241.205 309.204 240.48 309.358 239.748 309.346C239.052 309.408 238.353 309.307 237.694 309.05C237.036 308.793 236.433 308.386 235.926 307.855C235.418 307.325 235.017 306.682 234.747 305.968C234.478 305.255 234.346 304.487 234.362 303.714C234.431 300.036 235.964 297.696 239.307 297.464L239.33 297.439ZM210.33 264.827C211.032 264.726 211.746 264.795 212.421 265.029C213.096 265.263 213.718 265.656 214.243 266.182C214.768 266.707 215.185 267.352 215.463 268.073C215.742 268.794 215.876 269.573 215.856 270.356C216.002 271.175 215.977 272.02 215.784 272.826C215.591 273.633 215.235 274.38 214.743 275.012C214.251 275.644 213.636 276.143 212.944 276.473C212.252 276.803 211.501 276.954 210.748 276.915C210.032 276.947 209.317 276.822 208.644 276.548C207.971 276.274 207.353 275.856 206.826 275.317C206.298 274.779 205.872 274.13 205.571 273.409C205.27 272.688 205.1 271.909 205.071 271.115C205.043 270.321 205.155 269.529 205.402 268.783C205.65 268.038 206.027 267.354 206.514 266.77C207 266.186 207.585 265.714 208.236 265.38C208.887 265.047 209.591 264.859 210.307 264.827H210.33ZM145.319 172.238C145.287 171.434 145.405 170.631 145.664 169.879C145.924 169.128 146.319 168.443 146.827 167.867C147.334 167.291 147.943 166.837 148.615 166.532C149.288 166.227 150.009 166.078 150.735 166.093C151.462 166.109 152.178 166.29 152.838 166.624C153.499 166.958 154.091 167.439 154.578 168.036C155.065 168.634 155.436 169.335 155.668 170.098C155.901 170.86 155.99 171.667 155.93 172.469C155.93 176.173 153.77 177.947 150.148 178.204C149.471 178.169 148.807 177.983 148.195 177.657C147.584 177.332 147.038 176.874 146.59 176.31C146.141 175.746 145.8 175.088 145.585 174.375C145.371 173.663 145.288 172.909 145.342 172.16L145.319 172.238ZM150.543 67.3548C151.243 67.2545 151.954 67.323 152.628 67.5554C153.301 67.7878 153.922 68.1787 154.447 68.7014C154.971 69.224 155.388 69.8661 155.668 70.5836C155.948 71.3011 156.085 72.0772 156.069 72.8587C156.214 73.6752 156.189 74.5175 155.997 75.3221C155.806 76.1267 155.452 76.8727 154.962 77.504C154.473 78.1352 153.861 78.6354 153.172 78.9667C152.483 79.2981 151.735 79.452 150.984 79.417C150.268 79.4491 149.552 79.3246 148.879 79.0505C148.206 78.7764 147.588 78.3581 147.061 77.8196C146.534 77.281 146.108 76.6327 145.807 75.9117C145.506 75.1907 145.336 74.4111 145.307 73.6174C145.278 72.8237 145.391 72.0314 145.638 71.2858C145.886 70.5403 146.263 69.856 146.749 69.272C147.236 68.6881 147.821 68.216 148.472 67.8826C149.123 67.5492 149.826 67.3611 150.543 67.329V67.3548ZM175.665 238.387C175.578 237.559 175.665 236.72 175.918 235.934C176.172 235.149 176.585 234.439 177.126 233.86C177.668 233.28 178.322 232.846 179.039 232.592C179.756 232.338 180.517 232.271 181.261 232.395C181.967 232.337 182.676 232.453 183.338 232.733C184 233.013 184.597 233.45 185.089 234.015C185.581 234.579 185.955 235.257 186.184 235.999C186.413 236.741 186.492 237.53 186.415 238.31C186.415 242.322 184.326 244.2 180.82 244.38C180.115 244.404 179.414 244.263 178.761 243.967C178.109 243.67 177.52 243.225 177.034 242.659C176.547 242.094 176.174 241.421 175.938 240.685C175.702 239.949 175.609 239.166 175.665 238.387ZM155.976 40.1181C156.151 40.9313 156.154 41.7781 155.986 42.593C155.819 43.408 155.484 44.1693 155.008 44.8181C154.532 45.4669 153.928 45.9858 153.243 46.3348C152.557 46.6838 151.808 46.8536 151.054 46.8308C150.361 46.9808 149.647 46.9614 148.961 46.774C148.276 46.5867 147.635 46.2358 147.085 45.7461C146.534 45.2563 146.087 44.6393 145.774 43.9383C145.461 43.2372 145.29 42.4689 145.272 41.687C145.122 40.8669 145.137 40.0201 145.316 39.2071C145.495 38.3942 145.834 37.635 146.309 36.9839C146.783 36.3329 147.382 35.8059 148.062 35.4407C148.741 35.0756 149.486 34.8812 150.241 34.8714C153.399 34.9229 155.674 36.3889 155.976 40.1181ZM150.729 101.047C151.424 100.973 152.125 101.065 152.786 101.316C153.447 101.567 154.051 101.971 154.559 102.502C155.067 103.033 155.467 103.678 155.731 104.394C155.995 105.11 156.118 105.881 156.092 106.654C156.214 107.475 156.165 108.316 155.951 109.114C155.736 109.912 155.361 110.645 154.854 111.259C154.347 111.873 153.72 112.352 153.022 112.659C152.323 112.966 151.571 113.094 150.822 113.032C149.374 113.032 147.987 112.395 146.963 111.262C145.94 110.128 145.365 108.591 145.365 106.988C145.365 105.385 145.94 103.848 146.963 102.714C147.987 101.581 149.374 100.944 150.822 100.944L150.729 101.047ZM181.238 198.523C182.651 198.662 183.962 199.396 184.902 200.573C185.842 201.75 186.339 203.281 186.291 204.851C186.244 206.422 185.655 207.912 184.646 209.017C183.637 210.122 182.285 210.756 180.866 210.791C180.112 210.809 179.362 210.656 178.663 210.343C177.963 210.029 177.329 209.561 176.798 208.966C176.268 208.372 175.853 207.664 175.578 206.885C175.303 206.107 175.174 205.275 175.199 204.439C175.224 203.604 175.403 202.783 175.725 202.027C176.046 201.27 176.503 200.595 177.069 200.041C177.634 199.487 178.295 199.067 179.012 198.806C179.729 198.545 180.486 198.448 181.238 198.523ZM263.361 303.688C263.267 302.808 263.349 301.916 263.603 301.075C263.856 300.234 264.273 299.466 264.826 298.824C265.378 298.183 266.051 297.685 266.798 297.365C267.544 297.046 268.345 296.913 269.143 296.976C269.893 296.918 270.645 297.035 271.352 297.318C272.059 297.602 272.704 298.046 273.246 298.623C273.789 299.2 274.216 299.895 274.501 300.666C274.786 301.436 274.922 302.264 274.901 303.097C274.933 303.941 274.815 304.784 274.552 305.578C274.29 306.372 273.89 307.1 273.373 307.722C272.857 308.345 272.235 308.848 271.543 309.204C270.851 309.56 270.102 309.761 269.34 309.797C268.578 309.832 267.817 309.701 267.1 309.411C266.384 309.12 265.726 308.676 265.164 308.104C264.603 307.532 264.148 306.843 263.827 306.077C263.506 305.31 263.324 304.481 263.292 303.637L263.361 303.688ZM181.261 165.628C182.822 165.648 184.312 166.355 185.403 167.592C186.493 168.829 187.096 170.496 187.077 172.225C187.059 173.954 186.421 175.604 185.304 176.812C184.187 178.021 182.683 178.688 181.122 178.667C177.5 178.667 175.526 176.095 175.062 172.006C175.642 168.148 177.685 165.525 181.261 165.628ZM204.665 238.67C204.576 237.796 204.66 236.91 204.912 236.075C205.164 235.24 205.578 234.476 206.124 233.837C206.67 233.198 207.336 232.698 208.074 232.374C208.813 232.049 209.607 231.907 210.4 231.958C211.15 231.893 211.903 232.002 212.612 232.28C213.321 232.557 213.97 232.996 214.517 233.567C215.064 234.139 215.496 234.831 215.787 235.599C216.078 236.367 216.22 237.195 216.205 238.027C216.344 242.065 214.069 244.303 210.423 244.869C208.92 244.876 207.474 244.232 206.393 243.073C205.313 241.915 204.684 240.335 204.642 238.67H204.665ZM239.725 264.389C241.283 264.331 242.798 264.961 243.937 266.141C245.075 267.32 245.744 268.952 245.797 270.678C245.849 272.404 245.28 274.082 244.216 275.343C243.151 276.604 241.678 277.345 240.12 277.403C236.498 277.66 234.431 275.063 233.781 270.896C233.799 269.166 234.43 267.512 235.537 266.29C236.644 265.069 238.139 264.377 239.702 264.364L239.725 264.389ZM174.249 8.76646C174.148 7.88355 174.225 6.98688 174.473 6.14051C174.721 5.29415 175.135 4.51896 175.685 3.87033C176.235 3.2217 176.908 2.71563 177.655 2.38827C178.402 2.06091 179.205 1.92034 180.007 1.9766C180.757 1.90471 181.511 2.00746 182.223 2.27823C182.934 2.549 183.586 2.98179 184.137 3.54873C184.689 4.11567 185.126 4.80419 185.423 5.56996C185.719 6.33573 185.868 7.16177 185.858 7.99489C186.044 12.0328 183.769 14.2961 180.17 14.8619C179.416 14.8929 178.665 14.759 177.959 14.4681C177.252 14.1771 176.604 13.7347 176.052 13.1662C175.5 12.5977 175.055 11.9142 174.741 11.1549C174.428 10.3955 174.253 9.57516 174.226 8.74074L174.249 8.76646ZM180.007 34.3828C180.758 34.3267 181.511 34.441 182.22 34.7185C182.929 34.9961 183.58 35.4311 184.132 35.997C184.684 36.5628 185.126 37.2476 185.431 38.0093C185.736 38.771 185.897 39.5936 185.905 40.4268C186.027 41.3146 185.972 42.2213 185.744 43.0831C185.516 43.945 185.12 44.741 184.585 45.4152C184.049 46.0894 183.387 46.6255 182.644 46.9856C181.901 47.3457 181.096 47.5211 180.286 47.4995C176.664 47.731 174.62 45.1334 173.994 41.0955C173.975 40.2126 174.117 39.3346 174.412 38.5141C174.707 37.6936 175.148 36.9476 175.71 36.3207C176.272 35.6938 176.942 35.1991 177.68 34.8661C178.418 34.533 179.21 34.3687 180.007 34.3828ZM181.075 132.99C181.865 132.952 182.653 133.092 183.392 133.403C184.13 133.713 184.804 134.188 185.371 134.797C185.939 135.406 186.388 136.137 186.691 136.945C186.994 137.754 187.145 138.622 187.135 139.497C187.139 140.407 186.977 141.309 186.661 142.149C186.344 142.989 185.879 143.751 185.292 144.389C184.706 145.026 184.01 145.527 183.246 145.862C182.482 146.197 181.665 146.359 180.843 146.338C179.266 146.24 177.781 145.482 176.69 144.216C175.599 142.95 174.984 141.273 174.969 139.523C175.48 135.588 177.43 132.964 181.052 132.964L181.075 132.99ZM299.675 310.041C298.886 310.097 298.095 309.974 297.35 309.679C296.606 309.385 295.924 308.924 295.345 308.327C294.767 307.73 294.305 307.008 293.987 306.206C293.67 305.404 293.504 304.538 293.499 303.663C293.477 302.752 293.621 301.845 293.922 300.997C294.223 300.149 294.676 299.376 295.252 298.726C295.828 298.076 296.517 297.56 297.277 297.211C298.037 296.862 298.852 296.685 299.675 296.693C301.257 296.758 302.757 297.488 303.87 298.735C304.983 299.982 305.625 301.652 305.666 303.405C305.653 305.161 305.018 306.841 303.898 308.083C302.777 309.324 301.26 310.027 299.675 310.041ZM179.845 100.404C181.411 100.34 182.937 100.959 184.096 102.128C185.254 103.296 185.954 104.921 186.044 106.654C186.064 108.398 185.473 110.083 184.395 111.354C183.317 112.625 181.836 113.384 180.263 113.471C178.691 113.557 177.149 112.965 175.962 111.818C174.776 110.672 174.037 109.06 173.901 107.322C173.921 105.551 174.545 103.854 175.647 102.571C176.749 101.288 178.249 100.514 179.845 100.404ZM210.191 197.931C211.759 197.93 213.266 198.6 214.399 199.8C215.532 201 216.203 202.639 216.272 204.373C216.34 206.108 215.802 207.805 214.769 209.111C213.735 210.417 212.287 211.231 210.725 211.382C206.848 211.562 204.804 208.81 204.247 204.721C204.665 200.76 206.569 198.06 210.191 197.931ZM180.123 80.06C179.334 80.1161 178.543 79.993 177.799 79.6983C177.054 79.4036 176.372 78.9436 175.793 78.3463C175.215 77.7491 174.753 77.0272 174.436 76.2251C174.118 75.423 173.952 74.5575 173.947 73.6817C173.925 72.7706 174.069 71.864 174.37 71.0159C174.672 70.1678 175.124 69.3956 175.7 68.7452C176.276 68.0948 176.965 67.5796 177.725 67.2302C178.485 66.8809 179.301 66.7046 180.123 66.7118C181.705 66.7766 183.206 67.507 184.318 68.7542C185.431 70.0013 186.073 71.6714 186.114 73.4245C186.101 75.1802 185.466 76.8602 184.346 78.1017C183.225 79.3432 181.708 80.0466 180.123 80.06ZM216.553 172.469C216.423 174.206 215.696 175.822 214.523 176.985C213.35 178.147 211.82 178.767 210.247 178.718C208.674 178.668 207.177 177.953 206.066 176.719C204.954 175.485 204.312 173.826 204.27 172.083C204.27 167.788 206.801 165.628 210.586 165.165C214.324 165.808 216.739 168.174 216.553 172.469ZM239.772 231.623C241.349 231.653 242.855 232.353 243.98 233.578C245.105 234.803 245.762 236.46 245.815 238.206C245.869 239.952 245.315 241.655 244.268 242.961C243.221 244.268 241.761 245.08 240.189 245.229C236.312 245.512 234.246 242.785 233.526 238.413C233.967 234.478 235.731 231.623 239.702 231.546L239.772 231.623ZM263.129 271.488C263.01 270.57 263.074 269.635 263.316 268.748C263.558 267.861 263.972 267.043 264.53 266.352C265.087 265.661 265.775 265.113 266.543 264.747C267.312 264.382 268.144 264.207 268.98 264.235C269.758 264.15 270.544 264.244 271.287 264.511C272.031 264.778 272.716 265.213 273.301 265.788C273.885 266.363 274.356 267.065 274.683 267.852C275.011 268.638 275.187 269.491 275.203 270.356C275.505 274.651 273.067 276.966 269.166 277.815C267.606 277.799 266.11 277.13 264.977 275.942C263.844 274.754 263.159 273.135 263.06 271.411L263.129 271.488ZM216.692 8.45783C216.63 10.1951 215.971 11.8405 214.85 13.0571C213.729 14.2738 212.23 14.9698 210.661 15.0026C209.091 15.0355 207.57 14.4028 206.408 13.2339C205.246 12.0651 204.531 10.4485 204.41 8.71502C204.224 4.41992 206.732 2.15663 210.447 1.48793C214.069 1.89944 216.553 4.08557 216.576 8.38067L216.692 8.45783ZM293.337 270.896C293.266 269.974 293.378 269.045 293.665 268.176C293.951 267.306 294.405 266.516 294.995 265.86C295.585 265.204 296.297 264.698 297.081 264.378C297.865 264.057 298.703 263.929 299.536 264.004C300.367 263.926 301.203 264.05 301.986 264.366C302.769 264.682 303.482 265.182 304.073 265.833C304.665 266.483 305.122 267.268 305.413 268.134C305.704 268.999 305.822 269.924 305.758 270.845C305.758 275.14 303.437 277.326 299.327 277.943C295.891 277.275 293.313 275.243 293.337 270.896ZM210.586 34.0227C211.421 33.9722 212.256 34.1238 213.033 34.4669C213.809 34.81 214.509 35.3365 215.084 36.0096C215.658 36.6827 216.094 37.4863 216.359 38.3646C216.625 39.2429 216.715 40.1748 216.623 41.0955C216.666 42.0232 216.525 42.9501 216.211 43.8114C215.897 44.6727 215.417 45.4477 214.805 46.0822C214.192 46.7166 213.462 47.1951 212.665 47.4844C211.868 47.7736 211.024 47.8666 210.191 47.7567C206.337 47.7567 204.41 44.8505 204.015 40.6582C204.688 36.5432 206.708 33.8684 210.586 34.0227ZM210.423 66.4803C211.248 66.4104 212.077 66.5349 212.855 66.8456C213.632 67.1564 214.342 67.6463 214.937 68.283C215.531 68.9197 215.997 69.6888 216.304 70.5396C216.61 71.3904 216.751 72.3035 216.716 73.2187C216.771 74.1813 216.639 75.1459 216.33 76.0476C216.021 76.9494 215.542 77.7675 214.924 78.4471C214.306 79.1267 213.564 79.652 212.748 79.9879C211.931 80.3237 211.06 80.4623 210.191 80.3944C209.355 80.3918 208.528 80.202 207.76 79.8362C206.992 79.4704 206.298 78.9363 205.721 78.2659C205.144 77.5956 204.696 76.8029 204.402 75.9355C204.109 75.0681 203.977 74.144 204.015 73.2187C204.526 69.0779 206.499 66.4289 210.423 66.4546V66.4803ZM262.874 238.799C262.769 237.884 262.84 236.955 263.083 236.074C263.326 235.192 263.736 234.378 264.285 233.685C264.834 232.992 265.509 232.436 266.267 232.054C267.024 231.672 267.846 231.472 268.678 231.469C269.54 231.371 270.411 231.476 271.234 231.778C272.056 232.079 272.812 232.571 273.45 233.22C274.089 233.869 274.596 234.66 274.938 235.542C275.28 236.424 275.449 237.376 275.435 238.336C275.476 239.248 275.351 240.161 275.07 241.019C274.788 241.878 274.354 242.665 273.794 243.336C273.234 244.007 272.559 244.547 271.808 244.925C271.057 245.303 270.246 245.511 269.421 245.537C265.544 245.126 263.06 242.965 262.874 238.722V238.799ZM210.191 132.656C211.019 132.573 211.854 132.684 212.641 132.98C213.428 133.277 214.151 133.754 214.761 134.379C215.372 135.005 215.857 135.765 216.186 136.611C216.514 137.457 216.679 138.37 216.669 139.291C216.739 140.248 216.625 141.211 216.333 142.115C216.041 143.019 215.579 143.844 214.977 144.535C214.375 145.226 213.648 145.767 212.843 146.122C212.037 146.477 211.173 146.639 210.307 146.596C208.743 146.68 207.212 146.08 206.043 144.926C204.875 143.771 204.163 142.154 204.062 140.423C203.972 139.46 204.062 138.487 204.327 137.565C204.591 136.642 205.025 135.79 205.6 135.061C206.175 134.333 206.88 133.743 207.669 133.329C208.459 132.915 209.318 132.686 210.191 132.656ZM216.669 106.937C216.744 107.854 216.644 108.779 216.376 109.651C216.108 110.522 215.678 111.322 215.113 111.999C214.549 112.675 213.862 113.213 213.098 113.577C212.335 113.941 211.51 114.123 210.679 114.112C209.815 114.19 208.946 114.063 208.13 113.74C207.314 113.417 206.569 112.905 205.945 112.238C205.321 111.572 204.833 110.765 204.512 109.874C204.191 108.982 204.046 108.024 204.085 107.065C204.008 105.333 204.55 103.636 205.592 102.342C206.635 101.048 208.095 100.259 209.657 100.147C210.526 100.04 211.406 100.133 212.241 100.419C213.076 100.706 213.849 101.18 214.512 101.813C215.174 102.445 215.711 103.222 216.091 104.095C216.47 104.967 216.683 105.917 216.716 106.885L216.669 106.937ZM233.41 204.901C233.332 203.984 233.428 203.059 233.693 202.185C233.958 201.312 234.386 200.51 234.948 199.831C235.511 199.152 236.196 198.612 236.958 198.245C237.721 197.878 238.545 197.692 239.377 197.7C240.241 197.618 241.11 197.742 241.927 198.062C242.745 198.382 243.491 198.891 244.117 199.555C244.743 200.219 245.234 201.023 245.558 201.914C245.881 202.805 246.03 203.762 245.994 204.721C246.07 206.453 245.529 208.15 244.487 209.444C243.444 210.738 241.984 211.527 240.422 211.639C239.556 211.739 238.682 211.64 237.852 211.35C237.022 211.06 236.255 210.584 235.598 209.953C234.941 209.321 234.407 208.547 234.031 207.678C233.655 206.809 233.443 205.864 233.41 204.901ZM246.11 7.84057C246.182 8.79273 246.079 9.75117 245.806 10.6576C245.533 11.5641 245.097 12.3996 244.523 13.1134C243.95 13.8273 243.251 14.4045 242.47 14.81C241.689 15.2154 240.842 15.4407 239.98 15.4722C239.118 15.5036 238.259 15.3405 237.455 14.9928C236.652 14.645 235.921 14.1199 235.306 13.4494C234.692 12.7789 234.207 11.9769 233.881 11.0923C233.554 10.2077 233.394 9.25886 233.41 8.30352C233.439 6.49662 234.093 4.77114 235.238 3.48366C236.383 2.19618 237.931 1.44511 239.561 1.38568C241.192 1.32624 242.781 1.96298 244 3.1643C245.218 4.36562 245.974 6.0397 246.11 7.84057ZM233.363 172.443C233.287 171.484 233.396 170.519 233.681 169.61C233.967 168.701 234.423 167.869 235.019 167.169C235.616 166.469 236.34 165.917 237.143 165.55C237.946 165.182 238.81 165.007 239.679 165.036C240.514 164.953 241.356 165.066 242.149 165.367C242.942 165.668 243.669 166.151 244.283 166.784C244.896 167.418 245.382 168.187 245.709 169.043C246.036 169.898 246.196 170.82 246.18 171.749C246.482 175.941 243.649 179.207 239.214 179.259C238.434 179.239 237.664 179.049 236.95 178.699C236.236 178.35 235.591 177.848 235.052 177.222C234.513 176.596 234.09 175.859 233.808 175.052C233.527 174.245 233.391 173.385 233.41 172.52L233.363 172.443ZM306.014 238.542C306.056 239.466 305.925 240.39 305.627 241.255C305.329 242.12 304.871 242.907 304.284 243.565C303.696 244.224 302.991 244.739 302.213 245.078C301.436 245.418 300.603 245.574 299.768 245.537C298.471 245.588 297.19 245.207 296.091 244.442C294.992 243.677 294.126 242.564 293.605 241.248C293.084 239.931 292.932 238.472 293.168 237.058C293.405 235.645 294.019 234.342 294.932 233.32C295.844 232.298 297.013 231.603 298.286 231.326C299.56 231.048 300.879 231.2 302.073 231.763C303.268 232.326 304.282 233.273 304.984 234.481C305.687 235.69 306.046 237.104 306.014 238.542ZM240.12 33.7141C240.956 33.6818 241.788 33.846 242.562 34.196C243.337 34.5459 244.035 35.0735 244.612 35.7442C245.189 36.4148 245.631 37.2132 245.909 38.0868C246.188 38.9604 246.296 39.8894 246.226 40.8126C246.313 41.7854 246.204 42.7675 245.906 43.6879C245.609 44.6084 245.131 45.4444 244.507 46.1356C243.883 46.8269 243.129 47.3562 242.298 47.6855C241.467 48.0147 240.58 48.1357 239.702 48.0396C238.824 48.0573 237.952 47.877 237.139 47.5097C236.325 47.1423 235.588 46.5957 234.972 45.903C234.355 45.2103 233.872 44.3859 233.552 43.4801C233.232 42.5742 233.082 41.6057 233.11 40.6334C233.138 39.6611 233.345 38.7054 233.717 37.8243C234.089 36.9432 234.619 36.1551 235.275 35.5079C235.93 34.8608 236.698 34.368 237.531 34.0596C238.364 33.7513 239.245 33.6337 240.12 33.7141ZM262.665 204.695C262.597 203.772 262.704 202.843 262.978 201.968C263.253 201.092 263.689 200.29 264.26 199.613C264.83 198.935 265.522 198.396 266.291 198.032C267.059 197.667 267.889 197.484 268.725 197.494C269.596 197.39 270.478 197.489 271.313 197.784C272.147 198.079 272.917 198.564 273.573 199.209C274.229 199.853 274.756 200.641 275.121 201.524C275.485 202.407 275.679 203.364 275.69 204.335C275.751 205.297 275.632 206.263 275.341 207.172C275.049 208.081 274.592 208.914 273.997 209.619C273.403 210.324 272.683 210.885 271.884 211.268C271.085 211.651 270.223 211.847 269.352 211.845C268.477 211.914 267.6 211.779 266.776 211.448C265.952 211.116 265.2 210.596 264.569 209.922C263.938 209.248 263.443 208.434 263.115 207.533C262.787 206.633 262.633 205.666 262.665 204.695ZM239.516 132.373C241.196 132.384 242.807 133.111 244.014 134.405C245.221 135.698 245.932 137.458 245.998 139.317C246.063 141.176 245.48 142.991 244.367 144.385C243.255 145.779 241.701 146.645 240.027 146.801C239.146 146.927 238.251 146.841 237.403 146.549C236.555 146.257 235.774 145.766 235.113 145.11C234.452 144.453 233.927 143.646 233.572 142.744C233.218 141.842 233.044 140.866 233.061 139.883C233.41 135.382 235.337 132.553 239.516 132.373ZM246.296 73.2187C246.422 74.1888 246.351 75.1779 246.089 76.1138C245.826 77.0497 245.378 77.9089 244.777 78.6285C244.176 79.3481 243.438 79.9101 242.616 80.2735C241.795 80.6368 240.91 80.7924 240.027 80.7287C239.151 80.8686 238.258 80.7902 237.413 80.4991C236.568 80.208 235.793 79.7117 235.143 79.0462C234.493 78.3808 233.986 77.5631 233.658 76.6528C233.33 75.7425 233.19 74.7626 233.247 73.7846C233.085 69.1808 235.406 66.7118 239.725 66.0688C243.556 66.3774 246.18 68.435 246.296 73.2187ZM262.549 8.66358C262.448 7.69513 262.537 6.71393 262.81 5.78721C263.084 4.8605 263.534 4.01016 264.132 3.29446C264.73 2.57876 265.46 2.01461 266.273 1.64065C267.085 1.26669 267.962 1.09177 268.841 1.12787C269.758 1.0204 270.684 1.13646 271.556 1.46791C272.428 1.79936 273.224 2.33815 273.887 3.04647C274.551 3.75479 275.067 4.61546 275.398 5.56806C275.73 6.52067 275.869 7.54212 275.807 8.56071C275.849 9.53143 275.709 10.5014 275.394 11.4086C275.08 12.3159 274.598 13.1407 273.98 13.8303C273.362 14.52 272.621 15.0593 271.804 15.4141C270.987 15.7688 270.112 15.9311 269.236 15.8907C265.103 15.4534 262.618 13.1644 262.549 8.56071V8.66358ZM233.27 106.911C233.213 105.933 233.353 104.953 233.681 104.043C234.009 103.132 234.517 102.315 235.166 101.649C235.816 100.984 236.592 100.487 237.437 100.196C238.281 99.9052 239.174 99.8268 240.05 99.9667C240.933 99.903 241.818 100.059 242.64 100.422C243.461 100.785 244.2 101.347 244.8 102.067C245.401 102.787 245.849 103.646 246.112 104.582C246.375 105.517 246.445 106.507 246.319 107.477C246.18 112.132 243.626 114.292 239.516 114.524C238.626 114.547 237.743 114.356 236.926 113.966C236.108 113.575 235.377 112.994 234.782 112.261C234.186 111.528 233.741 110.661 233.476 109.72C233.211 108.779 233.133 107.786 233.247 106.808L233.27 106.911ZM276.178 40.7354C276.177 42.2514 275.774 43.7337 275.017 44.997C274.261 46.2604 273.185 47.2488 271.924 47.839C270.663 48.4292 269.274 48.5949 267.929 48.3155C266.583 48.0361 265.342 47.3238 264.36 46.2678C263.379 45.2118 262.699 43.8587 262.407 42.3776C262.115 40.8964 262.224 39.3528 262.719 37.9396C263.214 36.5263 264.075 35.306 265.192 34.431C266.31 33.556 267.636 33.0651 269.004 33.0196C270.859 33.0626 272.63 33.8824 273.961 35.314C275.292 36.7456 276.085 38.6828 276.178 40.7354ZM262.247 172.186C262.196 170.216 262.847 168.302 264.059 166.859C265.271 165.415 266.947 164.557 268.725 164.47C269.642 164.411 270.56 164.554 271.427 164.889C272.294 165.225 273.093 165.747 273.777 166.426C274.461 167.105 275.017 167.927 275.413 168.845C275.809 169.763 276.038 170.759 276.085 171.775C276.1 173.82 275.405 175.794 274.143 177.288C272.881 178.781 271.149 179.68 269.305 179.799C268.391 179.813 267.482 179.626 266.633 179.251C265.783 178.876 265.008 178.319 264.353 177.612C263.697 176.905 263.174 176.062 262.813 175.131C262.451 174.2 262.259 173.199 262.247 172.186ZM306.362 205.03C306.314 206.994 305.571 208.86 304.295 210.225C303.019 211.591 301.31 212.348 299.536 212.334C297.688 212.334 295.917 211.521 294.61 210.074C293.304 208.627 292.57 206.664 292.57 204.618C292.624 202.56 293.398 200.605 294.727 199.165C296.057 197.726 297.839 196.915 299.698 196.902C300.627 196.932 301.542 197.167 302.388 197.594C303.234 198.021 303.994 198.631 304.623 199.388C305.253 200.146 305.739 201.035 306.054 202.004C306.369 202.973 306.505 204.001 306.455 205.03H306.362ZM269.004 131.833C270.372 131.833 271.71 132.281 272.851 133.119C273.991 133.957 274.884 135.148 275.416 136.545C275.949 137.941 276.099 139.481 275.847 140.971C275.594 142.461 274.951 143.835 273.998 144.923C273.045 146.011 271.823 146.763 270.486 147.087C269.149 147.41 267.755 147.29 266.48 146.741C265.204 146.193 264.102 145.24 263.312 144.002C262.522 142.764 262.079 141.295 262.038 139.78C262.077 137.725 262.817 135.763 264.109 134.288C265.402 132.814 267.151 131.936 269.004 131.833ZM306.664 8.22636C306.615 10.2826 305.873 12.2442 304.584 13.7247C303.295 15.2051 301.552 16.0972 299.698 16.225C297.766 16.212 295.915 15.3629 294.54 13.8589C293.164 12.3549 292.374 10.3151 292.338 8.17492C292.338 6.08424 293.088 4.07918 294.422 2.60085C295.757 1.12251 297.567 0.291992 299.455 0.291992C301.342 0.291992 303.152 1.12251 304.487 2.60085C305.821 4.07918 306.571 6.08424 306.571 8.17492L306.664 8.22636ZM268.98 65.503C270.389 65.4724 271.774 65.9066 272.96 66.7503C274.145 67.5939 275.078 68.8091 275.638 70.2412C276.199 71.6732 276.362 73.2576 276.108 74.7928C275.853 76.328 275.192 77.7447 274.209 78.8628C273.226 79.9809 271.965 80.75 270.586 81.0721C269.207 81.3943 267.773 81.2551 266.466 80.6721C265.159 80.0892 264.038 79.0888 263.245 77.7983C262.453 76.5078 262.024 74.9853 262.015 73.4245C262.086 71.3836 262.837 69.4442 264.123 67.9811C265.41 66.518 267.14 65.6351 268.98 65.503ZM268.864 99.1951C270.273 99.1343 271.666 99.5391 272.867 100.358C274.067 101.177 275.02 102.373 275.605 103.794C276.19 105.215 276.38 106.797 276.151 108.337C275.922 109.878 275.285 111.309 274.319 112.447C273.354 113.586 272.105 114.38 270.731 114.73C269.357 115.079 267.92 114.968 266.603 114.41C265.286 113.852 264.149 112.873 263.336 111.597C262.523 110.321 262.071 108.806 262.038 107.245C262.083 105.211 262.805 103.267 264.065 101.786C265.324 100.305 267.034 99.3914 268.864 99.2208V99.1951ZM292.385 172.675C292.338 170.542 293.037 168.472 294.334 166.896C295.632 165.319 297.429 164.358 299.35 164.213C300.292 164.183 301.231 164.358 302.112 164.73C302.993 165.101 303.799 165.661 304.484 166.377C305.17 167.094 305.722 167.953 306.107 168.905C306.493 169.858 306.706 170.885 306.734 171.929C306.761 172.973 306.603 174.012 306.267 174.988C305.932 175.964 305.427 176.857 304.78 177.616C304.133 178.376 303.358 178.987 302.498 179.414C301.638 179.842 300.71 180.077 299.768 180.108C297.93 180.082 296.164 179.312 294.804 177.942C293.444 176.573 292.583 174.699 292.385 172.675ZM299.814 32.9168C301.672 32.9505 303.444 33.7918 304.747 35.2593C306.05 36.7268 306.78 38.7028 306.78 40.7611C306.774 42.8925 306.015 44.9366 304.666 46.4557C303.316 47.9748 301.483 48.8481 299.559 48.8884C297.641 48.8034 295.824 47.909 294.481 46.3884C293.139 44.8679 292.372 42.8362 292.338 40.7097C292.428 38.5902 293.259 36.5925 294.654 35.1384C296.049 33.6844 297.899 32.8877 299.814 32.9168ZM306.78 139.806C306.748 141.397 306.292 142.942 305.47 144.247C304.647 145.553 303.495 146.56 302.158 147.142C300.82 147.724 299.358 147.855 297.953 147.52C296.548 147.184 295.265 146.396 294.263 145.254C293.262 144.113 292.587 142.669 292.324 141.104C292.061 139.54 292.221 137.924 292.784 136.459C293.348 134.995 294.289 133.748 295.49 132.874C296.692 132.001 298.099 131.54 299.536 131.55C301.478 131.616 303.323 132.513 304.682 134.052C306.041 135.591 306.809 137.653 306.826 139.806H306.78ZM306.78 73.6817C306.729 75.2877 306.249 76.8408 305.401 78.1446C304.553 79.4485 303.375 80.4446 302.016 81.0071C300.657 81.5696 299.178 81.6732 297.766 81.3048C296.354 80.9364 295.072 80.1126 294.082 78.9374C293.093 77.7623 292.44 76.2885 292.206 74.7025C291.973 73.1165 292.169 71.4893 292.77 70.0267C293.371 68.5642 294.35 67.3318 295.583 66.4854C296.816 65.639 298.248 65.2166 299.698 65.2715C301.649 65.3648 303.49 66.2944 304.833 67.8637C306.176 69.4331 306.916 71.5193 306.896 73.6817H306.78ZM299.652 98.9379C301.103 98.9635 302.514 99.4651 303.708 100.379C304.901 101.293 305.823 102.579 306.357 104.074C306.891 105.568 307.013 107.205 306.707 108.776C306.402 110.347 305.682 111.783 304.64 112.901C303.598 114.02 302.28 114.771 300.853 115.059C299.425 115.348 297.952 115.161 296.621 114.523C295.289 113.884 294.158 112.823 293.371 111.473C292.584 110.122 292.176 108.544 292.199 106.937C292.271 104.796 293.086 102.769 294.475 101.279C295.864 99.7883 297.718 98.9497 299.652 98.9379Z" fill="#12AA8D"/>
</svg>

