<svg width="247" height="504" viewBox="0 0 247 504" fill="none" xmlns="http://www.w3.org/2000/svg">
<path d="M125.795 112.955C122.59 112.569 120.454 110.794 120.454 107.142C120.408 105.625 120.908 104.149 121.844 103.039C122.78 101.93 124.076 101.278 125.446 101.227C126.816 101.176 128.149 101.73 129.15 102.767C130.152 103.804 130.74 105.239 130.787 106.757C130.972 110.409 128.929 112.312 125.795 112.955ZM154.911 134.533C153.679 134.533 152.498 135.075 151.627 136.04C150.756 137.004 150.267 138.313 150.267 139.677C150.267 141.041 150.756 142.35 151.627 143.314C152.498 144.279 153.679 144.821 154.911 144.821C156.142 144.821 157.323 144.279 158.194 143.314C159.065 142.35 159.554 141.041 159.554 139.677C159.554 138.313 159.065 137.004 158.194 136.04C157.323 135.075 156.142 134.533 154.911 134.533ZM65.682 332.134C65.1132 332.097 64.5437 332.193 64.0107 332.416C63.4776 332.639 62.9928 332.983 62.5877 333.427C62.1827 333.871 61.8664 334.404 61.6594 334.992C61.4525 335.58 61.3595 336.21 61.3865 336.84C61.3057 337.51 61.3606 338.192 61.5472 338.836C61.7339 339.479 62.0476 340.069 62.4656 340.561C62.8836 341.054 63.3953 341.437 63.9637 341.683C64.5321 341.929 65.1429 342.032 65.7516 341.984C66.9339 341.984 68.0678 341.464 68.9039 340.538C69.7399 339.612 70.2096 338.356 70.2096 337.046C70.2096 335.736 69.7399 334.48 68.9039 333.554C68.0678 332.628 66.9339 332.108 65.7516 332.108L65.682 332.134ZM154.911 101.998C153.679 101.998 152.498 102.54 151.627 103.505C150.756 104.47 150.267 105.778 150.267 107.142C150.267 108.507 150.756 109.815 151.627 110.78C152.498 111.744 153.679 112.286 154.911 112.286C156.142 112.286 157.323 111.744 158.194 110.78C159.065 109.815 159.554 108.507 159.554 107.142C159.554 105.778 159.065 104.47 158.194 103.505C157.323 102.54 156.142 101.998 154.911 101.998ZM36.8214 374.622C37.3914 374.635 37.9576 374.515 38.483 374.27C39.0085 374.025 39.4815 373.66 39.8713 373.199C40.2611 372.738 40.559 372.192 40.7456 371.595C40.9322 370.998 41.0033 370.364 40.9543 369.735C41.0199 369.049 40.9437 368.354 40.7314 367.705C40.5191 367.056 40.1762 366.469 39.7288 365.988C39.2814 365.508 38.7412 365.146 38.149 364.931C37.5568 364.715 36.9281 364.652 36.3106 364.746C35.689 364.718 35.0691 364.835 34.4903 365.087C33.9115 365.34 33.3866 365.723 32.9489 366.213C32.5112 366.702 32.1703 367.288 31.9479 367.931C31.7256 368.575 31.6266 369.263 31.6573 369.951C31.6881 370.639 31.8479 371.313 32.1265 371.929C32.4051 372.545 32.7965 373.09 33.2757 373.529C33.7549 373.969 34.3115 374.293 34.9099 374.481C35.5084 374.669 36.1356 374.717 36.7517 374.622H36.8214ZM-22.525 397.28C-23.1395 397.261 -23.7502 397.394 -24.3121 397.67C-24.8739 397.947 -25.3726 398.359 -25.7715 398.878C-26.1703 399.396 -26.459 400.007 -26.6165 400.665C-26.7739 401.323 -26.796 402.012 -26.6811 402.681C-26.6841 403.314 -26.5669 403.939 -26.3371 404.518C-26.1073 405.096 -25.77 405.615 -25.3473 406.04C-24.9245 406.464 -24.4258 406.785 -23.8835 406.982C-23.3412 407.179 -22.7676 407.247 -22.1999 407.182C-19.2976 407.182 -17.8813 405.202 -17.6956 402.038C-17.687 401.359 -17.8105 400.686 -18.0577 400.064C-18.3049 399.443 -18.6699 398.888 -19.1281 398.436C-19.5863 397.985 -20.1268 397.648 -20.7129 397.449C-21.2991 397.249 -21.9171 397.192 -22.525 397.28ZM-48.0653 401.936C-48.0494 401.25 -48.1684 400.568 -48.414 399.938C-48.6595 399.308 -49.0258 398.745 -49.4874 398.288C-49.949 397.83 -50.495 397.489 -51.0873 397.289C-51.6797 397.088 -52.3043 397.033 -52.918 397.126C-53.5305 397.11 -54.139 397.24 -54.7021 397.508C-55.2653 397.775 -55.7698 398.174 -56.1817 398.676C-56.5935 399.179 -56.9029 399.774 -57.089 400.42C-57.275 401.067 -57.3333 401.75 -57.2598 402.424C-57.1921 403.788 -56.6379 405.067 -55.7191 405.979C-54.8004 406.89 -53.5923 407.36 -52.3607 407.285C-51.1292 407.21 -49.9749 406.596 -49.152 405.578C-48.329 404.561 -47.9047 403.223 -47.9724 401.858L-48.0653 401.936ZM121.012 238.387C121.012 239.752 121.501 241.06 122.372 242.025C123.243 242.989 124.424 243.531 125.655 243.531C126.887 243.531 128.068 242.989 128.939 242.025C129.81 241.06 130.299 239.752 130.299 238.387C130.299 235.224 128.604 233.501 125.655 233.243C125.046 233.211 124.437 233.319 123.866 233.56C123.296 233.8 122.777 234.169 122.341 234.642C121.905 235.115 121.562 235.683 121.333 236.31C121.104 236.936 120.995 237.609 121.012 238.284V238.387ZM159.438 171.852C159.459 171.223 159.36 170.597 159.149 170.013C158.938 169.43 158.618 168.901 158.211 168.463C157.804 168.024 157.319 167.685 156.787 167.467C156.254 167.249 155.686 167.157 155.119 167.197C154.5 167.124 153.873 167.208 153.287 167.444C152.701 167.679 152.171 168.058 151.737 168.554C151.303 169.05 150.976 169.648 150.782 170.304C150.588 170.96 150.531 171.656 150.615 172.34C150.59 173.029 150.696 173.716 150.924 174.357C151.152 174.998 151.498 175.579 151.94 176.064C152.382 176.549 152.91 176.927 153.491 177.173C154.072 177.419 154.693 177.529 155.314 177.495C155.936 177.461 156.544 177.284 157.1 176.975C157.656 176.667 158.148 176.233 158.545 175.702C158.941 175.171 159.234 174.555 159.404 173.892C159.574 173.229 159.617 172.534 159.531 171.852H159.438ZM95.9124 298.467C95.3443 298.458 94.7807 298.58 94.258 298.827C93.7354 299.074 93.2652 299.439 92.8779 299.9C92.4906 300.36 92.1949 300.906 92.0097 301.501C91.8245 302.096 91.754 302.727 91.8027 303.354C91.7371 304.041 91.8133 304.735 92.0257 305.384C92.238 306.033 92.5808 306.62 93.0282 307.101C93.4756 307.581 94.0158 307.943 94.608 308.158C95.2002 308.374 95.8289 308.437 96.4464 308.343C97.068 308.371 97.6879 308.254 98.2667 308.002C98.8455 307.749 99.3704 307.366 99.8081 306.876C100.246 306.387 100.587 305.801 100.809 305.158C101.031 304.514 101.13 303.826 101.1 303.138C101.069 302.45 100.909 301.776 100.631 301.16C100.352 300.544 99.9605 299.999 99.4813 299.56C99.0021 299.12 98.4456 298.796 97.8471 298.608C97.2486 298.42 96.6214 298.372 96.0053 298.467H95.9124ZM3.36358 434.419C3.32285 434.992 3.38957 435.568 3.55954 436.111C3.72951 436.654 3.99906 437.152 4.35124 437.574C4.70341 437.996 5.13061 438.333 5.60596 438.563C6.08131 438.794 6.59453 438.912 7.11337 438.912C7.63221 438.912 8.14544 438.794 8.62079 438.563C9.09614 438.333 9.52333 437.996 9.87551 437.574C10.2277 437.152 10.4972 436.654 10.6672 436.111C10.8372 435.568 10.9039 434.992 10.8631 434.419C10.7888 433.374 10.3616 432.398 9.66654 431.686C8.97151 430.975 8.05984 430.579 7.11337 430.579C6.16691 430.579 5.25523 430.975 4.5602 431.686C3.86518 432.398 3.43789 433.374 3.36358 434.419V434.419ZM-18.2296 434.908C-18.2174 434.323 -18.3092 433.742 -18.4998 433.197C-18.6904 432.652 -18.976 432.154 -19.3404 431.731C-19.7048 431.308 -20.1407 430.969 -20.6234 430.733C-21.1061 430.497 -21.626 430.369 -22.1535 430.355C-22.681 430.342 -23.2057 430.443 -23.6977 430.655C-24.1897 430.866 -24.6394 431.182 -25.021 431.586C-25.4026 431.989 -25.7087 432.472 -25.9219 433.007C-26.135 433.542 -26.251 434.117 -26.2632 434.702C-26.2698 435.874 -25.8636 437.002 -25.1309 437.848C-24.3981 438.693 -23.3966 439.188 -22.3393 439.228C-21.2778 439.256 -20.2496 438.817 -19.4795 438.007C-18.7094 437.198 -18.26 436.083 -18.2296 434.908V434.908ZM-56.749 434.11C-56.8634 434.739 -56.8494 435.387 -56.708 436.009C-56.5666 436.631 -56.3013 437.209 -55.9317 437.703C-55.5621 438.196 -55.0975 438.591 -54.572 438.86C-54.0465 439.128 -53.4734 439.263 -52.8948 439.254C-52.3671 439.337 -51.8296 439.297 -51.3169 439.136C-50.8042 438.974 -50.3279 438.695 -49.9186 438.317C-49.5094 437.939 -49.1763 437.47 -48.9411 436.94C-48.7058 436.41 -48.5736 435.832 -48.5529 435.242C-48.2278 432.258 -49.8299 430.638 -52.5465 430.098C-53.5701 430.076 -54.5651 430.473 -55.3406 431.214C-56.1161 431.954 -56.6177 432.986 -56.749 434.11V434.11ZM189.367 40.8383C189.317 39.6582 188.847 38.5482 188.059 37.7523C187.271 36.9565 186.23 36.54 185.164 36.5946C184.099 36.6492 183.097 37.1703 182.378 38.0433C181.66 38.9163 181.284 40.0697 181.333 41.2498C181.496 43.8217 183.144 45.2363 185.745 45.4677C186.766 45.3399 187.709 44.7947 188.387 43.9387C189.065 43.0826 189.431 41.9772 189.413 40.8383H189.367ZM185.768 102.564C185.194 102.431 184.601 102.444 184.032 102.603C183.464 102.762 182.936 103.062 182.488 103.481C182.04 103.901 181.684 104.427 181.448 105.022C181.212 105.616 181.101 106.262 181.124 106.911C181.059 107.496 181.105 108.089 181.26 108.653C181.415 109.217 181.675 109.738 182.022 110.184C182.37 110.63 182.798 110.99 183.28 111.242C183.761 111.493 184.284 111.63 184.816 111.643C185.376 111.757 185.952 111.742 186.506 111.598C187.061 111.454 187.583 111.184 188.039 110.806C188.495 110.428 188.876 109.95 189.157 109.401C189.438 108.853 189.614 108.245 189.674 107.618C189.733 106.99 189.675 106.356 189.502 105.754C189.33 105.153 189.047 104.598 188.671 104.123C188.296 103.649 187.836 103.265 187.32 102.997C186.805 102.729 186.244 102.581 185.675 102.564H185.768ZM181.426 8.48355C181.426 9.6295 181.837 10.7285 182.569 11.5388C183.3 12.3491 184.292 12.8044 185.327 12.8044C186.361 12.8044 187.353 12.3491 188.085 11.5388C188.816 10.7285 189.227 9.6295 189.227 8.48355C189.367 5.91163 187.718 4.34276 185.35 3.87982C182.982 4.34276 181.449 5.75732 181.472 8.45783L181.426 8.48355ZM181.217 73.373C181.168 74.0071 181.247 74.6454 181.449 75.2413C181.651 75.8371 181.97 76.3754 182.384 76.8167C182.798 77.258 183.296 77.5912 183.841 77.7919C184.387 77.9927 184.966 78.0558 185.536 77.9768C186.067 77.9964 186.595 77.892 187.088 77.6704C187.58 77.4487 188.024 77.1147 188.392 76.6901C188.76 76.2656 189.043 75.7599 189.223 75.2062C189.403 74.6524 189.476 74.0628 189.436 73.4759C189.436 70.4925 187.741 69.0265 185.141 68.7436C182.842 69.2322 181.263 70.6468 181.263 73.3473L181.217 73.373ZM36.5428 397.692C36.0153 397.702 35.4948 397.827 35.0109 398.06C34.5271 398.293 34.0894 398.629 33.7229 399.05C33.3564 399.47 33.0682 399.966 32.8747 400.51C32.6813 401.054 32.5865 401.634 32.5956 402.218C32.6048 402.803 32.7177 403.379 32.9281 403.915C33.1384 404.451 33.4419 404.936 33.8214 405.342C34.2009 405.748 34.6488 406.067 35.1396 406.282C35.6305 406.496 36.1546 406.601 36.6821 406.591C37.7393 406.557 38.7419 406.063 39.4722 405.215C40.2025 404.368 40.6016 403.236 40.5828 402.064C40.5527 400.897 40.1145 399.789 39.3608 398.973C38.607 398.158 37.5966 397.698 36.5428 397.692V397.692ZM2.92244 401.961C2.94882 403.144 3.38105 404.272 4.13122 405.115C4.8814 405.958 5.8932 406.452 6.96084 406.498C8.02849 406.544 9.07182 406.138 9.87866 405.362C10.6855 404.586 11.1953 403.499 11.3043 402.321C11.3629 401.688 11.3038 401.049 11.1306 400.442C10.9574 399.836 10.6738 399.275 10.2973 398.795C9.92076 398.314 9.45935 397.924 8.94153 397.649C8.42371 397.374 7.86046 397.219 7.28655 397.195C6.71265 397.17 6.14028 397.276 5.60477 397.506C5.06926 397.736 4.58198 398.085 4.17302 398.532C3.76406 398.978 3.44209 399.513 3.227 400.103C3.01191 400.693 2.90825 401.325 2.92244 401.961V401.961ZM121.499 302.917C121.379 303.552 121.391 304.21 121.534 304.839C121.677 305.469 121.949 306.054 122.327 306.55C122.705 307.046 123.181 307.44 123.717 307.702C124.254 307.963 124.837 308.086 125.423 308.061C125.951 308.133 126.487 308.081 126.996 307.91C127.505 307.739 127.976 307.451 128.378 307.066C128.781 306.68 129.106 306.206 129.333 305.673C129.56 305.14 129.683 304.56 129.695 303.971C129.798 303.351 129.784 302.713 129.654 302.099C129.524 301.484 129.281 300.906 128.94 300.401C128.599 299.896 128.167 299.474 127.671 299.162C127.176 298.851 126.628 298.656 126.061 298.59C125.495 298.524 124.922 298.589 124.379 298.78C123.836 298.971 123.335 299.285 122.906 299.701C122.478 300.116 122.132 300.626 121.89 301.197C121.647 301.768 121.515 302.389 121.499 303.02V302.917ZM159.229 204.721C159.295 204.095 159.236 203.461 159.056 202.863C158.876 202.265 158.579 201.718 158.187 201.262C157.795 200.805 157.316 200.45 156.786 200.221C156.256 199.992 155.687 199.895 155.119 199.937C154.513 199.837 153.894 199.896 153.312 200.109C152.73 200.322 152.202 200.683 151.768 201.163C151.335 201.643 151.009 202.229 150.817 202.874C150.625 203.518 150.571 204.204 150.662 204.875C150.68 206.13 151.148 207.326 151.962 208.199C152.776 209.072 153.87 209.551 155.003 209.53C156.136 209.51 157.216 208.992 158.004 208.09C158.792 207.188 159.224 205.976 159.206 204.721H159.229ZM185.721 208.965C186.756 208.893 187.722 208.369 188.408 207.508C189.094 206.647 189.443 205.52 189.378 204.374C189.314 203.228 188.841 202.157 188.063 201.397C187.286 200.638 186.268 200.251 185.234 200.323C184.709 200.34 184.193 200.471 183.714 200.708C183.235 200.946 182.804 201.286 182.443 201.709C182.083 202.132 181.802 202.629 181.615 203.172C181.429 203.716 181.341 204.294 181.356 204.875C181.96 207.499 183.33 209.299 185.745 208.99L185.721 208.965ZM181.333 139.317C181.299 140.497 181.69 141.644 182.419 142.505C183.149 143.366 184.157 143.87 185.222 143.908C186.288 143.945 187.323 143.513 188.1 142.705C188.877 141.897 189.333 140.78 189.367 139.6C189.367 137.028 187.811 135.511 185.466 135.048C184.416 135.04 183.404 135.483 182.642 136.283C181.88 137.084 181.428 138.181 181.38 139.343L181.333 139.317ZM100.324 337.355C100.402 336.722 100.351 336.077 100.175 335.469C99.9984 334.86 99.7008 334.303 99.3042 333.839C98.9075 333.375 98.4219 333.016 97.8831 332.787C97.3443 332.559 96.766 332.467 96.191 332.52C95.6613 332.472 95.1286 332.549 94.6275 332.745C94.1264 332.941 93.6682 333.252 93.2827 333.657C92.8972 334.062 92.5931 334.553 92.3901 335.097C92.1871 335.641 92.0898 336.226 92.1046 336.815C91.9653 339.798 93.637 341.341 96.191 341.753C96.7266 341.77 97.2599 341.669 97.7603 341.457C98.2607 341.245 98.7183 340.926 99.1067 340.517C99.4951 340.108 99.8067 339.618 100.024 339.076C100.24 338.533 100.358 337.948 100.37 337.355H100.324ZM121.824 336.712C121.749 337.286 121.789 337.872 121.94 338.427C122.092 338.982 122.352 339.494 122.702 339.926C123.052 340.358 123.483 340.699 123.966 340.926C124.448 341.153 124.969 341.259 125.493 341.238C125.971 341.284 126.453 341.221 126.909 341.053C127.365 340.885 127.785 340.616 128.144 340.262C128.502 339.908 128.792 339.477 128.995 338.995C129.198 338.513 129.31 337.989 129.324 337.458C129.51 334.886 128 333.291 125.655 332.854C124.702 332.85 123.782 333.246 123.08 333.961C122.379 334.676 121.947 335.659 121.871 336.712H121.824ZM154.911 266.524C153.876 266.49 152.872 266.913 152.118 267.699C151.365 268.485 150.925 269.57 150.894 270.716C150.863 271.862 151.244 272.975 151.954 273.809C152.664 274.644 153.644 275.132 154.678 275.166C157 275.371 158.463 273.571 158.951 270.742C158.87 269.62 158.418 268.571 157.681 267.796C156.943 267.022 155.973 266.578 154.957 266.55L154.911 266.524ZM121.29 270.536C121.269 271.158 121.358 271.778 121.553 272.361C121.748 272.944 122.045 273.479 122.427 273.935C122.808 274.391 123.267 274.76 123.777 275.02C124.287 275.279 124.839 275.425 125.4 275.449C125.961 275.472 126.521 275.373 127.047 275.157C127.574 274.941 128.057 274.613 128.468 274.19C128.88 273.767 129.213 273.259 129.447 272.694C129.682 272.129 129.813 271.518 129.835 270.896C129.835 267.939 128.325 266.421 125.493 266.01C124.949 266.003 124.41 266.116 123.906 266.341C123.402 266.567 122.943 266.901 122.557 267.325C122.17 267.748 121.863 268.252 121.654 268.808C121.444 269.364 121.337 269.96 121.337 270.562L121.29 270.536ZM69.9542 369.709C70.0097 369.076 69.9368 368.437 69.7408 367.839C69.5447 367.241 69.2304 366.699 68.8209 366.253C68.4113 365.806 67.917 365.467 67.3739 365.26C66.8308 365.053 66.2527 364.982 65.682 365.054C65.1513 365.028 64.6216 365.125 64.1272 365.341C63.6328 365.556 63.185 365.884 62.8126 366.304C62.4403 366.724 62.1519 367.225 61.9662 367.777C61.7805 368.328 61.7017 368.916 61.7348 369.504C61.7348 372.487 63.4065 373.979 65.9838 374.262C68.3753 373.825 69.9542 372.41 69.9542 369.709ZM96.4929 365.44C95.966 365.358 95.4293 365.408 94.9219 365.585C94.4145 365.762 93.9492 366.063 93.5599 366.464C93.1706 366.866 92.8671 367.359 92.6716 367.907C92.4761 368.455 92.3934 369.044 92.4296 369.632C92.3978 370.163 92.4649 370.696 92.6268 371.198C92.7887 371.699 93.0419 372.158 93.3707 372.546C93.6995 372.935 94.0968 373.244 94.5381 373.455C94.9793 373.666 95.455 373.774 95.9356 373.773C98.2575 373.902 99.6506 372.204 100.022 369.555C99.9958 368.51 99.6202 367.513 98.9682 366.758C98.3161 366.002 97.434 365.542 96.4929 365.466V365.44ZM155.282 233.784C154.711 233.686 154.128 233.731 153.576 233.917C153.023 234.102 152.515 234.423 152.089 234.855C151.664 235.287 151.331 235.82 151.116 236.413C150.901 237.007 150.809 237.646 150.847 238.284C150.788 238.876 150.843 239.475 151.008 240.041C151.173 240.607 151.444 241.129 151.803 241.571C152.163 242.013 152.603 242.366 153.095 242.606C153.586 242.847 154.118 242.969 154.655 242.965C157.348 243.171 158.765 241.345 159.183 238.542C159.211 237.946 159.132 237.351 158.95 236.789C158.769 236.228 158.489 235.712 158.126 235.272C157.763 234.832 157.325 234.476 156.836 234.225C156.348 233.974 155.82 233.832 155.282 233.809V233.784ZM185.745 167.685C185.217 167.65 184.689 167.73 184.189 167.921C183.689 168.111 183.229 168.409 182.833 168.798C182.437 169.186 182.115 169.656 181.883 170.182C181.652 170.709 181.516 171.28 181.484 171.865C181.452 172.449 181.524 173.035 181.697 173.588C181.869 174.141 182.138 174.652 182.488 175.09C182.839 175.528 183.263 175.886 183.738 176.142C184.214 176.398 184.73 176.549 185.257 176.584C187.579 176.738 188.972 174.964 189.483 172.418C189.541 171.249 189.185 170.1 188.492 169.217C187.798 168.333 186.821 167.784 185.768 167.685H185.745ZM66.0302 431.281C65.601 431.212 65.1633 431.253 64.7503 431.399C64.3373 431.546 63.9599 431.795 63.6466 432.127C63.3333 432.459 63.0924 432.866 62.9422 433.316C62.792 433.767 62.7364 434.25 62.7797 434.728C62.7539 435.158 62.809 435.589 62.9415 435.994C63.0741 436.399 63.2811 436.769 63.5496 437.081C63.8181 437.393 64.1421 437.64 64.5012 437.806C64.8603 437.972 65.2465 438.053 65.6355 438.045C67.6787 438.045 68.7004 436.785 68.9325 434.65C68.7236 432.67 67.7948 431.358 66.0302 431.281ZM33.1993 434.496C33.1309 434.97 33.1577 435.456 33.2779 435.917C33.3981 436.379 33.6087 436.805 33.8947 437.166C34.1808 437.527 34.5352 437.814 34.9327 438.006C35.3302 438.198 35.761 438.29 36.1945 438.277C36.8511 438.343 37.5106 438.19 38.0877 437.837C38.6649 437.484 39.1332 436.947 39.4322 436.296C39.7313 435.645 39.8472 434.91 39.7652 434.185C39.6831 433.461 39.4068 432.78 38.9719 432.231C38.537 431.682 37.9635 431.29 37.3255 431.106C36.6875 430.921 36.0143 430.953 35.3928 431.197C34.7714 431.441 34.2302 431.886 33.8391 432.474C33.4481 433.062 33.2253 433.766 33.1993 434.496V434.496ZM188.763 238.722C188.854 238.195 188.834 237.652 188.705 237.135C188.575 236.619 188.339 236.142 188.015 235.744C187.691 235.345 187.288 235.035 186.838 234.837C186.387 234.64 185.902 234.561 185.42 234.607C184.983 234.544 184.54 234.586 184.12 234.73C183.699 234.873 183.312 235.116 182.984 235.44C182.655 235.765 182.394 236.164 182.217 236.61C182.041 237.057 181.953 237.54 181.96 238.027C181.798 240.599 182.982 241.988 185.582 242.219C186.001 242.226 186.416 242.141 186.805 241.968C187.193 241.795 187.547 241.539 187.845 241.213C188.143 240.888 188.38 240.5 188.542 240.072C188.703 239.644 188.786 239.185 188.786 238.722H188.763ZM217.647 238.233C217.558 237.423 217.196 236.68 216.634 236.153C216.072 235.625 215.351 235.352 214.615 235.388C213.879 235.424 213.182 235.766 212.664 236.346C212.146 236.925 211.844 237.7 211.819 238.516C211.849 239.375 212.182 240.188 212.746 240.779C213.31 241.37 214.061 241.693 214.837 241.679C216.579 241.242 217.809 240.188 217.67 238.207L217.647 238.233ZM214.628 175.684C215.02 175.745 215.419 175.716 215.8 175.597C216.18 175.479 216.535 175.274 216.84 174.996C217.146 174.718 217.396 174.373 217.575 173.982C217.754 173.591 217.857 173.164 217.879 172.726C217.988 172.252 217.998 171.757 217.91 171.279C217.821 170.8 217.636 170.349 217.368 169.961C217.1 169.572 216.756 169.256 216.362 169.036C215.968 168.815 215.534 168.697 215.093 168.688C214.656 168.605 214.208 168.625 213.778 168.745C213.348 168.865 212.945 169.084 212.596 169.386C212.247 169.689 211.958 170.069 211.75 170.503C211.541 170.936 211.416 171.413 211.384 171.903C211.351 172.393 211.411 172.885 211.561 173.347C211.71 173.81 211.945 174.233 212.251 174.589C212.556 174.945 212.925 175.226 213.335 175.415C213.744 175.603 214.185 175.695 214.628 175.684V175.684ZM217.995 41.3269C218.087 40.8574 218.085 40.3713 217.989 39.9027C217.893 39.4342 217.706 38.9945 217.441 38.6146C217.175 38.2347 216.838 37.9238 216.452 37.7037C216.067 37.4836 215.642 37.3596 215.209 37.3405C214.769 37.264 214.319 37.2872 213.887 37.4087C213.455 37.5302 213.049 37.7475 212.695 38.0475C212.341 38.3474 212.046 38.7238 211.827 39.1538C211.608 39.5839 211.47 40.0586 211.421 40.5494C211.372 41.0402 211.414 41.5369 211.543 42.0094C211.673 42.4818 211.887 42.9203 212.174 43.2983C212.461 43.6763 212.814 43.9859 213.212 44.2085C213.61 44.4311 214.044 44.562 214.489 44.5933C214.924 44.6714 215.368 44.6442 215.792 44.5136C216.216 44.3829 216.609 44.1519 216.945 43.8364C217.28 43.521 217.55 43.1287 217.735 42.6865C217.921 42.2444 218.017 41.763 218.018 41.2755L217.995 41.3269ZM217.809 204.747C217.852 204.271 217.797 203.791 217.648 203.343C217.499 202.894 217.26 202.489 216.949 202.157C216.639 201.826 216.265 201.576 215.855 201.428C215.444 201.279 215.009 201.236 214.582 201.3C214.193 201.289 213.806 201.367 213.446 201.53C213.086 201.693 212.76 201.936 212.49 202.246C212.219 202.555 212.009 202.924 211.874 203.328C211.738 203.731 211.68 204.162 211.703 204.592C211.703 206.856 212.957 207.961 214.907 208.116C215.691 208.082 216.433 207.712 216.975 207.083C217.517 206.454 217.816 205.616 217.809 204.747V204.747ZM-52.175 464.51C-52.6462 464.426 -53.1282 464.453 -53.5896 464.588C-54.051 464.723 -54.4817 464.964 -54.8539 465.295C-55.2261 465.626 -55.5314 466.04 -55.7502 466.51C-55.969 466.98 -56.0963 467.496 -56.1241 468.023C-56.1518 468.551 -56.0793 469.08 -55.9112 469.574C-55.7431 470.069 -55.4832 470.52 -55.1483 470.896C-54.8133 471.273 -54.4108 471.568 -53.9666 471.761C-53.5224 471.955 -53.0466 472.043 -52.5697 472.02C-50.5265 472.02 -49.3888 470.734 -49.1798 468.24C-49.158 467.779 -49.2191 467.319 -49.3595 466.885C-49.5 466.451 -49.7171 466.053 -49.998 465.713C-50.279 465.373 -50.6182 465.098 -50.996 464.905C-51.3737 464.712 -51.7824 464.604 -52.1982 464.587L-52.175 464.51ZM-22.3857 464.742C-22.7802 464.72 -23.1745 464.79 -23.5437 464.945C-23.9128 465.101 -24.2487 465.34 -24.5302 465.647C-24.8117 465.954 -25.0326 466.322 -25.1791 466.729C-25.3255 467.135 -25.3942 467.571 -25.3809 468.008C-25.4715 468.494 -25.4594 468.996 -25.3456 469.476C-25.2317 469.956 -25.0192 470.4 -24.7246 470.773C-24.4301 471.147 -24.0614 471.44 -23.6476 471.63C-23.2338 471.819 -22.786 471.9 -22.3393 471.866C-20.2496 471.866 -19.1815 470.606 -19.019 468.06C-19.032 467.595 -19.1324 467.138 -19.3138 466.718C-19.4953 466.298 -19.7539 465.925 -20.0729 465.623C-20.392 465.32 -20.7646 465.095 -21.1668 464.961C-21.569 464.827 -21.9921 464.787 -22.4089 464.845L-22.3857 464.742ZM10.1202 468.471C10.1823 467.996 10.1458 467.511 10.0135 467.053C9.88129 466.596 9.65671 466.178 9.35685 465.831C9.05699 465.484 8.68972 465.217 8.28289 465.05C7.87607 464.884 7.44039 464.822 7.00888 464.87C6.62068 464.842 6.23135 464.903 5.86556 465.05C5.49977 465.197 5.1655 465.426 4.88392 465.723C4.60234 466.021 4.3796 466.38 4.2298 466.777C4.08001 467.175 4.00641 467.603 4.0137 468.034C3.94789 468.523 3.9809 469.022 4.11036 469.496C4.23981 469.969 4.46248 470.405 4.76231 470.772C5.06215 471.138 5.43168 471.426 5.84426 471.616C6.25684 471.805 6.70218 471.89 7.1482 471.866C8.84315 471.532 10.0969 470.503 10.1666 468.548L10.1202 468.471ZM214.977 69.8238C214.55 69.7297 214.111 69.7402 213.689 69.8548C213.267 69.9693 212.872 70.1849 212.534 70.4866C212.195 70.7882 211.92 71.1684 211.728 71.6005C211.537 72.0326 211.433 72.5059 211.424 72.9873C211.315 73.5041 211.319 74.0423 211.435 74.5573C211.551 75.0723 211.776 75.5494 212.091 75.949C212.406 76.3486 212.803 76.6593 213.248 76.8554C213.694 77.0514 214.175 77.1273 214.652 77.0766C216.695 77.0766 217.786 75.8678 217.995 73.3216C218.02 72.872 217.963 72.4213 217.827 71.9968C217.691 71.5722 217.479 71.1825 217.203 70.851C216.928 70.5195 216.595 70.2531 216.224 70.0677C215.854 69.8824 215.453 69.7819 215.046 69.7724L214.977 69.8238ZM214.977 103.516C214.557 103.43 214.125 103.446 213.712 103.563C213.298 103.681 212.912 103.896 212.581 104.194C212.25 104.492 211.981 104.867 211.794 105.292C211.606 105.716 211.504 106.181 211.494 106.654C211.421 107.38 211.546 108.114 211.853 108.761C212.161 109.408 212.636 109.938 213.219 110.282C213.801 110.626 214.463 110.768 215.119 110.691C215.775 110.614 216.396 110.32 216.899 109.848C217.403 109.376 217.768 108.748 217.946 108.044C218.123 107.34 218.106 106.593 217.897 105.9C217.687 105.206 217.295 104.599 216.77 104.156C216.245 103.712 215.612 103.454 214.953 103.413L214.977 103.516ZM217.949 8.35495C217.978 7.9183 217.924 7.47974 217.792 7.06704C217.66 6.65433 217.453 6.27647 217.182 5.95735C216.911 5.63824 216.584 5.38483 216.22 5.21316C215.857 5.04148 215.465 4.95529 215.07 4.96002C214.638 4.87 214.194 4.88944 213.771 5.01688C213.348 5.14432 212.956 5.37644 212.625 5.69579C212.294 6.01513 212.033 6.41339 211.861 6.86061C211.69 7.30783 211.612 7.79237 211.633 8.2778C211.633 10.5925 212.701 11.8013 215.046 12.0328C215.456 11.9983 215.856 11.8714 216.22 11.6599C216.584 11.4484 216.905 11.1566 217.164 10.8026C217.423 10.4486 217.613 10.0397 217.724 9.60114C217.835 9.16256 217.864 8.70348 217.809 8.25208L217.949 8.35495ZM151.939 336.609C151.848 337.075 151.854 337.559 151.954 338.023C152.055 338.487 152.248 338.92 152.52 339.29C152.792 339.66 153.135 339.958 153.525 340.162C153.914 340.365 154.34 340.47 154.771 340.467C155.158 340.532 155.554 340.507 155.932 340.393C156.309 340.279 156.662 340.078 156.966 339.805C157.269 339.531 157.518 339.19 157.696 338.804C157.874 338.417 157.977 337.994 157.999 337.56C158.076 337.11 158.07 336.647 157.982 336.2C157.893 335.752 157.724 335.329 157.484 334.956C157.244 334.583 156.938 334.267 156.585 334.029C156.232 333.79 155.839 333.633 155.429 333.567C155.02 333.501 154.603 333.527 154.203 333.644C153.803 333.762 153.429 333.968 153.103 334.249C152.776 334.531 152.505 334.883 152.305 335.284C152.105 335.685 151.98 336.127 151.939 336.583V336.609ZM188.299 303.56C188.274 302.744 187.972 301.969 187.454 301.389C186.935 300.809 186.239 300.468 185.503 300.432C184.767 300.396 184.046 300.669 183.484 301.197C182.922 301.724 182.56 302.467 182.471 303.277C182.471 305.257 183.562 306.312 185.28 306.723C186.061 306.737 186.815 306.41 187.379 305.814C187.944 305.217 188.274 304.398 188.299 303.534V303.56ZM155.421 299.548C154.964 299.526 154.507 299.604 154.077 299.777C153.647 299.951 153.252 300.217 152.914 300.559C152.577 300.902 152.304 301.315 152.111 301.775C151.917 302.234 151.807 302.732 151.788 303.238C151.768 303.745 151.838 304.251 151.995 304.727C152.152 305.204 152.392 305.641 152.701 306.015C153.01 306.389 153.383 306.691 153.798 306.906C154.213 307.12 154.662 307.241 155.119 307.263C157.163 307.263 158.277 305.952 158.509 303.457C158.565 302.97 158.527 302.475 158.398 302.006C158.268 301.536 158.051 301.103 157.759 300.733C157.467 300.364 157.108 300.067 156.705 299.863C156.302 299.658 155.864 299.551 155.421 299.548ZM125.725 366.006C125.333 365.945 124.935 365.974 124.554 366.093C124.173 366.211 123.819 366.416 123.513 366.694C123.208 366.972 122.957 367.317 122.779 367.708C122.6 368.099 122.496 368.526 122.474 368.964C122.366 369.437 122.355 369.932 122.444 370.411C122.532 370.89 122.717 371.341 122.985 371.729C123.254 372.118 123.597 372.434 123.991 372.654C124.385 372.875 124.819 372.993 125.261 373.001C125.698 373.084 126.146 373.065 126.576 372.945C127.006 372.825 127.408 372.606 127.757 372.304C128.107 372.001 128.395 371.621 128.604 371.187C128.813 370.754 128.937 370.277 128.97 369.787C129.002 369.297 128.942 368.805 128.793 368.342C128.643 367.88 128.408 367.457 128.103 367.101C127.797 366.745 127.428 366.463 127.018 366.275C126.609 366.086 126.168 365.995 125.725 366.006ZM69.2112 402.424C69.3026 401.898 69.2826 401.355 69.1527 400.838C69.0229 400.321 68.7868 399.845 68.4629 399.446C68.139 399.047 67.7361 398.737 67.2858 398.54C66.8356 398.343 66.3502 398.264 65.8677 398.309C65.4314 398.246 64.988 398.288 64.5677 398.432C64.1473 398.576 63.7599 398.819 63.4317 399.143C63.1035 399.468 62.8422 399.867 62.6655 400.313C62.4889 400.759 62.4011 401.243 62.4082 401.73C62.2456 404.302 63.4298 405.691 66.0302 405.922C66.4469 405.925 66.86 405.837 67.2458 405.663C67.6316 405.489 67.9824 405.232 68.2781 404.907C68.5738 404.582 68.8085 404.195 68.9686 403.769C69.1287 403.343 69.2112 402.886 69.2112 402.424V402.424ZM95.9356 398.566C95.5404 398.562 95.1486 398.648 94.785 398.819C94.4213 398.991 94.0939 399.245 93.8232 399.564C93.5526 399.883 93.3447 400.261 93.2128 400.673C93.0808 401.086 93.0276 401.525 93.0565 401.961C93.001 402.444 93.0453 402.935 93.186 403.396C93.3266 403.858 93.5601 404.277 93.8687 404.624C94.1772 404.971 94.5529 405.236 94.9672 405.398C95.3816 405.56 95.8239 405.617 96.2607 405.562C98.3736 405.562 99.3487 404.147 99.4416 401.884C99.4335 401.407 99.3332 400.937 99.1475 400.506C98.9619 400.076 98.6951 399.694 98.3652 399.387C98.0352 399.08 97.6497 398.855 97.2347 398.727C96.8196 398.598 96.3846 398.57 95.9588 398.643L95.9356 398.566ZM182.239 271.256C182.243 271.695 182.33 272.127 182.493 272.527C182.657 272.926 182.893 273.283 183.188 273.576C183.483 273.868 183.829 274.09 184.205 274.226C184.582 274.363 184.979 274.411 185.373 274.368C185.81 274.42 186.252 274.36 186.666 274.194C187.079 274.028 187.453 273.761 187.759 273.412C188.066 273.062 188.296 272.641 188.434 272.178C188.572 271.716 188.613 271.225 188.554 270.742C188.554 268.402 187.207 267.347 185.164 267.296C184.724 267.302 184.291 267.415 183.894 267.627C183.498 267.839 183.148 268.144 182.869 268.522C182.59 268.899 182.389 269.339 182.281 269.812C182.172 270.284 182.157 270.777 182.239 271.256V271.256ZM218.042 139.497C218.078 139.02 218.019 138.54 217.868 138.09C217.718 137.641 217.481 137.234 217.173 136.898C216.865 136.562 216.494 136.305 216.086 136.145C215.679 135.985 215.244 135.927 214.814 135.974C214.327 135.903 213.833 135.966 213.373 136.155C212.913 136.345 212.501 136.656 212.174 137.061C211.847 137.466 211.614 137.954 211.496 138.482C211.377 139.009 211.377 139.561 211.494 140.089C211.633 142.352 212.957 143.355 215.162 143.381C215.586 143.357 216.001 143.235 216.379 143.024C216.758 142.812 217.092 142.515 217.361 142.152C217.63 141.789 217.828 141.367 217.941 140.914C218.054 140.462 218.08 139.988 218.018 139.523L218.042 139.497ZM243.953 76.3565C244.326 76.395 244.703 76.3468 245.058 76.215C245.413 76.0832 245.74 75.8708 246.017 75.5912C246.294 75.3116 246.515 74.971 246.667 74.5913C246.818 74.2116 246.896 73.801 246.896 73.3859C246.896 72.9708 246.818 72.5602 246.667 72.1805C246.515 71.8008 246.294 71.4602 246.017 71.1806C245.74 70.901 245.413 70.6886 245.058 70.5568C244.703 70.425 244.326 70.3768 243.953 70.4153C243.255 70.4286 242.589 70.7417 242.095 71.2887C241.601 71.8357 241.318 72.5738 241.306 73.3473C241.306 74.1372 241.581 74.8968 242.074 75.4673C242.568 76.0377 243.241 76.3747 243.953 76.4079V76.3565ZM36.7053 465.359C36.338 465.306 35.9647 465.337 35.6087 465.451C35.2528 465.565 34.9219 465.759 34.6367 466.02C34.3515 466.282 34.1181 466.607 33.9512 466.973C33.7843 467.339 33.6874 467.74 33.6666 468.15C33.6457 468.559 33.7015 468.969 33.8302 469.354C33.959 469.739 34.158 470.09 34.4149 470.386C34.6718 470.682 34.981 470.915 35.3231 471.073C35.6653 471.23 36.0331 471.307 36.4035 471.3C37.9591 471.3 38.8414 470.169 39.2129 468.24C39.1545 467.515 38.8739 466.833 38.4177 466.309C37.9616 465.785 37.3573 465.45 36.7053 465.359ZM155.282 366.623C154.921 366.573 154.555 366.604 154.206 366.714C153.856 366.825 153.53 367.012 153.248 367.266C152.965 367.52 152.732 367.834 152.563 368.19C152.393 368.547 152.29 368.937 152.26 369.338C152.231 369.74 152.274 370.144 152.389 370.526C152.504 370.908 152.688 371.26 152.929 371.562C153.17 371.863 153.464 372.107 153.792 372.28C154.121 372.452 154.478 372.549 154.841 372.564C156.42 372.719 157.302 371.484 157.674 369.812C157.704 369.057 157.482 368.316 157.049 367.732C156.616 367.148 156.003 366.762 155.328 366.649L155.282 366.623ZM125.864 399.132C125.498 399.079 125.125 399.109 124.77 399.222C124.414 399.335 124.084 399.528 123.799 399.788C123.514 400.049 123.28 400.372 123.112 400.737C122.944 401.102 122.846 401.501 122.824 401.91C122.802 402.318 122.855 402.728 122.982 403.112C123.109 403.497 123.306 403.849 123.56 404.146C123.815 404.442 124.122 404.678 124.463 404.838C124.803 404.997 125.17 405.077 125.539 405.073C127.095 405.073 127.977 403.942 128.372 402.013C128.307 401.301 128.029 400.635 127.583 400.118C127.138 399.601 126.549 399.263 125.911 399.158L125.864 399.132ZM244.394 104.082C244.027 104.028 243.654 104.06 243.298 104.174C242.942 104.287 242.611 104.481 242.326 104.743C242.041 105.005 241.807 105.329 241.64 105.696C241.473 106.062 241.377 106.463 241.356 106.872C241.335 107.282 241.391 107.692 241.519 108.077C241.648 108.462 241.847 108.813 242.104 109.109C242.361 109.404 242.67 109.638 243.012 109.795C243.354 109.953 243.722 110.03 244.093 110.023C245.648 110.023 246.531 108.891 246.856 107.168C246.871 106.405 246.626 105.664 246.17 105.092C245.714 104.52 245.08 104.159 244.394 104.082V104.082ZM-52.5 497.868C-52.8732 497.83 -53.2495 497.878 -53.6048 498.01C-53.9602 498.141 -54.2869 498.354 -54.5639 498.633C-54.8409 498.913 -55.0622 499.254 -55.2136 499.633C-55.365 500.013 -55.4432 500.424 -55.4432 500.839C-55.4432 501.254 -55.365 501.664 -55.2136 502.044C-55.0622 502.424 -54.8409 502.764 -54.5639 503.044C-54.2869 503.324 -53.9602 503.536 -53.6048 503.668C-53.2495 503.8 -52.8732 503.848 -52.5 503.809C-50.9676 503.809 -50.1782 502.6 -49.8299 500.671C-49.9054 499.931 -50.2147 499.243 -50.7032 498.73C-51.1917 498.217 -51.8281 497.912 -52.5 497.868V497.868ZM185.745 334.551C185.407 334.452 185.053 334.445 184.713 334.533C184.373 334.62 184.057 334.798 183.793 335.052C183.53 335.306 183.327 335.628 183.201 335.989C183.076 336.35 183.032 336.739 183.075 337.123C183.036 337.458 183.065 337.798 183.159 338.118C183.253 338.439 183.41 338.733 183.619 338.979C183.827 339.224 184.082 339.416 184.366 339.54C184.649 339.664 184.953 339.717 185.257 339.695C185.546 339.727 185.837 339.693 186.114 339.594C186.39 339.496 186.645 339.336 186.863 339.123C187.081 338.911 187.257 338.651 187.38 338.36C187.503 338.069 187.571 337.753 187.579 337.432C187.625 335.837 187.184 334.731 185.768 334.551H185.745ZM96.4 432.104C96.1112 432.06 95.8173 432.085 95.5379 432.177C95.2585 432.269 95.0002 432.427 94.7803 432.639C94.5603 432.851 94.3839 433.112 94.2628 433.406C94.1417 433.7 94.0787 434.019 94.0781 434.342C94.0169 434.859 94.0993 435.385 94.3144 435.85C94.5295 436.314 94.8671 436.695 95.2823 436.942C95.6976 437.189 96.1708 437.29 96.6391 437.232C97.1075 437.174 97.5487 436.959 97.9043 436.616C98.2598 436.274 98.5128 435.819 98.6297 435.314C98.7465 434.808 98.7216 434.275 98.5584 433.785C98.3951 433.295 98.1012 432.872 97.7157 432.572C97.3301 432.272 96.8712 432.109 96.4 432.104ZM214.977 268.324C214.682 268.253 214.378 268.253 214.083 268.326C213.789 268.399 213.513 268.542 213.274 268.745C213.035 268.949 212.84 269.207 212.7 269.503C212.561 269.799 212.482 270.126 212.469 270.459C212.379 270.833 212.373 271.225 212.452 271.602C212.531 271.979 212.692 272.329 212.921 272.621C213.151 272.912 213.441 273.138 213.767 273.276C214.093 273.415 214.444 273.463 214.791 273.417C216.207 273.417 216.95 272.542 217.113 270.665C217.113 270.355 217.057 270.049 216.95 269.763C216.842 269.478 216.684 269.218 216.486 269.001C216.287 268.783 216.051 268.611 215.792 268.495C215.533 268.379 215.256 268.321 214.977 268.324V268.324ZM243.837 5.98879C243.583 5.99532 243.333 6.05814 243.101 6.17355C242.869 6.28896 242.66 6.45462 242.487 6.66076C242.314 6.86691 242.18 7.10937 242.093 7.37383C242.006 7.6383 241.967 7.91943 241.98 8.20064C241.914 8.53554 241.921 8.88315 242.002 9.21405C242.083 9.54496 242.235 9.84942 242.444 10.1017C242.654 10.354 242.915 10.5467 243.206 10.6634C243.497 10.7802 243.809 10.8176 244.116 10.7726C244.409 10.8018 244.704 10.7581 244.98 10.6445C245.256 10.5309 245.506 10.3504 245.711 10.1161C245.916 9.88182 246.07 9.59976 246.164 9.29058C246.258 8.9814 246.288 8.65293 246.252 8.32924C246.269 7.98833 246.215 7.64771 246.094 7.33348C245.974 7.01924 245.79 6.73972 245.557 6.51631C245.324 6.2929 245.048 6.13153 244.75 6.04455C244.451 5.95757 244.139 5.9473 243.837 6.01451V5.98879ZM246.391 41.2755C246.481 40.9017 246.487 40.5092 246.408 40.1324C246.329 39.7556 246.168 39.4059 245.939 39.1141C245.71 38.8222 245.42 38.597 245.094 38.4581C244.768 38.3193 244.416 38.2711 244.069 38.3178C243.767 38.2754 243.461 38.3075 243.171 38.4118C242.881 38.516 242.616 38.6898 242.394 38.9208C242.173 39.1518 242 39.4343 241.888 39.748C241.776 40.0616 241.728 40.3988 241.748 40.7354C241.748 42.3043 242.398 43.3073 244.069 43.4359C244.349 43.4678 244.631 43.4375 244.9 43.347C245.169 43.2565 245.419 43.1075 245.635 42.9087C245.851 42.7099 246.03 42.4654 246.159 42.1893C246.289 41.9133 246.368 41.6114 246.391 41.3012V41.2755ZM65.8909 465.976C65.6376 465.944 65.381 465.968 65.1361 466.047C64.8912 466.125 64.6628 466.257 64.4641 466.434C64.2654 466.611 64.1004 466.83 63.9786 467.078C63.8569 467.326 63.7808 467.599 63.7548 467.88C63.6699 468.198 63.6516 468.534 63.7015 468.862C63.7513 469.19 63.868 469.501 64.0426 469.771C64.2172 470.041 64.4452 470.264 64.7091 470.422C64.9731 470.58 65.2661 470.669 65.5659 470.683C66.9358 470.837 67.8877 470.117 68.027 468.111C67.997 467.515 67.7557 466.956 67.3556 466.557C66.9556 466.157 66.4291 465.948 65.8909 465.976ZM244.394 169.614C244.101 169.539 243.796 169.535 243.501 169.603C243.206 169.67 242.928 169.808 242.685 170.006C242.443 170.204 242.242 170.457 242.096 170.749C241.95 171.041 241.863 171.365 241.84 171.697C241.746 172.073 241.737 172.468 241.813 172.849C241.89 173.229 242.05 173.583 242.28 173.878C242.51 174.173 242.802 174.401 243.13 174.541C243.459 174.681 243.813 174.729 244.162 174.681C245.579 174.681 246.345 173.858 246.484 172.109C246.503 171.791 246.463 171.472 246.367 171.172C246.271 170.872 246.12 170.596 245.925 170.363C245.729 170.129 245.492 169.942 245.229 169.814C244.966 169.685 244.682 169.617 244.394 169.614V169.614ZM4.98888 500.826C4.9599 501.106 4.98148 501.391 5.05238 501.662C5.12327 501.933 5.24207 502.186 5.40188 502.406C5.56169 502.626 5.75935 502.809 5.98339 502.944C6.20742 503.079 6.4534 503.163 6.70705 503.192C6.99481 503.286 7.29814 503.306 7.59401 503.251C7.88988 503.196 8.17048 503.067 8.41449 502.873C8.65849 502.68 8.85947 502.427 9.00215 502.135C9.14482 501.843 9.22543 501.518 9.23785 501.186C9.37716 499.668 8.72705 498.614 6.91601 498.46C6.37803 498.493 5.8737 498.76 5.51277 499.203C5.15184 499.647 4.96355 500.23 4.98888 500.826V500.826ZM-22.0606 498.254C-22.3554 498.19 -22.6591 498.198 -22.9506 498.278C-23.2422 498.358 -23.5146 498.507 -23.7488 498.715C-23.9831 498.923 -24.1736 499.185 -24.3071 499.483C-24.4406 499.781 -24.5138 500.108 -24.5218 500.44C-24.5906 500.951 -24.5187 501.474 -24.3154 501.94C-24.112 502.405 -23.7868 502.792 -23.382 503.049C-22.9772 503.307 -22.5117 503.423 -22.0462 503.384C-21.5808 503.344 -21.137 503.149 -20.7728 502.826C-20.4086 502.502 -20.1409 502.065 -20.0046 501.57C-19.8683 501.076 -19.8698 500.547 -20.0089 500.053C-20.1479 499.56 -20.4181 499.124 -20.7841 498.803C-21.1501 498.482 -21.595 498.291 -22.0606 498.254ZM244.394 137.079C244.101 137.004 243.796 137 243.501 137.068C243.206 137.136 242.928 137.273 242.685 137.471C242.443 137.669 242.242 137.922 242.096 138.214C241.95 138.506 241.863 138.83 241.84 139.163C241.746 139.538 241.737 139.934 241.813 140.314C241.89 140.694 242.05 141.048 242.28 141.343C242.51 141.638 242.802 141.866 243.13 142.006C243.459 142.146 243.813 142.194 244.162 142.146C244.778 142.19 245.385 141.962 245.848 141.511C246.312 141.06 246.595 140.423 246.635 139.741C246.675 139.059 246.469 138.387 246.062 137.874C245.655 137.36 245.08 137.047 244.464 137.002L244.394 137.079ZM244.023 202.303C243.767 202.282 243.51 202.319 243.268 202.411C243.025 202.502 242.802 202.647 242.611 202.837C242.42 203.027 242.266 203.257 242.157 203.515C242.049 203.772 241.988 204.051 241.98 204.335C241.929 204.651 241.941 204.975 242.015 205.284C242.09 205.594 242.225 205.882 242.411 206.127C242.597 206.372 242.83 206.569 243.092 206.704C243.355 206.839 243.641 206.908 243.93 206.907C245.346 206.907 246.113 206.187 246.252 204.567C246.265 204.248 246.214 203.93 246.104 203.635C245.994 203.34 245.826 203.075 245.614 202.859C245.401 202.644 245.149 202.482 244.874 202.386C244.599 202.29 244.309 202.262 244.023 202.303V202.303ZM130.694 41.1212C130.771 40.3458 130.693 39.561 130.465 38.8228C130.237 38.0847 129.864 37.4115 129.374 36.8514C128.884 36.2912 128.288 35.8578 127.629 35.5822C126.97 35.3067 126.264 35.1957 125.562 35.2572C124.9 35.1936 124.233 35.2881 123.607 35.5345C122.981 35.7809 122.409 36.1734 121.932 36.6854C121.454 37.1975 121.081 37.8171 120.838 38.5025C120.595 39.1879 120.488 39.923 120.524 40.6582C120.408 44.2846 122.498 46.1621 125.586 46.6765C128.581 46.1879 130.624 44.439 130.694 41.1212ZM120.617 7.96917C120.552 8.72041 120.626 9.47843 120.834 10.197C121.042 10.9156 121.381 11.5796 121.828 12.1486C122.276 12.7175 122.823 13.1795 123.437 13.5063C124.051 13.8332 124.719 14.0179 125.4 14.0494C126.081 14.0809 126.76 13.9585 127.397 13.6895C128.033 13.4205 128.614 13.0107 129.102 12.4851C129.591 11.9594 129.978 11.3289 130.24 10.6321C130.502 9.9353 130.632 9.18674 130.624 8.43211C130.74 5.11434 128.72 3.28827 125.818 2.67101C124.496 2.6354 123.214 3.17134 122.243 4.16519C121.272 5.15905 120.689 6.53269 120.617 7.99489V7.96917ZM154.818 3.39115C154.243 3.34647 153.666 3.43763 153.126 3.65859C152.586 3.87954 152.094 4.22523 151.683 4.67274C151.273 5.12025 150.953 5.65935 150.745 6.25427C150.536 6.8492 150.445 7.48635 150.476 8.12348C150.395 8.79353 150.45 9.47512 150.637 10.1187C150.823 10.7624 151.137 11.3518 151.555 11.8444C151.973 12.337 152.485 12.7202 153.053 12.9664C153.621 13.2125 154.232 13.3153 154.841 13.2673C155.451 13.3316 156.067 13.2488 156.646 13.0246C157.224 12.8005 157.752 12.4402 158.194 11.9687C158.635 11.4971 158.978 10.9253 159.201 10.2927C159.424 9.66002 159.521 8.98144 159.485 8.30352C159.507 7.63064 159.4 6.96021 159.169 6.337C158.939 5.71379 158.592 5.15216 158.15 4.68962C157.708 4.22708 157.183 3.87428 156.608 3.6548C156.033 3.43532 155.423 3.3542 154.818 3.41687V3.39115ZM159.461 73.4502C159.461 72.086 158.972 70.7776 158.101 69.813C157.23 68.8483 156.049 68.3064 154.818 68.3064C153.586 68.3064 152.405 68.8483 151.534 69.813C150.663 70.7776 150.174 72.086 150.174 73.4502C150.174 76.6137 151.869 78.3368 154.818 78.594C155.443 78.6456 156.071 78.5498 156.66 78.313C157.249 78.0762 157.786 77.7036 158.236 77.22C158.686 76.7364 159.038 76.1526 159.269 75.5073C159.5 74.8619 159.605 74.1696 159.577 73.4759L159.461 73.4502ZM154.818 35.7716C154.193 35.7036 153.562 35.79 152.971 36.0245C152.379 36.259 151.842 36.6357 151.398 37.1276C150.954 37.6195 150.614 38.2144 150.402 38.8693C150.191 39.5243 150.113 40.2231 150.174 40.9154C150.113 41.6078 150.191 42.3066 150.402 42.9615C150.614 43.6165 150.954 44.2113 151.398 44.7032C151.842 45.1952 152.379 45.5719 152.971 45.8064C153.562 46.0409 154.193 46.1272 154.818 46.0593C156.049 46.0593 157.23 45.5173 158.101 44.5527C158.972 43.588 159.461 42.2797 159.461 40.9154C159.461 39.5512 158.972 38.2429 158.101 37.2782C157.23 36.3135 156.049 35.7716 154.818 35.7716ZM130.694 139.934C130.781 139.16 130.712 138.374 130.493 137.632C130.274 136.89 129.909 136.211 129.426 135.643C128.942 135.076 128.351 134.634 127.696 134.348C127.04 134.063 126.335 133.942 125.632 133.993C124.97 133.919 124.302 134.003 123.672 134.24C123.043 134.476 122.466 134.86 121.982 135.365C121.497 135.869 121.117 136.483 120.865 137.165C120.614 137.847 120.497 138.581 120.524 139.317C120.361 142.943 122.428 144.821 125.795 145.438C127.08 145.351 128.291 144.741 129.195 143.725C130.1 142.709 130.633 141.359 130.694 139.934V139.934ZM120.594 172.058C120.547 172.817 120.642 173.579 120.872 174.297C121.102 175.014 121.463 175.671 121.932 176.228C122.402 176.784 122.969 177.228 123.599 177.531C124.23 177.834 124.91 177.991 125.597 177.991C126.285 177.991 126.965 177.834 127.595 177.531C128.225 177.228 128.793 176.784 129.262 176.228C129.731 175.671 130.092 175.014 130.323 174.297C130.553 173.579 130.648 172.817 130.601 172.058C130.601 168.765 128.488 166.914 125.377 166.554C124.106 166.655 122.915 167.273 122.032 168.289C121.149 169.305 120.636 170.648 120.594 172.058V172.058ZM125.516 199.243C124.217 199.243 122.971 199.814 122.052 200.832C121.133 201.85 120.617 203.23 120.617 204.669C120.617 206.109 121.133 207.489 122.052 208.507C122.971 209.524 124.217 210.096 125.516 210.096C128.558 210.225 130.16 207.987 130.694 204.695C130.183 201.429 128.558 199.243 125.516 199.243ZM-27.2616 369.272C-27.3258 370.025 -27.2505 370.785 -27.0404 371.504C-26.8304 372.224 -26.4899 372.888 -26.0398 373.457C-25.5898 374.025 -25.0397 374.486 -24.4232 374.811C-23.8067 375.136 -23.1369 375.318 -22.4547 375.346C-21.7724 375.374 -21.0922 375.248 -20.4557 374.974C-19.8192 374.701 -19.2397 374.286 -18.7529 373.756C-18.266 373.226 -17.882 372.592 -17.6243 371.891C-17.3667 371.191 -17.2408 370.44 -17.2544 369.684C-17.2544 366.366 -19.1815 364.54 -22.2464 363.923C-23.5347 363.958 -24.7643 364.527 -25.6926 365.518C-26.6209 366.508 -27.1807 367.847 -27.2616 369.272V369.272ZM2.34198 369.452C2.313 370.177 2.41863 370.9 2.65232 371.578C2.88602 372.255 3.2428 372.872 3.70057 373.391C4.15834 373.909 4.70736 374.318 5.3136 374.592C5.91984 374.866 6.57041 374.999 7.22501 374.984C7.8796 374.968 8.52428 374.803 9.11912 374.5C9.71395 374.197 10.2463 373.762 10.6831 373.222C11.12 372.681 11.452 372.047 11.6587 371.359C11.8654 370.671 11.9423 369.943 11.8848 369.221C11.778 367.881 11.2156 366.637 10.3114 365.74C9.40729 364.843 8.22908 364.36 7.01558 364.39C5.80208 364.419 4.64407 364.959 3.77625 365.899C2.90842 366.839 2.39569 368.109 2.34198 369.452V369.452ZM95.9821 265.444C94.6827 265.488 93.4525 266.102 92.5621 267.152C91.6716 268.201 91.1939 269.599 91.2339 271.038C91.2739 272.477 91.8284 273.84 92.7755 274.826C93.7226 275.812 94.9846 276.342 96.2839 276.297C99.3023 276.297 100.928 274.008 101.299 270.639C100.649 267.501 99.0237 265.264 95.9821 265.444V265.444ZM31.574 337.123C31.5494 338.562 32.0419 339.954 32.9433 340.991C33.8446 342.028 35.0809 342.626 36.3803 342.653C37.6796 342.68 38.9355 342.135 39.8716 341.136C40.8078 340.138 41.3476 338.768 41.3722 337.329C41.5348 333.96 39.5147 332.185 36.5428 331.516C35.8842 331.523 35.2332 331.674 34.6271 331.959C34.0209 332.244 33.4714 332.659 33.01 333.18C32.5487 333.701 32.1844 334.317 31.938 334.993C31.6916 335.67 31.5679 336.394 31.574 337.123ZM70.8364 303.688C70.8929 302.93 70.8083 302.168 70.5879 301.448C70.3674 300.727 70.0159 300.065 69.5549 299.502C69.094 298.938 68.5335 298.485 67.9082 298.171C67.2829 297.857 66.6061 297.689 65.9197 297.677C65.2333 297.664 64.5519 297.808 63.9177 298.1C63.2835 298.391 62.7101 298.823 62.2329 299.37C61.7557 299.916 61.3849 300.566 61.1434 301.278C60.902 301.99 60.7951 302.749 60.8293 303.508C60.8293 306.826 62.8493 308.652 65.9374 309.166C67.2357 309.108 68.4651 308.503 69.3753 307.476C70.2855 306.449 70.808 305.076 70.8364 303.637V303.688ZM96.3768 232.678C95.6756 232.606 94.9687 232.706 94.3067 232.972C93.6446 233.238 93.0437 233.663 92.5469 234.215C92.0501 234.768 91.6696 235.436 91.4326 236.17C91.1956 236.905 91.1079 237.688 91.1758 238.464C91.1309 239.199 91.2288 239.936 91.4629 240.624C91.6971 241.313 92.062 241.939 92.533 242.458C93.004 242.977 93.5702 243.379 94.1933 243.635C94.8163 243.891 95.4817 243.996 96.1446 243.943C99.4184 243.943 101.067 241.654 101.462 238.207C100.974 234.967 99.3952 232.678 96.3768 232.678ZM65.9374 265.161C64.6105 265.174 63.3388 265.751 62.3848 266.773C61.4309 267.795 60.8674 269.183 60.8108 270.651C60.7542 272.12 61.2088 273.557 62.0806 274.665C62.9525 275.773 64.1752 276.468 65.4962 276.606C68.77 276.889 70.5346 274.626 71.1383 271.154C70.8365 267.579 69.2112 265.264 65.9374 265.161ZM12.2795 337.175C12.285 335.698 11.7765 334.277 10.8597 333.205C9.94293 332.134 8.68851 331.495 7.35746 331.422C6.02642 331.35 4.72126 331.848 3.71356 332.814C2.70585 333.78 2.0732 335.139 1.94726 336.609C1.66863 340.235 3.71187 342.19 6.82314 342.884C7.52111 342.93 8.22011 342.817 8.87763 342.554C9.53514 342.291 10.1374 341.882 10.6478 341.353C11.1582 340.823 11.5661 340.185 11.8466 339.475C12.1271 338.766 12.2744 338.001 12.2795 337.226V337.175ZM36.2874 297.567C34.9018 297.625 33.5939 298.29 32.6511 299.417C31.7084 300.543 31.2082 302.038 31.2606 303.573C31.3129 305.107 31.9135 306.556 32.9303 307.6C33.947 308.645 35.2966 309.199 36.6821 309.141C39.9791 309.141 41.558 306.697 41.8366 302.66C41.6788 301.188 41.0128 299.841 39.9783 298.901C38.9438 297.962 37.6211 297.502 36.2874 297.619V297.567ZM-57.8171 369.812C-57.8463 370.543 -57.7388 371.272 -57.5012 371.954C-57.2636 372.636 -56.9012 373.256 -56.4366 373.776C-55.9721 374.295 -55.4155 374.702 -54.802 374.972C-54.1884 375.242 -53.5312 375.367 -52.8715 375.342C-52.1711 375.434 -51.4609 375.354 -50.7913 375.109C-50.1218 374.863 -49.5093 374.456 -48.9974 373.919C-48.4855 373.381 -48.0867 372.725 -47.8293 371.998C-47.5719 371.27 -47.4623 370.489 -47.5081 369.709C-47.5081 366.057 -49.5281 364.231 -52.709 363.768C-55.8667 364.283 -57.9099 366.16 -57.8171 369.812ZM130.694 73.8617C130.712 73.122 130.599 72.3856 130.36 71.6945C130.121 71.0034 129.762 70.3711 129.303 69.8337C128.844 69.2964 128.293 68.8645 127.683 68.5627C127.073 68.2609 126.416 68.0952 125.748 68.0749C125.08 68.0546 124.416 68.1802 123.792 68.4446C123.168 68.7089 122.597 69.1068 122.112 69.6155C121.627 70.1242 121.237 70.7337 120.964 71.4094C120.692 72.085 120.542 72.8134 120.524 73.5531C120.487 75.0469 120.987 76.4958 121.915 77.5811C122.842 78.6663 124.121 79.299 125.47 79.3399C126.818 79.3808 128.126 78.8266 129.106 77.7993C130.086 76.7719 130.657 75.3555 130.694 73.8617ZM96.4464 198.883C95.0609 198.825 93.7113 199.379 92.6946 200.423C91.6779 201.467 91.0772 202.916 91.0249 204.451C90.9726 205.986 91.4728 207.481 92.4155 208.607C93.3582 209.733 94.6662 210.398 96.0517 210.456C96.7478 210.523 97.449 210.431 98.1115 210.185C98.7739 209.938 99.3834 209.544 99.902 209.025C100.421 208.506 100.837 207.874 101.125 207.169C101.414 206.464 101.568 205.701 101.578 204.927C101.346 201.326 99.7435 199.011 96.4464 198.883ZM96.725 133.685C95.9967 133.61 95.2624 133.701 94.5668 133.951C93.8712 134.202 93.2289 134.606 92.679 135.141C92.1292 135.675 91.6834 136.328 91.3687 137.059C91.054 137.79 90.877 138.585 90.8486 139.394C90.8202 140.204 90.9409 141.011 91.2034 141.768C91.4659 142.524 91.8647 143.213 92.3754 143.793C92.8861 144.373 93.4981 144.831 94.1741 145.141C94.85 145.45 95.5758 145.604 96.3071 145.592C97.0068 145.658 97.7111 145.559 98.374 145.302C99.0369 145.046 99.6434 144.637 100.154 144.103C100.665 143.569 101.068 142.922 101.337 142.203C101.606 141.485 101.736 140.712 101.717 139.934C101.601 136.231 100.069 133.916 96.725 133.685V133.685ZM96.4232 2.5167C95.7218 2.40951 95.0076 2.47532 94.3318 2.70943C93.656 2.94355 93.0352 3.34018 92.5139 3.87096C91.9926 4.40174 91.5836 5.05356 91.3161 5.77981C91.0487 6.50606 90.9294 7.28879 90.9669 8.07204C90.8457 8.89612 90.8996 9.74013 91.1241 10.5372C91.3486 11.3342 91.7377 12.0623 92.2604 12.6638C92.7832 13.2653 93.4252 13.7237 94.1357 14.0025C94.8462 14.2814 95.6055 14.3731 96.3536 14.2704C97.0659 14.3308 97.7816 14.2213 98.4523 13.9491C99.1231 13.6768 99.7334 13.2483 100.242 12.6924C100.75 12.1365 101.145 11.4662 101.4 10.7268C101.654 9.98743 101.762 9.19613 101.717 8.40639C101.764 7.62043 101.66 6.83232 101.411 6.09435C101.163 5.35638 100.775 4.68543 100.275 4.12602C99.774 3.5666 99.1717 3.13151 98.5077 2.84962C97.8437 2.56773 97.1331 2.44548 96.4232 2.49098V2.5167ZM-52.9644 329.87C-54.4115 329.922 -55.781 330.607 -56.7716 331.777C-57.7622 332.947 -58.2928 334.504 -58.2466 336.107C-58.2004 337.71 -57.5813 339.227 -56.5254 340.325C-55.4694 341.422 -54.0632 342.01 -52.6161 341.958C-49.0173 341.958 -47.2991 339.618 -47.1366 335.451C-47.143 334.644 -47.3047 333.848 -47.6108 333.115C-47.9168 332.382 -48.3603 331.73 -48.9117 331.202C-49.4631 330.674 -50.1098 330.282 -50.8085 330.052C-51.5073 329.823 -52.2423 329.761 -52.9644 329.87V329.87ZM-16.9526 336.969C-16.8951 336.19 -16.9926 335.406 -17.2381 334.673C-17.4837 333.939 -17.8714 333.275 -18.3738 332.726C-18.8763 332.176 -19.4814 331.756 -20.1465 331.494C-20.8115 331.231 -21.5204 331.134 -22.2232 331.208C-22.9726 331.115 -23.7312 331.217 -24.4389 331.506C-25.1465 331.795 -25.7836 332.262 -26.2996 332.871C-26.8157 333.481 -27.1965 334.214 -27.4118 335.015C-27.6272 335.816 -27.6711 336.661 -27.5402 337.483C-27.3777 341.187 -25.2184 342.884 -21.5266 343.064C-20.1888 342.927 -18.9543 342.209 -18.0929 341.067C-17.2315 339.925 -16.8132 338.452 -16.9294 336.969H-16.9526ZM7.56613 297.439C6.83781 297.364 6.10347 297.455 5.40787 297.705C4.71226 297.956 4.06997 298.36 3.52013 298.895C2.9703 299.429 2.52444 300.082 2.20974 300.813C1.89504 301.544 1.71809 302.339 1.68968 303.148C1.66127 303.958 1.78199 304.766 2.04448 305.522C2.30697 306.278 2.70574 306.967 3.21647 307.547C3.7272 308.127 4.33919 308.585 5.01515 308.895C5.69111 309.204 6.41687 309.358 7.1482 309.347C7.84406 309.408 8.54381 309.307 9.20224 309.05C9.86067 308.793 10.4632 308.386 10.9708 307.855C11.4784 307.325 11.8799 306.682 12.1493 305.968C12.4187 305.255 12.5501 304.487 12.5349 303.714C12.4652 300.036 10.9328 297.696 7.58934 297.464L7.56613 297.439ZM36.566 264.827C35.8642 264.726 35.151 264.795 34.4755 265.029C33.8001 265.263 33.1784 265.656 32.6532 266.182C32.1281 266.707 31.7119 267.352 31.4334 268.073C31.155 268.794 31.0207 269.573 31.04 270.356C30.8949 271.175 30.9197 272.02 31.1126 272.826C31.3055 273.633 31.6614 274.38 32.1535 275.012C32.6456 275.644 33.2609 276.143 33.9529 276.473C34.645 276.803 35.3956 276.954 36.1481 276.915C36.8646 276.947 37.5798 276.822 38.2529 276.548C38.926 276.274 39.5437 275.856 40.0709 275.317C40.598 274.779 41.0243 274.13 41.3252 273.409C41.6262 272.688 41.796 271.909 41.825 271.115C41.854 270.321 41.7415 269.529 41.494 268.783C41.2466 268.038 40.869 267.354 40.3828 266.77C39.8966 266.186 39.3114 265.714 38.6605 265.38C38.0096 265.047 37.3058 264.859 36.5892 264.827H36.566ZM101.578 172.238C101.609 171.434 101.492 170.631 101.232 169.879C100.973 169.128 100.577 168.443 100.07 167.867C99.5621 167.291 98.9534 166.837 98.2812 166.532C97.6089 166.227 96.8873 166.078 96.161 166.093C95.4347 166.109 94.719 166.29 94.0581 166.624C93.3971 166.958 92.8051 167.439 92.3183 168.036C91.8316 168.634 91.4606 169.335 91.2282 170.098C90.9957 170.86 90.9068 171.667 90.9669 172.469C90.9669 176.173 93.1262 177.947 96.7483 178.204C97.4258 178.169 98.0899 177.983 98.7012 177.657C99.3126 177.332 99.8586 176.874 100.307 176.31C100.755 175.746 101.097 175.088 101.311 174.375C101.525 173.663 101.608 172.909 101.554 172.16L101.578 172.238ZM96.3536 67.3548C95.6537 67.2545 94.9425 67.323 94.2688 67.5554C93.595 67.7878 92.9745 68.1787 92.4498 68.7014C91.925 69.224 91.5084 69.8661 91.2284 70.5836C90.9484 71.3011 90.8117 72.0772 90.8276 72.8587C90.683 73.6752 90.7074 74.5175 90.899 75.3221C91.0907 76.1267 91.4445 76.8727 91.934 77.504C92.4234 78.1352 93.0357 78.6354 93.7248 78.9667C94.4139 79.2981 95.1618 79.452 95.9124 79.417C96.6289 79.4491 97.3442 79.3246 98.0172 79.0505C98.6903 78.7764 99.3081 78.3581 99.8352 77.8196C100.362 77.281 100.789 76.6327 101.09 75.9117C101.391 75.1907 101.56 74.4111 101.589 73.6174C101.618 72.8237 101.506 72.0314 101.258 71.2858C101.011 70.5403 100.633 69.856 100.147 69.272C99.661 68.6881 99.0757 68.216 98.4248 67.8826C97.7739 67.5492 97.0701 67.3611 96.3536 67.329V67.3548ZM71.2312 238.387C71.3181 237.559 71.2314 236.72 70.978 235.934C70.7246 235.149 70.3113 234.439 69.77 233.86C69.2288 233.28 68.5743 232.846 67.8572 232.592C67.1402 232.338 66.3799 232.271 65.6355 232.395C64.9292 232.337 64.2201 232.453 63.5585 232.733C62.8969 233.013 62.299 233.45 61.8071 234.015C61.3153 234.579 60.9415 235.257 60.7124 235.999C60.4832 236.741 60.4042 237.53 60.481 238.31C60.481 242.322 62.5707 244.2 66.0767 244.38C66.7815 244.404 67.4829 244.263 68.1353 243.967C68.7877 243.67 69.3763 243.225 69.8627 242.659C70.3491 242.094 70.7224 241.421 70.9582 240.685C71.194 239.949 71.287 239.166 71.2312 238.387V238.387ZM90.9204 40.1181C90.7457 40.9313 90.7422 41.7781 90.91 42.593C91.0778 43.408 91.4125 44.1693 91.8883 44.8181C92.3641 45.4669 92.9681 45.9858 93.6538 46.3348C94.3395 46.6838 95.0884 46.8536 95.8427 46.8308C96.5357 46.9808 97.2499 46.9614 97.9354 46.774C98.6209 46.5867 99.2613 46.2358 99.8118 45.7461C100.362 45.2563 100.81 44.6393 101.123 43.9383C101.436 43.2372 101.607 42.4689 101.624 41.687C101.775 40.8669 101.76 40.0201 101.581 39.2071C101.401 38.3942 101.062 37.635 100.588 36.9839C100.113 36.3329 99.5145 35.8059 98.8348 35.4407C98.155 35.0756 97.4108 34.8812 96.6554 34.8714C93.4977 34.9229 91.2223 36.3889 90.9204 40.1181V40.1181ZM96.1678 101.047C95.4726 100.973 94.7712 101.065 94.1106 101.316C93.4499 101.567 92.8454 101.971 92.3375 102.502C91.8295 103.033 91.43 103.678 91.1656 104.394C90.9011 105.11 90.778 105.881 90.8043 106.654C90.6829 107.475 90.7312 108.316 90.9457 109.114C91.1602 109.912 91.5352 110.645 92.0426 111.259C92.55 111.873 93.1764 112.352 93.8749 112.659C94.5733 112.966 95.3255 113.094 96.0749 113.032C97.522 113.032 98.9099 112.395 99.9332 111.262C100.956 110.128 101.531 108.591 101.531 106.988C101.531 105.385 100.956 103.848 99.9332 102.714C98.9099 101.581 97.522 100.944 96.0749 100.944L96.1678 101.047ZM65.6587 198.523C64.2457 198.662 62.9346 199.396 61.9947 200.573C61.0548 201.75 60.5576 203.281 60.6052 204.851C60.6527 206.422 61.2415 207.912 62.2504 209.017C63.2594 210.122 64.612 210.756 66.0302 210.791C66.7846 210.809 67.5345 210.656 68.2339 210.343C68.9333 210.029 69.5676 209.561 70.0981 208.966C70.6285 208.372 71.0439 207.664 71.3189 206.885C71.5939 206.107 71.7226 205.275 71.6973 204.439C71.672 203.604 71.4932 202.783 71.1717 202.027C70.8503 201.27 70.393 200.595 69.8278 200.041C69.2626 199.487 68.6014 199.067 67.8845 198.806C67.1677 198.545 66.4103 198.448 65.6587 198.523V198.523ZM-16.465 303.688C-16.3706 302.808 -16.453 301.916 -16.7061 301.075C-16.9592 300.234 -17.3768 299.466 -17.9291 298.824C-18.4814 298.183 -19.1548 297.685 -19.9011 297.365C-20.6474 297.046 -21.4483 296.913 -22.2464 296.976C-22.9963 296.918 -23.7488 297.035 -24.4555 297.318C-25.1622 297.602 -25.8075 298.046 -26.3498 298.623C-26.8922 299.2 -27.3196 299.895 -27.6046 300.666C-27.8896 301.436 -28.0258 302.264 -28.0046 303.097C-28.0366 303.941 -27.9181 304.784 -27.656 305.578C-27.3939 306.372 -26.9932 307.1 -26.4768 307.722C-25.9604 308.345 -25.3385 308.848 -24.6465 309.204C-23.9545 309.56 -23.206 309.761 -22.4437 309.797C-21.6815 309.832 -20.9204 309.701 -20.2039 309.411C-19.4874 309.12 -18.8295 308.676 -18.2679 308.104C-17.7062 307.532 -17.2518 306.843 -16.9305 306.077C-16.6092 305.31 -16.4273 304.481 -16.3953 303.637L-16.465 303.688ZM65.6355 165.628C64.0745 165.648 62.5847 166.355 61.494 167.592C60.4032 168.829 59.8008 170.496 59.8193 172.225C59.8378 173.954 60.4756 175.604 61.5925 176.812C62.7094 178.021 64.2138 178.688 65.7748 178.667C69.3969 178.667 71.3705 176.095 71.8348 172.006C71.2544 168.148 69.2112 165.525 65.6355 165.628ZM42.2313 238.67C42.3205 237.796 42.2362 236.91 41.9842 236.075C41.7323 235.24 41.3187 234.476 40.7725 233.837C40.2263 233.198 39.5606 232.698 38.822 232.374C38.0834 232.049 37.2897 231.907 36.4963 231.957C35.7467 231.893 34.9932 232.002 34.2841 232.28C33.5751 232.557 32.9264 232.996 32.3796 233.567C31.8328 234.139 31.4002 234.831 31.1095 235.599C30.8188 236.367 30.6765 237.195 30.6917 238.027C30.5524 242.065 32.8278 244.303 36.4731 244.869C37.9766 244.876 39.423 244.232 40.5033 243.073C41.5836 241.915 42.2121 240.335 42.2545 238.67H42.2313ZM7.17141 264.389C5.61346 264.331 4.09853 264.961 2.95988 266.141C1.82122 267.32 1.15213 268.952 1.09979 270.678C1.04745 272.403 1.61614 274.082 2.68077 275.343C3.7454 276.604 5.21875 277.345 6.7767 277.403C10.3988 277.66 12.4652 275.063 13.1153 270.896C13.0971 269.166 12.4668 267.512 11.3597 266.29C10.2526 265.069 8.75717 264.377 7.19464 264.364L7.17141 264.389ZM72.6475 8.76646C72.7483 7.88355 72.6717 6.98688 72.4234 6.14051C72.1751 5.29415 71.7611 4.51896 71.2111 3.87033C70.661 3.2217 69.9884 2.71563 69.2413 2.38827C68.4942 2.06091 67.6911 1.92034 66.8893 1.9766C66.14 1.90471 65.3853 2.00746 64.674 2.27823C63.9626 2.549 63.3103 2.98179 62.7592 3.54873C62.208 4.11567 61.7701 4.80419 61.4737 5.56996C61.1773 6.33573 61.029 7.16177 61.0383 7.99489C60.8525 12.0328 63.1279 14.2961 66.7268 14.8619C67.48 14.8929 68.2314 14.759 68.9379 14.4681C69.6444 14.1771 70.2922 13.7347 70.8443 13.1662C71.3963 12.5977 71.8418 11.9142 72.1552 11.1549C72.4686 10.3955 72.6438 9.57516 72.6707 8.74074L72.6475 8.76646ZM66.8893 34.3828C66.1388 34.3267 65.3859 34.441 64.6767 34.7185C63.9674 34.9961 63.3168 35.4311 62.7647 35.997C62.2126 36.5628 61.7705 37.2476 61.4657 38.0093C61.1608 38.771 60.9996 39.5936 60.9918 40.4268C60.8695 41.3146 60.9242 42.2213 61.1522 43.0831C61.3803 43.945 61.776 44.741 62.3116 45.4152C62.8472 46.0894 63.5097 46.6255 64.2525 46.9856C64.9952 47.3457 65.8002 47.5211 66.6107 47.4995C70.2328 47.731 72.276 45.1334 72.9029 41.0955C72.9218 40.2126 72.7795 39.3346 72.4845 38.5141C72.1896 37.6936 71.7481 36.9476 71.1865 36.3207C70.6249 35.6938 69.9548 35.1991 69.2164 34.8661C68.478 34.533 67.6865 34.3687 66.8893 34.3828V34.3828ZM65.8213 132.99C65.0319 132.952 64.2437 133.092 63.505 133.403C62.7663 133.713 62.0926 134.188 61.5253 134.797C60.9579 135.406 60.5088 136.137 60.2055 136.945C59.9022 137.754 59.751 138.622 59.7612 139.497C59.7579 140.407 59.9193 141.309 60.2358 142.149C60.5523 142.989 61.0175 143.751 61.604 144.389C62.1905 145.026 62.8864 145.527 63.6506 145.862C64.4148 146.197 65.2318 146.359 66.0535 146.338C67.6307 146.24 69.1153 145.482 70.2062 144.216C71.2971 142.95 71.9125 141.273 71.9277 139.523C71.4169 135.588 69.4666 132.964 65.8445 132.964L65.8213 132.99ZM-52.7787 310.041C-51.9896 310.097 -51.1986 309.974 -50.454 309.679C-49.7094 309.385 -49.0271 308.924 -48.4487 308.327C-47.8704 307.73 -47.4084 307.008 -47.0909 306.206C-46.7734 305.404 -46.6073 304.538 -46.6026 303.663C-46.5807 302.752 -46.7247 301.845 -47.0258 300.997C-47.327 300.149 -47.7792 299.376 -48.3556 298.726C-48.9319 298.076 -49.6205 297.56 -50.3804 297.211C-51.1403 296.862 -51.9559 296.685 -52.7787 296.693C-54.3607 296.758 -55.8609 297.488 -56.9739 298.735C-58.0868 299.982 -58.7288 301.652 -58.769 303.405C-58.7569 305.161 -58.1219 306.841 -57.0011 308.083C-55.8803 309.324 -54.3637 310.027 -52.7787 310.041V310.041ZM67.0518 100.404C65.4859 100.34 63.9598 100.959 62.8009 102.128C61.6421 103.296 60.9426 104.921 60.8525 106.654C60.8322 108.398 61.4232 110.083 62.5013 111.354C63.5794 112.625 65.0605 113.384 66.6332 113.471C68.2059 113.557 69.7477 112.965 70.9343 111.818C72.1209 110.672 72.8598 109.06 72.9958 107.322C72.9754 105.551 72.3516 103.854 71.2493 102.571C70.147 101.288 68.6477 100.514 67.0518 100.404V100.404ZM36.7053 197.931C35.1377 197.93 33.6303 198.6 32.4974 199.8C31.3646 201 30.6938 202.639 30.6249 204.373C30.556 206.108 31.0944 207.805 32.1278 209.111C33.1611 210.417 34.6096 211.231 36.1713 211.382C40.0488 211.562 42.092 208.81 42.6492 204.721C42.2313 200.76 40.3274 198.06 36.7053 197.931ZM66.7732 80.06C67.5623 80.1161 68.3533 79.993 69.0979 79.6983C69.8425 79.4036 70.5248 78.9436 71.1031 78.3463C71.6814 77.7491 72.1435 77.0272 72.461 76.2251C72.7785 75.423 72.9446 74.5575 72.9493 73.6817C72.9712 72.7706 72.8272 71.864 72.5261 71.0159C72.2249 70.1678 71.7727 69.3956 71.1963 68.7452C70.62 68.0948 69.9314 67.5795 69.1715 67.2302C68.4116 66.8809 67.5959 66.7046 66.7732 66.7118C65.1912 66.7766 63.691 67.507 62.578 68.7542C61.4651 70.0013 60.8231 71.6714 60.7829 73.4245C60.795 75.1802 61.43 76.8602 62.5508 78.1017C63.6716 79.3432 65.1882 80.0466 66.7732 80.06V80.06ZM30.3434 172.469C30.4737 174.206 31.2 175.822 32.373 176.985C33.546 178.147 35.0764 178.767 36.6496 178.718C38.2228 178.668 39.7191 177.953 40.8307 176.719C41.9424 175.485 42.5848 173.826 42.626 172.083C42.626 167.788 40.0952 165.628 36.3106 165.165C32.5724 165.808 30.1577 168.174 30.3434 172.469ZM7.12497 231.623C5.54784 231.653 4.04135 232.353 2.91663 233.578C1.7919 234.803 1.13487 236.46 1.08123 238.206C1.02759 239.952 1.58143 241.655 2.62838 242.961C3.67533 244.268 5.13541 245.08 6.70705 245.229C10.5845 245.512 12.651 242.785 13.3707 238.413C12.9296 234.478 11.165 231.623 7.19464 231.546L7.12497 231.623ZM-16.2328 271.488C-16.1138 270.57 -16.1776 269.635 -16.4195 268.748C-16.6614 267.861 -17.0757 267.043 -17.6332 266.352C-18.1907 265.661 -18.878 265.113 -19.6469 264.747C-20.4157 264.382 -21.2475 264.207 -22.0839 264.235C-22.8617 264.15 -23.6471 264.244 -24.3906 264.511C-25.1341 264.778 -25.8196 265.213 -26.4041 265.788C-26.9885 266.363 -27.4592 267.065 -27.7866 267.852C-28.114 268.638 -28.291 269.491 -28.3064 270.356C-28.6082 274.651 -26.1703 276.966 -22.2696 277.815C-20.7098 277.799 -19.2132 277.13 -18.0805 275.942C-16.9477 274.754 -16.2628 273.135 -16.1631 271.411L-16.2328 271.488ZM30.2041 8.45783C30.2662 10.1951 30.9253 11.8405 32.0466 13.0571C33.1679 14.2738 34.6666 14.9698 36.2359 15.0026C37.8053 15.0355 39.3266 14.4028 40.4886 13.2339C41.6506 12.0651 42.3654 10.4485 42.4867 8.71502C42.6725 4.41992 40.1649 2.15663 36.4499 1.48793C32.8278 1.89944 30.3434 4.08557 30.3202 8.38067L30.2041 8.45783ZM-46.44 270.896C-46.3699 269.974 -46.482 269.045 -46.7684 268.176C-47.0548 267.306 -47.5088 266.516 -48.0987 265.86C-48.6886 265.204 -49.4003 264.698 -50.1844 264.378C-50.9685 264.057 -51.8062 263.929 -52.6394 264.004C-53.4701 263.926 -54.3061 264.05 -55.0895 264.366C-55.8729 264.682 -56.5851 265.182 -57.1768 265.833C-57.7685 266.483 -58.2256 267.268 -58.5165 268.134C-58.8075 268.999 -58.9253 269.924 -58.8619 270.845C-58.8619 275.14 -56.5401 277.326 -52.4304 277.943C-48.9941 277.275 -46.4168 275.243 -46.44 270.896ZM36.3106 34.0227C35.4756 33.9722 34.6407 34.1238 33.8639 34.4669C33.0871 34.81 32.3872 35.3365 31.8126 36.0096C31.2381 36.6827 30.8029 37.4863 30.5371 38.3646C30.2714 39.2429 30.1815 40.1748 30.2738 41.0955C30.2307 42.0232 30.3711 42.9501 30.6851 43.8114C30.9991 44.6727 31.4791 45.4477 32.0917 46.0822C32.7042 46.7166 33.4345 47.1951 34.2314 47.4844C35.0283 47.7736 35.8726 47.8666 36.7053 47.7567C40.5596 47.7567 42.4867 44.8505 42.8814 40.6582C42.2081 36.5432 40.1881 33.8684 36.3106 34.0227ZM36.4731 66.4803C35.6485 66.4104 34.8199 66.5349 34.042 66.8456C33.264 67.1564 32.5543 67.6463 31.9598 68.283C31.3652 68.9197 30.8993 69.6888 30.5926 70.5396C30.286 71.3904 30.1457 72.3035 30.1809 73.2187C30.1258 74.1813 30.2571 75.1459 30.5662 76.0476C30.8752 76.9494 31.3547 77.7675 31.9727 78.4471C32.5906 79.1267 33.3325 79.652 34.1488 79.9879C34.9651 80.3237 35.8367 80.4623 36.7053 80.3944C37.5414 80.3918 38.3685 80.202 39.1366 79.8362C39.9048 79.4704 40.5983 78.9363 41.1752 78.2659C41.7522 77.5956 42.2008 76.8029 42.494 75.9355C42.7872 75.0681 42.919 74.144 42.8814 73.2187C42.3706 69.0779 40.397 66.4289 36.4731 66.4546V66.4803ZM-15.9774 238.799C-15.8721 237.884 -15.9435 236.955 -16.1868 236.074C-16.43 235.192 -16.8396 234.378 -17.3885 233.685C-17.9373 232.992 -18.6128 232.436 -19.3702 232.054C-20.1277 231.672 -20.9498 231.472 -21.782 231.469C-22.6439 231.371 -23.5149 231.476 -24.3374 231.778C-25.16 232.079 -25.9154 232.571 -26.5538 233.22C-27.1923 233.869 -27.6993 234.66 -28.0414 235.542C-28.3835 236.424 -28.553 237.376 -28.5386 238.336C-28.5791 239.248 -28.4548 240.161 -28.173 241.019C-27.8913 241.878 -27.4577 242.665 -26.8977 243.336C-26.3376 244.007 -25.6624 244.547 -24.9116 244.925C-24.1608 245.303 -23.3494 245.511 -22.525 245.537C-18.6475 245.126 -16.1631 242.965 -15.9774 238.722V238.799ZM36.7053 132.656C35.8771 132.573 35.0424 132.684 34.2553 132.98C33.4681 133.277 32.7459 133.754 32.1353 134.379C31.5248 135.005 31.0395 135.765 30.7109 136.611C30.3822 137.457 30.2175 138.37 30.2274 139.291C30.1573 140.248 30.2719 141.211 30.5636 142.115C30.8553 143.019 31.3174 143.844 31.9192 144.535C32.521 145.226 33.2487 145.767 34.0539 146.122C34.8591 146.477 35.7234 146.639 36.5892 146.596C38.1532 146.68 39.6846 146.08 40.853 144.926C42.0214 143.771 42.7333 142.154 42.835 140.423C42.9247 139.46 42.8344 138.487 42.5697 137.565C42.305 136.642 41.8716 135.79 41.2965 135.061C40.7214 134.333 40.0169 133.743 39.227 133.329C38.4371 132.915 37.5787 132.686 36.7053 132.656V132.656ZM30.2274 106.937C30.1526 107.854 30.2524 108.779 30.5204 109.651C30.7884 110.522 31.2186 111.322 31.7832 111.999C32.3478 112.675 33.0342 113.213 33.798 113.577C34.5619 113.941 35.3862 114.123 36.2177 114.112C37.0816 114.19 37.9505 114.063 38.7667 113.74C39.5829 113.417 40.3276 112.905 40.9514 112.238C41.5751 111.572 42.0636 110.765 42.3844 109.874C42.7052 108.982 42.8508 108.024 42.8118 107.065C42.8882 105.333 42.3468 103.636 41.3043 102.342C40.2618 101.048 38.8019 100.259 37.2393 100.147C36.3703 100.04 35.4907 100.133 34.6554 100.419C33.8202 100.706 33.0473 101.18 32.385 101.813C31.7226 102.445 31.1851 103.222 30.8058 104.095C30.4266 104.967 30.2139 105.917 30.1809 106.885L30.2274 106.937ZM13.4868 204.901C13.5648 203.984 13.4682 203.059 13.2031 202.185C12.9381 201.312 12.5105 200.51 11.9481 199.831C11.3857 199.152 10.7009 198.612 9.93811 198.245C9.17529 197.878 8.3514 197.692 7.51969 197.7C6.65597 197.618 5.78656 197.742 4.96925 198.062C4.15195 198.382 3.40549 198.891 2.77952 199.555C2.15355 200.219 1.6624 201.023 1.33875 201.914C1.0151 202.805 0.866372 203.762 0.902433 204.721C0.826011 206.453 1.36741 208.15 2.40987 209.444C3.45233 210.738 4.9123 211.527 6.47486 211.639C7.34029 211.739 8.2149 211.64 9.04461 211.35C9.87432 211.06 10.6415 210.584 11.2987 209.953C11.9559 209.321 12.4892 208.547 12.8655 207.678C13.2419 206.809 13.4534 205.864 13.4868 204.901V204.901ZM0.786333 7.84057C0.714316 8.79273 0.817859 9.75117 1.09066 10.6576C1.36347 11.5641 1.79984 12.3996 2.37325 13.1134C2.94666 13.8273 3.64513 14.4045 4.4262 14.81C5.20727 15.2154 6.05462 15.4407 6.91675 15.4722C7.77888 15.5036 8.63777 15.3405 9.44121 14.9928C10.2447 14.645 10.9759 14.1199 11.5904 13.4494C12.2049 12.7789 12.69 11.9769 13.016 11.0923C13.342 10.2077 13.5022 9.25886 13.4868 8.30352C13.4578 6.49662 12.8032 4.77114 11.6583 3.48366C10.5135 2.19618 8.9658 1.44511 7.33522 1.38568C5.70463 1.32624 4.11576 1.96298 2.89695 3.1643C1.67813 4.36562 0.922542 6.0397 0.786333 7.84057V7.84057ZM13.5333 172.443C13.6091 171.484 13.5007 170.519 13.2152 169.61C12.9298 168.701 12.4737 167.869 11.8771 167.169C11.2804 166.469 10.5568 165.917 9.75371 165.55C8.95064 165.182 8.08639 165.007 7.21785 165.036C6.38265 164.953 5.54097 165.066 4.7477 165.367C3.95443 165.668 3.22738 166.151 2.61397 166.784C2.00055 167.418 1.51454 168.187 1.18763 169.043C0.860722 169.898 0.700249 170.82 0.716681 171.749C0.414841 175.941 3.24749 179.207 7.68222 179.259C8.46285 179.239 9.23227 179.049 9.94652 178.699C10.6608 178.35 11.3059 177.848 11.8449 177.222C12.384 176.596 12.8064 175.859 13.0881 175.052C13.3699 174.245 13.5053 173.385 13.4868 172.52L13.5333 172.443ZM-59.1173 238.542C-59.1599 239.466 -59.0281 240.39 -58.7302 241.255C-58.4324 242.12 -57.975 242.907 -57.3873 243.565C-56.7996 244.224 -56.0945 244.739 -55.317 245.078C-54.5395 245.418 -53.7066 245.574 -52.8715 245.537C-51.5746 245.588 -50.2937 245.207 -49.1948 244.442C-48.096 243.677 -47.2298 242.564 -46.7086 241.248C-46.1875 239.931 -46.0353 238.472 -46.2719 237.058C-46.5084 235.645 -47.1228 234.343 -48.0354 233.32C-48.9479 232.298 -50.1166 231.603 -51.3899 231.326C-52.6633 231.048 -53.9825 231.2 -55.1768 231.763C-56.371 232.326 -57.3852 233.273 -58.0878 234.481C-58.7904 235.69 -59.149 237.104 -59.1173 238.542ZM6.7767 33.7141C5.94092 33.6818 5.10845 33.846 4.33411 34.196C3.55978 34.5459 2.86116 35.0735 2.28424 35.7442C1.70733 36.4148 1.26521 37.2132 0.987018 38.0868C0.708825 38.9604 0.600865 39.8894 0.670243 40.8126C0.58356 41.7854 0.692772 42.7675 0.990003 43.6879C1.28723 44.6084 1.76509 45.4444 2.38913 46.1356C3.01317 46.8269 3.76786 47.3562 4.59884 47.6855C5.42981 48.0147 6.31637 48.1357 7.19464 48.0396C8.07268 48.0573 8.94479 47.877 9.75797 47.5097C10.5712 47.1423 11.3084 46.5957 11.925 45.903C12.5415 45.2103 13.0245 44.3859 13.3445 43.4801C13.6645 42.5742 13.8149 41.6057 13.7866 40.6334C13.7582 39.6611 13.5517 38.7054 13.1795 37.8243C12.8074 36.9432 12.2774 36.1551 11.6217 35.5079C10.9661 34.8608 10.1985 34.368 9.36558 34.0596C8.53269 33.7513 7.65189 33.6337 6.7767 33.7141V33.7141ZM-15.7684 204.695C-15.7006 203.772 -15.8074 202.843 -16.082 201.968C-16.3566 201.092 -16.793 200.29 -17.3633 199.613C-17.9336 198.935 -18.6253 198.396 -19.3941 198.032C-20.163 197.667 -20.9921 197.484 -21.8284 197.494C-22.6998 197.39 -23.5812 197.489 -24.4161 197.784C-25.251 198.079 -26.021 198.564 -26.6768 199.209C-27.3325 199.853 -27.8596 200.641 -28.2242 201.524C-28.5888 202.407 -28.7829 203.364 -28.794 204.335C-28.8546 205.297 -28.7355 206.263 -28.4443 207.172C-28.153 208.081 -27.6957 208.914 -27.1009 209.619C-26.5062 210.324 -25.7867 210.885 -24.9874 211.268C-24.1882 211.651 -23.3262 211.847 -22.4553 211.845C-21.5809 211.914 -20.7031 211.779 -19.8791 211.448C-19.055 211.116 -18.3032 210.596 -17.6724 209.922C-17.0417 209.248 -16.5462 208.434 -16.2181 207.533C-15.8901 206.633 -15.7369 205.666 -15.7684 204.695V204.695ZM7.38038 132.373C5.70084 132.384 4.08976 133.111 2.88246 134.405C1.67516 135.698 0.964652 137.458 0.898837 139.317C0.833022 141.176 1.41696 142.991 2.52912 144.385C3.64127 145.779 5.19596 146.645 6.86958 146.801C7.75025 146.927 8.64507 146.841 9.49304 146.549C10.341 146.257 11.1222 145.766 11.7833 145.11C12.4444 144.453 12.9699 143.646 13.324 142.744C13.6781 141.842 13.8524 140.866 13.8351 139.883C13.4868 135.382 11.5597 132.553 7.38038 132.373ZM0.60059 73.2187C0.474293 74.1888 0.545117 75.1779 0.807892 76.1138C1.07067 77.0497 1.51876 77.9089 2.11947 78.6285C2.72019 79.3481 3.45838 79.9101 4.28017 80.2735C5.10195 80.6368 5.98661 80.7924 6.86958 80.7287C7.74535 80.8686 8.63827 80.7902 9.48319 80.4991C10.3281 80.208 11.1037 79.7117 11.7534 79.0462C12.403 78.3808 12.9104 77.5631 13.2384 76.6528C13.5664 75.7425 13.7068 74.7626 13.6494 73.7846C13.8119 69.1808 11.49 66.7118 7.17141 66.0688C3.34036 66.3774 0.716682 68.435 0.60059 73.2187ZM-15.6523 8.66358C-15.5513 7.69513 -15.6405 6.71393 -15.9138 5.78721C-16.187 4.8605 -16.6379 4.01016 -17.2355 3.29446C-17.8331 2.57876 -18.5633 2.01461 -19.3761 1.64065C-20.1889 1.26669 -21.065 1.09177 -21.9445 1.12787C-22.8611 1.0204 -23.7878 1.13646 -24.6596 1.46791C-25.5313 1.79936 -26.327 2.33815 -26.9908 3.04647C-27.6546 3.75479 -28.1704 4.61546 -28.5019 5.56806C-28.8335 6.52067 -28.9728 7.54212 -28.9101 8.56071C-28.9528 9.53143 -28.8124 10.5014 -28.4979 11.4086C-28.1834 12.3159 -27.7017 13.1407 -27.0835 13.8303C-26.4653 14.52 -25.7242 15.0593 -24.9073 15.4141C-24.0905 15.7688 -23.2159 15.9311 -22.3393 15.8907C-18.2064 15.4534 -15.722 13.1644 -15.6523 8.56071V8.66358ZM13.6262 106.911C13.6836 105.933 13.5432 104.953 13.2152 104.043C12.8872 103.132 12.3798 102.315 11.7301 101.649C11.0805 100.984 10.3049 100.487 9.45996 100.196C8.61505 99.9052 7.72213 99.8268 6.84635 99.9667C5.96339 99.903 5.07874 100.059 4.25695 100.422C3.43516 100.785 2.69698 101.347 2.09626 102.067C1.49554 102.787 1.04744 103.646 0.784668 104.582C0.521894 105.517 0.45107 106.507 0.577367 107.477C0.716677 112.132 3.27071 114.292 7.38038 114.524C8.27012 114.547 9.15382 114.356 9.97098 113.966C10.7881 113.575 11.5194 112.994 12.1148 112.261C12.7102 111.528 13.1555 110.661 13.4204 109.72C13.6853 108.779 13.7634 107.786 13.6494 106.808L13.6262 106.911ZM-29.2816 40.7354C-29.281 42.2514 -28.8772 43.7337 -28.1206 44.997C-27.3641 46.2604 -26.2883 47.2488 -25.0277 47.839C-23.767 48.4292 -22.3773 48.5949 -21.0322 48.3155C-19.687 48.0361 -18.4459 47.3238 -17.464 46.2678C-16.482 45.2118 -15.8027 43.8587 -15.5108 42.3776C-15.2189 40.8964 -15.3273 39.3528 -15.8227 37.9396C-16.318 36.5263 -17.1782 35.306 -18.2958 34.431C-19.4135 33.556 -20.7391 33.0651 -22.1071 33.0196C-23.9621 33.0626 -25.7335 33.8824 -27.0647 35.314C-28.3959 36.7456 -29.188 38.6828 -29.2816 40.7354V40.7354ZM-15.3505 172.186C-15.3 170.216 -15.951 168.302 -17.1629 166.859C-18.3749 165.415 -20.0506 164.557 -21.8284 164.47C-22.7454 164.411 -23.6637 164.554 -24.5308 164.889C-25.3978 165.225 -26.1963 165.748 -26.8804 166.426C-27.5645 167.105 -28.1206 167.927 -28.5167 168.845C-28.9129 169.763 -29.1413 170.759 -29.1887 171.775C-29.2037 173.82 -28.5084 175.794 -27.2464 177.288C-25.9845 178.781 -24.2526 179.68 -22.4089 179.799C-21.4942 179.813 -20.586 179.626 -19.7362 179.251C-18.8864 178.876 -18.1116 178.319 -17.4561 177.612C-16.8007 176.905 -16.2774 176.062 -15.9161 175.131C-15.5548 174.2 -15.3626 173.199 -15.3505 172.186V172.186ZM-59.4656 205.03C-59.417 206.994 -58.675 208.86 -57.3987 210.225C-56.1225 211.591 -54.4138 212.348 -52.6394 212.334C-50.792 212.334 -49.0203 211.521 -47.714 210.074C-46.4077 208.627 -45.6738 206.664 -45.6738 204.618C-45.7279 202.56 -46.5013 200.605 -47.831 199.165C-49.1607 197.726 -50.9428 196.915 -52.8019 196.902C-53.731 196.932 -54.6454 197.167 -55.4913 197.594C-56.3371 198.021 -57.0972 198.631 -57.7269 199.388C-58.3565 200.146 -58.843 201.035 -59.1575 202.004C-59.4721 202.973 -59.6084 204.001 -59.5585 205.03H-59.4656ZM-22.1071 131.833C-23.4757 131.833 -24.8138 132.281 -25.9543 133.119C-27.0948 133.957 -27.9872 135.148 -28.52 136.545C-29.0528 137.941 -29.2024 139.481 -28.9501 140.971C-28.6979 142.461 -28.0549 143.835 -27.1016 144.923C-26.1482 146.011 -24.9267 146.763 -23.5896 147.087C-22.2524 147.41 -20.8589 147.29 -19.5831 146.741C-18.3072 146.193 -17.2056 145.24 -16.4157 144.002C-15.6257 142.764 -15.1826 141.295 -15.1415 139.78C-15.1803 137.725 -15.9204 135.763 -17.2128 134.288C-18.5052 132.814 -20.254 131.936 -22.1071 131.833V131.833ZM-59.7674 8.22636C-59.7188 10.2826 -58.9768 12.2442 -57.6875 13.7247C-56.3983 15.2051 -54.6553 16.0972 -52.8019 16.225C-50.8695 16.212 -49.0182 15.3629 -47.643 13.8589C-46.2679 12.3549 -45.4779 10.3151 -45.4416 8.17492C-45.4416 6.08424 -46.1914 4.07918 -47.526 2.60085C-48.8606 1.12251 -50.6707 0.291992 -52.5581 0.291992C-54.4455 0.291992 -56.2556 1.12251 -57.5902 2.60085C-58.9248 4.07918 -59.6746 6.08424 -59.6746 8.17492L-59.7674 8.22636ZM-22.0839 65.503C-23.4927 65.4724 -24.8779 65.9066 -26.0634 66.7503C-27.2489 67.594 -28.1812 68.8091 -28.7416 70.2412C-29.3021 71.6732 -29.4655 73.2576 -29.211 74.7928C-28.9566 76.328 -28.2957 77.7447 -27.3126 78.8628C-26.3294 79.9809 -25.0682 80.75 -23.6895 81.0721C-22.3107 81.3943 -20.8766 81.2551 -19.5695 80.6721C-18.2624 80.0892 -17.1412 79.0888 -16.3486 77.7983C-15.5561 76.5078 -15.1278 74.9853 -15.1183 73.4245C-15.1891 71.3836 -15.9404 69.4442 -17.2269 67.9811C-18.5134 66.518 -20.2439 65.6351 -22.0839 65.503V65.503ZM-21.9678 99.1951C-23.3765 99.1343 -24.7698 99.5391 -25.9702 100.358C-27.1706 101.177 -28.124 102.373 -28.7089 103.794C-29.2938 105.215 -29.4839 106.797 -29.2549 108.337C-29.0259 109.878 -28.3882 111.309 -27.423 112.447C-26.4578 113.586 -25.2086 114.38 -23.8346 114.73C-22.4605 115.079 -21.0236 114.968 -19.7068 114.41C-18.3899 113.852 -17.2527 112.873 -16.4397 111.597C-15.6267 110.321 -15.1749 108.806 -15.1415 107.245C-15.1866 105.211 -15.9083 103.267 -17.1681 101.786C-18.428 100.305 -20.1372 99.3914 -21.9678 99.2208V99.1951ZM-45.4881 172.675C-45.4417 170.542 -46.1402 168.472 -47.4378 166.896C-48.7354 165.319 -50.5322 164.358 -52.4536 164.213C-53.3958 164.183 -54.3341 164.358 -55.2151 164.73C-56.096 165.101 -56.9023 165.661 -57.588 166.377C-58.2736 167.094 -58.8251 167.953 -59.211 168.905C-59.5969 169.858 -59.8096 170.885 -59.8371 171.929C-59.8645 172.973 -59.7061 174.012 -59.3709 174.988C-59.0357 175.964 -58.5303 176.857 -57.8835 177.616C-57.2367 178.376 -56.4612 178.987 -55.6012 179.414C-54.7413 179.842 -53.8137 180.077 -52.8715 180.108C-51.0336 180.082 -49.2677 179.312 -47.9074 177.942C-46.5471 176.573 -45.6865 174.699 -45.4881 172.675ZM-52.918 32.9168C-54.776 32.9505 -56.5475 33.7918 -57.8506 35.2593C-59.1536 36.7268 -59.8838 38.7028 -59.8835 40.7611C-59.8778 42.8925 -59.1188 44.9366 -57.7691 46.4557C-56.4194 47.9748 -54.5864 48.8481 -52.6626 48.8884C-50.744 48.8034 -48.9275 47.909 -47.585 46.3884C-46.2425 44.8679 -45.4757 42.8362 -45.4416 40.7097C-45.5318 38.5902 -46.3621 36.5925 -47.7571 35.1384C-49.1521 33.6844 -51.0026 32.8877 -52.918 32.9168V32.9168ZM-59.8835 139.806C-59.8515 141.397 -59.3956 142.942 -58.5732 144.247C-57.7508 145.553 -56.5986 146.56 -55.2612 147.142C-53.9239 147.724 -52.461 147.855 -51.0565 147.52C-49.6519 147.184 -48.3682 146.396 -47.3667 145.254C-46.3652 144.113 -45.6905 142.669 -45.4274 141.104C-45.1643 139.54 -45.3245 137.924 -45.8878 136.459C-46.4512 134.995 -47.3926 133.748 -48.5938 132.874C-49.795 132.001 -51.2025 131.54 -52.6394 131.55C-54.582 131.616 -56.4261 132.513 -57.7852 134.052C-59.1443 135.591 -59.9129 137.653 -59.93 139.806H-59.8835ZM-59.8835 73.6817C-59.8322 75.2877 -59.3522 76.8408 -58.5042 78.1446C-57.6561 79.4485 -56.4782 80.4446 -55.1192 81.0071C-53.7603 81.5696 -52.2813 81.6732 -50.8691 81.3048C-49.457 80.9364 -48.1752 80.1126 -47.1857 78.9374C-46.1961 77.7623 -45.5433 76.2885 -45.3098 74.7025C-45.0762 73.1165 -45.2723 71.4893 -45.8734 70.0267C-46.4745 68.5642 -47.4535 67.3318 -48.6867 66.4854C-49.9199 65.639 -51.352 65.2166 -52.8019 65.2715C-54.7523 65.3648 -56.5935 66.2944 -57.9366 67.8637C-59.2798 69.4331 -60.0195 71.5193 -59.9996 73.6817H-59.8835ZM-52.7554 98.9379C-54.2063 98.9635 -55.6177 99.4651 -56.8113 100.379C-58.0048 101.293 -58.9268 102.579 -59.4607 104.074C-59.9947 105.568 -60.1165 107.205 -59.8109 108.776C-59.5053 110.347 -58.7859 111.783 -57.7438 112.901C-56.7016 114.02 -55.3835 114.771 -53.956 115.059C-52.5286 115.348 -51.0559 115.161 -49.7242 114.523C-48.3925 113.884 -47.2617 112.823 -46.4746 111.473C-45.6875 110.122 -45.2795 108.544 -45.3023 106.937C-45.3741 104.796 -46.1895 102.769 -47.5783 101.279C-48.967 99.7883 -50.8218 98.9497 -52.7554 98.9379V98.9379Z" fill="#12AA8D"/>
</svg>