<svg width="24" height="28" viewBox="0 0 24 28" fill="none" xmlns="http://www.w3.org/2000/svg">
<path d="M12.0001 11.3334C11.6465 11.3334 11.3073 11.4739 11.0573 11.724C10.8072 11.974 10.6668 12.3132 10.6668 12.6668V15.3334C10.6668 15.6871 10.8072 16.0262 11.0573 16.2763C11.3073 16.5263 11.6465 16.6668 12.0001 16.6668C12.3537 16.6668 12.6928 16.5263 12.9429 16.2763C13.1929 16.0262 13.3334 15.6871 13.3334 15.3334V12.6668C13.3334 12.3132 13.1929 11.974 12.9429 11.724C12.6928 11.4739 12.3537 11.3334 12.0001 11.3334ZM23.2801 10.9068C23.1033 8.95292 22.4223 7.07842 21.3039 5.46665C20.1854 3.85489 18.6676 2.56107 16.8992 1.71177C15.1307 0.862473 13.172 0.486787 11.2148 0.621467C9.25762 0.756147 7.36889 1.39658 5.73342 2.48011C4.33235 3.41697 3.15616 4.65251 2.28934 6.09796C1.42253 7.54342 0.886612 9.16292 0.720085 10.8401C0.556729 12.5063 0.766317 14.188 1.33365 15.7631C1.90097 17.3383 2.81181 18.7674 4.00009 19.9468L11.0668 27.0268C11.1907 27.1517 11.3382 27.2509 11.5006 27.3186C11.6631 27.3863 11.8374 27.4212 12.0134 27.4212C12.1894 27.4212 12.3637 27.3863 12.5262 27.3186C12.6887 27.2509 12.8361 27.1517 12.9601 27.0268L20.0001 19.9468C21.1884 18.7674 22.0992 17.3383 22.6665 15.7631C23.2339 14.188 23.4434 12.5063 23.2801 10.8401V10.9068ZM18.1334 18.0668L12.0001 24.2001L5.86675 18.0668C4.96287 17.1628 4.27049 16.0699 3.83938 14.8665C3.40826 13.663 3.24913 12.379 3.37342 11.1068C3.49851 9.81491 3.9091 8.56699 4.57551 7.45323C5.24192 6.33948 6.14749 5.38772 7.22675 4.66678C8.64135 3.72709 10.3018 3.22584 12.0001 3.22584C13.6983 3.22584 15.3588 3.72709 16.7734 4.66678C17.8494 5.38493 18.753 6.33248 19.4192 7.44136C20.0855 8.55024 20.4979 9.79291 20.6267 11.0801C20.7551 12.3567 20.598 13.6458 20.1667 14.8542C19.7355 16.0625 19.041 17.1599 18.1334 18.0668V18.0668ZM13.2268 8.09344C13.2001 8.01153 13.1595 7.93485 13.1068 7.86678L12.9468 7.66678C12.7876 7.51563 12.5935 7.40613 12.3819 7.34798C12.1702 7.28983 11.9475 7.28484 11.7334 7.33344H11.4934L11.2534 7.45344L11.0534 7.62678L10.8934 7.82678C10.8406 7.89485 10.8 7.97153 10.7734 8.05344C10.7328 8.13284 10.7058 8.21846 10.6934 8.30678C10.6713 8.42543 10.6624 8.54616 10.6668 8.66678C10.6621 8.84598 10.6986 9.02387 10.7734 9.18678C10.8413 9.34414 10.9361 9.48851 11.0534 9.61344C11.1803 9.73803 11.3296 9.83755 11.4934 9.90678C11.8198 10.0308 12.1804 10.0308 12.5068 9.90678C12.6688 9.8343 12.8175 9.73515 12.9468 9.61344C13.0641 9.48851 13.1588 9.34414 13.2268 9.18678C13.2968 9.02235 13.3331 8.84551 13.3334 8.66678C13.3399 8.58246 13.3399 8.49776 13.3334 8.41344C13.321 8.30041 13.2846 8.19132 13.2268 8.09344V8.09344Z" fill="#898989"/>
</svg>
