<svg width="24" height="24" viewBox="0 0 24 24" fill="none" xmlns="http://www.w3.org/2000/svg">
<path fill-rule="evenodd" clip-rule="evenodd" d="M15.0727 22.8662C14.8155 21.5705 14.6345 19.1409 16.5876 19.2172C18.6646 19.2934 17.6261 21.418 18.0834 22.8472C17.3498 22.7424 15.7492 22.6852 15.0823 22.8662H15.0727ZM8.2605 19.7316C8.04137 20.6939 6.81231 20.5415 6.78373 19.8269C6.76467 19.1409 7.80318 18.9028 8.2605 19.7316ZM17.2355 17.9214V16.1683C20.1795 16.9877 22.9902 20.4557 22.3994 22.6852C21.8564 22.8758 20.2843 22.79 19.4935 22.7995C19.3506 20.9131 20.0842 19.2076 17.8643 18.2739L17.245 17.9119L17.2355 17.9214ZM8.37483 15.7872C8.67019 15.7015 11.6619 17.2259 11.8619 17.3974C12.6146 17.2354 13.1958 16.8257 13.8818 16.5018C15.7492 15.6157 15.9112 14.9964 15.7206 18.0262C15.2823 18.2644 14.0342 18.6265 13.6531 19.6268C13.3292 20.5034 13.5293 21.8182 13.4721 22.79C11.9191 22.8186 2.27718 22.9234 1.60072 22.6852C1.23867 21.3704 2.36292 19.3887 3.05844 18.5883C3.78254 17.769 5.27837 16.5685 6.75514 16.1683L6.74562 18.131C4.30655 18.8456 5.04971 21.6181 7.52688 21.5991C9.5372 21.58 10.2804 19.8936 9.31806 18.7313C8.99413 18.3406 8.85121 18.3597 8.25097 18.0929L8.27003 15.9301C8.27003 15.9111 8.30814 15.9016 8.30814 15.8634C8.30814 15.8253 8.33672 15.8158 8.35578 15.7968L8.37483 15.7872ZM9.73728 13.5482C11.8715 13.8531 12.1287 13.8531 14.2534 13.5482V14.9774C13.4626 15.1584 12.6908 15.8063 11.881 15.9778C11.4999 15.7015 10.1946 15.0822 9.73728 14.9774V13.5482ZM6.09774 5.44979C6.40262 5.25924 17.5308 5.34499 17.7405 5.3831L17.8929 5.45932C18.1883 5.89759 18.1501 7.89838 17.9024 8.32713C17.7595 10.5947 15.0251 12.6241 11.9286 12.5955C8.91791 12.5669 6.21207 10.5756 6.08821 8.32713C5.83097 7.88886 5.80238 5.90712 6.08821 5.45932L6.09774 5.44979ZM6.50743 4.20168C6.65034 3.66813 7.0505 3.32514 7.38396 2.95356C7.73649 2.55341 8.00326 2.39144 8.54633 2.07703C12.062 0.0285949 16.7686 1.92459 17.5213 4.20168H6.50743ZM1.53402 23.9905H22.4757C24.1525 23.2759 24.2097 22.6852 23.7714 20.9035C23.5046 19.8174 22.8282 18.6169 22.1994 17.8928C21.6372 17.264 21.0656 16.6733 20.2653 16.235C19.3506 15.7301 19.2744 15.5109 17.7786 15.025C17.1974 14.844 16.2637 14.7201 15.7492 14.4629C15.7301 12.7765 15.4634 13.129 16.721 12.4621C17.6071 11.9952 17.6928 11.6904 18.274 11.0425C19.8365 9.30847 19.9032 5.37357 18.7409 3.37278C17.1879 0.705054 14.6726 0.56214 12.9671 -0.019043H11.033C9.42287 0.52403 6.74562 0.733637 5.24978 3.36325C4.90679 3.96349 4.64002 4.67806 4.5638 5.44027C4.31608 7.98413 4.50663 9.98493 6.44073 11.8619C6.74562 12.1572 6.97428 12.2906 7.36491 12.5002C7.66026 12.6527 8.04137 12.8527 8.27003 13.0338L8.18428 14.4534C7.68885 14.7392 1.41969 15.549 0.200162 20.9798C-0.199997 22.7424 -0.133304 23.2664 1.5245 23.9714L1.53402 23.9905Z" fill="#898989"/>
</svg>
