<svg width="353" height="140" viewBox="0 0 353 140" fill="none" xmlns="http://www.w3.org/2000/svg">
<g clip-path="url(#clip0_1_473)">
<path d="M67.1355 76.6302C67.1355 76.6302 60.3656 68.8396 56.6561 65.9693C52.9466 63.0991 47.1637 61.2341 47.1637 61.2341C47.1637 61.2341 50.1313 45.4412 38.6583 42.4784C27.1853 39.5156 4.45133 50.7716 1.09289 90.4457C-2.26554 130.12 2.47734 134.663 10.3667 136.078C18.256 137.494 31.5242 128.38 36.8632 104.493C42.2023 80.6049 67.1355 76.6302 67.1355 76.6302Z" fill="#C5A8D9"/>
<path d="M70.4211 76.6302C70.4211 76.6302 77.1778 68.8396 80.9005 65.9693C84.6233 63.0991 90.3929 61.2341 90.3929 61.2341C90.3929 61.2341 87.4253 45.4412 98.8983 42.4784C110.371 39.5156 133.105 50.7716 136.464 90.4457C139.822 130.12 135.079 134.663 127.19 136.078C119.301 137.494 106.032 128.38 100.693 104.493C95.3544 80.6049 70.4211 76.6302 70.4211 76.6302Z" fill="#C5A8D9"/>
<path d="M90.7639 20.8916V26.3014C90.7639 27.1031 90.6057 27.8968 90.2985 28.6374C89.9912 29.378 89.5408 30.0509 88.9731 30.6178C88.4054 31.1846 87.7314 31.6342 86.9896 31.941C86.2478 32.2478 85.4527 32.4057 84.6498 32.4057H82.0598C80.4382 32.4057 78.8831 33.0488 77.7365 34.1935C76.5899 35.3383 75.9457 36.8909 75.9457 38.5099V41.0627C75.9457 42.6816 75.3015 44.2342 74.1549 45.379C73.0083 46.5237 71.4532 47.1669 69.8316 47.1669H64.4131C62.7938 47.1634 61.2421 46.5187 60.0983 45.3743C58.9546 44.2299 58.3122 42.6793 58.3123 41.0627V38.49C58.3123 36.8711 57.6681 35.3185 56.5215 34.1737C55.3749 33.0289 53.8197 32.3858 52.1982 32.3858H49.6214C48.8185 32.3858 48.0234 32.2279 47.2816 31.9212C46.5398 31.6144 45.8658 31.1648 45.2981 30.5979C44.7303 30.0311 44.28 29.3582 43.9727 28.6176C43.6655 27.877 43.5073 27.0832 43.5073 26.2816V20.8916C43.5073 19.2727 44.1515 17.7201 45.2981 16.5753C46.4447 15.4306 47.9998 14.7874 49.6214 14.7874H52.1982C53.0033 14.7874 53.8005 14.6287 54.5441 14.3203C55.2876 14.0118 55.9628 13.5598 56.5309 12.9902C57.099 12.4206 57.5488 11.7445 57.8545 11.0009C58.1602 10.2572 58.3157 9.46061 58.3123 8.65677V6.09737C58.3123 4.47843 58.9564 2.9258 60.103 1.78104C61.2496 0.636281 62.8048 -0.00683594 64.4263 -0.00683594H69.8449C71.4664 -0.00683594 73.0216 0.636281 74.1682 1.78104C75.3148 2.9258 75.959 4.47843 75.959 6.09737V8.65677C75.959 9.45839 76.1171 10.2522 76.4243 10.9928C76.7316 11.7333 77.182 12.4063 77.7497 12.9731C78.3175 13.5399 78.9915 13.9896 79.7333 14.2963C80.4751 14.6031 81.2701 14.761 82.073 14.761H84.663C85.4671 14.7627 86.2629 14.9228 87.0049 15.232C87.7469 15.5412 88.4205 15.9934 88.9872 16.5629C89.5539 17.1323 90.0025 17.8078 90.3074 18.5506C90.6122 19.2934 90.7674 20.0889 90.7639 20.8916Z" fill="#C5A8D9"/>
<path d="M168.796 130.728H164.265V134.921H169.313V136.177H162.761V124.551H169.054V125.807H164.265V129.484H168.796V130.728Z" fill="#C5A8D9"/>
<path d="M175.851 136.184L175.732 135.132H175.679C175.382 135.528 174.995 135.846 174.551 136.063C174.106 136.279 173.616 136.386 173.122 136.376C172.793 136.4 172.462 136.355 172.151 136.245C171.841 136.135 171.556 135.961 171.316 135.736C171.075 135.51 170.885 135.237 170.755 134.934C170.626 134.631 170.561 134.304 170.565 133.975C170.565 131.958 172.36 130.854 175.593 130.867V130.695C175.626 130.436 175.601 130.173 175.518 129.926C175.435 129.678 175.296 129.453 175.113 129.267C174.93 129.081 174.707 128.939 174.46 128.852C174.214 128.764 173.951 128.734 173.691 128.764C172.921 128.766 172.167 128.981 171.512 129.385L171.168 128.387C171.997 127.889 172.949 127.632 173.917 127.646C176.474 127.646 177.096 129.392 177.096 131.065V134.187C177.087 134.851 177.133 135.514 177.235 136.171L175.851 136.184ZM175.626 131.925C173.97 131.892 172.082 132.183 172.082 133.803C172.062 133.997 172.086 134.193 172.151 134.376C172.217 134.56 172.322 134.727 172.459 134.865C172.596 135.003 172.763 135.11 172.946 135.177C173.129 135.243 173.325 135.269 173.519 135.251C173.961 135.263 174.395 135.134 174.758 134.883C175.121 134.632 175.395 134.273 175.54 133.856C175.593 133.701 175.622 133.538 175.626 133.373V131.925Z" fill="#C5A8D9"/>
<path d="M179.348 134.63C179.946 135.003 180.631 135.21 181.336 135.232C182.442 135.232 182.959 134.683 182.959 133.988C182.959 133.294 182.528 132.864 181.402 132.454C179.898 131.918 179.189 131.092 179.189 130.093C179.189 128.77 180.276 127.639 182.078 127.639C182.795 127.632 183.502 127.81 184.131 128.155L183.753 129.26C183.24 128.944 182.648 128.776 182.044 128.777C181.144 128.777 180.647 129.293 180.647 129.914C180.647 130.536 181.15 130.913 182.237 131.33C183.687 131.879 184.429 132.606 184.429 133.849C184.429 135.318 183.29 136.349 181.303 136.349C180.483 136.365 179.673 136.169 178.951 135.781L179.348 134.63Z" fill="#C5A8D9"/>
<path d="M186.953 127.831L188.788 132.765C188.98 133.314 189.185 133.975 189.324 134.471H189.358C189.51 133.969 189.689 133.334 189.894 132.725L191.55 127.825H193.16L190.881 133.777C189.795 136.64 189.046 138.109 188.013 139.008C187.486 139.493 186.843 139.832 186.145 139.993L185.767 138.717C186.252 138.557 186.702 138.305 187.092 137.976C187.644 137.518 188.081 136.939 188.371 136.283C188.432 136.17 188.472 136.047 188.49 135.92C188.475 135.783 188.44 135.649 188.384 135.523L185.29 127.825L186.953 127.831Z" fill="#C5A8D9"/>
<path d="M202.837 136.184L202.718 135.133H202.665C202.369 135.528 201.982 135.847 201.537 136.063C201.093 136.279 200.603 136.386 200.108 136.376C199.779 136.4 199.449 136.355 199.138 136.245C198.827 136.135 198.543 135.961 198.302 135.736C198.062 135.51 197.871 135.237 197.742 134.934C197.613 134.631 197.548 134.304 197.551 133.975C197.551 131.958 199.347 130.854 202.579 130.867V130.695C202.613 130.436 202.587 130.173 202.504 129.926C202.421 129.678 202.283 129.453 202.1 129.267C201.916 129.081 201.693 128.939 201.447 128.852C201.201 128.765 200.938 128.734 200.678 128.764C199.908 128.766 199.154 128.981 198.499 129.385L198.148 128.36C198.977 127.863 199.929 127.606 200.897 127.62C203.454 127.62 204.076 129.366 204.076 131.039V134.16C204.066 134.824 204.113 135.488 204.215 136.144L202.837 136.184ZM202.612 131.925C200.956 131.892 199.068 132.183 199.068 133.803C199.049 133.997 199.073 134.193 199.138 134.376C199.203 134.56 199.308 134.727 199.446 134.865C199.583 135.004 199.749 135.11 199.932 135.177C200.116 135.244 200.311 135.269 200.506 135.252C200.947 135.263 201.381 135.134 201.744 134.883C202.108 134.633 202.381 134.273 202.526 133.856C202.58 133.701 202.609 133.538 202.612 133.373V131.925Z" fill="#C5A8D9"/>
<path d="M212.502 135.873C211.746 136.209 210.925 136.374 210.098 136.356C207.574 136.356 205.931 134.65 205.931 132.097C205.903 131.503 206 130.909 206.217 130.355C206.433 129.801 206.764 129.299 207.187 128.88C207.611 128.462 208.118 128.137 208.675 127.927C209.232 127.716 209.827 127.625 210.422 127.659C211.147 127.651 211.865 127.798 212.529 128.089L212.184 129.26C211.641 128.977 211.034 128.84 210.422 128.863C208.501 128.863 207.468 130.278 207.468 132.018C207.468 133.949 208.713 135.139 210.369 135.139C211.015 135.141 211.653 134.999 212.237 134.722L212.502 135.873Z" fill="#C5A8D9"/>
<path d="M220.146 135.873C219.39 136.209 218.569 136.374 217.742 136.356C215.218 136.356 213.575 134.65 213.575 132.097C213.547 131.503 213.645 130.909 213.861 130.355C214.078 129.801 214.408 129.299 214.832 128.88C215.255 128.462 215.762 128.137 216.319 127.927C216.876 127.716 217.472 127.625 218.066 127.659C218.791 127.651 219.509 127.798 220.173 128.089L219.828 129.26C219.286 128.977 218.678 128.84 218.066 128.863C216.145 128.863 215.112 130.278 215.112 132.018C215.112 133.949 216.357 135.139 218.013 135.139C218.659 135.141 219.298 134.999 219.881 134.722L220.146 135.873Z" fill="#C5A8D9"/>
<path d="M222.657 132.282C222.69 134.332 223.982 135.179 225.525 135.179C226.32 135.204 227.111 135.058 227.844 134.749L228.102 135.833C227.221 136.199 226.273 136.375 225.32 136.349C222.743 136.349 221.206 134.656 221.206 132.137C221.206 129.617 222.69 127.633 225.128 127.633C227.857 127.633 228.586 130.034 228.586 131.568C228.582 131.805 228.565 132.041 228.533 132.275L222.657 132.282ZM227.115 131.197C227.115 130.232 226.718 128.731 225.009 128.731C223.472 128.731 222.796 130.146 222.677 131.197H227.115Z" fill="#C5A8D9"/>
<path d="M230.275 134.63C230.872 135.003 231.558 135.21 232.262 135.232C233.368 135.232 233.885 134.683 233.885 133.988C233.885 133.294 233.454 132.864 232.328 132.454C230.824 131.918 230.116 131.092 230.116 130.093C230.116 128.77 231.202 127.639 233.004 127.639C233.723 127.631 234.433 127.809 235.064 128.155L234.686 129.26C234.173 128.944 233.581 128.776 232.977 128.777C232.076 128.777 231.58 129.293 231.58 129.914C231.58 130.536 232.083 130.913 233.169 131.33C234.62 131.879 235.362 132.606 235.362 133.849C235.362 135.318 234.223 136.349 232.235 136.349C231.416 136.365 230.606 136.169 229.884 135.781L230.275 134.63Z" fill="#C5A8D9"/>
<path d="M237.124 134.63C237.721 135.003 238.407 135.21 239.111 135.232C240.217 135.232 240.734 134.683 240.734 133.988C240.734 133.294 240.304 132.864 239.177 132.454C237.674 131.918 236.965 131.092 236.965 130.093C236.965 128.77 238.051 127.639 239.853 127.639C240.573 127.631 241.282 127.809 241.913 128.155L241.536 129.26C241.022 128.944 240.43 128.776 239.827 128.777C238.926 128.777 238.429 129.293 238.429 129.914C238.429 130.536 238.932 130.913 240.019 131.33C241.469 131.879 242.211 132.606 242.211 133.849C242.211 135.318 241.072 136.349 239.085 136.349C238.265 136.365 237.455 136.169 236.733 135.781L237.124 134.63Z" fill="#C5A8D9"/>
<path d="M249.677 125.431V127.831H251.856V128.989H249.677V133.492C249.677 134.531 249.968 135.113 250.816 135.113C251.113 135.116 251.409 135.081 251.697 135.007L251.763 136.144C251.338 136.292 250.889 136.362 250.439 136.349C250.133 136.365 249.828 136.314 249.544 136.2C249.26 136.085 249.005 135.911 248.796 135.688C248.332 135.063 248.122 134.286 248.206 133.512V128.956H246.881V127.831H248.206V125.847L249.677 125.431Z" fill="#C5A8D9"/>
<path d="M261.031 131.938C261.031 135.027 258.884 136.376 256.864 136.376C254.599 136.376 252.856 134.723 252.856 132.077C252.856 129.28 254.691 127.64 257.003 127.64C259.315 127.64 261.031 129.386 261.031 131.938ZM254.406 132.024C254.406 133.856 255.46 135.232 256.95 135.232C258.441 135.232 259.494 133.87 259.494 131.985C259.494 130.569 258.785 128.777 256.99 128.777C255.195 128.777 254.393 130.437 254.393 132.024H254.406Z" fill="#C5A8D9"/>
<path d="M273.828 127.831C273.795 128.433 273.762 129.108 273.762 130.126V134.974C273.762 136.892 273.384 138.062 272.57 138.79C271.716 139.489 270.632 139.845 269.529 139.788C268.559 139.822 267.598 139.593 266.747 139.127L267.125 137.97C267.868 138.411 268.718 138.64 269.582 138.631C271.139 138.631 272.278 137.818 272.278 135.715V134.782H272.245C271.966 135.227 271.573 135.59 271.108 135.835C270.643 136.08 270.121 136.198 269.595 136.177C267.522 136.177 266.038 134.418 266.038 132.104C266.038 129.273 267.886 127.666 269.807 127.666C270.335 127.635 270.861 127.754 271.324 128.011C271.786 128.267 272.165 128.65 272.417 129.114H272.45L272.517 127.858L273.828 127.831ZM272.258 131.138C272.264 130.914 272.235 130.691 272.172 130.477C272.044 130.013 271.766 129.604 271.382 129.313C270.998 129.023 270.528 128.867 270.046 128.87C268.595 128.87 267.555 130.093 267.555 132.024C267.555 133.664 268.383 135.027 270.026 135.027C270.497 135.023 270.954 134.871 271.333 134.592C271.711 134.313 271.991 133.921 272.133 133.473C272.215 133.209 272.255 132.935 272.252 132.659L272.258 131.138Z" fill="#C5A8D9"/>
<path d="M283.857 131.938C283.857 135.027 281.711 136.376 279.691 136.376C277.425 136.376 275.683 134.723 275.683 132.077C275.683 129.28 277.518 127.64 279.83 127.64C282.142 127.64 283.857 129.386 283.857 131.938ZM277.233 132.024C277.233 133.856 278.286 135.232 279.777 135.232C281.267 135.232 282.32 133.87 282.32 131.985C282.32 130.569 281.612 128.777 279.817 128.777C278.021 128.777 277.22 130.437 277.22 132.024H277.233Z" fill="#C5A8D9"/>
<path d="M293.343 131.938C293.343 135.027 291.197 136.376 289.177 136.376C286.911 136.376 285.169 134.723 285.169 132.077C285.169 129.28 287.004 127.64 289.316 127.64C291.627 127.64 293.343 129.386 293.343 131.938ZM286.719 132.024C286.719 133.856 287.772 135.232 289.263 135.232C290.753 135.232 291.806 133.87 291.806 131.985C291.806 130.569 291.098 128.777 289.302 128.777C287.507 128.777 286.712 130.437 286.712 132.024H286.719Z" fill="#C5A8D9"/>
<path d="M302.491 123.929V134.021C302.491 134.762 302.491 135.609 302.557 136.177H301.193L301.126 134.729H301.093C300.82 135.243 300.408 135.67 299.903 135.96C299.397 136.25 298.82 136.392 298.238 136.369C296.218 136.369 294.661 134.663 294.661 132.123C294.661 129.346 296.37 127.639 298.41 127.639C298.907 127.609 299.402 127.711 299.846 127.935C300.29 128.16 300.665 128.498 300.934 128.916H300.967V123.929H302.491ZM300.967 131.204C300.973 130.982 300.95 130.759 300.901 130.543C300.792 130.043 300.515 129.596 300.116 129.276C299.717 128.956 299.22 128.782 298.708 128.783C297.139 128.783 296.205 130.166 296.205 132.011C296.205 133.704 297.033 135.099 298.675 135.099C299.199 135.098 299.707 134.918 300.113 134.588C300.519 134.258 300.8 133.799 300.908 133.287C300.958 133.07 300.98 132.848 300.974 132.626L300.967 131.204Z" fill="#C5A8D9"/>
<path d="M308.685 123.929H310.208V129.141H310.241C310.498 128.691 310.874 128.32 311.328 128.069C311.8 127.793 312.337 127.644 312.884 127.639C314.01 127.639 315.806 128.301 315.806 131.211V136.177H314.282V131.383C314.282 130.06 313.779 128.896 312.348 128.896C311.891 128.905 311.449 129.056 311.083 129.329C310.717 129.602 310.446 129.982 310.308 130.417C310.223 130.65 310.187 130.897 310.202 131.144V136.184H308.678L308.685 123.929Z" fill="#C5A8D9"/>
<path d="M319.124 132.282C319.157 134.332 320.449 135.179 321.993 135.179C322.787 135.205 323.578 135.058 324.311 134.749L324.569 135.833C323.689 136.199 322.741 136.375 321.787 136.349C319.21 136.349 317.674 134.656 317.674 132.137C317.674 129.617 319.157 127.633 321.595 127.633C324.324 127.633 325.053 130.034 325.053 131.568C325.05 131.805 325.032 132.041 325 132.275L319.124 132.282ZM323.582 131.197C323.582 130.232 323.185 128.731 321.476 128.731C319.939 128.731 319.263 130.146 319.144 131.197H323.582Z" fill="#C5A8D9"/>
<path d="M331.571 136.184L331.452 135.132H331.399C331.102 135.528 330.715 135.846 330.271 136.063C329.826 136.279 329.336 136.386 328.842 136.376C328.513 136.4 328.182 136.355 327.871 136.245C327.561 136.135 327.276 135.961 327.036 135.736C326.795 135.51 326.605 135.237 326.475 134.934C326.346 134.631 326.281 134.304 326.285 133.975C326.285 131.958 328.08 130.854 331.313 130.867V130.695C331.346 130.436 331.321 130.173 331.238 129.926C331.155 129.678 331.016 129.453 330.833 129.267C330.65 129.081 330.427 128.939 330.18 128.852C329.934 128.764 329.671 128.734 329.411 128.764C328.641 128.766 327.887 128.981 327.232 129.385L326.888 128.387C327.717 127.889 328.669 127.632 329.637 127.646C332.194 127.646 332.816 129.392 332.816 131.065V134.187C332.806 134.851 332.853 135.515 332.955 136.171L331.571 136.184ZM331.346 131.925C329.69 131.892 327.802 132.183 327.802 133.803C327.782 133.997 327.806 134.193 327.871 134.376C327.937 134.56 328.042 134.727 328.179 134.865C328.316 135.003 328.483 135.11 328.666 135.177C328.849 135.243 329.045 135.269 329.239 135.251C329.687 135.27 330.129 135.143 330.499 134.891C330.869 134.638 331.147 134.273 331.293 133.849C331.346 133.694 331.375 133.531 331.379 133.367L331.346 131.925Z" fill="#C5A8D9"/>
<path d="M335.267 123.929H336.791V136.184H335.267V123.929Z" fill="#C5A8D9"/>
<path d="M341.189 125.431V127.831H343.369V128.989H341.189V133.492C341.189 134.531 341.481 135.113 342.329 135.113C342.626 135.116 342.922 135.081 343.21 135.007L343.276 136.144C342.85 136.292 342.401 136.362 341.951 136.349C341.645 136.365 341.34 136.314 341.057 136.2C340.773 136.085 340.517 135.911 340.308 135.688C339.845 135.063 339.634 134.286 339.719 133.512V128.956H338.394V127.831H339.719V125.847L341.189 125.431Z" fill="#C5A8D9"/>
<path d="M345.077 123.929H346.601V129.141H346.634C346.891 128.691 347.267 128.32 347.72 128.069C348.193 127.793 348.73 127.644 349.277 127.639C350.403 127.639 352.198 128.301 352.198 131.211V136.177H350.675V131.383C350.675 130.06 350.171 128.896 348.741 128.896C348.284 128.905 347.842 129.056 347.476 129.329C347.11 129.602 346.839 129.982 346.7 130.417C346.616 130.65 346.58 130.897 346.594 131.144V136.184H345.071L345.077 123.929Z" fill="#C5A8D9"/>
<path d="M177.017 67.4375H178.202C182.287 67.4375 186.054 69.1504 189.503 72.5761C193.001 69.1504 196.768 67.4375 200.804 67.4375H201.99C206.03 67.4375 209.784 69.1261 213.251 72.5034C215.045 74.4643 216.364 76.8108 217.106 79.3615C217.387 80.4425 217.545 81.5518 217.576 82.6683V115.795C217.578 115.813 217.576 115.831 217.571 115.848C217.565 115.865 217.555 115.881 217.542 115.893C217.529 115.906 217.514 115.916 217.497 115.922C217.48 115.927 217.462 115.929 217.444 115.927H209.137C209.025 115.927 208.972 115.881 208.972 115.795V83.7198C208.972 80.1926 207.19 77.7368 203.626 76.3524C203.056 76.1674 202.463 76.065 201.864 76.0482H201.526C201.517 76.0493 201.508 76.0483 201.499 76.0453C201.491 76.0424 201.483 76.0375 201.477 76.0312C201.47 76.0248 201.466 76.0171 201.463 76.0086C201.46 76.0001 201.459 75.991 201.46 75.9821L201.327 76.0482H200.956C198.541 76.0482 196.465 77.3555 194.73 79.97C194.134 81.2074 193.833 82.5653 193.849 83.938V115.795C193.851 115.813 193.849 115.831 193.843 115.848C193.837 115.865 193.827 115.881 193.815 115.893C193.802 115.906 193.786 115.916 193.769 115.922C193.752 115.927 193.734 115.929 193.716 115.927H185.31C185.292 115.929 185.274 115.927 185.257 115.922C185.24 115.916 185.225 115.906 185.212 115.893C185.199 115.881 185.189 115.865 185.183 115.848C185.177 115.831 185.176 115.813 185.178 115.795V83.3891C185.178 80.6644 183.813 78.4797 181.084 76.8352C180.136 76.3604 179.097 76.0943 178.037 76.0548H177.699C177.69 76.0559 177.681 76.0549 177.672 76.052C177.664 76.049 177.656 76.0442 177.65 76.0378C177.643 76.0314 177.639 76.0237 177.636 76.0152C177.633 76.0067 177.632 75.9976 177.633 75.9887L177.5 76.0548H177.229C174.725 76.0548 172.627 77.3775 170.936 80.0229C170.326 80.9929 170.022 82.6815 170.022 85.0888V115.795C170.024 115.813 170.022 115.831 170.016 115.848C170.01 115.865 170 115.881 169.988 115.893C169.975 115.906 169.959 115.916 169.942 115.922C169.925 115.927 169.907 115.929 169.889 115.927H161.589C161.571 115.929 161.553 115.927 161.536 115.922C161.519 115.916 161.504 115.906 161.491 115.893C161.478 115.881 161.468 115.865 161.462 115.848C161.456 115.831 161.455 115.813 161.457 115.795V83.0452C161.457 78.7421 163.329 74.8225 167.074 71.2865C170.32 68.7205 173.634 67.4375 177.017 67.4375Z" fill="#C5A8D9"/>
<path d="M244.331 67.4375H245.788C250.593 67.4375 255.296 69.1041 259.898 72.4373C263.961 75.7704 266.657 79.4872 267.986 83.5875L267.814 83.6537H258.58C256.571 80.3829 253.466 77.9293 249.816 76.7294C248.468 76.31 247.067 76.0872 245.656 76.068H245.179C245.17 76.0691 245.161 76.0681 245.153 76.0652C245.144 76.0622 245.136 76.0574 245.13 76.051C245.124 76.0447 245.119 76.0369 245.116 76.0284C245.113 76.0199 245.112 76.0108 245.113 76.0019L244.941 76.068H244.47C240.862 76.068 237.444 77.5098 234.216 80.3932C231.014 83.6823 229.414 87.2536 229.414 91.107V91.4443C229.416 91.5495 229.393 91.6538 229.347 91.7485C229.396 91.8304 229.419 91.9247 229.414 92.0197V92.2908C229.414 95.5799 230.644 98.7676 233.103 101.854C236.508 105.549 240.483 107.396 245.027 107.396C250.507 107.396 255.007 104.885 258.527 99.8632C258.526 99.8543 258.527 99.8452 258.53 99.8367C258.533 99.8282 258.537 99.8205 258.544 99.8141C258.55 99.8077 258.558 99.8029 258.566 99.7999C258.575 99.797 258.584 99.796 258.593 99.7971H267.834L268.006 99.8632C267.208 101.995 266.139 104.015 264.826 105.875C261.644 110.226 257.131 113.426 251.969 114.995C250.014 115.58 247.988 115.898 245.947 115.94H244.219C239.162 115.94 234.187 114.025 229.294 110.193C226.587 107.579 224.872 105.529 224.147 104.043C222.028 100.528 220.872 96.5184 220.796 92.4165V90.9615C220.796 85.4415 222.918 80.2036 227.161 75.248C229.143 73.1415 231.465 71.3822 234.031 70.0432C237.224 68.4122 240.745 67.5215 244.331 67.4375Z" fill="#C5A8D9"/>
<path d="M285.957 67.5166H287.143C291.294 67.5166 295.107 69.2802 298.583 72.8074C301.234 75.7352 302.715 79.5343 302.743 83.4815V115.795C302.745 115.813 302.743 115.832 302.737 115.85C302.73 115.867 302.72 115.883 302.707 115.896C302.693 115.909 302.677 115.918 302.659 115.924C302.641 115.929 302.622 115.93 302.603 115.927H294.25C294.233 115.929 294.214 115.927 294.197 115.921C294.18 115.915 294.165 115.906 294.152 115.893C294.139 115.88 294.13 115.865 294.124 115.848C294.118 115.831 294.116 115.813 294.118 115.795V92.2046H278.962V115.795C278.964 115.813 278.962 115.831 278.956 115.848C278.95 115.865 278.941 115.88 278.928 115.893C278.915 115.906 278.9 115.915 278.883 115.921C278.866 115.927 278.847 115.929 278.829 115.927H270.563C270.545 115.929 270.526 115.927 270.509 115.921C270.492 115.915 270.477 115.906 270.464 115.893C270.451 115.88 270.442 115.865 270.436 115.848C270.43 115.831 270.428 115.813 270.43 115.795V83.045C270.43 78.9887 272.168 75.2036 275.643 71.6897C278.999 68.9076 282.437 67.5166 285.957 67.5166ZM286.467 76.1141H286.162C283.795 76.1141 281.788 77.2957 280.141 79.6589C279.462 80.7336 279.088 81.9728 279.061 83.2434V83.5807H294.125V83.4484C294.125 80.7236 292.76 78.5192 290.031 76.8349C289.088 76.3845 288.062 76.1324 287.017 76.0942H286.679C286.67 76.0953 286.661 76.0943 286.652 76.0914C286.644 76.0884 286.636 76.0836 286.63 76.0772C286.623 76.0709 286.619 76.0631 286.616 76.0546C286.613 76.0461 286.612 76.037 286.613 76.0281L286.467 76.1141Z" fill="#C5A8D9"/>
<path d="M306.028 67.5166H329.484C334.448 67.5166 339.266 69.2802 343.938 72.8074C345.441 74.0493 346.812 75.4409 348.032 76.9606C351.348 81.5547 353.007 86.2635 353.007 91.0869V92.4096C353.007 98.0399 350.841 103.344 346.508 108.322C344.004 110.755 342.121 112.23 340.858 112.746C337.413 114.789 333.491 115.895 329.484 115.953H306.028C306.01 115.956 305.992 115.954 305.975 115.948C305.958 115.942 305.943 115.932 305.93 115.919C305.917 115.907 305.907 115.891 305.902 115.874C305.896 115.857 305.894 115.839 305.896 115.821V67.6753C305.916 67.5166 305.962 67.5166 306.028 67.5166ZM314.454 76.0678V107.323H326.331C326.985 107.323 327.853 107.345 328.935 107.389C332.746 107.389 336.279 105.958 339.533 103.097C342.783 99.8078 344.409 96.1484 344.409 92.1186V91.206C344.409 87.0615 342.627 83.3139 339.063 79.9631C336.29 77.7322 333.627 76.5043 331.074 76.2794C329.615 76.1073 328.145 76.0388 326.676 76.0744L314.454 76.0678Z" fill="#C5A8D9"/>
</g>
<defs>
<clipPath id="clip0_1_473">
<rect width="353" height="140" fill="white"/>
</clipPath>
</defs>
</svg>
