<svg width="410" height="501" viewBox="0 0 410 501" fill="none" xmlns="http://www.w3.org/2000/svg">
<path d="M247.818 112.288C243.544 111.904 240.695 110.142 240.695 106.514C240.633 105.006 241.3 103.54 242.549 102.438C243.797 101.336 245.526 100.689 247.353 100.638C249.181 100.587 250.958 101.137 252.294 102.167C253.629 103.197 254.414 104.623 254.476 106.131C254.724 109.758 251.998 111.649 247.818 112.288ZM286.653 133.722C285.011 133.722 283.435 134.26 282.273 135.219C281.112 136.177 280.459 137.476 280.459 138.832C280.459 140.187 281.112 141.486 282.273 142.445C283.435 143.403 285.011 143.941 286.653 143.941C288.296 143.941 289.871 143.403 291.033 142.445C292.195 141.486 292.847 140.187 292.847 138.832C292.847 137.476 292.195 136.177 291.033 135.219C289.871 134.26 288.296 133.722 286.653 133.722ZM167.638 330.005C166.879 329.968 166.12 330.064 165.409 330.285C164.698 330.506 164.051 330.849 163.511 331.29C162.97 331.73 162.549 332.26 162.273 332.844C161.996 333.428 161.872 334.054 161.909 334.68C161.801 335.346 161.874 336.023 162.123 336.662C162.372 337.301 162.79 337.887 163.348 338.376C163.905 338.865 164.588 339.246 165.346 339.491C166.104 339.735 166.919 339.837 167.731 339.79C169.308 339.79 170.82 339.273 171.935 338.353C173.05 337.433 173.677 336.185 173.677 334.884C173.677 333.583 173.05 332.336 171.935 331.416C170.82 330.496 169.308 329.979 167.731 329.979L167.638 330.005ZM286.653 101.404C285.011 101.404 283.435 101.943 282.273 102.901C281.112 103.859 280.459 105.159 280.459 106.514C280.459 107.869 281.112 109.169 282.273 110.127C283.435 111.085 285.011 111.623 286.653 111.623C288.296 111.623 289.871 111.085 291.033 110.127C292.195 109.169 292.847 107.869 292.847 106.514C292.847 105.159 292.195 103.859 291.033 102.901C289.871 101.943 288.296 101.404 286.653 101.404ZM129.143 372.21C129.903 372.223 130.658 372.104 131.359 371.86C132.06 371.617 132.691 371.254 133.211 370.796C133.731 370.338 134.128 369.795 134.377 369.203C134.626 368.61 134.721 367.98 134.655 367.355C134.743 366.673 134.641 365.984 134.358 365.339C134.075 364.694 133.618 364.111 133.021 363.634C132.424 363.156 131.704 362.797 130.914 362.583C130.124 362.369 129.285 362.306 128.462 362.399C127.632 362.372 126.806 362.488 126.034 362.739C125.262 362.99 124.561 363.37 123.978 363.857C123.394 364.343 122.939 364.924 122.643 365.564C122.346 366.203 122.214 366.886 122.255 367.57C122.296 368.253 122.509 368.922 122.881 369.534C123.252 370.146 123.774 370.688 124.414 371.124C125.053 371.561 125.795 371.883 126.593 372.069C127.392 372.256 128.228 372.304 129.05 372.21H129.143ZM49.9851 394.717C49.1654 394.697 48.3509 394.83 47.6015 395.104C46.852 395.379 46.1869 395.789 45.6549 396.304C45.123 396.819 44.7378 397.425 44.5278 398.079C44.3178 398.733 44.2884 399.417 44.4416 400.082C44.4376 400.71 44.5939 401.331 44.9004 401.906C45.207 402.481 45.6568 402.996 46.2207 403.418C46.7846 403.84 47.4498 404.159 48.1731 404.354C48.8964 404.55 49.6616 404.617 50.4187 404.553C54.2899 404.553 56.179 402.586 56.4268 399.443C56.4382 398.769 56.2735 398.1 55.9438 397.483C55.6141 396.865 55.1271 396.313 54.516 395.865C53.9049 395.417 53.1839 395.082 52.4021 394.884C51.6203 394.686 50.796 394.629 49.9851 394.717ZM15.9188 399.341C15.94 398.66 15.7813 397.983 15.4537 397.357C15.1262 396.731 14.6376 396.172 14.0219 395.717C13.4062 395.263 12.6781 394.924 11.888 394.725C11.0979 394.526 10.2647 394.471 9.44618 394.564C8.62915 394.548 7.81755 394.677 7.06644 394.943C6.31533 395.209 5.64229 395.604 5.09298 396.104C4.54367 396.603 4.13095 397.194 3.88282 397.836C3.6347 398.478 3.55697 399.157 3.65491 399.827C3.74526 401.182 4.48447 402.452 5.70994 403.357C6.9354 404.263 8.54673 404.73 10.1894 404.655C11.8322 404.581 13.3717 403.971 14.4694 402.96C15.5671 401.949 16.133 400.62 16.0427 399.264L15.9188 399.341ZM241.438 236.884C241.438 238.239 242.09 239.538 243.252 240.497C244.414 241.455 245.989 241.993 247.632 241.993C249.275 241.993 250.85 241.455 252.012 240.497C253.173 239.538 253.826 238.239 253.826 236.884C253.826 233.741 251.565 232.029 247.632 231.774C246.819 231.742 246.006 231.849 245.246 232.088C244.485 232.327 243.792 232.693 243.211 233.163C242.629 233.633 242.172 234.197 241.867 234.82C241.562 235.442 241.416 236.11 241.438 236.781V236.884ZM292.692 170.792C292.72 170.167 292.588 169.545 292.306 168.965C292.025 168.386 291.599 167.861 291.056 167.425C290.513 166.99 289.866 166.653 289.155 166.436C288.445 166.219 287.688 166.128 286.932 166.168C286.105 166.095 285.269 166.179 284.488 166.413C283.706 166.646 282.999 167.024 282.42 167.516C281.841 168.008 281.406 168.603 281.147 169.254C280.887 169.906 280.811 170.598 280.924 171.277C280.891 171.961 281.031 172.643 281.335 173.28C281.639 173.917 282.101 174.494 282.691 174.976C283.28 175.458 283.985 175.833 284.76 176.077C285.535 176.322 286.363 176.431 287.192 176.397C288.02 176.363 288.832 176.188 289.573 175.881C290.315 175.574 290.972 175.144 291.501 174.616C292.03 174.089 292.42 173.477 292.646 172.818C292.873 172.16 292.931 171.47 292.816 170.792H292.692ZM207.96 296.563C207.202 296.553 206.451 296.675 205.753 296.92C205.056 297.165 204.429 297.528 203.913 297.986C203.396 298.443 203.001 298.985 202.754 299.576C202.507 300.167 202.413 300.794 202.478 301.417C202.391 302.099 202.493 302.788 202.776 303.433C203.059 304.078 203.516 304.661 204.113 305.139C204.71 305.616 205.43 305.976 206.22 306.189C207.01 306.403 207.849 306.466 208.672 306.373C209.501 306.4 210.328 306.285 211.1 306.034C211.872 305.783 212.572 305.402 213.156 304.916C213.74 304.429 214.195 303.848 214.491 303.209C214.788 302.57 214.92 301.886 214.879 301.203C214.838 300.519 214.625 299.85 214.253 299.238C213.882 298.626 213.36 298.084 212.72 297.648C212.081 297.212 211.339 296.89 210.541 296.703C209.742 296.516 208.906 296.468 208.084 296.563H207.96ZM84.516 431.608C84.4617 432.177 84.5507 432.749 84.7774 433.289C85.0041 433.828 85.3636 434.323 85.8333 434.742C86.3031 435.161 86.8729 435.496 87.5069 435.725C88.141 435.953 88.8255 436.071 89.5176 436.071C90.2096 436.071 90.8941 435.953 91.5282 435.725C92.1622 435.496 92.732 435.161 93.2018 434.742C93.6715 434.323 94.031 433.828 94.2577 433.289C94.4845 432.749 94.5734 432.177 94.5191 431.608C94.42 430.57 93.8501 429.6 92.923 428.894C91.996 428.187 90.78 427.794 89.5176 427.794C88.2551 427.794 87.0391 428.187 86.1121 428.894C85.185 429.6 84.6151 430.57 84.516 431.608ZM55.7145 432.093C55.7307 431.513 55.6082 430.935 55.354 430.394C55.0998 429.853 54.7188 429.358 54.2328 428.938C53.7468 428.518 53.1653 428.181 52.5215 427.947C51.8777 427.712 51.1842 427.585 50.4806 427.571C49.7771 427.558 49.0771 427.659 48.4209 427.869C47.7646 428.078 47.1649 428.393 46.6559 428.794C46.1469 429.194 45.7386 429.674 45.4543 430.205C45.17 430.736 45.0153 431.308 44.9991 431.889C44.9902 433.053 45.532 434.174 46.5094 435.014C47.4867 435.853 48.8226 436.345 50.2329 436.385C51.6487 436.413 53.0201 435.977 54.0473 435.172C55.0745 434.368 55.6739 433.261 55.7145 432.093ZM4.33624 431.301C4.18363 431.925 4.20233 432.57 4.39097 433.187C4.5796 433.805 4.93339 434.38 5.42637 434.87C5.91936 435.36 6.53905 435.752 7.23998 436.019C7.94092 436.286 8.70533 436.42 9.47715 436.411C10.1809 436.493 10.8979 436.453 11.5817 436.293C12.2655 436.133 12.9009 435.856 13.4468 435.48C13.9927 435.104 14.4369 434.638 14.7507 434.112C15.0645 433.586 15.2409 433.011 15.2684 432.425C15.702 429.462 13.5651 427.852 9.94169 427.316C8.57634 427.294 7.24924 427.689 6.21482 428.424C5.18039 429.159 4.51145 430.184 4.33624 431.301ZM332.612 40.6519C332.546 39.4797 331.919 38.377 330.867 37.5865C329.816 36.796 328.427 36.3823 327.006 36.4365C325.585 36.4907 324.249 37.0084 323.29 37.8755C322.332 38.7427 321.831 39.8884 321.896 41.0606C322.113 43.6154 324.312 45.0205 327.781 45.2505C329.144 45.1235 330.4 44.582 331.305 43.7316C332.21 42.8813 332.698 41.7832 332.674 40.6519H332.612ZM327.812 101.966C327.046 101.834 326.255 101.847 325.496 102.005C324.738 102.163 324.034 102.461 323.436 102.877C322.839 103.294 322.365 103.817 322.05 104.407C321.735 104.997 321.587 105.639 321.618 106.284C321.531 106.865 321.593 107.454 321.799 108.014C322.005 108.574 322.352 109.092 322.816 109.535C323.28 109.978 323.851 110.336 324.493 110.586C325.134 110.835 325.832 110.971 326.542 110.985C327.289 111.098 328.057 111.083 328.797 110.94C329.536 110.797 330.232 110.529 330.841 110.153C331.449 109.778 331.957 109.303 332.332 108.758C332.707 108.213 332.942 107.61 333.021 106.986C333.1 106.363 333.023 105.733 332.793 105.135C332.562 104.538 332.185 103.986 331.684 103.515C331.183 103.043 330.57 102.662 329.882 102.396C329.194 102.13 328.447 101.983 327.688 101.966H327.812ZM322.02 8.51291C322.02 9.65122 322.568 10.7429 323.544 11.5478C324.52 12.3527 325.843 12.8049 327.223 12.8049C328.603 12.8049 329.926 12.3527 330.902 11.5478C331.878 10.7429 332.426 9.65122 332.426 8.51291C332.612 5.95814 330.413 4.39973 327.254 3.93988C324.095 4.39973 322.051 5.80485 322.082 8.48736L322.02 8.51291ZM321.742 72.9697C321.676 73.5995 321.781 74.2336 322.051 74.8254C322.32 75.4173 322.746 75.952 323.299 76.3904C323.851 76.8287 324.515 77.1597 325.242 77.3591C325.969 77.5585 326.741 77.6212 327.502 77.5427C328.21 77.5622 328.915 77.4585 329.572 77.2383C330.228 77.0182 330.821 76.6864 331.312 76.2647C331.803 75.8429 332.181 75.3407 332.421 74.7906C332.66 74.2405 332.757 73.6549 332.705 73.0719C332.705 70.1083 330.444 68.6521 326.975 68.3711C323.909 68.8565 321.803 70.2616 321.803 72.9441L321.742 72.9697ZM128.771 395.126C128.068 395.136 127.373 395.26 126.728 395.492C126.083 395.723 125.499 396.057 125.01 396.474C124.521 396.892 124.137 397.385 123.879 397.925C123.621 398.465 123.494 399.042 123.506 399.622C123.519 400.203 123.669 400.775 123.95 401.308C124.23 401.84 124.635 402.322 125.141 402.725C125.648 403.128 126.245 403.445 126.9 403.658C127.554 403.871 128.253 403.975 128.957 403.965C130.367 403.932 131.705 403.441 132.679 402.599C133.653 401.757 134.185 400.632 134.16 399.469C134.12 398.31 133.535 397.209 132.53 396.399C131.525 395.588 130.177 395.132 128.771 395.126ZM83.9276 399.367C83.9628 400.542 84.5393 401.662 85.5399 402.499C86.5405 403.336 87.8901 403.828 89.3141 403.873C90.7382 403.919 92.1298 403.515 93.206 402.744C94.2822 401.974 94.9621 400.894 95.1075 399.724C95.1857 399.096 95.1068 398.46 94.8758 397.858C94.6448 397.255 94.2665 396.698 93.7643 396.221C93.2621 395.744 92.6467 395.357 91.956 395.083C91.2653 394.81 90.514 394.656 89.7486 394.632C88.9831 394.607 88.2196 394.713 87.5053 394.941C86.7911 395.169 86.1411 395.516 85.5956 395.96C85.0502 396.404 84.6207 396.935 84.3338 397.521C84.0469 398.107 83.9087 398.735 83.9276 399.367ZM242.088 300.983C241.928 301.614 241.943 302.267 242.135 302.892C242.326 303.518 242.688 304.099 243.193 304.592C243.697 305.084 244.332 305.476 245.047 305.736C245.763 305.996 246.541 306.118 247.322 306.092C248.026 306.164 248.741 306.113 249.42 305.942C250.099 305.772 250.727 305.487 251.264 305.104C251.801 304.721 252.234 304.25 252.537 303.721C252.839 303.191 253.004 302.615 253.02 302.03C253.158 301.414 253.139 300.78 252.966 300.17C252.793 299.56 252.468 298.986 252.013 298.484C251.558 297.982 250.982 297.563 250.321 297.253C249.66 296.944 248.929 296.75 248.173 296.685C247.418 296.62 246.654 296.684 245.93 296.874C245.205 297.063 244.537 297.375 243.965 297.788C243.394 298.201 242.932 298.707 242.609 299.275C242.286 299.842 242.109 300.458 242.088 301.085V300.983ZM292.414 203.442C292.502 202.82 292.423 202.19 292.182 201.596C291.942 201.002 291.546 200.459 291.023 200.006C290.5 199.552 289.862 199.199 289.155 198.972C288.448 198.744 287.689 198.648 286.932 198.69C286.123 198.591 285.298 198.649 284.522 198.861C283.745 199.072 283.04 199.431 282.462 199.907C281.884 200.384 281.449 200.966 281.193 201.607C280.937 202.247 280.866 202.928 280.986 203.595C281.01 204.842 281.634 206.029 282.721 206.896C283.807 207.764 285.266 208.239 286.777 208.219C288.288 208.199 289.728 207.684 290.779 206.788C291.83 205.892 292.407 204.688 292.383 203.442H292.414ZM327.75 207.657C329.129 207.586 330.419 207.065 331.333 206.21C332.248 205.355 332.714 204.235 332.627 203.097C332.541 201.958 331.91 200.895 330.873 200.14C329.837 199.386 328.479 199.002 327.099 199.073C326.4 199.089 325.711 199.22 325.072 199.456C324.434 199.692 323.858 200.03 323.377 200.45C322.897 200.87 322.522 201.364 322.273 201.903C322.024 202.443 321.907 203.018 321.927 203.595C322.733 206.201 324.56 207.989 327.781 207.683L327.75 207.657ZM321.896 138.474C321.851 139.646 322.372 140.785 323.345 141.64C324.318 142.496 325.663 142.997 327.084 143.034C328.505 143.071 329.885 142.642 330.922 141.839C331.959 141.036 332.567 139.927 332.612 138.755C332.612 136.2 330.537 134.693 327.409 134.233C326.008 134.225 324.658 134.665 323.642 135.461C322.626 136.256 322.022 137.345 321.958 138.499L321.896 138.474ZM213.844 335.191C213.949 334.562 213.881 333.922 213.645 333.317C213.41 332.713 213.013 332.16 212.484 331.699C211.955 331.238 211.307 330.881 210.589 330.654C209.87 330.427 209.099 330.336 208.332 330.388C207.625 330.341 206.915 330.418 206.246 330.612C205.578 330.807 204.967 331.116 204.452 331.518C203.938 331.921 203.533 332.408 203.262 332.948C202.991 333.489 202.861 334.07 202.881 334.654C202.695 337.618 204.925 339.151 208.332 339.56C209.046 339.577 209.757 339.477 210.425 339.266C211.092 339.055 211.703 338.738 212.221 338.332C212.739 337.926 213.154 337.439 213.444 336.9C213.733 336.361 213.89 335.78 213.906 335.191H213.844ZM242.522 334.552C242.422 335.123 242.474 335.704 242.677 336.256C242.879 336.808 243.226 337.316 243.693 337.745C244.16 338.174 244.735 338.513 245.378 338.738C246.021 338.964 246.717 339.07 247.415 339.049C248.053 339.094 248.696 339.031 249.304 338.865C249.912 338.698 250.473 338.431 250.951 338.079C251.429 337.728 251.816 337.299 252.086 336.82C252.357 336.341 252.506 335.821 252.525 335.293C252.773 332.738 250.76 331.154 247.632 330.72C246.36 330.717 245.133 331.11 244.197 331.82C243.262 332.531 242.685 333.506 242.584 334.552H242.522ZM286.653 264.833C285.273 264.799 283.934 265.219 282.929 265.999C281.924 266.78 281.337 267.859 281.296 268.997C281.254 270.135 281.763 271.24 282.71 272.069C283.657 272.898 284.964 273.383 286.344 273.417C289.44 273.621 291.392 271.833 292.042 269.022C291.935 267.908 291.332 266.866 290.348 266.097C289.364 265.327 288.07 264.886 286.715 264.858L286.653 264.833ZM241.81 268.818C241.781 269.435 241.9 270.051 242.16 270.631C242.42 271.21 242.816 271.741 243.325 272.194C243.834 272.648 244.446 273.014 245.127 273.271C245.807 273.529 246.543 273.674 247.291 273.698C248.039 273.721 248.786 273.623 249.488 273.408C250.191 273.194 250.835 272.867 251.384 272.447C251.933 272.027 252.377 271.522 252.69 270.961C253.002 270.4 253.178 269.793 253.206 269.176C253.206 266.238 251.193 264.73 247.415 264.322C246.69 264.315 245.97 264.427 245.298 264.651C244.626 264.875 244.014 265.207 243.499 265.628C242.983 266.049 242.574 266.549 242.295 267.101C242.015 267.653 241.871 268.246 241.871 268.844L241.81 268.818ZM173.336 367.33C173.41 366.701 173.313 366.066 173.052 365.472C172.79 364.878 172.371 364.339 171.825 363.896C171.278 363.453 170.619 363.116 169.895 362.91C169.17 362.704 168.399 362.634 167.638 362.706C166.93 362.68 166.223 362.777 165.564 362.99C164.905 363.204 164.307 363.53 163.811 363.947C163.314 364.364 162.929 364.862 162.682 365.41C162.434 365.958 162.329 366.542 162.373 367.126C162.373 370.089 164.603 371.571 168.04 371.852C171.23 371.418 173.336 370.012 173.336 367.33ZM208.734 363.089C208.031 363.008 207.316 363.057 206.639 363.233C205.962 363.409 205.341 363.707 204.822 364.106C204.303 364.505 203.898 364.995 203.637 365.539C203.377 366.084 203.266 366.669 203.315 367.253C203.272 367.781 203.362 368.31 203.578 368.808C203.793 369.306 204.131 369.762 204.57 370.148C205.008 370.534 205.538 370.841 206.127 371.05C206.715 371.26 207.35 371.368 207.991 371.366C211.088 371.494 212.946 369.808 213.442 367.177C213.407 366.139 212.906 365.149 212.036 364.398C211.166 363.647 209.99 363.19 208.734 363.115V363.089ZM287.149 232.311C286.388 232.213 285.61 232.259 284.873 232.443C284.136 232.627 283.458 232.946 282.89 233.375C282.323 233.804 281.879 234.333 281.592 234.922C281.305 235.512 281.183 236.147 281.234 236.781C281.155 237.369 281.228 237.964 281.448 238.526C281.667 239.089 282.029 239.607 282.509 240.046C282.988 240.485 283.575 240.836 284.231 241.074C284.887 241.313 285.596 241.435 286.313 241.431C289.905 241.635 291.794 239.821 292.352 237.037C292.389 236.445 292.284 235.854 292.042 235.296C291.8 234.739 291.426 234.226 290.942 233.789C290.458 233.352 289.873 232.998 289.222 232.749C288.571 232.499 287.866 232.359 287.149 232.336V232.311ZM327.781 166.653C327.077 166.618 326.372 166.697 325.706 166.887C325.039 167.076 324.425 167.372 323.897 167.758C323.369 168.143 322.939 168.611 322.63 169.134C322.321 169.656 322.14 170.224 322.098 170.804C322.055 171.385 322.151 171.967 322.381 172.516C322.611 173.066 322.97 173.573 323.437 174.008C323.904 174.444 324.471 174.799 325.105 175.053C325.738 175.308 326.427 175.457 327.13 175.492C330.227 175.646 332.085 173.883 332.767 171.354C332.844 170.192 332.37 169.052 331.445 168.174C330.52 167.297 329.216 166.751 327.812 166.653H327.781ZM168.102 428.491C167.53 428.423 166.946 428.463 166.395 428.608C165.844 428.754 165.341 429.001 164.923 429.331C164.505 429.661 164.184 430.065 163.983 430.513C163.783 430.96 163.709 431.44 163.767 431.914C163.732 432.342 163.806 432.77 163.983 433.172C164.159 433.575 164.436 433.943 164.794 434.253C165.152 434.562 165.584 434.807 166.063 434.972C166.542 435.137 167.057 435.218 167.576 435.21C170.301 435.21 171.664 433.958 171.974 431.838C171.695 429.871 170.456 428.568 168.102 428.491ZM124.312 431.684C124.22 432.156 124.256 432.638 124.416 433.096C124.577 433.555 124.858 433.978 125.239 434.337C125.621 434.695 126.093 434.98 126.624 435.171C127.154 435.362 127.729 435.453 128.307 435.44C129.183 435.506 130.062 435.354 130.832 435.003C131.602 434.652 132.226 434.119 132.625 433.472C133.024 432.826 133.179 432.096 133.069 431.376C132.96 430.656 132.591 429.98 132.011 429.434C131.431 428.889 130.666 428.5 129.815 428.317C128.964 428.134 128.066 428.165 127.237 428.408C126.408 428.65 125.687 429.092 125.165 429.676C124.644 430.26 124.346 430.96 124.312 431.684ZM331.807 237.216C331.929 236.692 331.902 236.153 331.729 235.64C331.556 235.127 331.241 234.653 330.809 234.257C330.376 233.861 329.839 233.553 329.239 233.357C328.638 233.161 327.991 233.083 327.347 233.128C326.765 233.066 326.174 233.107 325.613 233.25C325.052 233.393 324.536 233.634 324.098 233.956C323.66 234.279 323.311 234.675 323.076 235.118C322.84 235.562 322.723 236.042 322.733 236.526C322.516 239.081 324.095 240.46 327.564 240.69C328.122 240.697 328.676 240.612 329.195 240.44C329.713 240.269 330.184 240.014 330.582 239.691C330.98 239.367 331.296 238.982 331.511 238.557C331.727 238.132 331.838 237.676 331.838 237.216H331.807ZM370.333 236.73C370.214 235.926 369.731 235.188 368.981 234.664C368.232 234.14 367.27 233.869 366.288 233.904C365.307 233.94 364.377 234.279 363.686 234.855C362.995 235.431 362.592 236.201 362.559 237.011C362.6 237.865 363.043 238.672 363.796 239.259C364.548 239.847 365.55 240.168 366.585 240.154C368.908 239.719 370.549 238.672 370.363 236.705L370.333 236.73ZM366.307 174.598C366.829 174.659 367.361 174.63 367.869 174.512C368.376 174.395 368.849 174.191 369.257 173.915C369.664 173.639 369.998 173.296 370.236 172.908C370.475 172.52 370.613 172.095 370.642 171.66C370.787 171.19 370.801 170.698 370.683 170.222C370.565 169.746 370.318 169.299 369.96 168.913C369.603 168.527 369.144 168.213 368.619 167.994C368.093 167.775 367.514 167.658 366.926 167.649C366.343 167.567 365.745 167.586 365.172 167.706C364.598 167.825 364.061 168.042 363.595 168.343C363.13 168.643 362.745 169.021 362.467 169.452C362.188 169.882 362.022 170.356 361.979 170.842C361.935 171.329 362.016 171.818 362.215 172.277C362.414 172.737 362.727 173.157 363.135 173.511C363.542 173.864 364.035 174.144 364.581 174.331C365.127 174.518 365.715 174.609 366.307 174.598ZM370.797 41.1373C370.92 40.6709 370.917 40.188 370.789 39.7226C370.661 39.2571 370.411 38.8204 370.057 38.443C369.703 38.0657 369.253 37.7568 368.739 37.5382C368.225 37.3195 367.659 37.1964 367.081 37.1774C366.493 37.1014 365.893 37.1245 365.317 37.2452C364.741 37.3659 364.2 37.5817 363.728 37.8797C363.256 38.1776 362.862 38.5515 362.569 38.9787C362.277 39.4058 362.093 39.8774 362.028 40.365C361.963 40.8525 362.019 41.3458 362.191 41.8151C362.364 42.2845 362.65 42.72 363.033 43.0955C363.415 43.471 363.886 43.7785 364.417 43.9996C364.948 44.2207 365.527 44.3507 366.121 44.3818C366.7 44.4595 367.293 44.4324 367.859 44.3027C368.424 44.1729 368.949 43.9434 369.396 43.63C369.844 43.3167 370.204 42.927 370.451 42.4878C370.698 42.0486 370.827 41.5704 370.828 41.0862L370.797 41.1373ZM370.549 203.467C370.606 202.995 370.532 202.518 370.334 202.073C370.135 201.627 369.817 201.225 369.402 200.895C368.988 200.566 368.489 200.318 367.942 200.17C367.395 200.023 366.815 199.98 366.245 200.044C365.726 200.032 365.21 200.11 364.73 200.272C364.249 200.433 363.815 200.676 363.454 200.983C363.093 201.29 362.813 201.656 362.633 202.058C362.452 202.459 362.374 202.887 362.404 203.314C362.404 205.562 364.077 206.661 366.678 206.814C367.724 206.781 368.713 206.413 369.436 205.788C370.159 205.163 370.558 204.331 370.549 203.467ZM10.4372 461.499C9.80863 461.415 9.16584 461.442 8.55036 461.576C7.93488 461.71 7.3604 461.95 6.86401 462.278C6.36761 462.607 5.96035 463.018 5.66853 463.485C5.37671 463.952 5.20681 464.464 5.16981 464.988C5.1328 465.513 5.22952 466.037 5.45371 466.529C5.6779 467.021 6.02458 467.468 6.47135 467.842C6.91813 468.216 7.45508 468.509 8.0475 468.701C8.63993 468.893 9.27466 468.981 9.91072 468.959C12.636 468.959 14.1535 467.681 14.4323 465.203C14.4614 464.746 14.3799 464.288 14.1925 463.858C14.0051 463.427 13.7156 463.031 13.3409 462.693C12.9662 462.355 12.5137 462.083 12.0098 461.891C11.506 461.699 10.9608 461.592 10.4062 461.575L10.4372 461.499ZM50.1709 461.729C49.6447 461.707 49.1188 461.776 48.6264 461.931C48.1341 462.086 47.686 462.323 47.3105 462.628C46.9351 462.933 46.6404 463.299 46.4451 463.702C46.2498 464.106 46.1581 464.539 46.1759 464.973C46.055 465.456 46.0711 465.955 46.223 466.431C46.3748 466.908 46.6583 467.349 47.0512 467.72C47.4441 468.091 47.9358 468.382 48.4877 468.57C49.0397 468.759 49.637 468.839 50.2329 468.805C53.0201 468.805 54.4447 467.553 54.6615 465.024C54.6442 464.562 54.5103 464.108 54.2682 463.692C54.0262 463.275 53.6813 462.904 53.2558 462.604C52.8302 462.303 52.3332 462.079 51.7967 461.946C51.2602 461.813 50.6959 461.774 50.14 461.831L50.1709 461.729ZM93.5281 465.433C93.6109 464.961 93.5623 464.479 93.3859 464.025C93.2095 463.57 92.9099 463.155 92.51 462.81C92.11 462.465 91.6201 462.2 91.0775 462.035C90.5349 461.87 89.9537 461.809 89.3782 461.856C88.8604 461.828 88.3411 461.889 87.8532 462.034C87.3653 462.18 86.9194 462.408 86.5439 462.703C86.1683 462.999 85.8712 463.355 85.6714 463.751C85.4716 464.146 85.3734 464.571 85.3831 464.999C85.2953 465.485 85.3394 465.981 85.5121 466.451C85.6847 466.921 85.9817 467.354 86.3817 467.718C86.7816 468.082 87.2745 468.369 87.8248 468.557C88.3751 468.745 88.9691 468.829 89.564 468.805C91.8248 468.473 93.4971 467.451 93.59 465.51L93.5281 465.433ZM366.771 69.4441C366.203 69.3506 365.616 69.3611 365.053 69.4749C364.49 69.5886 363.964 69.8028 363.512 70.1025C363.061 70.4021 362.694 70.7798 362.438 71.209C362.183 71.6381 362.044 72.1084 362.033 72.5865C361.887 73.0999 361.892 73.6345 362.047 74.146C362.201 74.6576 362.501 75.1315 362.922 75.5284C363.343 75.9254 363.872 76.234 364.466 76.4288C365.06 76.6236 365.701 76.6989 366.337 76.6485C369.063 76.6485 370.518 75.4478 370.797 72.9186C370.831 72.4719 370.754 72.0243 370.573 71.6026C370.391 71.1808 370.109 70.7937 369.741 70.4644C369.374 70.1351 368.93 69.8705 368.435 69.6864C367.941 69.5023 367.406 69.4025 366.864 69.393L366.771 69.4441ZM366.771 102.912C366.211 102.826 365.635 102.842 365.084 102.959C364.532 103.075 364.018 103.289 363.576 103.585C363.134 103.882 362.776 104.253 362.525 104.675C362.275 105.097 362.139 105.559 362.126 106.028C362.028 106.75 362.195 107.479 362.605 108.122C363.015 108.764 363.649 109.29 364.426 109.632C365.203 109.974 366.086 110.116 366.961 110.039C367.836 109.962 368.664 109.671 369.336 109.202C370.008 108.733 370.494 108.108 370.731 107.409C370.968 106.71 370.946 105.968 370.666 105.279C370.386 104.591 369.863 103.987 369.163 103.547C368.463 103.107 367.619 102.85 366.74 102.809L366.771 102.912ZM370.735 8.38517C370.774 7.95143 370.703 7.51579 370.527 7.10584C370.351 6.69589 370.073 6.32054 369.712 6.00356C369.352 5.68657 368.915 5.43485 368.43 5.26432C367.945 5.09379 367.422 5.00817 366.895 5.01288C366.32 4.92346 365.728 4.94277 365.163 5.06936C364.598 5.19595 364.076 5.42652 363.634 5.74373C363.193 6.06095 362.845 6.45655 362.616 6.90079C362.387 7.34503 362.283 7.82634 362.311 8.30853C362.311 10.6078 363.736 11.8086 366.864 12.0385C367.411 12.0043 367.944 11.8782 368.429 11.6681C368.915 11.4579 369.344 11.1682 369.689 10.8165C370.034 10.4648 370.288 10.0587 370.436 9.62305C370.584 9.18739 370.623 8.73137 370.549 8.28298L370.735 8.38517ZM282.689 334.45C282.569 334.914 282.576 335.393 282.71 335.854C282.844 336.315 283.102 336.745 283.465 337.113C283.827 337.481 284.285 337.777 284.805 337.979C285.325 338.182 285.893 338.285 286.467 338.282C286.984 338.347 287.511 338.322 288.015 338.209C288.519 338.095 288.989 337.897 289.394 337.625C289.8 337.353 290.132 337.014 290.369 336.63C290.606 336.246 290.744 335.826 290.772 335.395C290.875 334.948 290.868 334.488 290.75 334.044C290.631 333.599 290.406 333.179 290.085 332.808C289.765 332.438 289.357 332.124 288.886 331.887C288.415 331.65 287.891 331.494 287.345 331.428C286.799 331.363 286.243 331.389 285.709 331.505C285.176 331.622 284.677 331.826 284.242 332.106C283.807 332.386 283.445 332.736 283.178 333.134C282.911 333.533 282.745 333.972 282.689 334.424V334.45ZM331.187 301.621C331.154 300.811 330.752 300.041 330.06 299.465C329.369 298.889 328.44 298.55 327.458 298.514C326.477 298.479 325.515 298.75 324.765 299.274C324.015 299.798 323.533 300.536 323.414 301.34C323.414 303.307 324.869 304.355 327.161 304.764C328.202 304.777 329.208 304.453 329.961 303.86C330.714 303.268 331.155 302.454 331.187 301.596V301.621ZM287.335 297.636C286.725 297.614 286.115 297.692 285.542 297.864C284.968 298.036 284.441 298.3 283.991 298.641C283.541 298.981 283.176 299.392 282.918 299.848C282.661 300.305 282.514 300.799 282.488 301.302C282.461 301.805 282.555 302.308 282.764 302.781C282.973 303.254 283.293 303.689 283.706 304.06C284.119 304.432 284.616 304.732 285.17 304.945C285.723 305.158 286.322 305.278 286.932 305.3C289.657 305.3 291.144 303.997 291.453 301.519C291.528 301.035 291.477 300.544 291.305 300.078C291.132 299.611 290.842 299.181 290.452 298.814C290.063 298.447 289.584 298.152 289.047 297.949C288.509 297.746 287.926 297.639 287.335 297.636ZM247.725 363.651C247.202 363.59 246.67 363.62 246.163 363.737C245.655 363.855 245.182 364.058 244.775 364.334C244.367 364.611 244.033 364.954 243.795 365.342C243.556 365.73 243.418 366.155 243.389 366.589C243.244 367.06 243.23 367.551 243.348 368.027C243.466 368.503 243.713 368.95 244.071 369.336C244.428 369.722 244.887 370.036 245.412 370.255C245.938 370.474 246.517 370.592 247.105 370.6C247.688 370.682 248.286 370.663 248.859 370.544C249.433 370.424 249.97 370.207 250.436 369.907C250.902 369.606 251.286 369.228 251.565 368.798C251.843 368.367 252.009 367.893 252.053 367.407C252.096 366.92 252.016 366.431 251.816 365.972C251.617 365.512 251.304 365.092 250.896 364.739C250.489 364.385 249.996 364.106 249.45 363.918C248.904 363.731 248.316 363.64 247.725 363.651ZM172.345 399.827C172.467 399.303 172.44 398.764 172.267 398.251C172.094 397.737 171.779 397.264 171.347 396.868C170.915 396.472 170.378 396.164 169.777 395.968C169.177 395.772 168.529 395.694 167.886 395.739C167.304 395.676 166.712 395.718 166.152 395.861C165.591 396.004 165.074 396.245 164.636 396.567C164.199 396.89 163.85 397.286 163.614 397.729C163.379 398.173 163.262 398.653 163.271 399.137C163.054 401.691 164.634 403.071 168.102 403.301C168.658 403.304 169.209 403.217 169.724 403.044C170.238 402.871 170.706 402.615 171.101 402.292C171.495 401.969 171.808 401.585 172.022 401.162C172.235 400.739 172.345 400.285 172.345 399.827ZM207.991 395.994C207.464 395.99 206.941 396.075 206.456 396.246C205.971 396.416 205.534 396.668 205.173 396.985C204.812 397.302 204.535 397.677 204.359 398.087C204.183 398.497 204.112 398.933 204.151 399.367C204.077 399.846 204.136 400.334 204.323 400.792C204.511 401.25 204.822 401.667 205.234 402.012C205.646 402.356 206.147 402.619 206.699 402.78C207.252 402.942 207.842 402.998 208.425 402.943C211.243 402.943 212.543 401.538 212.667 399.29C212.657 398.816 212.523 398.349 212.275 397.922C212.027 397.494 211.672 397.115 211.232 396.81C210.791 396.505 210.277 396.281 209.724 396.154C209.17 396.026 208.59 395.998 208.022 396.071L207.991 395.994ZM323.104 269.533C323.11 269.969 323.226 270.399 323.444 270.795C323.662 271.192 323.978 271.547 324.371 271.837C324.764 272.128 325.226 272.348 325.728 272.484C326.229 272.619 326.76 272.667 327.285 272.625C327.868 272.675 328.458 272.616 329.009 272.452C329.56 272.287 330.059 272.021 330.468 271.674C330.876 271.327 331.184 270.908 331.368 270.449C331.551 269.99 331.606 269.502 331.528 269.022C331.528 266.698 329.732 265.65 327.006 265.599C326.419 265.606 325.841 265.718 325.312 265.928C324.783 266.139 324.317 266.442 323.945 266.817C323.573 267.192 323.305 267.629 323.16 268.098C323.015 268.568 322.996 269.057 323.104 269.533ZM370.859 138.653C370.907 138.179 370.828 137.702 370.628 137.255C370.428 136.809 370.111 136.405 369.701 136.071C369.29 135.737 368.795 135.481 368.251 135.323C367.708 135.164 367.128 135.106 366.554 135.153C365.905 135.083 365.245 135.145 364.632 135.333C364.018 135.521 363.469 135.83 363.033 136.233C362.597 136.636 362.286 137.12 362.128 137.644C361.97 138.168 361.969 138.716 362.126 139.24C362.311 141.489 364.077 142.485 367.019 142.51C367.584 142.487 368.137 142.366 368.642 142.156C369.147 141.946 369.593 141.651 369.952 141.29C370.311 140.929 370.574 140.51 370.725 140.061C370.876 139.611 370.911 139.14 370.828 138.678L370.859 138.653ZM405.421 75.9332C405.919 75.9715 406.42 75.9236 406.894 75.7927C407.368 75.6618 407.804 75.4507 408.174 75.173C408.543 74.8953 408.838 74.557 409.04 74.1798C409.242 73.8026 409.346 73.3948 409.346 72.9824C409.346 72.5701 409.242 72.1623 409.04 71.7851C408.838 71.4079 408.543 71.0696 408.174 70.7919C407.804 70.5142 407.368 70.3031 406.894 70.1722C406.42 70.0413 405.919 69.9934 405.421 70.0317C404.489 70.0448 403.601 70.3559 402.942 70.8993C402.283 71.4426 401.906 72.1758 401.89 72.9441C401.889 73.7288 402.256 74.4833 402.914 75.0499C403.572 75.6165 404.47 75.9513 405.421 75.9843V75.9332ZM128.988 462.342C128.498 462.289 128 462.32 127.525 462.433C127.051 462.546 126.609 462.738 126.229 462.999C125.848 463.259 125.537 463.581 125.315 463.945C125.092 464.309 124.963 464.707 124.935 465.114C124.907 465.521 124.981 465.928 125.153 466.31C125.325 466.692 125.59 467.041 125.933 467.335C126.276 467.629 126.688 467.861 127.144 468.017C127.601 468.174 128.091 468.25 128.585 468.243C130.66 468.243 131.837 467.119 132.333 465.203C132.255 464.483 131.881 463.806 131.272 463.286C130.664 462.765 129.858 462.432 128.988 462.342ZM287.149 364.264C286.668 364.214 286.179 364.245 285.713 364.355C285.247 364.464 284.812 364.651 284.435 364.903C284.059 365.155 283.748 365.467 283.522 365.821C283.295 366.175 283.158 366.563 283.118 366.961C283.079 367.36 283.137 367.761 283.29 368.141C283.444 368.52 283.688 368.87 284.01 369.17C284.332 369.469 284.723 369.712 285.162 369.883C285.6 370.054 286.076 370.15 286.56 370.166C288.666 370.319 289.843 369.093 290.339 367.432C290.379 366.682 290.083 365.946 289.505 365.366C288.928 364.786 288.11 364.403 287.211 364.29L287.149 364.264ZM247.911 396.556C247.422 396.503 246.925 396.534 246.451 396.646C245.977 396.758 245.536 396.949 245.156 397.208C244.775 397.467 244.463 397.788 244.24 398.15C244.016 398.513 243.885 398.909 243.855 399.315C243.825 399.721 243.897 400.128 244.066 400.51C244.235 400.892 244.498 401.242 244.838 401.536C245.177 401.831 245.587 402.065 246.041 402.224C246.495 402.382 246.984 402.462 247.477 402.458C249.552 402.458 250.729 401.334 251.255 399.418C251.168 398.711 250.798 398.049 250.204 397.535C249.609 397.022 248.824 396.686 247.972 396.582L247.911 396.556ZM406.009 103.474C405.519 103.421 405.021 103.452 404.547 103.565C404.072 103.678 403.63 103.87 403.25 104.131C402.87 104.391 402.558 104.713 402.336 105.077C402.113 105.441 401.984 105.839 401.956 106.246C401.928 106.653 402.003 107.06 402.174 107.442C402.346 107.824 402.612 108.173 402.954 108.467C403.297 108.761 403.709 108.993 404.166 109.149C404.622 109.305 405.113 109.382 405.607 109.375C407.682 109.375 408.858 108.251 409.292 106.539C409.312 105.781 408.986 105.045 408.377 104.477C407.769 103.909 406.923 103.55 406.009 103.474ZM10.0036 494.634C9.50593 494.596 9.00403 494.644 8.53002 494.774C8.05602 494.905 7.62034 495.116 7.25086 495.394C6.88138 495.672 6.58623 496.01 6.38427 496.387C6.18231 496.765 6.07799 497.172 6.07799 497.585C6.07799 497.997 6.18231 498.405 6.38427 498.782C6.58623 499.159 6.88138 499.498 7.25086 499.775C7.62034 500.053 8.05602 500.264 8.53002 500.395C9.00403 500.526 9.50593 500.574 10.0036 500.535C12.0476 500.535 13.1006 499.335 13.5651 497.419C13.4645 496.683 13.052 496 12.4003 495.49C11.7487 494.981 10.8999 494.677 10.0036 494.634ZM327.781 332.406C327.331 332.307 326.858 332.301 326.404 332.388C325.95 332.475 325.529 332.652 325.178 332.904C324.826 333.156 324.555 333.475 324.388 333.834C324.221 334.193 324.163 334.58 324.219 334.961C324.168 335.293 324.207 335.631 324.332 335.95C324.458 336.268 324.667 336.56 324.945 336.804C325.223 337.048 325.563 337.238 325.941 337.362C326.319 337.485 326.725 337.537 327.13 337.516C327.515 337.547 327.904 337.513 328.273 337.416C328.641 337.318 328.981 337.159 329.272 336.948C329.562 336.737 329.797 336.479 329.962 336.19C330.126 335.901 330.216 335.587 330.227 335.268C330.289 333.684 329.701 332.585 327.812 332.406H327.781ZM208.61 429.309C208.225 429.265 207.833 429.29 207.46 429.381C207.088 429.473 206.743 429.629 206.45 429.84C206.157 430.05 205.921 430.31 205.76 430.602C205.598 430.894 205.514 431.21 205.513 431.531C205.432 432.045 205.542 432.568 205.829 433.029C206.115 433.491 206.566 433.869 207.12 434.114C207.673 434.359 208.305 434.46 208.929 434.402C209.554 434.344 210.143 434.131 210.617 433.791C211.091 433.45 211.429 432.999 211.584 432.497C211.74 431.994 211.707 431.465 211.489 430.978C211.271 430.492 210.879 430.072 210.365 429.773C209.851 429.475 209.239 429.313 208.61 429.309ZM366.771 266.621C366.379 266.55 365.972 266.55 365.58 266.623C365.187 266.695 364.819 266.837 364.5 267.039C364.182 267.241 363.921 267.498 363.735 267.792C363.549 268.086 363.444 268.41 363.426 268.741C363.306 269.113 363.299 269.503 363.404 269.877C363.509 270.251 363.724 270.599 364.03 270.889C364.335 271.178 364.722 271.402 365.157 271.54C365.592 271.678 366.061 271.726 366.523 271.679C368.412 271.679 369.403 270.811 369.62 268.946C369.62 268.638 369.546 268.334 369.403 268.05C369.259 267.766 369.049 267.509 368.784 267.293C368.519 267.077 368.205 266.906 367.859 266.791C367.514 266.675 367.144 266.618 366.771 266.621ZM405.266 6.03478C404.927 6.04127 404.593 6.10367 404.284 6.21831C403.975 6.33295 403.696 6.49751 403.465 6.70228C403.235 6.90705 403.056 7.14789 402.939 7.41059C402.823 7.6733 402.772 7.95255 402.788 8.23188C402.7 8.56455 402.711 8.90984 402.818 9.23854C402.926 9.56723 403.128 9.86967 403.408 10.1203C403.687 10.3709 404.036 10.5623 404.424 10.6783C404.812 10.7942 405.228 10.8314 405.638 10.7867C406.029 10.8157 406.423 10.7723 406.791 10.6594C407.159 10.5466 407.492 10.3673 407.765 10.1346C408.038 9.90185 408.245 9.62168 408.37 9.31456C408.495 9.00744 408.535 8.68116 408.487 8.35962C408.509 8.02099 408.437 7.68265 408.276 7.37051C408.116 7.05837 407.87 6.78071 407.56 6.55879C407.249 6.33687 406.88 6.17657 406.483 6.09018C406.085 6.00378 405.669 5.99357 405.266 6.06033V6.03478ZM408.673 41.0862C408.792 40.7149 408.8 40.325 408.695 39.9507C408.59 39.5764 408.375 39.2291 408.069 38.9392C407.764 38.6492 407.377 38.4255 406.942 38.2876C406.507 38.1497 406.038 38.1019 405.576 38.1482C405.173 38.1061 404.764 38.138 404.377 38.2415C403.991 38.3451 403.637 38.5178 403.342 38.7472C403.046 38.9767 402.815 39.2572 402.666 39.5688C402.517 39.8804 402.453 40.2154 402.479 40.5497C402.479 42.1081 403.346 43.1045 405.576 43.2322C405.948 43.2638 406.325 43.2338 406.684 43.1439C407.042 43.0539 407.376 42.9059 407.664 42.7085C407.952 42.511 408.19 42.2681 408.363 41.9939C408.536 41.7198 408.642 41.4198 408.673 41.1117V41.0862ZM167.917 462.955C167.579 462.923 167.236 462.947 166.91 463.025C166.583 463.103 166.278 463.233 166.013 463.409C165.748 463.585 165.528 463.803 165.366 464.049C165.204 464.296 165.102 464.566 165.067 464.845C164.954 465.162 164.93 465.496 164.996 465.821C165.063 466.147 165.218 466.456 165.451 466.724C165.684 466.993 165.988 467.214 166.34 467.371C166.692 467.528 167.083 467.616 167.483 467.63C169.31 467.783 170.58 467.068 170.766 465.075C170.726 464.483 170.404 463.928 169.87 463.531C169.337 463.134 168.634 462.927 167.917 462.955ZM406.009 168.569C405.618 168.494 405.211 168.491 404.818 168.558C404.424 168.625 404.053 168.761 403.729 168.958C403.406 169.154 403.138 169.406 402.943 169.696C402.749 169.987 402.633 170.308 402.603 170.638C402.477 171.011 402.464 171.404 402.566 171.782C402.669 172.16 402.883 172.511 403.189 172.804C403.496 173.098 403.885 173.324 404.323 173.463C404.761 173.602 405.234 173.65 405.7 173.602C407.589 173.602 408.611 172.784 408.797 171.047C408.822 170.731 408.769 170.415 408.64 170.116C408.512 169.818 408.311 169.545 408.05 169.313C407.789 169.081 407.474 168.895 407.123 168.767C406.772 168.639 406.393 168.572 406.009 168.569ZM86.6839 497.572C86.6452 497.851 86.674 498.133 86.7685 498.402C86.8631 498.672 87.0216 498.923 87.2347 499.142C87.4479 499.361 87.7115 499.542 88.0104 499.676C88.3092 499.81 88.6373 499.894 88.9756 499.922C89.3594 500.016 89.764 500.036 90.1586 499.981C90.5533 499.926 90.9276 499.798 91.253 499.606C91.5785 499.414 91.8465 499.163 92.0368 498.872C92.2272 498.582 92.3347 498.259 92.3512 497.93C92.5371 496.422 91.6699 495.375 89.2543 495.222C88.5367 495.255 87.864 495.52 87.3826 495.96C86.9012 496.4 86.6501 496.98 86.6839 497.572ZM50.6045 495.017C50.2114 494.954 49.8063 494.962 49.4174 495.041C49.0285 495.12 48.6652 495.268 48.3528 495.475C48.0403 495.682 47.7862 495.942 47.6081 496.238C47.4301 496.534 47.3324 496.858 47.3218 497.189C47.2299 497.697 47.3259 498.216 47.5971 498.678C47.8683 499.141 48.3022 499.525 48.8421 499.781C49.382 500.037 50.0029 500.152 50.6237 500.113C51.2445 500.073 51.8365 499.88 52.3222 499.559C52.808 499.237 53.1651 498.803 53.3469 498.311C53.5286 497.82 53.5267 497.295 53.3412 496.805C53.1557 496.314 52.7954 495.881 52.3072 495.562C51.819 495.244 51.2256 495.054 50.6045 495.017ZM406.009 136.251C405.618 136.177 405.211 136.173 404.818 136.24C404.424 136.307 404.053 136.444 403.729 136.64C403.406 136.837 403.138 137.089 402.943 137.379C402.749 137.669 402.633 137.99 402.603 138.321C402.477 138.694 402.464 139.086 402.566 139.464C402.669 139.842 402.883 140.193 403.189 140.486C403.496 140.78 403.885 141.006 404.323 141.145C404.761 141.284 405.234 141.332 405.7 141.284C406.521 141.328 407.33 141.101 407.948 140.653C408.567 140.205 408.944 139.573 408.998 138.895C409.051 138.218 408.776 137.551 408.233 137.04C407.69 136.53 406.923 136.219 406.102 136.175L406.009 136.251ZM405.514 201.04C405.173 201.019 404.83 201.056 404.506 201.147C404.183 201.238 403.885 201.382 403.63 201.57C403.375 201.759 403.17 201.988 403.025 202.244C402.881 202.499 402.8 202.776 402.788 203.058C402.72 203.372 402.737 203.694 402.836 204.001C402.935 204.309 403.116 204.595 403.364 204.838C403.612 205.082 403.922 205.278 404.272 205.412C404.622 205.546 405.004 205.614 405.39 205.613C407.279 205.613 408.301 204.898 408.487 203.288C408.504 202.972 408.436 202.656 408.289 202.363C408.142 202.07 407.919 201.807 407.636 201.592C407.352 201.378 407.016 201.218 406.649 201.122C406.282 201.027 405.895 200.999 405.514 201.04ZM254.352 40.9329C254.455 40.1626 254.351 39.3831 254.047 38.6499C253.743 37.9167 253.246 37.248 252.592 36.6915C251.938 36.1351 251.143 35.7046 250.265 35.4309C249.386 35.1572 248.444 35.0469 247.508 35.108C246.625 35.0448 245.735 35.1387 244.9 35.3835C244.064 35.6282 243.302 36.0181 242.665 36.5267C242.028 37.0353 241.531 37.6508 241.207 38.3317C240.883 39.0125 240.74 39.7427 240.788 40.473C240.633 44.0753 243.42 45.9402 247.539 46.4512C251.534 45.9658 254.259 44.2285 254.352 40.9329ZM240.911 8.00196C240.825 8.74819 240.923 9.50116 241.201 10.2149C241.479 10.9287 241.93 11.5883 242.527 12.1535C243.124 12.7186 243.854 13.1776 244.673 13.5022C245.493 13.8268 246.383 14.0104 247.291 14.0417C248.199 14.073 249.105 13.9513 249.954 13.6841C250.803 13.417 251.578 13.0099 252.23 12.4877C252.882 11.9656 253.398 11.3393 253.747 10.6472C254.096 9.95498 254.27 9.21141 254.259 8.46181C254.414 5.16616 251.72 3.35228 247.849 2.73913C246.086 2.70376 244.376 3.23612 243.081 4.22335C241.786 5.21058 241.008 6.57505 240.911 8.0275V8.00196ZM286.529 3.45447C285.763 3.41009 284.994 3.50064 284.273 3.72012C283.552 3.9396 282.896 4.28299 282.349 4.72751C281.801 5.17204 281.374 5.70754 281.097 6.2985C280.819 6.88946 280.697 7.52236 280.738 8.15524C280.63 8.82082 280.703 9.49786 280.952 10.1372C281.201 10.7765 281.62 11.3621 282.177 11.8514C282.735 12.3406 283.417 12.7213 284.176 12.9658C284.934 13.2103 285.748 13.3124 286.56 13.2648C287.374 13.3286 288.196 13.2464 288.967 13.0237C289.739 12.801 290.444 12.4432 291.032 11.9748C291.621 11.5063 292.079 10.9384 292.376 10.31C292.674 9.68153 292.803 9.00748 292.754 8.33407C292.784 7.66569 292.641 6.99972 292.334 6.38067C292.027 5.76162 291.563 5.20373 290.974 4.74427C290.385 4.28482 289.684 3.93438 288.917 3.71636C288.151 3.49834 287.337 3.41776 286.529 3.48002V3.45447ZM292.723 73.0463C292.723 71.6912 292.071 70.3916 290.909 69.4333C289.747 68.4751 288.172 67.9368 286.529 67.9368C284.887 67.9368 283.311 68.4751 282.15 69.4333C280.988 70.3916 280.335 71.6912 280.335 73.0463C280.335 76.1887 282.596 77.9004 286.529 78.1559C287.363 78.2071 288.201 78.112 288.987 77.8767C289.772 77.6414 290.489 77.2714 291.089 76.791C291.689 76.3106 292.158 75.7307 292.467 75.0897C292.775 74.4486 292.915 73.7609 292.878 73.0719L292.723 73.0463ZM286.529 35.619C285.696 35.5515 284.854 35.6373 284.066 35.8702C283.277 36.1031 282.561 36.4773 281.968 36.966C281.376 37.4546 280.922 38.0455 280.64 38.6961C280.358 39.3467 280.254 40.0408 280.335 40.7285C280.254 41.4162 280.358 42.1104 280.64 42.761C280.922 43.4116 281.376 44.0024 281.968 44.4911C282.561 44.9797 283.277 45.3539 284.066 45.5868C284.854 45.8198 285.696 45.9056 286.529 45.8381C288.172 45.8381 289.747 45.2997 290.909 44.3415C292.071 43.3833 292.723 42.0837 292.723 40.7285C292.723 39.3734 292.071 38.0738 290.909 37.1155C289.747 36.1573 288.172 35.619 286.529 35.619ZM254.352 139.087C254.468 138.318 254.377 137.537 254.085 136.8C253.792 136.063 253.306 135.389 252.661 134.825C252.016 134.261 251.228 133.822 250.353 133.538C249.478 133.255 248.539 133.134 247.601 133.186C246.718 133.112 245.827 133.195 244.987 133.43C244.147 133.665 243.378 134.046 242.732 134.548C242.086 135.049 241.578 135.659 241.243 136.337C240.907 137.014 240.752 137.743 240.788 138.474C240.571 142.076 243.327 143.941 247.818 144.554C249.532 144.468 251.148 143.862 252.354 142.853C253.56 141.844 254.271 140.503 254.352 139.087ZM240.88 170.996C240.818 171.751 240.944 172.508 241.252 173.22C241.559 173.933 242.04 174.586 242.666 175.138C243.292 175.691 244.049 176.132 244.89 176.433C245.731 176.734 246.638 176.89 247.554 176.89C248.471 176.89 249.378 176.734 250.219 176.433C251.06 176.132 251.817 175.691 252.443 175.138C253.068 174.586 253.55 173.933 253.857 173.22C254.164 172.508 254.291 171.751 254.228 170.996C254.228 167.726 251.41 165.887 247.26 165.529C245.566 165.629 243.977 166.243 242.799 167.253C241.621 168.262 240.937 169.596 240.88 170.996ZM247.446 198C245.713 198 244.051 198.568 242.825 199.579C241.6 200.59 240.911 201.961 240.911 203.391C240.911 204.82 241.6 206.191 242.825 207.202C244.051 208.213 245.713 208.781 247.446 208.781C251.503 208.909 253.64 206.686 254.352 203.416C253.671 200.172 251.503 198 247.446 198ZM43.6674 366.896C43.5817 367.643 43.6821 368.398 43.9623 369.113C44.2425 369.827 44.6967 370.487 45.2969 371.052C45.8972 371.617 46.631 372.075 47.4532 372.398C48.2755 372.72 49.169 372.901 50.0789 372.929C50.9889 372.957 51.8962 372.831 52.7452 372.56C53.5942 372.288 54.3671 371.876 55.0165 371.35C55.6659 370.823 56.1781 370.193 56.5218 369.497C56.8654 368.802 57.0333 368.055 57.0152 367.304C57.0152 364.009 54.4447 362.195 50.3568 361.582C48.6383 361.617 46.9983 362.182 45.7601 363.166C44.5219 364.15 43.7752 365.48 43.6674 366.896ZM83.1533 367.074C83.1147 367.794 83.2556 368.513 83.5673 369.186C83.879 369.859 84.3549 370.472 84.9655 370.987C85.5761 371.502 86.3083 371.908 87.117 372.18C87.9256 372.452 88.7933 372.585 89.6665 372.569C90.5396 372.553 91.3995 372.39 92.1929 372.089C92.9863 371.787 93.6963 371.355 94.279 370.819C94.8616 370.282 95.3045 369.652 95.5802 368.969C95.8559 368.285 95.9586 367.562 95.8818 366.844C95.7394 365.514 94.9892 364.278 93.7832 363.387C92.5772 362.496 91.0057 362.017 89.3871 362.046C87.7685 362.075 86.2239 362.611 85.0664 363.545C83.9089 364.478 83.225 365.74 83.1533 367.074ZM208.053 263.76C206.32 263.804 204.679 264.414 203.491 265.456C202.304 266.498 201.666 267.887 201.72 269.316C201.773 270.746 202.513 272.1 203.776 273.079C205.039 274.059 206.722 274.585 208.456 274.541C212.482 274.541 214.649 272.267 215.145 268.92C214.278 265.803 212.11 263.581 208.053 263.76ZM122.144 334.961C122.111 336.391 122.768 337.773 123.97 338.803C125.172 339.833 126.821 340.427 128.554 340.454C130.288 340.481 131.963 339.939 133.211 338.947C134.46 337.955 135.18 336.595 135.213 335.165C135.43 331.819 132.735 330.056 128.771 329.392C127.893 329.398 127.025 329.548 126.216 329.831C125.408 330.115 124.675 330.527 124.059 331.044C123.444 331.561 122.958 332.173 122.629 332.845C122.301 333.517 122.136 334.236 122.144 334.961ZM174.513 301.749C174.588 300.996 174.475 300.239 174.181 299.523C173.887 298.808 173.419 298.15 172.804 297.59C172.189 297.03 171.441 296.581 170.607 296.269C169.773 295.957 168.87 295.79 167.955 295.778C167.039 295.765 166.131 295.908 165.285 296.198C164.439 296.487 163.674 296.916 163.037 297.459C162.401 298.002 161.906 298.647 161.584 299.355C161.262 300.062 161.12 300.816 161.165 301.57C161.165 304.866 163.86 306.68 167.979 307.191C169.71 307.133 171.35 306.532 172.564 305.512C173.778 304.491 174.475 303.127 174.513 301.698V301.749ZM208.579 231.212C207.644 231.141 206.701 231.241 205.818 231.505C204.935 231.769 204.134 232.19 203.471 232.739C202.808 233.288 202.301 233.951 201.985 234.681C201.669 235.411 201.552 236.189 201.642 236.96C201.582 237.69 201.713 238.421 202.025 239.106C202.337 239.79 202.824 240.411 203.452 240.927C204.081 241.443 204.836 241.842 205.667 242.096C206.498 242.35 207.386 242.455 208.27 242.402C212.636 242.402 214.835 240.128 215.362 236.705C214.711 233.486 212.605 231.212 208.579 231.212ZM167.979 263.479C166.209 263.492 164.512 264.065 163.24 265.08C161.968 266.095 161.216 267.474 161.141 268.933C161.065 270.391 161.671 271.818 162.834 272.919C163.997 274.02 165.628 274.71 167.39 274.847C171.757 275.128 174.11 272.88 174.916 269.431C174.513 265.88 172.345 263.581 167.979 263.479ZM96.4082 335.012C96.4156 333.546 95.7373 332.134 94.5145 331.069C93.2917 330.005 91.6185 329.371 89.8431 329.298C88.0677 329.226 86.3269 329.721 84.9828 330.681C83.6387 331.64 82.7948 332.99 82.6269 334.45C82.2552 338.052 84.9805 339.994 89.1304 340.684C90.0614 340.729 90.9938 340.617 91.8708 340.356C92.7478 340.094 93.5511 339.688 94.2319 339.162C94.9127 338.636 95.4567 338.002 95.8308 337.297C96.205 336.593 96.4014 335.832 96.4082 335.063V335.012ZM128.431 295.669C126.583 295.726 124.838 296.387 123.58 297.506C122.323 298.625 121.656 300.11 121.726 301.634C121.796 303.159 122.597 304.598 123.953 305.635C125.309 306.672 127.109 307.223 128.957 307.165C133.355 307.165 135.461 304.738 135.832 300.727C135.622 299.265 134.733 297.927 133.354 296.994C131.974 296.061 130.21 295.604 128.431 295.72V295.669ZM2.91165 367.432C2.87265 368.158 3.0161 368.882 3.33298 369.56C3.64987 370.237 4.13331 370.853 4.75292 371.369C5.37252 371.885 6.11487 372.29 6.93324 372.557C7.75161 372.825 8.62829 372.95 9.50812 372.925C10.4424 373.016 11.3897 372.937 12.2828 372.693C13.1758 372.449 13.9927 372.045 14.6755 371.511C15.3583 370.977 15.8902 370.326 16.2336 369.603C16.5769 368.881 16.7232 368.104 16.6621 367.33C16.6621 363.702 13.9677 361.888 9.72491 361.428C5.51307 361.939 2.78777 363.804 2.91165 367.432ZM254.352 73.4551C254.377 72.7203 254.225 71.9888 253.907 71.3023C253.589 70.6158 253.11 69.9877 252.497 69.454C251.885 68.9202 251.151 68.4912 250.337 68.1914C249.523 67.8916 248.646 67.727 247.756 67.7069C246.865 67.6867 245.978 67.8115 245.146 68.0741C244.314 68.3367 243.552 68.7319 242.905 69.2372C242.258 69.7425 241.738 70.348 241.375 71.0191C241.012 71.6902 240.812 72.4138 240.788 73.1485C240.738 74.6324 241.406 76.0716 242.643 77.1496C243.88 78.2276 245.585 78.8561 247.384 78.8967C249.183 78.9374 250.927 78.3869 252.234 77.3664C253.541 76.3459 254.303 74.9389 254.352 73.4551ZM208.672 197.642C206.824 197.585 205.024 198.135 203.668 199.172C202.312 200.21 201.511 201.649 201.441 203.173C201.371 204.698 202.038 206.183 203.296 207.302C204.553 208.42 206.298 209.081 208.146 209.139C209.074 209.206 210.01 209.114 210.893 208.869C211.777 208.624 212.59 208.232 213.281 207.717C213.973 207.201 214.528 206.574 214.913 205.873C215.298 205.173 215.503 204.415 215.517 203.646C215.207 200.069 213.07 197.77 208.672 197.642ZM209.044 132.879C208.072 132.805 207.093 132.895 206.165 133.144C205.237 133.393 204.381 133.795 203.647 134.325C202.914 134.856 202.319 135.504 201.899 136.231C201.48 136.957 201.244 137.747 201.206 138.551C201.168 139.355 201.329 140.157 201.679 140.908C202.029 141.659 202.561 142.344 203.242 142.92C203.923 143.496 204.74 143.952 205.641 144.259C206.543 144.566 207.511 144.719 208.486 144.708C209.42 144.772 210.359 144.674 211.243 144.419C212.128 144.164 212.937 143.758 213.618 143.228C214.299 142.698 214.836 142.055 215.195 141.341C215.555 140.627 215.727 139.859 215.702 139.087C215.548 135.408 213.504 133.109 209.044 132.879ZM208.641 2.58585C207.706 2.47937 206.753 2.54475 205.852 2.7773C204.95 3.00985 204.122 3.40383 203.427 3.93107C202.732 4.45832 202.186 5.10579 201.829 5.8272C201.473 6.5486 201.314 7.32612 201.364 8.10415C201.202 8.92273 201.274 9.76111 201.573 10.5528C201.873 11.3445 202.392 12.0678 203.089 12.6653C203.786 13.2628 204.643 13.7181 205.59 13.9951C206.538 14.2721 207.551 14.3632 208.548 14.2611C209.499 14.3212 210.453 14.2124 211.348 13.942C212.243 13.6716 213.056 13.2459 213.735 12.6937C214.413 12.1415 214.939 11.4757 215.279 10.7412C215.618 10.0068 215.763 9.22073 215.702 8.43626C215.765 7.65555 215.626 6.87269 215.295 6.13964C214.963 5.4066 214.446 4.74012 213.778 4.18443C213.111 3.62875 212.307 3.19656 211.422 2.91655C210.536 2.63654 209.588 2.5151 208.641 2.5603V2.58585ZM9.38424 327.757C7.45405 327.807 5.62739 328.489 4.30609 329.65C2.9848 330.812 2.27711 332.36 2.33871 333.952C2.40031 335.544 3.22616 337.051 4.63457 338.141C6.04298 339.231 7.9186 339.815 9.84879 339.764C14.649 339.764 16.9408 337.439 17.1576 333.3C17.149 332.498 16.9334 331.707 16.5251 330.979C16.1168 330.251 15.5253 329.604 14.7898 329.079C14.0544 328.555 13.1919 328.165 12.2598 327.937C11.3277 327.709 10.3474 327.648 9.38424 327.757ZM57.4178 334.808C57.4944 334.034 57.3644 333.255 57.0369 332.527C56.7094 331.798 56.1923 331.138 55.522 330.593C54.8518 330.047 54.0448 329.629 53.1577 329.369C52.2706 329.108 51.3251 329.012 50.3877 329.085C49.3881 328.993 48.3762 329.094 47.4324 329.381C46.4886 329.668 45.6388 330.133 44.9504 330.738C44.2621 331.343 43.7542 332.072 43.4669 332.867C43.1797 333.662 43.1211 334.502 43.2957 335.319C43.5125 338.998 46.3927 340.684 51.3168 340.863C53.1012 340.726 54.7478 340.013 55.8967 338.879C57.0457 337.744 57.6037 336.281 57.4487 334.808H57.4178ZM90.1215 295.541C89.15 295.467 88.1705 295.557 87.2427 295.806C86.3149 296.055 85.4582 296.457 84.7248 296.987C83.9914 297.518 83.3967 298.166 82.977 298.893C82.5572 299.619 82.3212 300.409 82.2833 301.213C82.2454 302.017 82.4064 302.819 82.7565 303.57C83.1067 304.321 83.6385 305.006 84.3198 305.582C85.001 306.158 85.8173 306.614 86.7189 306.921C87.6205 307.228 88.5885 307.381 89.564 307.37C90.4922 307.43 91.4255 307.33 92.3037 307.075C93.182 306.82 93.9856 306.416 94.6627 305.888C95.3398 305.361 95.8752 304.723 96.2346 304.014C96.5939 303.305 96.7692 302.542 96.7489 301.775C96.656 298.121 94.612 295.796 90.1524 295.566L90.1215 295.541ZM128.802 263.147C127.866 263.047 126.915 263.115 126.014 263.348C125.113 263.58 124.284 263.97 123.583 264.492C122.883 265.014 122.328 265.655 121.956 266.371C121.585 267.087 121.406 267.861 121.432 268.639C121.238 269.453 121.271 270.292 121.528 271.093C121.786 271.894 122.26 272.637 122.917 273.264C123.573 273.892 124.394 274.388 125.317 274.715C126.24 275.043 127.241 275.193 128.245 275.154C129.201 275.186 130.154 275.062 131.052 274.79C131.95 274.518 132.774 274.102 133.477 273.567C134.18 273.032 134.749 272.388 135.15 271.672C135.552 270.956 135.778 270.181 135.817 269.393C135.855 268.605 135.705 267.818 135.375 267.077C135.045 266.336 134.542 265.657 133.893 265.077C133.245 264.497 132.464 264.028 131.596 263.696C130.728 263.365 129.789 263.178 128.833 263.147H128.802ZM215.517 171.175C215.559 170.376 215.402 169.579 215.056 168.832C214.71 168.086 214.182 167.405 213.505 166.834C212.828 166.262 212.016 165.81 211.12 165.507C210.223 165.204 209.26 165.056 208.292 165.072C207.323 165.088 206.368 165.267 205.487 165.599C204.605 165.931 203.815 166.408 203.166 167.001C202.517 167.595 202.022 168.292 201.712 169.049C201.402 169.807 201.283 170.608 201.364 171.405C201.364 175.084 204.244 176.847 209.075 177.102C209.979 177.067 210.864 176.882 211.68 176.559C212.495 176.235 213.224 175.78 213.822 175.22C214.42 174.66 214.875 174.007 215.161 173.299C215.447 172.59 215.557 171.842 215.486 171.098L215.517 171.175ZM208.548 66.9915C207.615 66.892 206.666 66.9599 205.768 67.1908C204.869 67.4217 204.041 67.81 203.341 68.3291C202.642 68.8483 202.086 69.4861 201.712 70.1988C201.339 70.9116 201.157 71.6824 201.178 72.4587C200.985 73.2699 201.017 74.1065 201.273 74.9057C201.529 75.705 202.001 76.446 202.653 77.073C203.306 77.7001 204.123 78.1969 205.042 78.5261C205.961 78.8552 206.959 79.0081 207.96 78.9734C208.916 79.0052 209.87 78.8815 210.768 78.6093C211.665 78.337 212.489 77.9215 213.192 77.3866C213.895 76.8516 214.464 76.2076 214.865 75.4914C215.267 74.7752 215.493 74.0008 215.532 73.2124C215.571 72.424 215.421 71.637 215.091 70.8964C214.761 70.1558 214.257 69.4761 213.608 68.896C212.96 68.316 212.179 67.847 211.311 67.5159C210.443 67.1847 209.504 66.9978 208.548 66.966V66.9915ZM175.04 236.884C175.155 236.061 175.04 235.227 174.702 234.447C174.364 233.667 173.813 232.962 173.091 232.386C172.369 231.81 171.496 231.379 170.539 231.127C169.583 230.875 168.569 230.808 167.576 230.931C166.634 230.874 165.688 230.988 164.806 231.267C163.923 231.545 163.126 231.979 162.47 232.54C161.813 233.101 161.315 233.774 161.009 234.511C160.704 235.248 160.598 236.032 160.701 236.807C160.701 240.792 163.488 242.657 168.164 242.836C169.104 242.86 170.04 242.72 170.91 242.426C171.78 242.131 172.565 241.689 173.214 241.127C173.863 240.565 174.361 239.897 174.675 239.166C174.99 238.435 175.114 237.657 175.04 236.884ZM201.302 39.9365C201.069 40.7443 201.064 41.5854 201.288 42.3949C201.512 43.2044 201.958 43.9606 202.593 44.6051C203.227 45.2496 204.033 45.7651 204.947 46.1118C205.862 46.4585 206.861 46.627 207.867 46.6045C208.791 46.7534 209.744 46.7341 210.658 46.548C211.573 46.3619 212.427 46.0134 213.161 45.5269C213.895 45.0404 214.492 44.4276 214.91 43.7312C215.327 43.0348 215.555 42.2716 215.578 41.4949C215.779 40.6803 215.759 39.8392 215.52 39.0316C215.281 38.2241 214.829 37.47 214.196 36.8232C213.563 36.1765 212.765 35.6531 211.858 35.2903C210.951 34.9276 209.959 34.7345 208.951 34.7248C204.739 34.7759 201.704 36.2321 201.302 39.9365ZM208.301 100.459C207.373 100.386 206.438 100.477 205.557 100.726C204.676 100.975 203.869 101.377 203.192 101.904C202.514 102.432 201.981 103.073 201.629 103.784C201.276 104.495 201.112 105.26 201.147 106.028C200.985 106.844 201.049 107.68 201.335 108.472C201.621 109.265 202.122 109.993 202.798 110.603C203.475 111.213 204.311 111.689 205.242 111.994C206.174 112.299 207.177 112.425 208.177 112.364C210.107 112.364 211.958 111.732 213.323 110.606C214.688 109.48 215.455 107.953 215.455 106.36C215.455 104.768 214.688 103.241 213.323 102.115C211.958 100.989 210.107 100.357 208.177 100.357L208.301 100.459ZM167.607 197.285C165.722 197.423 163.973 198.152 162.72 199.321C161.466 200.49 160.803 202.011 160.866 203.571C160.93 205.131 161.715 206.612 163.061 207.709C164.407 208.806 166.211 209.437 168.102 209.471C169.109 209.489 170.109 209.338 171.042 209.026C171.975 208.714 172.821 208.249 173.528 207.659C174.236 207.068 174.79 206.365 175.157 205.592C175.523 204.818 175.695 203.992 175.661 203.162C175.628 202.332 175.389 201.517 174.96 200.765C174.532 200.014 173.922 199.343 173.168 198.793C172.414 198.243 171.532 197.825 170.576 197.566C169.62 197.307 168.609 197.211 167.607 197.285ZM58.0681 301.749C58.194 300.875 58.0842 299.988 57.7466 299.153C57.409 298.318 56.852 297.555 56.1153 296.918C55.3786 296.281 54.4804 295.786 53.4849 295.468C52.4895 295.151 51.4213 295.019 50.3568 295.081C49.3565 295.024 48.3528 295.14 47.4102 295.422C46.4676 295.703 45.6069 296.145 44.8835 296.718C44.1601 297.29 43.59 297.981 43.2099 298.747C42.8297 299.512 42.648 300.335 42.6763 301.161C42.6336 302 42.7916 302.838 43.1413 303.626C43.4909 304.414 44.0253 305.138 44.7141 305.756C45.4028 306.374 46.2324 306.874 47.1554 307.228C48.0784 307.581 49.0768 307.781 50.0935 307.817C51.1103 307.852 52.1254 307.722 53.0811 307.433C54.0368 307.145 54.9143 306.704 55.6634 306.136C56.4126 305.567 57.0187 304.883 57.4472 304.122C57.8758 303.36 58.1183 302.537 58.161 301.698L58.0681 301.749ZM167.576 164.609C165.494 164.63 163.507 165.331 162.052 166.56C160.597 167.789 159.793 169.445 159.818 171.162C159.843 172.88 160.693 174.519 162.183 175.719C163.673 176.919 165.68 177.582 167.762 177.562C172.593 177.562 175.225 175.007 175.845 170.945C175.07 167.113 172.345 164.507 167.576 164.609ZM136.359 237.165C136.478 236.296 136.365 235.416 136.029 234.587C135.693 233.757 135.142 232.999 134.413 232.364C133.684 231.729 132.797 231.233 131.811 230.91C130.826 230.588 129.767 230.446 128.709 230.497C127.709 230.432 126.704 230.541 125.759 230.817C124.813 231.092 123.948 231.528 123.218 232.096C122.489 232.664 121.912 233.351 121.524 234.114C121.136 234.877 120.947 235.699 120.967 236.526C120.781 240.537 123.816 242.759 128.678 243.322C130.684 243.329 132.613 242.689 134.054 241.538C135.495 240.388 136.333 238.818 136.39 237.165H136.359ZM89.595 262.712C87.5169 262.655 85.4963 263.28 83.9775 264.452C82.4587 265.623 81.5663 267.244 81.4965 268.959C81.4267 270.673 82.1852 272.34 83.6052 273.593C85.0253 274.846 86.9905 275.582 89.0685 275.639C93.8997 275.895 96.656 273.314 97.5231 269.176C97.4989 267.457 96.6581 265.814 95.1814 264.6C93.7048 263.387 91.7101 262.7 89.6259 262.687L89.595 262.712ZM176.929 8.79393C177.063 7.91691 176.961 7.02622 176.63 6.1855C176.299 5.34477 175.746 4.57476 175.013 3.93046C174.279 3.28615 173.382 2.78346 172.385 2.45828C171.389 2.1331 170.318 1.99347 169.248 2.04935C168.249 1.97794 167.242 2.08 166.293 2.34897C165.345 2.61793 164.475 3.04783 163.739 3.61099C163.004 4.17415 162.42 4.85808 162.025 5.61875C161.629 6.37941 161.432 7.19994 161.444 8.0275C161.196 12.0385 164.231 14.2867 169.031 14.8487C170.036 14.8795 171.038 14.7465 171.981 14.4575C172.923 14.1685 173.787 13.7291 174.524 13.1643C175.26 12.5996 175.854 11.9207 176.272 11.1664C176.69 10.4121 176.924 9.59724 176.96 8.76839L176.929 8.79393ZM169.248 34.2394C168.247 34.1837 167.243 34.2972 166.297 34.5729C165.351 34.8486 164.483 35.2808 163.747 35.8428C163.01 36.4049 162.421 37.0851 162.014 37.8417C161.607 38.5984 161.392 39.4155 161.382 40.2431C161.219 41.125 161.292 42.0257 161.596 42.8818C161.9 43.7379 162.428 44.5286 163.142 45.1983C163.857 45.868 164.74 46.4005 165.731 46.7582C166.722 47.1159 167.796 47.2901 168.877 47.2687C173.708 47.4986 176.433 44.9183 177.269 40.9074C177.294 40.0304 177.105 39.1582 176.711 38.3432C176.318 37.5282 175.729 36.7871 174.98 36.1644C174.231 35.5417 173.337 35.0503 172.352 34.7195C171.367 34.3887 170.312 34.2254 169.248 34.2394ZM167.824 132.189C166.771 132.151 165.719 132.29 164.734 132.599C163.749 132.907 162.85 133.379 162.094 133.984C161.337 134.589 160.738 135.315 160.333 136.118C159.929 136.921 159.727 137.783 159.741 138.653C159.736 139.557 159.951 140.453 160.374 141.287C160.796 142.122 161.416 142.878 162.199 143.512C162.981 144.145 163.909 144.643 164.928 144.975C165.948 145.308 167.037 145.469 168.133 145.448C170.237 145.351 172.217 144.598 173.672 143.34C175.127 142.083 175.948 140.416 175.969 138.678C175.287 134.769 172.686 132.164 167.855 132.164L167.824 132.189ZM9.632 308.059C10.6844 308.115 11.7396 307.993 12.7327 307.7C13.7258 307.407 14.636 306.95 15.4074 306.357C16.1787 305.764 16.795 305.047 17.2185 304.25C17.6419 303.453 17.8636 302.593 17.8699 301.724C17.899 300.819 17.707 299.918 17.3053 299.076C16.9036 298.233 16.3004 297.466 15.5316 296.82C14.7629 296.174 13.8444 295.662 12.8308 295.315C11.8173 294.968 10.7294 294.793 9.632 294.8C7.52185 294.865 5.52081 295.59 4.03634 296.829C2.55187 298.068 1.6956 299.727 1.6419 301.468C1.6581 303.212 2.50511 304.881 4.00005 306.114C5.49499 307.347 7.5179 308.046 9.632 308.059ZM169.465 99.8203C167.376 99.7573 165.341 100.372 163.795 101.532C162.249 102.693 161.316 104.307 161.196 106.028C161.169 107.761 161.957 109.434 163.395 110.697C164.833 111.96 166.809 112.714 168.907 112.8C171.004 112.886 173.061 112.298 174.644 111.159C176.226 110.02 177.212 108.419 177.393 106.693C177.366 104.933 176.534 103.248 175.064 101.973C173.593 100.699 171.594 99.9297 169.465 99.8203ZM128.988 196.697C126.897 196.696 124.886 197.361 123.375 198.554C121.864 199.746 120.97 201.373 120.878 203.096C120.786 204.82 121.504 206.506 122.882 207.803C124.261 209.1 126.193 209.908 128.276 210.058C133.448 210.237 136.173 207.504 136.916 203.442C136.359 199.507 133.819 196.825 128.988 196.697ZM169.093 79.6121C170.146 79.6678 171.201 79.5455 172.194 79.2528C173.187 78.9601 174.097 78.503 174.869 77.9098C175.64 77.3165 176.256 76.5995 176.68 75.8027C177.103 75.006 177.325 74.1462 177.331 73.2763C177.36 72.3713 177.168 71.4707 176.767 70.6283C176.365 69.7858 175.762 69.0187 174.993 68.3727C174.224 67.7266 173.306 67.2148 172.292 66.8678C171.279 66.5208 170.191 66.3457 169.093 66.3528C166.983 66.4173 164.982 67.1428 163.498 68.3816C162.013 69.6204 161.157 71.2794 161.103 73.0208C161.12 74.7648 161.967 76.4335 163.461 77.6668C164.956 78.9 166.979 79.5987 169.093 79.6121ZM120.502 171.405C120.676 173.131 121.645 174.736 123.21 175.89C124.774 177.045 126.815 177.661 128.914 177.612C131.012 177.563 133.008 176.852 134.491 175.626C135.973 174.401 136.83 172.753 136.885 171.022C136.885 166.755 133.51 164.609 128.462 164.149C123.476 164.788 120.255 167.138 120.502 171.405ZM89.533 230.164C87.4294 230.194 85.42 230.889 83.9198 232.106C82.4196 233.323 81.5433 234.969 81.4717 236.703C81.4002 238.438 82.1389 240.129 83.5354 241.427C84.9318 242.725 86.8793 243.532 88.9756 243.679C94.1475 243.96 96.9038 241.252 97.8638 236.909C97.2754 233 94.9217 230.164 89.6259 230.088L89.533 230.164ZM58.3778 269.763C58.5365 268.852 58.4515 267.923 58.1288 267.042C57.8061 266.16 57.2536 265.348 56.5099 264.662C55.7663 263.975 54.8495 263.431 53.824 263.068C52.7985 262.705 51.6891 262.531 50.5735 262.559C49.536 262.474 48.4885 262.567 47.4968 262.833C46.5051 263.098 45.5907 263.53 44.8111 264.101C44.0316 264.672 43.4037 265.37 42.967 266.151C42.5303 266.932 42.2943 267.779 42.2737 268.639C41.8711 272.906 45.1229 275.205 50.3258 276.048C52.4063 276.032 54.4025 275.368 55.9133 274.188C57.4242 273.008 58.3378 271.4 58.4707 269.687L58.3778 269.763ZM120.317 8.48736C120.399 10.2131 121.279 11.8475 122.774 13.056C124.27 14.2645 126.269 14.9559 128.362 14.9885C130.455 15.0212 132.484 14.3926 134.034 13.2316C135.584 12.0705 136.538 10.4647 136.699 8.74284C136.947 4.47638 133.602 2.22818 128.647 1.56394C123.816 1.9727 120.502 4.14426 120.471 8.41072L120.317 8.48736ZM18.0866 269.176C18.1801 268.259 18.0307 267.337 17.6486 266.473C17.2666 265.609 16.6611 264.824 15.8743 264.173C15.0875 263.521 14.1382 263.019 13.0923 262.7C12.0464 262.382 10.9291 262.255 9.81782 262.329C8.70973 262.252 7.59469 262.375 6.54975 262.689C5.50481 263.003 4.5549 263.5 3.76568 264.146C2.97645 264.792 2.36674 265.572 1.97867 266.432C1.5906 267.291 1.43343 268.21 1.51802 269.125C1.51802 273.391 4.61496 275.563 10.0965 276.176C14.68 275.512 18.1176 273.493 18.0866 269.176ZM128.462 33.8817C127.348 33.8316 126.234 33.9822 125.198 34.323C124.162 34.6638 123.228 35.1867 122.462 35.8554C121.696 36.524 121.115 37.3223 120.761 38.1947C120.406 39.0672 120.286 39.9928 120.41 40.9074C120.352 41.8289 120.539 42.7496 120.958 43.6052C121.377 44.4608 122.017 45.2306 122.834 45.8608C123.651 46.491 124.625 46.9664 125.688 47.2537C126.751 47.541 127.877 47.6333 128.988 47.5242C134.129 47.5242 136.699 44.6373 137.226 40.473C136.328 36.3854 133.633 33.7285 128.462 33.8817ZM128.678 66.1229C127.579 66.0535 126.473 66.1772 125.436 66.4858C124.398 66.7945 123.451 67.2811 122.658 67.9136C121.865 68.5461 121.244 69.31 120.835 70.1551C120.426 71.0002 120.239 71.9073 120.286 72.8164C120.212 73.7726 120.387 74.7307 120.799 75.6264C121.212 76.5221 121.851 77.3348 122.676 78.0099C123.5 78.6849 124.489 79.2068 125.578 79.5404C126.667 79.874 127.829 80.0117 128.988 79.9442C130.103 79.9417 131.206 79.7531 132.231 79.3897C133.256 79.0264 134.181 78.4958 134.95 77.8299C135.72 77.164 136.318 76.3766 136.709 75.515C137.1 74.6534 137.276 73.7355 137.226 72.8164C136.545 68.7032 133.912 66.0718 128.678 66.0974V66.1229ZM58.7185 237.292C58.8589 236.384 58.7637 235.461 58.4392 234.585C58.1148 233.71 57.5684 232.901 56.8364 232.212C56.1043 231.524 55.2033 230.972 54.193 230.592C53.1827 230.213 52.0862 230.015 50.9761 230.011C49.8265 229.914 48.6648 230.018 47.5677 230.318C46.4705 230.618 45.463 231.106 44.6114 231.751C43.7598 232.395 43.0835 233.181 42.6272 234.057C42.1708 234.933 41.9448 235.879 41.9641 236.832C41.91 237.739 42.0758 238.645 42.4516 239.498C42.8274 240.351 43.4058 241.133 44.1528 241.799C44.8997 242.465 45.8003 243.002 46.8018 243.377C47.8033 243.753 48.8855 243.96 49.9851 243.986C55.157 243.577 58.4707 241.431 58.7185 237.216V237.292ZM128.988 131.857C127.883 131.775 126.77 131.885 125.72 132.18C124.67 132.474 123.707 132.948 122.892 133.569C122.078 134.19 121.431 134.945 120.993 135.786C120.554 136.626 120.334 137.533 120.348 138.448C120.254 139.399 120.407 140.355 120.796 141.253C121.185 142.151 121.802 142.971 122.604 143.657C123.407 144.343 124.378 144.881 125.452 145.234C126.526 145.587 127.678 145.747 128.833 145.704C130.919 145.788 132.962 145.192 134.52 144.045C136.079 142.898 137.028 141.292 137.164 139.572C137.284 138.616 137.163 137.65 136.81 136.733C136.457 135.817 135.879 134.97 135.112 134.247C134.345 133.523 133.405 132.937 132.352 132.526C131.298 132.115 130.153 131.887 128.988 131.857ZM120.348 106.309C120.248 107.221 120.381 108.139 120.738 109.005C121.096 109.871 121.67 110.666 122.423 111.338C123.176 112.01 124.091 112.544 125.11 112.905C126.129 113.267 127.229 113.448 128.338 113.437C129.49 113.514 130.649 113.388 131.738 113.067C132.826 112.746 133.82 112.238 134.652 111.576C135.484 110.913 136.135 110.113 136.563 109.227C136.991 108.341 137.185 107.39 137.133 106.437C137.235 104.716 136.513 103.031 135.122 101.746C133.732 100.46 131.785 99.6767 129.7 99.5648C128.541 99.4588 127.368 99.551 126.254 99.8358C125.14 100.12 124.109 100.592 123.225 101.22C122.342 101.848 121.625 102.619 121.119 103.486C120.613 104.353 120.33 105.297 120.286 106.258L120.348 106.309ZM98.0186 203.62C98.1227 202.709 97.9938 201.79 97.6402 200.923C97.2867 200.055 96.7164 199.259 95.9662 198.585C95.2161 197.91 94.3027 197.374 93.2853 197.009C92.2678 196.644 91.1689 196.46 90.0595 196.467C88.9075 196.387 87.7478 196.509 86.6577 196.827C85.5675 197.145 84.5719 197.65 83.7369 198.31C82.902 198.97 82.2469 199.769 81.8152 200.653C81.3835 201.538 81.1851 202.489 81.2332 203.442C81.1313 205.163 81.8534 206.848 83.2439 208.133C84.6344 209.419 86.5817 210.202 88.6659 210.314C89.8202 210.412 90.9868 210.315 92.0935 210.026C93.2002 209.738 94.2234 209.266 95.1 208.639C95.9766 208.011 96.6879 207.242 97.1899 206.379C97.6919 205.516 97.974 204.577 98.0186 203.62ZM81.0784 7.87422C80.9823 8.82003 81.1204 9.77208 81.4843 10.6725C81.8482 11.5729 82.4302 12.4029 83.1951 13.1119C83.9599 13.821 84.8915 14.3943 85.9333 14.7971C86.9752 15.1999 88.1054 15.4237 89.2553 15.4549C90.4052 15.4861 91.5508 15.3241 92.6225 14.9787C93.6941 14.6333 94.6695 14.1117 95.4891 13.4457C96.3088 12.7796 96.9558 11.983 97.3906 11.1043C97.8254 10.2256 98.0391 9.28305 98.0186 8.33407C97.9799 6.53923 97.1068 4.82525 95.5797 3.54636C94.0527 2.26747 91.9884 1.52141 89.8135 1.46237C87.6385 1.40333 85.5193 2.03582 83.8936 3.22913C82.2679 4.42244 81.2601 6.08536 81.0784 7.87422ZM98.0806 171.379C98.1817 170.427 98.0371 169.468 97.6564 168.564C97.2756 167.661 96.6673 166.835 95.8715 166.14C95.0757 165.445 94.1105 164.897 93.0393 164.532C91.9682 164.167 90.8154 163.993 89.6569 164.022C88.5429 163.939 87.4202 164.051 86.3622 164.35C85.3041 164.649 84.3343 165.129 83.5161 165.758C82.6979 166.387 82.0497 167.152 81.6136 168.001C81.1776 168.851 80.9636 169.767 80.9855 170.689C80.5829 174.854 84.3611 178.098 90.2763 178.149C91.3175 178.13 92.3438 177.941 93.2965 177.593C94.2492 177.246 95.1096 176.748 95.8286 176.126C96.5476 175.504 97.1111 174.772 97.4868 173.971C97.8626 173.169 98.0433 172.315 98.0186 171.456L98.0806 171.379ZM1.17736 237.037C1.12052 237.955 1.29636 238.873 1.69366 239.732C2.09097 240.592 2.70102 241.373 3.48488 242.027C4.26874 242.681 5.20921 243.193 6.24629 243.53C7.28336 243.867 8.39426 244.022 9.50812 243.986C11.238 244.037 12.9466 243.657 14.4122 242.898C15.8779 242.138 17.0332 241.033 17.7284 239.725C18.4235 238.417 18.6265 236.967 18.3109 235.563C17.9954 234.159 17.1759 232.866 15.9587 231.85C14.7415 230.835 13.1827 230.145 11.4843 229.869C9.78592 229.593 8.02623 229.744 6.43332 230.303C4.84042 230.862 3.48773 231.803 2.55058 233.004C1.61343 234.204 1.13502 235.609 1.17736 237.037ZM89.0685 33.5752C87.9537 33.5431 86.8433 33.7063 85.8105 34.0539C84.7777 34.4014 83.8458 34.9256 83.0763 35.5917C82.3068 36.2579 81.7171 37.051 81.3461 37.9188C80.975 38.7865 80.831 39.7093 80.9235 40.6263C80.8079 41.5927 80.9536 42.5682 81.35 43.4825C81.7465 44.3969 82.3839 45.2273 83.2162 45.9139C84.0486 46.6006 85.0552 47.1263 86.1636 47.4534C87.272 47.7804 88.4545 47.9006 89.6259 47.8052C90.7971 47.8227 91.9604 47.6436 93.045 47.2788C94.1296 46.9139 95.113 46.3709 95.9354 45.6828C96.7578 44.9947 97.402 44.1759 97.8288 43.276C98.2557 42.3762 98.4563 41.4142 98.4184 40.4484C98.3806 39.4826 98.1051 38.5332 97.6087 37.658C97.1124 36.7828 96.4054 35.9999 95.5309 35.3571C94.6564 34.7142 93.6325 34.2248 92.5216 33.9184C91.4107 33.6121 90.2358 33.4953 89.0685 33.5752ZM58.9972 203.416C59.0877 202.499 58.9453 201.576 58.579 200.707C58.2127 199.837 57.6306 199.041 56.8699 198.367C56.1092 197.694 55.1866 197.159 54.1611 196.797C53.1356 196.435 52.0298 196.253 50.9142 196.263C49.7519 196.159 48.5763 196.258 47.4627 196.551C46.3491 196.844 45.3221 197.326 44.4474 197.966C43.5727 198.606 42.8697 199.389 42.3834 200.266C41.8971 201.143 41.6382 202.094 41.6234 203.058C41.5425 204.014 41.7013 204.974 42.0899 205.877C42.4784 206.78 43.0883 207.607 43.8816 208.307C44.6749 209.007 45.6346 209.565 46.7007 209.945C47.7668 210.325 48.9165 210.521 50.078 210.518C51.2444 210.587 52.4152 210.453 53.5143 210.123C54.6135 209.794 55.6163 209.278 56.4576 208.608C57.2989 207.938 57.9598 207.13 58.3974 206.235C58.8349 205.341 59.0393 204.38 58.9972 203.416ZM89.8737 131.576C87.6335 131.587 85.4846 132.31 83.8743 133.594C82.2639 134.879 81.3162 136.627 81.2284 138.473C81.1407 140.32 81.9195 142.124 83.403 143.508C84.8864 144.893 86.9601 145.753 89.1924 145.908C90.367 146.033 91.5606 145.948 92.6916 145.658C93.8227 145.368 94.8646 144.88 95.7464 144.228C96.6282 143.576 97.3292 142.774 97.8015 141.878C98.2738 140.982 98.5063 140.013 98.4832 139.036C98.0187 134.565 95.4482 131.755 89.8737 131.576ZM80.8306 72.8164C80.6622 73.78 80.7566 74.7625 81.1071 75.6922C81.4576 76.6219 82.0553 77.4753 82.8566 78.1901C83.6578 78.9049 84.6424 79.4632 85.7385 79.8241C86.8347 80.185 88.0147 80.3395 89.1924 80.2763C90.3605 80.4153 91.5515 80.3373 92.6785 80.0482C93.8054 79.7591 94.8399 79.266 95.7065 78.605C96.573 77.9441 97.2497 77.1318 97.6873 76.2276C98.1248 75.3234 98.3121 74.35 98.2354 73.3784C98.4522 68.8054 95.3553 66.3528 89.595 65.7141C84.485 66.0207 80.9855 68.0645 80.8306 72.8164ZM59.1521 8.69174C59.2868 7.72974 59.1678 6.75509 58.8033 5.83455C58.4389 4.91402 57.8375 4.06935 57.0404 3.35842C56.2433 2.6475 55.2693 2.0871 54.1852 1.71564C53.1011 1.34418 51.9325 1.17042 50.7594 1.20628C49.5368 1.09953 48.3008 1.21482 47.138 1.54405C45.9752 1.87329 44.9139 2.40849 44.0285 3.11208C43.1431 3.81568 42.4552 4.67061 42.0129 5.61686C41.5707 6.56312 41.3849 7.57776 41.4685 8.58955C41.4116 9.5538 41.5988 10.5173 42.0183 11.4185C42.4378 12.3197 43.0803 13.139 43.9049 13.824C44.7294 14.5091 45.718 15.0448 46.8075 15.3972C47.8971 15.7496 49.0636 15.9108 50.2329 15.8706C55.7454 15.4363 59.0592 13.1626 59.1521 8.58955V8.69174ZM98.2045 106.284C98.2811 105.312 98.0938 104.339 97.6563 103.435C97.2188 102.53 96.542 101.718 95.6755 101.057C94.809 100.396 93.7745 99.9032 92.6475 99.6141C91.5205 99.3249 90.3295 99.247 89.1614 99.386C87.9837 99.3228 86.8037 99.4772 85.7076 99.8382C84.6115 100.199 83.6269 100.757 82.8256 101.472C82.0243 102.187 81.4267 103.04 81.0762 103.97C80.7257 104.9 80.6312 105.882 80.7997 106.846C80.9855 111.47 84.3921 113.616 89.8737 113.846C91.0604 113.869 92.2392 113.68 93.3291 113.292C94.419 112.904 95.3945 112.326 96.1886 111.598C96.9827 110.87 97.5767 110.009 97.93 109.075C98.2833 108.14 98.3875 107.153 98.2354 106.182L98.2045 106.284ZM40.973 40.5497C40.9739 42.0556 41.5124 43.528 42.5215 44.7829C43.5306 46.0378 44.9655 47.0197 46.647 47.6059C48.3285 48.1922 50.1821 48.3568 51.9763 48.0792C53.7705 47.8017 55.4259 47.0942 56.7356 46.0452C58.0454 44.9962 58.9515 43.6522 59.3409 42.1809C59.7302 40.7096 59.5855 39.1763 58.9249 37.7725C58.2642 36.3687 57.1169 35.1565 55.6261 34.2873C54.1354 33.4182 52.3672 32.9306 50.5426 32.8854C48.0683 32.928 45.7055 33.7423 43.9299 35.1644C42.1543 36.5865 41.0978 38.5108 40.973 40.5497ZM59.5547 171.124C59.622 169.166 58.7537 167.266 57.1372 165.832C55.5207 164.398 53.2856 163.546 50.9142 163.46C49.6912 163.401 48.4662 163.542 47.3098 163.876C46.1533 164.209 45.0882 164.728 44.1758 165.402C43.2634 166.077 42.5216 166.893 41.9932 167.805C41.4648 168.717 41.1602 169.706 41.0969 170.715C41.0769 172.747 42.0044 174.708 43.6876 176.191C45.3708 177.675 47.6809 178.568 50.14 178.686C51.3601 178.699 52.5715 178.515 53.705 178.142C54.8385 177.769 55.8718 177.216 56.7461 176.514C57.6203 175.811 58.3184 174.974 58.8003 174.049C59.2822 173.124 59.5385 172.13 59.5547 171.124ZM0.712816 203.748C0.777599 205.7 1.76736 207.553 3.46965 208.909C5.17194 210.266 7.45107 211.018 9.81782 211.004C12.2819 211.004 14.6451 210.196 16.3874 208.759C18.1298 207.322 19.1086 205.372 19.1086 203.339C19.0365 201.295 18.0049 199.353 16.2314 197.923C14.4578 196.493 12.0807 195.687 9.60104 195.675C8.36174 195.704 7.14207 195.938 6.01388 196.362C4.88569 196.786 3.8718 197.392 3.03195 198.144C2.1921 198.897 1.54327 199.78 1.1237 200.743C0.704135 201.705 0.522314 202.727 0.588942 203.748H0.712816ZM50.5426 131.04C48.7171 131.04 46.9323 131.484 45.411 132.317C43.8898 133.149 42.6995 134.333 41.9888 135.72C41.2782 137.107 41.0786 138.636 41.4151 140.117C41.7516 141.597 42.6092 142.962 43.8808 144.043C45.1524 145.123 46.7817 145.871 48.5652 146.192C50.3487 146.513 52.2074 146.394 53.9091 145.849C55.6109 145.304 57.0803 144.357 58.1339 143.127C59.1875 141.898 59.7786 140.439 59.8334 138.934C59.7817 136.893 58.7946 134.944 57.0707 133.479C55.3468 132.014 53.0142 131.142 50.5426 131.04ZM0.310217 8.25743C0.37509 10.3 1.36482 12.2485 3.08444 13.7191C4.80407 15.1897 7.12892 16.0758 9.60104 16.2028C12.1786 16.1898 14.6479 15.3463 16.482 13.8524C18.3162 12.3584 19.3699 10.3323 19.4183 8.20634C19.4183 6.1296 18.4183 4.13791 16.6382 2.66944C14.858 1.20096 12.4437 0.375977 9.92621 0.375977C7.40875 0.375977 4.99439 1.20096 3.21427 2.66944C1.43415 4.13791 0.434091 6.1296 0.434091 8.20634L0.310217 8.25743ZM50.5735 65.1521C48.6944 65.1217 46.8468 65.553 45.2655 66.3911C43.6843 67.2291 42.4408 68.4361 41.6932 69.8587C40.9456 71.2812 40.7277 72.855 41.0671 74.3799C41.4065 75.9049 42.288 77.3122 43.5994 78.4228C44.9108 79.5335 46.5929 80.2974 48.4319 80.6174C50.2709 80.9374 52.1838 80.7991 53.9273 80.2201C55.6708 79.641 57.1661 78.6474 58.2233 77.3654C59.2805 76.0835 59.8517 74.5712 59.8644 73.0208C59.7699 70.9935 58.7679 69.067 57.0519 67.6137C55.3359 66.1603 53.0277 65.2833 50.5735 65.1521ZM50.7284 98.6195C48.8493 98.5591 46.991 98.9613 45.3898 99.7748C43.7886 100.588 42.517 101.776 41.7369 103.188C40.9567 104.599 40.7032 106.17 41.0086 107.701C41.314 109.232 42.1646 110.653 43.452 111.783C44.7395 112.914 46.4056 113.703 48.2384 114.05C50.0712 114.398 51.9877 114.287 53.7442 113.733C55.5006 113.179 57.0175 112.206 58.1019 110.939C59.1862 109.672 59.7889 108.167 59.8334 106.616C59.7733 104.595 58.8107 102.664 57.1303 101.193C55.4499 99.7218 53.1701 98.8145 50.7284 98.6451V98.6195ZM19.3564 171.609C19.4182 169.491 18.4866 167.434 16.7558 165.869C15.025 164.303 12.6284 163.348 10.0656 163.204C8.80888 163.174 7.55729 163.348 6.38225 163.717C5.20722 164.086 4.13174 164.642 3.21725 165.354C2.30275 166.065 1.56714 166.919 1.05241 167.865C0.537676 168.811 0.253909 169.832 0.217307 170.868C0.180704 171.905 0.391985 172.938 0.839083 173.907C1.28618 174.876 1.96034 175.763 2.82307 176.518C3.6858 177.272 4.72021 177.879 5.86723 178.304C7.01426 178.728 8.25143 178.962 9.50812 178.992C11.9597 178.967 14.315 178.202 16.1294 176.841C17.9438 175.481 19.0917 173.62 19.3564 171.609ZM9.44618 32.7832C6.96797 32.8167 4.60503 33.6524 2.86697 35.1101C1.12892 36.5678 0.155033 38.5306 0.155366 40.5752C0.163003 42.6924 1.17536 44.7229 2.97561 46.2319C4.77585 47.7408 7.22083 48.6082 9.78685 48.6483C12.3458 48.5639 14.7688 47.6754 16.5595 46.165C18.3502 44.6546 19.373 42.6365 19.4183 40.5241C19.2981 38.4188 18.1906 36.4344 16.3299 34.99C14.4692 33.5457 12.0009 32.7543 9.44618 32.7832ZM0.155366 138.959C0.198129 140.54 0.806155 142.075 1.90307 143.371C2.99999 144.668 4.53688 145.668 6.32069 146.246C8.10449 146.825 10.0557 146.955 11.9291 146.622C13.8026 146.288 15.5147 145.505 16.8506 144.372C18.1864 143.238 19.0863 141.804 19.4373 140.249C19.7883 138.695 19.5746 137.09 18.8232 135.635C18.0718 134.181 16.8161 132.942 15.2139 132.074C13.6117 131.207 11.7344 130.749 9.81782 130.758C7.22665 130.824 4.76696 131.715 2.95418 133.244C1.14139 134.773 0.116198 136.821 0.0934261 138.959H0.155366ZM0.155366 73.2763C0.223856 74.8715 0.864111 76.4143 1.9952 77.7094C3.12629 79.0046 4.69745 79.9941 6.51009 80.5529C8.32272 81.1116 10.2955 81.2145 12.179 80.8486C14.0625 80.4827 15.7722 79.6643 17.0921 78.497C18.412 77.3296 19.2827 75.8657 19.5942 74.2903C19.9058 72.7148 19.6441 71.0985 18.8424 69.6457C18.0407 68.1929 16.7349 66.9687 15.09 66.128C13.4451 65.2872 11.535 64.8676 9.60104 64.9222C6.99955 65.0149 4.54362 65.9382 2.75215 67.4971C0.960684 69.056 -0.0260148 71.1283 0.000521709 73.2763H0.155366ZM9.66297 98.3641C7.72777 98.3895 5.84517 98.8878 4.25322 99.7958C2.66127 100.704 1.43146 101.981 0.71929 103.466C0.0071211 104.95 -0.155421 106.576 0.252211 108.136C0.659842 109.697 1.61934 111.123 3.00939 112.234C4.39944 113.345 6.15761 114.091 8.0616 114.378C9.96558 114.665 11.9299 114.479 13.7061 113.845C15.4823 113.211 16.9907 112.156 18.0406 110.815C19.0904 109.474 19.6345 107.906 19.6041 106.309C19.5084 104.183 18.4208 102.17 16.5684 100.689C14.716 99.2088 12.2421 98.3758 9.66297 98.3641Z" fill="#79448C"/>
</svg>