<svg width="400" height="450" viewBox="0 0 490 627" fill="none" xmlns="http://www.w3.org/2000/svg">
<path d="M294.897 140.213C289.76 139.732 286.335 137.524 286.335 132.979C286.261 131.09 287.063 129.253 288.564 127.872C290.065 126.492 292.142 125.68 294.339 125.617C296.536 125.553 298.672 126.242 300.278 127.533C301.884 128.824 302.827 130.61 302.901 132.499C303.199 137.044 299.923 139.412 294.897 140.213ZM341.581 167.068C339.606 167.068 337.713 167.742 336.316 168.943C334.92 170.143 334.136 171.771 334.136 173.469C334.136 175.167 334.92 176.795 336.316 177.996C337.713 179.196 339.606 179.871 341.581 179.871C343.556 179.871 345.45 179.196 346.846 177.996C348.242 176.795 349.027 175.167 349.027 173.469C349.027 171.771 348.242 170.143 346.846 168.943C345.45 167.742 343.556 167.068 341.581 167.068ZM198.515 412.988C197.603 412.942 196.69 413.061 195.835 413.339C194.98 413.616 194.203 414.045 193.553 414.597C192.904 415.15 192.397 415.813 192.065 416.545C191.733 417.277 191.584 418.061 191.628 418.845C191.498 419.679 191.586 420.527 191.885 421.328C192.184 422.129 192.687 422.863 193.358 423.476C194.028 424.089 194.848 424.566 195.76 424.872C196.671 425.178 197.65 425.306 198.626 425.247C200.522 425.247 202.34 424.599 203.681 423.447C205.021 422.294 205.774 420.731 205.774 419.101C205.774 417.471 205.021 415.908 203.681 414.756C202.34 413.603 200.522 412.956 198.626 412.956L198.515 412.988ZM341.581 126.577C339.606 126.577 337.713 127.251 336.316 128.452C334.92 129.653 334.136 131.281 334.136 132.979C334.136 134.676 334.92 136.305 336.316 137.505C337.713 138.706 339.606 139.38 341.581 139.38C343.556 139.38 345.45 138.706 346.846 137.505C348.242 136.305 349.027 134.676 349.027 132.979C349.027 131.281 348.242 129.653 346.846 128.452C345.45 127.251 343.556 126.577 341.581 126.577ZM152.241 465.865C153.154 465.882 154.062 465.733 154.905 465.427C155.747 465.122 156.506 464.668 157.131 464.095C157.756 463.521 158.233 462.841 158.532 462.098C158.832 461.355 158.946 460.567 158.867 459.784C158.972 458.929 158.85 458.065 158.51 457.258C158.169 456.45 157.62 455.719 156.902 455.121C156.185 454.522 155.319 454.072 154.369 453.804C153.42 453.536 152.412 453.458 151.422 453.574C150.425 453.54 149.431 453.685 148.503 453.999C147.575 454.314 146.733 454.791 146.031 455.4C145.33 456.009 144.783 456.738 144.427 457.539C144.07 458.34 143.911 459.196 143.961 460.052C144.01 460.909 144.266 461.747 144.713 462.514C145.16 463.281 145.787 463.959 146.555 464.506C147.324 465.053 148.216 465.456 149.176 465.69C150.135 465.924 151.141 465.984 152.129 465.865H152.241ZM57.0863 494.065C56.101 494.04 55.1218 494.206 54.2209 494.55C53.3201 494.894 52.5205 495.408 51.881 496.053C51.2416 496.698 50.7786 497.458 50.5261 498.277C50.2737 499.096 50.2383 499.954 50.4225 500.786C50.4177 501.573 50.6056 502.352 50.9741 503.072C51.3425 503.792 51.8833 504.437 52.5611 504.966C53.239 505.494 54.0387 505.894 54.9081 506.139C55.7776 506.384 56.6973 506.469 57.6075 506.388C62.2609 506.388 64.5318 503.923 64.8297 499.986C64.8434 499.141 64.6454 498.303 64.2491 497.53C63.8527 496.756 63.2674 496.065 62.5328 495.503C61.7982 494.941 60.9315 494.522 59.9917 494.274C59.0519 494.026 58.061 493.954 57.0863 494.065ZM16.1357 499.858C16.1612 499.005 15.9704 498.156 15.5767 497.372C15.183 496.589 14.5957 495.888 13.8555 495.318C13.1154 494.749 12.2401 494.325 11.2903 494.075C10.3405 493.825 9.339 493.756 8.3551 493.873C7.37296 493.853 6.39735 494.015 5.49445 494.348C4.59155 494.681 3.7825 495.177 3.12219 495.802C2.46187 496.427 1.96575 497.168 1.66748 497.972C1.36921 498.777 1.27577 499.628 1.39351 500.466C1.50212 502.164 2.39071 503.755 3.86382 504.89C5.33693 506.024 7.27388 506.609 9.24857 506.516C11.2233 506.423 13.0739 505.659 14.3934 504.392C15.7129 503.125 16.3932 501.46 16.2846 499.762L16.1357 499.858ZM287.228 296.317C287.228 298.015 288.013 299.643 289.409 300.844C290.806 302.044 292.699 302.719 294.674 302.719C296.649 302.719 298.543 302.044 299.939 300.844C301.335 299.643 302.12 298.015 302.12 296.317C302.12 292.38 299.402 290.236 294.674 289.915C293.697 289.876 292.72 290.01 291.806 290.309C290.891 290.608 290.058 291.067 289.359 291.656C288.661 292.245 288.111 292.951 287.744 293.731C287.377 294.511 287.202 295.348 287.228 296.189V296.317ZM348.84 213.512C348.874 212.729 348.716 211.95 348.377 211.224C348.038 210.497 347.526 209.84 346.873 209.294C346.221 208.748 345.443 208.326 344.589 208.054C343.735 207.783 342.825 207.668 341.916 207.718C340.922 207.628 339.918 207.733 338.978 208.025C338.038 208.318 337.189 208.791 336.493 209.407C335.797 210.024 335.273 210.769 334.962 211.585C334.65 212.402 334.559 213.268 334.694 214.12C334.654 214.977 334.823 215.831 335.188 216.629C335.554 217.427 336.109 218.151 336.818 218.754C337.526 219.358 338.374 219.828 339.305 220.134C340.237 220.441 341.232 220.577 342.228 220.535C343.225 220.492 344.2 220.272 345.091 219.888C345.983 219.504 346.772 218.964 347.408 218.304C348.044 217.643 348.513 216.876 348.785 216.051C349.058 215.226 349.127 214.361 348.989 213.512H348.84ZM246.985 371.089C246.074 371.077 245.171 371.229 244.333 371.536C243.495 371.844 242.741 372.298 242.12 372.871C241.499 373.444 241.025 374.123 240.728 374.864C240.431 375.604 240.318 376.39 240.396 377.17C240.291 378.025 240.413 378.889 240.753 379.696C241.094 380.504 241.643 381.235 242.361 381.833C243.078 382.432 243.944 382.882 244.894 383.15C245.843 383.418 246.851 383.496 247.841 383.38C248.838 383.414 249.832 383.269 250.76 382.955C251.688 382.64 252.53 382.163 253.232 381.554C253.933 380.944 254.48 380.216 254.836 379.415C255.193 378.614 255.352 377.758 255.302 376.902C255.253 376.045 254.997 375.207 254.55 374.44C254.103 373.673 253.476 372.995 252.708 372.448C251.939 371.901 251.047 371.498 250.087 371.264C249.128 371.03 248.122 370.97 247.134 371.089H246.985ZM98.5953 540.285C98.53 540.998 98.6369 541.715 98.9094 542.391C99.182 543.066 99.6142 543.686 100.179 544.212C100.743 544.737 101.428 545.156 102.191 545.443C102.953 545.729 103.776 545.877 104.608 545.877C105.439 545.877 106.262 545.729 107.024 545.443C107.787 545.156 108.472 544.737 109.036 544.212C109.601 543.686 110.033 543.066 110.306 542.391C110.578 541.715 110.685 540.998 110.62 540.285C110.501 538.984 109.816 537.77 108.701 536.884C107.587 535.998 106.125 535.506 104.608 535.506C103.09 535.506 101.628 535.998 100.514 536.884C99.3995 537.77 98.7144 538.984 98.5953 540.285ZM63.9734 540.893C63.993 540.166 63.8457 539.442 63.5402 538.764C63.2346 538.086 62.7766 537.466 62.1924 536.94C61.6081 536.414 60.9091 535.992 60.1352 535.698C59.3613 535.404 58.5277 535.244 57.6819 535.227C56.8362 535.211 55.9948 535.337 55.206 535.6C54.4171 535.863 53.6961 536.256 53.0843 536.759C52.4724 537.261 51.9816 537.862 51.6398 538.527C51.2981 539.193 51.1122 539.91 51.0926 540.637C51.0819 542.095 51.7332 543.5 52.9081 544.552C54.083 545.604 55.6888 546.22 57.3841 546.27C59.086 546.305 60.7346 545.758 61.9694 544.751C63.2042 543.743 63.9247 542.356 63.9734 540.893ZM2.21252 539.901C2.02907 540.683 2.05156 541.49 2.27831 542.264C2.50507 543.037 2.93034 543.757 3.52295 544.371C4.11556 544.985 4.86048 545.477 5.70306 545.811C6.54565 546.146 7.46453 546.313 8.39233 546.302C9.23834 546.406 10.1002 546.356 10.9222 546.155C11.7442 545.954 12.508 545.607 13.1642 545.136C13.8204 544.666 14.3543 544.082 14.7315 543.422C15.1087 542.763 15.3208 542.043 15.3539 541.309C15.8751 537.596 13.3064 535.579 8.95074 534.907C7.30948 534.88 5.71419 535.374 4.47073 536.296C3.22726 537.217 2.42313 538.501 2.21252 539.901ZM396.827 50.4611C396.748 48.9925 395.994 47.611 394.73 46.6206C393.466 45.6301 391.797 45.1119 390.089 45.1798C388.381 45.2477 386.774 45.8962 385.622 46.9827C384.47 48.0692 383.867 49.5047 383.946 50.9733C384.207 54.1741 386.85 55.9346 391.02 56.2226C392.658 56.0636 394.168 55.3851 395.256 54.3197C396.344 53.2543 396.931 51.8785 396.902 50.4611H396.827ZM391.057 127.281C390.137 127.115 389.185 127.131 388.274 127.329C387.362 127.527 386.516 127.901 385.798 128.423C385.08 128.944 384.51 129.6 384.131 130.339C383.752 131.079 383.574 131.883 383.611 132.691C383.507 133.418 383.581 134.157 383.829 134.859C384.077 135.56 384.494 136.209 385.051 136.764C385.609 137.319 386.296 137.767 387.067 138.08C387.839 138.393 388.678 138.563 389.53 138.58C390.429 138.722 391.352 138.703 392.241 138.524C393.13 138.345 393.967 138.009 394.698 137.539C395.43 137.068 396.04 136.473 396.491 135.79C396.942 135.107 397.224 134.352 397.319 133.57C397.415 132.789 397.321 132 397.044 131.251C396.768 130.503 396.314 129.812 395.712 129.221C395.11 128.631 394.373 128.153 393.546 127.82C392.719 127.486 391.821 127.302 390.908 127.281H391.057ZM384.095 10.1947C384.095 11.6208 384.754 12.9886 385.927 13.9971C387.1 15.0055 388.691 15.5721 390.349 15.5721C392.008 15.5721 393.599 15.0055 394.772 13.9971C395.945 12.9886 396.604 11.6208 396.604 10.1947C396.827 6.99382 394.184 5.04131 390.387 4.46516C386.589 5.04131 384.132 6.80177 384.17 10.1626L384.095 10.1947ZM383.76 90.9517C383.681 91.7408 383.808 92.5352 384.132 93.2767C384.455 94.0183 384.968 94.6882 385.632 95.2374C386.296 95.7867 387.094 96.2013 387.968 96.4511C388.842 96.701 389.77 96.7795 390.685 96.6812C391.536 96.7057 392.384 96.5757 393.173 96.2999C393.962 96.024 394.675 95.6083 395.265 95.0799C395.855 94.5515 396.309 93.9223 396.597 93.2331C396.886 92.5439 397.002 91.8102 396.939 91.0797C396.939 87.3668 394.221 85.5423 390.052 85.1902C386.366 85.7983 383.835 87.5588 383.835 90.9197L383.76 90.9517ZM151.794 494.577C150.948 494.589 150.113 494.745 149.338 495.035C148.562 495.325 147.86 495.743 147.272 496.267C146.685 496.79 146.223 497.407 145.913 498.084C145.602 498.761 145.45 499.483 145.465 500.21C145.48 500.937 145.661 501.655 145.998 502.322C146.335 502.989 146.822 503.592 147.43 504.098C148.039 504.603 148.757 505 149.544 505.267C150.331 505.534 151.171 505.664 152.017 505.652C153.712 505.61 155.32 504.995 156.491 503.94C157.662 502.885 158.302 501.476 158.271 500.018C158.223 498.566 157.521 497.187 156.312 496.172C155.103 495.156 153.483 494.585 151.794 494.577ZM97.8879 499.89C97.9302 501.363 98.6233 502.766 99.8261 503.815C101.029 504.864 102.651 505.479 104.363 505.536C106.075 505.593 107.748 505.088 109.041 504.122C110.335 503.157 111.152 501.804 111.327 500.338C111.421 499.551 111.326 498.755 111.049 498C110.771 497.245 110.316 496.547 109.713 495.949C109.109 495.351 108.369 494.866 107.539 494.524C106.709 494.181 105.805 493.989 104.885 493.958C103.965 493.927 103.047 494.059 102.189 494.345C101.33 494.631 100.549 495.066 99.8931 495.622C99.2374 496.178 98.7211 496.843 98.3763 497.577C98.0314 498.312 97.8652 499.099 97.8879 499.89ZM288.01 376.626C287.817 377.417 287.836 378.235 288.066 379.019C288.296 379.803 288.731 380.531 289.338 381.148C289.944 381.765 290.707 382.255 291.567 382.581C292.427 382.907 293.363 383.06 294.302 383.028C295.148 383.117 296.007 383.053 296.823 382.84C297.639 382.627 298.394 382.269 299.04 381.79C299.685 381.31 300.207 380.72 300.57 380.056C300.934 379.393 301.132 378.672 301.152 377.938C301.317 377.166 301.295 376.373 301.086 375.608C300.878 374.843 300.488 374.124 299.941 373.495C299.393 372.866 298.701 372.342 297.907 371.954C297.113 371.566 296.234 371.323 295.325 371.242C294.417 371.16 293.498 371.24 292.628 371.478C291.757 371.716 290.953 372.106 290.267 372.623C289.58 373.141 289.025 373.775 288.636 374.486C288.248 375.197 288.035 375.969 288.01 376.754V376.626ZM348.505 254.418C348.611 253.639 348.516 252.85 348.228 252.106C347.939 251.362 347.463 250.681 346.834 250.113C346.205 249.545 345.439 249.103 344.589 248.818C343.739 248.533 342.826 248.412 341.916 248.465C340.944 248.341 339.952 248.414 339.019 248.679C338.086 248.944 337.238 249.393 336.543 249.99C335.848 250.588 335.326 251.317 335.017 252.119C334.709 252.921 334.624 253.775 334.768 254.61C334.798 256.172 335.548 257.66 336.854 258.747C338.159 259.833 339.913 260.429 341.73 260.404C343.547 260.378 345.277 259.733 346.541 258.611C347.805 257.488 348.498 255.98 348.468 254.418H348.505ZM390.982 259.7C392.641 259.611 394.191 258.958 395.29 257.887C396.39 256.816 396.949 255.412 396.846 253.986C396.742 252.56 395.984 251.228 394.737 250.282C393.491 249.337 391.859 248.856 390.201 248.945C389.36 248.966 388.532 249.129 387.764 249.425C386.996 249.721 386.304 250.144 385.727 250.67C385.149 251.196 384.698 251.815 384.399 252.491C384.1 253.167 383.959 253.887 383.984 254.61C384.951 257.875 387.148 260.116 391.02 259.732L390.982 259.7ZM383.946 173.021C383.892 174.49 384.518 175.917 385.688 176.988C386.857 178.06 388.474 178.688 390.182 178.735C391.89 178.781 393.55 178.243 394.796 177.237C396.042 176.232 396.773 174.842 396.827 173.373C396.827 170.172 394.333 168.284 390.573 167.708C388.889 167.698 387.266 168.249 386.045 169.246C384.823 170.242 384.098 171.607 384.021 173.053L383.946 173.021ZM254.059 419.485C254.184 418.697 254.103 417.895 253.82 417.138C253.537 416.381 253.059 415.688 252.424 415.11C251.788 414.533 251.009 414.085 250.145 413.801C249.281 413.517 248.354 413.403 247.432 413.468C246.583 413.409 245.728 413.505 244.925 413.749C244.122 413.993 243.387 414.379 242.769 414.884C242.151 415.388 241.663 415.998 241.338 416.675C241.012 417.352 240.856 418.081 240.88 418.813C240.657 422.526 243.337 424.447 247.432 424.959C248.291 424.98 249.146 424.855 249.948 424.591C250.75 424.327 251.484 423.929 252.107 423.421C252.73 422.912 253.229 422.302 253.577 421.627C253.925 420.952 254.114 420.224 254.133 419.485H254.059ZM288.531 418.685C288.411 419.4 288.475 420.129 288.718 420.82C288.961 421.511 289.378 422.148 289.939 422.685C290.5 423.223 291.192 423.648 291.965 423.93C292.738 424.212 293.574 424.345 294.413 424.319C295.181 424.375 295.954 424.297 296.684 424.088C297.415 423.879 298.089 423.544 298.664 423.104C299.239 422.663 299.703 422.127 300.029 421.526C300.354 420.926 300.534 420.275 300.556 419.613C300.854 416.412 298.434 414.428 294.674 413.884C293.145 413.88 291.671 414.372 290.546 415.262C289.421 416.152 288.728 417.375 288.606 418.685H288.531ZM341.581 331.334C339.922 331.292 338.312 331.818 337.104 332.796C335.896 333.775 335.19 335.126 335.141 336.552C335.091 337.978 335.703 339.362 336.841 340.401C337.979 341.439 339.55 342.047 341.209 342.089C344.932 342.345 347.277 340.105 348.059 336.584C347.93 335.187 347.205 333.881 346.022 332.918C344.84 331.954 343.284 331.402 341.656 331.366L341.581 331.334ZM287.675 336.328C287.641 337.101 287.784 337.873 288.097 338.599C288.41 339.324 288.885 339.99 289.497 340.558C290.109 341.125 290.845 341.584 291.663 341.907C292.481 342.23 293.365 342.412 294.265 342.441C295.164 342.471 296.062 342.347 296.906 342.079C297.75 341.81 298.524 341.401 299.184 340.875C299.845 340.349 300.378 339.716 300.754 339.012C301.13 338.309 301.341 337.549 301.375 336.776C301.375 333.095 298.955 331.206 294.413 330.694C293.542 330.686 292.677 330.826 291.869 331.107C291.061 331.388 290.326 331.804 289.706 332.331C289.086 332.858 288.594 333.485 288.258 334.177C287.923 334.868 287.75 335.61 287.75 336.36L287.675 336.328ZM205.365 459.752C205.454 458.964 205.337 458.168 205.022 457.424C204.708 456.68 204.204 456.005 203.547 455.45C202.891 454.894 202.098 454.472 201.227 454.214C200.357 453.956 199.43 453.869 198.515 453.958C197.664 453.925 196.814 454.047 196.022 454.315C195.229 454.583 194.511 454.991 193.914 455.514C193.317 456.036 192.855 456.66 192.557 457.346C192.259 458.033 192.133 458.765 192.186 459.496C192.186 463.209 194.866 465.065 198.999 465.417C202.833 464.873 205.365 463.113 205.365 459.752ZM247.916 454.438C247.071 454.337 246.211 454.398 245.397 454.619C244.584 454.839 243.838 455.213 243.213 455.713C242.589 456.213 242.103 456.826 241.789 457.508C241.476 458.19 241.343 458.924 241.401 459.656C241.35 460.317 241.458 460.98 241.717 461.604C241.977 462.228 242.383 462.799 242.91 463.282C243.437 463.765 244.074 464.15 244.782 464.413C245.489 464.676 246.252 464.811 247.022 464.809C250.745 464.969 252.979 462.857 253.575 459.56C253.532 458.259 252.93 457.019 251.885 456.078C250.839 455.138 249.425 454.565 247.916 454.47V454.438ZM342.177 290.588C341.262 290.466 340.327 290.523 339.441 290.754C338.555 290.984 337.74 291.383 337.058 291.921C336.375 292.459 335.842 293.121 335.497 293.86C335.152 294.599 335.005 295.395 335.066 296.189C334.972 296.925 335.059 297.67 335.324 298.375C335.588 299.08 336.022 299.729 336.599 300.279C337.176 300.83 337.881 301.269 338.669 301.568C339.457 301.867 340.31 302.019 341.172 302.015C345.49 302.271 347.761 299.998 348.431 296.509C348.476 295.768 348.349 295.027 348.058 294.328C347.767 293.63 347.318 292.988 346.736 292.44C346.154 291.892 345.452 291.449 344.669 291.137C343.886 290.824 343.039 290.648 342.177 290.62V290.588ZM391.02 208.326C390.174 208.282 389.326 208.382 388.525 208.619C387.724 208.857 386.985 209.227 386.351 209.71C385.717 210.193 385.199 210.779 384.828 211.434C384.457 212.089 384.24 212.8 384.188 213.528C384.137 214.255 384.253 214.984 384.529 215.672C384.805 216.361 385.236 216.996 385.798 217.542C386.36 218.087 387.041 218.532 387.803 218.851C388.565 219.17 389.392 219.357 390.238 219.401C393.961 219.593 396.194 217.385 397.013 214.216C397.106 212.761 396.536 211.332 395.424 210.232C394.312 209.133 392.746 208.449 391.057 208.326H391.02ZM199.073 536.38C198.385 536.294 197.683 536.344 197.021 536.527C196.359 536.709 195.754 537.019 195.251 537.432C194.749 537.845 194.363 538.352 194.122 538.912C193.881 539.473 193.792 540.074 193.861 540.669C193.82 541.204 193.908 541.741 194.121 542.245C194.333 542.749 194.665 543.21 195.096 543.598C195.526 543.986 196.046 544.293 196.621 544.5C197.197 544.706 197.816 544.808 198.44 544.798C201.716 544.798 203.354 543.229 203.727 540.573C203.391 538.108 201.902 536.476 199.073 536.38ZM146.433 540.381C146.323 540.971 146.366 541.575 146.559 542.149C146.752 542.724 147.089 543.255 147.548 543.704C148.007 544.153 148.575 544.51 149.212 544.749C149.85 544.988 150.54 545.103 151.235 545.086C152.288 545.169 153.346 544.978 154.271 544.538C155.196 544.099 155.947 543.431 156.427 542.621C156.906 541.811 157.092 540.896 156.96 539.994C156.829 539.092 156.386 538.245 155.689 537.562C154.991 536.878 154.072 536.391 153.049 536.161C152.026 535.932 150.946 535.972 149.95 536.275C148.954 536.579 148.086 537.132 147.459 537.864C146.832 538.596 146.475 539.473 146.433 540.381ZM395.859 296.733C396.006 296.078 395.974 295.402 395.766 294.759C395.557 294.116 395.179 293.523 394.659 293.027C394.14 292.531 393.494 292.145 392.772 291.899C392.05 291.654 391.272 291.555 390.498 291.612C389.799 291.534 389.088 291.586 388.414 291.765C387.74 291.944 387.119 292.246 386.593 292.65C386.066 293.054 385.647 293.55 385.364 294.106C385.081 294.661 384.94 295.263 384.951 295.869C384.691 299.07 386.589 300.798 390.759 301.086C391.43 301.095 392.096 300.989 392.719 300.774C393.342 300.559 393.909 300.239 394.387 299.834C394.865 299.429 395.245 298.946 395.504 298.414C395.763 297.882 395.896 297.31 395.896 296.733H395.859ZM442.171 296.125C442.027 295.117 441.447 294.193 440.546 293.536C439.645 292.88 438.489 292.54 437.309 292.585C436.129 292.629 435.012 293.055 434.181 293.776C433.35 294.498 432.866 295.462 432.826 296.477C432.875 297.547 433.408 298.558 434.313 299.294C435.217 300.03 436.421 300.432 437.666 300.414C440.458 299.87 442.431 298.558 442.208 296.093L442.171 296.125ZM437.331 218.281C437.959 218.357 438.598 218.32 439.209 218.173C439.819 218.026 440.387 217.771 440.877 217.425C441.367 217.079 441.768 216.649 442.055 216.163C442.342 215.676 442.508 215.144 442.543 214.6C442.717 214.01 442.734 213.394 442.592 212.798C442.45 212.202 442.153 211.641 441.723 211.158C441.294 210.675 440.742 210.281 440.11 210.007C439.479 209.733 438.783 209.585 438.076 209.575C437.375 209.471 436.656 209.495 435.967 209.645C435.278 209.795 434.632 210.066 434.072 210.443C433.512 210.82 433.05 211.293 432.715 211.833C432.38 212.372 432.181 212.966 432.128 213.575C432.076 214.185 432.173 214.797 432.412 215.373C432.652 215.949 433.028 216.475 433.518 216.918C434.008 217.361 434.6 217.711 435.257 217.946C435.914 218.181 436.62 218.295 437.331 218.281ZM442.729 51.0693C442.876 50.4849 442.873 49.88 442.719 49.2968C442.566 48.7137 442.265 48.1665 441.84 47.6937C441.414 47.2209 440.873 46.834 440.255 46.56C439.637 46.2861 438.957 46.1318 438.262 46.108C437.556 46.0128 436.834 46.0417 436.142 46.1929C435.449 46.3442 434.799 46.6146 434.231 46.9879C433.664 47.3612 433.19 47.8296 432.839 48.3648C432.487 48.9 432.266 49.4908 432.188 50.1017C432.11 50.7125 432.177 51.3306 432.384 51.9186C432.592 52.5066 432.936 53.0523 433.396 53.5227C433.856 53.9931 434.422 54.3785 435.06 54.6555C435.698 54.9325 436.394 55.0954 437.108 55.1344C437.804 55.2316 438.517 55.1978 439.197 55.0351C439.876 54.8725 440.507 54.585 441.045 54.1925C441.583 53.7999 442.015 53.3116 442.313 52.7614C442.61 52.2111 442.765 51.612 442.766 51.0053L442.729 51.0693ZM442.431 254.45C442.499 253.858 442.411 253.261 442.172 252.703C441.933 252.145 441.55 251.64 441.052 251.228C440.554 250.815 439.954 250.505 439.297 250.32C438.639 250.135 437.942 250.081 437.256 250.161C436.633 250.147 436.013 250.244 435.435 250.447C434.858 250.649 434.336 250.953 433.902 251.338C433.468 251.723 433.132 252.182 432.914 252.684C432.697 253.187 432.604 253.723 432.64 254.258C432.64 257.075 434.651 258.451 437.778 258.643C439.035 258.602 440.224 258.141 441.093 257.358C441.962 256.575 442.442 255.532 442.431 254.45ZM9.54639 577.734C8.79078 577.63 8.0181 577.663 7.27825 577.831C6.53839 578 5.84781 578.299 5.25111 578.711C4.6544 579.123 4.16484 579.638 3.81404 580.223C3.46325 580.808 3.25902 581.45 3.21454 582.107C3.17006 582.763 3.28632 583.421 3.55581 584.037C3.82531 584.653 4.24204 585.213 4.77911 585.682C5.31617 586.151 5.96162 586.518 6.67377 586.758C7.38592 586.999 8.14892 587.109 8.91352 587.081C12.1896 587.081 14.0137 585.48 14.3488 582.376C14.3838 581.803 14.2858 581.23 14.0606 580.69C13.8353 580.15 13.4873 579.654 13.0369 579.231C12.5864 578.808 12.0425 578.466 11.4368 578.226C10.8311 577.985 10.1759 577.851 9.50916 577.831L9.54639 577.734ZM57.3096 578.023C56.677 577.996 56.0449 578.082 55.453 578.276C54.8612 578.47 54.3226 578.767 53.8712 579.149C53.4199 579.531 53.0656 579.99 52.8308 580.495C52.5961 581.001 52.4859 581.543 52.5073 582.088C52.362 582.692 52.3814 583.317 52.5639 583.914C52.7464 584.512 53.0872 585.064 53.5595 585.529C54.0318 585.994 54.6228 586.359 55.2863 586.595C55.9498 586.831 56.6678 586.931 57.3841 586.889C60.7346 586.889 62.4471 585.32 62.7077 582.152C62.6869 581.573 62.5259 581.004 62.235 580.482C61.944 579.96 61.5294 579.495 61.0179 579.119C60.5063 578.742 59.9089 578.462 59.264 578.295C58.619 578.128 57.9407 578.079 57.2724 578.151L57.3096 578.023ZM109.429 582.664C109.528 582.072 109.47 581.469 109.258 580.899C109.046 580.33 108.685 579.81 108.205 579.378C107.724 578.946 107.135 578.614 106.483 578.407C105.83 578.2 105.132 578.123 104.44 578.183C103.818 578.147 103.193 578.223 102.607 578.406C102.02 578.588 101.484 578.874 101.033 579.244C100.581 579.614 100.224 580.061 99.9841 580.556C99.7439 581.051 99.626 581.583 99.6376 582.12C99.5321 582.729 99.5851 583.35 99.7926 583.939C100 584.528 100.357 585.071 100.838 585.527C101.319 585.983 101.911 586.342 102.573 586.577C103.234 586.813 103.948 586.919 104.663 586.889C107.381 586.473 109.391 585.192 109.503 582.76L109.429 582.664ZM437.889 86.5345C437.206 86.4174 436.501 86.4306 435.824 86.5731C435.147 86.7156 434.515 86.984 433.972 87.3594C433.429 87.7348 432.988 88.208 432.681 88.7457C432.374 89.2834 432.207 89.8726 432.194 90.4716C432.019 91.1148 432.024 91.7846 432.21 92.4255C432.396 93.0665 432.757 93.6602 433.262 94.1575C433.768 94.6549 434.404 95.0415 435.118 95.2856C435.832 95.5296 436.603 95.624 437.368 95.5609C440.644 95.5609 442.394 94.0565 442.729 90.8877C442.769 90.3281 442.678 89.7673 442.459 89.2389C442.241 88.7105 441.901 88.2255 441.46 87.8129C441.018 87.4003 440.484 87.0688 439.89 86.8381C439.295 86.6074 438.653 86.4824 438.001 86.4705L437.889 86.5345ZM437.889 128.465C437.216 128.359 436.524 128.379 435.861 128.525C435.198 128.67 434.58 128.938 434.049 129.309C433.518 129.681 433.087 130.147 432.786 130.675C432.485 131.204 432.321 131.782 432.305 132.37C432.188 133.275 432.388 134.188 432.881 134.993C433.374 135.798 434.137 136.458 435.07 136.886C436.004 137.314 437.066 137.492 438.118 137.395C439.17 137.299 440.164 136.934 440.972 136.346C441.78 135.759 442.365 134.976 442.65 134.1C442.935 133.224 442.907 132.295 442.571 131.432C442.235 130.569 441.606 129.813 440.765 129.262C439.923 128.71 438.909 128.388 437.852 128.337L437.889 128.465ZM442.655 10.0346C442.701 9.49118 442.616 8.94538 442.404 8.43176C442.192 7.91813 441.859 7.44787 441.425 7.05072C440.991 6.65358 440.466 6.3382 439.883 6.12454C439.3 5.91089 438.672 5.80362 438.038 5.80951C437.347 5.69748 436.635 5.72167 435.956 5.88028C435.277 6.03888 434.649 6.32776 434.119 6.72519C433.588 7.12263 433.17 7.61827 432.894 8.17485C432.619 8.73143 432.494 9.33446 432.529 9.93859C432.529 12.8193 434.241 14.3237 438.001 14.6118C438.658 14.5689 439.299 14.411 439.883 14.1477C440.467 13.8845 440.982 13.5214 441.396 13.0808C441.811 12.6402 442.117 12.1314 442.295 11.5855C442.473 11.0397 442.519 10.4684 442.431 9.90658L442.655 10.0346ZM336.816 418.557C336.671 419.138 336.68 419.739 336.841 420.316C337.002 420.894 337.312 421.433 337.748 421.894C338.184 422.354 338.735 422.725 339.359 422.979C339.984 423.232 340.667 423.362 341.358 423.358C341.979 423.439 342.612 423.408 343.218 423.266C343.824 423.124 344.389 422.875 344.876 422.534C345.363 422.194 345.762 421.769 346.048 421.288C346.333 420.807 346.498 420.28 346.532 419.741C346.656 419.181 346.647 418.605 346.505 418.048C346.363 417.491 346.092 416.964 345.707 416.5C345.322 416.036 344.832 415.643 344.265 415.346C343.699 415.049 343.069 414.853 342.413 414.771C341.756 414.689 341.088 414.722 340.446 414.868C339.805 415.014 339.205 415.27 338.682 415.621C338.159 415.971 337.724 416.41 337.404 416.909C337.083 417.408 336.883 417.958 336.816 418.525V418.557ZM395.115 377.426C395.075 376.411 394.591 375.447 393.76 374.725C392.929 374.004 391.812 373.578 390.632 373.534C389.452 373.489 388.296 373.829 387.395 374.485C386.494 375.142 385.914 376.066 385.77 377.074C385.77 379.539 387.52 380.851 390.275 381.363C391.526 381.381 392.735 380.974 393.641 380.231C394.546 379.489 395.076 378.47 395.115 377.394V377.426ZM342.4 372.433C341.667 372.406 340.934 372.503 340.245 372.719C339.555 372.935 338.922 373.266 338.381 373.692C337.84 374.119 337.402 374.633 337.092 375.205C336.782 375.777 336.606 376.396 336.574 377.026C336.542 377.657 336.655 378.286 336.906 378.879C337.158 379.472 337.542 380.017 338.038 380.482C338.534 380.947 339.132 381.324 339.798 381.59C340.463 381.857 341.183 382.008 341.916 382.035C345.192 382.035 346.979 380.403 347.351 377.298C347.441 376.692 347.38 376.077 347.172 375.492C346.965 374.908 346.616 374.368 346.148 373.909C345.68 373.449 345.104 373.08 344.458 372.825C343.812 372.571 343.111 372.437 342.4 372.433ZM294.786 455.143C294.158 455.066 293.518 455.103 292.908 455.251C292.298 455.398 291.729 455.653 291.239 455.999C290.749 456.345 290.348 456.775 290.062 457.261C289.775 457.747 289.609 458.279 289.574 458.824C289.4 459.413 289.383 460.029 289.525 460.625C289.667 461.221 289.964 461.782 290.393 462.265C290.823 462.749 291.375 463.142 292.006 463.417C292.638 463.691 293.334 463.839 294.041 463.849C294.742 463.952 295.46 463.928 296.15 463.778C296.839 463.629 297.485 463.357 298.045 462.98C298.605 462.603 299.067 462.13 299.402 461.591C299.736 461.051 299.936 460.458 299.988 459.848C300.04 459.238 299.944 458.626 299.704 458.05C299.465 457.475 299.088 456.948 298.598 456.505C298.108 456.062 297.516 455.712 296.86 455.477C296.203 455.243 295.497 455.129 294.786 455.143ZM204.173 500.466C204.32 499.811 204.288 499.135 204.08 498.492C203.871 497.849 203.493 497.256 202.974 496.76C202.454 496.264 201.808 495.878 201.086 495.632C200.364 495.387 199.586 495.289 198.812 495.345C198.113 495.267 197.402 495.319 196.728 495.498C196.054 495.677 195.433 495.979 194.907 496.383C194.38 496.787 193.961 497.283 193.678 497.839C193.395 498.394 193.254 498.996 193.266 499.602C193.005 502.803 194.904 504.531 199.073 504.819C199.741 504.824 200.403 504.714 201.022 504.497C201.641 504.28 202.203 503.961 202.677 503.556C203.151 503.151 203.528 502.67 203.784 502.14C204.041 501.609 204.173 501.041 204.173 500.466ZM247.022 495.665C246.389 495.659 245.761 495.766 245.178 495.98C244.595 496.194 244.069 496.509 243.636 496.906C243.202 497.303 242.868 497.774 242.657 498.287C242.445 498.801 242.36 499.347 242.406 499.89C242.317 500.491 242.388 501.102 242.614 501.676C242.839 502.25 243.214 502.773 243.708 503.204C244.203 503.636 244.805 503.965 245.47 504.167C246.134 504.369 246.843 504.439 247.544 504.371C250.931 504.371 252.495 502.611 252.644 499.794C252.631 499.2 252.47 498.616 252.172 498.08C251.875 497.543 251.447 497.068 250.918 496.686C250.389 496.304 249.771 496.024 249.105 495.864C248.44 495.705 247.742 495.67 247.06 495.761L247.022 495.665ZM385.398 337.224C385.405 337.769 385.545 338.308 385.807 338.805C386.069 339.302 386.448 339.746 386.921 340.11C387.393 340.475 387.949 340.75 388.552 340.92C389.155 341.09 389.792 341.15 390.424 341.097C391.125 341.16 391.833 341.086 392.496 340.88C393.159 340.674 393.759 340.341 394.25 339.906C394.741 339.471 395.111 338.947 395.332 338.371C395.552 337.795 395.618 337.184 395.524 336.584C395.524 333.671 393.365 332.359 390.089 332.295C389.383 332.303 388.688 332.444 388.052 332.707C387.417 332.971 386.856 333.351 386.409 333.82C385.962 334.29 385.64 334.838 385.465 335.426C385.291 336.014 385.268 336.627 385.398 337.224ZM442.803 173.245C442.861 172.651 442.767 172.053 442.526 171.494C442.285 170.935 441.905 170.429 441.411 170.01C440.917 169.592 440.322 169.272 439.669 169.073C439.015 168.874 438.319 168.802 437.629 168.86C436.848 168.773 436.055 168.85 435.318 169.086C434.58 169.322 433.92 169.709 433.396 170.213C432.872 170.718 432.498 171.325 432.308 171.981C432.118 172.638 432.117 173.324 432.305 173.981C432.529 176.798 434.651 178.046 438.187 178.078C438.866 178.049 439.531 177.898 440.138 177.634C440.745 177.371 441.282 177.001 441.713 176.549C442.144 176.097 442.461 175.573 442.642 175.009C442.823 174.445 442.866 173.856 442.766 173.277L442.803 173.245ZM484.35 94.6647C484.948 94.7126 485.551 94.6526 486.121 94.4886C486.691 94.3246 487.215 94.0602 487.659 93.7122C488.103 93.3643 488.458 92.9404 488.7 92.4678C488.943 91.9953 489.069 91.4843 489.069 90.9677C489.069 90.4511 488.943 89.9401 488.7 89.4675C488.458 88.995 488.103 88.5711 487.659 88.2232C487.215 87.8752 486.691 87.6108 486.121 87.4468C485.551 87.2828 484.948 87.2228 484.35 87.2707C483.23 87.2872 482.162 87.6769 481.37 88.3577C480.578 89.0385 480.125 89.9571 480.106 90.9197C480.105 91.9028 480.546 92.8481 481.337 93.558C482.128 94.2679 483.207 94.6874 484.35 94.7287V94.6647ZM152.054 578.791C151.465 578.724 150.867 578.763 150.296 578.905C149.725 579.047 149.195 579.288 148.738 579.614C148.28 579.94 147.906 580.343 147.639 580.799C147.371 581.255 147.216 581.754 147.182 582.264C147.149 582.774 147.238 583.284 147.445 583.763C147.651 584.242 147.97 584.679 148.382 585.047C148.794 585.415 149.29 585.706 149.838 585.902C150.387 586.097 150.977 586.194 151.57 586.185C154.065 586.185 155.479 584.776 156.075 582.376C155.981 581.473 155.531 580.626 154.8 579.974C154.069 579.321 153.1 578.904 152.054 578.791ZM342.177 455.911C341.598 455.848 341.011 455.886 340.451 456.024C339.89 456.162 339.368 456.395 338.915 456.711C338.462 457.027 338.089 457.418 337.817 457.861C337.544 458.305 337.38 458.791 337.332 459.29C337.284 459.79 337.354 460.292 337.539 460.768C337.723 461.243 338.017 461.682 338.404 462.057C338.79 462.432 339.261 462.736 339.788 462.95C340.315 463.165 340.887 463.285 341.469 463.305C344.001 463.497 345.416 461.96 346.011 459.88C346.06 458.94 345.703 458.018 345.009 457.291C344.315 456.564 343.333 456.084 342.251 455.943L342.177 455.911ZM295.009 496.369C294.421 496.303 293.824 496.341 293.254 496.481C292.685 496.622 292.155 496.862 291.697 497.186C291.24 497.51 290.865 497.912 290.596 498.366C290.328 498.82 290.17 499.317 290.134 499.826C290.099 500.335 290.185 500.844 290.388 501.323C290.591 501.802 290.907 502.239 291.315 502.609C291.723 502.978 292.216 503.271 292.762 503.47C293.308 503.668 293.895 503.768 294.488 503.763C296.982 503.763 298.397 502.355 299.03 499.954C298.925 499.069 298.48 498.239 297.766 497.596C297.051 496.952 296.107 496.532 295.084 496.401L295.009 496.369ZM485.057 129.17C484.468 129.103 483.869 129.142 483.299 129.284C482.728 129.425 482.197 129.667 481.74 129.993C481.283 130.319 480.909 130.722 480.641 131.178C480.373 131.634 480.218 132.133 480.185 132.643C480.151 133.152 480.241 133.663 480.447 134.142C480.654 134.621 480.973 135.058 481.385 135.426C481.796 135.794 482.292 136.085 482.841 136.28C483.389 136.476 483.979 136.573 484.573 136.564C487.067 136.564 488.482 135.155 489.003 133.011C489.027 132.061 488.635 131.138 487.904 130.427C487.172 129.715 486.156 129.266 485.057 129.17ZM9.0252 619.249C8.42692 619.201 7.82359 619.261 7.2538 619.425C6.68401 619.589 6.16029 619.854 5.71614 620.202C5.27199 620.55 4.91719 620.974 4.67442 621.446C4.43165 621.919 4.30625 622.43 4.30625 622.946C4.30625 623.463 4.43165 623.974 4.67442 624.446C4.91719 624.919 5.27199 625.343 5.71614 625.691C6.16029 626.039 6.68401 626.303 7.2538 626.467C7.82359 626.631 8.42692 626.691 9.0252 626.643C11.4822 626.643 12.748 625.139 13.3064 622.738C13.1854 621.816 12.6895 620.96 11.9062 620.322C11.1229 619.684 10.1026 619.304 9.0252 619.249ZM391.02 415.996C390.479 415.872 389.91 415.865 389.365 415.973C388.82 416.082 388.313 416.304 387.891 416.62C387.468 416.936 387.142 417.336 386.941 417.785C386.741 418.234 386.671 418.719 386.738 419.197C386.677 419.614 386.723 420.037 386.874 420.436C387.025 420.835 387.277 421.2 387.611 421.506C387.946 421.812 388.354 422.051 388.809 422.205C389.263 422.359 389.751 422.425 390.238 422.398C390.701 422.438 391.168 422.395 391.611 422.273C392.054 422.15 392.463 421.951 392.812 421.686C393.161 421.422 393.444 421.099 393.641 420.737C393.839 420.374 393.948 419.981 393.961 419.581C394.035 417.597 393.328 416.22 391.057 415.996H391.02ZM247.767 537.404C247.304 537.349 246.833 537.38 246.385 537.495C245.937 537.61 245.523 537.806 245.17 538.069C244.817 538.333 244.534 538.659 244.34 539.024C244.146 539.39 244.045 539.787 244.044 540.189C243.946 540.833 244.078 541.487 244.423 542.066C244.768 542.644 245.309 543.118 245.975 543.425C246.641 543.732 247.4 543.858 248.15 543.786C248.901 543.713 249.609 543.446 250.179 543.02C250.749 542.593 251.155 542.028 251.342 541.398C251.529 540.769 251.489 540.105 251.228 539.496C250.966 538.886 250.495 538.36 249.877 537.986C249.258 537.613 248.523 537.409 247.767 537.404ZM437.889 333.575C437.417 333.486 436.929 333.487 436.457 333.577C435.986 333.667 435.543 333.845 435.16 334.099C434.777 334.352 434.463 334.674 434.24 335.042C434.017 335.411 433.89 335.817 433.869 336.232C433.725 336.697 433.715 337.185 433.842 337.654C433.968 338.123 434.227 338.558 434.594 338.922C434.961 339.285 435.427 339.565 435.949 339.738C436.472 339.911 437.036 339.971 437.592 339.913C439.862 339.913 441.054 338.824 441.314 336.488C441.314 336.102 441.225 335.721 441.053 335.366C440.88 335.01 440.628 334.688 440.309 334.417C439.99 334.146 439.613 333.932 439.197 333.787C438.782 333.643 438.337 333.571 437.889 333.575ZM484.163 7.08984C483.756 7.09797 483.355 7.17615 482.983 7.31978C482.611 7.46342 482.277 7.66959 481.999 7.92614C481.722 8.18269 481.507 8.48444 481.367 8.81358C481.227 9.14272 481.165 9.49259 481.185 9.84256C481.079 10.2594 481.092 10.692 481.221 11.1038C481.351 11.5156 481.594 11.8945 481.93 12.2085C482.266 12.5225 482.685 12.7623 483.151 12.9076C483.618 13.0529 484.118 13.0995 484.61 13.0434C485.08 13.0798 485.554 13.0254 485.996 12.884C486.439 12.7426 486.839 12.518 487.167 12.2264C487.496 11.9348 487.744 11.5838 487.894 11.199C488.044 10.8142 488.093 10.4055 488.035 10.0026C488.062 9.57833 487.975 9.15443 487.782 8.76335C487.589 8.37228 487.294 8.0244 486.92 7.74636C486.547 7.46832 486.104 7.26749 485.626 7.15924C485.148 7.051 484.648 7.03821 484.163 7.12185V7.08984ZM488.259 51.0053C488.403 50.5401 488.412 50.0516 488.285 49.5827C488.159 49.1137 487.901 48.6786 487.533 48.3153C487.166 47.952 486.701 47.6718 486.178 47.499C485.655 47.3262 485.092 47.2663 484.536 47.3243C484.051 47.2716 483.56 47.3115 483.095 47.4413C482.631 47.571 482.206 47.7873 481.85 48.0748C481.494 48.3623 481.217 48.7138 481.038 49.1042C480.858 49.4946 480.782 49.9142 480.813 50.3331C480.813 52.2856 481.855 53.5339 484.536 53.694C484.984 53.7336 485.437 53.696 485.868 53.5833C486.299 53.4707 486.699 53.2852 487.046 53.0378C487.393 52.7904 487.678 52.4861 487.887 52.1426C488.095 51.7991 488.221 51.4233 488.259 51.0373V51.0053ZM198.85 579.559C198.444 579.519 198.032 579.549 197.639 579.646C197.247 579.744 196.881 579.908 196.562 580.128C196.243 580.349 195.979 580.621 195.784 580.93C195.588 581.239 195.466 581.578 195.425 581.928C195.289 582.324 195.259 582.742 195.339 583.15C195.419 583.558 195.606 583.945 195.886 584.281C196.166 584.618 196.532 584.895 196.955 585.092C197.378 585.288 197.848 585.399 198.329 585.416C200.525 585.609 202.051 584.712 202.275 582.216C202.227 581.474 201.84 580.779 201.198 580.281C200.557 579.784 199.713 579.524 198.85 579.559ZM485.057 210.727C484.586 210.633 484.098 210.629 483.625 210.713C483.152 210.797 482.705 210.968 482.316 211.214C481.927 211.46 481.605 211.776 481.371 212.139C481.137 212.503 480.998 212.905 480.962 213.32C480.81 213.787 480.795 214.279 480.918 214.752C481.041 215.226 481.299 215.666 481.667 216.033C482.035 216.401 482.503 216.684 483.03 216.858C483.556 217.033 484.125 217.093 484.685 217.033C486.956 217.033 488.184 216.008 488.407 213.832C488.438 213.436 488.374 213.039 488.22 212.665C488.066 212.292 487.824 211.949 487.51 211.658C487.197 211.368 486.817 211.135 486.395 210.975C485.974 210.815 485.518 210.73 485.057 210.727ZM101.201 622.93C101.155 623.279 101.189 623.633 101.303 623.971C101.417 624.308 101.607 624.623 101.863 624.897C102.12 625.171 102.437 625.399 102.796 625.566C103.155 625.734 103.549 625.839 103.956 625.875C104.417 625.992 104.904 626.017 105.378 625.949C105.853 625.88 106.302 625.719 106.694 625.478C107.085 625.238 107.407 624.923 107.636 624.559C107.865 624.196 107.994 623.792 108.014 623.378C108.237 621.49 107.195 620.178 104.291 619.985C103.429 620.027 102.62 620.36 102.041 620.911C101.463 621.463 101.161 622.188 101.201 622.93ZM57.8308 619.729C57.3583 619.65 56.8713 619.66 56.4039 619.76C55.9364 619.859 55.4996 620.044 55.124 620.303C54.7484 620.562 54.443 620.888 54.2289 621.259C54.0149 621.63 53.8974 622.036 53.8847 622.45C53.7743 623.087 53.8896 623.737 54.2157 624.316C54.5417 624.896 55.0632 625.377 55.7123 625.698C56.3613 626.018 57.1076 626.163 57.8539 626.113C58.6002 626.064 59.3117 625.822 59.8957 625.419C60.4796 625.017 60.9089 624.472 61.1274 623.857C61.3459 623.241 61.3435 622.583 61.1206 621.969C60.8976 621.354 60.4644 620.812 59.8776 620.413C59.2907 620.013 58.5775 619.775 57.8308 619.729ZM485.057 170.236C484.586 170.143 484.098 170.138 483.625 170.222C483.152 170.306 482.705 170.477 482.316 170.724C481.927 170.97 481.605 171.285 481.371 171.649C481.137 172.012 480.998 172.415 480.962 172.829C480.81 173.296 480.795 173.788 480.918 174.262C481.041 174.735 481.299 175.175 481.667 175.543C482.035 175.91 482.503 176.193 483.03 176.368C483.556 176.542 484.125 176.602 484.685 176.542C485.672 176.597 486.644 176.313 487.388 175.752C488.131 175.19 488.585 174.398 488.649 173.549C488.714 172.7 488.383 171.864 487.73 171.225C487.077 170.586 486.156 170.195 485.169 170.14L485.057 170.236ZM484.461 251.409C484.051 251.383 483.639 251.429 483.25 251.543C482.861 251.657 482.503 251.838 482.197 252.074C481.891 252.31 481.644 252.597 481.47 252.917C481.296 253.238 481.199 253.585 481.185 253.938C481.103 254.331 481.123 254.734 481.242 255.119C481.362 255.505 481.579 255.863 481.877 256.168C482.175 256.474 482.548 256.719 482.969 256.887C483.39 257.054 483.848 257.141 484.312 257.139C486.583 257.139 487.812 256.243 488.035 254.226C488.055 253.829 487.974 253.433 487.798 253.066C487.621 252.699 487.353 252.37 487.012 252.101C486.671 251.833 486.267 251.632 485.826 251.512C485.385 251.393 484.919 251.358 484.461 251.409ZM302.752 50.8132C302.877 49.8482 302.751 48.8715 302.386 47.9529C302.02 47.0343 301.423 46.1965 300.637 45.4993C299.851 44.8021 298.895 44.2628 297.839 43.9198C296.782 43.5769 295.651 43.4388 294.525 43.5153C293.463 43.4361 292.394 43.5538 291.39 43.8605C290.386 44.1671 289.47 44.6556 288.704 45.2928C287.938 45.93 287.34 46.7012 286.951 47.5542C286.561 48.4072 286.389 49.3221 286.447 50.2371C286.261 54.7503 289.611 57.0869 294.562 57.727C299.365 57.1189 302.641 54.9423 302.752 50.8132ZM286.596 9.55449C286.491 10.4894 286.61 11.4328 286.944 12.3271C287.278 13.2214 287.82 14.0478 288.538 14.7559C289.255 15.464 290.133 16.0389 291.118 16.4457C292.103 16.8524 293.173 17.0824 294.265 17.1216C295.356 17.1608 296.445 17.0083 297.466 16.6736C298.487 16.3389 299.417 15.8289 300.201 15.1747C300.985 14.5205 301.605 13.7358 302.025 12.8686C302.444 12.0014 302.654 11.0698 302.641 10.1306C302.827 6.00156 299.588 3.72897 294.935 2.96077C292.816 2.91645 290.76 3.58344 289.203 4.82032C287.646 6.05721 286.711 7.76674 286.596 9.5865V9.55449ZM341.432 3.857C340.511 3.8014 339.586 3.91485 338.72 4.18983C337.853 4.46482 337.065 4.89504 336.407 5.45198C335.748 6.00892 335.235 6.67985 334.901 7.42025C334.568 8.16065 334.421 8.95361 334.471 9.74654C334.341 10.5804 334.429 11.4287 334.728 12.2297C335.027 13.0307 335.53 13.7643 336.201 14.3774C336.871 14.9904 337.691 15.4673 338.603 15.7736C339.514 16.08 340.493 16.2079 341.469 16.1482C342.448 16.2282 343.435 16.1252 344.363 15.8462C345.291 15.5672 346.138 15.1189 346.845 14.532C347.552 13.9451 348.104 13.2335 348.461 12.4462C348.818 11.6588 348.973 10.8143 348.915 9.9706C348.951 9.13319 348.779 8.29881 348.41 7.5232C348.041 6.7476 347.483 6.04863 346.775 5.47298C346.067 4.89734 345.224 4.45827 344.303 4.18512C343.381 3.91197 342.403 3.81102 341.432 3.88901V3.857ZM348.878 91.0477C348.878 89.3499 348.093 87.7216 346.697 86.521C345.301 85.3205 343.407 84.646 341.432 84.646C339.457 84.646 337.564 85.3205 336.167 86.521C334.771 87.7216 333.987 89.3499 333.987 91.0477C333.987 94.9847 336.704 97.1293 341.432 97.4494C342.434 97.5136 343.441 97.3944 344.386 97.0996C345.331 96.8049 346.192 96.3413 346.913 95.7394C347.634 95.1375 348.199 94.411 348.57 93.6078C348.94 92.8046 349.109 91.943 349.064 91.0797L348.878 91.0477ZM341.432 44.1555C340.43 44.0709 339.419 44.1784 338.47 44.4702C337.522 44.762 336.661 45.2309 335.949 45.8431C335.237 46.4553 334.692 47.1956 334.353 48.0107C334.013 48.8259 333.888 49.6955 333.987 50.5572C333.888 51.4188 334.013 52.2885 334.353 53.1036C334.692 53.9187 335.237 54.659 335.949 55.2712C336.661 55.8834 337.522 56.3523 338.47 56.6441C339.419 56.9359 340.43 57.0434 341.432 56.9588C343.407 56.9588 345.301 56.2844 346.697 55.0838C348.093 53.8833 348.878 52.255 348.878 50.5572C348.878 48.8593 348.093 47.2311 346.697 46.0305C345.301 44.83 343.407 44.1555 341.432 44.1555ZM302.752 173.789C302.892 172.825 302.782 171.847 302.431 170.924C302.079 170.001 301.495 169.156 300.72 168.449C299.944 167.743 298.997 167.192 297.945 166.837C296.894 166.482 295.764 166.331 294.637 166.395C293.576 166.303 292.504 166.407 291.495 166.702C290.485 166.996 289.561 167.474 288.784 168.102C288.008 168.73 287.397 169.495 286.994 170.343C286.591 171.192 286.404 172.105 286.447 173.021C286.186 177.534 289.499 179.871 294.897 180.639C296.958 180.531 298.9 179.771 300.35 178.507C301.8 177.243 302.655 175.563 302.752 173.789ZM286.558 213.768C286.483 214.713 286.635 215.662 287.005 216.554C287.374 217.447 287.953 218.265 288.705 218.957C289.457 219.65 290.367 220.202 291.378 220.579C292.389 220.957 293.479 221.152 294.581 221.152C295.683 221.152 296.773 220.957 297.784 220.579C298.795 220.202 299.705 219.65 300.457 218.957C301.209 218.265 301.788 217.447 302.157 216.554C302.527 215.662 302.678 214.713 302.604 213.768C302.604 209.671 299.216 207.366 294.227 206.918C292.191 207.043 290.28 207.813 288.864 209.078C287.448 210.342 286.627 212.013 286.558 213.768ZM294.451 247.6C292.367 247.6 290.369 248.312 288.896 249.579C287.423 250.845 286.596 252.563 286.596 254.354C286.596 256.145 287.423 257.863 288.896 259.13C290.369 260.396 292.367 261.108 294.451 261.108C299.328 261.268 301.896 258.483 302.752 254.386C301.933 250.321 299.328 247.6 294.451 247.6ZM49.4918 459.208C49.3889 460.145 49.5095 461.09 49.8464 461.985C50.1832 462.881 50.7291 463.708 51.4507 464.415C52.1723 465.123 53.0543 465.697 54.0427 466.101C55.0312 466.505 56.1052 466.732 57.1991 466.767C58.2929 466.802 59.3836 466.644 60.4041 466.304C61.4247 465.964 62.3538 465.448 63.1344 464.788C63.915 464.129 64.5308 463.339 64.9439 462.467C65.357 461.596 65.5588 460.661 65.537 459.72C65.537 455.591 62.4471 453.318 57.533 452.55C55.4673 452.594 53.4959 453.303 52.0074 454.535C50.519 455.767 49.6215 457.434 49.4918 459.208ZM96.9572 459.432C96.9108 460.333 97.0801 461.234 97.4548 462.077C97.8295 462.92 98.4016 463.688 99.1356 464.333C99.8696 464.979 100.75 465.488 101.722 465.829C102.694 466.17 103.737 466.335 104.787 466.316C105.836 466.296 106.87 466.091 107.824 465.714C108.777 465.337 109.631 464.795 110.331 464.123C111.032 463.45 111.564 462.661 111.895 461.805C112.227 460.949 112.35 460.043 112.258 459.144C112.087 457.477 111.185 455.928 109.735 454.812C108.286 453.695 106.396 453.095 104.451 453.131C102.505 453.168 100.648 453.839 99.2569 455.009C97.8655 456.179 97.0434 457.76 96.9572 459.432ZM247.097 329.99C245.014 330.045 243.041 330.81 241.613 332.115C240.186 333.421 239.42 335.161 239.484 336.952C239.548 338.743 240.437 340.439 241.956 341.666C243.474 342.894 245.498 343.553 247.581 343.497C252.421 343.497 255.026 340.649 255.622 336.456C254.58 332.551 251.974 329.766 247.097 329.99ZM143.827 419.197C143.788 420.988 144.577 422.72 146.022 424.01C147.468 425.301 149.45 426.045 151.533 426.079C153.616 426.113 155.63 425.434 157.131 424.191C158.632 422.949 159.498 421.244 159.537 419.453C159.798 415.26 156.559 413.052 151.794 412.219C150.738 412.228 149.694 412.415 148.722 412.77C147.75 413.125 146.869 413.642 146.13 414.29C145.39 414.938 144.806 415.704 144.411 416.546C144.016 417.388 143.817 418.289 143.827 419.197ZM206.779 377.586C206.87 376.643 206.734 375.694 206.381 374.798C206.027 373.901 205.464 373.077 204.724 372.376C203.985 371.674 203.087 371.111 202.084 370.72C201.082 370.33 199.996 370.12 198.896 370.105C197.795 370.09 196.703 370.269 195.686 370.631C194.669 370.993 193.75 371.531 192.985 372.212C192.219 372.892 191.625 373.7 191.238 374.586C190.851 375.472 190.679 376.417 190.734 377.362C190.734 381.491 193.973 383.764 198.924 384.404C201.006 384.331 202.977 383.579 204.436 382.3C205.896 381.022 206.734 379.313 206.779 377.522V377.586ZM247.73 289.211C246.605 289.122 245.472 289.247 244.411 289.578C243.349 289.909 242.386 290.437 241.589 291.125C240.792 291.813 240.182 292.644 239.802 293.558C239.422 294.472 239.282 295.447 239.391 296.413C239.319 297.327 239.476 298.244 239.851 299.101C240.227 299.959 240.812 300.737 241.567 301.383C242.322 302.03 243.23 302.529 244.229 302.848C245.228 303.167 246.295 303.297 247.358 303.231C252.607 303.231 255.25 300.382 255.883 296.093C255.101 292.06 252.569 289.211 247.73 289.211ZM198.924 329.638C196.797 329.654 194.758 330.372 193.228 331.644C191.699 332.915 190.795 334.643 190.704 336.471C190.614 338.299 191.342 340.086 192.74 341.465C194.138 342.844 196.099 343.709 198.217 343.882C203.466 344.234 206.295 341.417 207.263 337.096C206.779 332.647 204.173 329.766 198.924 329.638ZM112.891 419.261C112.9 417.424 112.084 415.655 110.614 414.321C109.144 412.988 107.133 412.193 104.999 412.102C102.865 412.012 100.772 412.632 99.1564 413.834C97.5407 415.036 96.5263 416.728 96.3244 418.557C95.8776 423.07 99.1537 425.503 104.142 426.367C105.261 426.424 106.382 426.284 107.436 425.956C108.491 425.628 109.456 425.12 110.275 424.461C111.093 423.802 111.747 423.007 112.197 422.124C112.646 421.241 112.883 420.289 112.891 419.325V419.261ZM151.384 369.968C149.163 370.041 147.066 370.868 145.554 372.27C144.043 373.672 143.241 375.532 143.324 377.442C143.408 379.352 144.371 381.156 146.002 382.455C147.632 383.755 149.796 384.444 152.017 384.372C157.303 384.372 159.835 381.331 160.282 376.306C160.029 374.475 158.961 372.798 157.302 371.629C155.644 370.459 153.523 369.887 151.384 370.032V369.968ZM0.500041 459.88C0.453159 460.789 0.625603 461.696 1.00652 462.545C1.38744 463.394 1.96859 464.166 2.7134 464.813C3.45822 465.459 4.35058 465.966 5.33433 466.301C6.31808 466.637 7.37192 466.793 8.42956 466.762C9.55265 466.876 10.6914 466.777 11.7649 466.471C12.8384 466.165 13.8204 465.66 14.6412 464.991C15.462 464.321 16.1014 463.505 16.5141 462.6C16.9268 461.695 17.1026 460.722 17.0292 459.752C17.0292 455.207 13.7904 452.934 8.69015 452.358C3.62717 452.998 0.35113 455.335 0.500041 459.88ZM302.752 91.5599C302.782 90.6393 302.6 89.7228 302.217 88.8627C301.835 88.0026 301.259 87.2157 300.522 86.5469C299.786 85.8781 298.904 85.3406 297.926 84.965C296.948 84.5895 295.894 84.3832 294.823 84.358C293.752 84.3328 292.686 84.4891 291.686 84.8181C290.686 85.147 289.77 85.6422 288.993 86.2753C288.215 86.9084 287.59 87.667 287.153 88.5078C286.716 89.3486 286.476 90.2552 286.447 91.1758C286.387 93.0349 287.19 94.8381 288.677 96.1887C290.164 97.5393 292.214 98.3267 294.376 98.3776C296.539 98.4286 298.636 97.7389 300.207 96.4603C301.777 95.1817 302.693 93.419 302.752 91.5599ZM247.841 247.152C245.62 247.08 243.456 247.77 241.826 249.069C240.196 250.369 239.233 252.172 239.149 254.082C239.065 255.992 239.867 257.853 241.378 259.254C242.89 260.656 244.987 261.484 247.209 261.556C248.325 261.64 249.449 261.525 250.511 261.218C251.573 260.912 252.551 260.42 253.382 259.774C254.213 259.129 254.881 258.343 255.343 257.465C255.806 256.588 256.053 255.638 256.069 254.674C255.697 250.193 253.128 247.312 247.841 247.152ZM248.288 166.011C247.12 165.919 245.943 166.032 244.828 166.343C243.712 166.655 242.683 167.158 241.801 167.823C240.919 168.488 240.205 169.301 239.7 170.211C239.195 171.121 238.912 172.11 238.866 173.117C238.821 174.125 239.014 175.13 239.435 176.071C239.856 177.012 240.495 177.87 241.314 178.591C242.133 179.313 243.114 179.884 244.198 180.269C245.282 180.654 246.446 180.845 247.618 180.831C248.74 180.912 249.869 180.789 250.932 180.47C251.995 180.151 252.967 179.642 253.786 178.977C254.605 178.313 255.251 177.507 255.683 176.613C256.115 175.719 256.322 174.757 256.292 173.789C256.106 169.18 253.649 166.299 248.288 166.011ZM247.804 2.76872C246.68 2.63532 245.535 2.71722 244.451 3.00858C243.367 3.29994 242.372 3.79356 241.536 4.45414C240.7 5.11471 240.045 5.92592 239.616 6.82976C239.187 7.7336 238.996 8.70774 239.056 9.68252C238.862 10.7081 238.948 11.7585 239.308 12.7504C239.668 13.7424 240.292 14.6485 241.13 15.3971C241.968 16.1457 242.997 16.7162 244.137 17.0632C245.276 17.4103 246.493 17.5244 247.693 17.3965C248.835 17.4718 249.982 17.3354 251.058 16.9966C252.133 16.6579 253.112 16.1245 253.927 15.4327C254.742 14.7409 255.375 13.9067 255.783 12.9865C256.191 12.0663 256.365 11.0815 256.292 10.0986C256.368 9.12048 256.201 8.13965 255.802 7.22122C255.404 6.3028 254.782 5.46778 253.98 4.77156C253.177 4.07535 252.211 3.53387 251.146 3.18305C250.082 2.83223 248.943 2.68008 247.804 2.73671V2.76872ZM8.28064 410.171C5.96039 410.234 3.76459 411.088 2.17628 412.544C0.587976 413.999 -0.262728 415.938 -0.188678 417.933C-0.114627 419.928 0.878112 421.816 2.57114 423.181C4.26417 424.547 6.51881 425.278 8.83907 425.215C14.6094 425.215 17.3642 422.302 17.6248 417.117C17.6145 416.112 17.3553 415.121 16.8645 414.209C16.3738 413.297 15.6627 412.485 14.7786 411.828C13.8945 411.171 12.8577 410.683 11.7373 410.397C10.6169 410.112 9.43849 410.034 8.28064 410.171ZM66.0209 419.005C66.1131 418.035 65.9568 417.06 65.5631 416.147C65.1694 415.235 64.5478 414.408 63.7421 413.724C62.9365 413.041 61.9663 412.517 60.9 412.191C59.8336 411.865 58.697 411.743 57.5702 411.835C56.3686 411.72 55.1522 411.847 54.0177 412.207C52.8831 412.566 51.8616 413.148 51.0342 413.906C50.2067 414.664 49.5961 415.577 49.2509 416.573C48.9056 417.57 48.8351 418.622 49.0451 419.645C49.3057 424.255 52.7678 426.367 58.6871 426.591C60.8321 426.42 62.8114 425.527 64.1925 424.105C65.5737 422.684 66.2444 420.85 66.0582 419.005H66.0209ZM105.333 369.808C104.166 369.716 102.988 369.829 101.873 370.14C100.758 370.452 99.7279 370.956 98.8463 371.62C97.9647 372.285 97.2498 373.098 96.7452 374.008C96.2406 374.918 95.9569 375.907 95.9114 376.914C95.8658 377.922 96.0594 378.927 96.4802 379.868C96.9011 380.809 97.5405 381.667 98.3594 382.388C99.1783 383.11 100.16 383.681 101.243 384.066C102.327 384.451 103.491 384.642 104.663 384.628C105.779 384.704 106.901 384.579 107.957 384.259C109.012 383.939 109.979 383.433 110.792 382.772C111.606 382.112 112.25 381.312 112.682 380.424C113.114 379.536 113.325 378.58 113.3 377.618C113.189 373.041 110.732 370.128 105.371 369.84L105.333 369.808ZM151.831 329.222C150.706 329.097 149.562 329.182 148.479 329.474C147.396 329.765 146.399 330.254 145.557 330.908C144.715 331.562 144.048 332.365 143.602 333.262C143.155 334.159 142.94 335.128 142.971 336.104C142.738 337.123 142.778 338.174 143.087 339.178C143.396 340.181 143.967 341.112 144.756 341.898C145.545 342.684 146.532 343.306 147.641 343.716C148.751 344.126 149.954 344.314 151.161 344.266C152.31 344.306 153.457 344.151 154.536 343.809C155.615 343.468 156.605 342.948 157.451 342.278C158.296 341.607 158.979 340.801 159.462 339.903C159.944 339.006 160.217 338.036 160.263 337.048C160.31 336.06 160.129 335.074 159.732 334.146C159.336 333.218 158.73 332.367 157.951 331.64C157.171 330.913 156.233 330.326 155.189 329.911C154.146 329.496 153.017 329.262 151.868 329.222H151.831ZM256.069 213.992C256.119 212.991 255.931 211.992 255.515 211.057C255.099 210.121 254.465 209.269 253.651 208.552C252.837 207.836 251.861 207.27 250.783 206.891C249.705 206.511 248.548 206.325 247.384 206.345C246.219 206.365 245.072 206.59 244.012 207.005C242.952 207.421 242.003 208.019 241.223 208.763C240.442 209.506 239.847 210.38 239.475 211.328C239.102 212.277 238.959 213.282 239.056 214.28C239.056 218.889 242.518 221.098 248.325 221.418C249.412 221.373 250.477 221.142 251.457 220.737C252.437 220.332 253.312 219.762 254.031 219.06C254.75 218.358 255.298 217.54 255.641 216.652C255.985 215.765 256.118 214.828 256.032 213.896L256.069 213.992ZM247.693 83.4617C246.57 83.337 245.43 83.4222 244.35 83.7114C243.27 84.0007 242.275 84.4872 241.433 85.1376C240.592 85.7881 239.924 86.5871 239.475 87.4801C239.026 88.3731 238.807 89.3389 238.832 90.3115C238.601 91.3278 238.64 92.376 238.947 93.3773C239.254 94.3787 239.822 95.3071 240.606 96.0927C241.391 96.8784 242.373 97.5008 243.478 97.9132C244.583 98.3256 245.782 98.5172 246.985 98.4736C248.134 98.5136 249.281 98.3586 250.36 98.0174C251.439 97.6763 252.43 97.1558 253.275 96.4855C254.12 95.8153 254.804 95.0085 255.286 94.1111C255.769 93.2138 256.041 92.2436 256.087 91.2558C256.134 90.268 255.954 89.282 255.557 88.3541C255.16 87.4262 254.555 86.5746 253.775 85.8479C252.996 85.1212 252.057 84.5336 251.014 84.1187C249.97 83.7038 248.841 83.4697 247.693 83.4297V83.4617ZM207.412 296.317C207.551 295.286 207.413 294.242 207.006 293.264C206.6 292.287 205.937 291.404 205.069 290.682C204.202 289.961 203.152 289.421 202.002 289.105C200.853 288.789 199.634 288.705 198.44 288.859C197.308 288.788 196.171 288.931 195.11 289.28C194.049 289.628 193.091 290.173 192.302 290.875C191.513 291.578 190.914 292.421 190.547 293.345C190.179 294.269 190.052 295.251 190.176 296.221C190.176 301.214 193.526 303.551 199.148 303.775C200.278 303.805 201.402 303.63 202.448 303.261C203.494 302.892 204.438 302.338 205.218 301.634C205.998 300.93 206.596 300.093 206.974 299.177C207.352 298.261 207.502 297.286 207.412 296.317ZM238.981 49.5649C238.701 50.5769 238.695 51.6308 238.965 52.645C239.234 53.6592 239.77 54.6067 240.533 55.4141C241.296 56.2216 242.264 56.8674 243.364 57.3018C244.463 57.7361 245.664 57.9473 246.874 57.9191C247.985 58.1057 249.13 58.0815 250.229 57.8484C251.328 57.6152 252.355 57.1786 253.237 56.569C254.12 55.9595 254.837 55.1917 255.339 54.3192C255.841 53.4467 256.116 52.4905 256.143 51.5174C256.385 50.4968 256.361 49.4429 256.073 48.4311C255.786 47.4194 255.243 46.4746 254.482 45.6643C253.721 44.854 252.761 44.1982 251.671 43.7437C250.581 43.2893 249.388 43.0473 248.177 43.0352C243.114 43.0992 239.465 44.9237 238.981 49.5649ZM247.395 125.393C246.28 125.301 245.155 125.415 244.096 125.727C243.037 126.039 242.068 126.543 241.253 127.204C240.439 127.865 239.798 128.667 239.374 129.559C238.95 130.45 238.753 131.408 238.795 132.37C238.6 133.393 238.678 134.44 239.022 135.433C239.366 136.425 239.967 137.338 240.781 138.102C241.594 138.867 242.598 139.462 243.718 139.844C244.838 140.226 246.044 140.385 247.246 140.309C249.566 140.309 251.791 139.516 253.432 138.105C255.073 136.695 255.994 134.782 255.994 132.787C255.994 130.792 255.073 128.878 253.432 127.468C251.791 126.057 249.566 125.265 247.246 125.265L247.395 125.393ZM198.477 246.704C196.212 246.878 194.11 247.791 192.603 249.256C191.096 250.721 190.298 252.626 190.375 254.581C190.451 256.535 191.395 258.39 193.013 259.765C194.63 261.14 196.799 261.93 199.073 261.972C200.283 261.995 201.485 261.805 202.606 261.415C203.728 261.024 204.745 260.441 205.595 259.702C206.446 258.962 207.112 258.081 207.553 257.112C207.994 256.143 208.2 255.107 208.16 254.068C208.119 253.028 207.832 252.006 207.317 251.065C206.801 250.124 206.068 249.283 205.162 248.594C204.256 247.905 203.196 247.382 202.046 247.057C200.897 246.732 199.683 246.612 198.477 246.704ZM66.8027 377.586C66.954 376.491 66.822 375.38 66.4162 374.334C66.0104 373.288 65.3408 372.331 64.4552 371.533C63.5696 370.735 62.49 370.115 61.2933 369.717C60.0967 369.319 58.8127 369.154 57.533 369.232C56.3307 369.16 55.1241 369.306 53.991 369.659C52.8579 370.012 51.8233 370.565 50.9537 371.282C50.0841 372 49.3988 372.866 48.9418 373.825C48.4849 374.784 48.2665 375.814 48.3005 376.85C48.2492 377.901 48.4391 378.95 48.8594 379.938C49.2797 380.926 49.9221 381.833 50.7501 382.607C51.578 383.381 52.5752 384.008 53.6847 384.451C54.7942 384.893 55.9944 385.144 57.2166 385.188C58.4388 385.232 59.6591 385.069 60.8079 384.708C61.9568 384.346 63.0115 383.794 63.9121 383.082C64.8126 382.37 65.5412 381.513 66.0564 380.559C66.5715 379.605 66.8631 378.573 66.9144 377.522L66.8027 377.586ZM198.44 205.766C195.937 205.791 193.549 206.67 191.8 208.21C190.051 209.75 189.085 211.824 189.115 213.976C189.144 216.128 190.167 218.181 191.958 219.685C193.748 221.189 196.161 222.019 198.664 221.994C204.471 221.994 207.635 218.793 208.38 213.704C207.449 208.902 204.173 205.638 198.44 205.766ZM160.915 296.669C161.058 295.581 160.922 294.478 160.518 293.44C160.114 292.401 159.451 291.45 158.576 290.654C157.7 289.859 156.632 289.237 155.448 288.833C154.264 288.429 152.991 288.252 151.719 288.315C150.517 288.234 149.309 288.371 148.172 288.716C147.036 289.061 145.995 289.607 145.119 290.319C144.242 291.03 143.548 291.892 143.082 292.848C142.616 293.803 142.388 294.833 142.412 295.869C142.189 300.894 145.837 303.679 151.682 304.383C154.093 304.392 156.412 303.591 158.144 302.149C159.876 300.708 160.884 298.741 160.952 296.669H160.915ZM104.701 328.678C102.203 328.605 99.7736 329.389 97.948 330.857C96.1223 332.325 95.0495 334.356 94.9656 336.504C94.8816 338.651 95.7935 340.74 97.5005 342.31C99.2075 343.879 101.57 344.802 104.068 344.874C109.875 345.194 113.189 341.961 114.231 336.776C114.202 334.622 113.191 332.564 111.416 331.043C109.641 329.523 107.243 328.662 104.738 328.646L104.701 328.678ZM209.683 10.5467C209.845 9.44793 209.722 8.332 209.324 7.27867C208.926 6.22534 208.262 5.2606 207.38 4.45336C206.498 3.64612 205.419 3.0163 204.222 2.60889C203.024 2.20148 201.736 2.02653 200.451 2.09655C199.249 2.00708 198.039 2.13495 196.898 2.47193C195.758 2.80892 194.712 3.34753 193.828 4.05311C192.945 4.75868 192.242 5.61557 191.767 6.5686C191.292 7.52162 191.054 8.54965 191.069 9.5865C190.771 14.6118 194.42 17.4285 200.19 18.1327C201.398 18.1712 202.602 18.0047 203.735 17.6426C204.868 17.2805 205.907 16.7299 206.792 16.0224C207.677 15.3149 208.391 14.4642 208.894 13.5192C209.396 12.5741 209.677 11.5532 209.72 10.5147L209.683 10.5467ZM200.451 42.427C199.247 42.3573 198.04 42.4995 196.903 42.8449C195.766 43.1903 194.722 43.7318 193.837 44.436C192.952 45.1402 192.243 45.9924 191.754 46.9403C191.266 47.8883 191.007 48.9121 190.995 49.949C190.798 51.0539 190.886 52.1824 191.252 53.255C191.617 54.3275 192.252 55.3182 193.111 56.1573C193.97 56.9964 195.032 57.6635 196.223 58.1116C197.414 58.5598 198.704 58.7781 200.004 58.7513C205.811 59.0394 209.087 55.8065 210.092 50.7812C210.123 49.6824 209.895 48.5897 209.422 47.5686C208.949 46.5475 208.241 45.619 207.34 44.8389C206.44 44.0587 205.366 43.443 204.182 43.0285C202.998 42.6141 201.729 42.4095 200.451 42.427ZM198.738 165.147C197.472 165.099 196.209 165.274 195.024 165.66C193.84 166.047 192.76 166.637 191.85 167.396C190.94 168.154 190.22 169.064 189.734 170.069C189.248 171.075 189.005 172.156 189.022 173.245C189.016 174.378 189.275 175.5 189.782 176.546C190.29 177.592 191.036 178.539 191.976 179.333C192.917 180.126 194.032 180.75 195.258 181.167C196.483 181.583 197.793 181.785 199.11 181.759C201.639 181.638 204.02 180.693 205.769 179.118C207.518 177.543 208.505 175.455 208.529 173.277C207.71 168.38 204.583 165.115 198.775 165.115L198.738 165.147ZM8.57847 385.492C9.8436 385.562 11.112 385.409 12.3058 385.042C13.4996 384.676 14.5937 384.103 15.5209 383.36C16.4482 382.616 17.189 381.718 17.698 380.72C18.2071 379.721 18.4735 378.644 18.4811 377.554C18.5161 376.421 18.2853 375.292 17.8024 374.237C17.3195 373.181 16.5944 372.22 15.6703 371.411C14.7463 370.601 13.6421 369.96 12.4237 369.525C11.2053 369.091 9.89759 368.871 8.57847 368.88C6.04189 368.961 3.63647 369.87 1.85202 371.422C0.0675631 372.974 -0.961742 375.053 -1.0263 377.234C-1.00683 379.419 0.0113511 381.51 1.80839 383.055C3.60543 384.6 6.03714 385.476 8.57847 385.492ZM200.711 124.592C198.2 124.514 195.753 125.284 193.895 126.738C192.037 128.192 190.916 130.214 190.771 132.37C190.739 134.541 191.686 136.638 193.415 138.22C195.143 139.802 197.518 140.747 200.04 140.855C202.562 140.962 205.034 140.225 206.936 138.798C208.839 137.371 210.023 135.365 210.241 133.203C210.209 130.999 209.209 128.887 207.441 127.29C205.674 125.693 203.27 124.73 200.711 124.592ZM152.054 245.968C149.541 245.967 147.124 246.8 145.308 248.294C143.491 249.788 142.416 251.827 142.305 253.986C142.195 256.145 143.058 258.257 144.715 259.882C146.372 261.507 148.694 262.52 151.198 262.708C157.415 262.932 160.691 259.508 161.585 254.418C160.915 249.489 157.862 246.128 152.054 245.968ZM200.264 99.2739C201.529 99.3436 202.798 99.1905 203.992 98.8237C205.185 98.457 206.28 97.8844 207.207 97.1411C208.134 96.3978 208.875 95.4995 209.384 94.5012C209.893 93.5029 210.159 92.4258 210.167 91.3358C210.202 90.202 209.971 89.0737 209.488 88.0182C209.005 86.9627 208.28 86.0016 207.356 85.1922C206.432 84.3827 205.328 83.7415 204.11 83.3067C202.891 82.872 201.583 82.6525 200.264 82.6615C197.728 82.7423 195.322 83.6512 193.538 85.2033C191.753 86.7554 190.724 88.834 190.66 91.0157C190.679 93.2007 191.697 95.2915 193.494 96.8366C195.291 98.3817 197.723 99.2571 200.264 99.2739ZM141.854 214.28C142.063 216.442 143.227 218.453 145.108 219.9C146.989 221.346 149.443 222.118 151.965 222.057C154.487 221.995 156.887 221.105 158.669 219.569C160.451 218.033 161.481 215.969 161.547 213.8C161.547 208.454 157.49 205.766 151.422 205.189C145.428 205.99 141.556 208.934 141.854 214.28ZM104.626 287.899C102.097 287.936 99.682 288.807 97.8786 290.332C96.0753 291.856 95.0218 293.918 94.9358 296.091C94.8498 298.265 95.7378 300.383 97.4165 302.01C99.0951 303.636 101.436 304.646 103.956 304.831C110.173 305.184 113.486 301.791 114.64 296.349C113.933 291.452 111.104 287.899 104.738 287.803L104.626 287.899ZM67.175 337.512C67.3657 336.37 67.2636 335.206 66.8757 334.102C66.4878 332.998 65.8236 331.98 64.9296 331.12C64.0357 330.26 62.9337 329.578 61.701 329.123C60.4682 328.668 59.1346 328.451 57.7936 328.486C56.5464 328.379 55.2872 328.496 54.0951 328.829C52.903 329.161 51.8038 329.702 50.8667 330.418C49.9296 331.133 49.1749 332.008 48.6499 332.986C48.125 333.965 47.8413 335.026 47.8166 336.104C47.3326 341.449 51.2415 344.33 57.4958 345.386C59.9967 345.366 62.3963 344.533 64.2125 343.055C66.0287 341.576 67.127 339.562 67.2867 337.416L67.175 337.512ZM141.631 10.1626C141.73 12.3248 142.787 14.3725 144.585 15.8866C146.383 17.4008 148.786 18.267 151.302 18.3079C153.818 18.3488 156.257 17.5613 158.12 16.1066C159.984 14.652 161.13 12.6401 161.324 10.4827C161.622 5.13734 157.601 2.3206 151.645 1.48839C145.837 2.00052 141.854 4.72123 141.817 10.0666L141.631 10.1626ZM18.7417 336.776C18.854 335.628 18.6744 334.472 18.2151 333.39C17.7559 332.307 17.0281 331.324 16.0822 330.507C15.1364 329.691 13.9952 329.062 12.738 328.663C11.4808 328.264 10.1376 328.105 8.80184 328.198C7.46982 328.102 6.12945 328.255 4.87335 328.648C3.61724 329.041 2.47537 329.664 1.52666 330.474C0.577945 331.283 -0.154981 332.26 -0.621476 333.337C-1.08797 334.414 -1.2769 335.566 -1.17521 336.712C-1.17521 342.057 2.54757 344.778 9.13689 345.546C14.6466 344.714 18.7789 342.185 18.7417 336.776ZM151.422 41.9789C150.083 41.9161 148.744 42.1048 147.499 42.5318C146.253 42.9588 145.131 43.614 144.21 44.4517C143.288 45.2894 142.591 46.2895 142.164 47.3826C141.738 48.4757 141.594 49.6354 141.742 50.7812C141.673 51.9358 141.898 53.0893 142.402 54.1613C142.905 55.2333 143.675 56.1978 144.657 56.9873C145.639 57.7769 146.81 58.3725 148.088 58.7324C149.365 59.0924 150.719 59.2081 152.054 59.0714C158.234 59.0714 161.324 55.4544 161.957 50.2371C160.877 45.1158 157.639 41.7869 151.422 41.9789ZM151.682 82.3735C150.36 82.2865 149.031 82.4414 147.784 82.8281C146.537 83.2149 145.399 83.8245 144.446 84.617C143.492 85.4094 142.745 86.3666 142.254 87.4254C141.762 88.4842 141.537 89.6206 141.593 90.7596C141.505 91.9576 141.716 93.158 142.211 94.2803C142.707 95.4025 143.475 96.4207 144.466 97.2665C145.457 98.1122 146.647 98.7661 147.955 99.184C149.264 99.602 150.662 99.7745 152.054 99.69C153.395 99.6868 154.721 99.4505 155.953 98.9953C157.184 98.5401 158.296 97.8753 159.221 97.041C160.146 96.2068 160.866 95.2202 161.336 94.1407C161.806 93.0613 162.017 91.9112 161.957 90.7596C161.138 85.6063 157.974 82.3094 151.682 82.3414V82.3735ZM67.5845 296.829C67.7533 295.691 67.6389 294.535 67.2488 293.438C66.8588 292.341 66.202 291.327 65.3221 290.465C64.4421 289.602 63.359 288.91 62.1445 288.435C60.9301 287.959 59.612 287.711 58.2776 287.707C56.8956 287.585 55.4991 287.716 54.1803 288.091C52.8615 288.467 51.6503 289.079 50.6266 289.886C49.6029 290.694 48.7899 291.679 48.2414 292.776C47.6929 293.874 47.4212 295.059 47.4443 296.253C47.3794 297.389 47.5786 298.524 48.0304 299.593C48.4822 300.661 49.1774 301.641 50.0753 302.476C50.9732 303.311 52.0558 303.983 53.2597 304.453C54.4635 304.924 55.7645 305.183 57.0863 305.215C63.3033 304.703 67.2867 302.015 67.5845 296.733V296.829ZM152.054 164.731C150.726 164.628 149.388 164.765 148.126 165.135C146.864 165.504 145.706 166.097 144.727 166.876C143.748 167.654 142.97 168.6 142.443 169.653C141.916 170.706 141.652 171.843 141.668 172.989C141.555 174.18 141.739 175.378 142.207 176.503C142.675 177.628 143.416 178.655 144.381 179.515C145.345 180.375 146.512 181.048 147.803 181.49C149.094 181.932 150.48 182.133 151.868 182.079C154.376 182.185 156.831 181.438 158.705 180.001C160.578 178.564 161.719 176.552 161.883 174.397C162.026 173.199 161.882 171.988 161.457 170.84C161.033 169.692 160.338 168.632 159.416 167.725C158.494 166.818 157.364 166.084 156.098 165.569C154.831 165.054 153.455 164.769 152.054 164.731ZM141.668 132.723C141.548 133.864 141.708 135.015 142.138 136.1C142.567 137.185 143.257 138.181 144.162 139.023C145.068 139.864 146.168 140.533 147.393 140.986C148.618 141.439 149.939 141.667 151.273 141.653C152.658 141.75 154.051 141.592 155.36 141.189C156.668 140.787 157.862 140.15 158.862 139.321C159.863 138.491 160.646 137.488 161.16 136.378C161.674 135.268 161.908 134.076 161.845 132.883C161.968 130.727 161.1 128.615 159.428 127.005C157.757 125.394 155.416 124.413 152.911 124.272C151.517 124.14 150.107 124.255 148.768 124.612C147.429 124.969 146.189 125.559 145.127 126.346C144.065 127.133 143.203 128.099 142.595 129.186C141.987 130.272 141.646 131.454 141.593 132.659L141.668 132.723ZM114.827 254.642C114.952 253.501 114.797 252.349 114.372 251.263C113.947 250.176 113.261 249.178 112.359 248.333C111.458 247.488 110.36 246.816 109.137 246.359C107.914 245.902 106.593 245.67 105.259 245.68C103.874 245.579 102.48 245.733 101.17 246.131C99.8593 246.529 98.6625 247.162 97.6588 247.989C96.6551 248.816 95.8676 249.816 95.3487 250.925C94.8298 252.033 94.5913 253.224 94.6491 254.418C94.5266 256.574 95.3947 258.685 97.0661 260.296C98.7376 261.907 101.078 262.888 103.584 263.029C104.971 263.152 106.374 263.029 107.704 262.668C109.034 262.307 110.264 261.716 111.318 260.93C112.372 260.144 113.227 259.18 113.83 258.099C114.434 257.017 114.773 255.841 114.827 254.642ZM94.463 9.39445C94.3475 10.5794 94.5135 11.7723 94.9509 12.9004C95.3883 14.0285 96.088 15.0683 97.0074 15.9567C97.9268 16.8451 99.0467 17.5634 100.299 18.0681C101.551 18.5727 102.91 18.8531 104.292 18.8922C105.675 18.9313 107.052 18.7283 108.34 18.2956C109.628 17.8628 110.801 17.2093 111.786 16.3748C112.771 15.5404 113.549 14.5423 114.072 13.4414C114.594 12.3404 114.851 11.1596 114.827 9.9706C114.78 7.72186 113.73 5.57444 111.895 3.97213C110.059 2.36982 107.578 1.4351 104.963 1.36113C102.349 1.28716 99.8013 2.0796 97.8471 3.57468C95.8929 5.06976 94.6814 7.15321 94.463 9.39445ZM114.901 214.248C115.023 213.054 114.849 211.853 114.391 210.721C113.933 209.59 113.202 208.555 112.246 207.684C111.289 206.813 110.129 206.126 108.841 205.669C107.553 205.211 106.168 204.993 104.775 205.029C103.436 204.926 102.086 205.066 100.815 205.441C99.5426 205.816 98.3769 206.417 97.3933 207.205C96.4098 207.993 95.6306 208.951 95.1064 210.016C94.5822 211.08 94.325 212.228 94.3513 213.384C93.8673 218.601 98.4091 222.666 105.52 222.73C106.771 222.705 108.005 222.468 109.15 222.033C110.295 221.598 111.33 220.974 112.194 220.195C113.058 219.416 113.736 218.498 114.187 217.495C114.639 216.491 114.856 215.42 114.827 214.344L114.901 214.248ZM-1.58472 296.509C-1.65305 297.66 -1.44167 298.81 -0.964075 299.887C-0.48648 300.963 0.246846 301.942 1.18912 302.761C2.13138 303.581 3.26191 304.222 4.50856 304.644C5.75521 305.067 7.0906 305.261 8.42956 305.215C10.5091 305.279 12.5628 304.804 14.3247 303.852C16.0866 302.9 17.4753 301.516 18.311 299.877C19.1466 298.239 19.3906 296.422 19.0113 294.663C18.632 292.904 17.6469 291.283 16.1837 290.011C14.7206 288.739 12.8467 287.874 10.8051 287.529C8.76349 287.183 6.6482 287.373 4.73339 288.073C2.81859 288.773 1.19254 289.952 0.0660079 291.456C-1.06053 292.96 -1.63561 294.721 -1.58472 296.509ZM104.068 41.5948C102.728 41.5547 101.393 41.7591 100.151 42.1946C98.9098 42.63 97.7897 43.2867 96.8647 44.1214C95.9397 44.956 95.2308 45.9496 94.7847 47.0369C94.3387 48.1241 94.1656 49.2802 94.2768 50.4291C94.1379 51.6399 94.313 52.8621 94.7895 54.0076C95.2661 55.1532 96.0323 56.1936 97.0329 57.0539C98.0334 57.9142 99.2435 58.5729 100.576 58.9827C101.908 59.3924 103.33 59.543 104.738 59.4235C106.146 59.4454 107.544 59.221 108.848 58.7639C110.152 58.3068 111.334 57.6265 112.322 56.7644C113.311 55.9023 114.085 54.8763 114.598 53.7489C115.112 52.6215 115.353 51.4162 115.307 50.2062C115.262 48.9962 114.931 47.8067 114.334 46.7102C113.737 45.6136 112.887 44.6328 111.836 43.8274C110.785 43.0219 109.554 42.4087 108.219 42.0249C106.883 41.6411 105.471 41.4948 104.068 41.5948ZM67.9196 254.386C68.0284 253.237 67.8572 252.081 67.4168 250.992C66.9765 249.903 66.2768 248.904 65.3624 248.061C64.4479 247.217 63.3389 246.547 62.1062 246.093C60.8735 245.639 59.5441 245.411 58.2031 245.424C56.806 245.295 55.3928 245.418 54.0542 245.785C52.7155 246.152 51.4809 246.756 50.4295 247.558C49.378 248.36 48.533 249.341 47.9484 250.44C47.3638 251.538 47.0526 252.73 47.0348 253.938C46.9376 255.136 47.1285 256.338 47.5955 257.469C48.0626 258.601 48.7958 259.637 49.7494 260.514C50.703 261.391 51.8565 262.09 53.1381 262.566C54.4196 263.043 55.8017 263.288 57.198 263.285C58.6 263.371 60.0074 263.202 61.3287 262.79C62.6499 262.377 63.8554 261.731 64.8668 260.891C65.8781 260.052 66.6726 259.039 67.1985 257.918C67.7245 256.797 67.9702 255.594 67.9196 254.386ZM105.036 164.379C102.343 164.392 99.7596 165.298 97.8238 166.908C95.8881 168.517 94.7489 170.707 94.6434 173.021C94.5378 175.334 95.4741 177.594 97.2573 179.329C99.0405 181.064 101.533 182.141 104.217 182.335C105.629 182.492 107.063 182.385 108.423 182.022C109.783 181.659 111.035 181.048 112.095 180.23C113.155 179.413 113.998 178.409 114.566 177.286C115.133 176.164 115.413 174.949 115.385 173.725C114.827 168.124 111.737 164.603 105.036 164.379ZM94.1652 90.7596C93.9627 91.967 94.0762 93.1979 94.4975 94.3627C94.9189 95.5275 95.6373 96.5967 96.6005 97.4923C97.5637 98.3879 98.7473 99.0873 100.065 99.5395C101.383 99.9917 102.801 100.185 104.217 100.106C105.621 100.28 107.053 100.183 108.407 99.8203C109.762 99.458 111.006 98.8403 112.047 98.0122C113.089 97.184 113.902 96.1664 114.428 95.0335C114.954 93.9006 115.179 92.6811 115.087 91.4638C115.348 85.7343 111.625 82.6615 104.701 81.8613C98.558 82.2454 94.3513 84.8061 94.1652 90.7596ZM68.1057 10.4187C68.2676 9.21344 68.1246 7.99231 67.6865 6.83898C67.2484 5.68565 66.5255 4.62738 65.5673 3.73667C64.6091 2.84596 63.4383 2.14385 62.1351 1.67845C60.8319 1.21304 59.4271 0.995349 58.017 1.04027C56.5474 0.906527 55.0616 1.05097 53.6638 1.46347C52.266 1.87596 50.9902 2.54651 49.9259 3.42803C48.8616 4.30956 48.0347 5.38069 47.503 6.56624C46.9714 7.75179 46.7481 9.02301 46.8486 10.2907C46.7802 11.4988 47.0052 12.7059 47.5095 13.835C48.0137 14.9642 48.7861 15.9906 49.7773 16.8489C50.7685 17.7071 51.9569 18.3784 53.2666 18.8199C54.5763 19.2614 55.9786 19.4634 57.3841 19.4131C64.0106 18.8689 67.994 16.0202 68.1057 10.2907V10.4187ZM115.05 132.691C115.142 131.473 114.917 130.254 114.391 129.121C113.865 127.988 113.052 126.97 112.01 126.142C110.968 125.314 109.725 124.696 108.37 124.334C107.015 123.972 105.584 123.874 104.179 124.048C102.764 123.969 101.345 124.163 100.028 124.615C98.71 125.067 97.5264 125.766 96.5633 126.662C95.6001 127.558 94.8816 128.627 94.4603 129.792C94.039 130.956 93.9254 132.187 94.1279 133.395C94.3513 139.188 98.4464 141.877 105.036 142.165C106.462 142.194 107.879 141.957 109.189 141.471C110.5 140.985 111.672 140.261 112.627 139.349C113.581 138.437 114.295 137.358 114.72 136.187C115.145 135.016 115.27 133.779 115.087 132.563L115.05 132.691ZM46.253 50.3331C46.254 52.2199 46.9014 54.0645 48.1144 55.6368C49.3274 57.2091 51.0523 58.4393 53.0736 59.1738C55.0949 59.9083 57.3231 60.1145 59.4799 59.7668C61.6367 59.419 63.6265 58.5326 65.201 57.2184C66.7754 55.9041 67.8647 54.2202 68.3327 52.3768C68.8007 50.5335 68.6268 48.6125 67.8326 46.8536C67.0385 45.0948 65.6593 43.576 63.8672 42.4871C62.0752 41.3981 59.9498 40.7872 57.7564 40.7306C54.7821 40.784 51.9419 41.8043 49.8075 43.586C47.673 45.3677 46.403 47.7786 46.253 50.3331ZM68.5897 213.928C68.6706 211.475 67.6269 209.094 65.6837 207.298C63.7405 205.501 61.0537 204.433 58.2031 204.325C56.733 204.252 55.2604 204.429 53.8703 204.847C52.4801 205.265 51.1998 205.915 50.103 206.76C49.0062 207.604 48.1145 208.627 47.4793 209.77C46.8441 210.912 46.478 212.151 46.4019 213.416C46.3778 215.961 47.4928 218.418 49.5161 220.277C51.5394 222.135 54.3164 223.254 57.2724 223.402C58.7391 223.419 60.1953 223.187 61.5578 222.72C62.9204 222.253 64.1626 221.56 65.2135 220.68C66.2645 219.801 67.1035 218.751 67.6828 217.593C68.2621 216.434 68.5702 215.189 68.5897 213.928ZM-2.14314 254.802C-2.06526 257.248 -0.875484 259.569 1.17081 261.269C3.2171 262.968 5.95681 263.91 8.80184 263.893C11.7639 263.893 14.6046 262.881 16.699 261.08C18.7935 259.279 19.9702 256.837 19.9702 254.29C19.8834 251.728 18.6434 249.296 16.5114 247.504C14.3795 245.713 11.5221 244.703 8.54124 244.688C7.05151 244.724 5.58536 245.017 4.22918 245.548C2.873 246.08 1.65422 246.839 0.644653 247.781C-0.364917 248.724 -1.14486 249.831 -1.64921 251.037C-2.15357 252.242 -2.37214 253.523 -2.29204 254.802H-2.14314ZM57.7564 163.707C55.562 163.707 53.4165 164.264 51.5878 165.307C49.7592 166.35 48.3284 167.833 47.4741 169.571C46.6198 171.309 46.38 173.225 46.7844 175.079C47.1889 176.933 48.2198 178.644 49.7484 179.998C51.277 181.352 53.2355 182.288 55.3794 182.691C57.5233 183.093 59.7576 182.944 61.8033 182.261C63.8489 181.578 65.6153 180.392 66.8818 178.851C68.1483 177.311 68.8589 175.483 68.9247 173.597C68.8626 171.04 67.6759 168.598 65.6037 166.763C63.5314 164.928 60.7275 163.836 57.7564 163.707ZM-2.62709 9.87457C-2.54911 12.4337 -1.35938 14.8749 0.707756 16.7174C2.77489 18.5599 5.56956 19.67 8.54124 19.8292C11.6396 19.8129 14.608 18.7562 16.8128 16.8844C19.0176 15.0127 20.2842 12.4741 20.3425 9.81055C20.3425 7.20863 19.1403 4.71328 17.0004 2.87344C14.8606 1.03361 11.9583 0 8.93213 0C5.90593 0 3.00367 1.03361 0.863821 2.87344C-1.27603 4.71328 -2.47819 7.20863 -2.47819 9.81055L-2.62709 9.87457ZM57.7936 81.1571C55.5347 81.1191 53.3137 81.6594 51.4129 82.7094C49.5121 83.7594 48.0174 85.2717 47.1187 87.054C46.2201 88.8362 45.9581 90.808 46.3661 92.7186C46.7741 94.6292 47.8337 96.3923 49.4101 97.7839C50.9865 99.1754 53.0085 100.132 55.2192 100.533C57.4299 100.934 59.7292 100.761 61.8251 100.036C63.9209 99.3101 65.7185 98.0652 66.9893 96.4591C68.2601 94.853 68.9467 92.9582 68.9619 91.0157C68.8484 88.4757 67.6439 86.0621 65.5811 84.2412C63.5183 82.4204 60.7438 81.3216 57.7936 81.1571ZM57.9797 123.088C55.721 123.012 53.4871 123.516 51.5623 124.535C49.6376 125.555 48.109 127.043 47.1712 128.812C46.2333 130.58 45.9286 132.548 46.2958 134.466C46.6629 136.384 47.6853 138.164 49.233 139.581C50.7806 140.998 52.7834 141.986 54.9866 142.421C57.1897 142.856 59.4936 142.718 61.605 142.024C63.7163 141.33 65.5398 140.111 66.8433 138.523C68.1467 136.935 68.8713 135.05 68.9247 133.107C68.8525 130.575 67.6954 128.155 65.6754 126.312C63.6554 124.469 60.9148 123.332 57.9797 123.12V123.088ZM20.268 214.536C20.3423 211.882 19.2224 209.305 17.1418 207.343C15.0612 205.382 12.1804 204.186 9.09966 204.005C7.58901 203.967 6.08449 204.186 4.672 204.648C3.25951 205.11 1.9667 205.807 0.8674 206.698C-0.231901 207.59 -1.11617 208.659 -1.73492 209.845C-2.35367 211.03 -2.69478 212.309 -2.73878 213.608C-2.78278 214.906 -2.5288 216.2 -1.99135 217.415C-1.4539 218.629 -0.643509 219.741 0.393567 220.686C1.43064 221.631 2.67408 222.391 4.0529 222.923C5.43172 223.455 6.91891 223.748 8.42956 223.786C11.3765 223.754 14.2078 222.796 16.3889 221.091C18.57 219.387 19.9499 217.055 20.268 214.536ZM8.3551 40.6026C5.37608 40.6446 2.53562 41.6916 0.446339 43.5179C-1.64295 45.3442 -2.81364 47.8034 -2.81324 50.3651C-2.80406 53.0177 -1.58712 55.5617 0.576927 57.4522C2.74097 59.3428 5.68004 60.4296 8.76461 60.4798C11.8407 60.374 14.7534 59.2609 16.9059 57.3685C19.0584 55.4761 20.2879 52.9476 20.3425 50.3011C20.1979 47.6633 18.8667 45.1771 16.6299 43.3675C14.3932 41.5579 11.4261 40.5664 8.3551 40.6026ZM-2.81324 173.629C-2.76183 175.61 -2.03093 177.533 -0.71235 179.157C0.606235 180.782 2.45371 182.035 4.59799 182.759C6.74227 183.484 9.08775 183.647 11.3398 183.229C13.5918 182.811 15.65 181.831 17.2558 180.41C18.8616 178.99 19.9434 177.193 20.3652 175.245C20.7871 173.298 20.5303 171.287 19.6271 169.465C18.7238 167.642 17.2143 166.09 15.2884 165.003C13.3624 163.916 11.1057 163.342 8.80184 163.355C5.68704 163.437 2.73029 164.553 0.551166 166.468C-1.62795 168.384 -2.86032 170.95 -2.88769 173.629H-2.81324ZM-2.81324 91.3358C-2.73091 93.3345 -1.96127 95.2674 -0.601601 96.8901C0.758065 98.5128 2.64673 99.7525 4.82566 100.453C7.0046 101.153 9.37601 101.282 11.6402 100.823C13.9043 100.365 15.9595 99.3393 17.5461 97.8768C19.1327 96.4142 20.1794 94.5801 20.5539 92.6063C20.9284 90.6324 20.6139 88.6074 19.6502 86.7871C18.6864 84.9669 17.1167 83.4332 15.1394 82.3798C13.1621 81.3264 10.866 80.8007 8.54124 80.8691C5.41404 80.9852 2.46181 82.1421 0.308317 84.0952C-1.84518 86.0483 -3.03127 88.6447 -2.99937 91.3358H-2.81324ZM8.61569 122.768C6.28942 122.8 4.02638 123.424 2.11272 124.562C0.199067 125.7 -1.27927 127.299 -2.13535 129.16C-2.99144 131.02 -3.18683 133.056 -2.69682 135.012C-2.20682 136.967 -1.05342 138.754 0.617536 140.146C2.28849 141.538 4.40196 142.472 6.69071 142.832C8.97946 143.191 11.3407 142.958 13.4759 142.164C15.611 141.369 17.4243 140.048 18.6863 138.368C19.9482 136.687 20.6023 134.723 20.5658 132.723C20.4507 130.059 19.1433 127.536 16.9166 125.681C14.6899 123.826 11.716 122.783 8.61569 122.768Z" fill="#79448C"/>
</svg>
