<svg width="60" height="60" viewBox="0 0 60 60" fill="none" xmlns="http://www.w3.org/2000/svg">
<path d="M30 22.56C28.5285 22.56 27.0901 22.9963 25.8666 23.8139C24.6431 24.6314 23.6895 25.7934 23.1263 27.1528C22.5632 28.5123 22.4159 30.0083 22.703 31.4515C22.99 32.8947 23.6986 34.2204 24.7391 35.2609C25.7796 36.3014 27.1053 37.01 28.5485 37.297C29.9917 37.5841 31.4877 37.4368 32.8472 36.8737C34.2066 36.3106 35.3686 35.3569 36.1861 34.1334C37.0037 32.9099 37.44 31.4715 37.44 30C37.44 29.023 37.2476 28.0555 36.8737 27.1528C36.4998 26.2502 35.9517 25.43 35.2609 24.7391C34.57 24.0483 33.7498 23.5002 32.8472 23.1263C31.9445 22.7524 30.977 22.56 30 22.56ZM59.79 15.21C59.7742 12.8933 59.3476 10.5977 58.53 8.43C57.9278 6.84378 56.9962 5.40328 55.7964 4.20356C54.5967 3.00383 53.1562 2.07215 51.57 1.47C49.4023 0.652391 47.1067 0.225783 44.79 0.21C40.92 -2.01166e-07 39.78 0 30 0C20.22 0 19.08 -2.01166e-07 15.21 0.21C12.8933 0.225783 10.5977 0.652391 8.43 1.47C6.84378 2.07215 5.40328 3.00383 4.20356 4.20356C3.00383 5.40328 2.07215 6.84378 1.47 8.43C0.652391 10.5977 0.225783 12.8933 0.21 15.21C-2.01166e-07 19.08 0 20.22 0 30C0 39.78 -2.01166e-07 40.92 0.21 44.79C0.242292 47.1149 0.668323 49.4175 1.47 51.6C2.06948 53.179 3.00039 54.6111 4.2 55.8C5.39458 57.0069 6.83817 57.9386 8.43 58.53C10.5977 59.3476 12.8933 59.7742 15.21 59.79C19.08 60 20.22 60 30 60C39.78 60 40.92 60 44.79 59.79C47.1067 59.7742 49.4023 59.3476 51.57 58.53C53.1618 57.9386 54.6054 57.0069 55.8 55.8C56.9996 54.6111 57.9305 53.179 58.53 51.6C59.3468 49.4217 59.7733 47.1164 59.79 44.79C60 40.92 60 39.78 60 30C60 20.22 60 19.08 59.79 15.21ZM52.17 39.21C52.0737 41.0613 51.6786 42.8849 51 44.61C50.4176 46.0491 49.5518 47.3563 48.4541 48.4541C47.3563 49.5518 46.0491 50.4176 44.61 51C42.8685 51.6408 41.0348 51.9954 39.18 52.05C36.81 52.05 36.18 52.05 30 52.05C23.82 52.05 23.19 52.05 20.82 52.05C18.9652 51.9954 17.1315 51.6408 15.39 51C13.9023 50.4472 12.5588 49.5652 11.46 48.42C10.373 47.3438 9.53353 46.0436 9 44.61C8.35667 42.8703 8.01182 41.0345 7.98 39.18C7.98 36.81 7.98 36.18 7.98 30C7.98 23.82 7.98 23.19 7.98 20.82C8.01182 18.9655 8.35667 17.1297 9 15.39C9.55284 13.9023 10.4348 12.5588 11.58 11.46C12.661 10.3789 13.9598 9.54028 15.39 9C17.1315 8.35922 18.9652 8.00463 20.82 7.95C23.19 7.95 23.82 7.95 30 7.95C36.18 7.95 36.81 7.95 39.18 7.95C41.0348 8.00463 42.8685 8.35922 44.61 9C46.0977 9.55284 47.4412 10.4348 48.54 11.58C49.627 12.6562 50.4665 13.9564 51 15.39C51.6408 17.1315 51.9954 18.9652 52.05 20.82C52.05 23.19 52.05 23.82 52.05 30C52.05 36.18 52.26 36.81 52.17 39.18V39.21ZM47.37 16.89C47.0128 15.921 46.4496 15.0409 45.7194 14.3106C44.9891 13.5804 44.109 13.0172 43.14 12.66C41.8094 12.1988 40.408 11.9754 39 12C36.66 12 36 12 30 12C24 12 23.34 12 21 12C19.5848 12.0138 18.1832 12.2779 16.86 12.78C15.9058 13.121 15.0351 13.6611 14.3058 14.3646C13.5764 15.0681 13.0052 15.9187 12.63 16.86C12.1943 18.1961 11.9815 19.5948 12 21C12 23.34 12 24 12 30C12 36 12 36.66 12 39C12.0297 40.4136 12.2933 41.8125 12.78 43.14C13.1372 44.109 13.7004 44.9891 14.4306 45.7194C15.1609 46.4496 16.041 47.0128 17.01 47.37C18.29 47.8407 19.637 48.1041 21 48.15C23.34 48.15 24 48.15 30 48.15C36 48.15 36.66 48.15 39 48.15C40.4152 48.1362 41.8168 47.8721 43.14 47.37C44.109 47.0128 44.9891 46.4496 45.7194 45.7194C46.4496 44.9891 47.0128 44.109 47.37 43.14C47.8721 41.8168 48.1362 40.4152 48.15 39C48.15 36.66 48.15 36 48.15 30C48.15 24 48.15 23.34 48.15 21C48.1509 19.5834 47.8863 18.1792 47.37 16.86V16.89ZM30 41.46C28.4965 41.46 27.0077 41.1634 25.619 40.5871C24.2303 40.0108 22.9689 39.1662 21.9071 38.1016C20.8454 37.0371 20.0041 35.7735 19.4314 34.3833C18.8588 32.9931 18.5661 31.5035 18.57 30C18.57 27.7322 19.2429 25.5153 20.5035 23.6301C21.764 21.7448 23.5556 20.276 25.6514 19.4095C27.7472 18.543 30.053 18.3178 32.2768 18.7624C34.5006 19.2071 36.5425 20.3015 38.1441 21.9072C39.7456 23.5129 40.8347 25.5577 41.2734 27.7827C41.7122 30.0077 41.481 32.3129 40.609 34.4064C39.737 36.4999 38.2635 38.2876 36.375 39.5432C34.4865 40.7989 32.2678 41.4659 30 41.46ZM42 20.79C41.3368 20.7198 40.7231 20.4067 40.2771 19.9109C39.831 19.4152 39.5842 18.7719 39.5842 18.105C39.5842 17.4381 39.831 16.7948 40.2771 16.2991C40.7231 15.8033 41.3368 15.4902 42 15.42C42.6632 15.4902 43.2769 15.8033 43.7229 16.2991C44.169 16.7948 44.4158 17.4381 44.4158 18.105C44.4158 18.7719 44.169 19.4152 43.7229 19.9109C43.2769 20.4067 42.6632 20.7198 42 20.79Z" fill="#C5A8D9"/>
</svg>
