<svg width="60" height="60" viewBox="0 0 60 60" fill="none" xmlns="http://www.w3.org/2000/svg">
<path d="M55.4099 -6.87889e-05H4.58993C4.01867 -0.00800265 3.45143 0.0966737 2.92063 0.307983C2.38982 0.519291 1.90584 0.833093 1.49632 1.23147C1.08681 1.62984 0.759776 2.10498 0.533907 2.62976C0.308039 3.15454 0.187757 3.71867 0.179932 4.28993V55.7099C0.187757 56.2812 0.308039 56.8453 0.533907 57.3701C0.759776 57.8949 1.08681 58.37 1.49632 58.7684C1.90584 59.1668 2.38982 59.4806 2.92063 59.6919C3.45143 59.9032 4.01867 60.0079 4.58993 59.9999H55.4099C55.9812 60.0079 56.5484 59.9032 57.0792 59.6919C57.61 59.4806 58.094 59.1668 58.5035 58.7684C58.9131 58.37 59.2401 57.8949 59.466 57.3701C59.6918 56.8453 59.8121 56.2812 59.8199 55.7099V4.28993C59.8121 3.71867 59.6918 3.15454 59.466 2.62976C59.2401 2.10498 58.9131 1.62984 58.5035 1.23147C58.094 0.833093 57.61 0.519291 57.0792 0.307983C56.5484 0.0966737 55.9812 -0.00800265 55.4099 -6.87889e-05ZM18.2699 50.2199H9.26993V23.2199H18.2699V50.2199ZM13.7699 19.4399C12.5287 19.4399 11.3383 18.9469 10.4607 18.0692C9.583 17.1915 9.08993 16.0011 9.08993 14.7599C9.08993 13.5187 9.583 12.3283 10.4607 11.4507C11.3383 10.573 12.5287 10.0799 13.7699 10.0799C14.429 10.0052 15.0965 10.0705 15.7286 10.2716C16.3607 10.4727 16.9431 10.805 17.4379 11.2468C17.9327 11.6886 18.3285 12.23 18.5995 12.8354C18.8706 13.4408 19.0107 14.0966 19.0107 14.7599C19.0107 15.4232 18.8706 16.0791 18.5995 16.6845C18.3285 17.2899 17.9327 17.8312 17.4379 18.273C16.9431 18.7149 16.3607 19.0472 15.7286 19.2483C15.0965 19.4494 14.429 19.5147 13.7699 19.4399ZM50.7299 50.2199H41.7299V35.7299C41.7299 32.0999 40.4399 29.7299 37.1699 29.7299C36.1579 29.7373 35.1725 30.0548 34.3464 30.6394C33.5204 31.2241 32.8934 32.048 32.5499 32.9999C32.3152 33.7051 32.2134 34.4477 32.2499 35.1899V50.1899H23.2499C23.2499 50.1899 23.2499 25.6499 23.2499 23.1899H32.2499V26.9999C33.0675 25.5812 34.2567 24.4125 35.6893 23.6195C37.1219 22.8266 38.7436 22.4395 40.3799 22.4999C46.3799 22.4999 50.7299 26.3699 50.7299 34.6799V50.2199Z" fill="#C5A8D9"/>
</svg>
