<svg width="60" height="50" viewBox="0 0 60 50" fill="none" xmlns="http://www.w3.org/2000/svg">
<path d="M60 6.40014C57.745 7.37843 55.3603 8.02513 52.92 8.32014C55.4945 6.7821 57.4238 4.36249 58.35 1.51014C55.9307 2.95033 53.2823 3.96503 50.52 4.51014C48.6736 2.50786 46.2149 1.17503 43.5294 0.720695C40.844 0.26636 38.0836 0.716216 35.6814 1.99971C33.2791 3.2832 31.3708 5.32773 30.2557 7.81265C29.1406 10.2976 28.8819 13.0823 29.52 15.7301C24.6283 15.4827 19.8433 14.209 15.476 11.9917C11.1086 9.77445 7.25654 6.66322 4.17 2.86014C3.08741 4.75065 2.51856 6.89161 2.52 9.07014C2.51616 11.0933 3.01265 13.086 3.96527 14.8708C4.91788 16.6557 6.29706 18.1773 7.98 19.3001C6.02393 19.2469 4.10966 18.722 2.4 17.7701V17.9201C2.41466 20.7548 3.40798 23.4974 5.21194 25.684C7.01591 27.8707 9.51977 29.3671 12.3 29.9201C11.2298 30.2458 10.1186 30.4176 9 30.4301C8.22567 30.4211 7.45327 30.3509 6.69 30.2201C7.48173 32.6586 9.01387 34.7896 11.0732 36.3166C13.1326 37.8437 15.6167 38.6908 18.18 38.7401C13.8516 42.1459 8.50765 44.0047 3 44.0201C1.99721 44.0234 0.995207 43.9633 0 43.8401C5.62329 47.4709 12.1764 49.3983 18.87 49.3901C23.4891 49.4381 28.0714 48.5652 32.3493 46.8224C36.6273 45.0796 40.5151 42.5018 43.7856 39.2396C47.0562 35.9775 49.6439 32.0963 51.3977 27.8229C53.1515 23.5494 54.0361 18.9693 54 14.3501C54 13.8401 54 13.3001 54 12.7601C56.3541 11.0046 58.3844 8.85242 60 6.40014Z" fill="#C5A8D9"/>
</svg>
