<svg width="68" height="48" viewBox="0 0 68 48" fill="none" xmlns="http://www.w3.org/2000/svg">
<path d="M67.0001 17.13C67.1484 12.8359 66.2094 8.574 64.2701 4.73995C62.9543 3.16675 61.1282 2.10508 59.1101 1.73995C50.7626 0.982528 42.3807 0.672085 34.0001 0.809952C25.65 0.665827 17.2982 0.966253 8.98008 1.70995C7.33554 2.0091 5.81363 2.78048 4.60008 3.92995C1.90008 6.41995 1.60008 10.68 1.30008 14.28C0.864817 20.7526 0.864817 27.2473 1.30008 33.7199C1.38687 35.7462 1.68856 37.7574 2.20008 39.7199C2.56181 41.2351 3.29365 42.637 4.33008 43.7999C5.55188 45.0103 7.10923 45.8256 8.80008 46.1399C15.2678 46.9383 21.7847 47.2692 28.3001 47.1299C38.8001 47.2799 48.0101 47.1299 58.9001 46.2899C60.6324 45.9949 62.2337 45.1786 63.4901 43.9499C64.33 43.1097 64.9573 42.0812 65.3201 40.9499C66.393 37.6578 66.9199 34.2123 66.8801 30.7499C67.0001 29.0699 67.0001 18.93 67.0001 17.13ZM27.2201 32.5499V13.98L44.9801 23.31C40.0001 26.07 33.4301 29.19 27.2201 32.5499Z" fill="#C5A8D9"/>
</svg>
